<?xml version="1.0" encoding="utf-8"?>
<!-- Generator: Adobe Illustrator 16.0.0, SVG Export Plug-In . SVG Version: 6.00 Build 0)  -->
<!DOCTYPE svg PUBLIC "-//W3C//DTD SVG 1.1//EN" "http://www.w3.org/Graphics/SVG/1.1/DTD/svg11.dtd">
<svg version="1.1" id="Layer_1" xmlns="http://www.w3.org/2000/svg" xmlns:xlink="http://www.w3.org/1999/xlink" x="0px" y="0px"
	 width="117.745px" height="75.001px" viewBox="0 0 117.745 75.001" enable-background="new 0 0 117.745 75.001"
	 xml:space="preserve">
<g id="price-month">
	<g>
		<g>
			<g>
				<g>
					<path fill="#EFEEEE" d="M26.916,35.991c-0.324,0-0.655-0.011-0.992-0.035c-0.754-0.06-1.469-0.172-2.132-0.334
						c-0.458-0.101-0.803-0.508-0.803-0.996c0-0.563,0.453-1.019,1.017-1.019c0.082,0,0.172,0.011,0.252,0.03
						c0.561,0.139,1.174,0.234,1.82,0.285c2.266,0.164,4.211-0.366,5.647-0.988c-0.649-1.034-1.181-2.128-1.584-3.263
						c-0.602-1.682-0.922-3.464-0.952-5.296c0-0.008,0-0.015,0-0.022c0-0.003,0-0.005,0-0.008v-0.106
						c0-0.563,0.457-1.019,1.021-1.019c0.563,0,1.02,0.457,1.02,1.019v0.064c0.001,0.029,0.001,0.058,0,0.087
						c0.029,1.581,0.31,3.132,0.833,4.596c0.472,1.326,1.141,2.586,1.99,3.748c0.174,0.238,0.236,0.539,0.172,0.826
						s-0.25,0.532-0.509,0.672C32.184,35.063,29.818,35.991,26.916,35.991z"/>
				</g>
				<g>
					<path fill="#EFEEEE" d="M12.228,35.991c-2.328,0-4.663-0.6-6.813-1.757c-0.261-0.14-0.446-0.385-0.512-0.672
						c-0.064-0.288-0.003-0.589,0.172-0.827c0.85-1.162,1.519-2.422,1.989-3.746c0.523-1.462,0.804-3.009,0.834-4.601
						c-0.001-0.028-0.001-0.056,0-0.083v-0.064c0-0.563,0.457-1.019,1.021-1.019c0.563,0,1.02,0.457,1.02,1.019v0.106
						c0,0.003,0,0.005,0,0.007s0,0.005,0,0.007c-0.029,1.849-0.35,3.63-0.953,5.313c-0.402,1.133-0.933,2.226-1.582,3.26
						c1.822,0.787,3.757,1.128,5.653,0.989c0.629-0.05,1.245-0.145,1.826-0.28c0.548-0.128,1.097,0.211,1.226,0.759
						s-0.211,1.097-0.759,1.226c-0.682,0.16-1.401,0.271-2.139,0.33C12.883,35.979,12.555,35.991,12.228,35.991z"/>
				</g>
				<g>
					<path fill="#EFEEEE" d="M8.934,25.219c-0.3,0-0.59-0.134-0.786-0.371c-2.894-3.506-3.813-7.854-2.4-11.347
						c0.927-2.295,2.392-3.936,4.354-4.877c1.043-0.5,2.172-0.77,3.362-0.806c1.265-1.077,3.251-2.341,5.935-2.78
						c0.641-0.104,1.313-0.158,1.998-0.158c1.862,0,4.592,0.404,7.03,2.328c2.58,2.037,3.47,4.687,3.762,5.558
						c0.546,1.628,0.609,2.978,0.644,3.704c0.117,2.541-0.402,5.193-1.505,7.67c-0.188,0.42-0.63,0.664-1.085,0.593
						c-3.583-0.547-7.039-1.913-9.996-3.949c-2.072-1.428-3.894-3.161-5.425-5.165c-0.85,0.831-1.612,1.743-2.275,2.725
						c-1.245,1.84-2.125,3.886-2.616,6.08c-0.085,0.38-0.379,0.678-0.757,0.769C9.093,25.21,9.013,25.219,8.934,25.219z
						 M14.973,13.074c0.043,0,0.086,0.003,0.129,0.009c0.287,0.036,0.545,0.193,0.709,0.432c1.522,2.202,3.402,4.083,5.589,5.589
						c2.488,1.714,5.366,2.909,8.365,3.479c0.766-1.974,1.12-4.039,1.028-6.02c-0.031-0.67-0.084-1.792-0.539-3.15
						c-0.244-0.728-0.989-2.944-3.092-4.604c-1.979-1.562-4.229-1.89-5.768-1.89c-0.567,0-1.145,0.045-1.669,0.132
						c-2.413,0.395-4.155,1.599-5.191,2.54c-0.191,0.174-0.44,0.276-0.7,0.264l-0.103-0.001c-0.98,0-1.906,0.205-2.751,0.61
						c-1.488,0.714-2.613,1.992-3.345,3.801c-0.92,2.275-0.564,5.054,0.901,7.588c0.563-1.65,1.34-3.208,2.317-4.653
						c0.971-1.434,2.132-2.739,3.451-3.877C14.493,13.161,14.729,13.074,14.973,13.074z"/>
				</g>
				<g>
					<path fill="#EFEEEE" d="M19.563,36.915c-5.673,0-10.584-5.267-11.676-12.523c-0.084-0.557,0.3-1.076,0.856-1.16
						c0.556-0.086,1.075,0.3,1.159,0.855c0.941,6.252,5.003,10.789,9.66,10.789s8.72-4.537,9.66-10.789
						c0.083-0.557,0.602-0.941,1.16-0.855c0.557,0.084,0.939,0.604,0.855,1.16C30.147,31.648,25.236,36.915,19.563,36.915z"/>
				</g>
				<g>
					<path fill="#EFEEEE" d="M19.563,32.661c-1.165,0-2.347-0.429-3.416-1.238c-0.449-0.34-0.537-0.98-0.196-1.428
						c0.34-0.449,0.979-0.537,1.428-0.197c1.445,1.095,2.925,1.095,4.371,0c0.448-0.34,1.088-0.252,1.428,0.197
						c0.34,0.448,0.252,1.088-0.197,1.428C21.911,32.232,20.729,32.661,19.563,32.661z"/>
				</g>
				<g>
					<path fill="#EFEEEE" d="M8.096,57.085c-0.563,0-1.02-0.457-1.02-1.02v-6.431c0-0.563,0.457-1.02,1.02-1.02
						c0.563,0,1.021,0.457,1.021,1.02v6.431C9.114,56.628,8.659,57.085,8.096,57.085z"/>
				</g>
				<g>
					<path fill="#EFEEEE" d="M19.439,59.382c-6.941,0-13.713-2.42-19.066-6.812c-0.257-0.21-0.396-0.532-0.37-0.864
						c0.531-7.097,5.749-12.936,12.688-14.198c0.324-0.059,0.656,0.042,0.893,0.271c0.235,0.229,0.347,0.559,0.299,0.883
						c-0.035,0.233-0.052,0.467-0.052,0.693c0,3.898,4.685,6.801,5.581,6.801c0.451,0,2.293-0.904,3.806-2.658
						c0.95-1.102,2.02-2.836,1.722-4.836c-0.042-0.287,0.039-0.58,0.226-0.803c0.186-0.223,0.458-0.357,0.748-0.367
						c1.69-0.064,4.524,0.809,7.396,3.42c0.416,0.379,0.447,1.023,0.068,1.44s-1.023,0.447-1.44,0.067
						c-1.913-1.739-3.707-2.506-4.913-2.772c-0.094,2.185-1.23,3.983-2.263,5.181c-1.628,1.889-3.978,3.366-5.35,3.366
						c-2.083,0-7.291-3.685-7.605-8.394c-5.983,1.662-9.176,6.913-9.719,11.533c4.922,3.88,11.062,6.01,17.353,6.01
						c0.781,0,1.568-0.032,2.339-0.096c0.562-0.047,1.055,0.371,1.101,0.932s-0.371,1.054-0.933,1.1
						C21.12,59.348,20.276,59.382,19.439,59.382z"/>
				</g>
				<g>
					<path fill="#EFEEEE" d="M15.21,15.704c-0.323,0-0.642-0.152-0.839-0.438c-0.394-0.567-0.712-1.182-0.948-1.828
						c-0.191-0.523-0.328-1.07-0.406-1.624c-0.079-0.558,0.31-1.073,0.866-1.153c0.559-0.078,1.073,0.31,1.153,0.866
						c0.058,0.414,0.159,0.821,0.303,1.212c0.175,0.482,0.413,0.941,0.707,1.363c0.321,0.463,0.206,1.098-0.256,1.419
						C15.613,15.646,15.411,15.704,15.21,15.704z"/>
				</g>
				<g>
					<path fill="#EFEEEE" d="M17.1,23.854c-0.238,0-0.477-0.083-0.671-0.252c-0.059-0.052-0.272-0.206-0.582-0.215
						c-0.294,0.004-0.5,0.165-0.556,0.215c-0.424,0.371-1.067,0.328-1.439-0.095c-0.371-0.423-0.329-1.067,0.095-1.439
						c0.301-0.263,0.942-0.706,1.871-0.719c1.002-0.011,1.701,0.498,1.954,0.719c0.424,0.371,0.467,1.015,0.097,1.439
						C17.666,23.736,17.383,23.854,17.1,23.854z"/>
				</g>
				<g>
					<path fill="#EFEEEE" d="M22.364,23.854c-0.283,0-0.565-0.118-0.767-0.348c-0.371-0.424-0.329-1.067,0.095-1.439
						c0.301-0.263,0.942-0.706,1.871-0.719c0.991-0.006,1.702,0.499,1.955,0.72c0.423,0.371,0.466,1.015,0.095,1.438
						c-0.37,0.424-1.015,0.467-1.438,0.096c-0.059-0.051-0.293-0.217-0.581-0.214c-0.294,0.004-0.5,0.165-0.556,0.215
						C22.843,23.771,22.604,23.854,22.364,23.854z"/>
				</g>
			</g>
			<g>
				<circle fill="#EFEEEE" cx="11.853" cy="3.753" r="1.196"/>
				<path fill="#EFEEEE" d="M11.853,5.206c-0.8,0-1.452-0.651-1.452-1.453c0-0.799,0.651-1.451,1.452-1.451s1.452,0.65,1.452,1.451
					C13.304,4.555,12.652,5.206,11.853,5.206z M11.853,2.813c-0.518,0-0.939,0.422-0.939,0.939c0,0.52,0.422,0.941,0.939,0.941
					c0.519,0,0.94-0.422,0.94-0.941C12.793,3.235,12.371,2.813,11.853,2.813z"/>
			</g>
			<g>
				<path fill="#EFEEEE" d="M1.613,20.771c-0.477,0-0.902-0.336-0.999-0.822c-0.566-2.862-0.326-5.714,0.697-8.243
					c1.729-4.277,4.609-6.383,6.722-7.395C8.541,4.067,9.148,4.282,9.393,4.79c0.244,0.506,0.029,1.116-0.478,1.359
					c-1.786,0.857-4.228,2.648-5.712,6.322c-0.874,2.161-1.077,4.609-0.587,7.082c0.108,0.552-0.25,1.089-0.803,1.197
					C1.746,20.766,1.679,20.771,1.613,20.771z"/>
			</g>
		</g>
		<g>
			<path fill="#EFEEEE" d="M55.234,45.23c-3.561,0-6.987-1.312-9.649-3.692c-0.42-0.375-0.456-1.02-0.08-1.438
				c0.375-0.42,1.02-0.455,1.438-0.08c2.288,2.046,5.233,3.173,8.291,3.173c0.563,0,1.021,0.457,1.021,1.02
				C56.255,44.775,55.799,45.23,55.234,45.23z"/>
		</g>
		<g>
			<path fill="#EFEEEE" d="M42.72,27.681c-0.478,0-0.904-0.337-1-0.824l-0.003-0.015c-0.026-0.032-0.173-0.136-0.28-0.212
				c-0.589-0.413-1.479-1.039-1.938-2.945c-0.703-2.925,0.094-4.184,0.886-4.723c0.782-0.533,1.829-0.5,2.666,0.088
				c0.461,0.322,0.573,0.959,0.25,1.42s-0.957,0.574-1.42,0.25c-0.128-0.09-0.278-0.121-0.35-0.073
				c-0.159,0.108-0.479,0.781-0.052,2.562c0.278,1.156,0.691,1.447,1.128,1.754c0.4,0.281,0.948,0.668,1.112,1.502
				c0.108,0.552-0.252,1.088-0.805,1.196C42.85,27.675,42.784,27.681,42.72,27.681z"/>
		</g>
		<g>
			<path fill="#EFEEEE" d="M68.114,27.679c-0.063,0-0.13-0.006-0.196-0.02c-0.553-0.107-0.912-0.642-0.803-1.195
				c0.164-0.834,0.713-1.219,1.112-1.5c0.437-0.308,0.851-0.599,1.128-1.756c0.428-1.779,0.107-2.451-0.052-2.561
				c-0.071-0.049-0.222-0.018-0.349,0.073c-0.461,0.323-1.097,0.21-1.42-0.25c-0.324-0.461-0.212-1.097,0.25-1.42
				c0.838-0.589,1.885-0.621,2.666-0.089c0.793,0.541,1.59,1.799,0.887,4.724c-0.459,1.906-1.35,2.532-1.938,2.946
				c-0.107,0.076-0.255,0.179-0.287,0.222C69.019,27.341,68.593,27.679,68.114,27.679z"/>
		</g>
		<g>
			<path fill="#EFEEEE" d="M55.419,41.553c-6.656,0-12.419-6.199-13.704-14.74c-0.084-0.558,0.3-1.076,0.855-1.16
				c0.556-0.086,1.076,0.3,1.16,0.856c1.134,7.535,6.05,13.005,11.688,13.005c5.638,0,10.555-5.47,11.688-13.005
				c0.084-0.557,0.607-0.939,1.16-0.856c0.557,0.084,0.939,0.604,0.855,1.16C67.838,35.354,62.074,41.553,55.419,41.553z"/>
		</g>
		<g>
			<path fill="#EFEEEE" d="M52.696,26.363h-2.953c-0.563,0-1.021-0.457-1.021-1.02c0-0.563,0.456-1.02,1.021-1.02h2.953
				c0.563,0,1.021,0.457,1.021,1.02C53.717,25.905,53.26,26.363,52.696,26.363z"/>
		</g>
		<g>
			<path fill="#EFEEEE" d="M61.979,26.363h-2.953c-0.563,0-1.02-0.457-1.02-1.02c0-0.563,0.456-1.02,1.02-1.02h2.953
				c0.563,0,1.021,0.457,1.021,1.02C63,25.905,62.543,26.363,61.979,26.363z"/>
		</g>
		<g>
			<path fill="#EFEEEE" d="M55.419,36.489c-1.344,0-2.71-0.497-3.949-1.436c-0.449-0.34-0.537-0.98-0.197-1.428
				c0.339-0.448,0.979-0.537,1.429-0.197c1.788,1.355,3.646,1.355,5.436,0c0.45-0.34,1.088-0.251,1.428,0.197
				s0.252,1.088-0.196,1.428C58.129,35.993,56.763,36.489,55.419,36.489z"/>
		</g>
		<g>
			<path fill="#EFEEEE" d="M40.045,65.946c-0.563,0-1.021-0.457-1.021-1.019v-8.899c0-0.563,0.457-1.019,1.021-1.019
				c0.563,0,1.02,0.457,1.02,1.019v8.899C41.063,65.489,40.607,65.946,40.045,65.946z"/>
		</g>
		<g>
			<path fill="#EFEEEE" d="M71.263,65.491c-0.563,0-1.021-0.457-1.021-1.02v-8.444c0-0.563,0.456-1.019,1.021-1.019
				c0.563,0,1.021,0.457,1.021,1.019v8.444C72.281,65.035,71.826,65.491,71.263,65.491z"/>
		</g>
		<g>
			<path fill="#EFEEEE" d="M55.234,45.23c-3.561,0-6.987-1.312-9.649-3.692c-0.42-0.375-0.456-1.02-0.08-1.438
				c0.375-0.42,1.02-0.455,1.438-0.08c2.288,2.046,5.233,3.173,8.291,3.173c0.563,0,1.021,0.457,1.021,1.02
				C56.255,44.775,55.799,45.23,55.234,45.23z"/>
		</g>
		<g>
			<path fill="#EFEEEE" d="M55.427,69.021c-0.563,0-1.021-0.457-1.021-1.02V44.21c0-0.563,0.456-1.02,1.021-1.02
				c3.013,0,5.733-1.068,8.088-3.173c0.419-0.376,1.065-0.34,1.438,0.08c0.375,0.42,0.34,1.063-0.08,1.44
				c-2.435,2.178-5.33,3.43-8.427,3.654v22.809C56.445,68.563,55.989,69.021,55.427,69.021z"/>
		</g>
		<g>
			<path fill="#EFEEEE" d="M63.809,49.626c-0.159,0-0.319-0.037-0.464-0.112l-8.579-4.392c-0.501-0.257-0.7-0.871-0.443-1.373
				c0.258-0.5,0.872-0.698,1.372-0.442l7.235,3.704l0.566-6.282c0.051-0.56,0.539-0.974,1.107-0.924
				c0.561,0.05,0.975,0.546,0.924,1.106l-0.703,7.786c-0.029,0.338-0.227,0.638-0.522,0.802
				C64.147,49.583,63.979,49.626,63.809,49.626z"/>
		</g>
		<g>
			<path fill="#EFEEEE" d="M46.811,49.626c-0.17,0-0.339-0.043-0.492-0.127c-0.297-0.164-0.492-0.465-0.522-0.802l-0.703-7.786
				c-0.051-0.561,0.363-1.056,0.924-1.106c0.563-0.054,1.056,0.362,1.107,0.924l0.566,6.282l7.235-3.704
				c0.5-0.257,1.115-0.058,1.372,0.442c0.257,0.502,0.058,1.116-0.443,1.373l-8.579,4.392C47.129,49.589,46.97,49.626,46.811,49.626
				z"/>
		</g>
		<g>
			<path fill="#EFEEEE" d="M43.522,22.688c-0.343,0-0.671-0.174-0.86-0.473c-1.725-2.717-2.139-6.138-1.107-9.148l0.038-0.115
				c0.215-0.66,0.868-2.672,2.595-4.617c0.785-0.886,2.419-2.727,5.187-3.442c0.278-0.072,0.561-0.131,0.846-0.175
				c0.007-0.053,0.011-0.106,0.009-0.163c-0.01-0.521-0.438-0.878-0.487-0.917c-0.335-0.266-0.467-0.712-0.333-1.117
				s0.506-0.684,0.933-0.699c0.062-0.002,0.133-0.004,0.211-0.004c0.7,0,1.765,0.126,2.858,0.727
				c0.148,0.082,0.295,0.17,0.435,0.265c0.07-0.539,0.065-1.088-0.016-1.64c-0.049-0.33,0.065-0.662,0.309-0.891
				c0.242-0.229,0.581-0.325,0.906-0.257c2.646,0.546,6.518,1.907,9.93,5.282c1.998,1.977,3.58,4.43,4.573,7.096
				c0.014,0.035,0.024,0.07,0.033,0.107c0.602,2.386,0.582,4.834-0.058,7.082c-0.25,0.879-0.596,1.737-1.028,2.554
				c-0.227,0.424-0.718,0.633-1.179,0.502c-0.462-0.131-0.771-0.567-0.739-1.046c0.115-1.786-0.185-3.596-0.867-5.236
				c-0.414-0.996-0.961-1.919-1.629-2.758c-0.492,0.753-1.07,1.413-1.73,1.973c-1.813,1.537-4.27,2.35-7.107,2.35
				c-2.769,0-5.768-0.76-8.724-2.201c-0.397,0.654-0.741,1.339-1.025,2.046c-0.512,1.272-0.832,2.612-0.954,3.987
				c-0.038,0.435-0.351,0.798-0.775,0.9C43.684,22.679,43.603,22.688,43.522,22.688z M52.251,4.239
				c0.01,0.09,0.016,0.18,0.018,0.274c0.011,0.573-0.14,1.146-0.438,1.655c-0.168,0.287-0.464,0.475-0.795,0.502
				c-0.388,0.031-0.774,0.098-1.149,0.194c-2.166,0.561-3.471,2.031-4.173,2.821c-1.444,1.627-1.999,3.334-2.182,3.895l-0.048,0.146
				c-0.484,1.416-0.572,2.943-0.287,4.408c0.12-0.381,0.256-0.756,0.404-1.125c0.452-1.123,1.034-2.198,1.73-3.194
				c0.295-0.423,0.859-0.558,1.314-0.315c2.928,1.561,5.9,2.386,8.596,2.386c2.349,0,4.351-0.646,5.789-1.866
				c0.794-0.673,1.442-1.544,1.927-2.591c0.141-0.302,0.418-0.517,0.746-0.575c0.325-0.059,0.661,0.046,0.897,0.28
				c1.289,1.28,2.295,2.774,2.989,4.442c0.138,0.331,0.262,0.668,0.373,1.008c0.06-1.16-0.055-2.351-0.346-3.526
				c-0.893-2.37-2.302-4.55-4.078-6.308c-2.537-2.511-5.364-3.777-7.61-4.416c-0.016,0.459-0.073,0.914-0.169,1.363
				c-0.099,0.465-0.244,0.926-0.429,1.374c-0.139,0.334-0.443,0.569-0.802,0.619c-0.359,0.05-0.716-0.094-0.939-0.377
				c-0.323-0.408-0.714-0.739-1.163-0.985C52.369,4.298,52.31,4.268,52.251,4.239z"/>
		</g>
		<g>
			<path fill="#EFEEEE" d="M54.829,75.001c-9.002,0-17.705-2.647-25.167-7.656c-0.469-0.314-0.593-0.947-0.278-1.415
				c0.313-0.468,0.946-0.593,1.415-0.278c7.125,4.782,15.435,7.311,24.031,7.311c8.029,0,15.873-2.228,22.682-6.44
				c0.477-0.296,1.107-0.149,1.402,0.331c0.297,0.479,0.148,1.107-0.33,1.402C71.451,72.669,63.236,75.001,54.829,75.001z"/>
		</g>
		<g>
			<circle fill="#EFEEEE" cx="80.793" cy="65.303" r="1.196"/>
			<path fill="#EFEEEE" d="M80.793,66.755c-0.801,0-1.451-0.651-1.451-1.452c0-0.8,0.65-1.452,1.451-1.452
				c0.8,0,1.451,0.65,1.451,1.452C82.244,66.103,81.594,66.755,80.793,66.755z M80.793,64.361c-0.519,0-0.94,0.422-0.94,0.94
				s0.422,0.94,0.94,0.94s0.94-0.422,0.94-0.94S81.312,64.361,80.793,64.361z"/>
		</g>
		<g>
			<g>
				<path fill="#EFEEEE" d="M30.011,59.679c-0.022,0-0.045-0.001-0.067-0.002c-0.562-0.037-0.987-0.522-0.95-1.084
					c0.613-9.417,7.53-17.137,16.819-18.771c0.081-0.011,0.111-0.018,0.142-0.023c0.058-0.012,0.113-0.021,0.167-0.029
					c0.555-0.079,1.073,0.307,1.153,0.865c0.08,0.557-0.307,1.074-0.863,1.154L46.342,41.8c-0.073,0.014-0.149,0.027-0.224,0.037
					c-8.311,1.465-14.536,8.412-15.09,16.888C30.992,59.265,30.544,59.679,30.011,59.679z"/>
			</g>
			<g>
				<g>
					<path fill="#EFEEEE" d="M55.151,69.021c-9.48,0-18.646-3.406-25.808-9.589c-0.426-0.368-0.473-1.013-0.105-1.438
						s1.012-0.474,1.438-0.104c6.791,5.864,15.484,9.094,24.475,9.094h0.084c8.911-0.022,17.492-3.198,24.224-8.953
						c-0.847-8.134-6.957-14.745-15.026-16.188c-0.056-0.005-0.114-0.013-0.159-0.024c-0.055-0.013-0.102-0.019-0.156-0.025
						c-0.56-0.07-0.955-0.579-0.886-1.139c0.07-0.559,0.585-0.953,1.138-0.885c0.103,0.013,0.195,0.025,0.293,0.046
						c0.024,0.002,0.049,0.005,0.068,0.009c9.184,1.613,16.094,9.244,16.809,18.558c0.023,0.319-0.104,0.632-0.344,0.844
						c-7.158,6.295-16.376,9.774-25.956,9.799h-0.088V69.021z"/>
				</g>
			</g>
		</g>
	</g>
	<g>
		<g>
			<path fill="#EFEEEE" d="M83.404,23.359c-0.382,0-0.716-0.208-0.891-0.518c-0.016-0.024-0.03-0.048-0.041-0.07
				c-0.262-0.501-0.067-1.118,0.434-1.38c0.458-0.24,1.018-0.096,1.309,0.316c0.137,0.178,0.214,0.398,0.214,0.625
				C84.428,22.897,83.97,23.359,83.404,23.359z"/>
		</g>
		<g>
			<circle fill="#EFEEEE" cx="116.563" cy="46.74" r="0.923"/>
			<path fill="#EFEEEE" d="M116.565,47.919c-0.65,0-1.18-0.529-1.18-1.18s0.529-1.179,1.18-1.179s1.18,0.528,1.18,1.179
				C117.743,47.39,117.215,47.919,116.565,47.919z M116.565,46.072c-0.369,0-0.668,0.3-0.668,0.668s0.299,0.667,0.668,0.667
				c0.367,0,0.668-0.3,0.668-0.667C117.231,46.372,116.932,46.072,116.565,46.072z"/>
		</g>
		<g>
			<path fill="#EFEEEE" d="M105.432,56.71c-0.564,0-1.021-0.459-1.021-1.023v-6.055c0-0.565,0.457-1.022,1.021-1.022
				c0.566,0,1.023,0.458,1.023,1.022v6.055C106.456,56.251,105.999,56.71,105.432,56.71z"/>
		</g>
		<g>
			<path fill="#EFEEEE" d="M82.719,26.443c-0.397,0-0.771-0.233-0.938-0.614c-0.047-0.026-0.123-0.063-0.182-0.092
				c-0.52-0.253-1.387-0.676-2.029-2.213c-0.984-2.357-0.464-3.541,0.147-4.119c0.618-0.584,1.547-0.705,2.368-0.308
				c0.509,0.246,0.721,0.858,0.475,1.366s-0.857,0.721-1.366,0.474c-0.048-0.022-0.091-0.026-0.104-0.026
				c0.015,0.016-0.198,0.469,0.367,1.824c0.345,0.825,0.666,0.981,1.037,1.162c0.365,0.178,0.918,0.447,1.184,1.169
				c0.195,0.53-0.076,1.118-0.606,1.313C82.955,26.423,82.836,26.443,82.719,26.443z"/>
		</g>
		<g>
			<path fill="#EFEEEE" d="M103.106,26.443c-0.117,0-0.236-0.021-0.352-0.063c-0.531-0.194-0.801-0.782-0.607-1.313
				c0.268-0.721,0.818-0.991,1.184-1.169c0.371-0.181,0.691-0.338,1.037-1.162c0.527-1.262,0.379-1.743,0.34-1.834
				c-0.006,0.011-0.039,0.019-0.076,0.035c-0.506,0.247-1.119,0.034-1.365-0.474s-0.035-1.12,0.473-1.366
				c0.822-0.398,1.75-0.277,2.369,0.308c0.611,0.578,1.133,1.762,0.148,4.119c-0.643,1.537-1.51,1.96-2.029,2.213
				c-0.059,0.029-0.135,0.066-0.182,0.092C103.879,26.21,103.504,26.443,103.106,26.443z"/>
		</g>
		<g>
			<path fill="#EFEEEE" d="M92.928,37.714c-5.469-0.084-10.174-5.189-11.221-12.142c-0.084-0.558,0.301-1.079,0.858-1.163
				c0.554-0.083,1.079,0.301,1.163,0.859c0.896,5.959,4.766,10.333,9.2,10.4c4.402-0.066,8.27-4.441,9.168-10.4
				c0.084-0.559,0.609-0.942,1.162-0.859c0.559,0.084,0.943,0.605,0.859,1.163C103.071,32.524,98.366,37.63,92.928,37.714z"/>
		</g>
		<g>
			<path fill="#EFEEEE" d="M90.156,24.184h-2.398c-0.565,0-1.022-0.458-1.022-1.023c0-0.564,0.458-1.022,1.022-1.022h2.398
				c0.565,0,1.022,0.458,1.022,1.022C91.179,23.726,90.721,24.184,90.156,24.184z"/>
		</g>
		<g>
			<path fill="#EFEEEE" d="M97.731,24.184h-2.4c-0.564,0-1.021-0.458-1.021-1.023c0-0.564,0.457-1.022,1.021-1.022h2.4
				c0.564,0,1.021,0.458,1.021,1.022C98.752,23.726,98.295,24.184,97.731,24.184z"/>
		</g>
		<g>
			<path fill="#EFEEEE" d="M93.036,33.601c-1.136,0-2.286-0.417-3.327-1.206c-0.45-0.341-0.539-0.983-0.197-1.433
				c0.341-0.449,0.982-0.537,1.432-0.196c1.385,1.05,2.799,1.049,4.182,0c0.451-0.343,1.092-0.253,1.432,0.196
				c0.342,0.451,0.254,1.092-0.197,1.433C95.321,33.184,94.17,33.601,93.036,33.601z"/>
		</g>
		<g>
			<path fill="#EFEEEE" d="M76.922,42.122c-0.282,0-0.564-0.117-0.767-0.346c-0.374-0.423-0.334-1.068,0.089-1.443
				c3.609-3.187,6.281-3.639,9.4-3.9l0.012-0.005c0.049-0.009,0.098-0.019,0.143-0.025c0.561-0.079,1.076,0.31,1.156,0.868
				s-0.31,1.077-0.867,1.156c-0.104,0.02-0.168,0.031-0.231,0.039c-2.959,0.248-5.106,0.617-8.258,3.399
				C77.403,42.038,77.162,42.122,76.922,42.122z"/>
		</g>
		<g>
			<g>
				<path fill="#EFEEEE" d="M92.889,59.512h-0.072c-1.45-0.011-3.248-0.023-5.968-0.597c-0.554-0.115-0.906-0.658-0.79-1.211
					c0.115-0.553,0.661-0.906,1.211-0.789c2.52,0.529,4.132,0.541,5.555,0.552h0.063c6.799-0.017,13.35-2.425,18.506-6.796
					c-0.086-0.746-0.234-1.495-0.441-2.235c-0.805-2.858-2.539-5.435-4.887-7.256c-1.779-1.382-3.902-2.324-6.141-2.726
					c-0.557-0.1-0.926-0.631-0.826-1.187c0.098-0.556,0.627-0.928,1.188-0.826c2.561,0.459,4.992,1.538,7.033,3.122
					c2.691,2.087,4.68,5.041,5.602,8.318c0.291,1.035,0.479,2.093,0.561,3.139c0.023,0.32-0.104,0.634-0.344,0.846
					C107.551,56.779,100.36,59.495,92.889,59.512z"/>
			</g>
		</g>
		<g>
			<path fill="#EFEEEE" d="M93.026,41.188c-2.789,0-5.477-1.032-7.774-2.983l1.324-1.559c1.922,1.634,4.152,2.497,6.45,2.497
				c2.289,0,4.51-0.854,6.422-2.472l1.32,1.563C98.483,40.165,95.805,41.188,93.026,41.188z"/>
		</g>
		<g>
			<path fill="#EFEEEE" d="M115.641,44.99c-0.377,0-0.74-0.21-0.918-0.571c-1.338-2.719-3.377-5.049-5.895-6.741
				c-0.611-0.411-1.256-0.786-1.91-1.114c-0.506-0.253-0.709-0.867-0.457-1.372c0.254-0.505,0.869-0.708,1.373-0.457
				c0.732,0.368,1.451,0.787,2.135,1.246c2.816,1.892,5.094,4.498,6.59,7.536c0.25,0.507,0.041,1.12-0.465,1.369
				C115.948,44.958,115.793,44.99,115.641,44.99z"/>
		</g>
		<g>
			<path fill="#EFEEEE" d="M83.543,23.511c-0.299,0-0.588-0.131-0.787-0.369c-0.051-0.05-0.096-0.098-0.137-0.146
				c-0.013-0.016-0.024-0.031-0.037-0.046c-0.515-0.565-0.953-1.189-1.306-1.854c-1.843-3.487-0.743-7.946-0.731-7.991
				c1.533-5.81,7.469-8.409,12.67-8.409c6.131,0,10.963,3.301,12.309,8.409c0.012,0.044,1.113,4.503-0.73,7.991
				c-0.352,0.667-0.791,1.291-1.309,1.855c-0.01,0.016-0.021,0.03-0.033,0.045c-0.041,0.049-0.088,0.097-0.133,0.143
				c-0.275,0.332-0.734,0.457-1.141,0.309c-0.406-0.147-0.678-0.533-0.674-0.966c0.01-1.399-0.172-2.778-0.541-4.098
				c-0.148-0.541-0.33-1.074-0.549-1.615c-2.393,0.543-4.746,1.262-7.012,2.139c-0.236,0.093-0.5,0.093-0.738,0
				c-2.264-0.877-4.62-1.596-7.012-2.139c-0.219,0.541-0.4,1.073-0.547,1.61c-0.357,1.281-0.54,2.611-0.542,3.962
				c0.007,0.048,0.01,0.098,0.01,0.147c0,0.564-0.457,1.022-1.021,1.023C83.549,23.511,83.545,23.511,83.543,23.511z M93.215,6.739
				c-4.418,0-9.439,2.129-10.693,6.887c-0.185,0.694-0.61,3.513,0.25,5.813c0.095-0.542,0.216-1.079,0.363-1.606
				c0.243-0.889,0.567-1.765,0.989-2.674c0.199-0.432,0.672-0.668,1.138-0.57c2.649,0.556,5.263,1.32,7.773,2.27
				c2.51-0.951,5.123-1.714,7.773-2.27c0.463-0.098,0.938,0.139,1.137,0.57c0.422,0.907,0.744,1.782,0.99,2.678
				c0.148,0.525,0.27,1.061,0.363,1.603c0.859-2.301,0.432-5.118,0.25-5.813C102.208,8.544,97.145,6.739,93.215,6.739z"/>
		</g>
		<g>
			
				<path fill="#EFEEEE" stroke="#010101" stroke-width="4" stroke-linecap="round" stroke-linejoin="round" stroke-miterlimit="10" d="
				M90.595,17.081"/>
		</g>
	</g>
</g>
</svg>
