<?xml version="1.0" encoding="utf-8"?>
<!-- Generator: Adobe Illustrator 16.0.0, SVG Export Plug-In . SVG Version: 6.00 Build 0)  -->
<!DOCTYPE svg PUBLIC "-//W3C//DTD SVG 1.1//EN" "http://www.w3.org/Graphics/SVG/1.1/DTD/svg11.dtd">
<svg version="1.1" id="Layer_1" xmlns="http://www.w3.org/2000/svg" xmlns:xlink="http://www.w3.org/1999/xlink" x="0px" y="0px"
	 width="103.567px" height="99.151px" viewBox="0 0 103.567 99.151" enable-background="new 0 0 103.567 99.151"
	 xml:space="preserve">
<g id="testing">
	<g>
		<circle fill="#54AD4E" cx="30.279" cy="6.132" r="4.756"/>
	</g>
	<g opacity="0.5">
		<circle fill="#4087C7" cx="51.682" cy="6.132" r="4.756"/>
	</g>
	<g opacity="0.5">
		<circle fill="#4087C7" cx="8.877" cy="6.132" r="4.756"/>
	</g>
	<g id="gear-5-icon_57_">
		<path fill="#54AD4E" d="M63.299,68.049l-1.116-2.922l-2.946,0.069c-0.416-0.551-0.889-1.049-1.408-1.486l0.233-2.939l-2.854-1.276
			l-2.037,2.133c-0.671-0.094-1.359-0.116-2.047-0.058l-1.915-2.24l-2.921,1.115l0.069,2.945c-0.554,0.416-1.051,0.891-1.488,1.408
			l-2.939-0.232l-1.277,2.855l2.131,2.036c-0.095,0.672-0.116,1.358-0.059,2.048l-2.241,1.913l1.117,2.922l2.945-0.067
			c0.417,0.551,0.891,1.051,1.409,1.486l-0.232,2.938l2.855,1.277l2.036-2.132c0.67,0.096,1.356,0.117,2.047,0.058l1.912,2.241
			l2.922-1.116l-0.066-2.947c0.551-0.414,1.05-0.889,1.486-1.407l2.939,0.231l1.275-2.855l-2.133-2.035
			c0.097-0.67,0.118-1.357,0.06-2.047L63.299,68.049z M53.413,74.711c-2.198,0.841-4.658-0.261-5.497-2.458
			c-0.839-2.198,0.26-4.659,2.458-5.498c2.196-0.839,4.658,0.261,5.498,2.458C56.709,71.41,55.61,73.873,53.413,74.711z"/>
	</g>
	<g id="gear-5-icon_56_">
		<path fill="#222221" d="M52.055,81.306c-0.305,0.003-0.608-0.004-0.91-0.025c-1.467,1.535-2.017,2.447-3.127,1.947
			c-4.247-1.899-3.781-1.185-3.488-4.904c-0.217-0.211-0.426-0.433-0.625-0.661c-2.175,0.05-3.155,0.302-3.588-0.832
			c-1.666-4.359-1.832-3.515,1.003-5.937c-0.004-0.304,0.005-0.607,0.026-0.91c-1.533-1.463-2.447-2.012-1.949-3.127
			c1.904-4.258,1.194-3.779,4.907-3.487c0.212-0.22,0.432-0.429,0.661-0.627c-0.05-2.118-0.309-3.152,0.832-3.589
			c4.354-1.661,3.516-1.827,5.935,1.005c0.304-0.007,0.606,0.004,0.91,0.026c1.473-1.543,2.014-2.446,3.127-1.951
			c4.269,1.908,3.78,1.197,3.485,4.907c0.219,0.212,0.428,0.433,0.627,0.661c2.209-0.052,3.154-0.306,3.588,0.831
			c1.658,4.342,1.838,3.509-1.002,5.937c0.005,0.303-0.006,0.607-0.026,0.91c1.532,1.463,2.446,2.01,1.948,3.125
			c-1.895,4.245-1.203,3.781-4.905,3.488c-0.212,0.219-0.432,0.428-0.662,0.626c0.085,3.788,0.542,3.064-3.754,4.704
			C53.913,83.866,53.396,82.878,52.055,81.306z M54.993,80.506l1.106-0.422c-0.045-1.994-0.206-2.575,0.504-3.107
			c2.365-1.784,0.604-1.823,4.394-1.524l0.482-1.082c-1.439-1.373-1.97-1.672-1.843-2.557c0.425-2.957-0.867-1.707,2.03-4.182
			l-0.424-1.107c-3.814,0.09-2.029,0.149-4.302-1.764c-0.688-0.58-0.485-1.174-0.329-3.133l-1.081-0.482
			c-2.645,2.77-1.313,1.531-4.29,1.793c-0.877,0.084-1.165-0.479-2.448-1.98l-1.106,0.422c0.089,3.811,0.163,2.018-1.765,4.302
			c-0.582,0.688-1.181,0.484-3.131,0.33l-0.484,1.082c2.745,2.622,1.547,1.31,1.792,4.296c0.073,0.883-0.464,1.147-1.98,2.442
			l0.423,1.106c3.807-0.088,2.006-0.168,4.302,1.766c0.693,0.585,0.482,1.197,0.33,3.131l1.082,0.482
			c2.628-2.75,1.319-1.539,4.29-1.793C53.432,78.451,53.698,78.989,54.993,80.506z M46.749,68.433
			c1.268-2.837,4.594-4.117,7.445-2.845c4.598,2.056,4.358,8.634-0.289,10.409l0,0C49.257,77.774,44.693,73.032,46.749,68.433z
			 M49.202,71.762c0.57,1.49,2.235,2.232,3.719,1.663c0,0,0.001,0,0.001-0.001c2.377-0.905,2.499-4.271,0.148-5.321
			C50.745,67.062,48.285,69.354,49.202,71.762z"/>
	</g>
	<g>
		<path fill="#222221" d="M86.997,72.212h-2.064c-1.82,0-1.822-2.753,0-2.753h2.064C88.817,69.459,88.819,72.212,86.997,72.212z
			 M78.049,72.212h-2.066c-1.818,0-1.82-2.753,0-2.753h2.066C79.868,69.459,79.87,72.212,78.049,72.212z M69.1,72.212h-2.064
			c-1.82,0-1.822-2.753,0-2.753H69.1C70.918,69.459,70.92,72.212,69.1,72.212z"/>
	</g>
	<g>
		<path fill="#222221" d="M35.989,72.212h-2.065c-1.819,0-1.822-2.753,0-2.753h2.065C37.808,69.459,37.81,72.212,35.989,72.212z
			 M27.04,72.212h-2.065c-1.819,0-1.822-2.753,0-2.753h2.065C28.859,69.459,28.861,72.212,27.04,72.212z M18.091,72.212h-2.065
			c-1.819,0-1.822-2.753,0-2.753h2.065C19.91,69.459,19.912,72.212,18.091,72.212z"/>
	</g>
	<g opacity="0.5">
		<path fill="#4087C7" d="M3.75,87.448V26.412c0-2.535,2.055-4.589,4.589-4.589h29.123l-0.229,5.736H9.156l0.482,59.889H3.75
			L3.75,87.448z"/>
	</g>
	<g opacity="0.5">
		<path fill="#4087C7" d="M99.922,87.448V26.412c0-2.535-2.055-4.589-4.59-4.589h-27.17l0.16,5.736h25.711v59.889H99.922
			L99.922,87.448z"/>
	</g>
	<g opacity="0.5">
		<path fill="#4087C7" d="M51.913,92.267H6.196c-2.661,0-4.819-2.156-4.819-4.818V86.76h43.612c1.053,1.81,1.996,1.377,11.215,1.377
			c1.018,0,1.896-0.557,2.371-1.377h43.611v0.688c0,2.66-2.156,4.818-4.818,4.818H51.652H51.913z"/>
	</g>
	<g>
		<path fill="#222221" d="M98.057,86.434V25.698c0-1.252-1.018-2.27-2.27-2.27H69.311c-1.818,0-1.822-2.754,0-2.754H95.79
			c2.77,0,5.021,2.253,5.021,5.021v60.736C100.811,88.253,98.057,88.256,98.057,86.434z"/>
	</g>
	<g>
		<path fill="#222221" d="M2.754,86.434V25.698c0-2.771,2.253-5.022,5.023-5.022h28.211c1.819,0,1.822,2.754,0,2.754H7.777
			c-1.252,0-2.27,1.019-2.27,2.27v60.735C5.507,88.253,2.754,88.256,2.754,86.434z"/>
	</g>
	<g>
		<path fill="#222221" d="M92.551,86.76V28.937H69.516c-1.818,0-1.82-2.755,0-2.755h24.041c0.963,0,1.746,0.783,1.746,1.746V86.76
			C95.303,88.579,92.551,88.582,92.551,86.76z M93.557,28.936h0.008H93.557z"/>
	</g>
	<g>
		<path fill="#222221" d="M8.261,86.76V27.928c0-0.963,0.783-1.746,1.746-1.746h26.169c1.819,0,1.822,2.755,0,2.755H11.014V86.76
			C11.014,88.579,8.261,88.582,8.261,86.76z"/>
	</g>
	<g>
		<path fill="#222221" d="M97.37,93.644H6.195C3.062,93.644,0,91.383,0,86.76c0-0.76,0.616-1.377,1.377-1.377H44.99
			c1.329,0,1.06,1.377,2.372,1.377c9.426,0,9.479,0.245,10.025-0.692c0.576-0.992-2.057-0.684,44.803-0.684
			c0.76,0,1.377,0.616,1.377,1.377C103.565,91.354,100.518,93.644,97.37,93.644z M97.37,90.89c1.662,0,3.053-1.185,3.373-2.754
			H59.267c-1.599,1.781-2.688,1.377-11.906,1.377c-1.174,0-2.288-0.513-3.063-1.377H2.823c0.32,1.569,1.71,2.754,3.373,2.754
			C10.277,90.89,93.471,90.89,97.37,90.89z"/>
	</g>
	<g>
		<path fill="#222221" d="M90.76,99.151c-1.818,0-1.822-2.754,0-2.754C92.581,96.397,92.583,99.151,90.76,99.151z"/>
	</g>
	<g>
		<path fill="#222221" d="M85.667,99.151H15.452c-1.819,0-1.822-2.754,0-2.754h70.214c0.76,0,1.377,0.615,1.377,1.377
			C87.043,98.535,86.426,99.151,85.667,99.151z"/>
	</g>
	<g>
		<path fill="#222221" d="M43.318,55.623c-0.783-0.072-0.102,0.508-10.767-12.291c-0.421-0.505-0.426-1.238-0.012-1.748
			l9.055-11.167c1.145-1.411,3.286,0.318,2.139,1.734L35.39,42.438l8.228,9.875l2.879-2.398l-5.533-6.641
			c-0.421-0.504-0.426-1.237-0.012-1.748l5.26-6.486c1.145-1.412,3.285,0.318,2.139,1.734l-4.547,5.606l5.689,6.828
			c0.487,0.584,0.408,1.452-0.176,1.938C43.916,55.649,44.083,55.685,43.318,55.623z"/>
	</g>
	<g>
		<path fill="#222221" d="M54.418,51.147c-0.584-0.486-0.662-1.354-0.176-1.938l5.674-6.81l-4.864-5.772
			c-1.175-1.394,0.934-3.167,2.104-1.775l5.609,6.654c0.43,0.51,0.432,1.256,0.005,1.769l-5.532,6.641l2.879,2.398l8.229-9.875
			l-8.801-10.854c-1.145-1.413,0.99-3.149,2.139-1.734l9.514,11.733c0.414,0.511,0.408,1.244-0.012,1.748
			C60.534,56.114,61.208,55.55,60.418,55.623C59.648,55.685,59.811,55.641,54.418,51.147z"/>
	</g>
	<g opacity="0.5">
		<path fill="#4087C7" d="M19.174,43.352h-2.085c-1.819,0-1.822-2.754,0-2.754h2.085C20.993,40.598,20.995,43.352,19.174,43.352z"/>
	</g>
	<g opacity="0.5">
		<path fill="#4087C7" d="M28.659,43.352h-3.956c-1.819,0-1.821-2.754,0-2.754h3.956C30.478,40.598,30.481,43.352,28.659,43.352z"/>
	</g>
	<g opacity="0.5">
		<path fill="#4087C7" d="M19.174,52.39h-2.085c-1.819,0-1.822-2.754,0-2.754h2.085C20.993,49.637,20.995,52.39,19.174,52.39z"/>
	</g>
	<g opacity="0.5">
		<path fill="#4087C7" d="M31.61,52.39h-6.907c-1.819,0-1.821-2.754,0-2.754h6.907C33.429,49.637,33.432,52.39,31.61,52.39z"/>
	</g>
	<g opacity="0.5">
		<path fill="#4087C7" d="M38.723,60.88H16.695c-1.819,0-1.821-2.754,0-2.754h22.028C40.542,58.126,40.545,60.88,38.723,60.88z"/>
	</g>
	<g opacity="0.5">
		<path fill="#4087C7" d="M88.125,60.88H66.098c-1.82,0-1.822-2.754,0-2.754h22.027C89.944,58.126,89.948,60.88,88.125,60.88z"/>
	</g>
	<g opacity="0.5">
		<path fill="#4087C7" d="M87.35,43.352H76.167c-1.82,0-1.822-2.754,0-2.754H87.35C89.168,40.598,89.17,43.352,87.35,43.352z"/>
	</g>
	<g opacity="0.5">
		<path fill="#4087C7" d="M87.35,52.39H71.766c-1.82,0-1.822-2.754,0-2.754H87.35C89.168,49.637,89.17,52.39,87.35,52.39z"/>
	</g>
	<g>
		<path fill="#222221" d="M51.288,39.891C38.866,27.469,39.411,28.247,39.411,27.444c0-0.797-0.557-0.014,11.877-12.446
			c0.538-0.538,1.409-0.538,1.947,0l11.473,11.473c0.539,0.538,0.539,1.409,0,1.947L53.235,39.891
			C52.698,40.429,51.826,40.429,51.288,39.891z M42.735,27.444l9.526,9.525l9.526-9.525l-9.526-9.526L42.735,27.444z"/>
	</g>
	<g>
		<path fill="#222221" d="M55.476,17.235L73.172-0.462c0.516-0.516,1.432-0.516,1.947,0l16.752,16.751
			c1.285,1.286-0.66,3.235-1.947,1.946L74.145,2.458L57.422,19.182C56.136,20.469,54.188,18.524,55.476,17.235z"/>
	</g>
	<g>
		<path fill="#222221" d="M61.04,23.201l12.648-12.649c0.539-0.538,1.41-0.538,1.947,0l5.652,5.651
			c1.285,1.286-0.66,3.235-1.947,1.946l-4.678-4.677L62.985,25.149C61.702,26.434,59.752,24.489,61.04,23.201z"/>
	</g>
	<g>
		<path fill="#222221" d="M8.877,12.265c-3.381,0-6.133-2.751-6.133-6.132S5.496,0,8.877,0s6.133,2.752,6.133,6.133
			S12.258,12.265,8.877,12.265z M8.877,2.753c-1.863,0-3.379,1.516-3.379,3.379s1.516,3.379,3.379,3.379s3.379-1.516,3.379-3.379
			S10.74,2.753,8.877,2.753z"/>
	</g>
	<g>
		<path fill="#222221" d="M30.279,12.265c-3.381,0-6.133-2.751-6.133-6.132S26.897,0,30.279,0c3.382,0,6.133,2.752,6.133,6.133
			S33.661,12.265,30.279,12.265z M30.279,2.753c-1.863,0-3.379,1.516-3.379,3.379s1.516,3.379,3.379,3.379
			c1.864,0,3.379-1.516,3.379-3.379C33.659,4.269,32.143,2.753,30.279,2.753z"/>
	</g>
	<g>
		<path fill="#222221" d="M51.682,12.265c-3.381,0-6.133-2.751-6.133-6.132S48.3,0,51.682,0c3.381,0,6.133,2.752,6.133,6.133
			S55.063,12.265,51.682,12.265z M51.682,2.753c-1.864,0-3.379,1.516-3.379,3.379s1.516,3.379,3.379,3.379s3.379-1.516,3.379-3.379
			S53.545,2.753,51.682,2.753z"/>
	</g>
	<g>
		<path fill="#222221" d="M46.926,7.509h-11.89c-1.819,0-1.822-2.754,0-2.754h11.89C48.745,4.755,48.747,7.509,46.926,7.509z"/>
	</g>
	<g>
		<path fill="#222221" d="M25.523,7.509h-11.89c-1.819,0-1.822-2.754,0-2.754h11.89C27.342,4.755,27.345,7.509,25.523,7.509z"/>
	</g>
	<g>
		<path fill="#222221" d="M7.5,17.463v-6.575c0-1.818,2.754-1.822,2.754,0v6.575C10.254,19.282,7.5,19.284,7.5,17.463z"/>
	</g>
</g>
</svg>
