<?xml version="1.0" encoding="utf-8"?>
<!-- Generator: Adobe Illustrator 16.0.0, SVG Export Plug-In . SVG Version: 6.00 Build 0)  -->
<!DOCTYPE svg PUBLIC "-//W3C//DTD SVG 1.1//EN" "http://www.w3.org/Graphics/SVG/1.1/DTD/svg11.dtd">
<svg version="1.1" id="Layer_1" xmlns="http://www.w3.org/2000/svg" xmlns:xlink="http://www.w3.org/1999/xlink" x="0px" y="0px"
	 width="100.246px" height="102.807px" viewBox="0 0 100.246 102.807" enable-background="new 0 0 100.246 102.807"
	 xml:space="preserve">
<g id="dev">
	<g>
		<circle fill="#54AD4E" cx="95.43" cy="49.705" r="1.436"/>
		<path fill="#54AD4E" d="M23.699,23.335c0.123,0.033,0.249,0.05,0.374,0.05c0.249,0,0.495-0.065,0.716-0.193
			c0.332-0.192,0.57-0.502,0.669-0.872c0.099-0.369,0.048-0.757-0.144-1.09c-0.192-0.332-0.501-0.57-0.872-0.669
			c-0.37-0.099-0.757-0.048-1.09,0.144c-0.332,0.192-0.57,0.502-0.669,0.873c-0.099,0.37-0.048,0.758,0.144,1.09
			C23.019,22.997,23.328,23.234,23.699,23.335z"/>
		<path fill="#54AD4E" d="M36.431,96.383c-0.332-0.192-0.719-0.244-1.09-0.144c-0.37,0.099-0.68,0.336-0.872,0.668
			c-0.396,0.687-0.16,1.566,0.526,1.963c0.226,0.13,0.472,0.191,0.716,0.191c0.497,0,0.981-0.258,1.246-0.718
			C37.352,97.659,37.117,96.778,36.431,96.383z"/>
		<path fill="#54AD4E" d="M94.698,47.21c0.686-0.168,1.104-0.859,0.936-1.545c-2.189-8.933-7.01-16.902-13.941-23.049
			c-0.527-0.469-1.334-0.42-1.803,0.107c-0.467,0.528-0.418,1.334,0.109,1.802c6.541,5.802,11.09,13.322,13.154,21.748
			c0.145,0.583,0.664,0.974,1.24,0.974C94.495,47.247,94.596,47.234,94.698,47.21z"/>
		<path fill="#54AD4E" d="M22.238,25.635c0.509-0.488,0.526-1.296,0.039-1.806c-0.488-0.508-1.296-0.525-1.805-0.038
			C13.831,30.153,9.339,38.313,7.481,47.39c-0.142,0.691,0.304,1.365,0.995,1.507c0.087,0.019,0.173,0.026,0.257,0.026
			c0.594,0,1.126-0.417,1.249-1.021C11.735,39.337,15.973,31.636,22.238,25.635z"/>
		<path fill="#54AD4E" d="M65.235,96.85c-8.295,2.765-17.083,2.944-25.414,0.521c-0.676-0.197-1.385,0.191-1.582,0.869
			c-0.197,0.677,0.192,1.385,0.869,1.582c4.119,1.198,8.342,1.797,12.569,1.797c4.835,0,9.675-0.783,14.364-2.347
			c0.67-0.223,1.029-0.946,0.809-1.614C66.628,96.989,65.903,96.627,65.235,96.85z"/>
		<path fill="#67C2EE" d="M51.738,17.817c-0.44,0-0.868-0.057-1.277-0.172c0.421-0.019,0.849-0.025,1.277-0.025
			c0.428,0,0.855,0.006,1.277,0.025C52.606,17.761,52.178,17.817,51.738,17.817z"/>
		<path opacity="0.5" fill="#4087C7" enable-background="new    " d="M75.247,58.3c0.197,1.64,1.691,2.802,3.326,2.598
			c2.586-0.318,5.145,0.204,7.398,1.506c1.41,0.812,2.584,1.87,3.51,3.09c-0.102,0.439-0.217,0.875-0.338,1.309
			c-2.891,0.823-5.846,3.211-7.85,6.689c-2.004,3.466-2.6,7.213-1.877,10.129c-0.314,0.326-0.639,0.646-0.965,0.951
			c-1.514-0.19-3.02-0.677-4.424-1.486c-2.253-1.303-3.982-3.256-4.998-5.655c-0.645-1.519-2.395-2.228-3.912-1.583
			c-0.619,0.262-1.105,0.708-1.418,1.251c-0.453,0.785-0.549,1.762-0.166,2.662c1.525,3.6,4.123,6.536,7.514,8.496
			c0.543,0.313,1.092,0.594,1.641,0.843c-6.045,3.881-13.233,6.134-20.95,6.134s-14.905-2.253-20.949-6.134
			c0.549-0.249,1.098-0.53,1.641-0.843c3.389-1.96,5.987-4.896,7.513-8.496c0.645-1.519-0.064-3.269-1.583-3.913
			c-1.519-0.645-3.268,0.064-3.913,1.583c-1.015,2.399-2.745,4.353-4.998,5.655c-1.404,0.811-2.911,1.296-4.424,1.486
			c-0.326-0.306-0.651-0.625-0.964-0.951c0.721-2.916,0.128-6.664-1.877-10.129c-2.004-3.479-4.96-5.867-7.851-6.689
			c-0.121-0.434-0.236-0.868-0.338-1.309c0.926-1.22,2.1-2.279,3.511-3.09c2.253-1.302,4.813-1.826,7.398-1.506
			c1.634,0.204,3.128-0.957,3.326-2.598c0.083-0.664-0.064-1.309-0.376-1.852c-0.453-0.785-1.251-1.353-2.221-1.475
			c-3.881-0.479-7.724,0.3-11.113,2.26c-0.543,0.313-1.053,0.646-1.545,0.989c-0.032-0.594-0.045-1.194-0.045-1.8
			c0-15.008,8.521-28.028,20.994-34.481c-0.064,0.601-0.096,1.22-0.096,1.852c0,3.913,1.245,7.628,3.6,10.749
			c0.996,1.314,2.866,1.583,4.181,0.587c1.315-0.989,1.577-2.866,0.587-4.181c-1.57-2.082-2.4-4.552-2.4-7.156
			c0-1.62,0.332-3.172,0.926-4.582c0.428-0.129,0.862-0.25,1.289-0.364c2.164,2.094,5.713,3.453,9.728,3.453
			c4.015,0,7.564-1.36,9.729-3.453c0.428,0.114,0.862,0.235,1.288,0.364c0.594,1.41,0.926,2.962,0.926,4.582
			c0,2.604-0.83,5.076-2.399,7.156c-0.99,1.314-0.729,3.191,0.586,4.181c0.536,0.409,1.168,0.6,1.795,0.6
			c0.904,0,1.799-0.409,2.387-1.187c2.354-3.121,3.6-6.836,3.6-10.75c0-0.631-0.031-1.25-0.096-1.851
			c12.472,6.453,20.994,19.476,20.994,34.481c0,0.605-0.014,1.206-0.045,1.806c-0.492-0.351-1.002-0.683-1.545-0.996
			c-3.391-1.96-7.232-2.737-11.113-2.26C76.206,55.178,75.043,56.665,75.247,58.3z"/>
	</g>
	<g>
		<path fill="#222222" d="M67.063,35.313c0.525-0.693,0.984-1.42,1.404-2.164c0.047-0.054,0.096-0.104,0.135-0.167
			c0.053-0.088,0.092-0.181,0.123-0.276c1.447-2.731,2.201-5.764,2.201-8.914c0-8.139-4.82-14.362-12.32-16.692
			c-0.894-3.485-3.319-5.483-6.868-5.483c-3.549,0-5.975,1.998-6.868,5.483c-7.5,2.33-12.319,8.553-12.319,16.692
			c0,3.15,0.754,6.183,2.201,8.914c0.03,0.095,0.069,0.188,0.123,0.276c0.038,0.063,0.088,0.113,0.134,0.167
			c0.42,0.744,0.88,1.471,1.404,2.164c1.411,1.877,4.092,2.247,5.968,0.836c0.906-0.688,1.494-1.685,1.653-2.814
			c0.16-1.123-0.134-2.247-0.817-3.153c-0.326-0.433-0.613-0.884-0.866-1.351c-0.031-0.112-0.072-0.224-0.136-0.328
			c-0.026-0.042-0.058-0.077-0.087-0.115c-0.69-1.425-1.055-2.98-1.055-4.596c0-1.206,0.211-2.4,0.606-3.53
			c2.477,2.074,6.153,3.313,10.06,3.313c3.907,0,7.583-1.238,10.06-3.313c0.396,1.13,0.606,2.323,0.606,3.53
			c0,1.615-0.366,3.171-1.055,4.595c-0.029,0.038-0.062,0.073-0.087,0.115c-0.064,0.104-0.105,0.216-0.137,0.329
			c-0.254,0.466-0.539,0.918-0.865,1.35c-0.684,0.906-0.977,2.03-0.817,3.152c0.16,1.131,0.747,2.127,1.653,2.815
			c0.747,0.563,1.634,0.855,2.567,0.855C65.009,37.006,66.253,36.393,67.063,35.313z M51.738,4.171c1.87,0,3.185,0.753,3.932,2.24
			c0.377,0.728,0.613,1.64,0.702,2.726c0.038,0.383,0.057,0.792,0.057,1.219c0,3.415-2.106,6.185-4.692,6.185
			c-2.585,0-4.692-2.77-4.692-6.185c0-0.428,0.019-0.836,0.057-1.219c0.089-1.085,0.326-1.998,0.702-2.726
			C48.553,4.924,49.868,4.171,51.738,4.171z M40.842,34.107c-0.753,0.568-1.825,0.421-2.394-0.332
			c-0.256-0.338-0.494-0.686-0.721-1.038l2.918-1.781c0.168,0.259,0.342,0.515,0.529,0.764
			C41.742,32.467,41.595,33.546,40.842,34.107z M62.309,16.771H62.2c-0.383,0-0.753,0.172-0.996,0.473
			c-1.87,2.33-5.496,3.778-9.466,3.778c-3.97,0-7.596-1.448-9.466-3.778c-0.268-0.332-0.683-0.512-1.104-0.473
			c-0.428,0.038-0.804,0.287-1.008,0.657c-1.072,1.94-1.64,4.144-1.64,6.364c0,1.699,0.328,3.349,0.948,4.892l-2.951,1.802
			c-0.926-2.092-1.412-4.354-1.412-6.693c0-6.626,3.581-11.662,9.396-13.883c-0.006,0.146-0.006,0.293-0.006,0.446
			c0,4.819,3.249,8.738,7.245,8.738c3.996,0,7.245-3.919,7.245-8.738c0-0.153,0-0.3-0.006-0.446
			c5.815,2.221,9.397,7.258,9.397,13.883c0,2.34-0.486,4.602-1.412,6.693l-2.951-1.802c0.619-1.543,0.947-3.192,0.947-4.892
			c0-2.221-0.568-4.424-1.641-6.364C63.113,17.059,62.736,16.81,62.309,16.771z M62.633,34.107c-0.752-0.562-0.899-1.64-0.331-2.387
			c0.188-0.249,0.36-0.505,0.528-0.765l2.918,1.781c-0.227,0.354-0.465,0.7-0.721,1.039C64.479,34.504,63.368,34.663,62.633,34.107z
			"/>
		<path fill="#222222" d="M38.857,74.672c-1.047-0.447-2.209-0.453-3.262-0.032c-1.053,0.428-1.883,1.245-2.323,2.292
			c-0.21,0.495-0.458,0.967-0.734,1.418c-0.083,0.084-0.16,0.177-0.22,0.285c-0.024,0.044-0.039,0.091-0.058,0.137
			c-0.889,1.308-2.054,2.403-3.451,3.209c-1.047,0.601-2.183,1.021-3.358,1.238c0.555-3.185-0.211-6.983-2.164-10.366
			c-1.953-3.383-4.864-5.949-7.902-7.06c0.785-0.906,1.717-1.686,2.757-2.285c1.402-0.81,2.939-1.271,4.522-1.386
			c0.043,0.006,0.085,0.016,0.129,0.017c0.011,0,0.021,0,0.032,0c0.109,0,0.214-0.019,0.315-0.044
			c0.531-0.014,1.066,0.007,1.602,0.072c2.336,0.287,4.468-1.379,4.755-3.709c0.115-0.926-0.07-1.846-0.536-2.649
			c-0.677-1.168-1.832-1.934-3.172-2.1c-0.845-0.105-1.686-0.14-2.524-0.134c-0.085-0.021-0.172-0.032-0.263-0.034
			c-0.103-0.003-0.202,0.011-0.299,0.032c-3.091,0.111-6.096,0.976-8.826,2.555c-4.506,2.598-7.417,6.484-8.413,11.221
			c-0.243,1.149-0.357,2.33-0.357,3.523c0,1.404,0.16,2.834,0.485,4.264c-2.579,2.516-3.096,5.617-1.321,8.693
			c1.36,2.35,3.396,3.55,5.834,3.55c0.747,0,1.538-0.115,2.355-0.345c1.998,1.845,4.258,3.211,6.677,4.002
			c1.672,0.543,3.37,0.816,5.075,0.816c2.987,0,5.981-0.836,8.853-2.496c2.737-1.578,4.99-3.754,6.634-6.383
			c0.062-0.068,0.121-0.141,0.167-0.225c0.043-0.078,0.076-0.159,0.101-0.241c0.424-0.724,0.816-1.469,1.147-2.253
			C42.036,78.094,41.021,75.585,38.857,74.672z M35.621,77.928c0.37-0.868,1.372-1.277,2.24-0.906c0.868,0.37,1.27,1.372,0.906,2.24
			c-0.165,0.39-0.347,0.771-0.539,1.142l-3.003-1.638C35.365,78.491,35.5,78.214,35.621,77.928z M26.748,57.087
			c0.185,0.318,0.262,0.688,0.217,1.06c-0.057,0.453-0.287,0.855-0.645,1.136c-0.364,0.281-0.804,0.409-1.264,0.352
			c-0.308-0.038-0.615-0.061-0.922-0.078l0.083-3.416c0.419,0.02,0.839,0.049,1.26,0.104C26.014,56.308,26.48,56.614,26.748,57.087z
			 M10.395,84.841c-1.666,0.096-2.975-0.67-3.913-2.285c-0.938-1.628-0.945-3.141-0.026-4.545c0.453-0.684,1.123-1.34,2.017-1.966
			c0.313-0.224,0.651-0.44,1.021-0.651c2.955-1.704,6.409-1.27,7.704,0.971c0.6,1.039,0.646,2.336,0.134,3.65
			c-0.549,1.411-1.666,2.655-3.147,3.511c-0.364,0.212-0.721,0.396-1.066,0.556C12.125,84.547,11.212,84.802,10.395,84.841z
			 M31.791,87.15c-3.862,2.229-7.966,2.732-11.86,1.462c-1.704-0.562-3.332-1.468-4.826-2.675c0.121-0.069,0.236-0.134,0.357-0.204
			c1.979-1.136,3.485-2.84,4.251-4.794c0.798-2.049,0.689-4.123-0.306-5.853c-1.226-2.133-3.6-3.275-6.224-3.275
			c-1.634,0-3.364,0.447-4.966,1.372c-0.121,0.07-0.243,0.14-0.357,0.224c-0.3-1.896-0.268-3.767,0.102-5.528
			c0.843-4.015,3.332-7.315,7.194-9.543c2.028-1.169,4.232-1.878,6.506-2.12l-0.084,3.452c-1.645,0.234-3.237,0.778-4.71,1.63
			c-1.921,1.104-3.543,2.699-4.692,4.596c-0.217,0.364-0.243,0.817-0.064,1.2c0.179,0.389,0.543,0.657,0.964,0.721
			c2.949,0.453,6.013,2.872,8.004,6.313c1.985,3.439,2.547,7.302,1.462,10.085c-0.153,0.396-0.102,0.843,0.14,1.194
			c0.243,0.345,0.632,0.567,1.072,0.543c2.221-0.045,4.404-0.651,6.332-1.763c1.473-0.851,2.737-1.959,3.762-3.266l3.035,1.655
			C35.536,84.426,33.818,85.979,31.791,87.15z"/>
		<path fill="#222222" d="M97.881,75.138c0.6-2.648,0.65-5.298,0.127-7.787c-0.988-4.736-3.9-8.617-8.412-11.221
			c-2.725-1.576-5.723-2.44-8.809-2.555c-0.104-0.023-0.207-0.039-0.316-0.032c-0.09,0.002-0.178,0.014-0.264,0.034
			c-0.836-0.006-1.68,0.028-2.523,0.134c-2.33,0.286-3.996,2.419-3.709,4.749c0.287,2.33,2.418,3.996,4.754,3.709
			c0.535-0.067,1.066-0.088,1.594-0.075c0.105,0.028,0.213,0.047,0.324,0.047c0.012,0,0.021,0,0.033,0
			c0.049-0.001,0.094-0.011,0.141-0.019c1.578,0.117,3.111,0.578,4.51,1.387c1.041,0.6,1.973,1.379,2.758,2.285
			c-3.039,1.111-5.949,3.677-7.902,7.06s-2.719,7.181-2.164,10.366c-1.174-0.217-2.311-0.639-3.357-1.238
			c-1.396-0.807-2.562-1.902-3.451-3.209c-0.02-0.046-0.033-0.092-0.059-0.137c-0.059-0.109-0.137-0.201-0.221-0.285
			c-0.275-0.451-0.523-0.923-0.732-1.418c-0.92-2.164-3.422-3.179-5.586-2.26c-0.861,0.363-1.564,0.982-2.024,1.787
			c-0.676,1.168-0.766,2.553-0.235,3.798c0.332,0.784,0.724,1.53,1.148,2.253c0.023,0.082,0.057,0.163,0.1,0.241
			c0.047,0.084,0.107,0.155,0.168,0.225c1.645,2.629,3.898,4.806,6.633,6.383c2.873,1.66,5.867,2.496,8.853,2.496
			c1.705,0,3.402-0.274,5.076-0.817c2.201-0.721,4.275-1.92,6.139-3.522c0.18-0.153,0.359-0.313,0.537-0.479
			c0.816,0.23,1.609,0.346,2.354,0.346c2.439,0,4.477-1.2,5.834-3.549C100.977,80.756,100.459,77.652,97.881,75.138z M78.418,59.634
			c-0.453,0.057-0.9-0.07-1.264-0.352c-0.357-0.28-0.588-0.683-0.645-1.136c-0.115-0.932,0.555-1.787,1.486-1.901
			c0.422-0.053,0.842-0.086,1.26-0.105l0.084,3.417C79.036,59.573,78.727,59.595,78.418,59.634z M64.804,77.735
			c0.186-0.318,0.467-0.567,0.811-0.715c0.219-0.089,0.441-0.134,0.664-0.134c0.219,0,0.436,0.038,0.646,0.121
			c0.42,0.172,0.752,0.498,0.932,0.919c0.121,0.286,0.256,0.564,0.395,0.839l-3.002,1.638c-0.193-0.373-0.373-0.752-0.539-1.142
			C64.499,78.764,64.53,78.209,64.804,77.735z M83.545,88.606c-3.895,1.277-7.998,0.772-11.861-1.455
			c-2.027-1.172-3.744-2.725-5.092-4.572l3.035-1.655c1.023,1.306,2.289,2.415,3.762,3.266c1.927,1.111,4.111,1.718,6.332,1.763
			c0.434,0.025,0.83-0.198,1.072-0.543c0.242-0.352,0.293-0.799,0.139-1.194c-1.084-2.783-0.521-6.646,1.463-10.085
			c1.992-3.44,5.055-5.86,8.004-6.313c0.42-0.063,0.785-0.332,0.963-0.721c0.18-0.383,0.154-0.836-0.063-1.2
			c-1.15-1.896-2.771-3.492-4.693-4.596c-1.473-0.852-3.064-1.395-4.709-1.63l-0.084-3.455c2.275,0.241,4.479,0.95,6.506,2.123
			c3.861,2.233,6.352,5.528,7.193,9.543c0.205,0.97,0.307,1.972,0.307,2.993c0,0.837-0.07,1.68-0.205,2.535
			c-0.113-0.084-0.234-0.153-0.357-0.224c-4.174-2.413-9.191-1.557-11.189,1.902c-0.996,1.729-1.104,3.804-0.305,5.853
			c0.766,1.953,2.271,3.658,4.25,4.794c0.121,0.07,0.236,0.134,0.357,0.204C86.877,87.145,85.249,88.051,83.545,88.606z
			 M96.995,82.556c-0.889,1.532-2.107,2.298-3.646,2.298c-0.088,0-0.178,0-0.268-0.013c-0.816-0.038-1.73-0.294-2.727-0.76
			c-0.344-0.16-0.701-0.346-1.064-0.556c-1.482-0.854-2.6-2.1-3.148-3.511c-0.51-1.314-0.465-2.611,0.135-3.65
			c0.76-1.315,2.271-2.012,3.988-2.012c1.201,0,2.496,0.338,3.715,1.04c0.371,0.211,0.709,0.428,1.021,0.651
			c0.895,0.626,1.564,1.283,2.018,1.966C97.938,79.415,97.932,80.928,96.995,82.556z"/>
		<path fill="#222222" d="M89.077,91.659c-1.264,0.752-2.59,1.359-3.943,1.803c-1.887,0.617-3.848,0.932-5.828,0.932
			c-0.705,0-1.277,0.572-1.277,1.277s0.572,1.277,1.277,1.277c2.25,0,4.479-0.356,6.623-1.06c1.531-0.502,3.029-1.187,4.455-2.034
			c0.605-0.361,0.805-1.144,0.443-1.75C90.465,91.497,89.682,91.3,89.077,91.659z"/>
		<path fill="#222222" d="M63.583,6.473c1.281,0.718,2.471,1.563,3.531,2.514c1.479,1.326,2.732,2.867,3.721,4.582
			c0.236,0.41,0.666,0.64,1.107,0.64c0.217,0,0.436-0.056,0.637-0.172c0.611-0.352,0.82-1.133,0.467-1.744
			c-1.125-1.948-2.547-3.7-4.229-5.207c-1.201-1.074-2.543-2.03-3.988-2.84C64.214,3.9,63.435,4.12,63.09,4.736
			C62.747,5.351,62.967,6.129,63.583,6.473z"/>
		<path fill="#222222" d="M4.606,59.571c-0.611-0.353-1.392-0.143-1.744,0.467c-1.125,1.949-1.931,4.058-2.395,6.267
			c-0.331,1.576-0.487,3.216-0.465,4.874c0.009,0.699,0.579,1.26,1.276,1.26c0.006,0,0.011,0,0.017,0
			C2,72.43,2.564,71.851,2.555,71.146c-0.02-1.471,0.119-2.924,0.411-4.316c0.408-1.943,1.117-3.799,2.107-5.514
			C5.426,60.704,5.217,59.924,4.606,59.571z"/>
		<circle fill="#222222" cx="74.877" cy="95.671" r="1.596"/>
		<path fill="#222222" d="M72.614,16.352c-0.109,0.412-0.055,0.842,0.16,1.211c0.295,0.511,0.832,0.798,1.384,0.798
			c0.271,0,0.545-0.068,0.795-0.213c0.762-0.439,1.023-1.418,0.584-2.18c-0.213-0.369-0.557-0.633-0.969-0.743
			c-0.412-0.112-0.841-0.054-1.21,0.159C72.989,15.596,72.724,15.939,72.614,16.352z"/>
		<path fill="#222222" d="M5.384,58.225c0.246,0.142,0.519,0.214,0.795,0.214c0.138,0,0.278-0.018,0.415-0.055
			c0.412-0.11,0.756-0.374,0.969-0.743s0.27-0.799,0.16-1.211c-0.11-0.412-0.375-0.756-0.744-0.969
			c-0.369-0.214-0.799-0.271-1.211-0.16c-0.412,0.11-0.756,0.375-0.969,0.744c-0.213,0.369-0.27,0.799-0.159,1.211
			C4.751,57.667,5.015,58.011,5.384,58.225z"/>
	</g>
</g>
</svg>
