<?xml version="1.0" encoding="utf-8"?>
<!-- Generator: Adobe Illustrator 16.0.0, SVG Export Plug-In . SVG Version: 6.00 Build 0)  -->
<!DOCTYPE svg PUBLIC "-//W3C//DTD SVG 1.1//EN" "http://www.w3.org/Graphics/SVG/1.1/DTD/svg11.dtd">
<svg version="1.1" id="Layer_1" xmlns="http://www.w3.org/2000/svg" xmlns:xlink="http://www.w3.org/1999/xlink" x="0px" y="0px"
	 width="67.362px" height="76.726px" viewBox="0 0 67.362 76.726" enable-background="new 0 0 67.362 76.726" xml:space="preserve">
<g id="price-project">
	<g>
		<path fill="#EFEEEE" d="M59.772,74.986H9.471c-2.495,0-4.524-2.029-4.524-4.523v-0.504c0-0.554,0.449-1.002,1.003-1.002h4.047
			c0-0.01,0-0.02,0-0.028V46.967c0-1.743,1.418-3.161,3.161-3.161h42.888c1.742,0,3.16,1.418,3.16,3.161v21.962
			c0,0.009,0,0.019,0,0.028h4.088c0.555,0,1.004,0.448,1.004,1.002v0.504C64.295,72.957,62.266,74.986,59.772,74.986z M7.001,70.963
			c0.233,1.149,1.251,2.018,2.469,2.018h50.302c1.217,0,2.234-0.868,2.467-2.018h-4.326c-0.359,0-0.693-0.193-0.871-0.506
			c-0.178-0.313-0.176-0.698,0.008-1.009c0.1-0.168,0.15-0.343,0.15-0.52V46.967c0-0.637-0.518-1.155-1.156-1.155H13.157
			c-0.637,0-1.155,0.519-1.155,1.155v21.962c0,0.178,0.051,0.354,0.149,0.521c0.183,0.311,0.187,0.695,0.007,1.008
			c-0.179,0.313-0.511,0.506-0.871,0.506H7.001z M34.6,61.907c-1.939,0-3.518-1.577-3.518-3.518s1.578-3.519,3.518-3.519
			s3.518,1.578,3.518,3.519S36.54,61.907,34.6,61.907z M34.6,56.877c-0.834,0-1.512,0.679-1.512,1.513s0.678,1.512,1.512,1.512
			s1.512-0.678,1.512-1.512S35.434,56.877,34.6,56.877z"/>
	</g>
	<g>
		<path fill="#EFEEEE" d="M45.907,28.102h-1.871c-0.555,0-1.004-0.449-1.004-1.003v-10.06c0-0.555,0.449-1.004,1.004-1.004h1.871
			c2.85,0,5.168,2.319,5.168,5.168v1.73C51.075,25.783,48.756,28.102,45.907,28.102z M45.038,26.096h0.869
			c1.744,0,3.162-1.419,3.162-3.162v-1.73c0-1.744-1.42-3.162-3.162-3.162h-0.869V26.096z"/>
	</g>
	<g>
		<path fill="#EFEEEE" d="M23.915,28.102h-1.871c-2.85,0-5.168-2.319-5.168-5.169v-1.729c0-2.851,2.319-5.169,5.168-5.169h1.871
			c0.555,0,1.002,0.449,1.002,1.003v10.061C24.918,27.652,24.469,28.102,23.915,28.102z M22.043,18.041
			c-1.742,0-3.161,1.42-3.161,3.162v1.73c0,1.744,1.418,3.162,3.161,3.162h0.869v-8.055H22.043z"/>
	</g>
	<g>
		<path fill="#EFEEEE" d="M47.047,18.057c-0.555,0-1.004-0.449-1.004-1.003V12.98c0-5.497-4.771-9.97-10.639-9.97H32.61
			c-5.867,0-10.639,4.472-10.639,9.97v3.948c0,0.554-0.449,1.003-1.004,1.003s-1.002-0.449-1.002-1.003V12.98
			c0-6.604,5.672-11.977,12.645-11.977h2.795c6.973,0,12.646,5.373,12.646,11.977v4.073C48.051,17.606,47.602,18.057,47.047,18.057z
			"/>
	</g>
	<g>
		<path fill="#EFEEEE" d="M37.176,20.834c-1.611,0-3.131-0.284-4.518-0.848c-0.395-0.16-0.799-0.351-1.189-0.536
			c-1.086-0.513-2.211-1.043-3.338-1.043c-0.363,0-0.705,0.054-1.049,0.163c-0.715,0.229-1.385,0.699-1.988,1.396
			c-0.248,0.285-0.635,0.406-1,0.315s-0.65-0.379-0.736-0.745c-0.275-1.182-0.486-3.028,0.07-5.125
			c0.232-0.88,0.99-3.115,2.973-4.898c1.838-1.654,4.373-2.493,7.535-2.493c5.615,0,9.084,2.524,10.609,7.717
			c0.363,1.237,0.453,2.533,0.268,3.853c-0.189,1.34-1.053,1.443-1.314,1.443l0,0c-0.234,0-0.459-0.068-0.656-0.197
			C40.831,20.5,38.928,20.834,37.176,20.834z M28.133,16.401c1.576,0,2.967,0.656,4.191,1.235c0.383,0.181,0.746,0.352,1.09,0.49
			c1.16,0.472,2.393,0.701,3.762,0.701c1.727,0,3.648-0.381,5.713-1.131l0,0c0.049-0.82-0.041-1.623-0.268-2.394
			c-1.256-4.282-4.016-6.276-8.684-6.276c-2.688,0-4.715,0.647-6.193,1.979c-1.582,1.423-2.188,3.216-2.375,3.921
			c-0.229,0.864-0.297,1.676-0.279,2.392c0.439-0.285,0.9-0.505,1.383-0.658C27.008,16.488,27.567,16.401,28.133,16.401z"/>
	</g>
	<g>
		<path fill="#EFEEEE" d="M34.176,37.159c-0.822,0-1.641-0.114-2.434-0.342c-0.533-0.151-0.842-0.708-0.688-1.239
			c0.152-0.533,0.709-0.842,1.238-0.688c0.615,0.176,1.248,0.265,1.883,0.265c4.537,0,8.348-4.328,8.863-10.07
			c0.051-0.553,0.541-0.957,1.09-0.91c0.553,0.05,0.959,0.537,0.91,1.089C44.428,32.045,39.758,37.159,34.176,37.159z"/>
	</g>
	<g>
		<path fill="#EFEEEE" d="M28.842,35.136c-0.211,0-0.426-0.067-0.607-0.204c-2.291-1.74-5.143-3.906-5.26-9.738
			c-0.012-0.554,0.428-1.012,0.982-1.023c0.553-0.023,1.012,0.43,1.023,0.983c0.098,4.862,2.32,6.55,4.467,8.181
			c0.441,0.336,0.527,0.965,0.193,1.405C29.444,34.998,29.145,35.136,28.842,35.136z"/>
	</g>
	<g>
		<path fill="#EFEEEE" d="M51.692,45.51c-0.33,0-0.654-0.164-0.846-0.463c-2.166-3.394-5.668-5.734-9.611-6.424l0,0
			c-0.016-0.004-0.033-0.007-0.051-0.011c-0.059-0.011-0.084-0.017-0.113-0.019c-0.553-0.051-0.959-0.537-0.91-1.09
			c0.051-0.551,0.535-0.963,1.09-0.908c0.094,0.008,0.18,0.023,0.27,0.04l0,0c0.029,0.004,0.059,0.01,0.088,0.016
			c4.482,0.793,8.465,3.458,10.928,7.315c0.297,0.467,0.16,1.087-0.307,1.385C52.063,45.459,51.875,45.51,51.692,45.51z"/>
	</g>
	<g>
		<path fill="#EFEEEE" d="M16.425,45.51c-0.186,0-0.372-0.051-0.539-0.158c-0.468-0.298-0.604-0.918-0.307-1.385
			c2.469-3.866,6.46-6.534,10.957-7.32l0.211-0.039c0.547-0.099,1.068,0.26,1.168,0.805c0.102,0.545-0.26,1.068-0.805,1.168
			l-0.221,0.041c-3.949,0.69-7.452,3.032-9.619,6.424C17.079,45.346,16.756,45.51,16.425,45.51z"/>
	</g>
	<g>
		<path fill="#EFEEEE" d="M32.02,25.134h-2.34c-0.555,0-1.002-0.449-1.002-1.003c0-0.555,0.447-1.004,1.002-1.004h2.34
			c0.553,0,1.002,0.449,1.002,1.004C33.022,24.684,32.573,25.134,32.02,25.134z"/>
	</g>
	<g>
		<path fill="#EFEEEE" d="M39.37,25.134h-2.338c-0.555,0-1.004-0.449-1.004-1.003c0-0.555,0.449-1.004,1.004-1.004h2.338
			c0.555,0,1.004,0.449,1.004,1.004C40.374,24.684,39.924,25.134,39.37,25.134z"/>
	</g>
	<g>
		<path fill="#EFEEEE" d="M34.024,41.317c-2.861,0-5.617-1.056-7.764-2.975c-0.412-0.369-0.449-1.003-0.08-1.416
			c0.371-0.413,1.004-0.448,1.416-0.08c1.777,1.589,4.061,2.464,6.428,2.464c0.555,0,1.004,0.449,1.004,1.003
			C35.028,40.869,34.579,41.317,34.024,41.317z"/>
	</g>
	<g>
		<path fill="#EFEEEE" d="M34.024,41.317c-0.553,0-1.002-0.448-1.002-1.003c0-0.554,0.449-1.003,1.002-1.003
			c2.367,0,4.65-0.875,6.428-2.464c0.412-0.369,1.047-0.334,1.416,0.08c0.369,0.413,0.334,1.047-0.08,1.416
			C39.643,40.262,36.885,41.317,34.024,41.317z"/>
	</g>
	<g>
		<path fill="#EFEEEE" d="M45.903,28.086h-1.865c-0.553,0-1.002-0.448-1.002-1.002V17.053c0-0.555,0.449-1.003,1.002-1.003h1.865
			c2.844,0,5.156,2.313,5.156,5.155v1.725C51.061,25.773,48.747,28.086,45.903,28.086z M45.042,26.08h0.861
			c1.738,0,3.15-1.412,3.15-3.149v-1.724c0-1.737-1.412-3.15-3.15-3.15h-0.861V26.08z"/>
	</g>
	<g>
		<path fill="#EFEEEE" d="M23.977,28.086h-1.865c-2.842,0-5.156-2.313-5.156-5.155v-1.724c0-2.844,2.313-5.156,5.156-5.156h1.865
			c0.555,0,1.004,0.449,1.004,1.003v10.03C24.981,27.638,24.532,28.086,23.977,28.086z M22.112,18.057
			c-1.738,0-3.151,1.413-3.151,3.15v1.724c0,1.737,1.413,3.149,3.151,3.149h0.861v-8.024L22.112,18.057L22.112,18.057z"/>
	</g>
	<g>
		<path fill="#EFEEEE" d="M4.919,56.172c-0.554,0-1.003-0.448-1.003-1.002v-7.879c0-5.059,4.115-9.174,9.174-9.174
			c0.554,0,1.003,0.449,1.003,1.004c0,0.554-0.449,1.002-1.003,1.002c-3.952,0-7.167,3.217-7.167,7.168v7.879
			C5.923,55.724,5.473,56.172,4.919,56.172z"/>
	</g>
	<g>
		<path fill="#EFEEEE" d="M64.018,67.207c-0.555,0-1.004-0.449-1.004-1.004V54.166c0-0.554,0.449-1.002,1.004-1.002
			s1.002,0.448,1.002,1.002v12.037C65.02,66.758,64.573,67.207,64.018,67.207z"/>
	</g>
	<g>
		<g>
			<circle fill="#EFEEEE" cx="64.225" cy="51.157" r="1.003"/>
			<path fill="#EFEEEE" d="M64.225,52.412c-0.691,0-1.256-0.563-1.256-1.255c0-0.691,0.564-1.255,1.256-1.255
				s1.254,0.563,1.254,1.255C65.479,51.85,64.917,52.412,64.225,52.412z M64.225,50.405c-0.414,0-0.752,0.337-0.752,0.752
				s0.336,0.753,0.752,0.753c0.414,0,0.75-0.338,0.75-0.753S64.639,50.405,64.225,50.405z"/>
		</g>
		<g>
			<path fill="#EFEEEE" d="M64.225,52.285c-0.623,0-1.129-0.506-1.129-1.128s0.506-1.128,1.129-1.128
				c0.621,0,1.127,0.506,1.127,1.128S64.846,52.285,64.225,52.285z M64.225,50.279c-0.484,0-0.879,0.395-0.879,0.878
				c0,0.484,0.395,0.878,0.879,0.878s0.877-0.394,0.877-0.878C65.102,50.674,64.709,50.279,64.225,50.279z"/>
			<path fill="#EFEEEE" d="M64.225,52.537c-0.762,0-1.381-0.619-1.381-1.38s0.619-1.38,1.381-1.38s1.381,0.619,1.381,1.38
				S64.987,52.537,64.225,52.537z M64.225,50.531c-0.346,0-0.627,0.281-0.627,0.626s0.281,0.626,0.627,0.626
				s0.625-0.281,0.625-0.626S64.571,50.531,64.225,50.531z"/>
		</g>
	</g>
	<g>
		<g>
			<circle fill="#EFEEEE" cx="53.067" cy="16.051" r="1.003"/>
			<path fill="#EFEEEE" d="M53.067,17.305c-0.693,0-1.256-0.563-1.256-1.255c0-0.692,0.563-1.255,1.256-1.255
				c0.691,0,1.254,0.563,1.254,1.255C54.321,16.741,53.758,17.305,53.067,17.305z M53.067,15.299c-0.414,0-0.752,0.337-0.752,0.752
				s0.336,0.752,0.752,0.752c0.414,0,0.752-0.337,0.752-0.752S53.481,15.299,53.067,15.299z"/>
		</g>
		<g>
			<path fill="#EFEEEE" d="M53.067,17.179c-0.623,0-1.129-0.506-1.129-1.128s0.506-1.128,1.129-1.128
				c0.621,0,1.127,0.506,1.127,1.128S53.688,17.179,53.067,17.179z M53.067,15.172c-0.484,0-0.879,0.395-0.879,0.879
				c0,0.483,0.395,0.878,0.879,0.878s0.877-0.395,0.877-0.878C53.944,15.566,53.551,15.172,53.067,15.172z"/>
			<path fill="#EFEEEE" d="M53.067,17.431c-0.762,0-1.381-0.619-1.381-1.38c0-0.762,0.619-1.381,1.381-1.381
				c0.76,0,1.379,0.619,1.379,1.381C54.446,16.812,53.827,17.431,53.067,17.431z M53.067,15.424c-0.346,0-0.627,0.281-0.627,0.626
				s0.281,0.626,0.627,0.626c0.344,0,0.625-0.281,0.625-0.626S53.411,15.424,53.067,15.424z"/>
		</g>
	</g>
	<g>
		<g>
			<circle fill="#EFEEEE" cx="4.918" cy="58.18" r="1.003"/>
			<path fill="#EFEEEE" d="M4.919,59.434c-0.691,0-1.255-0.563-1.255-1.255s0.563-1.255,1.255-1.255
				c0.692,0,1.255,0.563,1.255,1.255S5.61,59.434,4.919,59.434z M4.919,57.428c-0.413,0-0.752,0.337-0.752,0.752
				s0.338,0.752,0.752,0.752c0.415,0,0.751-0.337,0.751-0.752S5.333,57.428,4.919,57.428z"/>
		</g>
		<g>
			<path fill="#EFEEEE" d="M4.918,59.308c-0.621,0-1.128-0.506-1.128-1.128s0.507-1.128,1.128-1.128
				c0.622,0,1.129,0.506,1.129,1.128S5.54,59.308,4.918,59.308z M4.918,57.302c-0.483,0-0.878,0.394-0.878,0.878
				s0.395,0.878,0.878,0.878c0.484,0,0.879-0.394,0.879-0.878S5.402,57.302,4.918,57.302z"/>
			<path fill="#EFEEEE" d="M4.918,59.56c-0.761,0-1.38-0.619-1.38-1.38c0-0.762,0.619-1.38,1.38-1.38
				c0.762,0,1.381,0.618,1.381,1.38C6.299,58.94,5.68,59.56,4.918,59.56z M4.918,57.553c-0.345,0-0.626,0.281-0.626,0.626
				s0.281,0.626,0.626,0.626c0.346,0,0.626-0.281,0.626-0.626S5.265,57.553,4.918,57.553z"/>
		</g>
	</g>
	<g>
		<path fill="#EFEEEE" d="M53.067,13.982c-0.555,0-1.004-0.449-1.004-1.003c0-4.24-1.719-8.238-4.84-11.256
			c-0.398-0.386-0.408-1.021-0.023-1.418c0.385-0.398,1.021-0.408,1.418-0.024c3.516,3.4,5.451,7.91,5.451,12.698
			C54.069,13.533,53.62,13.982,53.067,13.982z"/>
	</g>
	<g>
		<path fill="#EFEEEE" d="M37.797,20.431c-0.258,0-0.514-0.099-0.709-0.294l-3.457-3.457c-0.393-0.393-0.393-1.027,0-1.419
			c0.391-0.392,1.025-0.392,1.418,0l3.457,3.457c0.393,0.392,0.393,1.026,0,1.419C38.309,20.332,38.053,20.431,37.797,20.431z"/>
	</g>
	<g>
		<path fill="#EFEEEE" d="M57.913,70.963H11.287c-0.554,0-1.003-0.449-1.003-1.004c0-0.554,0.449-1.002,1.003-1.002h46.625
			c0.555,0,1.002,0.448,1.002,1.002C58.917,70.514,58.467,70.963,57.913,70.963z"/>
	</g>
	<g>
		<path fill="#EFEEEE" d="M66.36,75h-7.672c-0.553,0-1.002-0.449-1.002-1.004c0-0.554,0.449-1.002,1.002-1.002h7.672
			c0.553,0,1.002,0.448,1.002,1.002C67.362,74.551,66.913,75,66.36,75z"/>
	</g>
	<g>
		<path fill="#EFEEEE" d="M10.021,75H2.35c-0.555,0-1.003-0.449-1.003-1.004c0-0.554,0.448-1.002,1.003-1.002h7.671
			c0.554,0,1.003,0.448,1.003,1.002C11.023,74.551,10.574,75,10.021,75z"/>
	</g>
</g>
</svg>
