<?xml version="1.0" encoding="utf-8"?>
<!-- Generator: Adobe Illustrator 16.0.0, SVG Export Plug-In . SVG Version: 6.00 Build 0)  -->
<!DOCTYPE svg PUBLIC "-//W3C//DTD SVG 1.1//EN" "http://www.w3.org/Graphics/SVG/1.1/DTD/svg11.dtd">
<svg version="1.1" id="Layer_1" xmlns="http://www.w3.org/2000/svg" xmlns:xlink="http://www.w3.org/1999/xlink" x="0px" y="0px"
	 width="103.464px" height="102.359px" viewBox="0 0 103.464 102.359" enable-background="new 0 0 103.464 102.359"
	 xml:space="preserve">
<g id="team">
	<path opacity="0.5" fill="#4087C7" enable-background="new    " d="M27.459,77.945c-2.108,2.584-5.039,4.201-8.302,4.201
		c-3.263,0-6.194-1.617-8.302-4.201c-2.859,2.396-4.692,5.977-4.692,9.976v8.662c3.609,2.714,8.114,4.331,12.994,4.331
		c4.88,0,9.384-1.617,12.994-4.331V87.92C32.151,83.921,30.317,80.341,27.459,77.945z"/>
	<path fill="#54AD4E" d="M60.666,77.945c-2.107,2.584-5.039,4.201-8.303,4.201c-3.262,0-6.193-1.617-8.301-4.201
		c-2.859,2.396-4.692,5.977-4.692,9.976v8.662c3.609,2.714,8.114,4.331,12.993,4.331c4.881,0,9.385-1.617,12.994-4.331V87.92
		C65.357,83.921,63.523,80.341,60.666,77.945z"/>
	<path opacity="0.5" fill="#4087C7" enable-background="new    " d="M93.873,77.945c-2.109,2.584-5.039,4.201-8.303,4.201
		s-6.193-1.617-8.303-4.201c-2.857,2.396-4.691,5.977-4.691,9.976v8.662c3.609,2.714,8.113,4.331,12.994,4.331
		c4.879,0,9.385-1.617,12.994-4.331V87.92C98.564,83.921,96.73,80.341,93.873,77.945z"/>
	<g>
		<path fill="#222221" d="M28.387,76.838c-0.296-0.248-0.679-0.367-1.064-0.331c-0.385,0.037-0.738,0.227-0.983,0.525
			c-1.931,2.367-4.481,3.67-7.183,3.67c-2.702,0-5.252-1.303-7.183-3.67c-0.244-0.3-0.598-0.488-0.983-0.525
			c-0.388-0.036-0.768,0.082-1.063,0.331c-3.31,2.775-5.208,6.815-5.208,11.083v8.662c0,0.454,0.213,0.881,0.576,1.154
			c4.02,3.022,8.814,4.621,13.861,4.621c5.047,0,9.841-1.599,13.861-4.621c0.363-0.273,0.576-0.7,0.576-1.154v-8.662
			C33.596,83.654,31.696,79.614,28.387,76.838z M30.708,95.847c-0.921,0.645-1.888,1.197-2.887,1.675v-9.601
			c0-0.797-0.646-1.444-1.444-1.444s-1.444,0.646-1.444,1.444v10.106c0,0.203,0.042,0.395,0.118,0.569
			c-1.889,0.574-3.866,0.874-5.893,0.874c-2.027,0-4.004-0.3-5.893-0.874c0.075-0.175,0.118-0.366,0.118-0.569V87.921
			c0-0.797-0.646-1.444-1.444-1.444s-1.444,0.646-1.444,1.444v9.601c-0.999-0.477-1.966-1.03-2.887-1.675V87.92
			c0-2.953,1.14-5.771,3.167-7.919c2.346,2.325,5.274,3.588,8.383,3.588c3.109,0,6.037-1.263,8.383-3.588
			c2.027,2.148,3.167,4.966,3.167,7.919V95.847z"/>
		<path fill="#222221" d="M61.593,76.838c-0.295-0.248-0.682-0.367-1.064-0.331c-0.385,0.037-0.738,0.227-0.982,0.525
			c-1.93,2.367-4.48,3.67-7.184,3.67c-2.701,0-5.251-1.303-7.182-3.67c-0.244-0.3-0.598-0.488-0.983-0.525
			c-0.387-0.036-0.768,0.082-1.064,0.331c-3.31,2.775-5.208,6.815-5.208,11.083v8.662c0,0.454,0.213,0.881,0.576,1.154
			c4.02,3.022,8.814,4.621,13.861,4.621c5.048,0,9.842-1.599,13.861-4.621c0.361-0.273,0.576-0.7,0.576-1.154v-8.662
			C66.802,83.654,64.902,79.614,61.593,76.838z M63.914,95.847c-0.92,0.645-1.889,1.198-2.887,1.675v-9.601
			c0-0.797-0.646-1.444-1.443-1.444c-0.799,0-1.445,0.646-1.445,1.444v10.106c0,0.203,0.043,0.395,0.118,0.569
			c-1.888,0.574-3.866,0.874-5.894,0.874c-2.026,0-4.004-0.3-5.892-0.874c0.075-0.175,0.118-0.366,0.118-0.569V87.921
			c0-0.797-0.646-1.444-1.444-1.444s-1.444,0.646-1.444,1.444v9.601c-0.999-0.477-1.966-1.03-2.887-1.675V87.92
			c0-2.953,1.14-5.771,3.167-7.919c2.346,2.325,5.274,3.588,8.382,3.588c3.109,0,6.037-1.263,8.385-3.588
			c2.025,2.148,3.166,4.966,3.166,7.919V95.847L63.914,95.847z"/>
		<path fill="#222221" d="M94.8,76.838c-0.297-0.248-0.68-0.367-1.064-0.331c-0.385,0.037-0.738,0.227-0.982,0.525
			c-1.932,2.367-4.482,3.67-7.184,3.67s-5.254-1.303-7.184-3.67c-0.244-0.3-0.598-0.488-0.982-0.525
			c-0.385-0.036-0.768,0.082-1.064,0.331c-3.311,2.775-5.207,6.815-5.207,11.083v8.662c0,0.454,0.213,0.881,0.576,1.154
			c4.02,3.022,8.813,4.621,13.859,4.621c5.049,0,9.842-1.599,13.861-4.621c0.363-0.273,0.576-0.7,0.576-1.154v-8.662
			C100.007,83.654,98.109,79.614,94.8,76.838z M97.121,95.847c-0.906,0.635-1.857,1.182-2.842,1.652V87.92
			c0-0.797-0.645-1.444-1.443-1.444c-0.797,0-1.443,0.646-1.443,1.444v10.106c0,0.197,0.039,0.387,0.111,0.558
			c-1.9,0.582-3.895,0.885-5.936,0.885c-2.012,0-3.975-0.297-5.85-0.861c0.078-0.179,0.123-0.374,0.123-0.581V87.92
			c0-0.797-0.646-1.444-1.443-1.444c-0.799,0-1.443,0.646-1.443,1.444v9.622c-1.018-0.481-2-1.041-2.936-1.695V87.92
			c0-2.953,1.141-5.771,3.166-7.919c2.346,2.325,5.275,3.588,8.383,3.588c3.109,0,6.037-1.263,8.385-3.588
			c2.025,2.148,3.166,4.966,3.166,7.919v7.927H97.121z"/>
		<path fill="#222221" d="M33.33,6.871c0.01,0,0.019,0,0.029,0c0.896-0.017,1.611-0.759,1.595-1.654
			c-0.017-0.895-0.739-1.621-1.654-1.595c-0.895,0.017-1.61,0.759-1.594,1.654C31.722,6.162,32.447,6.871,33.33,6.871z"/>
		<path fill="#222221" d="M101.871,51.855c-0.898-0.028-1.639,0.698-1.654,1.595c-0.018,0.895,0.699,1.637,1.594,1.654
			c0.01,0,0.02,0,0.029,0c0.883,0,1.609-0.709,1.625-1.596C103.48,52.613,102.765,51.871,101.871,51.855z"/>
		<path fill="#222221" d="M19.157,79.258c4.776,0,8.662-4.856,8.662-10.828c0-1.299-0.102-2.443-0.284-3.461
			c-0.008-0.126-0.029-0.251-0.071-0.373c-1.164-5.675-5.001-6.994-8.308-6.994c-3.952,0-8.662,1.88-8.662,10.828
			C10.496,74.402,14.381,79.258,19.157,79.258z M19.157,76.372c-3.055,0-5.558-3.282-5.756-7.416
			c0.01-0.021,0.026-0.034,0.035-0.054c0.414-0.923,0.972-1.761,1.659-2.489c0.242-0.257,0.5-0.5,0.772-0.729
			c1.32,0.952,2.867,1.591,4.461,1.828c1.792,0.267,3.353,0.008,4.566-0.378c0.024,0.408,0.038,0.838,0.038,1.296
			C24.933,72.808,22.341,76.372,19.157,76.372z M19.157,60.49c2.143,0,4.321,0.531,5.275,3.751c-0.912,0.35-2.182,0.64-3.679,0.415
			c-1.92-0.286-3.246-1.287-3.866-1.859c-0.487-0.448-1.217-0.508-1.771-0.145c-0.308,0.202-0.597,0.428-0.884,0.656
			C15.306,60.923,17.244,60.49,19.157,60.49z"/>
		<path fill="#222221" d="M43.702,68.43c0,5.972,3.886,10.828,8.661,10.828c4.777,0,8.662-4.856,8.662-10.828
			c0-1.299-0.102-2.445-0.283-3.463c-0.008-0.125-0.029-0.249-0.07-0.37c-1.164-5.676-5.001-6.994-8.309-6.994
			C48.413,57.602,43.702,59.481,43.702,68.43z M52.363,76.372c-3.055,0-5.557-3.282-5.755-7.416c0.01-0.021,0.026-0.034,0.035-0.054
			c0.414-0.923,0.972-1.761,1.66-2.489c0.241-0.257,0.5-0.501,0.771-0.729c1.32,0.952,2.867,1.591,4.461,1.828
			c1.794,0.267,3.354,0.008,4.566-0.378c0.024,0.408,0.039,0.838,0.039,1.296C58.138,72.808,55.548,76.372,52.363,76.372z
			 M57.638,64.241c-0.914,0.35-2.186,0.64-3.679,0.416c-1.919-0.286-3.246-1.287-3.866-1.859c-0.486-0.448-1.217-0.508-1.771-0.145
			c-0.307,0.202-0.596,0.428-0.883,0.656c1.073-2.386,3.01-2.818,4.924-2.818C54.506,60.49,56.685,61.021,57.638,64.241z"/>
		<path fill="#222221" d="M26.376,41c0,5.971,3.886,10.828,8.662,10.828S43.701,46.97,43.701,41c0-1.299-0.102-2.444-0.284-3.461
			c-0.008-0.126-0.029-0.251-0.071-0.373c-1.164-5.675-5.001-6.994-8.308-6.994C31.087,30.171,26.376,32.049,26.376,41z
			 M35.039,48.94c-3.055,0-5.558-3.282-5.756-7.416c0.01-0.021,0.026-0.034,0.035-0.055c0.414-0.923,0.972-1.76,1.659-2.488
			c0.242-0.258,0.5-0.5,0.772-0.729c1.32,0.952,2.867,1.59,4.461,1.828c1.792,0.266,3.353,0.007,4.566-0.378
			c0.024,0.408,0.038,0.837,0.038,1.296C40.813,45.377,38.224,48.94,35.039,48.94z M35.039,33.058c2.143,0,4.321,0.531,5.275,3.752
			c-0.913,0.351-2.183,0.641-3.679,0.415c-1.92-0.285-3.246-1.286-3.866-1.858c-0.487-0.448-1.217-0.508-1.771-0.146
			c-0.308,0.202-0.597,0.429-0.884,0.657C31.188,33.493,33.125,33.058,35.039,33.058z"/>
		<path fill="#222221" d="M45.24,55.116c0.373,0.705,1.245,0.975,1.951,0.601c0.705-0.372,0.974-1.246,0.601-1.951
			c-0.876-1.656-2.061-3.122-3.521-4.354c-0.295-0.25-0.68-0.371-1.065-0.335c-0.386,0.035-0.74,0.225-0.985,0.523
			c-1.447,1.773-3.249,2.963-5.198,3.435c-1.382,0.318-2.604,0.314-3.955,0.004c-1.964-0.476-3.767-1.664-5.213-3.438
			c-0.245-0.3-0.6-0.488-0.985-0.523c-0.384-0.038-0.769,0.085-1.065,0.335c-1.46,1.233-2.645,2.699-3.521,4.354
			c-0.373,0.704-0.104,1.578,0.601,1.951c0.705,0.374,1.578,0.104,1.951-0.601c0.489-0.924,1.099-1.776,1.822-2.543
			c1.656,1.637,3.614,2.758,5.745,3.274c0.907,0.21,1.769,0.313,2.635,0.313c0.866,0,1.728-0.103,2.65-0.315
			c2.118-0.513,4.075-1.634,5.73-3.271C44.142,53.339,44.751,54.192,45.24,55.116z"/>
		<path fill="#222221" d="M61.027,41c0,5.971,3.887,10.828,8.662,10.828S78.351,46.97,78.351,41c0-1.299-0.102-2.446-0.285-3.463
			c-0.008-0.125-0.027-0.249-0.068-0.37c-1.164-5.676-5.002-6.995-8.311-6.995C65.736,30.171,61.027,32.049,61.027,41z
			 M69.689,48.94c-3.055,0-5.559-3.282-5.756-7.416c0.01-0.021,0.025-0.034,0.035-0.056c0.412-0.921,0.971-1.759,1.658-2.488
			c0.242-0.258,0.5-0.501,0.771-0.729c1.32,0.952,2.867,1.59,4.461,1.828c1.793,0.266,3.355,0.007,4.566-0.378
			c0.023,0.408,0.039,0.837,0.039,1.296C75.464,45.377,72.873,48.94,69.689,48.94z M69.689,33.058c2.143,0,4.32,0.531,5.275,3.752
			c-0.912,0.351-2.184,0.641-3.68,0.415c-1.92-0.285-3.246-1.286-3.865-1.858c-0.488-0.448-1.219-0.509-1.771-0.146
			c-0.307,0.202-0.596,0.429-0.883,0.657C65.837,33.493,67.775,33.058,69.689,33.058z"/>
		<path fill="#222221" d="M78.068,52.573c0.725,0.767,1.334,1.619,1.822,2.544c0.373,0.704,1.246,0.975,1.951,0.601
			c0.705-0.373,0.975-1.246,0.602-1.951c-0.877-1.655-2.061-3.121-3.521-4.354c-0.295-0.25-0.68-0.371-1.064-0.335
			c-0.387,0.035-0.742,0.225-0.984,0.523c-1.447,1.773-3.248,2.962-5.199,3.435c-1.381,0.319-2.604,0.314-3.955,0.004
			c-1.965-0.477-3.768-1.664-5.213-3.438c-0.244-0.3-0.6-0.488-0.986-0.523c-0.385-0.038-0.77,0.085-1.064,0.335
			c-1.46,1.233-2.645,2.699-3.521,4.354c-0.373,0.705-0.104,1.578,0.602,1.951c0.705,0.374,1.578,0.104,1.951-0.601
			c0.488-0.925,1.1-1.777,1.822-2.544c1.654,1.637,3.613,2.758,5.744,3.274c0.908,0.21,1.77,0.313,2.635,0.313
			c0.867,0,1.73-0.103,2.65-0.315C74.458,55.331,76.414,54.209,78.068,52.573z"/>
		<path fill="#222221" d="M53.736,24.397c4.777,0,8.662-4.857,8.662-10.828c0-1.3-0.102-2.446-0.285-3.463
			c-0.008-0.125-0.027-0.249-0.068-0.37c-1.164-5.677-5.002-6.995-8.311-6.995c-3.951,0-8.663,1.879-8.663,10.828
			C45.072,19.539,48.958,24.397,53.736,24.397z M53.736,21.508c-3.057,0-5.558-3.282-5.756-7.416c0.01-0.02,0.026-0.034,0.035-0.054
			c0.415-0.923,0.971-1.76,1.659-2.489c0.242-0.257,0.5-0.5,0.771-0.728c1.32,0.952,2.867,1.59,4.461,1.828
			c1.795,0.266,3.355,0.007,4.568-0.378c0.023,0.407,0.037,0.837,0.037,1.296C59.511,17.947,56.919,21.508,53.736,21.508z
			 M53.736,5.627c2.143,0,4.32,0.531,5.275,3.752c-0.912,0.351-2.183,0.639-3.68,0.414c-1.92-0.285-3.246-1.287-3.866-1.859
			c-0.487-0.447-1.217-0.508-1.771-0.145c-0.309,0.202-0.598,0.428-0.885,0.657C49.883,6.062,51.822,5.627,53.736,5.627z"/>
		<path fill="#222221" d="M41.583,28.286c0.705,0.374,1.578,0.104,1.951-0.602c0.489-0.924,1.099-1.775,1.822-2.543
			c1.656,1.638,3.615,2.759,5.746,3.275c0.906,0.21,1.769,0.313,2.635,0.313c0.865,0,1.728-0.102,2.648-0.315
			c2.118-0.513,4.076-1.633,5.73-3.271c0.725,0.768,1.332,1.619,1.822,2.543c0.373,0.704,1.244,0.975,1.951,0.603
			c0.705-0.373,0.973-1.246,0.602-1.951c-0.877-1.657-2.061-3.122-3.521-4.354c-0.295-0.25-0.68-0.37-1.064-0.335
			c-0.387,0.034-0.74,0.225-0.986,0.523c-1.447,1.773-3.25,2.962-5.197,3.435c-1.383,0.318-2.604,0.314-3.955,0.004
			c-1.963-0.477-3.767-1.664-5.213-3.438c-0.245-0.3-0.6-0.489-0.985-0.523c-0.386-0.037-0.769,0.085-1.065,0.335
			c-1.46,1.232-2.645,2.698-3.521,4.354C40.608,27.039,40.877,27.914,41.583,28.286z"/>
		<path fill="#222221" d="M76.957,68.43c0,5.972,3.885,10.828,8.662,10.828c4.775,0,8.66-4.856,8.66-10.828
			c0-1.299-0.102-2.445-0.283-3.463c-0.008-0.125-0.029-0.249-0.07-0.37c-1.164-5.676-5-6.994-8.309-6.994
			C81.666,57.602,76.957,59.481,76.957,68.43z M85.619,76.372c-3.057,0-5.559-3.282-5.758-7.416
			c0.012-0.021,0.027-0.034,0.035-0.055c0.414-0.921,0.973-1.76,1.658-2.489c0.242-0.257,0.5-0.501,0.773-0.729
			c1.318,0.952,2.865,1.591,4.461,1.828c1.793,0.267,3.354,0.007,4.566-0.378c0.023,0.408,0.037,0.838,0.037,1.296
			C91.392,72.808,88.802,76.372,85.619,76.372z M85.619,60.49c2.143,0,4.32,0.531,5.273,3.752c-0.912,0.35-2.182,0.64-3.678,0.415
			c-1.92-0.286-3.246-1.287-3.867-1.859c-0.486-0.448-1.217-0.509-1.77-0.146c-0.307,0.202-0.598,0.428-0.885,0.656
			C81.767,60.923,83.705,60.49,85.619,60.49z"/>
		<path fill="#222221" d="M31.33,7.751c-0.674-0.426-1.566-0.226-1.992,0.447L0.225,54.15c-0.427,0.673-0.227,1.565,0.447,1.991
			c0.24,0.152,0.507,0.225,0.771,0.225c0.478,0,0.946-0.238,1.221-0.671L31.775,9.744C32.204,9.071,32.002,8.177,31.33,7.751z"/>
		<path fill="#222221" d="M100.287,48.981L71.173,3.03c-0.426-0.675-1.318-0.873-1.992-0.447s-0.873,1.319-0.447,1.992
			l29.113,45.951c0.275,0.434,0.744,0.671,1.221,0.671c0.266,0,0.533-0.073,0.771-0.225
			C100.513,50.546,100.714,49.654,100.287,48.981z"/>
	</g>
</g>
</svg>
