<?xml version="1.0" encoding="utf-8"?>
<!-- Generator: Adobe Illustrator 16.0.0, SVG Export Plug-In . SVG Version: 6.00 Build 0)  -->
<!DOCTYPE svg PUBLIC "-//W3C//DTD SVG 1.1//EN" "http://www.w3.org/Graphics/SVG/1.1/DTD/svg11.dtd">
<svg version="1.1" id="Layer_1" xmlns="http://www.w3.org/2000/svg" xmlns:xlink="http://www.w3.org/1999/xlink" x="0px" y="0px"
	 width="81.008px" height="101.555px" viewBox="0 0 81.008 101.555" enable-background="new 0 0 81.008 101.555"
	 xml:space="preserve">
<g id="countries">
	<g opacity="0.5">
		<g>
			<g>
				<path fill="#4087C7" d="M72.426,63.455c-1.117-6.542-4.227-12.508-8.973-17.221c-0.203,0.083-0.355,0.178-0.488,0.285
					c-0.795,0.677-2.518,1.484-2.518,1.484c-2.121,1.079-0.234-2.475-1.936-2.648c-1.293-0.131-5.201-0.131-7.137,1.2
					c-1.924,1.33-3.303,3.218-3.04,3.526c0.249,0.297,0.558,0.38,0.558,0.986c0,0.451,0.31,1.247-0.035,1.841
					c-0.272,0.181-0.803,0.596-1.117,0.701l0.013,0.012c-0.606,0.297-1.317,0.416-1.96-0.237c-0.119-0.132-0.059-0.416-0.083-0.665
					v-0.013c-0.095-0.808-0.19-1.876-0.261-2.196c-0.084-0.429-0.559-1.545-0.986-1.33c-0.428,0.214-2.02,2.138-2.613,2.315
					c-0.605,0.166-1.377,0.048-1.412,0.559c-0.047,0.511,0.725,1.924,1.543,1.805c0.808-0.131,1.889-0.903,2.269-0.736
					c0.392,0.179,0.772,1.295,0.688,1.854c-0.082,0.558,0.179,0.985-0.985,1.247c-1.164,0.249-1.972-0.559-2.411,0
					c-0.428,0.558-1.247,1.924-1.116,2.398c0.106,0.368,1.177,0.629,1.817,0.796c1.271-0.095,2.554-0.32,3.171-0.748
					c0.985-0.688,2.708-1.329,3.171-1.329c0.178,0,1.033,0.06,2.02,0.083c0.617,0.713,1.33,1.259,2.279,1.412
					c0.879,0.154,1.438,0.071,1.781-0.07c0.367-0.166,0.783-0.036,0.975,0.309c0.381,0.721,1.066,1.406,1.377,0.748
					c0,0-0.486-0.986,0.154-0.986c0.652,0,1.508,0.429,1.508,0.559c0,0.131,0.605,0.771,1.379,1.081
					c0.771,0.297,0.557,1.151,0.557,1.151s-4.43,0.559-6.188,0.215c-1.758-0.345-2.316-0.855-3.302-1.89
					c-0.985-1.033-0.653-2.054-2.66-1.496c-2.019,0.559-2.149,0.986-3.444,1.235c-1.283,0.261-1.211,0.404-2.328,0.736
					c-0.023,0.012-0.047,0.012-0.07,0.023c-0.879,0.273-2.102,0.499-2.447,1.176c-0.428,0.855-0.297,0.986-0.855,1.889
					c-0.557,0.902-1.899,1.639-1.936,2.065c-0.047,0.429-0.297,4.204,0,6.009c0.297,1.806,1.152,1.937,2.055,3.089
					c0.903,1.164,1.295,1.377,2.446,1.329c1.164-0.036,2.114-0.511,3.741-0.641c1.627-0.131,2.743-0.428,3.35,0.476
					c0.605,0.902,0.166,2.055,0.902,2.873c0.725,0.819,1.842-0.047,1.889,1.723c0.047,1.758-0.346,4.156-0.393,5.486
					c-0.036,1.33,1.59,3.61,1.936,4.728c0.344,1.116,0.605,1.282,2.02,1.282c3.18,0,3.949-1.709,6.697-5.45
					c0.855-1.152,1.592-2.399,1.676-3.777c0.082-1.366-1.164-1.247,0.51-2.874c1.676-1.627,3.102-3.088,4.17-4.632
					c1.068-1.556,1.592-3.349,1.068-3.479c-0.51-0.132-4.203-0.262-4.203-0.262c-0.096,0-2.066-0.023-2.363-2.019
					c-1.033-6.781-0.084-3.694-0.084-5.368c1.723,1.247,1.629,2.102,2.186,3.527c0.371,0.937,0.307,1.764,0.801,2.25
					c0.277,0.273,0.68,0.4,1.314,0.445c0.758,0.055,4.709,0.334,5.92-2.387C73.936,65.851,72.569,63.676,72.426,63.455z
					 M62.409,74.854c0,2.71-2.205,4.916-4.916,4.916s-4.916-2.205-4.916-4.916s2.205-4.916,4.916-4.916S62.409,72.143,62.409,74.854
					z"/>
			</g>
			<g>
				<path fill="#4087C7" d="M55.19,74.854c0,3.043,4.605,3.044,4.605,0C59.795,71.811,55.19,71.809,55.19,74.854z"/>
			</g>
		</g>
		<g>
			<g>
				<path fill="#4087C7" d="M29.969,94.012c-0.553-1.173,0.131-1.596-0.185-3.513c-0.351-2.128-1.368-2.573-0.939-3.651
					c0.26-0.652,1.382-2.22,0.993-2.949c-0.097-0.182-0.315-0.273-0.676-0.532c-0.678-0.486-0.101-1.172-0.203-2.344
					c-0.102-1.173,0.471-0.858,0.357-2.166c-0.113-1.308-0.066-0.767-0.76-1.434c-0.373-0.357-0.6-0.546-0.856-0.631
					c-0.423-0.141-0.574,0.101-0.837-0.04c-0.342-0.183-0.258-0.701-0.417-1.481c-0.574-2.819-1.541-1.95-3.025-2.087
					c-1.461-0.133-1.53-0.756-2.712-0.938c-1.989-0.306-2.896,1.291-4.172,0.834c-0.551-0.196-1.227-0.797-1.643-2.655
					c-0.831-1.017-1.989-2.999-1.33-3.933c0.366-0.517,0.913-0.175,1.799-0.761c1.002-0.663,0.656-1.334,1.956-2.895
					c1.231-1.479,2.2-1.665,2.503-1.54c0.334,0.138,0.333-1.783,0.336-2.146c0.082-0.179,0.216-0.408,0.395-0.416
					c0.229-0.01,0.321,0.357,0.639,0.499c0.375,0.166,0.821-0.09,1.017-0.196c1.572-0.85,2.388-0.377,3.924-1.499
					c3.224-2.354,1.872-3.684,2.19-5.319c0.215-1.105,0.638-1.221,0.939-2.296c0.102-0.362,0.52-1.854-0.104-3.129
					c-0.931-1.899-3.574-2.076-3.755-2.086c-0.817-1.182-1.634-2.363-2.451-3.546c-0.834,0.365-1.669,0.73-2.503,1.095
					c-2.189,1.928-5.794,5.439-7.197,7.511c-1.8,2.657-5.205,11.55-5.32,12.204c-0.264,1.505,0.416,5.256,1.599,6.734
					c0,0,1.843,0.467,2.938,1.249c1.095,0.782,1.565,2.034,1.565,2.503c0,1.101-0.48,1.499-0.313,2.974
					c0.087,0.762,0.255,0.711,0.313,1.402c0.104,1.242-0.401,1.887-0.626,2.921c-0.417,1.917,0.678,6.421,4.798,10.743
					c2.799,3.293,5.612,4.916,9.239,6.483c1.513,0.653,1.663,0.595,3.711,1.484c1.846,0.802,2.12,1.021,2.969,1.188
					c2.102,0.41,6.479-0.249,2.438-1.54C34.055,97.223,30.59,95.334,29.969,94.012z"/>
			</g>
		</g>
	</g>
	<g>
		<g>
			<path fill="#54AD4E" d="M61.5,32.794c-0.658-0.294-0.955-1.065-0.66-1.725c2.939-6.595,3.926-13.113,0.359-20.48
				c-0.752-1.556,1.602-2.691,2.352-1.139c1.682,3.473,2.533,7.299,2.533,11.373c0,3.248-0.961,7.054-2.857,11.312
				C62.936,32.787,62.168,33.089,61.5,32.794z M16.69,32.133c-3.24-7.273-4.246-14.583-0.324-22.685
				c0.751-1.554,3.104-0.416,2.351,1.139c-3.523,7.277-2.634,13.766,0.36,20.48c0.293,0.66-0.003,1.431-0.662,1.725
				C17.75,33.089,16.982,32.787,16.69,32.133z"/>
		</g>
	</g>
	<g>
		<g>
			<path fill="#54AD4E" d="M67.487,36.732c-0.66-0.295-0.953-1.068-0.658-1.727c3.943-8.802,5.037-17.693,0.395-27.324
				c-0.75-1.557,1.605-2.69,2.354-1.135c2.186,4.532,3.293,9.512,3.293,14.8c0,4.356-1.23,9.313-3.656,14.728
				C68.917,36.73,68.147,37.028,67.487,36.732z M11.852,36.847c-0.498,0-0.974-0.286-1.192-0.771
				c-4.421-9.81-5.208-19.486-0.366-29.53c0.748-1.554,3.104-0.424,2.354,1.135c-2.013,4.176-3.033,8.772-3.033,13.665
				c0,4.016,1.153,8.609,3.427,13.656c0.297,0.658,0.004,1.432-0.654,1.728C12.213,36.809,12.031,36.847,11.852,36.847z"/>
		</g>
	</g>
	<g>
		<g>
			<path fill="#54AD4E" d="M57.493,19.845c0-22.635-33.967-22.602-33.967,0c0,10.628,16.983,29.664,16.983,29.664
				S57.493,30.456,57.493,19.845z M34.168,20.071c0-3.502,2.839-6.34,6.34-6.34s6.34,2.839,6.34,6.34s-2.839,6.34-6.34,6.34
				S34.168,23.573,34.168,20.071z"/>
		</g>
	</g>
	<g>
		<g>
			<path fill="#222222" d="M68.868,93.266c11.496-12.94,12.479-31.614,3.568-45.444c-0.934-1.451,1.26-2.868,2.197-1.415
				c5.049,7.838,6.988,16.782,6.207,25.421c-0.783,8.663-4.248,16.677-10.02,23.174C69.674,96.292,67.721,94.559,68.868,93.266z
				 M6.529,90.189c-10.262-15.802-8.179-36.323,4.499-49.773c0.495-0.523,1.322-0.549,1.847-0.054s0.549,1.322,0.054,1.847
				c-1.358,1.441-2.612,3.003-3.727,4.642c-0.416,0.652-0.663,0.863-2.008,3.278c-1.983,3.635-3.337,7.559-4.021,11.652
				c-1.585,9.231,0.2,18.75,5.548,26.983c0.393,0.605,0.221,1.414-0.384,1.808C7.731,90.965,6.922,90.792,6.529,90.189z"/>
		</g>
	</g>
	<g>
		<g>
			<path fill="#222222" d="M10.401,94.432c1.65,0,1.651-2.498,0-2.498C8.751,91.934,8.75,94.432,10.401,94.432z"/>
		</g>
	</g>
	<g>
		<g>
			<path fill="#222222" d="M40.509,50.815c-0.372,0-0.728-0.159-0.975-0.438C38.828,49.585,22.22,30.844,22.22,19.844
				c0-24.395,36.58-24.38,36.58,0c0,10.982-16.607,29.739-17.314,30.533C41.237,50.657,40.881,50.815,40.509,50.815z M24.833,19.845
				c0,8.577,12.111,23.468,15.676,27.666c3.566-4.201,15.678-19.102,15.678-27.666C56.186-1.065,24.833-1.05,24.833,19.845z
				 M40.509,27.718c-4.217,0-7.647-3.432-7.647-7.647s3.431-7.647,7.647-7.647s7.646,3.432,7.646,7.647S44.725,27.718,40.509,27.718
				z M40.509,15.037c-2.776,0-5.034,2.258-5.034,5.034s2.258,5.034,5.034,5.034c2.775,0,5.034-2.258,5.034-5.034
				S43.285,15.037,40.509,15.037z"/>
		</g>
	</g>
	<g>
		<g>
			<path fill="#222222" d="M40.508,101.555c-26.147,0-41.404-28.608-29.157-49.604h-0.001c3.522-6.316,8.849-11.077,14.908-13.948
				c0.652-0.311,1.432-0.03,1.74,0.62c0.309,0.652,0.032,1.432-0.62,1.74c-29.178,13.84-19.747,58.578,13.13,58.578
				c18.115,0,31.928-15.584,30.691-32.637c-0.68-11.611-7.805-21.318-17.563-25.939c-1.566-0.741-0.439-3.1,1.117-2.362
				c11.227,5.315,19.127,16.76,19.127,30.179C73.881,86.583,58.911,101.555,40.508,101.555z"/>
		</g>
	</g>
	<g>
		<g>
			<path fill="#222222" d="M70.823,44.38c1.65,0,1.65-2.496,0-2.496S69.17,44.38,70.823,44.38z"/>
		</g>
	</g>
	<g opacity="0.5">
		<path fill="#4087C7" d="M29.498,68.289c-2.663,0-4.828-2.166-4.828-4.828c0-2.663,2.166-4.827,4.828-4.827
			c2.663,0,4.828,2.165,4.828,4.827C34.327,66.123,32.161,68.289,29.498,68.289z M27.107,63.459c0,3.158,4.78,3.159,4.78,0
			C31.889,60.302,27.107,60.301,27.107,63.459z"/>
	</g>
	<g>
		<g>
			<path fill="#222222" d="M54.432,58.034c-2.709,0-4.916-2.205-4.916-4.916c0-2.71,2.205-4.916,4.916-4.916
				s4.916,2.205,4.916,4.916S57.143,58.034,54.432,58.034z M52.129,53.118c0,3.043,4.605,3.044,4.605,0
				C56.735,50.075,52.129,50.074,52.129,53.118z"/>
		</g>
	</g>
</g>
</svg>
