<?xml version="1.0" encoding="utf-8"?>
<!-- Generator: Adobe Illustrator 16.0.0, SVG Export Plug-In . SVG Version: 6.00 Build 0)  -->
<!DOCTYPE svg PUBLIC "-//W3C//DTD SVG 1.1//EN" "http://www.w3.org/Graphics/SVG/1.1/DTD/svg11.dtd">
<svg version="1.1" id="Layer_1" xmlns="http://www.w3.org/2000/svg" xmlns:xlink="http://www.w3.org/1999/xlink" x="0px" y="0px"
	 width="111.98px" height="99.999px" viewBox="0 0 111.98 99.999" enable-background="new 0 0 111.98 99.999" xml:space="preserve">
<g id="analyse">
	<g opacity="0.5">
		<rect x="69.321" y="35.559" fill="#4087C7" width="8.324" height="16.98"/>
	</g>
	<g opacity="0.5">
		<rect x="59.334" y="29.232" fill="#4087C7" width="8.324" height="23.309"/>
	</g>
	<g opacity="0.5">
		<rect x="49.345" y="39.721" fill="#4087C7" width="8.324" height="12.818"/>
	</g>
	<g>
		<g>
			<path fill="#55AC4B" d="M22.822,60.733c2.47,2.486,5.754,3.847,9.257,3.847c1.014,0,2.006-0.127,2.969-0.35v-5.997
				c-4.879,2.138-10.35-1.438-10.35-6.757c0-5.276,5.458-8.909,10.35-6.754v-5.984c-0.963-0.222-1.955-0.349-2.969-0.349
				C20.501,38.39,14.557,52.492,22.822,60.733z"/>
		</g>
		<g>
			<path fill="#55AC4B" d="M35.048,67.434c-5.263,0.969-10.604-0.653-14.431-4.48C9.333,51.67,19.497,32.672,35.048,35.535v-5.793
				c-20.779-2.795-33.3,22.426-18.481,37.246c4.852,4.853,11.584,7.151,18.481,6.223V67.434z"/>
		</g>
		<g opacity="0.5">
			<polygon fill="#4087C7" points="15.685,34.623 7.593,26.532 8.268,20.465 16.359,28.556 			"/>
		</g>
		<g opacity="0.5">
			<polygon fill="#4087C7" points="15.685,34.623 7.593,26.532 1.525,27.207 9.616,35.299 			"/>
		</g>
		<g>
			<path fill="#222221" d="M29.926,50.395L6.666,27.473c-1.242-1.225,0.608-3.108,1.855-1.881l23.26,22.922
				c0.52,0.512,0.525,1.348,0.014,1.868C31.282,50.901,30.447,50.907,29.926,50.395z"/>
		</g>
	</g>
	<g>
		<path fill="#222221" d="M28.589,82.086c-1.819,0-1.822-2.754,0-2.754C30.408,79.332,30.411,82.086,28.589,82.086z"/>
	</g>
	<g>
		<path fill="#222221" d="M96.56,50.521c0,1.819-2.754,1.822-2.754,0C93.806,48.701,96.56,48.698,96.56,50.521z"/>
	</g>
	<g>
		<g opacity="0.5">
			<path fill="#4087C7" d="M93.226,81.268V62.514c-1.201,0-2.377,0.118-3.516,0.334v27.796H76.987
				c9.559,16.517,34.992,9.774,34.992-9.377L93.226,81.268L93.226,81.268z"/>
		</g>
		<g>
			<path fill="#55AC4B" d="M111.979,78.924c-0.035-9.032-7.365-16.346-16.406-16.346v16.346H111.979z"/>
		</g>
		<g opacity="0.5">
			<path fill="#4087C7" d="M48.51,14.48l8.265-8.265c0.52-0.521,1.363-0.521,1.883,0l5.845,5.845L75.411,1.152
				c1.242-1.244,3.129,0.637,1.883,1.883L65.443,14.886c-0.52,0.52-1.362,0.52-1.883,0l-5.845-5.845l-7.323,7.322
				C49.149,17.607,47.264,15.726,48.51,14.48z"/>
		</g>
		<g>
			<path fill="#222221" d="M73.915,97.698H28.656c-0.736,0-1.332-0.596-1.332-1.332V85.614c0-1.76,2.664-1.762,2.664,0v9.42h43.927
				c0.734,0,1.332,0.597,1.332,1.332C75.247,97.103,74.649,97.698,73.915,97.698z"/>
		</g>
		<g>
			<path fill="#222221" d="M94.091,45.215V11.918H82.353c-1.76,0-1.762-2.664,0-2.664h13.07c0.736,0,1.332,0.596,1.332,1.332v34.629
				C96.755,46.975,94.091,46.977,94.091,45.215z"/>
		</g>
		<g>
			<path fill="#222221" d="M89.429,91.705H34.37c-0.735,0-1.332-0.596-1.332-1.332V16.895c0-0.736,0.596-1.332,1.332-1.332h55.059
				c0.736,0,1.332,0.596,1.332,1.332v73.479C90.761,91.108,90.165,91.705,89.429,91.705z M35.702,89.041h52.395V18.227H35.702
				V89.041z"/>
		</g>
		<g opacity="0.5">
			<path fill="#4087C7" d="M76.011,7.903V2.664h-5.24c-1.76,0-1.762-2.664,0-2.664h6.572c0.736,0,1.332,0.596,1.332,1.332v6.571
				C78.675,9.664,76.011,9.666,76.011,7.903z"/>
		</g>
	</g>
	<g>
		<path fill="#222221" d="M79.548,64.539H69.403c-1.759,0-1.761-2.664,0-2.664h10.145c0.736,0,1.332,0.596,1.332,1.332
			C80.88,63.941,80.284,64.539,79.548,64.539z"/>
	</g>
	<g>
		<path fill="#222221" d="M63.883,64.539h-19.32c-1.76,0-1.762-2.664,0-2.664h19.321c0.736,0,1.332,0.596,1.332,1.332
			C65.215,63.941,64.619,64.539,63.883,64.539z"/>
	</g>
	<g>
		<path fill="#222221" d="M80.245,71.438H44.563c-1.76,0-1.762-2.664,0-2.664h35.682c0.734,0,1.332,0.597,1.332,1.332
			C81.575,70.843,80.979,71.438,80.245,71.438z"/>
	</g>
	<g>
		<path fill="#222221" d="M63.883,79.188h-19.32c-1.76,0-1.762-2.664,0-2.664h19.321c0.736,0,1.332,0.597,1.332,1.332
			C65.216,78.593,64.619,79.188,63.883,79.188z"/>
	</g>
	<g>
		<path fill="#222221" d="M80.442,54.877H44.563c-0.736,0-1.332-0.596-1.332-1.332v-24.84c0-1.761,2.664-1.763,2.664,0v23.508
			h34.549c0.736,0,1.332,0.597,1.332,1.332C81.774,54.281,81.179,54.877,80.442,54.877z"/>
	</g>
</g>
</svg>
