<?xml version="1.0" encoding="utf-8"?>
<!-- Generator: Adobe Illustrator 16.0.0, SVG Export Plug-In . SVG Version: 6.00 Build 0)  -->
<!DOCTYPE svg PUBLIC "-//W3C//DTD SVG 1.1//EN" "http://www.w3.org/Graphics/SVG/1.1/DTD/svg11.dtd">
<svg version="1.1" id="Layer_1" xmlns="http://www.w3.org/2000/svg" xmlns:xlink="http://www.w3.org/1999/xlink" x="0px" y="0px"
	 width="91.347px" height="100px" viewBox="0 0 91.347 100" enable-background="new 0 0 91.347 100" xml:space="preserve">
<g id="codetime">
	<g opacity="0.5">
		<rect x="77.974" y="24.978" fill="#4087C7" width="6.566" height="46.542"/>
	</g>
	<g opacity="0.5">
		<rect x="6.308" y="24.978" fill="#4087C7" width="6.567" height="46.542"/>
	</g>
	<g>
		<path fill="#222222" d="M85.701,98.74c0,1.68,2.541,1.68,2.541,0C88.242,97.062,85.701,97.062,85.701,98.74z"/>
	</g>
	<g>
		<path fill="#55AC4B" d="M33.29,27.937l6.834,2.41v3.357l-10.322-4.377v-2.829l10.322-4.375v3.356L33.29,27.937z"/>
		<path fill="#55AC4B" d="M44.068,36.844H41.49l6.426-18.954h2.578L44.068,36.844z"/>
		<path fill="#55AC4B" d="M59.221,27.9l-6.966-2.434v-3.333l10.442,4.376v2.816l-10.442,4.389V30.37L59.221,27.9z"/>
	</g>
	<g opacity="0.5">
		<path fill="#4087C7" d="M42.333,84.516c0,2.455,1.476,4.472,3.286,4.472c1.811,0,3.285-2.017,3.285-4.472v-3.882h-6.57
			L42.333,84.516L42.333,84.516z"/>
	</g>
	<g>
		<path fill="#222222" d="M67.884,99.588h-44.42c-0.692,0-1.254-0.562-1.254-1.254v-5.553c0-0.691,0.561-1.254,1.254-1.254h44.42
			c0.691,0,1.254,0.562,1.254,1.254v5.553C69.138,99.026,68.576,99.588,67.884,99.588z M24.718,97.081h41.913v-3.046H24.718V97.081z
			"/>
	</g>
	<g>
		<path fill="#222222" d="M45.618,89.871c-2.497,0-4.529-2.563-4.529-5.713v-3.869c0-1.656,2.507-1.659,2.507,0v3.869
			c0,1.707,0.945,3.205,2.022,3.205s2.022-1.497,2.022-3.205v-3.869c0-1.656,2.508-1.659,2.508,0v3.869
			C50.148,87.308,48.116,89.871,45.618,89.871z"/>
	</g>
	<g>
		<path fill="#222222" d="M31.096,93.656c-1.941-1.299,1.748-2.667,1.748-8.661v-4.706c0-1.656,2.507-1.659,2.507,0
			c0,4.95,0.435,8.611-2.516,13.022C32.449,93.89,31.668,94.041,31.096,93.656z"/>
	</g>
	<g>
		<path fill="#222222" d="M58.402,93.312c-2.916-4.355-2.516-7.945-2.516-13.022c0-1.656,2.506-1.659,2.506,0
			c0,4.71-0.416,7.878,2.094,11.63C61.408,93.295,59.322,94.689,58.402,93.312z"/>
	</g>
	<g>
		<path fill="#222222" d="M88.31,81.102H2.84C1.274,81.102,0,79.88,0,78.379v-58.14c0-1.501,1.274-2.723,2.84-2.723h8.849
			c1.656,0,1.659,2.507,0,2.507H2.84c-0.206,0-0.333,0.125-0.333,0.215c0,62.149-0.184,58.355,0.333,58.355
			c90.976,0,86,0.221,86-0.399c0-61.951,0.186-58.171-0.334-58.171h-8.713c-1.656,0-1.658-2.507,0-2.507h8.713
			c1.566,0,2.842,1.222,2.842,2.723v57.956C91.347,79.798,89.984,81.102,88.31,81.102z"/>
	</g>
	<g>
		<path fill="#222222" d="M84.541,72.747H6.806c-0.678,0-1.227-0.55-1.227-1.228V25.045c0-0.679,0.549-1.228,1.227-1.228h5.05
			c1.621,0,1.624,2.454,0,2.454H8.033v44.021h75.281V25.854h-3.521c-1.621,0-1.623-2.454,0-2.454h4.748
			c0.68,0,1.229,0.55,1.229,1.228V71.52C85.769,72.197,85.22,72.747,84.541,72.747z"/>
	</g>
	<g>
		<path fill="#222222" d="M84.541,77.071c-1.834,0-1.836-2.775,0-2.775C86.375,74.296,86.376,77.071,84.541,77.071z"/>
	</g>
	<g>
		<path fill="#222222" d="M78.988,77.071c-1.834,0-1.836-2.775,0-2.775S80.824,77.071,78.988,77.071z"/>
	</g>
	<g>
		<path fill="#222222" d="M73.437,77.071c-1.834,0-1.836-2.775,0-2.775C75.271,74.296,75.273,77.071,73.437,77.071z"/>
	</g>
	<g>
		<path fill="#222222" d="M81.562,99.588H6.806c-1.656,0-1.659-2.507,0-2.507H81.56c0.691,0,1.254,0.561,1.254,1.254
			C82.814,99.026,82.253,99.588,81.562,99.588z"/>
	</g>
	<g>
		<path fill="#222222" d="M77.07,70.749V12.282H14.413v58.143c0,1.661-2.515,1.663-2.515,0V11.025c0-0.693,0.563-1.257,1.257-1.257
			h65.171c0.693,0,1.256,0.563,1.256,1.257v59.724C79.583,72.409,77.07,72.412,77.07,70.749z"/>
	</g>
	<g>
		<path fill="#55AC4B" d="M78.642,5.314c0-2.168-1.775-3.926-3.965-3.926H17.054c-2.189,0-3.964,1.758-3.964,3.926v5.658h65.552
			V5.314L78.642,5.314z"/>
	</g>
	<g>
		<path fill="#222222" d="M78.519,12.063H13.211c-0.692,0-1.254-0.561-1.254-1.254V5.361C11.957,2.404,14.363,0,17.319,0H74.41
			c2.957,0,5.363,2.404,5.363,5.361v5.447C79.773,11.502,79.21,12.063,78.519,12.063z M14.465,9.556h62.802V5.361
			c0-1.573-1.281-2.854-2.855-2.854H17.319c-1.574,0-2.855,1.281-2.855,2.854L14.465,9.556L14.465,9.556z"/>
	</g>
	<g>
		<path fill="#222222" d="M19.091,6.181c0,1.776,2.714,1.776,2.714,0C21.804,4.404,19.091,4.404,19.091,6.181z"/>
	</g>
	<g>
		<path fill="#222222" d="M23.915,6.181c0,1.776,2.714,1.776,2.714,0S23.915,4.404,23.915,6.181z"/>
	</g>
	<g>
		<path fill="#222222" d="M28.739,6.181c0,1.776,2.714,1.776,2.714,0S28.739,4.404,28.739,6.181z"/>
	</g>
	<g>
		<path fill="#222222" d="M48.848,44.589H27.834c-1.656,0-1.659-2.507,0-2.507h21.014C50.503,42.082,50.506,44.589,48.848,44.589z"
			/>
	</g>
	<g>
		<path fill="#222222" d="M41.24,58.496h-7.062c-1.656,0-1.659-2.508,0-2.508h7.062C42.896,55.988,42.9,58.496,41.24,58.496z"/>
	</g>
	<g>
		<path fill="#222222" d="M22.071,58.645h-1.969c-1.656,0-1.659-2.507,0-2.507h1.969C23.727,56.138,23.73,58.645,22.071,58.645z"/>
	</g>
	<g>
		<path fill="#222222" d="M46.505,64.782H28.001c-1.656,0-1.659-2.507,0-2.507h18.504C48.161,62.274,48.164,64.782,46.505,64.782z"
			/>
	</g>
	<g>
		<path fill="#222222" d="M22.071,64.932h-1.969c-1.656,0-1.659-2.507,0-2.507h1.969C23.727,62.425,23.73,64.932,22.071,64.932z"/>
	</g>
	<g>
		<path fill="#222222" d="M22.071,51.454h-1.969c-1.656,0-1.659-2.508,0-2.508h1.969C23.727,48.946,23.73,51.454,22.071,51.454z"/>
	</g>
	<g>
		<path fill="#222222" d="M22.071,44.748h-1.969c-1.656,0-1.659-2.508,0-2.508h1.969C23.727,42.24,23.73,44.748,22.071,44.748z"/>
	</g>
	<g>
		<path fill="#222222" d="M41.24,51.499H27.792c-1.656,0-1.659-2.508,0-2.508H41.24C42.896,48.991,42.9,51.499,41.24,51.499z"/>
	</g>
	<g>
		<g id="gear-5-icon_2_">
			<path fill="#222222" d="M60.561,70.424l0.02-1.13c-0.326-0.274-0.639-0.565-0.934-0.875c-4.166,0.35-3.271,0.983-5.405-3.726
				c-0.47-1.038,0.388-1.536,2.22-3.303c-0.037-0.425-0.05-0.853-0.041-1.279c-3.191-2.698-3.012-1.607-1.188-6.456
				c0.402-1.07,1.445-0.81,3.904-0.766c0.275-0.329,0.568-0.642,0.875-0.936c-0.35-4.146-0.994-3.266,3.723-5.403
				c1.023-0.463,1.461,0.31,3.303,2.219c0.424-0.037,0.851-0.051,1.279-0.042c2.742-3.243,1.66-2.994,6.457-1.188
				c1.045,0.395,0.813,1.233,0.764,3.905c0.328,0.274,0.641,0.567,0.936,0.875l0.795-0.067c1.654-0.139,1.869,2.364,0.211,2.506
				c-1.301,0.109-1.941,0.311-2.479-0.317c-2.189-2.57-2.025-0.448-1.943-4.859l-1.645-0.619c-1.604,1.896-1.811,2.369-2.635,2.307
				c-3.371-0.267-1.748,1.114-4.812-2.062l-1.602,0.725c0.209,2.461,0.398,2.96-0.234,3.496c-2.547,2.164-0.447,2.022-4.857,1.943
				l-0.619,1.645c1.877,1.586,2.373,1.806,2.307,2.636c-0.268,3.364,1.107,1.753-2.063,4.812l0.727,1.601
				c2.447-0.205,2.949-0.398,3.49,0.231c2.113,2.468,2.023,0.658,1.959,4.172C63.045,72.124,60.531,72.09,60.561,70.424z
				 M65.924,66.049c-5.02-1.891-5.293-8.974-0.367-11.205c4.939-2.241,10.064,2.653,8.181,7.662
				c-0.572,1.517-1.699,2.721-3.174,3.389l0,0C69.107,66.557,67.461,66.627,65.924,66.049z M66.596,57.134
				c-2.883,1.305-2.727,5.455,0.215,6.561c0.887,0.334,1.851,0.304,2.714-0.09c0,0,0,0,0.002-0.001
				c2.893-1.309,2.717-5.456-0.217-6.56C68.421,56.712,67.461,56.741,66.596,57.134z"/>
		</g>
		<g>
			<path fill="#222222" d="M50.182,56.891c-1.674,0.101-1.83-2.43-0.154-2.532C51.7,54.258,51.855,56.79,50.182,56.891z"/>
		</g>
		<g>
			<path fill="#222222" d="M50.952,50.599c3.874-6.976,11.28-10.702,18.807-10.134c1.65,0.124,1.479,2.623-0.188,2.507
				c-6.751-0.503-13.117,2.9-16.421,8.847C52.341,53.276,50.146,52.049,50.952,50.599z"/>
		</g>
	</g>
</g>
</svg>
