<?xml version="1.0" encoding="utf-8"?>
<!-- Generator: Adobe Illustrator 16.0.0, SVG Export Plug-In . SVG Version: 6.00 Build 0)  -->
<!DOCTYPE svg PUBLIC "-//W3C//DTD SVG 1.1//EN" "http://www.w3.org/Graphics/SVG/1.1/DTD/svg11.dtd">
<svg version="1.1" id="Layer_1" xmlns="http://www.w3.org/2000/svg" xmlns:xlink="http://www.w3.org/1999/xlink" x="0px" y="0px"
	 width="62.897px" height="75.245px" viewBox="0 0 62.897 75.245" enable-background="new 0 0 62.897 75.245" xml:space="preserve">
<g id="price-team">
	<g>
		<path fill="#EFEEEE" d="M34.31,47.935h-6.209c-0.601,0-1.088-0.487-1.088-1.088v-33.72c0-0.601,0.487-1.088,1.088-1.088h6.209
			c0.602,0,1.088,0.487,1.088,1.088v33.72C35.397,47.447,34.911,47.935,34.31,47.935z M29.188,45.759h4.033V14.216h-4.033V45.759z"
			/>
	</g>
	<g>
		<path fill="#EFEEEE" d="M31.986,14.215l-0.309-0.002c-0.307-0.004-0.597-0.14-0.8-0.37c-0.202-0.231-0.297-0.536-0.264-0.841
			c0.105-0.916,1.094-9.004,3.519-11.295C35.299,0.606,36.797,0,38.352,0c1.867,0,3.633,0.869,4.846,2.385
			c2.262,2.824,1.98,7.123-0.625,9.582C40.428,13.996,34.455,14.215,31.986,14.215z M38.352,2.176c-0.996,0-1.963,0.396-2.724,1.113
			c-1.229,1.162-2.225,5.555-2.69,8.738c3.407-0.081,7.038-0.598,8.143-1.643c1.801-1.701,1.988-4.68,0.42-6.641
			C40.704,2.748,39.555,2.176,38.352,2.176z"/>
	</g>
	<g>
		<path fill="#EFEEEE" d="M30.424,14.215c-2.468,0-8.44-0.219-10.589-2.248c-2.605-2.459-2.885-6.758-0.624-9.582
			C20.425,0.869,22.19,0,24.057,0c1.554,0,3.052,0.606,4.219,1.709c2.426,2.289,3.414,10.379,3.519,11.293
			c0.035,0.306-0.062,0.61-0.264,0.842c-0.201,0.23-0.492,0.364-0.8,0.371H30.424z M24.059,2.176c-1.202,0-2.349,0.572-3.147,1.568
			c-1.57,1.961-1.383,4.94,0.419,6.641c1.105,1.045,4.735,1.562,8.143,1.643c-0.467-3.186-1.462-7.579-2.689-8.738
			C26.022,2.57,25.055,2.176,24.059,2.176z"/>
	</g>
	<g>
		<path fill="#EFEEEE" d="M13.148,57.4c-0.277,0-0.556-0.105-0.769-0.318c-0.425-0.425-0.426-1.112-0.001-1.539
			c2.413-2.416,5.775-3.829,9.47-3.978c0.627-0.016,1.107,0.444,1.13,1.044c0.024,0.6-0.442,1.107-1.043,1.131
			c-3.145,0.126-5.992,1.313-8.017,3.342C13.706,57.293,13.428,57.4,13.148,57.4z"/>
	</g>
	<g>
		<path fill="#EFEEEE" d="M18.159,69.164c-0.378,0-0.743-0.195-0.944-0.545c-0.3-0.521-0.121-1.186,0.399-1.485
			c1.074-0.618,2.495-1.3,3.993-1.118h10.122c1.134,0,2.25-0.323,3.235-0.938c4.889-4.726,10.01-7.837,15.221-9.244
			c0.07-0.019,0.129-0.035,0.178-0.049c0.512-0.264,0.775-0.779,0.729-1.021c-0.121-0.642-0.256-0.927-1.059-1.022
			c-0.15-0.022-0.295-0.031-0.492-0.031c-4.654,0-12.521,4.037-15.106,5.363c-0.535,0.274-1.189,0.063-1.465-0.473
			s-0.063-1.189,0.471-1.464c2.701-1.386,10.92-5.603,16.1-5.603c0.313,0,0.563,0.017,0.789,0.053
			c2.434,0.291,2.783,2.15,2.896,2.762c0.264,1.308-0.602,2.795-2.016,3.443c-0.045,0.021-0.09,0.039-0.139,0.053
			c-0.076,0.022-0.184,0.052-0.32,0.089c-4.877,1.317-9.707,4.272-14.354,8.782c-0.051,0.051-0.106,0.095-0.168,0.135
			c-1.357,0.876-2.915,1.34-4.502,1.34H21.537c-0.052,0-0.102-0.004-0.152-0.011c-0.875-0.124-1.894,0.383-2.685,0.839
			C18.529,69.117,18.343,69.164,18.159,69.164z"/>
	</g>
	<g>
		<path fill="#EFEEEE" d="M60.133,53.715H3.166c-1.524,0-2.765-1.24-2.765-2.765V47.81c0-0.601,0.487-1.088,1.088-1.088h60.32
			c0.602,0,1.088,0.487,1.088,1.088v3.141C62.897,52.475,61.657,53.715,60.133,53.715z M2.578,48.897v2.053
			c0,0.324,0.264,0.589,0.588,0.589h56.965c0.324,0,0.588-0.265,0.588-0.589v-2.053H2.578z"/>
	</g>
	<g>
		<path fill="#EFEEEE" d="M53.825,48.897H8.586c-0.602,0-1.088-0.487-1.088-1.088V24.688c0-0.602,0.486-1.088,1.088-1.088h45.239
			c0.602,0,1.088,0.486,1.088,1.088V47.81C54.913,48.41,54.426,48.897,53.825,48.897z M9.674,46.722h43.063V25.775H9.674V46.722z"/>
	</g>
	<g>
		<path fill="#EFEEEE" d="M55.6,25.775H6.813c-0.601,0-1.088-0.486-1.088-1.088V13.127c0-0.602,0.487-1.088,1.088-1.088H55.6
			c0.602,0,1.088,0.486,1.088,1.088v11.561C56.688,25.289,56.2,25.775,55.6,25.775z M7.9,23.6h46.612v-9.385H7.9V23.6z"/>
	</g>
	<g>
		<path fill="#EFEEEE" d="M12.796,75c-0.398,0-0.781-0.22-0.974-0.599c-0.27-0.537-0.055-1.19,0.482-1.461l5.255-2.649l-5.911-13.83
			l-2.109,1.063c-0.537,0.271-1.192,0.056-1.461-0.481c-0.271-0.537-0.056-1.191,0.481-1.462l3.145-1.585
			c0.268-0.135,0.581-0.152,0.862-0.051c0.282,0.104,0.51,0.318,0.627,0.594l6.769,15.835c0.226,0.528,0.002,1.142-0.511,1.399
			l-6.167,3.109C13.127,74.963,12.961,75,12.796,75z"/>
	</g>
	<g>
		<path fill="#EFEEEE" d="M15.544,68.832c0.173,0.802-0.285,1.603-1.022,1.791c-0.736,0.188-1.475-0.31-1.647-1.11
			c-0.173-0.802,0.285-1.603,1.021-1.79C14.634,67.535,15.371,68.031,15.544,68.832z"/>
		<path fill="#EFEEEE" d="M14.208,70.934c-0.769,0-1.427-0.561-1.601-1.365c-0.203-0.941,0.346-1.887,1.222-2.111
			c0.125-0.031,0.253-0.047,0.381-0.047c0.769,0,1.426,0.561,1.6,1.364c0.203,0.941-0.345,1.888-1.221,2.111
			C14.464,70.918,14.335,70.934,14.208,70.934z M14.21,67.955c-0.082,0-0.166,0.01-0.247,0.03c-0.596,0.152-0.965,0.812-0.823,1.47
			c0.139,0.64,0.732,1.051,1.315,0.903c0.596-0.151,0.965-0.812,0.822-1.469C15.159,68.34,14.72,67.955,14.21,67.955z"/>
	</g>
	<g>
		<path fill="#EFEEEE" d="M1.088,24.688C0.486,24.688,0,24.2,0,23.6V12.039c0-2.726,2.08-4.942,4.637-4.942
			c0.601,0,1.088,0.487,1.088,1.088S5.237,9.272,4.637,9.272c-1.357,0-2.461,1.241-2.461,2.767V23.6
			C2.176,24.201,1.688,24.688,1.088,24.688z"/>
	</g>
	<g>
		<ellipse fill="#EFEEEE" cx="7.539" cy="8.186" rx="0.887" ry="0.963"/>
		<path fill="#EFEEEE" d="M7.539,9.42c-0.64,0-1.159-0.553-1.159-1.234s0.52-1.234,1.159-1.234c0.639,0,1.158,0.553,1.158,1.234
			S8.178,9.42,7.539,9.42z M7.539,7.494c-0.339,0-0.615,0.31-0.615,0.69s0.276,0.69,0.615,0.69s0.614-0.31,0.614-0.69
			C8.153,7.805,7.878,7.494,7.539,7.494z"/>
	</g>
	<g>
		<ellipse fill="#EFEEEE" cx="30.224" cy="72.045" rx="0.887" ry="0.963"/>
		<path fill="#EFEEEE" d="M30.224,73.28c-0.639,0-1.159-0.554-1.159-1.235c0-0.681,0.521-1.234,1.159-1.234s1.159,0.554,1.159,1.234
			C31.383,72.727,30.862,73.28,30.224,73.28z M30.224,71.354c-0.339,0-0.615,0.311-0.615,0.691s0.276,0.69,0.615,0.69
			s0.615-0.31,0.615-0.69S30.563,71.354,30.224,71.354z"/>
	</g>
	<g>
		<path fill="#EFEEEE" d="M32.815,73.134c-0.601,0-1.088-0.487-1.088-1.089c0-0.601,0.487-1.088,1.088-1.088
			c1.803,0,3.578-0.53,5.136-1.535c0.137-0.088,0.266-0.19,0.383-0.306c2.1-2.038,4.297-3.782,6.531-5.185
			c0.51-0.319,1.18-0.166,1.5,0.343s0.166,1.181-0.344,1.5c-2.104,1.322-4.182,2.972-6.172,4.901
			c-0.219,0.215-0.461,0.408-0.719,0.574C37.219,72.482,35.037,73.134,32.815,73.134z"/>
	</g>
	<g>
		<path fill="#EFEEEE" d="M32.76,59.49h-6.67c-0.602,0-1.088-0.486-1.088-1.088c0-0.601,0.486-1.088,1.088-1.088h6.671
			c0.866,0,1.571-0.807,1.571-1.8s-0.705-1.8-1.571-1.8H21.079c-0.602,0-1.088-0.487-1.088-1.088c0-0.602,0.486-1.089,1.088-1.089
			H32.76c2.066,0,3.747,1.784,3.747,3.976C36.507,57.707,34.826,59.49,32.76,59.49z"/>
	</g>
</g>
</svg>
