<?xml version="1.0" encoding="utf-8"?>
<!-- Generator: Adobe Illustrator 16.0.0, SVG Export Plug-In . SVG Version: 6.00 Build 0)  -->
<!DOCTYPE svg PUBLIC "-//W3C//DTD SVG 1.1//EN" "http://www.w3.org/Graphics/SVG/1.1/DTD/svg11.dtd">
<svg version="1.1" id="Layer_1" xmlns="http://www.w3.org/2000/svg" xmlns:xlink="http://www.w3.org/1999/xlink" x="0px" y="0px"
	 width="91.482px" height="99.999px" viewBox="0 0 91.482 99.999" enable-background="new 0 0 91.482 99.999" xml:space="preserve">
<g id="experience">
	<g opacity="0.5">
		<g>
			<path fill="#4087C7" d="M46.775,16.973c0.01-0.025,0.021-0.049,0.031-0.074c-0.209,0.052-0.418,0.103-0.625,0.157
				c0.197-0.016,0.398-0.025,0.596-0.038L46.775,16.973z"/>
		</g>
		<g>
			<path fill="#4087C7" d="M89.817,62.368c-2.572-3.966-6.484-10.681-6.484-14.833c0-2.138,1.074-11.11-5.654-20.088l-1.881,0.503
				c-0.402,1.072-0.93,2.106-1.572,3.076l1.764,4.65l-0.088,0.075c4.943,13.48-3.201,10.08,8.166,27.607
				c0.902,1.392,0.113,2.708-1.76,3.225l-4.725,0.988v12.967c0,1.716-0.842,3.231-2.129,4.171h2.717
				c2.852,0,5.162-2.312,5.162-5.162V66.581l4.725-0.989C89.931,65.076,90.72,63.759,89.817,62.368z"/>
		</g>
	</g>
	<g>
		<path fill="#54AD4E" d="M45.671,35.569c8.554-15.666-5.522-34.17-22.919-29.958C10.441,8.593,3.961,21.812,8.315,32.87
			c4.265,11.534,17.986,16.964,29.202,10.843c4.164,2.286,9.082,2.309,13.197,0.106C47.689,42.292,45.658,39.204,45.671,35.569z"/>
	</g>
	<g>
		<path fill="#FFFFFF" d="M38.417,35.467c0.368,1.939-1.301,3.608-3.24,3.241c-1.077-0.204-1.96-1.086-2.163-2.163
			c-0.367-1.939,1.301-3.608,3.24-3.241C37.331,33.509,38.212,34.39,38.417,35.467z"/>
	</g>
	<g>
		<path fill="#FFFFFF" d="M21.342,15.533c0.368,1.94-1.301,3.609-3.24,3.241c-1.077-0.204-1.959-1.086-2.163-2.163
			c-0.367-1.938,1.301-3.607,3.241-3.24C20.257,13.574,21.139,14.457,21.342,15.533z"/>
	</g>
	<g>
		<path fill="#222222" d="M10.721,4.918c0,1.696,2.567,1.695,2.567,0C13.288,3.221,10.721,3.221,10.721,4.918z"/>
	</g>
	<g>
		<path fill="#222222" d="M81.009,22.665c0,1.696,2.566,1.695,2.566,0C83.575,20.968,81.009,20.968,81.009,22.665z"/>
	</g>
	<g>
		<path fill="#222222" d="M52.216,66.96V55.348c-7.574,0-6.73,0.883-5.035-6.701c0.365-1.633,2.848-1.089,2.48,0.555l-0.807,3.605
			h4.632c0.701,0,1.27,0.569,1.27,1.271v8.487l7.824-12.398c-5.195,0-5.59,0.209-6.064-0.663c-0.49-0.902-0.246-0.839,4.814-8.682
			c0.908-1.409,3.047-0.033,2.135,1.38l-3.502,5.423c5.078,0,5.555-0.214,6.035,0.656c0.512,0.93,0.834-0.091-11.436,19.356
			C53.884,68.711,52.216,68.229,52.216,66.96z"/>
	</g>
	<g>
		<path fill="#222222" d="M62.001,87.36c-10.101,0-11.914-4.108-12.087-4.577c-0.58-1.569,1.766-2.477,2.395-0.932
			c0.066,0.13,1.601,2.939,9.693,2.939C63.698,84.791,63.702,87.36,62.001,87.36z"/>
	</g>
	<g>
		<path fill="#222222" d="M59.208,98.57l1.518-12.648c0.078-0.646,0.625-1.132,1.275-1.132h15.357c2.332,0,4.229-1.897,4.229-4.229
			V66.712c0-0.608,0.426-1.133,1.021-1.258c4.375-0.916,7.047-1.106,6.113-2.544c-8.361-12.893-7.064-16.448-7.064-19.636
			c0-5.354-1.455-10.594-4.207-15.151c-0.879-1.453,1.32-2.784,2.199-1.328c5.336,8.838,4.508,16.718,4.508,19.572
			c0,3.085,2.387,8.464,6.719,15.145c0.627,0.968,0.773,2.027,0.41,2.983c-0.914,2.404-3.781,2.559-7.129,3.26v12.806
			c0,3.749-3.049,6.799-6.799,6.799H63.142l-1.385,11.518C61.556,100.563,59.005,100.26,59.208,98.57z M87.917,65.654h0.006H87.917z
			"/>
	</g>
	<g>
		<path fill="#222222" d="M26.186,98.557l4.214-32.044c-3.941-3.764-7.377-9.444-9.259-15.343c-0.517-1.617,1.931-2.402,2.447-0.782
			c1.83,5.733,5.207,11.222,9.034,14.682c0.715,0.646,0.732-1.307-3.888,33.822C28.512,100.574,25.964,100.241,26.186,98.557z"/>
	</g>
	<g>
		<path fill="#222222" d="M14.049,49.676C-1.216,41.035-4.883,20.338,7.23,7.037c1.13-1.242,3.012,0.468,1.879,1.711
			c-10.896,11.965-7.803,30.795,6.192,38.717C16.764,48.292,15.512,50.506,14.049,49.676z"/>
	</g>
	<g>
		<path fill="#222222" d="M8.927,14.248c3.045-4.99,7.848-8.495,13.526-9.87c18.329-4.44,33.228,14.913,24.494,31.503
			c0.094,3.006,1.832,5.538,4.34,6.805c0.918,0.462,0.934,1.771,0.027,2.255c-4.189,2.241-9.292,2.427-13.794,0.207
			C17.927,55.071-2.472,32.929,8.927,14.248z M11.096,15.57c-8.929,14.635,4.313,32.911,21.058,28.866
			c4.386-1.062,4.798-2.486,5.975-1.838c2.975,1.632,6.503,2.077,9.932,0.969c-3.726-3.161-3.917-7.851-3.503-8.606
			c2.322-4.255,2.976-9.182,1.841-13.871C42.333,4.311,19.999,0.979,11.096,15.57z"/>
	</g>
	<g id="gear-5-icon_1_">
		<path fill="#222222" d="M61.981,38.655c-5.771-0.466-4.688,0.288-5.91-4.279c-0.479-0.21-0.947-0.449-1.4-0.717l-2.923,1.111
			c-1.57,0.598-2.471-1.78-0.902-2.375c5.777-2.196,3.072-1.527,6.738-0.147c0.791,0.298,0.762,0.796,1.52,3.626l2.189,0.176
			c2.08-4.629,0.84-2.486,4.295-4.051c0.773-0.348,1.098,0.021,3.639,1.489l1.672-1.423c-1.797-4.736-1.162-2.356,0.172-5.902
			c0.295-0.783,0.77-0.756,3.627-1.52l0.176-2.189c-2.68-1.204-3.172-1.256-3.338-2.083c-0.746-3.722-1.752-1.472,0.777-5.852
			l-1.424-1.674c-2.744,1.045-3.125,1.356-3.828,0.891c-3.162-2.095-2.287,0.195-3.592-4.688l-2.189-0.176
			c-1.203,2.678-1.254,3.171-2.078,3.338c-3.713,0.754-1.484,1.749-5.854-0.775l-1.673,1.423c1.804,4.744,1.145,2.413-0.172,5.902
			c-0.592,1.571-2.971,0.675-2.377-0.897c0.264-0.7,0.588-1.377,0.965-2.016c-1.686-4.433-2.074-3.212,2.291-6.927
			c0.878-0.747,1.554-0.078,4.167,1.432c0.488-0.189,0.988-0.352,1.496-0.481c1.945-4.33,0.807-3.742,6.521-3.281
			c1.148,0.092,1.154,1.047,1.932,3.962c0.48,0.21,0.949,0.449,1.4,0.716c4.43-1.687,3.205-2.086,6.93,2.291
			c0.748,0.876,0.08,1.551-1.432,4.168c0.189,0.488,0.352,0.989,0.48,1.498c4.418,1.984,3.738,0.828,3.281,6.521
			c-0.092,1.149-1.043,1.152-3.961,1.934c-0.209,0.481-0.449,0.949-0.715,1.401c1.682,4.433,2.084,3.206-2.293,6.93
			c-0.873,0.745-1.512,0.101-4.166-1.433c-0.488,0.19-0.988,0.352-1.496,0.481C63.304,37.774,63.13,38.76,61.981,38.655z
			 M60.747,29.145c-5.873-0.474-8.388-7.891-3.805-11.788c4.572-3.891,11.498-0.244,11.025,5.645
			C67.669,26.703,64.429,29.442,60.747,29.145z M58.116,25.159c1.49,1.753,4.113,1.965,5.865,0.474c0-0.001,0.002-0.001,0.002-0.001
			c2.805-2.386,1.334-7.021-2.365-7.319C57.966,18.016,55.7,22.317,58.116,25.159z"/>
	</g>
	<g>
		<path fill="#222222" d="M31.99,34.013l-5.215-5.214c-9.075,0-9.302,0.229-9.906-0.377L8.398,19.95
			c-1.201-1.198,0.616-3.021,1.816-1.816l8.096,8.094c9.075,0,9.302-0.229,9.905,0.377l5.592,5.591
			C35.013,33.4,33.187,35.213,31.99,34.013z"/>
	</g>
	<g>
		<path fill="#222222" d="M35.249,40.5c-2.488,0-4.514-2.025-4.514-4.515c0-2.488,2.025-4.515,4.514-4.515
			c2.489,0,4.516,2.026,4.516,4.515C39.765,38.475,37.738,40.5,35.249,40.5z M33.305,35.985c0,2.57,3.889,2.57,3.889,0
			C37.194,33.416,33.305,33.414,33.305,35.985z"/>
	</g>
	<g>
		<path fill="#222222" d="M18.721,20.588c-2.489,0-4.516-2.025-4.516-4.515c0-2.488,2.025-4.515,4.516-4.515
			c2.489,0,4.515,2.026,4.515,4.515C23.234,18.563,21.209,20.588,18.721,20.588z M16.775,16.072c0,2.569,3.89,2.57,3.89,0
			C20.665,13.503,16.775,13.502,16.775,16.072z"/>
	</g>
	<g>
		<path fill="#222222" d="M44.866,35.114L32.219,22.467h-8.998c-0.694,0-0.725-0.192-3.45-2.918
			c-1.201-1.199,0.616-3.021,1.816-1.817l2.165,2.165c9.075,0,9.303-0.229,9.906,0.377l13.025,13.024
			C47.882,34.497,46.068,36.318,44.866,35.114z"/>
	</g>
	<g>
		<path fill="#222222" d="M30.359,15.19l6.459-6.459c1.199-1.202,3.02,0.615,1.817,1.817l-6.459,6.459
			C30.978,18.209,29.157,16.392,30.359,15.19z"/>
	</g>
	<g>
		<path fill="#222222" d="M36.184,16.991l4.977-4.977c1.2-1.201,3.021,0.614,1.817,1.817L38,18.808
			C36.8,20.009,34.981,18.193,36.184,16.991z"/>
	</g>
	<g>
		<path fill="#222222" d="M9.605,35.944l4.023-4.023c1.199-1.202,3.021,0.615,1.817,1.816l-4.024,4.024
			C10.224,38.964,8.402,37.146,9.605,35.944z"/>
	</g>
	<g>
		<path fill="#222222" d="M18.87,42.881l6.354-6.354c1.198-1.202,3.02,0.615,1.816,1.817l-6.353,6.353
			C19.488,45.899,17.667,44.083,18.87,42.881z"/>
	</g>
	<g>
		<path fill="#222222" d="M13.417,39.757l7.836-7.836c1.199-1.202,3.021,0.614,1.817,1.816l-7.836,7.836
			C14.035,42.775,12.214,40.959,13.417,39.757z"/>
	</g>
	<g>
		<path fill="#222222" d="M80.421,18.263C77.628,4.643,61.733-1.938,50.119,5.908c-1.395,0.94-2.813-1.167-1.424-2.105
			c13.117-8.86,31.062-1.432,34.216,13.95C83.247,19.397,80.759,19.908,80.421,18.263z"/>
	</g>
</g>
</svg>
