<svg xmlns="http://www.w3.org/2000/svg" width="81.008" height="101.555"><g opacity=".5"><path fill="#4087C7" d="M72.426 63.455c-1.117-6.542-4.227-12.508-8.973-17.221a1.903 1.903 0 0 0-.488.285c-.795.677-2.518 1.484-2.518 1.484-2.121 1.079-.234-2.475-1.936-2.648-1.293-.131-5.201-.131-7.137 1.2-1.924 1.33-3.303 3.218-3.04 3.526.249.297.558.38.558.986 0 .451.31 1.247-.035 1.841-.272.181-.803.596-1.117.701l.013.012c-.606.297-1.317.416-1.96-.237-.119-.132-.059-.416-.083-.665v-.013c-.095-.808-.19-1.876-.261-2.196-.084-.429-.559-1.545-.986-1.33-.428.214-2.02 2.138-2.613 2.315-.605.166-1.377.048-1.412.559-.047.511.725 1.924 1.543 1.805.808-.131 1.889-.903 2.269-.736.392.179.772 1.295.688 1.854-.082.558.179.985-.985 1.247-1.164.249-1.972-.559-2.411 0-.428.558-1.247 1.924-1.116 2.398.106.368 1.177.629 1.817.796 1.271-.095 2.554-.32 3.171-.748.985-.688 2.708-1.329 3.171-1.329.178 0 1.033.06 2.02.083.617.713 1.33 1.259 2.279 1.412.879.154 1.438.071 1.781-.07a.747.747 0 0 1 .975.309c.381.721 1.066 1.406 1.377.748 0 0-.486-.986.154-.986.652 0 1.508.429 1.508.559 0 .131.605.771 1.379 1.081.771.297.557 1.151.557 1.151s-4.43.559-6.188.215c-1.758-.345-2.316-.855-3.302-1.89-.985-1.033-.653-2.054-2.66-1.496-2.019.559-2.149.986-3.444 1.235-1.283.261-1.211.404-2.328.736-.023.012-.047.012-.07.023-.879.273-2.102.499-2.447 1.176-.428.855-.297.986-.855 1.889-.557.902-1.899 1.639-1.936 2.065-.047.429-.297 4.204 0 6.009.297 1.806 1.152 1.937 2.055 3.089.903 1.164 1.295 1.377 2.446 1.329 1.164-.036 2.114-.511 3.741-.641 1.627-.131 2.743-.428 3.35.476.605.902.166 2.055.902 2.873.725.819 1.842-.047 1.889 1.723.047 1.758-.346 4.156-.393 5.486-.036 1.33 1.59 3.61 1.936 4.728.344 1.116.605 1.282 2.02 1.282 3.18 0 3.949-1.709 6.697-5.45.855-1.152 1.592-2.399 1.676-3.777.082-1.366-1.164-1.247.51-2.874 1.676-1.627 3.102-3.088 4.17-4.632 1.068-1.556 1.592-3.349 1.068-3.479-.51-.132-4.203-.262-4.203-.262-.096 0-2.066-.023-2.363-2.019-1.033-6.781-.084-3.694-.084-5.368 1.723 1.247 1.629 2.102 2.186 3.527.371.937.307 1.764.801 2.25.277.273.68.4 1.314.445.758.055 4.709.334 5.92-2.387.913-2.058-.454-4.233-.597-4.454zM62.409 74.854c0 2.71-2.205 4.916-4.916 4.916s-4.916-2.205-4.916-4.916 2.205-4.916 4.916-4.916 4.916 2.205 4.916 4.916z"/><path fill="#4087C7" d="M55.19 74.854c0 3.043 4.605 3.044 4.605 0 0-3.043-4.605-3.045-4.605 0z"/><g><path fill="#4087C7" d="M29.969 94.012c-.553-1.173.131-1.596-.185-3.513-.351-2.128-1.368-2.573-.939-3.651.26-.652 1.382-2.22.993-2.949-.097-.182-.315-.273-.676-.532-.678-.486-.101-1.172-.203-2.344-.102-1.173.471-.858.357-2.166-.113-1.308-.066-.767-.76-1.434-.373-.357-.6-.546-.856-.631-.423-.141-.574.101-.837-.04-.342-.183-.258-.701-.417-1.481-.574-2.819-1.541-1.95-3.025-2.087-1.461-.133-1.53-.756-2.712-.938-1.989-.306-2.896 1.291-4.172.834-.551-.196-1.227-.797-1.643-2.655-.831-1.017-1.989-2.999-1.33-3.933.366-.517.913-.175 1.799-.761 1.002-.663.656-1.334 1.956-2.895 1.231-1.479 2.2-1.665 2.503-1.54.334.138.333-1.783.336-2.146.082-.179.216-.408.395-.416.229-.01.321.357.639.499.375.166.821-.09 1.017-.196 1.572-.85 2.388-.377 3.924-1.499 3.224-2.354 1.872-3.684 2.19-5.319.215-1.105.638-1.221.939-2.296.102-.362.52-1.854-.104-3.129-.931-1.899-3.574-2.076-3.755-2.086l-2.451-3.546-2.503 1.095c-2.189 1.928-5.794 5.439-7.197 7.511-1.8 2.657-5.205 11.55-5.32 12.204-.264 1.505.416 5.256 1.599 6.734 0 0 1.843.467 2.938 1.249 1.095.782 1.565 2.034 1.565 2.503 0 1.101-.48 1.499-.313 2.974.087.762.255.711.313 1.402.104 1.242-.401 1.887-.626 2.921-.417 1.917.678 6.421 4.798 10.743 2.799 3.293 5.612 4.916 9.239 6.483 1.513.653 1.663.595 3.711 1.484 1.846.802 2.12 1.021 2.969 1.188 2.102.41 6.479-.249 2.438-1.54-2.508-.89-5.973-2.779-6.594-4.101z"/></g></g><path fill="#54AD4E" d="M61.5 32.794a1.305 1.305 0 0 1-.66-1.725c2.939-6.595 3.926-13.113.359-20.48-.752-1.556 1.602-2.691 2.352-1.139 1.682 3.473 2.533 7.299 2.533 11.373 0 3.248-.961 7.054-2.857 11.312a1.309 1.309 0 0 1-1.727.659zm-44.81-.661c-3.24-7.273-4.246-14.583-.324-22.685.751-1.554 3.104-.416 2.351 1.139-3.523 7.277-2.634 13.766.36 20.48a1.307 1.307 0 0 1-2.387 1.066z"/><path fill="#54AD4E" d="M67.487 36.732a1.306 1.306 0 0 1-.658-1.727c3.943-8.802 5.037-17.693.395-27.324-.75-1.557 1.605-2.69 2.354-1.135 2.186 4.532 3.293 9.512 3.293 14.8 0 4.356-1.23 9.313-3.656 14.728a1.31 1.31 0 0 1-1.728.658zm-55.635.115c-.498 0-.974-.286-1.192-.771-4.421-9.81-5.208-19.486-.366-29.53.748-1.554 3.104-.424 2.354 1.135-2.013 4.176-3.033 8.772-3.033 13.665 0 4.016 1.153 8.609 3.427 13.656a1.306 1.306 0 0 1-1.19 1.845zM57.493 19.845c0-22.635-33.967-22.602-33.967 0 0 10.628 16.983 29.664 16.983 29.664s16.984-19.053 16.984-29.664zm-23.325.226a6.34 6.34 0 1 1 12.68 0 6.34 6.34 0 0 1-12.68 0z"/><path fill="#222" d="M68.868 93.266c11.496-12.94 12.479-31.614 3.568-45.444-.934-1.451 1.26-2.868 2.197-1.415 5.049 7.838 6.988 16.782 6.207 25.421-.783 8.663-4.248 16.677-10.02 23.174-1.146 1.29-3.099-.443-1.952-1.736zM6.529 90.189C-3.733 74.387-1.65 53.866 11.028 40.416a1.307 1.307 0 0 1 1.901 1.793 37.746 37.746 0 0 0-3.727 4.642c-.416.652-.663.863-2.008 3.278a37.029 37.029 0 0 0-4.021 11.652c-1.585 9.231.2 18.75 5.548 26.983a1.308 1.308 0 0 1-2.192 1.425zM10.401 94.432c1.65 0 1.651-2.498 0-2.498-1.65 0-1.651 2.498 0 2.498zM40.509 50.815c-.372 0-.728-.159-.975-.438-.706-.792-17.314-19.533-17.314-30.533 0-24.395 36.58-24.38 36.58 0 0 10.982-16.607 29.739-17.314 30.533-.249.28-.605.438-.977.438zm-15.676-30.97c0 8.577 12.111 23.468 15.676 27.666 3.566-4.201 15.678-19.102 15.678-27.666-.001-20.91-31.354-20.895-31.354 0zm15.676 7.873c-4.217 0-7.647-3.432-7.647-7.647s3.431-7.647 7.647-7.647 7.646 3.432 7.646 7.647-3.43 7.647-7.646 7.647zm0-12.681c-2.776 0-5.034 2.258-5.034 5.034s2.258 5.034 5.034 5.034c2.775 0 5.034-2.258 5.034-5.034s-2.258-5.034-5.034-5.034z"/><path fill="#222" d="M40.508 101.555c-26.147 0-41.404-28.608-29.157-49.604h-.001a33.484 33.484 0 0 1 14.908-13.948 1.306 1.306 0 1 1 1.12 2.36C-1.8 54.203 7.631 98.941 40.508 98.941c18.115 0 31.928-15.584 30.691-32.637-.68-11.611-7.805-21.318-17.563-25.939-1.566-.741-.439-3.1 1.117-2.362C65.98 43.318 73.88 54.763 73.88 68.182c.001 18.401-14.969 33.373-33.372 33.373zM70.823 44.38c1.65 0 1.65-2.496 0-2.496s-1.653 2.496 0 2.496z"/><path fill="#4087C7" d="M29.498 68.289a4.833 4.833 0 0 1-4.828-4.828 4.832 4.832 0 0 1 4.828-4.827 4.832 4.832 0 0 1 4.828 4.827 4.832 4.832 0 0 1-4.828 4.828zm-2.391-4.83c0 3.158 4.78 3.159 4.78 0 .002-3.157-4.78-3.158-4.78 0z" opacity=".5"/><path fill="#222" d="M54.432 58.034a4.922 4.922 0 0 1-4.916-4.916c0-2.71 2.205-4.916 4.916-4.916s4.916 2.205 4.916 4.916-2.205 4.916-4.916 4.916zm-2.303-4.916c0 3.043 4.605 3.044 4.605 0 .001-3.043-4.605-3.044-4.605 0z"/></svg>