<svg xmlns="http://www.w3.org/2000/svg" width="103.464" height="102.359"><path opacity=".5" fill="#4087C7" d="M27.459 77.945c-2.108 2.584-5.039 4.201-8.302 4.201s-6.194-1.617-8.302-4.201c-2.859 2.396-4.692 5.977-4.692 9.976v8.662a21.56 21.56 0 0 0 12.994 4.331c4.88 0 9.384-1.617 12.994-4.331V87.92c0-3.999-1.834-7.579-4.692-9.975z"/><path fill="#54AD4E" d="M60.666 77.945c-2.107 2.584-5.039 4.201-8.303 4.201-3.262 0-6.193-1.617-8.301-4.201-2.859 2.396-4.692 5.977-4.692 9.976v8.662a21.558 21.558 0 0 0 12.993 4.331c4.881 0 9.385-1.617 12.994-4.331V87.92c0-3.999-1.834-7.579-4.691-9.975z"/><path opacity=".5" fill="#4087C7" d="M93.873 77.945c-2.109 2.584-5.039 4.201-8.303 4.201s-6.193-1.617-8.303-4.201c-2.857 2.396-4.691 5.977-4.691 9.976v8.662a21.557 21.557 0 0 0 12.994 4.331c4.879 0 9.385-1.617 12.994-4.331V87.92c0-3.999-1.834-7.579-4.691-9.975z"/><g fill="#222221"><path d="M28.387 76.838a1.446 1.446 0 0 0-2.047.194c-1.931 2.367-4.481 3.67-7.183 3.67s-5.252-1.303-7.183-3.67a1.443 1.443 0 0 0-2.046-.194c-3.31 2.775-5.208 6.815-5.208 11.083v8.662c0 .454.213.881.576 1.154a22.894 22.894 0 0 0 13.861 4.621c5.047 0 9.841-1.599 13.861-4.621.363-.273.576-.7.576-1.154v-8.662c.002-4.267-1.898-8.307-5.207-11.083zm2.321 19.009a20.26 20.26 0 0 1-2.887 1.675v-9.601a1.444 1.444 0 1 0-2.888 0v10.106c0 .203.042.395.118.569a20.228 20.228 0 0 1-5.893.874c-2.027 0-4.004-.3-5.893-.874.075-.175.118-.366.118-.569V87.921a1.444 1.444 0 1 0-2.888 0v9.601a20.166 20.166 0 0 1-2.887-1.675V87.92c0-2.953 1.14-5.771 3.167-7.919 2.346 2.325 5.274 3.588 8.383 3.588 3.109 0 6.037-1.263 8.383-3.588a11.526 11.526 0 0 1 3.167 7.919v7.927zM61.593 76.838a1.45 1.45 0 0 0-1.064-.331 1.449 1.449 0 0 0-.982.525c-1.93 2.367-4.48 3.67-7.184 3.67-2.701 0-5.251-1.303-7.182-3.67a1.443 1.443 0 0 0-2.047-.194c-3.31 2.775-5.208 6.815-5.208 11.083v8.662c0 .454.213.881.576 1.154a22.894 22.894 0 0 0 13.861 4.621c5.048 0 9.842-1.599 13.861-4.621.361-.273.576-.7.576-1.154v-8.662c.002-4.267-1.898-8.307-5.207-11.083zm2.321 19.009a20.166 20.166 0 0 1-2.887 1.675v-9.601a1.444 1.444 0 1 0-2.888 0v10.106c0 .203.043.395.118.569a20.225 20.225 0 0 1-5.894.874c-2.026 0-4.004-.3-5.892-.874.075-.175.118-.366.118-.569V87.921a1.444 1.444 0 1 0-2.888 0v9.601a20.166 20.166 0 0 1-2.887-1.675V87.92c0-2.953 1.14-5.771 3.167-7.919 2.346 2.325 5.274 3.588 8.382 3.588 3.109 0 6.037-1.263 8.385-3.588a11.534 11.534 0 0 1 3.166 7.919v7.927zM94.8 76.838a1.45 1.45 0 0 0-1.064-.331 1.449 1.449 0 0 0-.982.525c-1.932 2.367-4.482 3.67-7.184 3.67s-5.254-1.303-7.184-3.67a1.443 1.443 0 0 0-2.046-.194c-3.311 2.775-5.207 6.815-5.207 11.083v8.662c0 .454.213.881.576 1.154a22.89 22.89 0 0 0 13.859 4.621c5.049 0 9.842-1.599 13.861-4.621.363-.273.576-.7.576-1.154v-8.662c.002-4.267-1.896-8.307-5.205-11.083zm2.321 19.009a19.787 19.787 0 0 1-2.842 1.652V87.92a1.443 1.443 0 1 0-2.886 0v10.106c0 .197.039.387.111.558-1.9.582-3.895.885-5.936.885-2.012 0-3.975-.297-5.85-.861.078-.179.123-.374.123-.581V87.92a1.444 1.444 0 1 0-2.886 0v9.622c-1.018-.481-2-1.041-2.936-1.695V87.92c0-2.953 1.141-5.771 3.166-7.919 2.346 2.325 5.275 3.588 8.383 3.588 3.109 0 6.037-1.263 8.385-3.588a11.534 11.534 0 0 1 3.166 7.919v7.927h.002zM33.33 6.871h.029a1.628 1.628 0 0 0 1.595-1.654A1.61 1.61 0 0 0 33.3 3.622a1.626 1.626 0 0 0 .03 3.249zM101.871 51.855a1.616 1.616 0 0 0-1.654 1.595 1.626 1.626 0 0 0 1.594 1.654h.029c.883 0 1.609-.709 1.625-1.596a1.627 1.627 0 0 0-1.594-1.653z"/><path d="M19.157 79.258c4.776 0 8.662-4.856 8.662-10.828 0-1.299-.102-2.443-.284-3.461a1.414 1.414 0 0 0-.071-.373c-1.164-5.675-5.001-6.994-8.308-6.994-3.952 0-8.662 1.88-8.662 10.828.002 5.972 3.887 10.828 8.663 10.828zm0-2.886c-3.055 0-5.558-3.282-5.756-7.416.01-.021.026-.034.035-.054a8.957 8.957 0 0 1 2.431-3.218 10.264 10.264 0 0 0 4.461 1.828c1.792.267 3.353.008 4.566-.378a22 22 0 0 1 .038 1.296c.001 4.378-2.591 7.942-5.775 7.942zm0-15.882c2.143 0 4.321.531 5.275 3.751-.912.35-2.182.64-3.679.415-1.92-.286-3.246-1.287-3.866-1.859a1.446 1.446 0 0 0-1.771-.145c-.308.202-.597.428-.884.656 1.074-2.385 3.012-2.818 4.925-2.818zM43.702 68.43c0 5.972 3.886 10.828 8.661 10.828 4.777 0 8.662-4.856 8.662-10.828 0-1.299-.102-2.445-.283-3.463a1.431 1.431 0 0 0-.07-.37c-1.164-5.676-5.001-6.994-8.309-6.994-3.95-.001-8.661 1.878-8.661 10.827zm8.661 7.942c-3.055 0-5.557-3.282-5.755-7.416.01-.021.026-.034.035-.054a8.939 8.939 0 0 1 2.431-3.218 10.264 10.264 0 0 0 4.461 1.828c1.794.267 3.354.008 4.566-.378.024.408.039.838.039 1.296-.002 4.378-2.592 7.942-5.777 7.942zm5.275-12.131c-.914.35-2.186.64-3.679.416-1.919-.286-3.246-1.287-3.866-1.859a1.446 1.446 0 0 0-1.771-.145c-.307.202-.596.428-.883.656 1.073-2.386 3.01-2.818 4.924-2.818 2.143-.001 4.322.53 5.275 3.75zM26.376 41c0 5.971 3.886 10.828 8.662 10.828S43.701 46.97 43.701 41c0-1.299-.102-2.444-.284-3.461a1.414 1.414 0 0 0-.071-.373c-1.164-5.675-5.001-6.994-8.308-6.994-3.951-.001-8.662 1.877-8.662 10.828zm8.663 7.94c-3.055 0-5.558-3.282-5.756-7.416.01-.021.026-.034.035-.055a8.952 8.952 0 0 1 2.431-3.217c1.32.952 2.867 1.59 4.461 1.828 1.792.266 3.353.007 4.566-.378.024.408.038.837.038 1.296-.001 4.379-2.59 7.942-5.775 7.942zm0-15.882c2.143 0 4.321.531 5.275 3.752a7.198 7.198 0 0 1-3.679.415c-1.92-.285-3.246-1.286-3.866-1.858a1.447 1.447 0 0 0-1.771-.146c-.308.202-.597.429-.884.657 1.074-2.385 3.011-2.82 4.925-2.82z"/><path d="M45.24 55.116a1.443 1.443 0 1 0 2.552-1.35 14.637 14.637 0 0 0-3.521-4.354 1.442 1.442 0 0 0-2.05.188c-1.447 1.773-3.249 2.963-5.198 3.435a8.42 8.42 0 0 1-3.955.004c-1.964-.476-3.767-1.664-5.213-3.438a1.44 1.44 0 0 0-.985-.523 1.436 1.436 0 0 0-1.065.335 14.662 14.662 0 0 0-3.521 4.354 1.443 1.443 0 1 0 2.552 1.35 11.635 11.635 0 0 1 1.822-2.543c1.656 1.637 3.614 2.758 5.745 3.274.907.21 1.769.313 2.635.313.866 0 1.728-.103 2.65-.315 2.118-.513 4.075-1.634 5.73-3.271a11.52 11.52 0 0 1 1.822 2.541zM61.027 41c0 5.971 3.887 10.828 8.662 10.828S78.351 46.97 78.351 41c0-1.299-.102-2.446-.285-3.463a1.428 1.428 0 0 0-.068-.37c-1.164-5.676-5.002-6.995-8.311-6.995-3.951-.001-8.66 1.877-8.66 10.828zm8.662 7.94c-3.055 0-5.559-3.282-5.756-7.416.01-.021.025-.034.035-.056a8.95 8.95 0 0 1 2.429-3.217c1.32.952 2.867 1.59 4.461 1.828a10.1 10.1 0 0 0 4.566-.378c.023.408.039.837.039 1.296.001 4.38-2.59 7.943-5.774 7.943zm0-15.882c2.143 0 4.32.531 5.275 3.752a7.2 7.2 0 0 1-3.68.415c-1.92-.285-3.246-1.286-3.865-1.858a1.446 1.446 0 0 0-1.771-.146c-.307.202-.596.429-.883.657 1.072-2.385 3.01-2.82 4.924-2.82z"/><path d="M78.068 52.573a11.518 11.518 0 0 1 1.822 2.544 1.443 1.443 0 1 0 2.553-1.35 14.677 14.677 0 0 0-3.521-4.354 1.44 1.44 0 0 0-2.048.188c-1.447 1.773-3.248 2.962-5.199 3.435a8.407 8.407 0 0 1-3.955.004c-1.965-.477-3.768-1.664-5.213-3.438-.244-.3-.6-.488-.986-.523a1.43 1.43 0 0 0-1.064.335 14.662 14.662 0 0 0-3.521 4.354 1.443 1.443 0 0 0 .602 1.951 1.442 1.442 0 0 0 1.951-.601c.488-.925 1.1-1.777 1.822-2.544 1.654 1.637 3.613 2.758 5.744 3.274.908.21 1.77.313 2.635.313.867 0 1.73-.103 2.65-.315 2.118-.515 4.074-1.637 5.728-3.273zM53.736 24.397c4.777 0 8.662-4.857 8.662-10.828 0-1.3-.102-2.446-.285-3.463a1.428 1.428 0 0 0-.068-.37c-1.164-5.677-5.002-6.995-8.311-6.995-3.951 0-8.663 1.879-8.663 10.828.001 5.97 3.887 10.828 8.665 10.828zm0-2.889c-3.057 0-5.558-3.282-5.756-7.416.01-.02.026-.034.035-.054a8.972 8.972 0 0 1 2.43-3.217c1.32.952 2.867 1.59 4.461 1.828 1.795.266 3.355.007 4.568-.378.023.407.037.837.037 1.296 0 4.38-2.592 7.941-5.775 7.941zm0-15.881c2.143 0 4.32.531 5.275 3.752a7.211 7.211 0 0 1-3.68.414c-1.92-.285-3.246-1.287-3.866-1.859a1.447 1.447 0 0 0-1.771-.145c-.309.202-.598.428-.885.657 1.074-2.384 3.013-2.819 4.927-2.819z"/><path d="M41.583 28.286a1.442 1.442 0 0 0 1.951-.602 11.659 11.659 0 0 1 1.822-2.543c1.656 1.638 3.615 2.759 5.746 3.275.906.21 1.769.313 2.635.313.865 0 1.728-.102 2.648-.315 2.118-.513 4.076-1.633 5.73-3.271a11.625 11.625 0 0 1 1.822 2.543 1.445 1.445 0 0 0 1.951.603 1.445 1.445 0 0 0 .602-1.951 14.64 14.64 0 0 0-3.521-4.354 1.445 1.445 0 0 0-2.05.188c-1.447 1.773-3.25 2.962-5.197 3.435-1.383.318-2.604.314-3.955.004-1.963-.477-3.767-1.664-5.213-3.438-.245-.3-.6-.489-.985-.523a1.438 1.438 0 0 0-1.065.335 14.637 14.637 0 0 0-3.521 4.354c-.375.7-.106 1.575.6 1.947zM76.957 68.43c0 5.972 3.885 10.828 8.662 10.828 4.775 0 8.66-4.856 8.66-10.828 0-1.299-.102-2.445-.283-3.463a1.431 1.431 0 0 0-.07-.37c-1.164-5.676-5-6.994-8.309-6.994-3.951-.001-8.66 1.878-8.66 10.827zm8.662 7.942c-3.057 0-5.559-3.282-5.758-7.416.012-.021.027-.034.035-.055a9.043 9.043 0 0 1 2.431-3.218 10.244 10.244 0 0 0 4.461 1.828c1.793.267 3.354.007 4.566-.378.023.408.037.838.037 1.296.001 4.379-2.589 7.943-5.772 7.943zm0-15.882c2.143 0 4.32.531 5.273 3.752-.912.35-2.182.64-3.678.415-1.92-.286-3.246-1.287-3.867-1.859a1.445 1.445 0 0 0-1.77-.146 12.34 12.34 0 0 0-.885.656c1.075-2.385 3.013-2.818 4.927-2.818zM31.33 7.751a1.444 1.444 0 0 0-1.992.447L.225 54.15a1.442 1.442 0 0 0 1.218 2.216c.478 0 .946-.238 1.221-.671L31.775 9.744a1.443 1.443 0 0 0-.445-1.993zM100.287 48.981L71.173 3.03a1.443 1.443 0 1 0-2.439 1.545l29.113 45.951a1.444 1.444 0 0 0 2.44-1.545z"/></g></svg>