<svg xmlns="http://www.w3.org/2000/svg" width="103.567" height="99.151"><circle fill="#54AD4E" cx="30.279" cy="6.132" r="4.756"/><circle fill="#4087C7" cx="51.682" cy="6.132" r="4.756" opacity=".5"/><circle fill="#4087C7" cx="8.877" cy="6.132" r="4.756" opacity=".5"/><path fill="#54AD4E" d="M63.299 68.049l-1.116-2.922-2.946.069a9.148 9.148 0 0 0-1.408-1.486l.233-2.939-2.854-1.276-2.037 2.133a9.2 9.2 0 0 0-2.047-.058l-1.915-2.24-2.921 1.115.069 2.945a9.125 9.125 0 0 0-1.488 1.408l-2.939-.232-1.277 2.855 2.131 2.036a9.207 9.207 0 0 0-.059 2.048l-2.241 1.913 1.117 2.922 2.945-.067a9.158 9.158 0 0 0 1.409 1.486l-.232 2.938 2.855 1.277 2.036-2.132c.67.096 1.356.117 2.047.058l1.912 2.241 2.922-1.116-.066-2.947a9.059 9.059 0 0 0 1.486-1.407l2.939.231 1.275-2.855-2.133-2.035c.097-.67.118-1.357.06-2.047l2.243-1.916zm-9.886 6.662a4.256 4.256 0 0 1-5.497-2.458 4.258 4.258 0 1 1 7.956-3.04 4.26 4.26 0 0 1-2.459 5.498z"/><path fill="#222221" d="M52.055 81.306a11.48 11.48 0 0 1-.91-.025c-1.467 1.535-2.017 2.447-3.127 1.947-4.247-1.899-3.781-1.185-3.488-4.904a11.146 11.146 0 0 1-.625-.661c-2.175.05-3.155.302-3.588-.832-1.666-4.359-1.832-3.515 1.003-5.937-.004-.304.005-.607.026-.91-1.533-1.463-2.447-2.012-1.949-3.127 1.904-4.258 1.194-3.779 4.907-3.487.212-.22.432-.429.661-.627-.05-2.118-.309-3.152.832-3.589 4.354-1.661 3.516-1.827 5.935 1.005.304-.007.606.004.91.026 1.473-1.543 2.014-2.446 3.127-1.951 4.269 1.908 3.78 1.197 3.485 4.907.219.212.428.433.627.661 2.209-.052 3.154-.306 3.588.831 1.658 4.342 1.838 3.509-1.002 5.937.005.303-.006.607-.026.91 1.532 1.463 2.446 2.01 1.948 3.125-1.895 4.245-1.203 3.781-4.905 3.488-.212.219-.432.428-.662.626.085 3.788.542 3.064-3.754 4.704-1.155.443-1.672-.545-3.013-2.117zm2.938-.8l1.106-.422c-.045-1.994-.206-2.575.504-3.107 2.365-1.784.604-1.823 4.394-1.524l.482-1.082c-1.439-1.373-1.97-1.672-1.843-2.557.425-2.957-.867-1.707 2.03-4.182l-.424-1.107c-3.814.09-2.029.149-4.302-1.764-.688-.58-.485-1.174-.329-3.133l-1.081-.482c-2.645 2.77-1.313 1.531-4.29 1.793-.877.084-1.165-.479-2.448-1.98l-1.106.422c.089 3.811.163 2.018-1.765 4.302-.582.688-1.181.484-3.131.33l-.484 1.082c2.745 2.622 1.547 1.31 1.792 4.296.073.883-.464 1.147-1.98 2.442l.423 1.106c3.807-.088 2.006-.168 4.302 1.766.693.585.482 1.197.33 3.131l1.082.482c2.628-2.75 1.319-1.539 4.29-1.793.887-.074 1.153.464 2.448 1.981zm-8.244-12.073a5.634 5.634 0 0 1 7.445-2.845c4.598 2.056 4.358 8.634-.289 10.409-4.648 1.777-9.212-2.965-7.156-7.564zm2.453 3.329a2.878 2.878 0 0 0 3.719 1.663l.001-.001c2.377-.905 2.499-4.271.148-5.321-2.325-1.041-4.785 1.251-3.868 3.659zM86.997 72.212h-2.064c-1.82 0-1.822-2.753 0-2.753h2.064c1.82 0 1.822 2.753 0 2.753zm-8.948 0h-2.066c-1.818 0-1.82-2.753 0-2.753h2.066c1.819 0 1.821 2.753 0 2.753zm-8.949 0h-2.064c-1.82 0-1.822-2.753 0-2.753H69.1c1.818 0 1.82 2.753 0 2.753zM35.989 72.212h-2.065c-1.819 0-1.822-2.753 0-2.753h2.065c1.819 0 1.821 2.753 0 2.753zm-8.949 0h-2.065c-1.819 0-1.822-2.753 0-2.753h2.065c1.819 0 1.821 2.753 0 2.753zm-8.949 0h-2.065c-1.819 0-1.822-2.753 0-2.753h2.065c1.819 0 1.821 2.753 0 2.753z"/><path fill="#4087C7" d="M3.75 87.448V26.412a4.589 4.589 0 0 1 4.589-4.589h29.123l-.229 5.736H9.156l.482 59.889H3.75zM99.922 87.448V26.412a4.59 4.59 0 0 0-4.59-4.589h-27.17l.16 5.736h25.711v59.889h5.889z" opacity=".5"/><path fill="#4087C7" d="M51.913 92.267H6.196a4.818 4.818 0 0 1-4.819-4.818v-.689h43.612c1.053 1.81 1.996 1.377 11.215 1.377a2.736 2.736 0 0 0 2.371-1.377h43.611v.688a4.818 4.818 0 0 1-4.818 4.818H51.652h.261z" opacity=".5"/><path fill="#222221" d="M98.057 86.434V25.698a2.272 2.272 0 0 0-2.27-2.27H69.311c-1.818 0-1.822-2.754 0-2.754H95.79a5.026 5.026 0 0 1 5.021 5.021v60.736c0 1.822-2.754 1.825-2.754.003zM2.754 86.434V25.698a5.027 5.027 0 0 1 5.023-5.022h28.211c1.819 0 1.822 2.754 0 2.754H7.777a2.273 2.273 0 0 0-2.27 2.27v60.735c0 1.818-2.753 1.821-2.753-.001z"/><path fill="#222221" d="M92.551 86.76V28.937H69.516c-1.818 0-1.82-2.755 0-2.755h24.041c.963 0 1.746.783 1.746 1.746V86.76c0 1.819-2.752 1.822-2.752 0zm1.006-57.824h.008-.008zM8.261 86.76V27.928c0-.963.783-1.746 1.746-1.746h26.169c1.819 0 1.822 2.755 0 2.755H11.014V86.76c0 1.819-2.753 1.822-2.753 0z"/><path fill="#222221" d="M97.37 93.644H6.195C3.062 93.644 0 91.383 0 86.76c0-.76.616-1.377 1.377-1.377H44.99c1.329 0 1.06 1.377 2.372 1.377 9.426 0 9.479.245 10.025-.692.576-.992-2.057-.684 44.803-.684.76 0 1.377.616 1.377 1.377-.002 4.593-3.049 6.883-6.197 6.883zm0-2.754a3.449 3.449 0 0 0 3.373-2.754H59.267c-1.599 1.781-2.688 1.377-11.906 1.377a4.129 4.129 0 0 1-3.063-1.377H2.823a3.448 3.448 0 0 0 3.373 2.754H97.37zM90.76 99.151c-1.818 0-1.822-2.754 0-2.754 1.821 0 1.823 2.754 0 2.754zM85.667 99.151H15.452c-1.819 0-1.822-2.754 0-2.754h70.214a1.376 1.376 0 1 1 .001 2.754zM43.318 55.623c-.783-.072-.102.508-10.767-12.291a1.376 1.376 0 0 1-.012-1.748l9.055-11.167c1.145-1.411 3.286.318 2.139 1.734L35.39 42.438l8.228 9.875 2.879-2.398-5.533-6.641a1.376 1.376 0 0 1-.012-1.748l5.26-6.486c1.145-1.412 3.285.318 2.139 1.734l-4.547 5.606 5.689 6.828a1.375 1.375 0 0 1-.176 1.938c-5.401 4.503-5.234 4.539-5.999 4.477zM54.418 51.147a1.376 1.376 0 0 1-.176-1.938l5.674-6.81-4.864-5.772c-1.175-1.394.934-3.167 2.104-1.775l5.609 6.654c.43.51.432 1.256.005 1.769l-5.532 6.641 2.879 2.398 8.229-9.875-8.801-10.854c-1.145-1.413.99-3.149 2.139-1.734l9.514 11.733a1.378 1.378 0 0 1-.012 1.748C60.534 56.114 61.208 55.55 60.418 55.623c-.77.062-.607.018-6-4.476z"/><path fill="#4087C7" d="M19.174 43.352h-2.085c-1.819 0-1.822-2.754 0-2.754h2.085c1.819 0 1.821 2.754 0 2.754zM28.659 43.352h-3.956c-1.819 0-1.821-2.754 0-2.754h3.956c1.819 0 1.822 2.754 0 2.754zM19.174 52.39h-2.085c-1.819 0-1.822-2.754 0-2.754h2.085c1.819.001 1.821 2.754 0 2.754zM31.61 52.39h-6.907c-1.819 0-1.821-2.754 0-2.754h6.907c1.819.001 1.822 2.754 0 2.754zM38.723 60.88H16.695c-1.819 0-1.821-2.754 0-2.754h22.028c1.819 0 1.822 2.754 0 2.754zM88.125 60.88H66.098c-1.82 0-1.822-2.754 0-2.754h22.027c1.819 0 1.823 2.754 0 2.754zM87.35 43.352H76.167c-1.82 0-1.822-2.754 0-2.754H87.35c1.818 0 1.82 2.754 0 2.754zM87.35 52.39H71.766c-1.82 0-1.822-2.754 0-2.754H87.35c1.818.001 1.82 2.754 0 2.754z" opacity=".5"/><path fill="#222221" d="M51.288 39.891C38.866 27.469 39.411 28.247 39.411 27.444c0-.797-.557-.014 11.877-12.446a1.376 1.376 0 0 1 1.947 0l11.473 11.473a1.374 1.374 0 0 1 0 1.947L53.235 39.891a1.376 1.376 0 0 1-1.947 0zm-8.553-12.447l9.526 9.525 9.526-9.525-9.526-9.526-9.526 9.526z"/><path fill="#222221" d="M55.476 17.235L73.172-.462c.516-.516 1.432-.516 1.947 0l16.752 16.751c1.285 1.286-.66 3.235-1.947 1.946L74.145 2.458 57.422 19.182c-1.286 1.287-3.234-.658-1.946-1.947z"/><path fill="#222221" d="M61.04 23.201l12.648-12.649a1.376 1.376 0 0 1 1.947 0l5.652 5.651c1.285 1.286-.66 3.235-1.947 1.946l-4.678-4.677-11.677 11.677c-1.283 1.285-3.233-.66-1.945-1.948zM8.877 12.265c-3.381 0-6.133-2.751-6.133-6.132S5.496 0 8.877 0s6.133 2.752 6.133 6.133-2.752 6.132-6.133 6.132zm0-9.512c-1.863 0-3.379 1.516-3.379 3.379s1.516 3.379 3.379 3.379 3.379-1.516 3.379-3.379-1.516-3.379-3.379-3.379zM30.279 12.265c-3.381 0-6.133-2.751-6.133-6.132S26.897 0 30.279 0s6.133 2.752 6.133 6.133-2.751 6.132-6.133 6.132zm0-9.512c-1.863 0-3.379 1.516-3.379 3.379s1.516 3.379 3.379 3.379a3.382 3.382 0 0 0 3.379-3.379 3.382 3.382 0 0 0-3.379-3.379zM51.682 12.265c-3.381 0-6.133-2.751-6.133-6.132S48.3 0 51.682 0c3.381 0 6.133 2.752 6.133 6.133s-2.752 6.132-6.133 6.132zm0-9.512c-1.864 0-3.379 1.516-3.379 3.379s1.516 3.379 3.379 3.379 3.379-1.516 3.379-3.379-1.516-3.379-3.379-3.379z"/><path fill="#222221" d="M46.926 7.509h-11.89c-1.819 0-1.822-2.754 0-2.754h11.89c1.819 0 1.821 2.754 0 2.754zM25.523 7.509h-11.89c-1.819 0-1.822-2.754 0-2.754h11.89c1.819 0 1.822 2.754 0 2.754zM7.5 17.463v-6.575c0-1.818 2.754-1.822 2.754 0v6.575c0 1.819-2.754 1.821-2.754 0z"/></svg>