<svg xmlns="http://www.w3.org/2000/svg" width="91.347" height="100"><path fill="#4087C7" d="M77.974 24.978h6.566V71.52h-6.566zM6.308 24.978h6.567V71.52H6.308z" opacity=".5"/><path fill="#222" d="M85.701 98.74c0 1.68 2.541 1.68 2.541 0 0-1.678-2.541-1.678-2.541 0z"/><g fill="#55AC4B"><path d="M33.29 27.937l6.834 2.41v3.357l-10.322-4.377v-2.829l10.322-4.375v3.356l-6.834 2.458zM44.068 36.844H41.49l6.426-18.954h2.578l-6.426 18.954zM59.221 27.9l-6.966-2.434v-3.333l10.442 4.376v2.816l-10.442 4.389V30.37l6.966-2.47z"/></g><path fill="#4087C7" d="M42.333 84.516c0 2.455 1.476 4.472 3.286 4.472 1.811 0 3.285-2.017 3.285-4.472v-3.882h-6.57l-.001 3.882z" opacity=".5"/><path fill="#222" d="M67.884 99.588h-44.42a1.255 1.255 0 0 1-1.254-1.254v-5.553c0-.691.561-1.254 1.254-1.254h44.42c.691 0 1.254.562 1.254 1.254v5.553c0 .692-.562 1.254-1.254 1.254zm-43.166-2.507h41.913v-3.046H24.718v3.046zM45.618 89.871c-2.497 0-4.529-2.563-4.529-5.713v-3.869c0-1.656 2.507-1.659 2.507 0v3.869c0 1.707.945 3.205 2.022 3.205s2.022-1.497 2.022-3.205v-3.869c0-1.656 2.508-1.659 2.508 0v3.869c0 3.15-2.032 5.713-4.53 5.713z"/><path fill="#222" d="M31.096 93.656c-1.941-1.299 1.748-2.667 1.748-8.661v-4.706c0-1.656 2.507-1.659 2.507 0 0 4.95.435 8.611-2.516 13.022a1.251 1.251 0 0 1-1.739.345zM58.402 93.312c-2.916-4.355-2.516-7.945-2.516-13.022 0-1.656 2.506-1.659 2.506 0 0 4.71-.416 7.878 2.094 11.63.922 1.375-1.164 2.769-2.084 1.392z"/><path fill="#222" d="M88.31 81.102H2.84C1.274 81.102 0 79.88 0 78.379v-58.14c0-1.501 1.274-2.723 2.84-2.723h8.849c1.656 0 1.659 2.507 0 2.507H2.84c-.206 0-.333.125-.333.215 0 62.149-.184 58.355.333 58.355 90.976 0 86 .221 86-.399 0-61.951.186-58.171-.334-58.171h-8.713c-1.656 0-1.658-2.507 0-2.507h8.713c1.566 0 2.842 1.222 2.842 2.723v57.956c-.001 1.603-1.364 2.907-3.038 2.907z"/><path fill="#222" d="M84.541 72.747H6.806c-.678 0-1.227-.55-1.227-1.228V25.045c0-.679.549-1.228 1.227-1.228h5.05c1.621 0 1.624 2.454 0 2.454H8.033v44.021h75.281V25.854h-3.521c-1.621 0-1.623-2.454 0-2.454h4.748c.68 0 1.229.55 1.229 1.228V71.52a1.229 1.229 0 0 1-1.229 1.227zM84.541 77.071c-1.834 0-1.836-2.775 0-2.775 1.834 0 1.835 2.775 0 2.775zM78.988 77.071c-1.834 0-1.836-2.775 0-2.775s1.836 2.775 0 2.775zM73.437 77.071c-1.834 0-1.836-2.775 0-2.775 1.834 0 1.836 2.775 0 2.775zM81.562 99.588H6.806c-1.656 0-1.659-2.507 0-2.507H81.56a1.255 1.255 0 0 1 .002 2.507z"/><path fill="#222" d="M77.07 70.749V12.282H14.413v58.143c0 1.661-2.515 1.663-2.515 0v-59.4c0-.693.563-1.257 1.257-1.257h65.171c.693 0 1.256.563 1.256 1.257v59.724c.001 1.66-2.512 1.663-2.512 0z"/><path fill="#55AC4B" d="M78.642 5.314c0-2.168-1.775-3.926-3.965-3.926H17.054c-2.189 0-3.964 1.758-3.964 3.926v5.658h65.552V5.314z"/><path fill="#222" d="M78.519 12.063H13.211a1.254 1.254 0 0 1-1.254-1.254V5.361A5.367 5.367 0 0 1 17.319 0H74.41a5.368 5.368 0 0 1 5.363 5.361v5.447c0 .694-.563 1.255-1.254 1.255zM14.465 9.556h62.802V5.361a2.858 2.858 0 0 0-2.855-2.854H17.319a2.858 2.858 0 0 0-2.855 2.854l.001 4.195z"/><path fill="#222" d="M19.091 6.181c0 1.776 2.714 1.776 2.714 0-.001-1.777-2.714-1.777-2.714 0zM23.915 6.181c0 1.776 2.714 1.776 2.714 0s-2.714-1.777-2.714 0zM28.739 6.181c0 1.776 2.714 1.776 2.714 0s-2.714-1.777-2.714 0zM48.848 44.589H27.834c-1.656 0-1.659-2.507 0-2.507h21.014c1.655 0 1.658 2.507 0 2.507zM41.24 58.496h-7.062c-1.656 0-1.659-2.508 0-2.508h7.062c1.656 0 1.66 2.508 0 2.508zM22.071 58.645h-1.969c-1.656 0-1.659-2.507 0-2.507h1.969c1.656 0 1.659 2.507 0 2.507zM46.505 64.782H28.001c-1.656 0-1.659-2.507 0-2.507h18.504c1.656-.001 1.659 2.507 0 2.507zM22.071 64.932h-1.969c-1.656 0-1.659-2.507 0-2.507h1.969c1.656 0 1.659 2.507 0 2.507zM22.071 51.454h-1.969c-1.656 0-1.659-2.508 0-2.508h1.969c1.656 0 1.659 2.508 0 2.508zM22.071 44.748h-1.969c-1.656 0-1.659-2.508 0-2.508h1.969c1.656 0 1.659 2.508 0 2.508zM41.24 51.499H27.792c-1.656 0-1.659-2.508 0-2.508H41.24c1.656 0 1.66 2.508 0 2.508zM60.561 70.424l.02-1.13a11.512 11.512 0 0 1-.934-.875c-4.166.35-3.271.983-5.405-3.726-.47-1.038.388-1.536 2.22-3.303-.037-.425-.05-.853-.041-1.279-3.191-2.698-3.012-1.607-1.188-6.456.402-1.07 1.445-.81 3.904-.766.275-.329.568-.642.875-.936-.35-4.146-.994-3.266 3.723-5.403 1.023-.463 1.461.31 3.303 2.219.424-.037.851-.051 1.279-.042 2.742-3.243 1.66-2.994 6.457-1.188 1.045.395.813 1.233.764 3.905.328.274.641.567.936.875l.795-.067c1.654-.139 1.869 2.364.211 2.506-1.301.109-1.941.311-2.479-.317-2.189-2.57-2.025-.448-1.943-4.859l-1.645-.619c-1.604 1.896-1.811 2.369-2.635 2.307-3.371-.267-1.748 1.114-4.812-2.062l-1.602.725c.209 2.461.398 2.96-.234 3.496-2.547 2.164-.447 2.022-4.857 1.943l-.619 1.645c1.877 1.586 2.373 1.806 2.307 2.636-.268 3.364 1.107 1.753-2.063 4.812l.727 1.601c2.447-.205 2.949-.398 3.49.231 2.113 2.468 2.023.658 1.959 4.172-.029 1.655-2.543 1.621-2.513-.045zm5.363-4.375c-5.02-1.891-5.293-8.974-.367-11.205 4.939-2.241 10.064 2.653 8.181 7.662a6.03 6.03 0 0 1-3.174 3.389 6.017 6.017 0 0 1-4.64.154zm.672-8.915c-2.883 1.305-2.727 5.455.215 6.561a3.511 3.511 0 0 0 2.714-.09l.002-.001c2.893-1.309 2.717-5.456-.217-6.56a3.524 3.524 0 0 0-2.714.09zM50.182 56.891c-1.674.101-1.83-2.43-.154-2.532 1.672-.101 1.827 2.431.154 2.532z"/><path fill="#222" d="M50.952 50.599c3.874-6.976 11.28-10.702 18.807-10.134 1.65.124 1.479 2.623-.188 2.507-6.751-.503-13.117 2.9-16.421 8.847-.809 1.457-3.004.23-2.198-1.22z"/></svg>