<svg xmlns="http://www.w3.org/2000/svg" width="62.897" height="75.245"><path fill="#EFEEEE" d="M34.31 47.935h-6.209a1.088 1.088 0 0 1-1.088-1.088v-33.72c0-.601.487-1.088 1.088-1.088h6.209c.602 0 1.088.487 1.088 1.088v33.72a1.09 1.09 0 0 1-1.088 1.088zm-5.122-2.176h4.033V14.216h-4.033v31.543z"/><path fill="#EFEEEE" d="M31.986 14.215l-.309-.002a1.088 1.088 0 0 1-1.064-1.211c.105-.916 1.094-9.004 3.519-11.295C35.299.606 36.797 0 38.352 0c1.867 0 3.633.869 4.846 2.385 2.262 2.824 1.98 7.123-.625 9.582-2.145 2.029-8.118 2.248-10.587 2.248zm6.366-12.039c-.996 0-1.963.396-2.724 1.113-1.229 1.162-2.225 5.555-2.69 8.738 3.407-.081 7.038-.598 8.143-1.643 1.801-1.701 1.988-4.68.42-6.641-.797-.995-1.946-1.567-3.149-1.567z"/><path fill="#EFEEEE" d="M30.424 14.215c-2.468 0-8.44-.219-10.589-2.248-2.605-2.459-2.885-6.758-.624-9.582C20.425.869 22.19 0 24.057 0c1.554 0 3.052.606 4.219 1.709 2.426 2.289 3.414 10.379 3.519 11.293a1.092 1.092 0 0 1-1.064 1.213h-.307zM24.059 2.176c-1.202 0-2.349.572-3.147 1.568-1.57 1.961-1.383 4.94.419 6.641 1.105 1.045 4.735 1.562 8.143 1.643-.467-3.186-1.462-7.579-2.689-8.738-.763-.72-1.73-1.114-2.726-1.114zM13.148 57.4a1.088 1.088 0 0 1-.77-1.857c2.413-2.416 5.775-3.829 9.47-3.978a1.076 1.076 0 0 1 1.13 1.044c.024.6-.442 1.107-1.043 1.131-3.145.126-5.992 1.313-8.017 3.342-.212.211-.49.318-.77.318zM18.159 69.164a1.087 1.087 0 0 1-.545-2.03c1.074-.618 2.495-1.3 3.993-1.118h10.122a6.1 6.1 0 0 0 3.235-.938c4.889-4.726 10.01-7.837 15.221-9.244l.178-.049c.512-.264.775-.779.729-1.021-.121-.642-.256-.927-1.059-1.022a3.24 3.24 0 0 0-.492-.031c-4.654 0-12.521 4.037-15.106 5.363a1.088 1.088 0 0 1-.994-1.937c2.701-1.386 10.92-5.603 16.1-5.603.313 0 .563.017.789.053 2.434.291 2.783 2.15 2.896 2.762.264 1.308-.602 2.795-2.016 3.443a.928.928 0 0 1-.139.053l-.32.089c-4.877 1.317-9.707 4.272-14.354 8.782a1.004 1.004 0 0 1-.168.135 8.294 8.294 0 0 1-4.502 1.34h-10.19c-.052 0-.102-.004-.152-.011-.875-.124-1.894.383-2.685.839a1.085 1.085 0 0 1-.541.145z"/><path fill="#EFEEEE" d="M60.133 53.715H3.166A2.768 2.768 0 0 1 .401 50.95v-3.14c0-.601.487-1.088 1.088-1.088h60.32c.602 0 1.088.487 1.088 1.088v3.141a2.767 2.767 0 0 1-2.764 2.764zM2.578 48.897v2.053a.59.59 0 0 0 .588.589h56.965a.59.59 0 0 0 .588-.589v-2.053H2.578z"/><path fill="#EFEEEE" d="M53.825 48.897H8.586a1.087 1.087 0 0 1-1.088-1.088V24.688c0-.602.486-1.088 1.088-1.088h45.239c.602 0 1.088.486 1.088 1.088V47.81c0 .6-.487 1.087-1.088 1.087zM9.674 46.722h43.063V25.775H9.674v20.947z"/><path fill="#EFEEEE" d="M55.6 25.775H6.813a1.087 1.087 0 0 1-1.088-1.088v-11.56c0-.602.487-1.088 1.088-1.088H55.6c.602 0 1.088.486 1.088 1.088v11.561c0 .601-.488 1.087-1.088 1.087zM7.9 23.6h46.612v-9.385H7.9V23.6zM12.796 75a1.088 1.088 0 0 1-.492-2.06l5.255-2.649-5.911-13.83-2.109 1.063a1.088 1.088 0 1 1-.98-1.943l3.145-1.585a1.088 1.088 0 0 1 1.489.543l6.769 15.835a1.087 1.087 0 0 1-.511 1.399l-6.167 3.109a1.057 1.057 0 0 1-.488.118z"/><g fill="#EFEEEE"><path d="M15.544 68.832c.173.802-.285 1.603-1.022 1.791-.736.188-1.475-.31-1.647-1.11-.173-.802.285-1.603 1.021-1.79.738-.188 1.475.308 1.648 1.109z"/><path d="M14.208 70.934c-.769 0-1.427-.561-1.601-1.365-.203-.941.346-1.887 1.222-2.111.125-.031.253-.047.381-.047.769 0 1.426.561 1.6 1.364.203.941-.345 1.888-1.221 2.111a1.542 1.542 0 0 1-.381.048zm.002-2.979c-.082 0-.166.01-.247.03-.596.152-.965.812-.823 1.47.139.64.732 1.051 1.315.903.596-.151.965-.812.822-1.469-.118-.549-.557-.934-1.067-.934z"/></g><path fill="#EFEEEE" d="M1.088 24.688A1.088 1.088 0 0 1 0 23.6V12.039c0-2.726 2.08-4.942 4.637-4.942a1.088 1.088 0 1 1 0 2.175c-1.357 0-2.461 1.241-2.461 2.767V23.6c0 .601-.488 1.088-1.088 1.088z"/><g fill="#EFEEEE"><ellipse cx="7.539" cy="8.186" rx=".887" ry=".963"/><path d="M7.539 9.42c-.64 0-1.159-.553-1.159-1.234s.52-1.234 1.159-1.234 1.158.553 1.158 1.234S8.178 9.42 7.539 9.42zm0-1.926c-.339 0-.615.31-.615.69s.276.69.615.69.614-.31.614-.69c0-.379-.275-.69-.614-.69z"/></g><g fill="#EFEEEE"><ellipse cx="30.224" cy="72.045" rx=".887" ry=".963"/><path d="M30.224 73.28c-.639 0-1.159-.554-1.159-1.235s.521-1.234 1.159-1.234 1.159.554 1.159 1.234c0 .682-.521 1.235-1.159 1.235zm0-1.926c-.339 0-.615.311-.615.691s.276.69.615.69.615-.31.615-.69-.276-.691-.615-.691z"/></g><path fill="#EFEEEE" d="M32.815 73.134a1.088 1.088 0 0 1 0-2.177c1.803 0 3.578-.53 5.136-1.535.137-.088.266-.19.383-.306 2.1-2.038 4.297-3.782 6.531-5.185a1.088 1.088 0 1 1 1.156 1.843c-2.104 1.322-4.182 2.972-6.172 4.901a4.517 4.517 0 0 1-.719.574c-1.911 1.233-4.093 1.885-6.315 1.885zM32.76 59.49h-6.67a1.087 1.087 0 1 1 0-2.176h6.671c.866 0 1.571-.807 1.571-1.8s-.705-1.8-1.571-1.8H21.079a1.087 1.087 0 1 1 0-2.177H32.76c2.066 0 3.747 1.784 3.747 3.976 0 2.194-1.681 3.977-3.747 3.977z"/></svg>