<?xml version="1.0" encoding="utf-8"?>
<!-- Generator: Adobe Illustrator 16.0.0, SVG Export Plug-In . SVG Version: 6.00 Build 0)  -->
<!DOCTYPE svg PUBLIC "-//W3C//DTD SVG 1.1//EN" "http://www.w3.org/Graphics/SVG/1.1/DTD/svg11.dtd">
<svg version="1.1" id="Layer_1" xmlns="http://www.w3.org/2000/svg" xmlns:xlink="http://www.w3.org/1999/xlink" x="0px" y="0px"
	 width="102.849px" height="75.001px" viewBox="0 0 102.849 75.001" enable-background="new 0 0 102.849 75.001"
	 xml:space="preserve">
<g id="price-hour">
	<g>
		<g>
			<path fill="#EFEEEE" d="M36.124,60.722c-2.08,0-3.771-1.692-3.771-3.772c0-2.079,1.691-3.771,3.771-3.771
				s3.772,1.692,3.772,3.771C39.896,59.029,38.204,60.722,36.124,60.722z M36.124,55.333c-0.891,0-1.616,0.726-1.616,1.617
				s0.726,1.616,1.616,1.616c0.892,0,1.616-0.725,1.616-1.616C37.741,56.059,37.015,55.333,36.124,55.333z"/>
		</g>
		<g>
			
				<path fill="#EFEEEE" stroke="#010101" stroke-width="4" stroke-linecap="round" stroke-linejoin="round" stroke-miterlimit="10" d="
				M25.865,20.978"/>
		</g>
		<g>
			<path fill="#EFEEEE" d="M35.099,33.829l-0.197-0.002l-0.147,0.002c-5.529,0-10.315-5.305-11.408-12.628
				c-0.042-0.034-0.104-0.079-0.153-0.116c-0.477-0.35-1.272-0.934-1.663-2.627c-0.61-2.644,0.134-3.774,0.866-4.258
				c0.726-0.479,1.68-0.433,2.432,0.115c0.481,0.352,0.586,1.025,0.235,1.506c-0.352,0.481-1.025,0.586-1.506,0.235h-0.001
				c-0.091,0.2-0.189,0.778,0.072,1.917c0.211,0.913,0.501,1.126,0.838,1.373c0.336,0.246,0.844,0.619,0.991,1.404
				c0.917,6.349,4.824,10.922,9.297,10.922l0.147-0.002l0.197,0.002c4.473,0,8.38-4.573,9.288-10.877
				c0.155-0.83,0.663-1.202,0.998-1.449c0.338-0.247,0.627-0.46,0.839-1.373c0.263-1.139,0.162-1.717,0.073-1.917l-0.001,0.001
				c-0.479,0.351-1.154,0.246-1.506-0.235c-0.351-0.481-0.246-1.155,0.235-1.506c0.752-0.549,1.708-0.594,2.432-0.115
				c0.732,0.483,1.476,1.614,0.866,4.259c-0.39,1.692-1.188,2.276-1.663,2.625c-0.05,0.037-0.114,0.084-0.155,0.117
				C45.435,28.503,40.641,33.829,35.099,33.829z"/>
		</g>
		<g>
			<path fill="#EFEEEE" d="M32.233,20.908h-2.514c-0.595,0-1.077-0.482-1.077-1.077c0-0.596,0.482-1.078,1.077-1.078h2.514
				c0.595,0,1.078,0.481,1.078,1.078C33.311,20.426,32.828,20.908,32.233,20.908z"/>
		</g>
		<g>
			<path fill="#EFEEEE" d="M39.777,20.908h-2.514c-0.595,0-1.077-0.482-1.077-1.077c0-0.596,0.482-1.078,1.077-1.078h2.514
				c0.595,0,1.078,0.481,1.078,1.078C40.854,20.426,40.372,20.908,39.777,20.908z"/>
		</g>
		<g>
			<path fill="#EFEEEE" d="M16.363,43.142c-0.19,0-0.382-0.05-0.556-0.156c-0.51-0.308-0.674-0.971-0.365-1.48
				c2.634-4.355,7.007-7.354,11.996-8.229l0.228-0.042c0.314-0.057,0.639,0.027,0.884,0.232c0.022,0.018,0.043,0.038,0.063,0.057
				c1.905,1.687,4.343,2.616,6.87,2.616c2.543,0,4.995-0.94,6.905-2.646c0.188-0.169,0.428-0.265,0.679-0.273
				c0.046-0.002,0.133-0.002,0.179,0.002c0.101,0.009,0.193,0.025,0.291,0.043l0,0c0.031,0.004,0.063,0.01,0.093,0.018
				c4.709,0.832,8.931,3.607,11.584,7.616c0.328,0.496,0.192,1.165-0.304,1.494s-1.165,0.192-1.494-0.304
				c-2.296-3.469-5.925-5.885-9.983-6.652c-2.245,1.848-5.049,2.859-7.949,2.859c-2.896,0-5.693-1.008-7.937-2.848
				c-4.271,0.826-7.998,3.429-10.263,7.172C17.083,42.956,16.728,43.142,16.363,43.142z"/>
		</g>
		<g>
			<path fill="#EFEEEE" d="M62.946,74.731H9.064c-2.674,0-4.85-2.176-4.85-4.849v-0.539c0-0.595,0.483-1.078,1.078-1.078h61.425
				c0.596,0,1.078,0.483,1.078,1.078v0.539C67.794,72.556,65.62,74.731,62.946,74.731z M6.423,70.421
				c0.25,1.228,1.339,2.154,2.641,2.154h53.882c1.301,0,2.389-0.927,2.639-2.154H6.423z"/>
		</g>
		<g>
			<path fill="#EFEEEE" d="M61.263,69.314c-0.594,0-1.076-0.481-1.076-1.078V44.714c0-0.682-0.555-1.235-1.236-1.235H13.013
				c-0.681,0-1.234,0.554-1.234,1.235v23.522c0,0.595-0.483,1.078-1.078,1.078s-1.078-0.481-1.078-1.078V44.714
				c0-1.869,1.521-3.391,3.39-3.391H58.95c1.869,0,3.389,1.521,3.389,3.391v23.522C62.341,68.833,61.858,69.314,61.263,69.314z"/>
		</g>
		<g>
			<path fill="#EFEEEE" d="M77.952,74.731H2.518c-0.596,0-1.078-0.482-1.078-1.078c0-0.595,0.482-1.078,1.078-1.078h75.434
				c0.596,0,1.078,0.482,1.078,1.078S78.548,74.731,77.952,74.731z"/>
		</g>
		<g>
			<path fill="#EFEEEE" d="M45.093,17.817c-0.425,0-0.813-0.251-0.985-0.643l-1.569-3.558c-1.495,0.933-2.996,1.403-4.475,1.403
				l-0.179-0.002c-1.821-0.046-3.294-0.794-4.592-1.453c-1.201-0.609-2.336-1.188-3.641-1.188c-0.248,0-0.503,0.021-0.756,0.063
				c-0.412,0.066-0.819,0.184-1.214,0.35l-1.936,4.385c-0.179,0.406-0.584,0.664-1.035,0.642c-0.443-0.021-0.831-0.312-0.972-0.733
				c-1.845-5.479-0.655-11.088,3.03-14.289c1.087-0.943,3.892-2.592,7.512-2.777c0.298-0.016,0.744-0.027,1.29,0
				c3.041,0.152,5.568,1.087,7.514,2.777c3.686,3.201,4.875,8.811,3.03,14.289c-0.142,0.422-0.528,0.713-0.972,0.733
				C45.125,17.816,45.11,17.817,45.093,17.817z M42.995,10.905c0.088,0,0.176,0.012,0.263,0.033c0.322,0.081,0.589,0.307,0.724,0.61
				l0.76,1.721c0.331-3.521-0.768-6.849-3.069-8.849c-2.371-2.059-5.259-2.203-6.208-2.252c-0.456-0.021-0.825-0.013-1.072,0
				C31.351,2.325,29,3.71,28.182,4.421c-2.302,2-3.399,5.326-3.069,8.849l0.76-1.721c0.102-0.229,0.279-0.417,0.503-0.529
				c0.696-0.349,1.429-0.586,2.177-0.706c0.366-0.059,0.736-0.089,1.099-0.089c1.82,0,3.243,0.722,4.617,1.42
				c1.2,0.61,2.335,1.187,3.67,1.22l0.124,0.002c1.357,0,2.794-0.583,4.269-1.732C42.524,10.983,42.757,10.905,42.995,10.905z"/>
		</g>
		<g>
			<circle fill="#EFEEEE" cx="5.853" cy="53.177" r="1.078"/>
			<path fill="#EFEEEE" d="M5.853,54.523c-0.743,0-1.348-0.604-1.348-1.347c0-0.743,0.604-1.348,1.348-1.348
				c0.742,0,1.347,0.604,1.347,1.348C7.2,53.919,6.595,54.523,5.853,54.523z M5.853,52.368c-0.446,0-0.809,0.363-0.809,0.809
				s0.363,0.808,0.809,0.808s0.808-0.362,0.808-0.808S6.298,52.368,5.853,52.368z"/>
		</g>
		<g>
			<circle fill="#EFEEEE" cx="81.962" cy="73.653" r="1.078"/>
			<path fill="#EFEEEE" d="M81.962,75.001c-0.744,0-1.348-0.604-1.348-1.348c0-0.742,0.604-1.347,1.348-1.347
				c0.742,0,1.348,0.604,1.348,1.347C83.31,74.396,82.704,75.001,81.962,75.001z M81.962,72.846c-0.445,0-0.809,0.362-0.809,0.808
				s0.363,0.809,0.809,0.809s0.809-0.363,0.809-0.809S82.407,72.846,81.962,72.846z"/>
		</g>
		<g>
			<path fill="#EFEEEE" d="M5.853,51.001c-0.596,0-1.078-0.482-1.078-1.078v-5.747c0-4.246,3.454-7.701,7.7-7.701
				c0.595,0,1.077,0.481,1.077,1.078c0,0.596-0.482,1.077-1.077,1.077c-3.058,0-5.546,2.488-5.546,5.547v5.747
				C6.931,50.519,6.448,51.001,5.853,51.001z"/>
		</g>
	</g>
	<g>
		<g>
			<path fill="#EFEEEE" d="M56.37,35.768c-0.594,0-1.078-0.483-1.078-1.078V14.165c0-0.595,0.484-1.078,1.078-1.078h37.986
				c0.594,0,1.078,0.483,1.078,1.078v14.484c0,0.596-0.484,1.078-1.078,1.078c-0.596,0-1.078-0.482-1.078-1.078V15.243h-35.83
				v19.446C57.448,35.284,56.966,35.768,56.37,35.768z"/>
		</g>
		<g>
			<path fill="#EFEEEE" d="M93.868,21.607H56.499c-0.594,0-1.078-0.481-1.078-1.078c0-0.595,0.484-1.078,1.078-1.078h37.367
				c0.596,0,1.078,0.483,1.078,1.078S94.462,21.607,93.868,21.607z"/>
		</g>
		<g>
			<path fill="#EFEEEE" d="M65.562,18.133c-0.596,0-1.078-0.483-1.078-1.078v-4.709c0-1.871,1.521-3.394,3.393-3.394
				c1.873,0,3.395,1.521,3.395,3.394c0,0.595-0.482,1.078-1.078,1.078c-0.594,0-1.078-0.482-1.078-1.078
				c0-0.683-0.555-1.238-1.238-1.238c-0.682,0-1.238,0.556-1.238,1.238v4.709C66.638,17.649,66.155,18.133,65.562,18.133z"/>
		</g>
		<g>
			<path fill="#EFEEEE" d="M82.622,18.133c-0.594,0-1.078-0.483-1.078-1.078v-4.709c0-1.871,1.523-3.394,3.395-3.394
				s3.395,1.521,3.395,3.394c0,0.595-0.482,1.078-1.078,1.078s-1.078-0.482-1.078-1.078c0-0.683-0.557-1.238-1.238-1.238
				c-0.684,0-1.238,0.556-1.238,1.238v4.709C83.7,17.649,83.218,18.133,82.622,18.133z"/>
		</g>
		<g>
			<path fill="#EFEEEE" d="M91.034,54.13c-6.516,0-11.816-5.301-11.816-11.815s5.301-11.813,11.816-11.813
				c6.514,0,11.814,5.3,11.814,11.813C102.849,48.829,97.548,54.13,91.034,54.13z M91.034,32.656c-5.326,0-9.66,4.333-9.66,9.659
				s4.334,9.659,9.66,9.659s9.658-4.333,9.658-9.659S96.36,32.656,91.034,32.656z"/>
		</g>
		<g>
			<path fill="#EFEEEE" d="M95.729,47.88c-0.275,0-0.553-0.104-0.762-0.314c-0.422-0.42-0.424-1.104-0.002-1.523
				c1.047-1.051,1.623-2.443,1.623-3.922c0-3.063-2.492-5.556-5.557-5.556c-2.959,0-5.555,2.806-5.555,6.006
				c0,0.595-0.484,1.078-1.078,1.078c-0.596,0-1.078-0.481-1.078-1.078c0-4.347,3.604-8.161,7.711-8.161
				c4.252,0,7.713,3.459,7.713,7.712c0,2.054-0.801,3.986-2.254,5.443C96.28,47.774,96.005,47.88,95.729,47.88z"/>
		</g>
		<g>
			<path fill="#EFEEEE" d="M88.386,29.94h-3.861c-0.596,0-1.078-0.482-1.078-1.078v-3.861c0-0.595,0.482-1.078,1.078-1.078h3.861
				c0.596,0,1.078,0.482,1.078,1.078v3.861C89.464,29.458,88.981,29.94,88.386,29.94z M85.603,27.785h1.705v-1.704h-1.705V27.785z"
				/>
		</g>
		<g>
			<path fill="#EFEEEE" d="M65.327,37.697h-3.861c-0.596,0-1.078-0.481-1.078-1.077v-3.861c0-0.596,0.482-1.078,1.078-1.078h3.861
				c0.594,0,1.078,0.482,1.078,1.078v3.861C66.403,37.216,65.921,37.697,65.327,37.697z M62.544,35.542h1.705v-1.705h-1.705V35.542z
				"/>
		</g>
		<g>
			<path fill="#EFEEEE" d="M72.999,37.697h-3.861c-0.596,0-1.078-0.481-1.078-1.077v-3.861c0-0.596,0.482-1.078,1.078-1.078h3.861
				c0.594,0,1.078,0.482,1.078,1.078v3.861C74.075,37.216,73.593,37.697,72.999,37.697z M70.216,35.542h1.705v-1.705h-1.705V35.542z
				"/>
		</g>
		<g>
			<path fill="#EFEEEE" d="M73.022,45.288h-3.861c-0.594,0-1.078-0.483-1.078-1.078v-3.861c0-0.596,0.484-1.078,1.078-1.078h3.861
				c0.596,0,1.078,0.482,1.078,1.078v3.861C74.101,44.805,73.618,45.288,73.022,45.288z M70.239,43.132h1.705v-1.705h-1.705V43.132z
				"/>
		</g>
		<g>
			<path fill="#EFEEEE" d="M76.81,37.697c-0.596,0-1.078-0.481-1.078-1.077v-3.861c0-0.596,0.482-1.078,1.078-1.078h3.861
				c0.596,0,1.078,0.482,1.078,1.078c0,0.595-0.482,1.078-1.078,1.078h-2.783v2.783C77.888,37.216,77.405,37.697,76.81,37.697z"/>
		</g>
		<g>
			<path fill="#EFEEEE" d="M76.835,45.288c-0.596,0-1.078-0.483-1.078-1.078v-3.861c0-0.596,0.482-1.078,1.078-1.078
				c0.594,0,1.078,0.482,1.078,1.078v3.861C77.911,44.805,77.429,45.288,76.835,45.288z"/>
		</g>
		<g>
			<path fill="#EFEEEE" d="M90.882,44.317c-1.104,0-2.002-0.898-2.002-2.002s0.898-2.002,2.002-2.002s2.002,0.898,2.002,2.002
				S91.985,44.317,90.882,44.317z M90.882,42.161c-0.084,0-0.152,0.069-0.152,0.153s0.068,0.153,0.152,0.153
				s0.152-0.069,0.152-0.153S90.966,42.161,90.882,42.161z"/>
		</g>
		<g>
			<path fill="#EFEEEE" d="M90.831,42.478c-0.594,0-1.078-0.482-1.078-1.078v-2.599c0-0.595,0.484-1.078,1.078-1.078
				c0.596,0,1.078,0.483,1.078,1.078v2.599C91.909,41.995,91.427,42.478,90.831,42.478z"/>
		</g>
		<g>
			<path fill="#EFEEEE" d="M93.034,45.398c-0.277,0-0.553-0.104-0.762-0.315l-1.229-1.228c-0.42-0.421-0.42-1.103,0-1.524
				c0.42-0.42,1.104-0.42,1.525,0l1.227,1.228c0.42,0.421,0.42,1.103,0,1.524C93.585,45.292,93.31,45.398,93.034,45.398z"/>
		</g>
		<g>
			<path fill="#EFEEEE" d="M69.161,18.52H62.06c-0.596,0-1.078-0.483-1.078-1.078s0.482-1.078,1.078-1.078h7.102
				c0.596,0,1.078,0.483,1.078,1.078S69.757,18.52,69.161,18.52z"/>
		</g>
		<g>
			<path fill="#EFEEEE" d="M86.456,18.52h-7.104c-0.596,0-1.078-0.483-1.078-1.078s0.482-1.078,1.078-1.078h7.104
				c0.594,0,1.078,0.483,1.078,1.078S87.05,18.52,86.456,18.52z"/>
		</g>
		<g>
			<path fill="#EFEEEE" d="M65.327,29.94h-3.861c-0.596,0-1.078-0.482-1.078-1.078v-3.861c0-0.595,0.482-1.078,1.078-1.078h3.861
				c0.594,0,1.078,0.482,1.078,1.078v3.861C66.403,29.458,65.921,29.94,65.327,29.94z M62.544,27.785h1.705v-1.704h-1.705V27.785z"
				/>
		</g>
		<g>
			<path fill="#EFEEEE" d="M72.999,29.94h-3.861c-0.596,0-1.078-0.482-1.078-1.078v-3.861c0-0.595,0.482-1.078,1.078-1.078h3.861
				c0.594,0,1.078,0.482,1.078,1.078v3.861C74.075,29.458,73.593,29.94,72.999,29.94z M70.216,27.785h1.705v-1.704h-1.705V27.785z"
				/>
		</g>
		<g>
			<path fill="#EFEEEE" d="M80.671,29.94H76.81c-0.596,0-1.078-0.482-1.078-1.078v-3.861c0-0.595,0.482-1.078,1.078-1.078h3.861
				c0.596,0,1.078,0.482,1.078,1.078v3.861C81.747,29.458,81.267,29.94,80.671,29.94z M77.888,27.785h1.705v-1.704h-1.705V27.785z"
				/>
		</g>
	</g>
</g>
</svg>
