<svg xmlns="http://www.w3.org/2000/svg" width="117.745" height="75.001"><path fill="#EFEEEE" d="M26.916 35.991c-.324 0-.655-.011-.992-.035a13.528 13.528 0 0 1-2.132-.334 1.023 1.023 0 0 1-.803-.996 1.016 1.016 0 0 1 1.269-.989c.561.139 1.174.234 1.82.285 2.266.164 4.211-.366 5.647-.988a16.481 16.481 0 0 1-2.536-8.559v-.022V24.239a1.02 1.02 0 0 1 2.041 0v.151a14.44 14.44 0 0 0 .833 4.596 14.72 14.72 0 0 0 1.99 3.748 1.022 1.022 0 0 1-.337 1.498c-1.532.831-3.898 1.759-6.8 1.759zM12.228 35.991c-2.328 0-4.663-.6-6.813-1.757a1.02 1.02 0 0 1-.34-1.499 14.645 14.645 0 0 0 1.989-3.746 14.434 14.434 0 0 0 .834-4.684v-.064a1.02 1.02 0 0 1 2.041 0V24.361a16.452 16.452 0 0 1-.953 5.313 16.538 16.538 0 0 1-1.582 3.26c1.822.787 3.757 1.128 5.653.989.629-.05 1.245-.145 1.826-.28a1.02 1.02 0 0 1 .467 1.985c-.682.16-1.401.271-2.139.33-.328.021-.656.033-.983.033z"/><path fill="#EFEEEE" d="M8.934 25.219c-.3 0-.59-.134-.786-.371-2.894-3.506-3.813-7.854-2.4-11.347.927-2.295 2.392-3.936 4.354-4.877a8.297 8.297 0 0 1 3.362-.806c1.265-1.077 3.251-2.341 5.935-2.78a12.515 12.515 0 0 1 1.998-.158c1.862 0 4.592.404 7.03 2.328 2.58 2.037 3.47 4.687 3.762 5.558.546 1.628.609 2.978.644 3.704.117 2.541-.402 5.193-1.505 7.67-.188.42-.63.664-1.085.593a24.147 24.147 0 0 1-9.996-3.949 23.816 23.816 0 0 1-5.425-5.165 17.523 17.523 0 0 0-2.275 2.725 17.697 17.697 0 0 0-2.616 6.08 1.02 1.02 0 0 1-.997.795zm6.039-12.145a1.013 1.013 0 0 1 .838.441 21.82 21.82 0 0 0 5.589 5.589 22.078 22.078 0 0 0 8.365 3.479c.766-1.974 1.12-4.039 1.028-6.02-.031-.67-.084-1.792-.539-3.15-.244-.728-.989-2.944-3.092-4.604-1.979-1.562-4.229-1.89-5.768-1.89-.567 0-1.145.045-1.669.132-2.413.395-4.155 1.599-5.191 2.54a.978.978 0 0 1-.7.264l-.103-.001c-.98 0-1.906.205-2.751.61-1.488.714-2.613 1.992-3.345 3.801-.92 2.275-.564 5.054.901 7.588a19.582 19.582 0 0 1 2.317-4.653 19.747 19.747 0 0 1 3.451-3.877c.189-.162.425-.249.669-.249z"/><path fill="#EFEEEE" d="M19.563 36.915c-5.673 0-10.584-5.267-11.676-12.523a1.02 1.02 0 0 1 2.015-.305c.941 6.252 5.003 10.789 9.66 10.789s8.72-4.537 9.66-10.789a1.019 1.019 0 1 1 2.015.305c-1.09 7.256-6.001 12.523-11.674 12.523z"/><path fill="#EFEEEE" d="M19.563 32.661c-1.165 0-2.347-.429-3.416-1.238a1.019 1.019 0 1 1 1.232-1.625c1.445 1.095 2.925 1.095 4.371 0a1.02 1.02 0 1 1 1.231 1.625c-1.07.809-2.252 1.238-3.418 1.238zM8.096 57.085a1.02 1.02 0 0 1-1.02-1.02v-6.431a1.02 1.02 0 0 1 2.041 0v6.431a1.023 1.023 0 0 1-1.021 1.02z"/><path fill="#EFEEEE" d="M19.439 59.382A30.133 30.133 0 0 1 .373 52.57a1.013 1.013 0 0 1-.37-.864c.531-7.097 5.749-12.936 12.688-14.198a1.021 1.021 0 0 1 1.192 1.154 4.689 4.689 0 0 0-.052.693c0 3.898 4.685 6.801 5.581 6.801.451 0 2.293-.904 3.806-2.658.95-1.102 2.02-2.836 1.722-4.836a1.02 1.02 0 0 1 .974-1.17c1.69-.064 4.524.809 7.396 3.42a1.02 1.02 0 1 1-1.372 1.507c-1.913-1.739-3.707-2.506-4.913-2.772-.094 2.185-1.23 3.983-2.263 5.181-1.628 1.889-3.978 3.366-5.35 3.366-2.083 0-7.291-3.685-7.605-8.394-5.983 1.662-9.176 6.913-9.719 11.533a28.094 28.094 0 0 0 19.692 5.914 1.02 1.02 0 1 1 .168 2.032c-.828.069-1.672.103-2.509.103zM15.21 15.704c-.323 0-.642-.152-.839-.438a8.035 8.035 0 0 1-1.354-3.452 1.021 1.021 0 0 1 .866-1.153 1.021 1.021 0 0 1 1.153.866c.058.414.159.821.303 1.212.175.482.413.941.707 1.363a1.02 1.02 0 0 1-.836 1.602zM17.1 23.854c-.238 0-.477-.083-.671-.252a.964.964 0 0 0-.582-.215.886.886 0 0 0-.556.215 1.02 1.02 0 0 1-1.344-1.534 2.911 2.911 0 0 1 1.871-.719 2.98 2.98 0 0 1 1.954.719 1.02 1.02 0 0 1 .097 1.439 1.027 1.027 0 0 1-.769.347zM22.364 23.854a1.019 1.019 0 0 1-.672-1.787 2.911 2.911 0 0 1 1.871-.719 3.037 3.037 0 0 1 1.955.72 1.02 1.02 0 0 1-1.343 1.534.956.956 0 0 0-.581-.214.886.886 0 0 0-.556.215 1.028 1.028 0 0 1-.674.251z"/><g fill="#EFEEEE"><circle cx="11.853" cy="3.753" r="1.196"/><path d="M11.853 5.206c-.8 0-1.452-.651-1.452-1.453a1.452 1.452 0 1 1 1.452 1.453zm0-2.393a.94.94 0 1 0 .003 1.88.94.94 0 0 0-.003-1.88z"/></g><path fill="#EFEEEE" d="M1.613 20.771a1.02 1.02 0 0 1-.999-.822c-.566-2.862-.326-5.714.697-8.243C3.04 7.429 5.92 5.323 8.033 4.311a1.02 1.02 0 0 1 .882 1.838c-1.786.857-4.228 2.648-5.712 6.322-.874 2.161-1.077 4.609-.587 7.082a1.019 1.019 0 0 1-1.003 1.218zM55.234 45.23a14.461 14.461 0 0 1-9.649-3.692 1.018 1.018 0 1 1 1.358-1.518 12.427 12.427 0 0 0 8.291 3.173 1.018 1.018 0 1 1 0 2.037zM42.72 27.681a1.02 1.02 0 0 1-1-.824l-.003-.015c-.026-.032-.173-.136-.28-.212-.589-.413-1.479-1.039-1.938-2.945-.703-2.925.094-4.184.886-4.723.782-.533 1.829-.5 2.666.088a1.02 1.02 0 0 1-1.17 1.67c-.128-.09-.278-.121-.35-.073-.159.108-.479.781-.052 2.562.278 1.156.691 1.447 1.128 1.754.4.281.948.668 1.112 1.502a1.02 1.02 0 0 1-.999 1.216zM68.114 27.679a1.015 1.015 0 0 1-.999-1.215c.164-.834.713-1.219 1.112-1.5.437-.308.851-.599 1.128-1.756.428-1.779.107-2.451-.052-2.561-.071-.049-.222-.018-.349.073a1.02 1.02 0 0 1-1.17-1.67c.838-.589 1.885-.621 2.666-.089.793.541 1.59 1.799.887 4.724-.459 1.906-1.35 2.532-1.938 2.946-.107.076-.255.179-.287.222a1.016 1.016 0 0 1-.998.826z"/><path fill="#EFEEEE" d="M55.419 41.553c-6.656 0-12.419-6.199-13.704-14.74a1.02 1.02 0 1 1 2.015-.304c1.134 7.535 6.05 13.005 11.688 13.005 5.638 0 10.555-5.47 11.688-13.005a1.019 1.019 0 1 1 2.015.304c-1.283 8.541-7.047 14.74-13.702 14.74z"/><path fill="#EFEEEE" d="M52.696 26.363h-2.953a1.02 1.02 0 1 1 0-2.04h2.953c.563 0 1.021.457 1.021 1.02 0 .562-.457 1.02-1.021 1.02zM61.979 26.363h-2.953a1.02 1.02 0 0 1 0-2.04h2.953c.563 0 1.021.457 1.021 1.02 0 .562-.457 1.02-1.021 1.02z"/><g><path fill="#EFEEEE" d="M55.419 36.489c-1.344 0-2.71-.497-3.949-1.436a1.02 1.02 0 1 1 1.232-1.625c1.788 1.355 3.646 1.355 5.436 0a1.02 1.02 0 0 1 1.232 1.625c-1.241.94-2.607 1.436-3.951 1.436z"/></g><g><path fill="#EFEEEE" d="M40.045 65.946a1.021 1.021 0 0 1-1.021-1.019v-8.899a1.02 1.02 0 0 1 2.041 0v8.899a1.022 1.022 0 0 1-1.02 1.019z"/></g><g><path fill="#EFEEEE" d="M71.263 65.491a1.021 1.021 0 0 1-1.021-1.02v-8.444a1.021 1.021 0 0 1 2.042 0v8.444a1.023 1.023 0 0 1-1.021 1.02z"/></g><g><path fill="#EFEEEE" d="M55.234 45.23a14.461 14.461 0 0 1-9.649-3.692 1.018 1.018 0 1 1 1.358-1.518 12.427 12.427 0 0 0 8.291 3.173 1.018 1.018 0 1 1 0 2.037z"/></g><g><path fill="#EFEEEE" d="M55.427 69.021a1.021 1.021 0 0 1-1.021-1.02V44.21c0-.563.456-1.02 1.021-1.02 3.013 0 5.733-1.068 8.088-3.173a1.02 1.02 0 0 1 1.358 1.52c-2.435 2.178-5.33 3.43-8.427 3.654V68a1.022 1.022 0 0 1-1.019 1.021z"/></g><g><path fill="#EFEEEE" d="M63.809 49.626c-.159 0-.319-.037-.464-.112l-8.579-4.392a1.02 1.02 0 0 1 .929-1.815l7.235 3.704.566-6.282a1.018 1.018 0 1 1 2.031.182l-.703 7.786a1.02 1.02 0 0 1-1.015.929z"/></g><g><path fill="#EFEEEE" d="M46.811 49.626a1.022 1.022 0 0 1-1.014-.929l-.703-7.786a1.018 1.018 0 0 1 .924-1.106 1.015 1.015 0 0 1 1.107.924l.566 6.282 7.235-3.704a1.02 1.02 0 0 1 .929 1.815l-8.579 4.392a1.021 1.021 0 0 1-.465.112z"/></g><g><path fill="#EFEEEE" d="M43.522 22.688c-.343 0-.671-.174-.86-.473-1.725-2.717-2.139-6.138-1.107-9.148l.038-.115c.215-.66.868-2.672 2.595-4.617.785-.886 2.419-2.727 5.187-3.442.278-.072.561-.131.846-.175a.966.966 0 0 0 .009-.163c-.01-.521-.438-.878-.487-.917a1.018 1.018 0 0 1 .6-1.816 5.956 5.956 0 0 1 3.069.723c.148.082.295.17.435.265a5.971 5.971 0 0 0-.016-1.64c-.049-.33.065-.662.309-.891.242-.229.581-.325.906-.257 2.646.546 6.518 1.907 9.93 5.282a19.732 19.732 0 0 1 4.573 7.096.78.78 0 0 1 .033.107c.602 2.386.582 4.834-.058 7.082-.25.879-.596 1.737-1.028 2.554a1.022 1.022 0 0 1-1.179.502 1.018 1.018 0 0 1-.739-1.046 11.741 11.741 0 0 0-.867-5.236 11.512 11.512 0 0 0-1.629-2.758 9.099 9.099 0 0 1-1.73 1.973c-1.813 1.537-4.27 2.35-7.107 2.35-2.769 0-5.768-.76-8.724-2.201a13.968 13.968 0 0 0-1.979 6.033 1.018 1.018 0 0 1-1.02.928zm8.729-18.449a3.16 3.16 0 0 1-.42 1.929 1.018 1.018 0 0 1-.795.502 6.844 6.844 0 0 0-1.149.194c-2.166.561-3.471 2.031-4.173 2.821-1.444 1.627-1.999 3.334-2.182 3.895l-.048.146a8.585 8.585 0 0 0-.287 4.408 16.043 16.043 0 0 1 2.134-4.319 1.017 1.017 0 0 1 1.314-.315c2.928 1.561 5.9 2.386 8.596 2.386 2.349 0 4.351-.646 5.789-1.866.794-.673 1.442-1.544 1.927-2.591a1.02 1.02 0 0 1 1.643-.295 13.586 13.586 0 0 1 3.362 5.45c.06-1.16-.055-2.351-.346-3.526a17.716 17.716 0 0 0-4.078-6.308c-2.537-2.511-5.364-3.777-7.61-4.416a7.814 7.814 0 0 1-.598 2.737 1.02 1.02 0 0 1-1.741.242 3.814 3.814 0 0 0-1.338-1.074z"/></g><g><path fill="#EFEEEE" d="M54.829 75.001a45 45 0 0 1-25.167-7.656 1.017 1.017 0 0 1-.278-1.415 1.018 1.018 0 0 1 1.415-.278 42.975 42.975 0 0 0 24.031 7.311 43.083 43.083 0 0 0 22.682-6.44 1.017 1.017 0 0 1 1.402.331 1.017 1.017 0 0 1-.33 1.402 45.115 45.115 0 0 1-23.755 6.745z"/></g><g fill="#EFEEEE"><circle cx="80.793" cy="65.303" r="1.196"/><path d="M80.793 66.755a1.452 1.452 0 0 1 0-2.904 1.452 1.452 0 0 1 0 2.904zm0-2.394a.94.94 0 0 0 0 1.88.94.94 0 0 0 0-1.88z"/></g><g><path fill="#EFEEEE" d="M30.011 59.679l-.067-.002a1.019 1.019 0 0 1-.95-1.084 20.352 20.352 0 0 1 16.819-18.771c.081-.011.111-.018.142-.023a2.94 2.94 0 0 1 .167-.029 1.02 1.02 0 0 1 .29 2.019l-.07.011a4.022 4.022 0 0 1-.224.037c-8.311 1.465-14.536 8.412-15.09 16.888a1.02 1.02 0 0 1-1.017.954z"/><path fill="#EFEEEE" d="M55.151 69.021a39.502 39.502 0 0 1-25.808-9.589 1.02 1.02 0 1 1 1.333-1.542 37.457 37.457 0 0 0 24.475 9.094h.084a37.4 37.4 0 0 0 24.224-8.953c-.847-8.134-6.957-14.745-15.026-16.188a1.137 1.137 0 0 1-.159-.024 1.233 1.233 0 0 0-.156-.025 1.02 1.02 0 0 1 .252-2.024c.103.013.195.025.293.046a.593.593 0 0 1 .068.009c9.184 1.613 16.094 9.244 16.809 18.558.023.319-.104.632-.344.844-7.158 6.295-16.376 9.774-25.956 9.799h-.088v-.005z"/></g><g><path fill="#EFEEEE" d="M83.404 23.359c-.382 0-.716-.208-.891-.518a1.022 1.022 0 0 1 1.702-1.134 1.028 1.028 0 0 1-.811 1.652z"/><g fill="#EFEEEE"><circle cx="116.563" cy="46.74" r=".923"/><path d="M116.565 47.919a1.18 1.18 0 1 1 0-2.358 1.18 1.18 0 0 1 0 2.358zm0-1.847a.669.669 0 0 0 0 1.335.67.67 0 0 0 .668-.667.671.671 0 0 0-.668-.668z"/></g><path fill="#EFEEEE" d="M105.432 56.71a1.023 1.023 0 0 1-1.021-1.023v-6.055a1.021 1.021 0 1 1 2.044 0v6.055a1.022 1.022 0 0 1-1.023 1.023zM82.719 26.443c-.397 0-.771-.233-.938-.614-.047-.026-.123-.063-.182-.092-.52-.253-1.387-.676-2.029-2.213-.984-2.357-.464-3.541.147-4.119.618-.584 1.547-.705 2.368-.308a1.022 1.022 0 1 1-.891 1.84.278.278 0 0 0-.104-.026c.015.016-.198.469.367 1.824.345.825.666.981 1.037 1.162.365.178.918.447 1.184 1.169a1.023 1.023 0 0 1-.959 1.377zM103.106 26.443a1.022 1.022 0 0 1-.959-1.376c.268-.721.818-.991 1.184-1.169.371-.181.691-.338 1.037-1.162.527-1.262.379-1.743.34-1.834-.006.011-.039.019-.076.035a1.021 1.021 0 1 1-.892-1.84c.822-.398 1.75-.277 2.369.308.611.578 1.133 1.762.148 4.119-.643 1.537-1.51 1.96-2.029 2.213-.059.029-.135.066-.182.092a1.027 1.027 0 0 1-.94.614z"/><path fill="#EFEEEE" d="M92.928 37.714c-5.469-.084-10.174-5.189-11.221-12.142a1.023 1.023 0 0 1 .858-1.163 1.026 1.026 0 0 1 1.163.859c.896 5.959 4.766 10.333 9.2 10.4 4.402-.066 8.27-4.441 9.168-10.4a1.022 1.022 0 0 1 2.021.304c-1.046 6.952-5.751 12.058-11.189 12.142zM90.156 24.184h-2.398a1.022 1.022 0 0 1 0-2.045h2.398a1.022 1.022 0 1 1 0 2.045zM97.731 24.184h-2.4a1.022 1.022 0 0 1 0-2.045h2.4a1.022 1.022 0 0 1 0 2.045z"/><path fill="#EFEEEE" d="M93.036 33.601c-1.136 0-2.286-.417-3.327-1.206a1.022 1.022 0 1 1 1.235-1.629c1.385 1.05 2.799 1.049 4.182 0a1.021 1.021 0 1 1 1.235 1.629c-1.04.789-2.191 1.206-3.325 1.206zM76.922 42.122a1.023 1.023 0 0 1-.678-1.789c3.609-3.187 6.281-3.639 9.4-3.9l.012-.005c.049-.009.098-.019.143-.025a1.022 1.022 0 0 1 .289 2.024c-.104.02-.168.031-.231.039-2.959.248-5.106.617-8.258 3.399a1.018 1.018 0 0 1-.677.257zM92.889 59.512h-.072c-1.45-.011-3.248-.023-5.968-.597a1.02 1.02 0 1 1 .421-2c2.52.529 4.132.541 5.555.552h.063a28.712 28.712 0 0 0 18.506-6.796 14.07 14.07 0 0 0-5.328-9.491 14.106 14.106 0 0 0-6.141-2.726 1.022 1.022 0 0 1-.826-1.187 1.018 1.018 0 0 1 1.188-.826 16.159 16.159 0 0 1 7.033 3.122 16.124 16.124 0 0 1 6.163 11.457c.023.32-.104.634-.344.846a30.756 30.756 0 0 1-20.25 7.646z"/><path fill="#EFEEEE" d="M93.026 41.188c-2.789 0-5.477-1.032-7.774-2.983l1.324-1.559c1.922 1.634 4.152 2.497 6.45 2.497 2.289 0 4.51-.854 6.422-2.472l1.32 1.563c-2.285 1.931-4.963 2.954-7.742 2.954zM115.641 44.99c-.377 0-.74-.21-.918-.571a17.381 17.381 0 0 0-7.805-7.855 1.022 1.022 0 1 1 .916-1.829 19.438 19.438 0 0 1 8.725 8.782 1.022 1.022 0 0 1-.918 1.473zM83.543 23.511c-.299 0-.588-.131-.787-.369a2.255 2.255 0 0 1-.137-.146l-.037-.046a9.057 9.057 0 0 1-1.306-1.854c-1.843-3.487-.743-7.946-.731-7.991 1.533-5.81 7.469-8.409 12.67-8.409 6.131 0 10.963 3.301 12.309 8.409.012.044 1.113 4.503-.73 7.991a8.847 8.847 0 0 1-1.309 1.855.471.471 0 0 1-.033.045c-.041.049-.088.097-.133.143a1.029 1.029 0 0 1-1.141.309 1.019 1.019 0 0 1-.674-.966 14.824 14.824 0 0 0-1.09-5.713 50.314 50.314 0 0 0-7.012 2.139 1.01 1.01 0 0 1-.738 0 50.273 50.273 0 0 0-7.012-2.139 14.824 14.824 0 0 0-1.089 5.572 1.027 1.027 0 0 1-1.011 1.17h-.009zm9.672-16.772c-4.418 0-9.439 2.129-10.693 6.887-.185.694-.61 3.513.25 5.813.095-.542.216-1.079.363-1.606.243-.889.567-1.765.989-2.674a1.021 1.021 0 0 1 1.138-.57 52.473 52.473 0 0 1 7.773 2.27 52.318 52.318 0 0 1 7.773-2.27c.463-.098.938.139 1.137.57.422.907.744 1.782.99 2.678a15.7 15.7 0 0 1 .363 1.603c.859-2.301.432-5.118.25-5.813-1.34-5.083-6.403-6.888-10.333-6.888z"/></g></svg>