<svg xmlns="http://www.w3.org/2000/svg" width="1000" height="585.166"><path fill="#EEE" d="M815.771 354.627l-2.547 9.573-13.82 4.665-4.136-4.852-2.008.551 3.75 14.47 5.614.628 7.489 2.835v2.835l3.43-.629 4.996-6.915v-5.659l2.812-5.658 3.121.629-3.75-7.864-.573-5.062-4.378.453zM894.166 380.975l-.408 26.955 3.883-.21 5.106-5.967 4.29.21 2.757 2.47.916 7.61 8.779 4.632 2.25-.827v-2.78l-7.047-5.867-3.475-8.029 2.757-1.334-2.04-4.422-4.081-.099-1.025-4.732-10.82-7.301-1.842-.309zM105.294 245.473l5.327 16.775-2.482 1.389.276 3.331 4.687 3.607v6.673l5.79 5.558-2.482-16.389-3.309-10.842.827-7.5 2.757.276 1.103 2.504-1.103 6.386 14.338 28.058v10.003l11.58 13.61 12.683 5.834 5.239-3.055 7.445 6.11 4.412-4.444-1.93-5.007 6.342-1.941 1.93 1.114 1.93-1.941h3.033l5.514-9.728-2.757-2.504-10.753 2.504-2.482 7.224-6.342 1.114-7.445-3.055-3.309-10.555 2.504-13.312-5.117-3.187-2.437-12.783-2.04-.871-3.728 3.783-4.279-2.283-1.676-8.525-16.951-1.776-8.757-6.584-8.338.429zM524.705 155.289l-6.176-.221-3.915 2.393-.055 1.776 2.536 2.393 7.886 1.334-.276-7.675zM476.299 247.745l-4.5-1.511-18.727 3.518-4.081 3.099 2.492 12.871-7.445.298-4.477 7.202-10.665 2.559.032 5.239 35.128 26.856 5.988.507 19.974-15.606-1.997-2.514-3.749-.507-2.25-3.772v-15.606l-1.5-1.511.254-4.025-3.993-4.026-.497-4.279 1.743-1.257-.751-4.533-.979-3.002z"/><path fill="#EEE" d="M448.076 253.027h-12.738l-2.492 5.537-5.747 2.769-4.742 12.838-9.242 5.537-12.981 21.385 12.738-.254.497-6.286h3.242v-8.559h11.239l.253-11.073 10.742-2.514 4.5-7.301 6.992-.254-2.261-11.825z"/><path fill="#EEE" d="M400.221 301.975l2.404 3.143-.497 13.588 3.496-2.515 2.492-.507 3.497 1.258 3.992 5.537 3.75-2.514 18.231-.254-4.5-30.451 4.831-.022-9-6.893.011 4.478-11.393.011-.055 8.547-3.275-.011-.419 6.309-13.565.296z"/><path fill="#EEE" d="M405.978 317.04l-4.346 3.155-.992 1.764-.309 1.765 1.599 1.147 5.338-.077 3.43-.927.386 1.688-.309 2.228 3.276 1.61.683.772 4.346.154.154-1.919-3.97-4.765-4.422-5.988-2.747-1.147-2.117.54z"/><path fill="#EEE" d="M402.415 325.885l-.143 1.225 7.632-.11.387-1.136-.166-1.147-2.195.893-5.515.275zM402.305 327.959l1.368 3.319.76-2.051 9.276.97-4.014-2.063-7.39-.175z"/><path fill="#EEE" d="M404.301 332.712l1.545 3.055 4.334-3.728.044-1.147-5.106-.739-.817 2.559z"/><path fill="#EEE" d="M406.309 336.474l3.353 5.161 4.367-3.794 4.478-.198 3.728 4.952 3.165 2.084 1.19-2.316 1.059-.596-.076-5.096-2.107-6.044-6.463.717-7.996-.64-.044 2.051-4.654 3.719z"/><path fill="#EEE" d="M410.18 342.197l6.232 6.022 4.445-5.393-2.78-4.357-3.827.386-4.07 3.342zM417.062 348.881l12.11 8.095-.288-6.133-3.661-4.312-3.574-3.164-4.587 5.514z"/><path fill="#EEE" d="M430.187 357.219l4.72-3.342 5.868-1.025 5.988 1.29-3.054-4.622-.894-2.823.894-8.349-5.349.254-2.427-2.317-5.096.132-2.427.387.254 5.647-1.279.518-1.534 2.823 3.949 4.622.387 6.805zM416.279 323.128l3.397-2.327 18.882-.11-4.367-30.374 4.985-.143 24.121 18.407 3.243.463-1.225 10.235-15.165 1.379-11.702 8.735-2.128 5.978-8.128.341-2.073-5.967-6.231.442.242-1.952-3.851-5.107z"/><path fill="#EEE" d="M450.612 321.407l4.015-.319 6.584 9.309-6.11 4.61-4.422-1.136-5.945.077-.96 3.485-4.985.243-1.368-1.864 1.765-5.668 11.426-8.737zM461.972 329.922l2.813-.066 2.536-3.805 4.257-.761 4.533 2.769 9.672.276 7.478-3.044 2.812-2.415.21-3.176 5.216-5.261 1.379-11.613-3.429-7.191-8.779-2.14-20.315 15.838-2.879-.276-1.235 10.996-10.367 1.037 6.098 8.832z"/><path fill="#EEE" d="M443.719 346.52l1.235 2.901 3.22 5.051 1.787-.066 4.875-2.768-.341-15.76-3.772-1.103-5.283.143-1.721 11.602zM455.718 351.153l2.957-1.732-.067-11.415-1.919-3.111-1.234 1.037.263 15.221z"/><path fill="#EEE" d="M459.568 349.212h2.338l.132-6.64 2.955-4.29-.132-7.467-2.68-.066-4.599 3.595 1.919 3.662.067 11.206z"/><path fill="#EEE" d="M462.722 349.079l4.323.209 5.216 5.813 2.536.695 1.986-.97 3.021-.419 1.026-4.213 4.113-2.702 4.456-.209 8.162-15.011-.133-3.386-3.772-2.901-7.544 3.319-10.092-.143-4.809-3.044-3.429.761-1.787 3.111-.132 8.778-2.878 4.081-.263 6.231zM477.435 247.568l6.099-2.459 2.007 1.301.078 1.589-.937 1.224.143 2.172.937.507v3.904l-1.08 1.809.143 1.158 4.092 1.444-3.298 5.129-1.29-.078-.221 4.125-1.434.22-1.225-1.081.287-4.191-4.014-3.904-.507-3.397 1.941-1.522-1.721-7.95z"/><path fill="#EEE" d="M483.104 270.398l1.721-.287.507-3.971h.859l3.519-5.779 8.68 2.525 2.371 3.684 8.537 3.904 4.445-1.875-.431-1.875-1.941-1.875.221-1.302 3.155-2.669h6.243l2.371 3.176 5.018.728.651 40.686-3.728-.143-22.521-11.713-2.437 1.379-9.253-2.316-2.515-3.32-3.662-.508-1.863-3.32.053-15.129zM529.293 264.917l2.945.077 5.735 1.588 2.724.078 3.376-2.823h1.577l2.868 1.588h3.629l.651-.044 2.294 6.595.651 2.129.606 3.188-1.08.794-1.864-.938-2.151-7.014-1.941-.143-.143 2.382 1.29 4.125 10.334 12.794.22 5.492-3.01 3.474-28.278-.32-.433-33.022z"/><path fill="#EEE" d="M497.155 323.305l.143-3.254 5.228-5.084 1.4-12.485-3.485-6.662 2.439-1.246 23.601 12.297-.143 12.066-4.157 3.54v6.22l2.724 5.272h-4.809l-7.963 7.874-.21 2.382-5.879-.076-.076 1.08-3.353-.44-2.294-4.335-1.721-.849.221-1.324 2.162-1.654v-7.742l-2.989-.463-3.606-2.68 2.767-2.437z"/><path fill="#EEE" d="M527.331 319.367l.198-13.047 2.713.077-.309-7.246 28.455.254 4.07-4.103 8.779 14.04-4.809 5.669v8.658l-7.565 16.268-2.603 1.147.827 4.533h3.243l4.401 6.386-3.529.451-.905 1.644-.088 2.372-10.587-.187-1.081-1.644-7.401-.419-13.588-13.986 1.357-.815.364-3.287-3.254-1.919-2.967-5.856.166-5.448 4.113-3.542zM480.645 354.495l3.551 3.264-.254 5.051 19.477-.452 1.589-1.787-5.581-6.011-.827-2.172 3.552-6.651-2.416-4.412-2.029-1.092v-2.238l2.349-1.534.132-6.97-1.864-.21-.032 3.661-8.183 15.275-5.007.254-3.43 2.36-1.027 3.664z"/><path fill="#EEE" d="M567.652 321.871l-.276-6.496 4.367-5.096 1.18.904 2.151 7.191 10.323 7.687-1.875 2.305-7.554-6.496h-8.316v.001zM583.943 329.415l-.629 3.706 4.367-.066.066-5.448-1.598-.982-2.206 2.79z"/><path fill="#EEE" d="M559.689 340.686l8.028-17.867 7.975.044 7.07 6.143-.497 5.062h5.481l.562 3.044 8.867 5.306 5.47.276-10.4 11.172-14.283 4.401h-3.54l-6.308-5.382-2.492-1.048-4.831-7.114-3.188.044-.375-3.265 2.461-.816z"/><path fill="#EEE" d="M588.641 333.275l4.5 3.066 1.334-.067 11.172-3.838 1.269 4.092-.894 3.452-2.415 1.919-6.034-.387-8.636-5.305-.296-2.932zM614.978 327.33l2.349 2.625 3.176-1.919 1.147-.386-1.456-1.411-2.79.827-2.426.264z"/><path fill="#EEE" d="M606.54 332.183l4.82-1.853 1.709 1.025-.187 4.279-4.445 12.662-24.054 25.763-2.791-1.918-.187-10.875 3.618-4.157 7.676-2.372 11.261-11.89 2.945-2.625.827-3.837-1.192-4.202zM500.32 354.241l5.14 5.559 2.029-2.625 3.231.132.695-2.559 3.176-1.985 6.596 4.544 3.805-3.772 14.767.65-13.698-14.14 1.842-1.147.254-2.492-3.11-1.467h-4.567l-7.356 7.291-.253 3-5.834-.187-.187 1.28-3.805-.387-3.43 6.518.705 1.787zM472.836 368.689l1.268-.64.949.771-.949 1.467-1.147-.451-.121-1.147zM475.383 364.663l1.909-.32.64 1.213-.949 1.026-.949-.132-.651-1.787zM479.563 357.947l-.507 2.172 1.522.827 1.456-1.092-.507-2.238-1.964.331zM490.096 363.704l-.132 2.746-6.22-.132-3.805 7.356 8.945 9.783 2.217-1.852-.066-1.919-1.522-.705v-1.346l3.429-2.172 3.045 2.305 3.364.067-.067-11.57-5.327-.254-.066-2.427-3.795.12z"/><path fill="#EEE" d="M484.141 363.77l-.067 1.533 5.007.253-.066-1.731-4.874-.055zM495.181 363.582l-.066 1.599 5.271.132.187 13.687-4.82-.132-2.79-2.172-2.162 1.213-.099.606 1.114.541.32 2.812-2.978 2.559.64 1.345 3.298-2.558h1.588l.507 1.533 2.096.893 6.727-5.69-.133-4.159 1.401-3.386 4.312-3.198 1.158-10.82-3.066.012-3.551 4.864-8.954.319z"/><path fill="#EEE" d="M490.272 386.424l1.919 2.492 2.482-2.349-.728-2.437-.617-.044-3.056 2.338zM493.394 389.159l11.371-.198 2.305 3.275-.088 2.416.849.771h5.647l1.621-3.187h2.306l.937.949 3.165-.088.937 11.117 5.47.175v.861l14.702 6.628.684 1.291h3.077l-.341-4.655-5.559-2.669.341-3.53 2.393-5.603 5.47-.176-4.698-15.596.088-6.628 7.434-11.625.088-1.633-1.115-.606.044-3.154-1.356-.122-1.368-1.743-22.444-1.015-4.114 4.003-6.738-4.433-2.372 1.455-1.72 14.481-4.258 3.287-1.28 2.911.232 4.313-7.676 6.276-2.04-.926.276 1.202-2.27 2.176z"/><path fill="#EEE" d="M546.819 371.722l3.099 2.856-.132 3.055-4.808.099v-3.374l1.841-2.636zM545.043 378.681l4.71-.099-1.225 4.125-1.191 1.036h-1.456l-1.036-2.791.198-2.271zM547.347 370.828l3.342 3.132 2.096-1.335 5.668-.926.97.099.364-2.151 3.199-6.727-2.692-5.603-8.724.055-.055 2.306 1.17 1.124-.177 2.305-5.161 7.721z"/><path fill="#EEE" d="M561.167 356.965l2.934 5.725-3.519 7.379-.463 2.238 17.569 10.864 5.449-8.559-2.757-2.238-.055-11.272 3.452-3.772-5.504 1.831-4.157.055-6.508-5.492-2.052-.882-3.804.352-.673 1.126.088 2.645zM560.881 406.485l19.267-2.36-4.334-8.383-.232-8.028 1.4-3.839-18.33-11.514-5.746.948-1.996 1.478-.177 3.364-1.29 4.666-1.345 1.599-1.93.177 3.694 12.804 6.033 2.835 4.159.122.827 6.131z"/><path fill="#EEE" d="M521.154 421.132l3.496 4.852 5.415.332 1.919 1.059 5.669.066 4.885-6.849 13.655-6.11 1.191-5.382-1.589-7.71-7.125-4.058-4.754.331-2.371 5.25.066 2.393 5.603 2.725.331 5.923-4.819.264-1.191-1.996-13.39-5.713-.396 4.389-6.331.198-.264 10.036z"/><path fill="#EEE" d="M492.556 390.262l3.761 14.04-.088 4.433-5.504 5.912-.827 9.606 21.176.187 6.882 2.492 5.679-.739-3.309-4.147.012-11.846 6.507-.276v-4.622l-5.283-.22-1.059-10.942-2.227.033-1.203-1.08-1.312.066-1.743 3.376h-6.706l-1.555-1.567.463-2.217-1.831-2.68-11.833.191zM557.12 415.287l3.429 3.584-.066 4.587.661 1.93 4.555-4.919-.529-6.253-2.437-1.863-2.172-10.974-3.761-.132 1.709 7.908-1.389 6.132z"/><path fill="#EEE" d="M550.513 452.653l2.967 2.459 6.992-4.257 1.124-6.32v-10.433l11.216-9.177 1.919.067 6.794-6.518-1.059-13.433-18.01 2.271.53 4.058 3.099 2.393.728 7.313-6.066 5.922-1.456-3.319.265-4.389-3.496-3.795-8.581 3.993 7.985 4.058.265 11.835-5.283 7.842.067 9.43z"/><path fill="#EEE" d="M532.304 429.514l9.893 11.172 7.588 1.93 5.085-7.973-.397-10.566-8.249-4.258-3.1 1.401-4.621 7.047-6.397-.066.198 1.313zM501.301 462.226l3.695.265 2.172 2.195 5.15.066 1.257-14.624v-9.574l3.298-.661 1.257-10.036 8.383-.265 2.966-2.46-5.018-.198-6.794.926-7.323-2.658h-20.58l.53 5.845 6.86 10.103-1.191 5.184.067 2.724 5.271 13.168z"/><path fill="#EEE" d="M514.492 450.392l2.372.727-.331 6.783 2.437.331 5.603-5.051 6.727.728 1.787-4.521 8.514-7.776-10.223-11.768-.133-1.93-1.125-.331-3.099 2.856-8.051.199-1.125 10.036-3.165.728-.188 8.989zM550.182 453.447l-2.768.463-1.191 3.254 2.117 1.93h2.57l2.172-3.121-2.9-2.526zM535.337 466.008l3.364-2.591 1.589.066 1.918 2.393-.198 2.394-3.231 1.19v.927l-3.563-.199-.861-2.591.982-1.589z"/><path fill="#EEE" d="M542.782 442.01l-8.713 8.051-2.073 4.975-6.904-.86-5.746 5.106-3.816-.375.308-7.059-1.356-.474-.949 14.437-6.771-.066-2.04-2.405-2.99-.032 2.725 7.819 4.864 4.599-3.475 4.048 2.25 5.073 5.205 1.986 4.147-3.53 11.879.066.85-1.059 5.271-.926 17.834-17.756-.066-5.592-1.909 2.471h-2.856l-3.473-2.912 1.764-4.389 3.033-.618-.276-9.021-6.717-1.557zm-4.18 20.403l1.665-.066 2.702 2.934-.078 3.396-3.166 1.599-.198 1.125-4.831.055-1.511-3.639 1.379-2.669 4.038-2.735zM307.831 52.068l-1.5 2.394 2.702 2.702-1.202 2.702 3.904 5.095 4.798-1.5 6.298-.596 7.202 7.798 4.797 12.893-3.893 8.095 5.393-.904 3 1.798.298 3.904-6.595.298 3.596 3.595 4.499.905-9.893 13.191-1.202 8.095 2.095 6.595-1.5 3.904 2.702 8.393 5.096 5.702 1.5-.297 3.298-.905.298 4.798 2.095 3 3.893-.298 3-11.095 8.999-11.095 13.5-5.393 8.393-10.5 3.894 1.798h8.095l6.596-6.595 8.095-3.297.905-5.096-5.096-4.5-4.5-1.5-2.404-6.297 5.702-3.298 9 4.798 3-3.297-4.797-2.702 10.202-13.797-1.799-6-4.797-.297 1.798-5.393 6-2.702 12.297-10.797-3.595-3.893-13.797 1.202-7.202 7.202 4.203-9.298-4.798-1.203-2.702 4.798-3.892-3.297-10.797 1.202 3-4.798 17.691-.596-4.5-6-19.19-3.595-7.798 1.202.298 3.904-8.095-2.702.298-2.702-5.702 1.202-1.202 3 6 2.095-6.298 4.5-4.5-5.096-6.298-1.798-.905 4.798h-6.298l-2.404-5.096-9.893-1.5-5.393 2.702-.298 3.596-6.893-.905-4.202 1.798.298 4.202v2.096l-7.797 1.5-3.595-2.393-2.404 3.893 3.595 3.904 7.5-.904.596 2.404-5.702 2.702-5.091-2.428z"/><path fill="#EEE" d="M331.83 98.853l1.798 2.702-.904 3.298h-1.798l-2.404-2.702.596-2.095 2.712-1.203zM406.805 91.353l5.096 1.5-.298 4.202-5.393-2.702-1.202-1.5 1.797-1.5zM793.151 468.866l-.386 27.992-4.302 3.154-.386 2.757 5.867 3.938 14.481-2.757h7.434l2.736-3.948 16.433-3.155 11.736 3.552-.783 4.732 1.566 4.731 9-1.578.386 2.361-5.868 4.334 1.953 1.577 4.301-1.577-1.169 13.014 8.217 6.309 4.698-1.578 2.349 2.361 13.698-1.974 12.915-20.9 4.698-1.18 9.387-17.348 2.349-14.978-5.868-7.489 2.349-1.578-4.698-14.591-5.085-3.551.784-19.709-4.699-3.552-1.169-11.04h-2.349l-7.831 26.017-4.301.397-9.783-9.861 5.481-14.591-10.169-1.974-11.349 3.155-3.132 9.066-5.085 1.179-.386-6.308-20.735 12.618.387 4.732-3.132 4.334h-7.831l-16.83 7.091-5.879 15.816zM864.366 544.171l-1.953 7.886.387 5.514 5.867-.397 6.651-10.246-10.952-2.757zM960.626 528.4l1.17 13.014-1.566 5.912-5.868 4.334.387 5.129v5.514l1.566 1.974 16.047-13.798v-3.154h-3.915l-5.482-18.529-2.339-.396zM948.892 556.789l3.132 5.911-8.613 8.284-.783 4.334-5.868.783-9.783 9.065-9-4.334-.783-3.155 16.434-7.091 15.264-13.797zM750.481 347.094l-.309 2.514 7.489 12.584h2.183l15.607 26.106 6.243.629 3.121-9.12-4.997-3.144-.938-5.029-28.399-24.54zM796.426 364.023l3.331 3.849 12.772-4.422 2.526-9.751 5.691-.407 5.205-3.773-6.75-4.919-1.544-2.701-3.33 6.142 1.224 3.53-2.029 2.945-3.827-.981-9.276 6.805.242 3.938-4.235-.255z"/><path fill="#EEE" d="M813.665 348.947l-3.176 3.849 2.603.816 1.467-2.052-.894-2.613zM824.43 381.88l2.492 3.055-1.621 4.588v.871h3.684l1.301-11.471 1.191.332 2.162 10.478 2.063.551 1.953-4.478-1.953-6.771-1.621-2.945 5.095-3.717-1.191-1.644-4.875 3.165h-1.302l-2.381-3.496.76-1.534 4.015-1.962 6.066 1.853 1.842-.11 4.555-4.258-1.842-1.853-4.224 3.275h-2.713l-4.114-1.963-2.922.111-3.254 5.239-2.063 9.066-1.103 3.618zM851.628 361.355l-2.063 5.018 3.253 4.258h1.081l1.412-2.835.76-.981-1.411-1.534-2.063-.76-.969-3.166zM858.024 377.843l-4.445.981-1.301 1.423 1.08 1.853 2.923-1.091 1.842-1.092 2.713 2.184 1.191-.982-2.162-2.625-1.841-.651zM784.328 392.038l-3.033 2.073.651 1.743 9.65 2.183 4.875.871 2.063 2.184 5.525.441 2.603 2.184 2.383-.551 2.172-1.964-4.014-1.853-3.464-2.945-8.999-2.184-10.412-2.182zM815.87 401.533l-2.381 1.313 1.411 1.533 3.464-1.312-2.494-1.534zM819.985 400.552l.43 2.073 2.493.651.97-1.202-1.081-1.644-2.812.122zM825.952 406.011l-3.033.441 2.713 2.294h2.162l-1.842-2.735zM826.812 402.404l-.652 1.313 4.875.76 3.795-2.183-2.162-.65-3.463.981-1.302-1.092-1.091.871zM842.748 403.176l-5.635 4.698.54 1.202 2.382-.44 2.813-2.625 5.525-.761-1.081-1.853-4.544-.221zM924.739 381.758l-.971 1.379 5.306 4.698.728 2.757 1.444-.165.166-2.835-1.61-1.456-5.063-4.378zM927.396 388.409l-1.047.242-.64 2.835-2.008 1.301-6.033 1.059.242 2.271 6.352-.319 4.026-2.515-.242-4.378-.65-.496zM934.554 393.35l1.368 3.805 2.415 2.349.728-.651-.242-2.515-2.736-3.319-1.533.331zM941.226 399.019l.166 2.514 1.533 1.456 1.445-.893-1.29-2.681-1.854-.396zM943.156 405.261l-1.29 1.379 1.368 2.515 1.61.486-.078-1.699-1.61-2.681zM946.3 403.805l1.124 2.757 2.172 2.591 1.203-1.941-1.61-2.757-2.889-.65zM951.935 407.941l.64 3.408 1.534 2.107 1.29-2.669-3.464-2.846zM953.701 415.563l-.562.97 1.853 2.437 1.29.077-.806-3.164-1.775-.32zM949.597 420.415l-1.93.894 1.688 2.349 1.445-.816-1.203-2.427z"/><path fill="#D8D8DB" d="M999.89 451.561l-1.368 1.831-.11 2.063 1.588 1.61-.11-5.504z"/><path fill="#EEE" d="M824.253 324.992l-.949 1.809-.529 2.228-5.272 6.695.32 1.379 2.217-.32 6.849-7.654-2.636-4.137zM832.79 322.444l-.111 5.525 2.008 2.018.739 3.926 2.008.43.948-2.448-1.577-1.169-.419-6.904-3.596-1.378zM838.492 324.573l-.111 4.886 1.159 1.908 2.007-2.338-.529-4.246-2.526-.21zM839.749 320.316l2.008 2.658.948 2.547h1.799l-.32-4.356-2.008-1.379-2.427.53zM843.653 330.308l.419 3.188-3.694 2.978-3.056.32-3.264 3.507.111 1.599 3.055-.96 2.107-1.379 1.798 4.566 3.165 2.228 1.269-.431 1.158-1.379-2.526-2.547 1.478-1.17 1.688 1.379 1.158-1.907-1.158-2.338-.21-5.206-3.498-2.448zM826.47 297.905l-2.846 2.018-.32 6.375 4.434 8.602 1.478 1.169 1.897-1.279 3.265.529.629 2.868 2.427.209 1.158-1.588-1.478-2.018-1.798-1.698-3.794-.419-2.008-3.297 2.317-3.507.209-3.077-1.577-3.926-3.993-.961zM827.947 316.919l.839 2.978 1.478.959 1.059-1.379-1.688-2.338-1.688-.22zM791.673 294.816l-2.636.739-1.898 2.338 1.578 3.077 2.316.209 2.635-2.338.629-3.077-2.624-.948zM822.147 270.707l-3.904 2.978-.209 5.735 3.374 3.926.838-.739-.099-11.9zM839.54 235.536l-1.799 1.809.739 2.548 1.578.11 1.059 5.525 1.268 1.379 2.218-2.018.948-3.617-2.745-3.926-3.266-1.81zM849.245 231.929l-3.056 2.868-.11 3.298.739.959 4.113-3.507-.32-3.507-1.366-.111z"/><path fill="#EEE" d="M845.021 225.124l-5.382 6.165.948 1.489 2.637.32 4.951-3.827 3.485-.64 3.165 3.716 2.427-.849.949-3.617 4.532-.11 4.434-5.316-2.317-8.823-1.059-4.677 2.317-1.908-5.272-7.963-1.368.11-2.846 3.188v2.658l1.269 1.489.419 7.014-3.265 4.037-1.897-1.169-1.479 3.297-.32 3.077 1.159 1.809-.739 1.379-2.427-2.018h-1.688l-1.478.849-1.155.32zM854.097 177.104l-1.687 1.489.849 3.188 1.478 1.489-.11 4.886-1.897.739-1.479 3.298 4.323 5.944 2.846-.959.53-1.489-3.056-2.757 1.898-2.449 2.007.32 1.578 1.698.11-3.507 4.323-3.507 2.427-.64-2.008-3.397-.948-1.489-1.578 1.059-1.367 1.698-2.957-.639-3.055-2.018-2.227-2.957zM870.013 173.807l-2.957 4.147.21 2.018 1.478-.64 3.475-4.357-2.206-1.168zM873.917 167.751l-1.059 2.868.11 1.908 1.798-1.169 1.688-3.397v-1.268l-2.537 1.058z"/><path fill="#53AE50" d="M880.137 142.462l-1.368 1.698.111 2.658 1.268-.11 2.107-3.717-2.118-.529zM877.611 148.947v4.676l1.478.529 1.059-1.699v-3.606l-2.537.1z"/><path fill="#EEE" d="M834.477 132.05l-.099 6.805 8.537 13.18 3.055 11.47 5.383 10.202 2.106.739 1.799-1.488.838-2.449-7.699-8.393.21-4.357 1.688-.739.419-2.548-15.077-21.352-1.16-1.07z"/><path fill="#53AE50" d="M925.632 39.186l-2.603 1.699-.617 2.162 1.225 1.389 2.757-.926 2.757.926 1.533.463-.154-5.095-4.898-.618zM8.426 118.451l-.187 3.32 2.382-.551v-1.478l-2.195-1.291zM4.764 119.93L0 122.334l.739 2.581 1.831-1.478 3.661-1.665-1.467-1.842z"/><path fill="#EEE" d="M606.904 408.14l-2.349 5.581-4.026 7.102-7.047.507-3.022 3.551.507 10.831-4.367 5.073.507 8.625 3.695 4.224 4.367-.507 4.367-3.22-1.004-5.073 10.069-17.427-2.018-2.194 2.018-4.224 2.184.672.672-1.687-2.018-8.625-1.179-3.551-1.356.342z"/><path fill="#D8D8DB" d="M412.044 276.685l-1.93 1.114.893.904 1.037-2.018z"/><path fill="#EEE" d="M258.719 309.375l-1.654.684.584 1.466 1.941-1.268-.386-.397-.485-.485zM261.442 311.04l-.97 2.063 1.169 1.566 1.456-1.268-1.655-2.361zM264.751 316.72l-1.169 1.081.871 1.765 1.654-.485-1.356-2.361zM264.652 321.132l-.783 1.666 1.268 1.367 1.654-.882-2.139-2.151zM264.751 325.345l-1.357.982 1.07 1.963 1.753-.982-1.466-1.963zM263.097 329.161l-1.268 1.268.485.783h1.555l.485-1.279-1.257-.772zM264.939 332.988l-1.169 1.081-1.269.199v1.567l2.338 2.15.97-1.566.585-1.764-.199-1.467-1.256-.2zM252.597 306.827l-2.911-.982-2.338 1.467 1.169 1.367 3.981.585.099-2.437zM230.341 300.563l-1.842 1.886 2.106.861.309 2.636-4.665.408.474 2.537 1.357.099.783-1.169 5.449.177.981 1.886 1.257-1.478 3.673-.993 3.231.684.375-1.952-5.824-3.805-3.772-1.412-3.892-.365z"/><path fill="#EEE" d="M243.84 306.143l-5.834-3.816-2.757-.938-.926 6.617.97 1.864 1.268-1.466 3.695-.982 3.21.684.374-1.963zM230.33 300.563l3.794.397-.452 4.654-.375 2.449-4.422-.243-.783 1.18-1.357-.099-.485-2.548 4.665-.386-.287-2.647-2.14-.882 1.842-1.875zM293.295 557.318l-2.901-.32-2.889 1.942 2.095 2.272 3.695-3.894zM296.184 555.863l-.959 3.077-2.735 2.425.165.806 4.665-1.787 1.93-2.427-3.066-2.094zM401.831 126.227l-2.162-1.224-2.912 1.842-2.503 2.316.066 1.29 3.243.408-.199 2.316-1.147 1.158.276.75 3.243.21v3.75l4.666.816 2.768 1.566 3.109.133 5.339-2.658 4.124-5.448.067-3.684-2.504-2.117-2.095-1.776-.949.683-1.423 1.842-1.621-.21-1.621-1.775-2.096.199-3.044 2.526-1.831 1.974-1.015-.883-.067-2.184 1.015-.684-.727-1.136zM492.158 56.358l-1.819-1.831-4.037 1.963h-7.411l-1.17 4.323 4.158 3.673 1.819-.265 2.603-4.456 2.206 1.577-1.566 3.143-.783 4.588 1.819 2.878 3.904-6.551 5.074-6.166-1.953-1.698-2.844-1.178zM494.364 48.495l-3.254 3.011 1.953 3.011h3.507l1.434 1.963 4.291 2.228 4.94-2.878 3.386-2.878-1.169-2.36-3.386-1.963-2.471 2.227-1.688-2.095-1.301.132-1.688 3.673-2.47-2.493-.265-1.699-1.819.121zM501.776 61.994l-2.603 2.36-2.206 1.698 1.036 1.831 2.085.65 3.386-1.577 1.566-1.963-1.435-2.36-1.829-.639zM557.848 39.627l1.897.761-1.334 2.294v3.253l-2.846 1.721h-3.033l-1.709-2.106.187-2.294 1.334-1.721h2.658l2.846-1.908zM565.061 37.521v2.294l1.897 1.533 2.658-.187 2.282-2.107v-1.533h-2.084l-1.709.574-1.334-1.533-1.71.959zM575.89 37.719l1.334 2.868 2.658.187 1.897-.761-.948-2.68-2.471-.574-2.47.96zM586.71 33.892l-2.085-.386-1.897 1.919.949 1.721.573 2.68 2.471-1.908.573-2.107-.584-1.919z"/><path fill="#53AE50" d="M598.291 54.175l-.574 2.68-4.367 3.827-9.308 2.107-7.6 12.628-1.334 3.639 7.6 1.919 1.135-4.588 2.283-7.081 5.889-3.066 4.942-3.827 3.606-1.533h1.897v-5.162l-4.169-1.543zM573.796 82.111l5.128.574 1.71 5.933 4.367 4.588-1.522 3.066h-2.658l-2.471-2.868-5.504-.187-2.283-3.066v-2.107l3.42-.96-.187-4.973zM653.943 16.863l-2.471-1.533h-2.846l-.573 1.721-3.033 1.721-2.283.761-.375 2.294 5.315.386 6.266-5.35zM659.822 17.437l-1.335 2.868-2.658-.187-4.18 3.066-1.136 3.827h2.658l1.522-2.493 3.607 2.68 3.419-1.533 2.471-2.107-.949-3.253-1.334-2.294-2.085-.574zM665.336 19.544l1.334 5.36 2.084 4.974 2.283-4.015 4.367-.96v-2.868l-2.846-2.106-7.222-.385zM769.538 10.963l2.967 2.493 2.107-.871.617-3.496-4.323-2.989-2.846 1.875-6.927.629v3.121l-7.301.121v5.106l8.537 6.353 2.228-1.622-.497-4.489 5.448-1.368-1.114-2.118-1.974-1.996 3.078-.749zM777.457 7.974l1.974 3.739 7.676-.871 2.106-2.746-.495-2.372-2.107-.871-1.974 1.5-5.691 1.246-1.489.375zM776.961 22.555l-3.839-.993-2.217 2.371-.993 3.242 5.195-.497 3.96-1.996-2.106-2.127zM876.431.993L873.211 0l-3.705 1.368-1.854 2.746 2.349 3.121 6.188-2.746 1.235-1.368-.993-2.128z"/><path fill="#EEE" d="M704.224 336.594l.276 3 .276 2.184-1.621.276.815 4.908 2.437 1.368 3.784-2.184-1.081-5.173.276-1.908-3.518-3.264-1.644.793zM197.232 291.232v1.401l5.867.11 2.769-1.61.43 1.18 5.757 1.401 5.118 4.621-1.169 1.61.21 1.831 4.268 1.07 4.268-1.93 1.919-1.93-2.769-1.401-14.282-8.382-5.007-.541-7.379 2.57zM217.922 282.64l-1.389-.43-.11 2.68 1.709 1.721 1.169-1.721-1.379-2.25zM220.691 286.832l-1.919 1.069 1.809 2.581.96-1.291-.85-2.359zM226.878 288.762l-2.029-.11.21 1.29 1.489 2.151 1.279-1.401-.949-1.93zM225.918 286.192l-3.309-1.401-.64-3.331 1.279-.541 1.28 2.581 1.279.97.111 1.722z"/><path fill="#D8D8DB" d="M222.72 279.42l-1.709-.43-.32-2.15-1.809-.64 1.169-1.18 2.129.75 1.599.97-1.059 2.68z"/><path fill="#EEE" d="M217.172 305.206l-3.838.971v1.069l2.239 1.29h2.349l1.489-1.721-2.239-1.609zM871.192 371.104l-4.599.518-2.955 2.162 1.225 2.471 5.007.926v.927l-3.165 2.569 1.533 5.35 1.533.099 1.324-5.25h2.448l1.026 5.14 11.945 9.882.308 7.72 4.081 4.422 1.842-.099.408-27.264-6.937-4.831-6.54 4.423-2.349 1.444-3.883-2.471-.099-7.819-2.153-.319z"/><path fill="#53AE50" d="M56.347 46.355l-9.253 2.195 1.908 10.423 10.069 2.746.54 2.195-14.966 4.665-8.437 13.984 2.989 14.812 4.897 3.287L47.91 97.1l1.092 2.195-4.632 5.481-17.966 8.228-11.437 2.747-.276 4.114 26.403-7.676 10.886-3.022 10.069-12.341 11.161-7.4-5.713 9.595 6.264.827 10.621-4.665 1.908 7.676 7.345 1.643 7.621 7.4.54 5.482-1.092 1.367 1.357 5.206h1.908l.276-8.779h2.172l.541 21.661 5.448-4.665-3.816-22.488h-5.713l-6.264-7.952 30.76-52.112L96.89 25.764l-34.025 6.585-1.357 10.423 7.346 4.39-2.724 7.135-9.783-7.942zM178.35 36.429l.243 4.434-8.801 9.121 2.206 7.389 6.352-1.721 3.673-5.426 9.286-3.452 7.577-.497-5.868-6.408-2.933 2.217-2.206-.739-1.225-2.713-2.691-2.713-5.613.508zM189.842 23.37l-1.952 3.453 9.54 3.452 3.419-5.173 1.467 3.452h2.449l4.643-5.172-5.625-1.478-2.206-1.72-2.934 2.955-8.801.231zM206.474 30.275l-7.577 3.198v2.459l9.783 3.695-2.206 2.459 1.467 3.198 6.11-2.713h5.139l2.449 3.938 4.158-4.191-.982-3.948-3.419 1.235-.485-4.93 1.71-2.955h-1.71l-2.691 1.721-1.224.981.739 3.453-1.952 1.478-2.934-.243-.739-4.434-5.636-4.401zM216.499 22.632l-.739 2.459 4.643 2.217 3.419-1.974-.242-1.478-7.081-1.224zM220.161 18.441l-3.419 1.235.242 1.72 7.577-.496-.242-1.721-4.158-.738zM236.55 22.632l-.485 1.721-1.224 1.721v2.459l4.643-.739 4.885 4.191h1.71v-4.191l-4.886-5.426-4.643.264zM249.024 27.562l1.952 2.217-1.71 2.956 1.225 3.198 5.382-2.956V30.76l-3.176-3.695-3.673.497zM256.116 21.893l.242 3.938h6.607l1.709 1.478-.243 1.721-5.867.739 4.158 5.669 5.625.981 7.819-3.452-11.25-17.007-3.419 2.216.242 2.956-3.915-1.478-1.708 2.239zM199.14 49.741l-9.286 2.459-5.383 4.687.486 5.173 9.782 2.956-2.206 4.93-7.091-4.434-1.952 3.695 4.643 3.198-.243 5.173 7.092 1.974 8.558-.497 1.467-2.713 6.353 7.147 4.4-1.478.739-4.93 3.177 2.217.485-4.93-3.916-2.459.243-15.518-3.419-2.713-3.662 4.93-10.267-8.867zM228.973 60.582l-3.176-1.478-1.709 2.217 3.419 5.426.243 5.173 7.334-4.434v-6.407l2.691-2.713-2.691-1.974h-4.4l-1.711 4.19zM244.623 58.366l-5.139 4.191 1.224 5.172h3.176l1.467-2.713 2.206 2.216 2.206-.242 5.867-4.93-11.007-3.694zM244.127 50.226l-1.225 2.459 5.382 1.974 1.467-2.217-5.624-2.216zM240.951 40.863l-5.382.739-3.176 2.955 5.867.243-1.709 4.434 1.224 1.974 1.71-.243 4.158-6.65-2.692-3.452zM250.248 39.142l-2.934.982.486 3.937 4.886 3.198.243 2.459-1.467 1.478.739 4.93 18.827 6.154 5.139 1.721 5.14-4.434-6.11-4.93-5.625 1.478-7.819-.739-2.934-2.955-.739-8.129-4.886-2.459-2.946-2.691zM265.645 64.773l-5.382-.496-6.352 2.459-3.419 4.676.981 12.816 10.511.497 10.025 4.93 7.092 8.128 5.382-.243-1.467 7.632-4.886 8.128-5.383 2.459-3.915-.739-1.952-1.721-2.934 3.938 1.225 3.937 4.158.243 5.139-2.459 4.401 11.338 11.007 7.147 7.577-9.606-6.353-10.345 3.673-4.191 5.14 8.625 9.286-8.129-1.71-3.695-6.352 1.974L296.735 100l4.158-6.893-8.316-8.867-4.643 3.198-4.4-9.606-9.286 1.235-2.449-11.58-7.577 5.173-.739 6.407h-4.158l.485-5.668 5.835-8.626z"/><path fill="#53AE50" d="M276.652 69.207l-1.952 1.974 1.71 2.713 8.073.982-5.14-5.426-2.691-.243zM268.832 41.359v2.217l-5.382 1.235 1.466 2.459 6.11 2.46 6.849.739 4.886 3.452 4.886-2.713-3.419-3.452h4.4l2.692-2.956 6.606-.982V42.34l-3.673-2.459.485-2.713 10.268 1.721 15.165-5.912-5.625-1.72 1.467-1.974h11.735l1.952-1.974-23.724-8.382-5.624-1.974-6.11 4.434-6.849-5.669-3.673-.242-.739 4.687-4.643-4.191-5.382 1.721.982 2.713 8.073 1.721-.485 3.938 4.401 2.713 10.764-2.713.243 3.694-8.801 4.191-5.382-4.191-4.886.497 4.886 6.904-2.449 1.235-3.673-3.198-2.691 1.721 2.449 4.676h4.158l-.982 4.434-3.419-.496-4.4-4.687-2.912.514zM247.039 109.176l-4.665 5.867-.287 6.463 4.081-2.349h4.952l3.496 3.232 3.21-2.647-10.787-10.566zM303.849 185.497l-11.657 11.161 1.169 2.647 14.272 5.283 2.04-3.518-1.169-5.867-4.666.584-2.625-2.934 4.367-4.4-1.731-2.956z"/><path fill="#53AE50" d="M128.157 50.513l2.195 3.319 1.103 4.434 5.492 1.379 3.849-4.147 3.297 1.665 9.342.827 6.595-2.768 1.103 9.132h3.849v-3.871l3.849.276 9.617 11.349 6.32 3.871-3.297 5.261 1.379 1.379 12.341 2.493.276 5.536 3.298.551.827-8.305 5.217-1.379 3.849 5.812 8.239 3.871 4.125.827 2.747-3.32.276-5.261 4.941-3.044 1.643 4.434-4.4 7.754.551 3.871 2.47-3.871 4.941-4.434.276-5.812-2.746-4.434.827-3.595 6.595-3.32 3.022 2.217.551 19.378 4.665-4.147 2.747 1.666-3.849 6.639 4.941 1.103 7.147-11.073 6.044 6.364-2.471 11.349-6.044 3.32-5.768-2.768-10.433 2.217 1.103 3.596-2.746 4.434-8.514 1.941-9.618 7.478-8.514 11.349-1.103 3.595 5.768 2.217 2.194 5.536 7.963 8.029 12.639 5.537-2.746 12.727-.276 3.595 3.298 2.217 4.4-5.812.551-11.073 6.871-.276 3.298-6.364.551-9.684 8.79-17.161 10.985 3.871 5.768 8.029-2.471 8.029 4.401 2.492 10.709-7.202 3.022 19.653 9.893 11.9.276 6.088-10.985 2.769-5.217 5.537L279 187.812l-5.493-.276-9.617 7.478 5.768-1.379 7.147-1.379 1.379 1.665-1.919 6.088.276 5.537 3.297 2.217 3.298-.827 1.654-2.493h2.195l-3.573 6.639-6.872.276-3.022 4.434h-3.849l-1.103-3.32 5.492-5.536-6.595 2.217-.298-9.408-1.897-1.103-5.768 2.493-.551 4.709H245.76l-11.261 7.753-15.11 4.985-1.643-2.217 7.61-11.36-4.323-4.158-2.747-5.272-5.591-4.268-6-.496-10.753-7.533-77.986-12.816-1.291-5.283-7.147-6.639v-5.537l1.103-4.985-.551-2.768-2.746-2.769-.551-4.434 7.147-4.985-4.401-23.8-6.044-.276-5.492-7.202 30.174-51.271z"/><path fill="#53AE50" d="M117.723 171.479l-1.103 4.434-3.849-2.492h-1.919l-1.103 4.709-13.466 30.175 3.574 26.293 4.4 2.217.827 7.202h9.066l8.79 6.639 17.305 1.666 1.919 8.856 2.747 1.941 3.849-3.872 3.022 1.379 2.746 12.728 4.665 3.044 3.849-7.202 11.812-8.58 7.687 3.595 6.595.551.276-4.147 13.731.276 2.746 3.044.551 6.915-1.644 3.871 1.919 6.639h4.125l4.125-6.363-1.644-3.044-1.643-6.639 2.47-7.477 11.261-9.684 8.515-2.492-1.103-8.029 11.812-12.738 11.812-1.941-1.919-6.628 11.536-6.639v-8.856l-1.103-.551-4.125 1.379-.551 5.426-13.709.165-10.742 7.136-16.863 5.514-2.691-3.298 7.654-11.58-3.783-3.606-2.57-4.897-5.327-4.279-5.79-.486-10.941-7.466-77.798-12.808zM101.257 138.47l-1.875 3.595.651 2.548 1.224.761-.287 1.037-1.312.375.375 3.783 1.411 1.423 1.125-1.224-1.411-3.684.838-2.933 2.063-2.747-1.5-2.548-1.302-.386zM107.456 160.02l-1.688.661 3.099 3.596.75 4.257 3.099 3.309 2.625-.474v-4.346l-3.187-1.985-4.698-5.018z"/><path fill="#EEE" d="M168.589 318.363l6.54 4.786 6.595-8.194-1.125-1.699-2.25-.078v-4.798l-1.687-1.025-5.107 1.522 1.952 4.5-4.918 4.986zM182.563 315.341l10.191-.386 3.022 3.595-1.886-.43-3.629.155-4.742 4.456-2.029 4.511-1.334-.705-.011-4.941-2.934-1.964 3.352-4.291z"/><path fill="#EEE" d="M176.056 323.602l5.184 2.581-.078-4.092-2.658-1.621-2.448 3.132zM193.802 319.014l2.415.485.077 4.952-2.812 8.029-7.577-.75-1.688-3.871 2.25-4.698 4.268-3.971 3.067-.176zM193.405 333.209l1.533 3 1.246 1.654-1.676 4.974-3.198-2.25-5.228-4.786v-3.165l7.323.573zM196.945 338.315l-1.61 5.029 5.316 1.379 3.297.651.563-3.892 3.54-1.787 3.143 1.621 1.235 1.974 1.5-.177 1.18-3.584-3.926-1.621-2.978-1.622-2.978 2.03-3.54 1.787-3.618-1.456-1.124-.332z"/><path fill="#EEE" d="M233.495 327.473l-2.272-.232-15.022 12.386-1.588 4.357-2.051.232.916 9.629-5.239 12.848 5.691 4.82 7.29.463 5.007 7.345 7.279.232-.232 5.504h2.724l2.956-10.092-2.735-3.441.683-6.418 5.691-.463-.684-14.912-12.75-4.125-2.955-8.028 7.291-10.105z"/><path fill="#EEE" d="M229.889 334.245l.485 2.856 3.584 1.136.816-5.261 3.783-3.915 3.783 4.434 8.702 2.371 7.367-1.543 5.019 6.187 3.783 2.372-4.147 6.32 1.389 4.786-2.371 2.934-2.459 2.061-5.327-2.68-1.224 1.235v3.816l3.893 1.853-2.867 3.1-2.868 3.099-3.783-.309-3.805-4.179-.805-15.728-12.993-4.433-2.36-6.916 2.405-3.596z"/><path fill="#EEE" d="M268.038 343.3l7.963 7.213-3.165 3.662-.254 2.172 4.158 4.29-.099 4.125-7.235 2.757-4.335-5.856.927-7.036-1.853-5.239 3.893-6.088z"/><path fill="#EEE" d="M276.949 351.031l2.25 2.063 3.485-2.162 3.176.099-.408 1.235-1.334 2.78-.21 6.915-6.342 2.581.309-4.433-4.092-3.816.209-1.964 2.957-3.298zM286.875 351.759l6.452 4.026-3.375 6.706-1.224 1.543-3.584-2.063.099-7.224 1.632-2.988zM207.544 367.255l-5.217 3.243-.375 4.809-1.047 1.577 3.287 3.155-1.423 1.554.331 3.971 5.879 1.4 8.9-10.532-.022-3.673-4.268-.276-6.045-5.228z"/><path fill="#EEE" d="M201.842 382.331l-2.14 2.163.144 3.452 18.683 34.057 19.4 12.507 3-5.03.717-11.061-1.566-6.893-5.283-8.911-3.143 1.004-1.423 1.577-6.275-7.19 1.566-8.482 7.279-4.742-.574-4.456-7.412-.287-3.849-6.463-2.14-.717.143 3.883-9.551 11.349-7.135-1.721-.441-4.039z"/><path fill="#EEE" d="M238.988 407.996l9.077-3.959 3 .287 1.996 8.337 13.83 4.6 2.283 7.047 5.702.717 2.427 6.033-1.71 5.46-9.275.716-3.419 8.768-7.279-.143-2.283-.43-4.202 4.08-2.073-.198-7.136-16.533 1.974-2.955.695-11.69-1.765-6.96-1.842-3.177z"/><path fill="#EEE" d="M275.438 437.466l2.427 2.647-.287 5.603 6.992-.431 5.283 6.762-.43 6.033-3.419 5.172-6.992.288-.287-2.879 1.996-4.742-6.849-4.312h-5.702l-4.279-4.599 3.11-8.89 8.437-.652zM284.923 473.221l-2.261 2.416.938 12.993 7.103 2.061 9.033-9.055-14.813-8.415z"/><path fill="#EEE" d="M290.559 458.079l2.14 2.007-8.129 12.077-2.856 3.165.992 13.797 6.275 7.621-5.272 9.198-3.992 1.721h-4.566l1.28 7.18-7.136 2.448 1.71 6.034-4.28 13.654 5.283 4.313-2.856 7.036-4.853 7.621 2.57 5.315-6.276 1.004-5.139-6.319-.86-19.687-7.985-33.44 2.415-11.69-5.14-14.944 3.419-19.4 3.143-3.74-.772-2.834 4.037-3.683 9 .617 5.029 5.371 5.812.099 5.956 3.639-1.754 4.102.419 4.148 8.437-.397 3.949-6.033zM268.027 563.847l-4.709 10.346 8.128.859.143-6.893-3.562-4.312zM272.306 569.02l.287 6.319 4.853-.43 4.136-2.735-6.992-1.435-2.284-1.719z"/><path fill="#EEE" d="M266.428 562.226l-3.54 3.915-.43 4.599-6.849-3.882-7.279-10.488-2.14-3.74 3-3.882-.287-4.887-3.419-1.434-2.713-2.006.574-2.736 3.562-1.004.717-15.805-5.559-3.165-3.629-82.265.938-1.632 7.103 16.378 2.272.044.739 2.614-3.022 3.662-3.475 19.709 4.941 15.176-2.283 11.492 8.051 33.792.849 19.764 5.768 6.673 6.111-.892z"/><path fill="#EEE" d="M242.925 520.878l-1.422 2.151.717 3.74 1.423.143.717-4.742-1.435-1.292zM300.232 480.853l6.893-13.256.254-11.139 12.859-8.294h7.202l5.658-9.585 1.026-18.396-2.316-4.919 13.632-12.441.519-13.73-18.518-9.067-22.367-6.992-10.544-1.036 2.835-5.956-.772-9.065-2.305-.762-3.408 6.773-1.786 2.238-4.588-2.029-15.429 5.437-5.14-6.473.827-6.762-4.853 4.942-5.361-2.89-.54.761.011 2.349 4.622 2.482-6.937 7.312-4.379-.044-4.434-4.511-5.018.154-.618 5.361 2.878 3.496-3.397 10.886-3.971.308-6.32 3.993-1.544 7.842 5.482 5.868 1.003-1.136 3.849-1.037 3.287 5.537 9.408-4.037 3.65.21 2.515 8.9 13.422 4.258 2.316 7.102 5.713.684 2.724 6.783-1.842 6.033 2.404 3.155-.353 4.698 6.441-.606 5.901 7.455-.463 5.239 3.496 2.955-8.382 12.695 14.758 8.257zM179.266 308.305l-.055 4.025h.927l3.154-5.889h-2.14l-1.886 1.864z"/><path fill="#53AE50" d="M855.796 77.281l1.942 6.705 3.882 1.114 3.882-6.143-2.216-4.191.827-3.629h5.824l-1.389 2.791.551 10.058-8.316 20.669.827 4.467-.276 7.544 15.518 22.62 3.044.839.276-18.429 3.044-2.791-3.33-7.257 2.768-3.077-6.099-8.095-3.331.276-1.103-13.4 8.592-2.239.551-3.915 4.434-1.114 2.492 2.239 3.044-12.286 5.261-8.934 4.157-2.239 3.607.276v-4.191l-5.824-1.114-8.04-6.706 3.883-4.467-3.331-7.544 2.768-2.791 3.331 4.467 8.316 3.077 9.143.838 1.114-3.904-4.709-4.742 5.26-7.257-11.922-4.191-3.045 6.143-3.882-5.029-21.892-7.544-20.79 3.629-3.044 1.676v1.676l4.433 2.239-.551 5.305-8.039-3.353-17.735 6.981-3.045-6.419H814.46l-5.548 5.868-19.676-4.467-18.01 3.629-2.216 5.581 2.768.838-.276 4.191-17.459 1.952 1.114 5.581-16.08-2.791 3.883-7.257-16.356-.838 1.389 7.544-5.26 2.515-4.434-4.191-18.01 3.077-6.926 6.419-.276 3.904-4.433.276-.551-4.467 14.14-12.286v-8.382L693.1 30.1l-11.923 3.904-4.985-5.029h-2.216l-2.769 5.581 2.218 2.514-15.805 8.658-13.581 10.332-8.316 11.448v4.743l8.867 3.629-4.433 3.353-9.419-3.353-3.883 3.353-5.824-6.706-1.114 2.514 6.375 20.106 1.665.563 4.434-2.239 2.216 1.676v3.629L630.45 97.1l-2.493 1.952 1.666 3.629-1.391 9.496-8.592.839-.551-3.077 4.986-3.077 1.114-8.382-5.548-7.257-1.941-12.562-8.867-1.401-.827 4.467 1.665 2.239-3.606 3.077 1.389 8.382 5.261 2.239 1.114 6.143-5.272-3.353-13.576-2.514-1.666 4.467-10.808 3.904-1.665-2.791-14.14 7.82-.276 5.305-5.547.838 1.665-3.904v-3.904l-5.548-1.952-3.606 1.401 3.044 5.868 2.217 3.904v3.077l-4.157-.839-.827-.838-4.159 4.467 2.216 3.904-9.419-.276 3.045 3.915-.827 1.676h-4.986l-3.606-2.514-.827-6.981-5.824-2.239v-2.791l12.198 2.515 6.651.562 2.768-4.191-2.492-4.467-17.735-6.981-6.121 1.522-2.096 1.797.652 4.136 2.602.452-.606 6.507 8.029 18.86-5.802 9.198-.396 2.073 2.945 2.073-2.658 1.754-1.764.033.331 8.106 2.437 3.452.033 3.353 3.121.287 4.776 1.82 5.051 6.948.055 1.831-1.644 2.812 3.772-.21 3.673 1.059 4.963 7.026 12.22 1.114-.53 8.36-4.212 3.607.871 1.412-4.159 4.467-1.103 4.191 2.492 3.628 8.04 2.791 3.331-1.952 21.341 8.095.827-2.239-4.433-4.191v-5.305l-2.769-.838.551-4.467 4.434-5.305-7.952-5.956.551-8.283 8.503-5.592 9.981.562 1.665 3.077 10.258.563 7.489-4.191-3.883-4.191.827-7.82 19.4-9.496 14.923 6.728 4.985-4.467 14.691 13.962 11.084-1.114 3.883 3.904 10.533 1.114 6.926-9.496 8.867 3.915 4.709.839 4.71-4.191-4.159-2.79 3.607-5.581 10.257 3.353 2.217 4.467 4.434.276 2.768-1.952 7.489-.276.827 1.952 8.592.563 5.823-6.144 11.923 1.401 3.606-1.401 1.103-6.705-3.606-8.096 3.606-3.077h11.361l10.808 12.849 13.852 7.819h4.159l.551-3.353 4.985-3.077.551 18.154-4.433.276v4.467l2.492 3.077-.463 3.993 1.842.761 1.114-2.79 1.666.562 1.103 1.114 4.985-1.114 4.985-14.525.551-18.154-6.374-14.525-8.04-9.772-3.883.562v3.077l-9.419-3.629 3.607-7.819 3.044-20.669 12.75-3.904 6.098-3.904h6.651l-1.665 2.239 1.665 2.791 5.824-6.144 3.33.276-.551-3.629-5.272-1.114 3.607-13.125 4.754-4.498z"/><path fill="#EEE" d="M693.041 184.416l-3.816 9.595-5.261-.276-5.548 12.143 4.71 6-9.705 13.4-4.986-.838-3.33 4.191.827 2.514 3.882.276 1.941 4.467 3.883.838 11.922 15.364v7.819l5.824 3.629 6.375-1.114 8.04 4.743 9.705 2.79 4.709-.562 5.272-.563 11.084-7.257 3.607.563 1.379 3.275 3.055.915 4.158 6.144-2.768 6.143 1.665 4.191 4.709 1.676.827 5.029 5.548.563.827-2.515 8.04-4.191 4.986.276 5.823 6.419 3.883-1.677 2.492.276 1.114 3.077 1.942.276 2.768-3.904 11.084-4.191 9.981-12.011 3.331-11.448-.276-7.544-4.158-.839 2.492-2.79-.551-4.467-10.532-10.609v-5.305l3.044-3.904 3.045-1.401.276-3.077h-7.764l-1.389 4.191-3.607-.838-4.433-4.743 2.768-7.257 3.882-4.191 3.607.276-.551 6.419 1.941 1.677 4.71-4.743 1.665-.276-.551-3.629 4.433-5.305 3.331.276 1.941-6.143 2.273-1.202.232-3.827-2.206-2.316-.188-6.044 4.247-.276-.276-15.584-2.978 1.787-1.114 3.993-4.974-.011-14.415-8.106-10.412-12.551-10.566-.11-2.691 2.338 3.419 7.831-1.191 7.345-4.256 1.765-2.393-.187-.177 7.268 2.492.562 4.434-1.952 5.823 2.79v2.791l-4.157.276-3.331 7.257-3.044.276-10.808 14.238-11.36 5.029-7.764.563-5.261-3.629-7.489 3.915-8.04-2.514-1.941-5.305-13.576-.839-7.202-11.724h-3.044l-2.449-5.437-2.919-.233z"/><path fill="#EEE" d="M696.791 184.526l6.419-8.514 7.71 3.562 5.239 1.401 6.418-5.89-4.356-3.209 2.867-4.048 8.558 3.022 2.967 4.864 5.359.143 2.802-2.085 5.769-.232 1.257 2.14 9.585.485 6.066-6.187 8.392.883-.485 8.426 3.673.839 4.511-2.052 4.776 2.36-.111 1.191-3.463.099-3.606 7.566-2.801.276-10.897 14.238-11.129 4.908-6.959.54-5.78-3.728-7.39 3.948-7.279-2.261-2.063-5.283-13.786-.971-7.059-11.966-3.429-.221-1.775-4.244zM812.022 211.106l2.029.849.617 7.103 4.026.232 3.794-4.444-1.313-1.169.154-4.764 3.485-4.213-1.775-3.198 1.158-1.324.64-3.309-2.018-.915-1.721.871-2.128 6.463-3.441-.298-3.982 4.698.475 3.418zM823.117 215.441l6.816 5.559 1.159 5.382-.232 2.89-3.331 3.75-2.867.154-3.254-7.025-1.235-3.353 1.313-1.015-.309-1.401-1.621-.728 3.561-4.213z"/><path fill="#53AE50" d="M589.689 204.875l4.521-1.93 5.051-.177.353 7.72h-2.956l-2.261 3.683 2.955 4.908 4.357 2.459.397 2.812 1.599-.529 1.478-1.753 2.437.529 1.225 2.459h3.132v-3.154l-1.919-5.614-.871-4.555 5.569-2.459 7.489 1.224 4.698 4.732 10.621-1.047 5.923 8.415 6.96.353 1.919-3.154 2.437-.529.352-3.507 3.651-.177 1.918 2.283 1.919-4.555 16.533 2.283 2.779-3.683-4.698-5.79 6.265-13.676 5.05.353 3.485-8.415-6.959-.706-4.003-3.86-11.029 1.28-14.205-13.731-5.007 4.445-15.188-6.893-18.628 9.121-.518 6.485 4.356 5.084-8.491 4.798-11.018-.242-2.305-3.386-8.636-.474-8.183 5.26-.177 7.191 7.623 6.119z"/><path fill="#EEE" d="M608.613 225.797l-.683 2.901h-4.577v3.926l4.919 3.243-1.522 4.444v2.051l2.04.342 2.713-3.584 6.11-1.367 13.058 4.952.166 3.584 7.291.684 8.139-8.547-1.015-2.735-5.426-1.191-15.265-9.915-.683-3.585h-5.769l-2.547 4.786h-2.548l-4.401.011z"/><path fill="#EEE" d="M647.292 238.447l3.397.177v-5.812l-3.22-1.875 5.426-6.838h2.206l2.206 2.57 5.769-2.217-7.975-2.735-.309-1.654-1.897.463-1.864 3.242-8.04-.265-5.9-8.349-10.368 1.026-4.94-4.897-6.838-1.158-4.963 2.018 2.879 9.573.033 3.22 2.095.044 2.57-4.897 6.838.088 1.015 3.761 14.658 9.727 5.669 1.302 1.553 3.486z"/><path fill="#53AE50" d="M648.694 230.484l4.532-5.624h1.709l.596 1.257-2.095 1.522v1.257l1.379.992 6.628.397 2.162-.927.981.199.662 2.117 3.937.397 1.974 4.169-.596 1.257-.783.066-.783-1.588-1.709-.132-2.955.397-.199 2.779-2.955-.199.132-3.507-2.162-2.118-3.287 2.713.067 1.787-2.89.993h-1.709l.132-6.154-2.768-2.05z"/><path fill="#53AE50" d="M655.994 216.555l-.341 2.791.276 1.72 9.595 3.221-8.427 3.396-.959-.794-1.82 1.169.088.64.97.441 5.912.154 3-.904 3.849-4.853 4.819.838 5.813-8.051-15.55-2.117-2.151 5.217-2.713-2.912-2.361.044z"/><path fill="#EEE" d="M630.97 247.259l1.753 13.742 4.367.96.408 2.471-3.132 2.614 5.834 4.709 11.337-4.08.905-4.831 7.136-4.456 2.736-10.323 2.04-2.195-2.117-3.683 6.905-4.268-.883-1.235-3.187.199-.286 2.933-4.279-.044-.078-3.915-1.379-1.643-2.316 2.106.066 1.93-3.496 1.324-6.453-.408-8.382 8.779-7.499-.686z"/><path fill="#EEE" d="M640.907 272.394l2.868 4.258-.276 2.194-3.817 1.511-.276 3.573h4.369l1.499-1.235h8.316l7.5 6.595.96-3.166h5.592l.132-3.981-5.724-5.492 1.225-3.022 5.867-.408 7.909-16.488-4.368-3.43-1.632-5.769 10.632-.959-6.275-8.934-3.342-.905-1.368 1.654-1.025.078-6.276 3.981 2.052 3.441-2.316 2.47-2.868 10.577-7.091 4.533-.96 4.952-11.307 3.972z"/><path fill="#EEE" d="M693.681 342.065l5.05-2.471 3.001-10.852-.132-13.323 17.183-18.551v-4.401l3.54-1.379-.132-5.084-3.816-7.423 2.183-3.982 4.776 4.401 6.133.276v2.471l-1.909 2.062.408 1.103 3.275.133.684 3.706h.96l2.46-4.4 1.224-11.536 4.092-2.89.133-3.981-1.632-3.165-2.592-.132-10.146 6.706.639 4.312-7.125-.022-2.514-3.077-1.368.176.463 4.28-15.407-1.103-9.551-4.258-.507-5.239-6.364-3.948-.076-8.128-4.367-4.996-10.037.96 1.092 4.367 4.919 3.982-8.503 17.404-5.691.43-.937 2.095 5.603 5.183-.276 5.239-5.724-.088-.617 2.603 4.753-.209.132 2.063-3.408 1.786 2.183 4.125 4.224 1.379 2.593-1.919 1.224-3.43 1.5-.684 1.776 1.787-.541 4.401-1.225 2.062.276 3.574 18.118 37.605z"/><path fill="#EEE" d="M693.913 264.366l.507 4.709 8.912 4.037 14.282 1.059-.54-3.453-9.541-2.625-8.095-4.82-5.525 1.093zM720.614 270.454l1.709 2.338 5.779.044-.585-3.199-6.903.817zM720.801 276.001l-1.445 2.614 3.75 7.125.11 5.559.684 1.489 4.401.077 2.492-2.393 1.808 1.092.364 3.386 1.445-.904.088-4.324-1.214-.143-.76-3.673-3.066-.11-.76-2.04 1.874-2.504.033-1.235h-5.448l-4.356-4.016z"/><path fill="#EEE" d="M758.157 331.742l-3.056-4.897 2.217-3.11-2.095-3.849-1.974-.375-.375-6.463-2.957-5.725-.86 1.368-1.973 3.353-2.471.375-1.235-1.621-.617-4.357-1.854-3.485-7.544-7.113 1.852-1.224.343-5.151 2.757-4.632 1.191-11.526 3.993-2.724.131-4.202 2.393.794 3.773 5.46-2.801 6 1.886 4.709 4.665 1.831.85 5.128 6.264.97-1.732 2.989-7.896 3.11-.861 5.096 5.801 7.456.242 3.981-1.356 1.367.121 1.247 4.323 6.342.122 6.584-1.267 2.294z"/><path fill="#EEE" d="M758.807 295.148l3.573 4.599v5.592l1.235.618 5.68-2.735 1.114.375 6.783 7.831-.242 5.349-2.218-.375-1.974-1.247-1.478.122-2.591 4.345.497 2.36 2.095 1.114-.121 2.614-1.478.75-5.063-3.485v-3.111l-2.095-.121-.861 1.367-.442 13.919 3.276 5.978 5.801 5.592-.242 1.621-3.089-.121-2.834-4.224h-2.967l-3.705-2.989-1.115-3.111 1.599-2.614.551-2.36 1.743-3.088-.078-7.103-4.257-6.154-.177-.75 1.379-1.389-.32-4.886-5.669-7.18.661-4.136 7.029-2.967z"/><path fill="#EEE" d="M761.763 344.756l2.216 4.974.497 6.463 2.967 4.599 7.157 4.345 2.714.254-.496-4.478-2.349-5.713-3.441-7.312-.288 1.28-4.147-.187-2.978-4.279-1.852.054zM770.333 327.132l4.511 4.819 8.392-6.22.739-9.816-4.334 2.989-2.25-1.257-3.055-.408-1.71-1.202-.827.044-2.238 3.672.364 1.698 2.271 1.268-.276 3.453-1.587.96z"/><path fill="#EEE" d="M764.806 286.832l-2.669 1.357-2.217 6.463 3.706 4.72-.618 5.217.618.254 6.165-2.989 8.272 9.243-.199 5.823 1.799.97 4.444-3.606-.364-2.856-12.826-12.187.122-1.864 1.599-1.114-1.115-3.11-5.305-.871-1.412-5.45z"/><path fill="#EEE" d="M775.383 332.624l1.313 2.063.242 2.36 3.452.375 4.192-5.591 3.948-1.114 2.095-5.713-.981-9.198-4.07-5.592-4.29-3.43-5.46-9.375 3.915-6.551-5.603-6.43-4.488-.199-4.037 2.173 1.202 5.195 5.382.948 1.445 4.004-1.898 1.235.122.992 12.628 12.353.495 3.629-.76 11.47-8.844 6.396zM566.273 222.014l3.607 4.709 4.5 2.073 2.768-.011 4.753-1.29 1.191-1.864-14.062-5.261-2.757 1.644zM582.001 228.334l5.294 6.904-1.554 1.82-3.75-.651-4.654-4.169.253-2.735 4.411-1.169zM583.865 225.941l-1.114 1.897 5.195 6.816 1.808-.585 2.978 3.121 1.29-5.47 3.231.519-.133-1.567-5.315-4.654-1.015 2.735-6.925-2.812z"/><path fill="#EEE" d="M581.924 237.223l-1.346 1.401.133 2.217 1.677 2.349 5.944 6.507-.905 2.603h-1.036l-.518 2.603 3.364 4.301 3.099.265 6.209 8.592 3.485.264 2.713 1.952.133 3.904 10.732 6.253h4.003l2.459-2.084 3.1-.132 1.808 4.169 11.591 1.61.342-4.257 3.838-1.389.177-1.522-3.055-4.169-6.806-5.47 3.574-3.254-.253-1.434-4.478-.695-1.897-15.11-.221-3.474-12.143-4.643-5.382 1.213-3.011 3.694-2.669-.176-.771.651-5.945-.386-7.5-5.47-2.791-3.055-1.279.309-2.305 2.636-4.07-.773z"/><path fill="#EEE" d="M569.847 227.562l-2.46 2.603-9.044-.264-5.426-3.254-5.294-.132-6.077 4.301-5.691.264-.518 3.254h-6.463l-2.581 2.349v1.302l1.555 1.301v1.434l-.65 1.699.65 1.434 2.073-1.037 2.073 2.217-.518 1.567-.772 1.047 1.158 1.302 5.691 1.169 4.003-1.698v-2.471l1.942.386 4.654 2.735 5.039-.783 2.195-2.085 1.423.519v2.349h1.941l1.677-3.253 14.734-1.567 6.43-.783-1.698-2.228-.033-3.011 1.29-1.544-4.698-3.772.253-3.254h-2.581l-4.277-2.096zM584.505 315.838l1.588 4.72v4.61l3.816 3.463 26.889-10.952.254-3.011-4.313-7.742-10.819 3.453-6.209 6.11-7.202-4.257-4.004 3.606zM613.61 306.584l8.15-4.698 1.445-6.893-1.787-1.026.739-7.389 1.555-.905 1.665 2.614 9.915 5.184v2.878l-12.01 17.679-5.526.187-4.146-7.631z"/><path fill="#EEE" d="M608.79 289.048l.96 3.838 10.875.96.76-7.875 2.096-1.147.573-2.878-3.429.96-3.816 5.768-8.019.374zM607.268 282.519l-.573 4.422 1.698 1.291 1.543-.144.574-5.569-1.334-.96-1.908.96zM596.967 269.45l-2.482-1.345-1.72 1.731.187 3.463 4.003 1.533.012-5.382z"/><path fill="#EEE" d="M597.75 276.145l7.731 10.775 2.492 1.986 1.115 4.831 11.9.938 1.345.706-1.333 5.954-7.819 4.61-11.437 3.463-6.099 5.956-7.246-4.224-4.389 3.838-6.11-9.982-4.191-1.919-1.522-2.305v-4.996l-15.253-18.441-.574-3.264h4.39l5.338-4.61.188-2.305-1.522-1.533 3.055-2.493 6.486.386 11.061 9.22 6.529-.298.419 1.61 5.446 2.097zM556.579 249.553l-.386 2.801 3.109 1.302-.133 7.764 3.111-.066 3.111-2.349 1.169-.199 7.059-5.614 1.423-8.151-14.106 1.434-1.488 3.265-2.869-.187z"/><path fill="#EEE" d="M576.034 245.031l-1.72 8.504-7.125 5.934.452 2.801 6.959.474 11.084 9.022 6.198-.177.166-2.085 2.271-2.437 3.176 1.798.42-.397-6.143-8.172-2.912-.177-3.871-4.974.772-3.662 1.18-.154.408-1.621-5.272-5.547-6.043.87zM559.039 262.402l-2.713 9.463-.122 1.445h4.268l4.776-4.213.121-1.599-1.952-1.996 3.496-2.9-.507-2.691-.96.22-2.911 2.085-3.496.186zM556.061 253.204l.066 2.151-.904 3.265 3.11.264.199-4.632-2.471-1.048z"/><path fill="#D4ECD3" d="M555.09 259.403l-1.743 5.547 2.261 6.651 2.591-9.717v-2.085l-3.109-.396z"/><path fill="#EEE" d="M552.763 250.336l1.357.982-4.203 3.981-2.008-.066-1.488-1.047.198-1.952 3.045-.199 3.099-1.699zM522.157 109.496l2.228-1.632-.199-1.831-1.412-.816.199-2.239h1.213v-1.224l-5.26-1.423-7.886.816-.805 3.463-1.82-.606-1.213-2.04-3.849.199-.408 3.871-1.82.816-1.015-2.04-8.095 6.518 1.621 1.831-3.033 1.423-6.881 13.654-2.427 1.632.198 1.225 2.427 1.224-.606 2.647-4.048-.21-1.214-1.423-2.625 3.055-1.621 1.224-.408 2.857-1.412.816-3.639.816-1.82 5.713 1.214 9.375 1.412 4.279 1.621 1.633 3.639-.199 5.261-5.096 2.017-3.463.607 5.096 3.441-6.11.198-17.128 2.801-1.765.838-9.452 8.493-12.232 4.048-1.423 1.82-2.239 6.066 1.423 3.033 1.831 1.015-5.096 5.062-3.055 3.044 5.305z"/><path fill="#53AE50" d="M445.682 161.266l-2.018 3.055.805 1.224h4.655v2.04l-1.214 1.632.806 4.279 2.625 5.095 2.018 4.687 3.231 1.224 1.412 2.449-.198 2.239-2.018 1.224-.199 1.015 1.412.816-1.213 1.632-2.835 1.224-5.46-.606-8.503 3.871-2.834-1.423 8.095-4.687-1.015-.607-4.247-.408 2.625-3.871.408-3.265 3.441-.408-.606-6.32-4.048-.199-1.214-1.422.199-4.687-2.427.198 2.427-8.151 4.456-3.265 1.434 1.415z"/><path fill="#53AE50" d="M437.19 174.931l-3.639.408-.198 3.265 2.426 1.632 2.626-.606 1.015-1.831-2.23-2.868z"/><path fill="#EEE" d="M438.392 180.534l-1.004 6.617-8.9 3.265h-2.835l-2.018-1.422v-1.225l4.456-2.856-1.213-2.449.198-3.463 3.849.198 1.764-4.147-.232 3.683 2.989 2.371 2.946-.572zM502.592 112.187l2.162 1.996h4.048l2.228 4.279.606 7.334-5.46 3.872v3.871l-3.848 5.305-2.228.199-3.033 5.095.198 4.897 5.262 3.871-.408 2.239-2.018 3.055-3.033 2.647.198 8.768-4.654 1.632-1.621 3.463h-2.228l-1.213-6.11-5.062-7.765 4.158-6.959.286-17.194 2.868-1.577.695-9.838 8.173-11.702 3.924-1.378z"/><path fill="#EEE" d="M512.595 125.819l2.283 1.004 1.411 2.647-1.411 1.831-7.081 7.742-1.214 4.08 1.621 5.912 5.46 4.08 7.28-3.463 5.867-.816 5.46-8.768-4.048-9.584-3.849-9.176.606-5.911-2.426-.408-.629-4.312-3.265-5.327-3.618 2.504-1.423 5.812-3.838-2.305-5.338-1.302-1.191 1.39 2.051 1.852 3.74-.066 3.01 4.864.542 7.72zM525.036 163.792l-7.556-1.225.166 4.224 7.003 4.28 2.868-.838-.166-3.22-2.315-3.221zM512.562 159.678l-1.709-.055-.993 1.004.717 1.059 1.709.11.882-1.28-.606-.838zM512.397 164.178l-1.654-.166-2.978 3.562v1.666l.992.386 1.93.055 3.199-2.614.442-.893-1.931-1.996z"/><path fill="#EEE" d="M517.029 167.465l-2.371-.055-3.254 3.111h-2.757l.166 3.893-1.654 3.055 5.955.055 1.709-.22 1.71 2.063 3.915-.166 3.749-4.776-.22-2.834-6.948-4.126z"/><path fill="#EEE" d="M516.864 180.247l1.654 2.724-.662 2.173.111 1.721.606 2.063 3.419-1.941 4.247.11 2.978 1.224h7.554l2.206-5.283 1.324-1.996v-1.335l-4.742-6.672-4.192-1.665-3.419-.386-2.978.948.111 3-4.136 5.228-4.081.087z"/><path fill="#EEE" d="M517.746 189.589l.937 1.721.221 1.831-.772 1.775-1.764 3.397-1.489.673-1.93-.838-1.159.055-2.812 1.059-3.198-.949-5.184-3.673-5.074-2.724-2.04-3.111-.386-7.334 3.97-3.452 5.184-1.721 1.93-.221-.772 1.555.497.607 8.724.165 1.874-.055 3.089 4.732-.772 1.941.331 2.283.595 2.284zM448.153 222.941h-14.051l-2.835-1.28-1.368.1-1.654 3.441.585 3.54 5.371.497.684 2.261-2.338 13.18.099 2.36 3.805 2.062 4.39.298 8.779-2.162 4.29-5.404.099-5.503 7.61-6.882.386-3.044-6.927-.1-6.925-3.364z"/><path fill="#EEE" d="M428.929 229.823l-.684 9.54-1.952 1.765.198 1.081 1.368 2.261-.882 2.757 1.467.497 3.419-.397-.198-2.757 2.239-12.783-.486-1.765-4.489-.199zM462.203 236.407l-1.753.596.387 1.577h2.536l1.069-1.18-2.239-.993zM480.357 232.183l-2.922 1.478.386 5.702 2.338.397 1.753-1.676v-5.404l-1.555-.497zM480.655 225.102l-2.151 2.162-.198 1.964 1.753 1.081.684-.1.386-2.856-.474-2.251zM461.432 193.934l-2.437.596-4.876 5.305-1.466.1-1.953-1.379-1.269.298-.97 3.044-7.125.199.199 1.577 4.875 3.242 5.658 4.522-.099 5.404-3.022 5.305 6.54 3.143 6.64.199 2.051-2.36 4.192.099 1.169 1.081 4.191-.298 2.151-2.757-2.736-3.242-.198-2.062.585-2.261-1.368-1.963-2.338.684-.297-1.765 5.172-5.702V201.5l-3.419-1.963-1.754-.298-8.096-5.305zM472.119 182.431l-4.996 2.459 1.059.96.111 2.459-1.059-.209-1.17-1.82-2.79 4.423 4.29.893 1.599 1.687.849.022.563-3.816 2.701-1.136-1.157-5.922zM462.767 191.53l-.707 1.765 7.588 5.007 2.184.518.078-2.371-1.909-2.14h-1.169l-1.599-1.82-4.466-.959z"/><path fill="#EEE" d="M473.276 182.001l3.938-.64v-2.779l3.298-.54 1.808 1.82 1.909.21 2.978-1.29 2.657.75 2.338 2.029.32 7.599 2.338 3.11-3.077.43-5.106 3.21.43 1.07 4.567 4.279-.32 2.14-4.247 2.14-3.937.11-.96 2.03h-2.018l-.96-2.14-3.507-.861-.111-3.529-2.977-2.03.319-2.57-2.017-2.779.529-3.639 2.757-1.29-.949-6.84zM479.486 163.935l-4.576 5.062-.166 3.298 2.085 5.437 3.264-.617-.408-4.445 2.25-2.514-.044-1.974-1.589-4.114-.816-.133zM484.637 172.913l-1.026-.044-1.345 1.235.166 1.93 3.187.088.166-2.184-1.148-1.025zM503.441 162.468l-2.327 1.842 1.17 2.702 2.062-2.008-.905-2.536z"/><path fill="#EEE" d="M475.229 205.713l-4.809 5.118.099.519 1.974-.618 1.776 2.47 3-1.059 2.073 1.61.85-.485 2.559-4.015-.652-.617-2.526-.066-1.224-2.504-3.12-.353zM492.346 200.739h4.886l2.614 1.864 4.841-4.025-4.698-3.353-4.655-2.25-3.187.574-4.323 2.779 4.522 4.411zM500.518 203.232l.762.673.099 1.147 8.415-.187 6.22-2.68-.099-2.724-1.191.529-1.709-.915-1.048-.044-2.757 1.103-3.749-.904-4.943 4.002z"/><path fill="#EEE" d="M483.743 206.529l-.716 1.489.617 1.059 2.57-.529h2.183l2.372 2.007 5.041-.916 3.705-2.206.949-1.489-.143-1.919-3.331-2.493-4.467.044-.375 2.537-4.698 2.294-3.707.122zM501.511 205.956l-1.279 2.007.099 3.066 2.04 1.047 6.276.187 8.746-7.367.044-1.632-.948-.474-6.32 2.868-8.658.298zM499.371 208.592l-2.801 1.676-5.228 1.147 1.048 3.022 3.662.044 3.374-2.824-.055-3.065z"/><path fill="#EEE" d="M500.276 212.088l-3.894 3.209h-3.948l-.474 2.779 1.808.474.905-1.346 1.423 1.247 1.136 3.971 7.797 3.639.772-.882-7.908-8.162.806-1.488 7.51-.287.761-2.393-4.897.143-1.797-.904z"/><path fill="#EEE" d="M499.371 216.257l-.408.673 7.4 7.633 2.713-3.993-.099-1.577-2.371-2.878-7.235.142zM474.523 214.095l-.683 1.731.187 1.886 2.636 3.077 4.147-.143 9.154 10.632 5.714 1.654 3.374 3.188.806 7.268 1.808-1.059 1.566-3.959-.386-2.845 2.68-.243.387-1.61-7.556-3.617-7.169-7.048-2.856-4.213-.695-4.004 3.65-.871-.937-2.635-2.239-1.887-1.93-.088-2.69.739-2.538 3.551-1.533 1.015-2.372-1.456-2.525.937zM496.769 242.815l-1.599-.86-5.46.86.188 1.478 4.908 2.471.739.805 1.29.187-.066-4.941zM496.957 251.032l-1.842.375.066 2.04 1.654.551.739-.618-.617-2.348zM522.279 187.813l-3.199 1.798.794 3.397-2.955 6.231.021 2.746 1.39.882 8.911.442 2.492-2.063 2.669.893 3.827 5.106-2.801 5.029 3.331.97 4.357-5.018 2.492.452 2.316 1.611-2.04 2.691 2.757 4.301h2.934l1.51-2.868 3.11-.628.088-2.328-5.779-.893.177-2.504h5.603l6.044-4.841 2.669-2.327.44-7.345-11.911-1.07-4.885-6.893-3.376-1.158-4.092.177-1.842 4.555-8.382.11-2.724-1.257-3.946-.198z"/><path fill="#EEE" d="M527.992 203.871l3.419 5.261-.286 2.978 1.225.055 2.901-4.908-3.485-4.324-1.974-.816-1.8 1.754z"/><path fill="#EEE" d="M518.54 203.75l-.287 1.632-6.386 5.316 5.338 7.831 3.42 2.393h6.154l2.029-1.698 2.724-.353 2.029 1.224 3.595-4.092-.695-2.051-3.65-.938-2.492-.121.121-3.507-3.309-5.205-8.591-.431zM511.227 211.404l-2.261 1.699h-1.103l-.75 2.338 2.669 3.099.177 2.46-3.309 4.676.463 1.401 1.918.353 1.511-2.051.816-.055 1.389 1.345 4.235-1.29-.352-6.022-5.403-7.953z"/><path fill="#EEE" d="M517.724 220.062l.176 5.492 1.854 3.86 6.959.121 3.132-2.217 3.077-1.225-.75-3.507.695-1.875-1.566-.816-2.151.176-1.688 1.698-7.081.055-2.657-1.762zM509.54 228.19v5.085l1.456 2.746 1.048-.121 1.798-3.276-1.048-1.466-.408-3.629-1.389-1.29-1.457 1.951zM517.15 226.26l-3.717 1.225.177 3.154.871 1.114 4.412-2.052-1.743-3.441z"/><path fill="#EEE" d="M512.507 236.837l-.122 1.467 5.107 2.569 2.437.938-1.279 1.346-2.846.286-.408 1.29.981 2.217 3.188 1.699 1.389.121.177-3.805 2.084-2.515-5.691-6.728.751-2.283 1.334-.055 2.029 1.633 1.28-.64.407-2.283 5.979.055.232-3.507-2.493 1.753-7.312-.176-4.753 2.459-2.471 4.159zM530.495 228.124l-.175 3.915 3.419-1.048 1.566-1.047-.463-1.698-1.621-1.29-2.726 1.168zM523.591 251.164l1.797.055.751 1.114h2.614l1.742-.64.585.706-1.158 1.522-5.106.177-.926-1.224-.982-.585.683-1.125z"/><g opacity=".75"><path fill="none" stroke="#000" stroke-width=".75" stroke-miterlimit="10" d="M670.371 217.891s-399.929-31.859-438.477 13.815"/><circle fill="#FFF" cx="232.011" cy="231.59" r="2.82"/><path d="M229.388 229.765c1.006-1.446 3.001-1.804 4.447-.798s1.804 3.001.798 4.447a3.198 3.198 0 0 1-4.447.798 3.198 3.198 0 0 1-.798-4.447c1.006-1.446-1.006 1.446 0 0zm4.63 3.221a2.447 2.447 0 0 0-.611-3.403 2.447 2.447 0 0 0-3.403.611 2.447 2.447 0 0 0 .611 3.403 2.447 2.447 0 0 0 3.403-.611c.77-1.107-.77 1.107 0 0z"/></g><g opacity=".75"><path fill="none" stroke="#000" stroke-width=".75" stroke-miterlimit="10" d="M670.474 217.891s-5.971-26.746-16.671-33.724"/><circle fill="#FFF" cx="653.929" cy="184.268" r="2.82"/><path d="M655.329 181.397a3.2 3.2 0 0 1 1.472 4.272 3.2 3.2 0 0 1-4.272 1.472 3.2 3.2 0 0 1-1.472-4.272 3.199 3.199 0 0 1 4.272-1.472c1.583.772-1.583-.772 0 0zm-2.471 5.069a2.447 2.447 0 0 0 3.269-1.126 2.447 2.447 0 0 0-1.126-3.269 2.447 2.447 0 0 0-3.269 1.126 2.446 2.446 0 0 0 1.126 3.269c1.212.591-1.212-.591 0 0z"/></g><g opacity=".75"><path fill="none" stroke="#000" stroke-width=".75" stroke-miterlimit="10" d="M670.474 217.684s-77.449-53.126-106.003-47.548"/><circle fill="#FFF" cx="564.639" cy="170.135" r="2.82"/><path d="M563.791 167.055a3.199 3.199 0 0 1 3.928 2.232 3.199 3.199 0 0 1-2.232 3.928 3.199 3.199 0 0 1-3.928-2.232 3.198 3.198 0 0 1 2.232-3.928c1.698-.468-1.698.467 0 0zm1.497 5.437a2.447 2.447 0 0 0 1.708-3.006 2.447 2.447 0 0 0-3.006-1.708 2.447 2.447 0 0 0-1.708 3.006 2.447 2.447 0 0 0 3.006 1.708c1.3-.358-1.3.358 0 0z"/></g><g opacity=".75"><path fill="none" stroke="#000" stroke-width=".75" stroke-miterlimit="10" d="M670.474 217.891s-10.371 6.269-13.543 11.825"/><circle fill="#FFF" cx="657.034" cy="229.584" r="2.82"/><path d="M654.005 228.57a3.198 3.198 0 0 1 4.044-2.015 3.198 3.198 0 0 1 2.015 4.044 3.198 3.198 0 0 1-4.044 2.015 3.2 3.2 0 0 1-2.015-4.044c.559-1.67-.559 1.67 0 0zm5.348 1.79a2.447 2.447 0 0 0-1.542-3.094 2.447 2.447 0 0 0-3.094 1.542 2.447 2.447 0 0 0 1.542 3.094 2.446 2.446 0 0 0 3.094-1.542c.428-1.278-.428 1.279 0 0z"/></g><g opacity=".75"><path fill="none" stroke="#000" stroke-width=".75" stroke-miterlimit="10" d="M670.474 217.891s-100.822 16.017-113.901 42.732"/><circle fill="#FFF" cx="556.658" cy="260.483" r="2.82"/><path d="M553.668 259.355c.622-1.648 2.469-2.483 4.117-1.861s2.483 2.469 1.862 4.117a3.199 3.199 0 0 1-4.117 1.861 3.2 3.2 0 0 1-1.862-4.117c.622-1.648-.621 1.648 0 0zm5.277 1.991c.476-1.262-.163-2.674-1.424-3.15s-2.674.163-3.15 1.424c-.476 1.262.163 2.674 1.424 3.15s2.674-.162 3.15-1.424-.476 1.262 0 0z"/></g><g opacity=".75"><path fill="none" stroke="#000" stroke-width=".75" stroke-miterlimit="10" d="M670.474 217.684s-191.64-40.246-217.687-29.059"/><circle fill="#FFF" cx="452.946" cy="188.573" r="2.82"/><path d="M451.104 185.963c1.439-1.016 3.437-.672 4.452.768s.672 3.437-.767 4.452c-1.439 1.016-3.437.672-4.453-.767s-.671-3.437.768-4.453c1.439-1.016-1.439 1.016 0 0zm3.252 4.608a2.446 2.446 0 0 0 .587-3.407 2.446 2.446 0 0 0-3.407-.587 2.446 2.446 0 0 0-.587 3.407 2.448 2.448 0 0 0 3.407.587c1.102-.778-1.101.777 0 0z"/></g><g opacity=".75"><path fill="none" stroke="#000" stroke-width=".75" stroke-miterlimit="10" d="M670.474 217.684S298.761 86.423 251.595 198.031"/><circle fill="#FFF" cx="251.726" cy="197.909" r="2.82"/><path d="M248.78 196.673c.681-1.624 2.557-2.392 4.182-1.711s2.392 2.557 1.711 4.182a3.2 3.2 0 0 1-4.182 1.711 3.2 3.2 0 0 1-1.711-4.182c.681-1.624-.681 1.625 0 0zm5.201 2.181c.521-1.243-.066-2.679-1.309-3.2s-2.679.066-3.2 1.309a2.446 2.446 0 0 0 4.509 1.891c.522-1.243-.521 1.244 0 0z"/></g></svg>