<?xml version="1.0" encoding="utf-8"?>
<!-- Generator: Adobe Illustrator 18.1.0, SVG Export Plug-In . SVG Version: 6.00 Build 0)  -->
<svg version="1.1" id="Layer_1" xmlns="http://www.w3.org/2000/svg" xmlns:xlink="http://www.w3.org/1999/xlink" x="0px" y="0px"
	 width="1000px" height="585.166px" viewBox="0 0 1000 585.166" enable-background="new 0 0 1000 585.166" xml:space="preserve">
<path id="kalimantan" fill="#EEEEEE" d="M815.771,354.627l-2.547,9.573l-13.82,4.665l-4.136-4.852l-2.008,0.551l3.75,14.47
	l5.614,0.628l7.489,2.835v2.835l3.43-0.629l4.996-6.915v-5.659l2.812-5.658l3.121,0.629l-3.75-7.864l-0.573-5.062L815.771,354.627
	L815.771,354.627z"/>
<path id="papua_new_guinea" fill="#EEEEEE" d="M894.166,380.975l-0.408,26.955l3.883-0.21l5.106-5.967l4.29,0.21l2.757,2.47
	l0.916,7.61l8.779,4.632l2.25-0.827v-2.78l-7.047-5.867l-3.475-8.029l2.757-1.334l-2.04-4.422l-4.081-0.099l-1.025-4.732
	l-10.82-7.301L894.166,380.975L894.166,380.975z"/>
<path id="mexico" fill="#EEEEEE" d="M105.294,245.473l5.327,16.775l-2.482,1.389l0.276,3.331l4.687,3.607v6.673l5.79,5.558
	l-2.482-16.389l-3.309-10.842l0.827-7.5l2.757,0.276l1.103,2.504l-1.103,6.386l14.338,28.058v10.003l11.58,13.61l12.683,5.834
	l5.239-3.055l7.445,6.11l4.412-4.444l-1.93-5.007l6.342-1.941l1.93,1.114l1.93-1.941h3.033l5.514-9.728l-2.757-2.504l-10.753,2.504
	l-2.482,7.224l-6.342,1.114l-7.445-3.055l-3.309-10.555l2.504-13.312l-5.117-3.187l-2.437-12.783l-2.04-0.871l-3.728,3.783
	l-4.279-2.283l-1.676-8.525l-16.951-1.776l-8.757-6.584L105.294,245.473L105.294,245.473z"/>
<path id="estonia" fill="#EEEEEE" d="M524.705,155.289l-6.176-0.221l-3.915,2.393l-0.055,1.776l2.536,2.393l7.886,1.334
	L524.705,155.289L524.705,155.289z"/>
<path id="algeria" fill="#EEEEEE" d="M476.299,247.745l-4.5-1.511l-18.727,3.518l-4.081,3.099l2.492,12.871l-7.445,0.298
	l-4.477,7.202l-10.665,2.559l0.032,5.239l35.128,26.856l5.988,0.507l19.974-15.606l-1.997-2.514l-3.749-0.507l-2.25-3.772v-15.606
	l-1.5-1.511l0.254-4.025l-3.993-4.026l-0.497-4.279l1.743-1.257l-0.751-4.533L476.299,247.745L476.299,247.745z"/>
<path id="morocco" fill="#EEEEEE" d="M448.076,253.027h-12.738l-2.492,5.537l-5.747,2.769l-4.742,12.838l-9.242,5.537
	l-12.981,21.385l12.738-0.254l0.497-6.286h3.242v-8.559h11.239l0.253-11.073l10.742-2.514l4.5-7.301l6.992-0.254L448.076,253.027
	L448.076,253.027z"/>
<path id="mauretania" fill="#EEEEEE" d="M400.221,301.975l2.404,3.143l-0.497,13.588l3.496-2.515l2.492-0.507l3.497,1.258
	l3.992,5.537l3.75-2.514l18.231-0.254l-4.5-30.451l4.831-0.022l-9-6.893l0.011,4.478l-11.393,0.011l-0.055,8.547l-3.275-0.011
	l-0.419,6.309L400.221,301.975L400.221,301.975z"/>
<path id="senegal" fill="#EEEEEE" d="M405.978,317.04l-4.346,3.155l-0.992,1.764l-0.309,1.765l1.599,1.147l5.338-0.077l3.43-0.927
	l0.386,1.688l-0.309,2.228l3.276,1.61l0.683,0.772l4.346,0.154l0.154-1.919l-3.97-4.765l-4.422-5.988l-2.747-1.147L405.978,317.04
	L405.978,317.04z"/>
<path id="gambia" fill="#EEEEEE" d="M402.415,325.885l-0.143,1.225l7.632-0.11l0.387-1.136l-0.166-1.147l-2.195,0.893
	L402.415,325.885L402.415,325.885z"/>
<path id="casamance" fill="#EEEEEE" d="M402.305,327.959l1.368,3.319l0.76-2.051l9.276,0.97l-4.014-2.063L402.305,327.959
	L402.305,327.959z"/>
<path id="bissau" fill="#EEEEEE" d="M404.301,332.712l1.545,3.055l4.334-3.728l0.044-1.147l-5.106-0.739L404.301,332.712
	L404.301,332.712z"/>
<path id="guinee" fill="#EEEEEE" d="M406.309,336.474l3.353,5.161l4.367-3.794l4.478-0.198l3.728,4.952l3.165,2.084l1.19-2.316
	l1.059-0.596l-0.076-5.096l-2.107-6.044l-6.463,0.717l-7.996-0.64l-0.044,2.051L406.309,336.474L406.309,336.474z"/>
<path id="sierra_leone" fill="#EEEEEE" d="M410.18,342.197l6.232,6.022l4.445-5.393l-2.78-4.357l-3.827,0.386L410.18,342.197
	L410.18,342.197z"/>
<path id="liberia" fill="#EEEEEE" d="M417.062,348.881l12.11,8.095l-0.288-6.133l-3.661-4.312l-3.574-3.164L417.062,348.881
	L417.062,348.881z"/>
<path id="ivoire" fill="#EEEEEE" d="M430.187,357.219l4.72-3.342l5.868-1.025l5.988,1.29l-3.054-4.622l-0.894-2.823l0.894-8.349
	l-5.349,0.254l-2.427-2.317l-5.096,0.132l-2.427,0.387l0.254,5.647l-1.279,0.518l-1.534,2.823l3.949,4.622L430.187,357.219
	L430.187,357.219z"/>
<path id="mali" fill="#EEEEEE" d="M416.279,323.128l3.397-2.327l18.882-0.11l-4.367-30.374l4.985-0.143l24.121,18.407l3.243,0.463
	l-1.225,10.235l-15.165,1.379l-11.702,8.735l-2.128,5.978l-8.128,0.341l-2.073-5.967l-6.231,0.442l0.242-1.952L416.279,323.128
	L416.279,323.128z"/>
<path id="burkina" fill="#EEEEEE" d="M450.612,321.407l4.015-0.319l6.584,9.309l-6.11,4.61l-4.422-1.136l-5.945,0.077l-0.96,3.485
	l-4.985,0.243l-1.368-1.864l1.765-5.668L450.612,321.407L450.612,321.407z"/>
<path id="niger" fill="#EEEEEE" d="M461.972,329.922l2.813-0.066l2.536-3.805l4.257-0.761l4.533,2.769l9.672,0.276l7.478-3.044
	l2.812-2.415l0.21-3.176l5.216-5.261l1.379-11.613l-3.429-7.191l-8.779-2.14l-20.315,15.838l-2.879-0.276l-1.235,10.996
	l-10.367,1.037L461.972,329.922L461.972,329.922z"/>
<path id="ghana" fill="#EEEEEE" d="M443.719,346.52l1.235,2.901l3.22,5.051l1.787-0.066l4.875-2.768l-0.341-15.76l-3.772-1.103
	l-5.283,0.143L443.719,346.52L443.719,346.52z"/>
<path id="togo" fill="#EEEEEE" d="M455.718,351.153l2.957-1.732l-0.067-11.415l-1.919-3.111l-1.234,1.037L455.718,351.153
	L455.718,351.153z"/>
<path id="benin" fill="#EEEEEE" d="M459.568,349.212h2.338l0.132-6.64l2.955-4.29l-0.132-7.467l-2.68-0.066l-4.599,3.595
	l1.919,3.662L459.568,349.212L459.568,349.212z"/>
<path id="nigeria" fill="#EEEEEE" d="M462.722,349.079l4.323,0.209l5.216,5.813l2.536,0.695l1.986-0.97l3.021-0.419l1.026-4.213
	l4.113-2.702l4.456-0.209l8.162-15.011l-0.133-3.386l-3.772-2.901l-7.544,3.319l-10.092-0.143l-4.809-3.044l-3.429,0.761
	l-1.787,3.111l-0.132,8.778l-2.878,4.081L462.722,349.079L462.722,349.079z"/>
<path id="tunisia" fill="#EEEEEE" d="M477.435,247.568l6.099-2.459l2.007,1.301l0.078,1.589l-0.937,1.224l0.143,2.172l0.937,0.507
	v3.904l-1.08,1.809l0.143,1.158l4.092,1.444l-3.298,5.129l-1.29-0.078l-0.221,4.125l-1.434,0.22l-1.225-1.081l0.287-4.191
	l-4.014-3.904l-0.507-3.397l1.941-1.522L477.435,247.568L477.435,247.568z"/>
<path id="libya" fill="#EEEEEE" d="M483.104,270.398l1.721-0.287l0.507-3.971h0.859l3.519-5.779l8.68,2.525l2.371,3.684l8.537,3.904
	l4.445-1.875l-0.431-1.875l-1.941-1.875l0.221-1.302l3.155-2.669h6.243l2.371,3.176l5.018,0.728l0.651,40.686l-3.728-0.143
	l-22.521-11.713l-2.437,1.379l-9.253-2.316l-2.515-3.32l-3.662-0.508l-1.863-3.32L483.104,270.398L483.104,270.398z"/>
<path id="egypt" fill="#EEEEEE" d="M529.293,264.917l2.945,0.077l5.735,1.588l2.724,0.078l3.376-2.823h1.577l2.868,1.588h3.629
	l0.651-0.044l2.294,6.595l0.651,2.129l0.606,3.188l-1.08,0.794l-1.864-0.938l-2.151-7.014l-1.941-0.143l-0.143,2.382l1.29,4.125
	l10.334,12.794l0.22,5.492l-3.01,3.474l-28.278-0.32L529.293,264.917L529.293,264.917z"/>
<path id="chad" fill="#EEEEEE" d="M497.155,323.305l0.143-3.254l5.228-5.084l1.4-12.485l-3.485-6.662l2.439-1.246l23.601,12.297
	l-0.143,12.066l-4.157,3.54v6.22l2.724,5.272h-4.809l-7.963,7.874l-0.21,2.382l-5.879-0.076l-0.076,1.08l-3.353-0.44l-2.294-4.335
	l-1.721-0.849l0.221-1.324l2.162-1.654v-7.742l-2.989-0.463l-3.606-2.68L497.155,323.305L497.155,323.305L497.155,323.305z"/>
<path id="sudan" fill="#EEEEEE" d="M527.331,319.367l0.198-13.047l2.713,0.077l-0.309-7.246l28.455,0.254l4.07-4.103l8.779,14.04
	l-4.809,5.669v8.658l-7.565,16.268l-2.603,1.147l0.827,4.533h3.243l4.401,6.386l-3.529,0.451l-0.905,1.644l-0.088,2.372
	l-10.587-0.187l-1.081-1.644l-7.401-0.419l-13.588-13.986l1.357-0.815l0.364-3.287l-3.254-1.919l-2.967-5.856l0.166-5.448
	L527.331,319.367L527.331,319.367z"/>
<path id="cameroon" fill="#EEEEEE" d="M480.645,354.495l3.551,3.264l-0.254,5.051l19.477-0.452l1.589-1.787l-5.581-6.011
	l-0.827-2.172l3.552-6.651l-2.416-4.412l-2.029-1.092v-2.238l2.349-1.534l0.132-6.97l-1.864-0.21l-0.032,3.661l-8.183,15.275
	l-5.007,0.254l-3.43,2.36L480.645,354.495L480.645,354.495z"/>
<path id="eritrea" fill="#EEEEEE" d="M567.652,321.871l-0.276-6.496l4.367-5.096l1.18,0.904l2.151,7.191l10.323,7.687l-1.875,2.305
	l-7.554-6.496H567.652L567.652,321.871z"/>
<path id="djibouti" fill="#EEEEEE" d="M583.943,329.415l-0.629,3.706l4.367-0.066l0.066-5.448l-1.598-0.982L583.943,329.415
	L583.943,329.415z"/>
<path id="ethiopia" fill="#EEEEEE" d="M559.689,340.686l8.028-17.867l7.975,0.044l7.07,6.143l-0.497,5.062h5.481l0.562,3.044
	l8.867,5.306l5.47,0.276l-10.4,11.172l-14.283,4.401h-3.54l-6.308-5.382l-2.492-1.048l-4.831-7.114l-3.188,0.044l-0.375-3.265
	L559.689,340.686L559.689,340.686z"/>
<path id="somaliland" fill="#EEEEEE" d="M588.641,333.275l4.5,3.066l1.334-0.067l11.172-3.838l1.269,4.092l-0.894,3.452
	l-2.415,1.919l-6.034-0.387l-8.636-5.305L588.641,333.275L588.641,333.275z"/>
<path id="soqotra" fill="#EEEEEE" d="M614.978,327.33l2.349,2.625l3.176-1.919l1.147-0.386l-1.456-1.411l-2.79,0.827L614.978,327.33
	L614.978,327.33z"/>
<path id="somalia" fill="#EEEEEE" d="M606.54,332.183l4.82-1.853l1.709,1.025l-0.187,4.279l-4.445,12.662l-24.054,25.763
	l-2.791-1.918l-0.187-10.875l3.618-4.157l7.676-2.372l11.261-11.89l2.945-2.625l0.827-3.837L606.54,332.183L606.54,332.183z"/>
<path id="centrafrique" fill="#EEEEEE" d="M500.32,354.241l5.14,5.559l2.029-2.625l3.231,0.132l0.695-2.559l3.176-1.985l6.596,4.544
	l3.805-3.772l14.767,0.65l-13.698-14.14l1.842-1.147l0.254-2.492l-3.11-1.467h-4.567l-7.356,7.291l-0.253,3l-5.834-0.187
	l-0.187,1.28l-3.805-0.387l-3.43,6.518L500.32,354.241L500.32,354.241z"/>
<path id="sao_tome" fill="#EEEEEE" d="M472.836,368.689l1.268-0.64l0.949,0.771l-0.949,1.467l-1.147-0.451L472.836,368.689
	L472.836,368.689z"/>
<path id="principe" fill="#EEEEEE" d="M475.383,364.663l1.909-0.32l0.64,1.213l-0.949,1.026l-0.949-0.132L475.383,364.663
	L475.383,364.663z"/>
<path id="bioko" fill="#EEEEEE" d="M479.563,357.947l-0.507,2.172l1.522,0.827l1.456-1.092l-0.507-2.238L479.563,357.947
	L479.563,357.947z"/>
<path id="gabon" fill="#EEEEEE" d="M490.096,363.704l-0.132,2.746l-6.22-0.132l-3.805,7.356l8.945,9.783l2.217-1.852l-0.066-1.919
	l-1.522-0.705v-1.346l3.429-2.172l3.045,2.305l3.364,0.067l-0.067-11.57l-5.327-0.254l-0.066-2.427L490.096,363.704L490.096,363.704
	z"/>
<path id="equatorial_guinea" fill="#EEEEEE" d="M484.141,363.77l-0.067,1.533l5.007,0.253l-0.066-1.731L484.141,363.77
	L484.141,363.77z"/>
<path id="congo" fill="#EEEEEE" d="M495.181,363.582l-0.066,1.599l5.271,0.132l0.187,13.687l-4.82-0.132l-2.79-2.172l-2.162,1.213
	l-0.099,0.606l1.114,0.541l0.32,2.812l-2.978,2.559l0.64,1.345l3.298-2.558h1.588l0.507,1.533l2.096,0.893l6.727-5.69l-0.133-4.159
	l1.401-3.386l4.312-3.198l1.158-10.82l-3.066,0.012l-3.551,4.864L495.181,363.582L495.181,363.582z"/>
<path id="cabinda" fill="#EEEEEE" d="M490.272,386.424l1.919,2.492l2.482-2.349l-0.728-2.437l-0.617-0.044L490.272,386.424
	L490.272,386.424z"/>
<path id="drc" fill="#EEEEEE" d="M493.394,389.159l11.371-0.198l2.305,3.275l-0.088,2.416l0.849,0.771h5.647l1.621-3.187h2.306
	l0.937,0.949l3.165-0.088l0.937,11.117l5.47,0.175v0.861l14.702,6.628l0.684,1.291h3.077l-0.341-4.655l-5.559-2.669l0.341-3.53
	l2.393-5.603l5.47-0.176l-4.698-15.596l0.088-6.628l7.434-11.625l0.088-1.633l-1.115-0.606l0.044-3.154l-1.356-0.122l-1.368-1.743
	l-22.444-1.015l-4.114,4.003l-6.738-4.433l-2.372,1.455l-1.72,14.481l-4.258,3.287l-1.28,2.911l0.232,4.313l-7.676,6.276
	l-2.04-0.926l0.276,1.202L493.394,389.159L493.394,389.159z"/>
<path id="rwanda" fill="#EEEEEE" d="M546.819,371.722l3.099,2.856l-0.132,3.055l-4.808,0.099v-3.374L546.819,371.722
	L546.819,371.722z"/>
<path id="burundi" fill="#EEEEEE" d="M545.043,378.681l4.71-0.099l-1.225,4.125l-1.191,1.036h-1.456l-1.036-2.791L545.043,378.681
	L545.043,378.681z"/>
<path id="uganda" fill="#EEEEEE" d="M547.347,370.828l3.342,3.132l2.096-1.335l5.668-0.926l0.97,0.099l0.364-2.151l3.199-6.727
	l-2.692-5.603l-8.724,0.055l-0.055,2.306l1.17,1.124l-0.177,2.305L547.347,370.828L547.347,370.828z"/>
<path id="kenya" fill="#EEEEEE" d="M561.167,356.965l2.934,5.725l-3.519,7.379l-0.463,2.238l17.569,10.864l5.449-8.559l-2.757-2.238
	l-0.055-11.272l3.452-3.772l-5.504,1.831l-4.157,0.055l-6.508-5.492l-2.052-0.882l-3.804,0.352l-0.673,1.126L561.167,356.965
	L561.167,356.965z"/>
<path id="tanzania" fill="#EEEEEE" d="M560.881,406.485l19.267-2.36l-4.334-8.383l-0.232-8.028l1.4-3.839l-18.33-11.514
	l-5.746,0.948l-1.996,1.478l-0.177,3.364l-1.29,4.666l-1.345,1.599l-1.93,0.177l3.694,12.804l6.033,2.835l4.159,0.122
	L560.881,406.485L560.881,406.485z"/>
<path id="zambia" fill="#EEEEEE" d="M521.154,421.132l3.496,4.852l5.415,0.332l1.919,1.059l5.669,0.066l4.885-6.849l13.655-6.11
	l1.191-5.382l-1.589-7.71l-7.125-4.058l-4.754,0.331l-2.371,5.25l0.066,2.393l5.603,2.725l0.331,5.923l-4.819,0.264l-1.191-1.996
	l-13.39-5.713l-0.396,4.389l-6.331,0.198L521.154,421.132L521.154,421.132z"/>
<path id="angola" fill="#EEEEEE" d="M492.556,390.262l3.761,14.04l-0.088,4.433l-5.504,5.912l-0.827,9.606l21.176,0.187l6.882,2.492
	l5.679-0.739l-3.309-4.147l0.012-11.846l6.507-0.276v-4.622l-5.283-0.22l-1.059-10.942l-2.227,0.033l-1.203-1.08l-1.312,0.066
	l-1.743,3.376h-6.706l-1.555-1.567l0.463-2.217l-1.831-2.68L492.556,390.262L492.556,390.262z"/>
<path id="malawi" fill="#EEEEEE" d="M557.12,415.287l3.429,3.584l-0.066,4.587l0.661,1.93l4.555-4.919l-0.529-6.253l-2.437-1.863
	l-2.172-10.974l-3.761-0.132l1.709,7.908L557.12,415.287L557.12,415.287z"/>
<path id="mozambique" fill="#EEEEEE" d="M550.513,452.653l2.967,2.459l6.992-4.257l1.124-6.32v-10.433l11.216-9.177l1.919,0.067
	l6.794-6.518l-1.059-13.433l-18.01,2.271l0.53,4.058l3.099,2.393l0.728,7.313l-6.066,5.922l-1.456-3.319l0.265-4.389l-3.496-3.795
	l-8.581,3.993l7.985,4.058l0.265,11.835l-5.283,7.842L550.513,452.653L550.513,452.653z"/>
<path id="zimbabwe" fill="#EEEEEE" d="M532.304,429.514l9.893,11.172l7.588,1.93l5.085-7.973l-0.397-10.566l-8.249-4.258l-3.1,1.401
	l-4.621,7.047l-6.397-0.066L532.304,429.514L532.304,429.514z"/>
<path id="namibia" fill="#EEEEEE" d="M501.301,462.226l3.695,0.265l2.172,2.195l5.15,0.066l1.257-14.624v-9.574l3.298-0.661
	l1.257-10.036l8.383-0.265l2.966-2.46l-5.018-0.198l-6.794,0.926l-7.323-2.658h-20.58l0.53,5.845l6.86,10.103l-1.191,5.184
	l0.067,2.724L501.301,462.226L501.301,462.226z"/>
<path id="botswana" fill="#EEEEEE" d="M514.492,450.392l2.372,0.727l-0.331,6.783l2.437,0.331l5.603-5.051l6.727,0.728l1.787-4.521
	l8.514-7.776l-10.223-11.768l-0.133-1.93l-1.125-0.331l-3.099,2.856l-8.051,0.199l-1.125,10.036l-3.165,0.728L514.492,450.392
	L514.492,450.392z"/>
<path id="swaziland" fill="#EEEEEE" d="M550.182,453.447l-2.768,0.463l-1.191,3.254l2.117,1.93h2.57l2.172-3.121L550.182,453.447
	L550.182,453.447z"/>
<path id="lesotho" fill="#EEEEEE" d="M535.337,466.008l3.364-2.591l1.589,0.066l1.918,2.393l-0.198,2.394l-3.231,1.19v0.927
	l-3.563-0.199l-0.861-2.591L535.337,466.008L535.337,466.008z"/>
<path id="south_africa" fill="#EEEEEE" d="M542.782,442.01l-8.713,8.051l-2.073,4.975l-6.904-0.86l-5.746,5.106l-3.816-0.375
	l0.308-7.059l-1.356-0.474l-0.949,14.437l-6.771-0.066l-2.04-2.405l-2.99-0.032l2.725,7.819l4.864,4.599l-3.475,4.048l2.25,5.073
	l5.205,1.986l4.147-3.53l11.879,0.066l0.85-1.059l5.271-0.926l17.834-17.756l-0.066-5.592l-1.909,2.471h-2.856l-3.473-2.912
	l1.764-4.389l3.033-0.618l-0.276-9.021L542.782,442.01L542.782,442.01z M538.602,462.413l1.665-0.066l2.702,2.934l-0.078,3.396
	l-3.166,1.599l-0.198,1.125l-4.831,0.055l-1.511-3.639l1.379-2.669L538.602,462.413L538.602,462.413z"/>
<path id="greenland" fill="#EEEEEE" d="M307.831,52.068l-1.5,2.394l2.702,2.702l-1.202,2.702l3.904,5.095l4.798-1.5l6.298-0.596
	l7.202,7.798l4.797,12.893l-3.893,8.095l5.393-0.904l3,1.798l0.298,3.904l-6.595,0.298l3.596,3.595l4.499,0.905l-9.893,13.191
	l-1.202,8.095l2.095,6.595l-1.5,3.904l2.702,8.393l5.096,5.702l1.5-0.297l3.298-0.905l0.298,4.798l2.095,3l3.893-0.298l3-11.095
	l8.999-11.095l13.5-5.393l8.393-10.5l3.894,1.798h8.095l6.596-6.595l8.095-3.297l0.905-5.096l-5.096-4.5l-4.5-1.5l-2.404-6.297
	l5.702-3.298l9,4.798l3-3.297l-4.797-2.702l10.202-13.797l-1.799-6l-4.797-0.297l1.798-5.393l6-2.702l12.297-10.797l-3.595-3.893
	l-13.797,1.202l-7.202,7.202l4.203-9.298l-4.798-1.203l-2.702,4.798l-3.892-3.297l-10.797,1.202l3-4.798l17.691-0.596l-4.5-6
	l-19.19-3.595l-7.798,1.202l0.298,3.904l-8.095-2.702l0.298-2.702l-5.702,1.202l-1.202,3l6,2.095l-6.298,4.5l-4.5-5.096
	l-6.298-1.798l-0.905,4.798h-6.298l-2.404-5.096l-9.893-1.5l-5.393,2.702l-0.298,3.596l-6.893-0.905l-4.202,1.798l0.298,4.202v2.096
	l-7.797,1.5l-3.595-2.393l-2.404,3.893l3.595,3.904l7.5-0.904l0.596,2.404l-5.702,2.702L307.831,52.068L307.831,52.068z"/>
<path id="disko" fill="#EEEEEE" d="M331.83,98.853l1.798,2.702l-0.904,3.298h-1.798l-2.404-2.702l0.596-2.095L331.83,98.853
	L331.83,98.853z"/>
<path id="milne" fill="#EEEEEE" d="M406.805,91.353l5.096,1.5l-0.298,4.202l-5.393-2.702l-1.202-1.5L406.805,91.353L406.805,91.353z
	"/>
<path id="australia" fill="#EEEEEE" d="M793.151,468.866l-0.386,27.992l-4.302,3.154l-0.386,2.757l5.867,3.938l14.481-2.757h7.434
	l2.736-3.948l16.433-3.155l11.736,3.552l-0.783,4.732l1.566,4.731l9-1.578l0.386,2.361l-5.868,4.334l1.953,1.577l4.301-1.577
	l-1.169,13.014l8.217,6.309l4.698-1.578l2.349,2.361l13.698-1.974l12.915-20.9l4.698-1.18l9.387-17.348l2.349-14.978l-5.868-7.489
	l2.349-1.578l-4.698-14.591l-5.085-3.551l0.784-19.709l-4.699-3.552l-1.169-11.04h-2.349l-7.831,26.017l-4.301,0.397l-9.783-9.861
	l5.481-14.591l-10.169-1.974l-11.349,3.155l-3.132,9.066l-5.085,1.179l-0.386-6.308l-20.735,12.618l0.387,4.732l-3.132,4.334h-7.831
	l-16.83,7.091L793.151,468.866L793.151,468.866z"/>
<path id="tasmania" fill="#EEEEEE" d="M864.366,544.171l-1.953,7.886l0.387,5.514l5.867-0.397l6.651-10.246L864.366,544.171
	L864.366,544.171z"/>
<path id="new_zealand_north_island" fill="#EEEEEE" d="M960.626,528.4l1.17,13.014l-1.566,5.912l-5.868,4.334l0.387,5.129v5.514
	l1.566,1.974l16.047-13.798v-3.154h-3.915l-5.482-18.529L960.626,528.4L960.626,528.4z"/>
<path id="new_zealand_south_island" fill="#EEEEEE" d="M948.892,556.789l3.132,5.911l-8.613,8.284l-0.783,4.334l-5.868,0.783
	l-9.783,9.065l-9-4.334l-0.783-3.155l16.434-7.091L948.892,556.789L948.892,556.789z"/>
<path id="sumatra" fill="#EEEEEE" d="M750.481,347.094l-0.309,2.514l7.489,12.584h2.183l15.607,26.106l6.243,0.629l3.121-9.12
	l-4.997-3.144l-0.938-5.029L750.481,347.094L750.481,347.094z"/>
<path id="east_malaysia" fill="#EEEEEE" d="M796.426,364.023l3.331,3.849l12.772-4.422l2.526-9.751l5.691-0.407l5.205-3.773
	l-6.75-4.919l-1.544-2.701l-3.33,6.142l1.224,3.53l-2.029,2.945l-3.827-0.981l-9.276,6.805l0.242,3.938L796.426,364.023
	L796.426,364.023z"/>
<path id="brunei" fill="#EEEEEE" d="M813.665,348.947l-3.176,3.849l2.603,0.816l1.467-2.052L813.665,348.947L813.665,348.947z"/>
<path id="sulawesi" fill="#EEEEEE" d="M824.43,381.88l2.492,3.055l-1.621,4.588v0.871h3.684l1.301-11.471l1.191,0.332l2.162,10.478
	l2.063,0.551l1.953-4.478l-1.953-6.771l-1.621-2.945l5.095-3.717l-1.191-1.644l-4.875,3.165h-1.302l-2.381-3.496l0.76-1.534
	l4.015-1.962l6.066,1.853l1.842-0.11l4.555-4.258l-1.842-1.853l-4.224,3.275h-2.713l-4.114-1.963l-2.922,0.111l-3.254,5.239
	l-2.063,9.066L824.43,381.88L824.43,381.88z"/>
<path id="maluku" fill="#EEEEEE" d="M851.628,361.355l-2.063,5.018l3.253,4.258h1.081l1.412-2.835l0.76-0.981l-1.411-1.534
	l-2.063-0.76L851.628,361.355L851.628,361.355z"/>
<path id="seram" fill="#EEEEEE" d="M858.024,377.843l-4.445,0.981l-1.301,1.423l1.08,1.853l2.923-1.091l1.842-1.092l2.713,2.184
	l1.191-0.982l-2.162-2.625L858.024,377.843L858.024,377.843z"/>
<path id="java" fill="#EEEEEE" d="M784.328,392.038l-3.033,2.073l0.651,1.743l9.65,2.183l4.875,0.871l2.063,2.184l5.525,0.441
	l2.603,2.184l2.383-0.551l2.172-1.964l-4.014-1.853l-3.464-2.945l-8.999-2.184L784.328,392.038L784.328,392.038z"/>
<path id="bali" fill="#EEEEEE" d="M815.87,401.533l-2.381,1.313l1.411,1.533l3.464-1.312L815.87,401.533L815.87,401.533z"/>
<path id="lombok" fill="#EEEEEE" d="M819.985,400.552l0.43,2.073l2.493,0.651l0.97-1.202l-1.081-1.644L819.985,400.552
	L819.985,400.552z"/>
<path id="sumba" fill="#EEEEEE" d="M825.952,406.011l-3.033,0.441l2.713,2.294h2.162L825.952,406.011L825.952,406.011z"/>
<path id="flores" fill="#EEEEEE" d="M826.812,402.404l-0.652,1.313l4.875,0.76l3.795-2.183l-2.162-0.65l-3.463,0.981l-1.302-1.092
	L826.812,402.404L826.812,402.404z"/>
<path id="timor" fill="#EEEEEE" d="M842.748,403.176l-5.635,4.698l0.54,1.202l2.382-0.44l2.813-2.625l5.525-0.761l-1.081-1.853
	L842.748,403.176L842.748,403.176z"/>
<path id="new_ireland" fill="#EEEEEE" d="M924.739,381.758l-0.971,1.379l5.306,4.698l0.728,2.757l1.444-0.165l0.166-2.835
	l-1.61-1.456L924.739,381.758L924.739,381.758z"/>
<path id="new_britain" fill="#EEEEEE" d="M927.396,388.409l-1.047,0.242l-0.64,2.835l-2.008,1.301l-6.033,1.059l0.242,2.271
	l6.352-0.319l4.026-2.515l-0.242-4.378L927.396,388.409L927.396,388.409z"/>
<path id="bougainville" fill="#EEEEEE" d="M934.554,393.35l1.368,3.805l2.415,2.349l0.728-0.651l-0.242-2.515l-2.736-3.319
	L934.554,393.35L934.554,393.35z"/>
<path id="choiseul" fill="#EEEEEE" d="M941.226,399.019l0.166,2.514l1.533,1.456l1.445-0.893l-1.29-2.681L941.226,399.019
	L941.226,399.019z"/>
<path id="new_georgia" fill="#EEEEEE" d="M943.156,405.261l-1.29,1.379l1.368,2.515l1.61,0.486l-0.078-1.699L943.156,405.261
	L943.156,405.261z"/>
<path id="santa_isabel" fill="#EEEEEE" d="M946.3,403.805l1.124,2.757l2.172,2.591l1.203-1.941l-1.61-2.757L946.3,403.805
	L946.3,403.805z"/>
<path id="malaita" fill="#EEEEEE" d="M951.935,407.941l0.64,3.408l1.534,2.107l1.29-2.669L951.935,407.941L951.935,407.941z"/>
<path id="santa_ana" fill="#EEEEEE" d="M953.701,415.563l-0.562,0.97l1.853,2.437l1.29,0.077l-0.806-3.164L953.701,415.563
	L953.701,415.563z"/>
<path id="rennell" fill="#EEEEEE" d="M949.597,420.415l-1.93,0.894l1.688,2.349l1.445-0.816L949.597,420.415L949.597,420.415z"/>
<path id="fiji" fill="#D8D8DB" d="M999.89,451.561l-1.368,1.831l-0.11,2.063l1.588,1.61L999.89,451.561L999.89,451.561z"/>
<path id="palawan" fill="#EEEEEE" d="M824.253,324.992l-0.949,1.809l-0.529,2.228l-5.272,6.695l0.32,1.379l2.217-0.32l6.849-7.654
	L824.253,324.992L824.253,324.992z"/>
<path id="negros" fill="#EEEEEE" d="M832.79,322.444l-0.111,5.525l2.008,2.018l0.739,3.926l2.008,0.43l0.948-2.448l-1.577-1.169
	l-0.419-6.904L832.79,322.444L832.79,322.444z"/>
<path id="cebu" fill="#EEEEEE" d="M838.492,324.573l-0.111,4.886l1.159,1.908l2.007-2.338l-0.529-4.246L838.492,324.573
	L838.492,324.573z"/>
<path id="samar" fill="#EEEEEE" d="M839.749,320.316l2.008,2.658l0.948,2.547h1.799l-0.32-4.356l-2.008-1.379L839.749,320.316
	L839.749,320.316z"/>
<path id="path7462" fill="#EEEEEE" d="M843.653,330.308l0.419,3.188l-3.694,2.978l-3.056,0.32l-3.264,3.507l0.111,1.599l3.055-0.96
	l2.107-1.379l1.798,4.566l3.165,2.228l1.269-0.431l1.158-1.379l-2.526-2.547l1.478-1.17l1.688,1.379l1.158-1.907l-1.158-2.338
	l-0.21-5.206L843.653,330.308L843.653,330.308z"/>
<path id="luzon" fill="#EEEEEE" d="M826.47,297.905l-2.846,2.018l-0.32,6.375l4.434,8.602l1.478,1.169l1.897-1.279l3.265,0.529
	l0.629,2.868l2.427,0.209l1.158-1.588l-1.478-2.018l-1.798-1.698l-3.794-0.419l-2.008-3.297l2.317-3.507l0.209-3.077l-1.577-3.926
	L826.47,297.905L826.47,297.905z"/>
<path id="mindoro" fill="#EEEEEE" d="M827.947,316.919l0.839,2.978l1.478,0.959l1.059-1.379l-1.688-2.338L827.947,316.919
	L827.947,316.919z"/>
<path id="hainan" fill="#EEEEEE" d="M791.673,294.816l-2.636,0.739l-1.898,2.338l1.578,3.077l2.316,0.209l2.635-2.338l0.629-3.077
	L791.673,294.816L791.673,294.816z"/>
<path id="taiwan" fill="#EEEEEE" d="M822.147,270.707l-3.904,2.978l-0.209,5.735l3.374,3.926l0.838-0.739L822.147,270.707
	L822.147,270.707z"/>
<path id="kyushu" fill="#EEEEEE" d="M839.54,235.536l-1.799,1.809l0.739,2.548l1.578,0.11l1.059,5.525l1.268,1.379l2.218-2.018
	l0.948-3.617l-2.745-3.926L839.54,235.536L839.54,235.536z"/>
<path id="shikoku" fill="#EEEEEE" d="M849.245,231.929l-3.056,2.868l-0.11,3.298l0.739,0.959l4.113-3.507l-0.32-3.507
	L849.245,231.929L849.245,231.929z"/>
<path id="honshu" fill="#EEEEEE" d="M845.021,225.124l-5.382,6.165l0.948,1.489l2.637,0.32l4.951-3.827l3.485-0.64l3.165,3.716
	l2.427-0.849l0.949-3.617l4.532-0.11l4.434-5.316l-2.317-8.823l-1.059-4.677l2.317-1.908l-5.272-7.963l-1.368,0.11l-2.846,3.188
	v2.658l1.269,1.489l0.419,7.014l-3.265,4.037l-1.897-1.169l-1.479,3.297l-0.32,3.077l1.159,1.809l-0.739,1.379l-2.427-2.018h-1.688
	l-1.478,0.849L845.021,225.124L845.021,225.124z"/>
<path id="hokkaido" fill="#EEEEEE" d="M854.097,177.104l-1.687,1.489l0.849,3.188l1.478,1.489l-0.11,4.886l-1.897,0.739
	l-1.479,3.298l4.323,5.944l2.846-0.959l0.53-1.489l-3.056-2.757l1.898-2.449l2.007,0.32l1.578,1.698l0.11-3.507l4.323-3.507
	l2.427-0.64l-2.008-3.397l-0.948-1.489l-1.578,1.059l-1.367,1.698l-2.957-0.639l-3.055-2.018L854.097,177.104L854.097,177.104z"/>
<path id="iturup" fill="#EEEEEE" d="M870.013,173.807l-2.957,4.147l0.21,2.018l1.478-0.64l3.475-4.357L870.013,173.807
	L870.013,173.807z"/>
<path id="urup" fill="#EEEEEE" d="M873.917,167.751l-1.059,2.868l0.11,1.908l1.798-1.169l1.688-3.397v-1.268L873.917,167.751
	L873.917,167.751z"/>
<path id="paramushir" fill="#53AE50" d="M880.137,142.462l-1.368,1.698l0.111,2.658l1.268-0.11l2.107-3.717L880.137,142.462
	L880.137,142.462z"/>
<path id="onekotan" fill="#53AE50" d="M877.611,148.947v4.676l1.478,0.529l1.059-1.699v-3.606L877.611,148.947L877.611,148.947z"/>
<path id="sakhalin" fill="#EEEEEE" d="M834.477,132.05l-0.099,6.805l8.537,13.18l3.055,11.47l5.383,10.202l2.106,0.739l1.799-1.488
	l0.838-2.449l-7.699-8.393l0.21-4.357l1.688-0.739l0.419-2.548l-15.077-21.352L834.477,132.05L834.477,132.05z"/>
<path id="st._lawrence_island" fill="#53AE50" d="M925.632,39.186l-2.603,1.699l-0.617,2.162l1.225,1.389l2.757-0.926l2.757,0.926
	l1.533,0.463l-0.154-5.095L925.632,39.186L925.632,39.186z"/>
<path id="unalaska_west" fill="#53AE50" d="M8.426,118.451l-0.187,3.32l2.382-0.551v-1.478L8.426,118.451L8.426,118.451z"/>
<path id="umnak_west" fill="#53AE50" d="M4.764,119.93L0,122.334l0.739,2.581l1.831-1.478l3.661-1.665L4.764,119.93L4.764,119.93z"
	/>
<path id="madagascar" fill="#EEEEEE" d="M606.904,408.14l-2.349,5.581l-4.026,7.102l-7.047,0.507l-3.022,3.551l0.507,10.831
	l-4.367,5.073l0.507,8.625l3.695,4.224l4.367-0.507l4.367-3.22l-1.004-5.073l10.069-17.427l-2.018-2.194l2.018-4.224l2.184,0.672
	l0.672-1.687l-2.018-8.625l-1.179-3.551L606.904,408.14L606.904,408.14z"/>
<path id="lanzarote" fill="#D8D8DB" d="M412.044,276.685l-1.93,1.114l0.893,0.904L412.044,276.685L412.044,276.685z"/>
<path id="guadeloupe" fill="#EEEEEE" d="M258.719,309.375l-1.654,0.684l0.584,1.466l1.941-1.268l-0.386-0.397L258.719,309.375
	L258.719,309.375z"/>
<path id="dominica" fill="#EEEEEE" d="M261.442,311.04l-0.97,2.063l1.169,1.566l1.456-1.268L261.442,311.04L261.442,311.04z"/>
<path id="martinique" fill="#EEEEEE" d="M264.751,316.72l-1.169,1.081l0.871,1.765l1.654-0.485L264.751,316.72L264.751,316.72z"/>
<path id="st._lucia" fill="#EEEEEE" d="M264.652,321.132l-0.783,1.666l1.268,1.367l1.654-0.882L264.652,321.132L264.652,321.132z"/>
<path id="st._vincent" fill="#EEEEEE" d="M264.751,325.345l-1.357,0.982l1.07,1.963l1.753-0.982L264.751,325.345L264.751,325.345z"
	/>
<path id="grenada" fill="#EEEEEE" d="M263.097,329.161l-1.268,1.268l0.485,0.783h1.555l0.485-1.279L263.097,329.161L263.097,329.161
	z"/>
<path id="trinidad" fill="#EEEEEE" d="M264.939,332.988l-1.169,1.081l-1.269,0.199v1.567l2.338,2.15l0.97-1.566l0.585-1.764
	l-0.199-1.467L264.939,332.988L264.939,332.988z"/>
<path id="puerto_rico" fill="#EEEEEE" d="M252.597,306.827l-2.911-0.982l-2.338,1.467l1.169,1.367l3.981,0.585L252.597,306.827
	L252.597,306.827z"/>
<path id="haiti-dominican_border" fill="#EEEEEE" d="M230.341,300.563l-1.842,1.886l2.106,0.861l0.309,2.636l-4.665,0.408
	l0.474,2.537l1.357,0.099l0.783-1.169l5.449,0.177l0.981,1.886l1.257-1.478l3.673-0.993l3.231,0.684l0.375-1.952l-5.824-3.805
	l-3.772-1.412L230.341,300.563L230.341,300.563z"/>
<path id="domincan_republic" fill="#EEEEEE" d="M243.84,306.143l-5.834-3.816l-2.757-0.938l-0.926,6.617l0.97,1.864l1.268-1.466
	l3.695-0.982l3.21,0.684L243.84,306.143L243.84,306.143z"/>
<path id="haiti" fill="#EEEEEE" d="M230.33,300.563l3.794,0.397l-0.452,4.654l-0.375,2.449l-4.422-0.243l-0.783,1.18l-1.357-0.099
	l-0.485-2.548l4.665-0.386l-0.287-2.647l-2.14-0.882L230.33,300.563L230.33,300.563z"/>
<path id="falklands_west" fill="#EEEEEE" d="M293.295,557.318l-2.901-0.32l-2.889,1.942l2.095,2.272L293.295,557.318
	L293.295,557.318z"/>
<path id="falklands_east" fill="#EEEEEE" d="M296.184,555.863l-0.959,3.077l-2.735,2.425l0.165,0.806l4.665-1.787l1.93-2.427
	L296.184,555.863L296.184,555.863z"/>
<path id="iceland" fill="#EEEEEE" d="M401.831,126.227l-2.162-1.224l-2.912,1.842l-2.503,2.316l0.066,1.29l3.243,0.408l-0.199,2.316
	l-1.147,1.158l0.276,0.75l3.243,0.21v3.75l4.666,0.816l2.768,1.566l3.109,0.133l5.339-2.658l4.124-5.448l0.067-3.684l-2.504-2.117
	l-2.095-1.776l-0.949,0.683l-1.423,1.842l-1.621-0.21l-1.621-1.775l-2.096,0.199l-3.044,2.526l-1.831,1.974l-1.015-0.883
	l-0.067-2.184l1.015-0.684L401.831,126.227L401.831,126.227z"/>
<path id="spitsbergen" fill="#EEEEEE" d="M492.158,56.358l-1.819-1.831l-4.037,1.963h-7.411l-1.17,4.323l4.158,3.673l1.819-0.265
	l2.603-4.456l2.206,1.577l-1.566,3.143l-0.783,4.588l1.819,2.878l3.904-6.551l5.074-6.166l-1.953-1.698L492.158,56.358
	L492.158,56.358z"/>
<path id="nordaustlandet" fill="#EEEEEE" d="M494.364,48.495l-3.254,3.011l1.953,3.011h3.507l1.434,1.963l4.291,2.228l4.94-2.878
	l3.386-2.878l-1.169-2.36l-3.386-1.963l-2.471,2.227l-1.688-2.095l-1.301,0.132l-1.688,3.673l-2.47-2.493l-0.265-1.699
	L494.364,48.495L494.364,48.495z"/>
<path id="edgeoya" fill="#EEEEEE" d="M501.776,61.994l-2.603,2.36l-2.206,1.698l1.036,1.831l2.085,0.65l3.386-1.577l1.566-1.963
	l-1.435-2.36L501.776,61.994L501.776,61.994z"/>
<path id="prince_george" fill="#EEEEEE" d="M557.848,39.627l1.897,0.761l-1.334,2.294v3.253l-2.846,1.721h-3.033l-1.709-2.106
	l0.187-2.294l1.334-1.721h2.658L557.848,39.627L557.848,39.627z"/>
<path id="salisbury" fill="#EEEEEE" d="M565.061,37.521v2.294l1.897,1.533l2.658-0.187l2.282-2.107v-1.533h-2.084l-1.709,0.574
	l-1.334-1.533L565.061,37.521L565.061,37.521z"/>
<path id="wilczek" fill="#EEEEEE" d="M575.89,37.719l1.334,2.868l2.658,0.187l1.897-0.761l-0.948-2.68l-2.471-0.574L575.89,37.719
	L575.89,37.719z"/>
<path id="bell" fill="#EEEEEE" d="M586.71,33.892l-2.085-0.386l-1.897,1.919l0.949,1.721l0.573,2.68l2.471-1.908l0.573-2.107
	L586.71,33.892L586.71,33.892z"/>
<path id="novaya_zemlya_north" fill="#53AE50" d="M598.291,54.175l-0.574,2.68l-4.367,3.827l-9.308,2.107l-7.6,12.628l-1.334,3.639
	l7.6,1.919l1.135-4.588l2.283-7.081l5.889-3.066l4.942-3.827l3.606-1.533h1.897v-5.162L598.291,54.175L598.291,54.175z"/>
<path id="novaya_zemlya_south" fill="#53AE50" d="M573.796,82.111l5.128,0.574l1.71,5.933l4.367,4.588l-1.522,3.066h-2.658
	l-2.471-2.868l-5.504-0.187l-2.283-3.066v-2.107l3.42-0.96L573.796,82.111L573.796,82.111z"/>
<path id="komsomolets" fill="#53AE50" d="M653.943,16.863l-2.471-1.533h-2.846l-0.573,1.721l-3.033,1.721l-2.283,0.761l-0.375,2.294
	l5.315,0.386L653.943,16.863L653.943,16.863z"/>
<path id="october" fill="#53AE50" d="M659.822,17.437l-1.335,2.868l-2.658-0.187l-4.18,3.066l-1.136,3.827h2.658l1.522-2.493
	l3.607,2.68l3.419-1.533l2.471-2.107l-0.949-3.253l-1.334-2.294L659.822,17.437L659.822,17.437z"/>
<path id="bolshevik" fill="#53AE50" d="M665.336,19.544l1.334,5.36l2.084,4.974l2.283-4.015l4.367-0.96v-2.868l-2.846-2.106
	L665.336,19.544L665.336,19.544z"/>
<path id="kotelny" fill="#53AE50" d="M769.538,10.963l2.967,2.493l2.107-0.871l0.617-3.496l-4.323-2.989l-2.846,1.875l-6.927,0.629
	v3.121l-7.301,0.121v5.106l8.537,6.353l2.228-1.622l-0.497-4.489l5.448-1.368l-1.114-2.118l-1.974-1.996L769.538,10.963
	L769.538,10.963z"/>
<path id="novaya_sibir" fill="#53AE50" d="M777.457,7.974l1.974,3.739l7.676-0.871l2.106-2.746l-0.495-2.372l-2.107-0.871
	l-1.974,1.5l-5.691,1.246L777.457,7.974L777.457,7.974z"/>
<path id="lyakhovsky" fill="#53AE50" d="M776.961,22.555l-3.839-0.993l-2.217,2.371l-0.993,3.242l5.195-0.497l3.96-1.996
	L776.961,22.555L776.961,22.555z"/>
<path id="wrangel" fill="#53AE50" d="M876.431,0.993L873.211,0l-3.705,1.368l-1.854,2.746l2.349,3.121l6.188-2.746l1.235-1.368
	L876.431,0.993L876.431,0.993z"/>
<path id="sri_lanka" fill="#EEEEEE" d="M704.224,336.594l0.276,3l0.276,2.184l-1.621,0.276l0.815,4.908l2.437,1.368l3.784-2.184
	l-1.081-5.173l0.276-1.908l-3.518-3.264L704.224,336.594L704.224,336.594z"/>
<path id="cuba" fill="#EEEEEE" d="M197.232,291.232v1.401l5.867,0.11l2.769-1.61l0.43,1.18l5.757,1.401l5.118,4.621l-1.169,1.61
	l0.21,1.831l4.268,1.07l4.268-1.93l1.919-1.93l-2.769-1.401l-14.282-8.382l-5.007-0.541L197.232,291.232L197.232,291.232z"/>
<path id="bimini" fill="#EEEEEE" d="M217.922,282.64l-1.389-0.43l-0.11,2.68l1.709,1.721l1.169-1.721L217.922,282.64L217.922,282.64
	z"/>
<path id="andros" fill="#EEEEEE" d="M220.691,286.832l-1.919,1.069l1.809,2.581l0.96-1.291L220.691,286.832L220.691,286.832z"/>
<path id="inagua" fill="#EEEEEE" d="M226.878,288.762l-2.029-0.11l0.21,1.29l1.489,2.151l1.279-1.401L226.878,288.762
	L226.878,288.762z"/>
<path id="eleuthera" fill="#EEEEEE" d="M225.918,286.192l-3.309-1.401l-0.64-3.331l1.279-0.541l1.28,2.581l1.279,0.97
	L225.918,286.192L225.918,286.192z"/>
<path id="grand_bahama" fill="#D8D8DB" d="M222.72,279.42l-1.709-0.43l-0.32-2.15l-1.809-0.64l1.169-1.18l2.129,0.75l1.599,0.97
	L222.72,279.42L222.72,279.42z"/>
<path id="jamaica" fill="#EEEEEE" d="M217.172,305.206l-3.838,0.971v1.069l2.239,1.29h2.349l1.489-1.721L217.172,305.206
	L217.172,305.206z"/>
<path id="irian_jaya" fill="#EEEEEE" d="M871.192,371.104l-4.599,0.518l-2.955,2.162l1.225,2.471l5.007,0.926v0.927l-3.165,2.569
	l1.533,5.35l1.533,0.099l1.324-5.25h2.448l1.026,5.14l11.945,9.882l0.308,7.72l4.081,4.422l1.842-0.099l0.408-27.264l-6.937-4.831
	l-6.54,4.423l-2.349,1.444l-3.883-2.471l-0.099-7.819L871.192,371.104L871.192,371.104z"/>
<path id="alaska_1_" fill="#53AE50" d="M56.347,46.355l-9.253,2.195l1.908,10.423l10.069,2.746l0.54,2.195l-14.966,4.665
	l-8.437,13.984l2.989,14.812l4.897,3.287l3.816-3.562l1.092,2.195l-4.632,5.481l-17.966,8.228l-11.437,2.747l-0.276,4.114
	l26.403-7.676l10.886-3.022l10.069-12.341l11.161-7.4l-5.713,9.595l6.264,0.827l10.621-4.665l1.908,7.676l7.345,1.643l7.621,7.4
	l0.54,5.482l-1.092,1.367l1.357,5.206h1.908l0.276-8.779h2.172l0.541,21.661l5.448-4.665l-3.816-22.488h-5.713l-6.264-7.952
	l30.76-52.112L96.89,25.764l-34.025,6.585l-1.357,10.423l7.346,4.39l-2.724,7.135L56.347,46.355L56.347,46.355z"/>
<path id="banks" fill="#53AE50" d="M178.35,36.429l0.243,4.434l-8.801,9.121l2.206,7.389l6.352-1.721l3.673-5.426l9.286-3.452
	l7.577-0.497l-5.868-6.408l-2.933,2.217l-2.206-0.739l-1.225-2.713l-2.691-2.713L178.35,36.429L178.35,36.429z"/>
<path id="prince_patrick" fill="#53AE50" d="M189.842,23.37l-1.952,3.453l9.54,3.452l3.419-5.173l1.467,3.452h2.449l4.643-5.172
	l-5.625-1.478l-2.206-1.72l-2.934,2.955L189.842,23.37L189.842,23.37z"/>
<path id="eglinton" fill="#53AE50" d="M206.474,30.275l-7.577,3.198v2.459l9.783,3.695l-2.206,2.459l1.467,3.198l6.11-2.713h5.139
	l2.449,3.938l4.158-4.191l-0.982-3.948l-3.419,1.235l-0.485-4.93l1.71-2.955h-1.71l-2.691,1.721l-1.224,0.981l0.739,3.453
	l-1.952,1.478l-2.934-0.243l-0.739-4.434L206.474,30.275L206.474,30.275z"/>
<path id="mackenzie_king" fill="#53AE50" d="M216.499,22.632l-0.739,2.459l4.643,2.217l3.419-1.974l-0.242-1.478L216.499,22.632
	L216.499,22.632z"/>
<path id="king_christian" fill="#53AE50" d="M220.161,18.441l-3.419,1.235l0.242,1.72l7.577-0.496l-0.242-1.721L220.161,18.441
	L220.161,18.441z"/>
<path id="ellef_ringnes" fill="#53AE50" d="M236.55,22.632l-0.485,1.721l-1.224,1.721v2.459l4.643-0.739l4.885,4.191h1.71v-4.191
	l-4.886-5.426L236.55,22.632L236.55,22.632z"/>
<path id="amund_ringnes" fill="#53AE50" d="M249.024,27.562l1.952,2.217l-1.71,2.956l1.225,3.198l5.382-2.956V30.76l-3.176-3.695
	L249.024,27.562L249.024,27.562z"/>
<path id="axel_heiberg" fill="#53AE50" d="M256.116,21.893l0.242,3.938h6.607l1.709,1.478l-0.243,1.721l-5.867,0.739l4.158,5.669
	l5.625,0.981l7.819-3.452l-11.25-17.007l-3.419,2.216l0.242,2.956l-3.915-1.478L256.116,21.893L256.116,21.893z"/>
<path id="victoria" fill="#53AE50" d="M199.14,49.741l-9.286,2.459l-5.383,4.687l0.486,5.173l9.782,2.956l-2.206,4.93l-7.091-4.434
	l-1.952,3.695l4.643,3.198l-0.243,5.173l7.092,1.974l8.558-0.497l1.467-2.713l6.353,7.147l4.4-1.478l0.739-4.93l3.177,2.217
	l0.485-4.93l-3.916-2.459l0.243-15.518l-3.419-2.713l-3.662,4.93L199.14,49.741L199.14,49.741z"/>
<path id="prince_of_wales" fill="#53AE50" d="M228.973,60.582l-3.176-1.478l-1.709,2.217l3.419,5.426l0.243,5.173l7.334-4.434
	v-6.407l2.691-2.713l-2.691-1.974h-4.4L228.973,60.582L228.973,60.582z"/>
<path id="prescott" fill="#53AE50" d="M244.623,58.366l-5.139,4.191l1.224,5.172h3.176l1.467-2.713l2.206,2.216l2.206-0.242
	l5.867-4.93L244.623,58.366L244.623,58.366z"/>
<path id="cornwallis" fill="#53AE50" d="M244.127,50.226l-1.225,2.459l5.382,1.974l1.467-2.217L244.127,50.226L244.127,50.226z"/>
<path id="bathurst" fill="#53AE50" d="M240.951,40.863l-5.382,0.739l-3.176,2.955l5.867,0.243l-1.709,4.434l1.224,1.974l1.71-0.243
	l4.158-6.65L240.951,40.863L240.951,40.863z"/>
<path id="devon" fill="#53AE50" d="M250.248,39.142l-2.934,0.982l0.486,3.937l4.886,3.198l0.243,2.459l-1.467,1.478l0.739,4.93
	l18.827,6.154l5.139,1.721l5.14-4.434l-6.11-4.93l-5.625,1.478l-7.819-0.739l-2.934-2.955l-0.739-8.129l-4.886-2.459L250.248,39.142
	L250.248,39.142z"/>
<path id="baffin" fill="#53AE50" d="M265.645,64.773l-5.382-0.496l-6.352,2.459l-3.419,4.676l0.981,12.816l10.511,0.497l10.025,4.93
	l7.092,8.128l5.382-0.243l-1.467,7.632l-4.886,8.128l-5.383,2.459l-3.915-0.739l-1.952-1.721l-2.934,3.938l1.225,3.937l4.158,0.243
	l5.139-2.459l4.401,11.338l11.007,7.147l7.577-9.606l-6.353-10.345l3.673-4.191l5.14,8.625l9.286-8.129l-1.71-3.695l-6.352,1.974
	L296.735,100l4.158-6.893l-8.316-8.867l-4.643,3.198l-4.4-9.606l-9.286,1.235l-2.449-11.58l-7.577,5.173l-0.739,6.407h-4.158
	l0.485-5.668L265.645,64.773L265.645,64.773z"/>
<path id="bylot" fill="#53AE50" d="M276.652,69.207l-1.952,1.974l1.71,2.713l8.073,0.982l-5.14-5.426L276.652,69.207L276.652,69.207
	z"/>
<path id="ellesmere" fill="#53AE50" d="M268.832,41.359v2.217l-5.382,1.235l1.466,2.459l6.11,2.46l6.849,0.739l4.886,3.452
	l4.886-2.713l-3.419-3.452h4.4l2.692-2.956l6.606-0.982V42.34l-3.673-2.459l0.485-2.713l10.268,1.721l15.165-5.912l-5.625-1.72
	l1.467-1.974h11.735l1.952-1.974l-23.724-8.382l-5.624-1.974l-6.11,4.434l-6.849-5.669l-3.673-0.242l-0.739,4.687l-4.643-4.191
	l-5.382,1.721l0.982,2.713l8.073,1.721l-0.485,3.938l4.401,2.713l10.764-2.713l0.243,3.694l-8.801,4.191l-5.382-4.191l-4.886,0.497
	l4.886,6.904l-2.449,1.235l-3.673-3.198l-2.691,1.721l2.449,4.676h4.158l-0.982,4.434l-3.419-0.496l-4.4-4.687L268.832,41.359
	L268.832,41.359z"/>
<path id="southhampton" fill="#53AE50" d="M247.039,109.176l-4.665,5.867l-0.287,6.463l4.081-2.349h4.952l3.496,3.232l3.21-2.647
	L247.039,109.176L247.039,109.176z"/>
<path id="newfoundland" fill="#53AE50" d="M303.849,185.497l-11.657,11.161l1.169,2.647l14.272,5.283l2.04-3.518l-1.169-5.867
	l-4.666,0.584l-2.625-2.934l4.367-4.4L303.849,185.497L303.849,185.497z"/>
<path id="canada" fill="#53AE50" d="M128.157,50.513l2.195,3.319l1.103,4.434l5.492,1.379l3.849-4.147l3.297,1.665l9.342,0.827
	l6.595-2.768l1.103,9.132h3.849v-3.871l3.849,0.276l9.617,11.349l6.32,3.871l-3.297,5.261l1.379,1.379l12.341,2.493l0.276,5.536
	l3.298,0.551l0.827-8.305l5.217-1.379l3.849,5.812l8.239,3.871l4.125,0.827l2.747-3.32l0.276-5.261l4.941-3.044l1.643,4.434
	l-4.4,7.754l0.551,3.871l2.47-3.871l4.941-4.434l0.276-5.812l-2.746-4.434l0.827-3.595l6.595-3.32l3.022,2.217l0.551,19.378
	l4.665-4.147l2.747,1.666l-3.849,6.639l4.941,1.103l7.147-11.073l6.044,6.364l-2.471,11.349l-6.044,3.32l-5.768-2.768l-10.433,2.217
	l1.103,3.596l-2.746,4.434l-8.514,1.941l-9.618,7.478l-8.514,11.349l-1.103,3.595l5.768,2.217l2.194,5.536l7.963,8.029l12.639,5.537
	l-2.746,12.727l-0.276,3.595l3.298,2.217l4.4-5.812l0.551-11.073l6.871-0.276l3.298-6.364l0.551-9.684l8.79-17.161l10.985,3.871
	l5.768,8.029l-2.471,8.029l4.401,2.492l10.709-7.202l3.022,19.653l9.893,11.9l0.276,6.088l-10.985,2.769l-5.217,5.537l-10.985-2.493
	l-5.493-0.276l-9.617,7.478l5.768-1.379l7.147-1.379l1.379,1.665l-1.919,6.088l0.276,5.537l3.297,2.217l3.298-0.827l1.654-2.493
	h2.195l-3.573,6.639l-6.872,0.276l-3.022,4.434h-3.849l-1.103-3.32l5.492-5.536l-6.595,2.217l-0.298-9.408l-1.897-1.103
	l-5.768,2.493l-0.551,4.709H245.76l-11.261,7.753l-15.11,4.985l-1.643-2.217l7.61-11.36l-4.323-4.158l-2.747-5.272l-5.591-4.268
	l-6-0.496l-10.753-7.533l-77.986-12.816l-1.291-5.283l-7.147-6.639v-5.537l1.103-4.985l-0.551-2.768l-2.746-2.769l-0.551-4.434
	l7.147-4.985l-4.401-23.8l-6.044-0.276l-5.492-7.202L128.157,50.513L128.157,50.513z"/>
<path id="usa" fill="#53AE50" d="M117.723,171.479l-1.103,4.434l-3.849-2.492h-1.919l-1.103,4.709l-13.466,30.175l3.574,26.293
	l4.4,2.217l0.827,7.202h9.066l8.79,6.639l17.305,1.666l1.919,8.856l2.747,1.941l3.849-3.872l3.022,1.379l2.746,12.728l4.665,3.044
	l3.849-7.202l11.812-8.58l7.687,3.595l6.595,0.551l0.276-4.147l13.731,0.276l2.746,3.044l0.551,6.915l-1.644,3.871l1.919,6.639
	h4.125l4.125-6.363l-1.644-3.044l-1.643-6.639l2.47-7.477l11.261-9.684l8.515-2.492l-1.103-8.029l11.812-12.738l11.812-1.941
	l-1.919-6.628l11.536-6.639v-8.856l-1.103-0.551l-4.125,1.379l-0.551,5.426l-13.709,0.165l-10.742,7.136l-16.863,5.514l-2.691-3.298
	l7.654-11.58l-3.783-3.606l-2.57-4.897l-5.327-4.279l-5.79-0.486l-10.941-7.466L117.723,171.479L117.723,171.479z"/>
<path id="haida_gwaii" fill="#53AE50" d="M101.257,138.47l-1.875,3.595l0.651,2.548l1.224,0.761l-0.287,1.037l-1.312,0.375
	l0.375,3.783l1.411,1.423l1.125-1.224l-1.411-3.684l0.838-2.933l2.063-2.747l-1.5-2.548L101.257,138.47L101.257,138.47z"/>
<path id="vancouver" fill="#53AE50" d="M107.456,160.02l-1.688,0.661l3.099,3.596l0.75,4.257l3.099,3.309l2.625-0.474v-4.346
	l-3.187-1.985L107.456,160.02L107.456,160.02z"/>
<path id="guatemala" fill="#EEEEEE" d="M168.589,318.363l6.54,4.786l6.595-8.194l-1.125-1.699l-2.25-0.078v-4.798l-1.687-1.025
	l-5.107,1.522l1.952,4.5L168.589,318.363L168.589,318.363z"/>
<path id="honduras" fill="#EEEEEE" d="M182.563,315.341l10.191-0.386l3.022,3.595l-1.886-0.43l-3.629,0.155l-4.742,4.456
	l-2.029,4.511l-1.334-0.705l-0.011-4.941l-2.934-1.964L182.563,315.341L182.563,315.341z"/>
<path id="el_salvador" fill="#EEEEEE" d="M176.056,323.602l5.184,2.581l-0.078-4.092l-2.658-1.621L176.056,323.602L176.056,323.602z
	"/>
<path id="nicaragua" fill="#EEEEEE" d="M193.802,319.014l2.415,0.485l0.077,4.952l-2.812,8.029l-7.577-0.75l-1.688-3.871l2.25-4.698
	l4.268-3.971L193.802,319.014L193.802,319.014z"/>
<path id="costa_rica" fill="#EEEEEE" d="M193.405,333.209l1.533,3l1.246,1.654l-1.676,4.974l-3.198-2.25l-5.228-4.786v-3.165
	L193.405,333.209L193.405,333.209z"/>
<path id="panama" fill="#EEEEEE" d="M196.945,338.315l-1.61,5.029l5.316,1.379l3.297,0.651l0.563-3.892l3.54-1.787l3.143,1.621
	l1.235,1.974l1.5-0.177l1.18-3.584l-3.926-1.621l-2.978-1.622l-2.978,2.03l-3.54,1.787l-3.618-1.456L196.945,338.315
	L196.945,338.315z"/>
<path id="colombia" fill="#EEEEEE" d="M233.495,327.473l-2.272-0.232l-15.022,12.386l-1.588,4.357l-2.051,0.232l0.916,9.629
	l-5.239,12.848l5.691,4.82l7.29,0.463l5.007,7.345l7.279,0.232l-0.232,5.504h2.724l2.956-10.092l-2.735-3.441l0.683-6.418
	l5.691-0.463l-0.684-14.912l-12.75-4.125l-2.955-8.028L233.495,327.473L233.495,327.473z"/>
<path id="venezuela" fill="#EEEEEE" d="M229.889,334.245l0.485,2.856l3.584,1.136l0.816-5.261l3.783-3.915l3.783,4.434l8.702,2.371
	l7.367-1.543l5.019,6.187l3.783,2.372l-4.147,6.32l1.389,4.786l-2.371,2.934l-2.459,2.061l-5.327-2.68l-1.224,1.235v3.816
	l3.893,1.853l-2.867,3.1l-2.868,3.099l-3.783-0.309l-3.805-4.179l-0.805-15.728l-12.993-4.433l-2.36-6.916L229.889,334.245
	L229.889,334.245z"/>
<path id="guyana" fill="#EEEEEE" d="M268.038,343.3l7.963,7.213l-3.165,3.662l-0.254,2.172l4.158,4.29l-0.099,4.125l-7.235,2.757
	l-4.335-5.856l0.927-7.036l-1.853-5.239L268.038,343.3L268.038,343.3z"/>
<path id="suriname" fill="#EEEEEE" d="M276.949,351.031l2.25,2.063l3.485-2.162l3.176,0.099l-0.408,1.235l-1.334,2.78l-0.21,6.915
	l-6.342,2.581l0.309-4.433l-4.092-3.816l0.209-1.964L276.949,351.031L276.949,351.031z"/>
<path id="guyane" fill="#EEEEEE" d="M286.875,351.759l6.452,4.026l-3.375,6.706l-1.224,1.543l-3.584-2.063l0.099-7.224
	L286.875,351.759L286.875,351.759z"/>
<path id="ecuador" fill="#EEEEEE" d="M207.544,367.255l-5.217,3.243l-0.375,4.809l-1.047,1.577l3.287,3.155l-1.423,1.554
	l0.331,3.971l5.879,1.4l8.9-10.532l-0.022-3.673l-4.268-0.276L207.544,367.255L207.544,367.255z"/>
<path id="peru" fill="#EEEEEE" d="M201.842,382.331l-2.14,2.163l0.144,3.452l18.683,34.057l19.4,12.507l3-5.03l0.717-11.061
	l-1.566-6.893l-5.283-8.911l-3.143,1.004l-1.423,1.577l-6.275-7.19l1.566-8.482l7.279-4.742l-0.574-4.456l-7.412-0.287l-3.849-6.463
	l-2.14-0.717l0.143,3.883l-9.551,11.349l-7.135-1.721L201.842,382.331L201.842,382.331z"/>
<path id="bolivia" fill="#EEEEEE" d="M238.988,407.996l9.077-3.959l3,0.287l1.996,8.337l13.83,4.6l2.283,7.047l5.702,0.717
	l2.427,6.033l-1.71,5.46l-9.275,0.716l-3.419,8.768l-7.279-0.143l-2.283-0.43l-4.202,4.08l-2.073-0.198l-7.136-16.533l1.974-2.955
	l0.695-11.69l-1.765-6.96L238.988,407.996L238.988,407.996z"/>
<path id="paraguay" fill="#EEEEEE" d="M275.438,437.466l2.427,2.647l-0.287,5.603l6.992-0.431l5.283,6.762l-0.43,6.033l-3.419,5.172
	l-6.992,0.288l-0.287-2.879l1.996-4.742l-6.849-4.312h-5.702l-4.279-4.599l3.11-8.89L275.438,437.466L275.438,437.466z"/>
<path id="uruguay" fill="#EEEEEE" d="M284.923,473.221l-2.261,2.416l0.938,12.993l7.103,2.061l9.033-9.055L284.923,473.221
	L284.923,473.221z"/>
<path id="argentina" fill="#EEEEEE" d="M290.559,458.079l2.14,2.007l-8.129,12.077l-2.856,3.165l0.992,13.797l6.275,7.621
	l-5.272,9.198l-3.992,1.721h-4.566l1.28,7.18l-7.136,2.448l1.71,6.034l-4.28,13.654l5.283,4.313l-2.856,7.036l-4.853,7.621
	l2.57,5.315l-6.276,1.004l-5.139-6.319l-0.86-19.687l-7.985-33.44l2.415-11.69l-5.14-14.944l3.419-19.4l3.143-3.74l-0.772-2.834
	l4.037-3.683l9,0.617l5.029,5.371l5.812,0.099l5.956,3.639l-1.754,4.102l0.419,4.148l8.437-0.397L290.559,458.079L290.559,458.079z"
	/>
<path id="tierra_del_fuego_chile" fill="#EEEEEE" d="M268.027,563.847l-4.709,10.346l8.128,0.859l0.143-6.893L268.027,563.847
	L268.027,563.847z"/>
<path id="tierra_del_fuego_argentina" fill="#EEEEEE" d="M272.306,569.02l0.287,6.319l4.853-0.43l4.136-2.735l-6.992-1.435
	L272.306,569.02L272.306,569.02z"/>
<path id="chile" fill="#EEEEEE" d="M266.428,562.226l-3.54,3.915l-0.43,4.599l-6.849-3.882l-7.279-10.488l-2.14-3.74l3-3.882
	l-0.287-4.887l-3.419-1.434l-2.713-2.006l0.574-2.736l3.562-1.004l0.717-15.805l-5.559-3.165l-3.629-82.265l0.938-1.632
	l7.103,16.378l2.272,0.044l0.739,2.614l-3.022,3.662l-3.475,19.709l4.941,15.176l-2.283,11.492l8.051,33.792l0.849,19.764
	l5.768,6.673L266.428,562.226L266.428,562.226z"/>
<path id="chiloe" fill="#EEEEEE" d="M242.925,520.878l-1.422,2.151l0.717,3.74l1.423,0.143l0.717-4.742L242.925,520.878
	L242.925,520.878z"/>
<path id="brazil" fill="#EEEEEE" d="M300.232,480.853l6.893-13.256l0.254-11.139l12.859-8.294h7.202l5.658-9.585l1.026-18.396
	l-2.316-4.919l13.632-12.441l0.519-13.73l-18.518-9.067l-22.367-6.992l-10.544-1.036l2.835-5.956l-0.772-9.065l-2.305-0.762
	l-3.408,6.773l-1.786,2.238l-4.588-2.029l-15.429,5.437l-5.14-6.473l0.827-6.762l-4.853,4.942l-5.361-2.89l-0.54,0.761l0.011,2.349
	l4.622,2.482l-6.937,7.312l-4.379-0.044l-4.434-4.511l-5.018,0.154l-0.618,5.361l2.878,3.496l-3.397,10.886l-3.971,0.308
	l-6.32,3.993l-1.544,7.842l5.482,5.868l1.003-1.136l3.849-1.037l3.287,5.537l9.408-4.037l3.65,0.21l2.515,8.9l13.422,4.258
	l2.316,7.102l5.713,0.684l2.724,6.783l-1.842,6.033l2.404,3.155l-0.353,4.698l6.441-0.606l5.901,7.455l-0.463,5.239l3.496,2.955
	l-8.382,12.695L300.232,480.853L300.232,480.853z"/>
<path id="belize" fill="#EEEEEE" d="M179.266,308.305l-0.055,4.025h0.927l3.154-5.889h-2.14L179.266,308.305L179.266,308.305z"/>
<path id="russia" fill="#53AE50" d="M855.796,77.281l1.942,6.705l3.882,1.114l3.882-6.143l-2.216-4.191l0.827-3.629h5.824
	l-1.389,2.791l0.551,10.058l-8.316,20.669l0.827,4.467l-0.276,7.544l15.518,22.62l3.044,0.839l0.276-18.429l3.044-2.791l-3.33-7.257
	l2.768-3.077l-6.099-8.095l-3.331,0.276l-1.103-13.4l8.592-2.239l0.551-3.915l4.434-1.114l2.492,2.239l3.044-12.286l5.261-8.934
	l4.157-2.239l3.607,0.276v-4.191l-5.824-1.114l-8.04-6.706l3.883-4.467l-3.331-7.544l2.768-2.791l3.331,4.467l8.316,3.077
	l9.143,0.838l1.114-3.904l-4.709-4.742l5.26-7.257l-11.922-4.191l-3.045,6.143l-3.882-5.029l-21.892-7.544l-20.79,3.629
	l-3.044,1.676v1.676l4.433,2.239l-0.551,5.305l-8.039-3.353l-17.735,6.981l-3.045-6.419H814.46l-5.548,5.868l-19.676-4.467
	l-18.01,3.629l-2.216,5.581l2.768,0.838l-0.276,4.191l-17.459,1.952l1.114,5.581l-16.08-2.791l3.883-7.257l-16.356-0.838
	l1.389,7.544l-5.26,2.515l-4.434-4.191l-18.01,3.077l-6.926,6.419l-0.276,3.904l-4.433,0.276l-0.551-4.467l14.14-12.286v-8.382
	l-9.143-2.515l-11.923,3.904l-4.985-5.029h-2.216l-2.769,5.581l2.218,2.514l-15.805,8.658L644.039,56.06l-8.316,11.448v4.743
	l8.867,3.629l-4.433,3.353l-9.419-3.353l-3.883,3.353l-5.824-6.706l-1.114,2.514l6.375,20.106l1.665,0.563l4.434-2.239l2.216,1.676
	v3.629l-4.157-1.676l-2.493,1.952l1.666,3.629l-1.391,9.496l-8.592,0.839l-0.551-3.077l4.986-3.077l1.114-8.382l-5.548-7.257
	l-1.941-12.562l-8.867-1.401l-0.827,4.467l1.665,2.239l-3.606,3.077l1.389,8.382l5.261,2.239l1.114,6.143l-5.272-3.353
	l-13.576-2.514l-1.666,4.467l-10.808,3.904l-1.665-2.791l-14.14,7.82l-0.276,5.305l-5.547,0.838l1.665-3.904v-3.904l-5.548-1.952
	l-3.606,1.401l3.044,5.868l2.217,3.904v3.077l-4.157-0.839l-0.827-0.838l-4.159,4.467l2.216,3.904l-9.419-0.276l3.045,3.915
	l-0.827,1.676h-4.986l-3.606-2.514l-0.827-6.981l-5.824-2.239v-2.791l12.198,2.515l6.651,0.562l2.768-4.191l-2.492-4.467
	l-17.735-6.981l-6.121,1.522l-2.096,1.797l0.652,4.136l2.602,0.452l-0.606,6.507l8.029,18.86l-5.802,9.198l-0.396,2.073l2.945,2.073
	l-2.658,1.754l-1.764,0.033l0.331,8.106l2.437,3.452l0.033,3.353l3.121,0.287l4.776,1.82l5.051,6.948l0.055,1.831l-1.644,2.812
	l3.772-0.21l3.673,1.059l4.963,7.026l12.22,1.114l-0.53,8.36l-4.212,3.607l0.871,1.412l-4.159,4.467l-1.103,4.191l2.492,3.628
	l8.04,2.791l3.331-1.952l21.341,8.095l0.827-2.239l-4.433-4.191v-5.305l-2.769-0.838l0.551-4.467l4.434-5.305l-7.952-5.956
	l0.551-8.283l8.503-5.592l9.981,0.562l1.665,3.077l10.258,0.563l7.489-4.191l-3.883-4.191l0.827-7.82l19.4-9.496l14.923,6.728
	l4.985-4.467l14.691,13.962l11.084-1.114l3.883,3.904l10.533,1.114l6.926-9.496l8.867,3.915l4.709,0.839l4.71-4.191l-4.159-2.79
	l3.607-5.581l10.257,3.353l2.217,4.467l4.434,0.276l2.768-1.952l7.489-0.276l0.827,1.952l8.592,0.563l5.823-6.144l11.923,1.401
	l3.606-1.401l1.103-6.705l-3.606-8.096l3.606-3.077h11.361l10.808,12.849l13.852,7.819h4.159l0.551-3.353l4.985-3.077l0.551,18.154
	l-4.433,0.276v4.467l2.492,3.077l-0.463,3.993l1.842,0.761l1.114-2.79l1.666,0.562l1.103,1.114l4.985-1.114l4.985-14.525
	l0.551-18.154l-6.374-14.525l-8.04-9.772l-3.883,0.562v3.077l-9.419-3.629l3.607-7.819l3.044-20.669l12.75-3.904l6.098-3.904h6.651
	l-1.665,2.239l1.665,2.791l5.824-6.144l3.33,0.276l-0.551-3.629l-5.272-1.114l3.607-13.125L855.796,77.281L855.796,77.281z"/>
<path id="china" fill="#EEEEEE" d="M693.041,184.416l-3.816,9.595l-5.261-0.276l-5.548,12.143l4.71,6l-9.705,13.4l-4.986-0.838
	l-3.33,4.191l0.827,2.514l3.882,0.276l1.941,4.467l3.883,0.838l11.922,15.364v7.819l5.824,3.629l6.375-1.114l8.04,4.743l9.705,2.79
	l4.709-0.562l5.272-0.563l11.084-7.257l3.607,0.563l1.379,3.275l3.055,0.915l4.158,6.144l-2.768,6.143l1.665,4.191l4.709,1.676
	l0.827,5.029l5.548,0.563l0.827-2.515l8.04-4.191l4.986,0.276l5.823,6.419l3.883-1.677l2.492,0.276l1.114,3.077l1.942,0.276
	l2.768-3.904l11.084-4.191l9.981-12.011l3.331-11.448l-0.276-7.544l-4.158-0.839l2.492-2.79l-0.551-4.467l-10.532-10.609v-5.305
	l3.044-3.904l3.045-1.401l0.276-3.077h-7.764l-1.389,4.191l-3.607-0.838l-4.433-4.743l2.768-7.257l3.882-4.191l3.607,0.276
	l-0.551,6.419l1.941,1.677l4.71-4.743l1.665-0.276l-0.551-3.629l4.433-5.305l3.331,0.276l1.941-6.143l2.273-1.202l0.232-3.827
	l-2.206-2.316l-0.188-6.044l4.247-0.276l-0.276-15.584l-2.978,1.787l-1.114,3.993l-4.974-0.011l-14.415-8.106l-10.412-12.551
	l-10.566-0.11l-2.691,2.338l3.419,7.831l-1.191,7.345l-4.256,1.765l-2.393-0.187l-0.177,7.268l2.492,0.562l4.434-1.952l5.823,2.79
	v2.791l-4.157,0.276l-3.331,7.257l-3.044,0.276l-10.808,14.238l-11.36,5.029l-7.764,0.563l-5.261-3.629l-7.489,3.915l-8.04-2.514
	l-1.941-5.305l-13.576-0.839l-7.202-11.724h-3.044l-2.449-5.437L693.041,184.416z"/>
<path id="mongolia" fill="#EEEEEE" d="M696.791,184.526l6.419-8.514l7.71,3.562l5.239,1.401l6.418-5.89l-4.356-3.209l2.867-4.048
	l8.558,3.022l2.967,4.864l5.359,0.143l2.802-2.085l5.769-0.232l1.257,2.14l9.585,0.485l6.066-6.187l8.392,0.883l-0.485,8.426
	l3.673,0.839l4.511-2.052l4.776,2.36l-0.111,1.191l-3.463,0.099l-3.606,7.566l-2.801,0.276l-10.897,14.238l-11.129,4.908
	l-6.959,0.54l-5.78-3.728l-7.39,3.948l-7.279-2.261l-2.063-5.283l-13.786-0.971l-7.059-11.966l-3.429-0.221L696.791,184.526
	L696.791,184.526z"/>
<path id="north_korea" fill="#EEEEEE" d="M812.022,211.106l2.029,0.849l0.617,7.103l4.026,0.232l3.794-4.444l-1.313-1.169
	l0.154-4.764l3.485-4.213l-1.775-3.198l1.158-1.324l0.64-3.309l-2.018-0.915l-1.721,0.871l-2.128,6.463l-3.441-0.298l-3.982,4.698
	L812.022,211.106L812.022,211.106z"/>
<path id="south_korea" fill="#EEEEEE" d="M823.117,215.441l6.816,5.559l1.159,5.382l-0.232,2.89l-3.331,3.75l-2.867,0.154
	l-3.254-7.025l-1.235-3.353l1.313-1.015l-0.309-1.401l-1.621-0.728L823.117,215.441L823.117,215.441z"/>
<path id="kazakhstan" fill="#53AE50" d="M589.689,204.875l4.521-1.93l5.051-0.177l0.353,7.72h-2.956l-2.261,3.683l2.955,4.908
	l4.357,2.459l0.397,2.812l1.599-0.529l1.478-1.753l2.437,0.529l1.225,2.459h3.132v-3.154l-1.919-5.614l-0.871-4.555l5.569-2.459
	l7.489,1.224l4.698,4.732l10.621-1.047l5.923,8.415l6.96,0.353l1.919-3.154l2.437-0.529l0.352-3.507l3.651-0.177l1.918,2.283
	l1.919-4.555l16.533,2.283l2.779-3.683l-4.698-5.79l6.265-13.676l5.05,0.353l3.485-8.415l-6.959-0.706l-4.003-3.86l-11.029,1.28
	l-14.205-13.731l-5.007,4.445l-15.188-6.893l-18.628,9.121l-0.518,6.485l4.356,5.084l-8.491,4.798l-11.018-0.242l-2.305-3.386
	l-8.636-0.474l-8.183,5.26l-0.177,7.191L589.689,204.875L589.689,204.875z"/>
<path id="turkmenistan" fill="#EEEEEE" d="M608.613,225.797l-0.683,2.901h-4.577v3.926l4.919,3.243l-1.522,4.444v2.051l2.04,0.342
	l2.713-3.584l6.11-1.367l13.058,4.952l0.166,3.584l7.291,0.684l8.139-8.547l-1.015-2.735l-5.426-1.191l-15.265-9.915L623.878,221
	h-5.769l-2.547,4.786h-2.548L608.613,225.797L608.613,225.797z"/>
<path id="uzbekistan" fill="#EEEEEE" d="M647.292,238.447l3.397,0.177v-5.812l-3.22-1.875l5.426-6.838h2.206l2.206,2.57l5.769-2.217
	l-7.975-2.735l-0.309-1.654l-1.897,0.463l-1.864,3.242l-8.04-0.265l-5.9-8.349l-10.368,1.026l-4.94-4.897l-6.838-1.158l-4.963,2.018
	l2.879,9.573l0.033,3.22l2.095,0.044l2.57-4.897l6.838,0.088l1.015,3.761l14.658,9.727l5.669,1.302L647.292,238.447L647.292,238.447
	z"/>
<path id="tajikistan" fill="#53AE50" d="M648.694,230.484l4.532-5.624h1.709l0.596,1.257l-2.095,1.522v1.257l1.379,0.992
	l6.628,0.397l2.162-0.927l0.981,0.199l0.662,2.117l3.937,0.397l1.974,4.169l-0.596,1.257l-0.783,0.066l-0.783-1.588l-1.709-0.132
	l-2.955,0.397l-0.199,2.779l-2.955-0.199l0.132-3.507l-2.162-2.118l-3.287,2.713l0.067,1.787l-2.89,0.993h-1.709l0.132-6.154
	L648.694,230.484L648.694,230.484z"/>
<path id="kirgizstan" fill="#53AE50" d="M655.994,216.555l-0.341,2.791l0.276,1.72l9.595,3.221l-8.427,3.396l-0.959-0.794
	l-1.82,1.169l0.088,0.64l0.97,0.441l5.912,0.154l3-0.904l3.849-4.853l4.819,0.838l5.813-8.051l-15.55-2.117l-2.151,5.217
	l-2.713-2.912L655.994,216.555L655.994,216.555z"/>
<path id="afghanistan" fill="#EEEEEE" d="M630.97,247.259l1.753,13.742l4.367,0.96l0.408,2.471l-3.132,2.614l5.834,4.709
	l11.337-4.08l0.905-4.831l7.136-4.456l2.736-10.323l2.04-2.195l-2.117-3.683l6.905-4.268l-0.883-1.235l-3.187,0.199l-0.286,2.933
	l-4.279-0.044l-0.078-3.915l-1.379-1.643l-2.316,2.106l0.066,1.93l-3.496,1.324l-6.453-0.408l-8.382,8.779L630.97,247.259
	L630.97,247.259z"/>
<path id="pakistan" fill="#EEEEEE" d="M640.907,272.394l2.868,4.258l-0.276,2.194l-3.817,1.511l-0.276,3.573h4.369l1.499-1.235
	h8.316l7.5,6.595l0.96-3.166h5.592l0.132-3.981l-5.724-5.492l1.225-3.022l5.867-0.408l7.909-16.488l-4.368-3.43l-1.632-5.769
	l10.632-0.959l-6.275-8.934l-3.342-0.905l-1.368,1.654l-1.025,0.078l-6.276,3.981l2.052,3.441l-2.316,2.47l-2.868,10.577
	l-7.091,4.533l-0.96,4.952L640.907,272.394L640.907,272.394z"/>
<path id="india" fill="#EEEEEE" d="M693.681,342.065l5.05-2.471l3.001-10.852l-0.132-13.323l17.183-18.551v-4.401l3.54-1.379
	l-0.132-5.084l-3.816-7.423l2.183-3.982l4.776,4.401l6.133,0.276v2.471l-1.909,2.062l0.408,1.103l3.275,0.133l0.684,3.706h0.96
	l2.46-4.4l1.224-11.536l4.092-2.89l0.133-3.981l-1.632-3.165l-2.592-0.132l-10.146,6.706l0.639,4.312l-7.125-0.022l-2.514-3.077
	l-1.368,0.176l0.463,4.28l-15.407-1.103l-9.551-4.258l-0.507-5.239l-6.364-3.948l-0.076-8.128l-4.367-4.996l-10.037,0.96
	l1.092,4.367l4.919,3.982l-8.503,17.404l-5.691,0.43l-0.937,2.095l5.603,5.183l-0.276,5.239l-5.724-0.088l-0.617,2.603l4.753-0.209
	l0.132,2.063l-3.408,1.786l2.183,4.125l4.224,1.379l2.593-1.919l1.224-3.43l1.5-0.684l1.776,1.787l-0.541,4.401l-1.225,2.062
	l0.276,3.574L693.681,342.065L693.681,342.065z"/>
<path id="nepal" fill="#EEEEEE" d="M693.913,264.366l0.507,4.709l8.912,4.037l14.282,1.059l-0.54-3.453l-9.541-2.625l-8.095-4.82
	L693.913,264.366L693.913,264.366z"/>
<path id="bhutan" fill="#EEEEEE" d="M720.614,270.454l1.709,2.338l5.779,0.044l-0.585-3.199L720.614,270.454L720.614,270.454z"/>
<path id="bangladesh" fill="#EEEEEE" d="M720.801,276.001l-1.445,2.614l3.75,7.125l0.11,5.559l0.684,1.489l4.401,0.077l2.492-2.393
	l1.808,1.092l0.364,3.386l1.445-0.904l0.088-4.324l-1.214-0.143l-0.76-3.673l-3.066-0.11l-0.76-2.04l1.874-2.504l0.033-1.235h-5.448
	L720.801,276.001L720.801,276.001z"/>
<path id="burma" fill="#EEEEEE" d="M758.157,331.742l-3.056-4.897l2.217-3.11l-2.095-3.849l-1.974-0.375l-0.375-6.463l-2.957-5.725
	l-0.86,1.368l-1.973,3.353l-2.471,0.375l-1.235-1.621l-0.617-4.357l-1.854-3.485l-7.544-7.113l1.852-1.224l0.343-5.151l2.757-4.632
	l1.191-11.526l3.993-2.724l0.131-4.202l2.393,0.794l3.773,5.46l-2.801,6l1.886,4.709l4.665,1.831l0.85,5.128l6.264,0.97
	l-1.732,2.989l-7.896,3.11l-0.861,5.096l5.801,7.456l0.242,3.981l-1.356,1.367l0.121,1.247l4.323,6.342l0.122,6.584L758.157,331.742
	L758.157,331.742z"/>
<path id="thailand" fill="#EEEEEE" d="M758.807,295.148l3.573,4.599v5.592l1.235,0.618l5.68-2.735l1.114,0.375l6.783,7.831
	l-0.242,5.349l-2.218-0.375l-1.974-1.247l-1.478,0.122l-2.591,4.345l0.497,2.36l2.095,1.114l-0.121,2.614l-1.478,0.75l-5.063-3.485
	v-3.111l-2.095-0.121l-0.861,1.367l-0.442,13.919l3.276,5.978l5.801,5.592l-0.242,1.621l-3.089-0.121l-2.834-4.224h-2.967
	l-3.705-2.989l-1.115-3.111l1.599-2.614l0.551-2.36l1.743-3.088l-0.078-7.103l-4.257-6.154l-0.177-0.75l1.379-1.389l-0.32-4.886
	l-5.669-7.18l0.661-4.136L758.807,295.148L758.807,295.148z"/>
<path id="malaysia" fill="#EEEEEE" d="M761.763,344.756l2.216,4.974l0.497,6.463l2.967,4.599l7.157,4.345l2.714,0.254l-0.496-4.478
	l-2.349-5.713l-3.441-7.312l-0.288,1.28l-4.147-0.187l-2.978-4.279L761.763,344.756L761.763,344.756z"/>
<path id="cambodia" fill="#EEEEEE" d="M770.333,327.132l4.511,4.819l8.392-6.22l0.739-9.816l-4.334,2.989l-2.25-1.257l-3.055-0.408
	l-1.71-1.202l-0.827,0.044l-2.238,3.672l0.364,1.698l2.271,1.268l-0.276,3.453L770.333,327.132L770.333,327.132z"/>
<path id="laos" fill="#EEEEEE" d="M764.806,286.832l-2.669,1.357l-2.217,6.463l3.706,4.72l-0.618,5.217l0.618,0.254l6.165-2.989
	l8.272,9.243l-0.199,5.823l1.799,0.97l4.444-3.606l-0.364-2.856l-12.826-12.187l0.122-1.864l1.599-1.114l-1.115-3.11l-5.305-0.871
	L764.806,286.832L764.806,286.832z"/>
<path id="vietnam" fill="#EEEEEE" d="M775.383,332.624l1.313,2.063l0.242,2.36l3.452,0.375l4.192-5.591l3.948-1.114l2.095-5.713
	l-0.981-9.198l-4.07-5.592l-4.29-3.43l-5.46-9.375l3.915-6.551l-5.603-6.43l-4.488-0.199l-4.037,2.173l1.202,5.195l5.382,0.948
	l1.445,4.004l-1.898,1.235l0.122,0.992l12.628,12.353l0.495,3.629l-0.76,11.47L775.383,332.624L775.383,332.624z"/>
<path id="georgia" fill="#EEEEEE" d="M566.273,222.014l3.607,4.709l4.5,2.073l2.768-0.011l4.753-1.29l1.191-1.864l-14.062-5.261
	L566.273,222.014L566.273,222.014z"/>
<path id="armenia" fill="#EEEEEE" d="M582.001,228.334l5.294,6.904l-1.554,1.82l-3.75-0.651l-4.654-4.169l0.253-2.735
	L582.001,228.334L582.001,228.334z"/>
<path id="azerbaijan" fill="#EEEEEE" d="M583.865,225.941l-1.114,1.897l5.195,6.816l1.808-0.585l2.978,3.121l1.29-5.47l3.231,0.519
	l-0.133-1.567l-5.315-4.654l-1.015,2.735L583.865,225.941L583.865,225.941z"/>
<path id="iran" fill="#EEEEEE" d="M581.924,237.223l-1.346,1.401l0.133,2.217l1.677,2.349l5.944,6.507l-0.905,2.603h-1.036
	l-0.518,2.603l3.364,4.301l3.099,0.265l6.209,8.592l3.485,0.264l2.713,1.952l0.133,3.904l10.732,6.253h4.003l2.459-2.084l3.1-0.132
	l1.808,4.169l11.591,1.61l0.342-4.257l3.838-1.389l0.177-1.522l-3.055-4.169l-6.806-5.47l3.574-3.254l-0.253-1.434l-4.478-0.695
	l-1.897-15.11l-0.221-3.474l-12.143-4.643l-5.382,1.213l-3.011,3.694l-2.669-0.176l-0.771,0.651l-5.945-0.386l-7.5-5.47
	l-2.791-3.055l-1.279,0.309l-2.305,2.636L581.924,237.223L581.924,237.223z"/>
<path id="turkey" fill="#EEEEEE" d="M569.847,227.562l-2.46,2.603l-9.044-0.264l-5.426-3.254l-5.294-0.132l-6.077,4.301
	l-5.691,0.264l-0.518,3.254h-6.463l-2.581,2.349v1.302l1.555,1.301v1.434l-0.65,1.699l0.65,1.434l2.073-1.037l2.073,2.217
	l-0.518,1.567l-0.772,1.047l1.158,1.302l5.691,1.169l4.003-1.698v-2.471l1.942,0.386l4.654,2.735l5.039-0.783l2.195-2.085
	l1.423,0.519v2.349h1.941l1.677-3.253l14.734-1.567l6.43-0.783l-1.698-2.228l-0.033-3.011l1.29-1.544l-4.698-3.772l0.253-3.254
	h-2.581L569.847,227.562L569.847,227.562z"/>
<path id="yemen" fill="#EEEEEE" d="M584.505,315.838l1.588,4.72v4.61l3.816,3.463l26.889-10.952l0.254-3.011l-4.313-7.742
	l-10.819,3.453l-6.209,6.11l-7.202-4.257L584.505,315.838L584.505,315.838z"/>
<path id="oman" fill="#EEEEEE" d="M613.61,306.584l8.15-4.698l1.445-6.893l-1.787-1.026l0.739-7.389l1.555-0.905l1.665,2.614
	l9.915,5.184v2.878l-12.01,17.679l-5.526,0.187L613.61,306.584L613.61,306.584z"/>
<path id="emirates" fill="#EEEEEE" d="M608.79,289.048l0.96,3.838l10.875,0.96l0.76-7.875l2.096-1.147l0.573-2.878l-3.429,0.96
	l-3.816,5.768L608.79,289.048L608.79,289.048z"/>
<path id="qatar" fill="#EEEEEE" d="M607.268,282.519l-0.573,4.422l1.698,1.291l1.543-0.144l0.574-5.569l-1.334-0.96L607.268,282.519
	L607.268,282.519z"/>
<path id="kuwait" fill="#EEEEEE" d="M596.967,269.45l-2.482-1.345l-1.72,1.731l0.187,3.463l4.003,1.533L596.967,269.45
	L596.967,269.45z"/>
<path id="saudi" fill="#EEEEEE" d="M597.75,276.145l7.731,10.775l2.492,1.986l1.115,4.831l11.9,0.938l1.345,0.706L621,301.335
	l-7.819,4.61l-11.437,3.463l-6.099,5.956l-7.246-4.224l-4.389,3.838l-6.11-9.982l-4.191-1.919l-1.522-2.305v-4.996l-15.253-18.441
	l-0.574-3.264h4.39l5.338-4.61l0.188-2.305l-1.522-1.533l3.055-2.493l6.486,0.386l11.061,9.22l6.529-0.298l0.419,1.61
	L597.75,276.145L597.75,276.145z"/>
<path id="syria" fill="#EEEEEE" d="M556.579,249.553l-0.386,2.801l3.109,1.302l-0.133,7.764l3.111-0.066l3.111-2.349l1.169-0.199
	l7.059-5.614l1.423-8.151l-14.106,1.434l-1.488,3.265L556.579,249.553L556.579,249.553z"/>
<path id="iraq" fill="#EEEEEE" d="M576.034,245.031l-1.72,8.504l-7.125,5.934l0.452,2.801l6.959,0.474l11.084,9.022l6.198-0.177
	l0.166-2.085l2.271-2.437l3.176,1.798l0.42-0.397l-6.143-8.172l-2.912-0.177l-3.871-4.974l0.772-3.662l1.18-0.154l0.408-1.621
	l-5.272-5.547L576.034,245.031L576.034,245.031z"/>
<path id="jordan" fill="#EEEEEE" d="M559.039,262.402l-2.713,9.463l-0.122,1.445h4.268l4.776-4.213l0.121-1.599l-1.952-1.996
	l3.496-2.9l-0.507-2.691l-0.96,0.22l-2.911,2.085L559.039,262.402L559.039,262.402z"/>
<path id="lebanon" fill="#EEEEEE" d="M556.061,253.204l0.066,2.151l-0.904,3.265l3.11,0.264l0.199-4.632L556.061,253.204
	L556.061,253.204z"/>
<path id="israel" fill="#D4ECD3" d="M555.09,259.403l-1.743,5.547l2.261,6.651l2.591-9.717v-2.085L555.09,259.403L555.09,259.403z"
	/>
<path id="cyprus" fill="#EEEEEE" d="M552.763,250.336l1.357,0.982l-4.203,3.981l-2.008-0.066l-1.488-1.047l0.198-1.952l3.045-0.199
	L552.763,250.336L552.763,250.336z"/>
<path id="norway" fill="#EEEEEE" d="M522.157,109.496l2.228-1.632l-0.199-1.831l-1.412-0.816l0.199-2.239h1.213v-1.224l-5.26-1.423
	l-7.886,0.816l-0.805,3.463l-1.82-0.606l-1.213-2.04l-3.849,0.199l-0.408,3.871l-1.82,0.816l-1.015-2.04l-8.095,6.518l1.621,1.831
	l-3.033,1.423l-6.881,13.654l-2.427,1.632l0.198,1.225l2.427,1.224l-0.606,2.647l-4.048-0.21l-1.214-1.423l-2.625,3.055
	l-1.621,1.224l-0.408,2.857l-1.412,0.816l-3.639,0.816l-1.82,5.713l1.214,9.375l1.412,4.279l1.621,1.633l3.639-0.199l5.261-5.096
	l2.017-3.463l0.607,5.096l3.441-6.11l0.198-17.128l2.801-1.765l0.838-9.452l8.493-12.232l4.048-1.423l1.82-2.239l6.066,1.423
	l3.033,1.831l1.015-5.096l5.062-3.055L522.157,109.496L522.157,109.496z"/>
<path id="britain" fill="#53AE50" d="M445.682,161.266l-2.018,3.055l0.805,1.224h4.655v2.04l-1.214,1.632l0.806,4.279l2.625,5.095
	l2.018,4.687l3.231,1.224l1.412,2.449l-0.198,2.239l-2.018,1.224l-0.199,1.015l1.412,0.816l-1.213,1.632l-2.835,1.224l-5.46-0.606
	l-8.503,3.871l-2.834-1.423l8.095-4.687l-1.015-0.607l-4.247-0.408l2.625-3.871l0.408-3.265l3.441-0.408l-0.606-6.32l-4.048-0.199
	l-1.214-1.422l0.199-4.687l-2.427,0.198l2.427-8.151l4.456-3.265L445.682,161.266L445.682,161.266z"/>
<path id="ulster" fill="#53AE50" d="M437.19,174.931l-3.639,0.408l-0.198,3.265l2.426,1.632l2.626-0.606l1.015-1.831L437.19,174.931
	L437.19,174.931z"/>
<path id="ireland" fill="#EEEEEE" d="M438.392,180.534l-1.004,6.617l-8.9,3.265h-2.835l-2.018-1.422v-1.225l4.456-2.856
	l-1.213-2.449l0.198-3.463l3.849,0.198l1.764-4.147l-0.232,3.683l2.989,2.371L438.392,180.534L438.392,180.534z"/>
<path id="sweden" fill="#EEEEEE" d="M502.592,112.187l2.162,1.996h4.048l2.228,4.279l0.606,7.334l-5.46,3.872v3.871l-3.848,5.305
	l-2.228,0.199l-3.033,5.095l0.198,4.897l5.262,3.871l-0.408,2.239l-2.018,3.055l-3.033,2.647l0.198,8.768l-4.654,1.632l-1.621,3.463
	h-2.228l-1.213-6.11l-5.062-7.765l4.158-6.959l0.286-17.194l2.868-1.577l0.695-9.838l8.173-11.702L502.592,112.187L502.592,112.187z
	"/>
<path id="finland" fill="#EEEEEE" d="M512.595,125.819l2.283,1.004l1.411,2.647l-1.411,1.831l-7.081,7.742l-1.214,4.08l1.621,5.912
	l5.46,4.08l7.28-3.463l5.867-0.816l5.46-8.768l-4.048-9.584l-3.849-9.176l0.606-5.911l-2.426-0.408l-0.629-4.312l-3.265-5.327
	l-3.618,2.504l-1.423,5.812l-3.838-2.305l-5.338-1.302l-1.191,1.39l2.051,1.852l3.74-0.066l3.01,4.864L512.595,125.819
	L512.595,125.819z"/>
<path id="estonia_1_" fill="#EEEEEE" d="M525.036,163.792l-7.556-1.225l0.166,4.224l7.003,4.28l2.868-0.838l-0.166-3.22
	L525.036,163.792L525.036,163.792z"/>
<path id="hiumaa" fill="#EEEEEE" d="M512.562,159.678l-1.709-0.055l-0.993,1.004l0.717,1.059l1.709,0.11l0.882-1.28L512.562,159.678
	L512.562,159.678z"/>
<path id="saaremaa" fill="#EEEEEE" d="M512.397,164.178l-1.654-0.166l-2.978,3.562v1.666l0.992,0.386l1.93,0.055l3.199-2.614
	l0.442-0.893L512.397,164.178L512.397,164.178z"/>
<path id="lithuania" fill="#EEEEEE" d="M517.029,167.465l-2.371-0.055l-3.254,3.111h-2.757l0.166,3.893l-1.654,3.055l5.955,0.055
	l1.709-0.22l1.71,2.063l3.915-0.166l3.749-4.776l-0.22-2.834L517.029,167.465L517.029,167.465z"/>
<path id="belarus" fill="#EEEEEE" d="M516.864,180.247l1.654,2.724l-0.662,2.173l0.111,1.721l0.606,2.063l3.419-1.941l4.247,0.11
	l2.978,1.224h7.554l2.206-5.283l1.324-1.996v-1.335l-4.742-6.672l-4.192-1.665l-3.419-0.386l-2.978,0.948l0.111,3l-4.136,5.228
	L516.864,180.247L516.864,180.247z"/>
<path id="poland" fill="#EEEEEE" d="M517.746,189.589l0.937,1.721l0.221,1.831l-0.772,1.775l-1.764,3.397l-1.489,0.673l-1.93-0.838
	l-1.159,0.055l-2.812,1.059l-3.198-0.949l-5.184-3.673l-5.074-2.724l-2.04-3.111l-0.386-7.334l3.97-3.452l5.184-1.721l1.93-0.221
	l-0.772,1.555l0.497,0.607l8.724,0.165l1.874-0.055l3.089,4.732l-0.772,1.941l0.331,2.283L517.746,189.589L517.746,189.589z"/>
<path id="spain" fill="#EEEEEE" d="M448.153,222.941h-14.051l-2.835-1.28l-1.368,0.1l-1.654,3.441l0.585,3.54l5.371,0.497
	l0.684,2.261l-2.338,13.18l0.099,2.36l3.805,2.062l4.39,0.298l8.779-2.162l4.29-5.404l0.099-5.503l7.61-6.882l0.386-3.044
	l-6.927-0.1L448.153,222.941L448.153,222.941z"/>
<path id="portugal" fill="#EEEEEE" d="M428.929,229.823l-0.684,9.54l-1.952,1.765l0.198,1.081l1.368,2.261l-0.882,2.757l1.467,0.497
	l3.419-0.397l-0.198-2.757l2.239-12.783l-0.486-1.765L428.929,229.823L428.929,229.823z"/>
<path id="majorca" fill="#EEEEEE" d="M462.203,236.407l-1.753,0.596l0.387,1.577h2.536l1.069-1.18L462.203,236.407L462.203,236.407z
	"/>
<path id="sardinia" fill="#EEEEEE" d="M480.357,232.183l-2.922,1.478l0.386,5.702l2.338,0.397l1.753-1.676v-5.404L480.357,232.183
	L480.357,232.183z"/>
<path id="corsica" fill="#EEEEEE" d="M480.655,225.102l-2.151,2.162l-0.198,1.964l1.753,1.081l0.684-0.1l0.386-2.856
	L480.655,225.102L480.655,225.102z"/>
<path id="france" fill="#EEEEEE" d="M461.432,193.934l-2.437,0.596l-4.876,5.305l-1.466,0.1l-1.953-1.379l-1.269,0.298l-0.97,3.044
	l-7.125,0.199l0.199,1.577l4.875,3.242l5.658,4.522l-0.099,5.404l-3.022,5.305l6.54,3.143l6.64,0.199l2.051-2.36l4.192,0.099
	l1.169,1.081l4.191-0.298l2.151-2.757l-2.736-3.242l-0.198-2.062l0.585-2.261l-1.368-1.963l-2.338,0.684l-0.297-1.765l5.172-5.702
	V201.5l-3.419-1.963l-1.754-0.298L461.432,193.934L461.432,193.934z"/>
<path id="netherlands" fill="#EEEEEE" d="M472.119,182.431l-4.996,2.459l1.059,0.96l0.111,2.459l-1.059-0.209l-1.17-1.82
	l-2.79,4.423l4.29,0.893l1.599,1.687l0.849,0.022l0.563-3.816l2.701-1.136L472.119,182.431L472.119,182.431z"/>
<path id="belgium" fill="#EEEEEE" d="M462.767,191.53l-0.707,1.765l7.588,5.007l2.184,0.518l0.078-2.371l-1.909-2.14h-1.169
	l-1.599-1.82L462.767,191.53L462.767,191.53z"/>
<path id="germany" fill="#EEEEEE" d="M473.276,182.001l3.938-0.64v-2.779l3.298-0.54l1.808,1.82l1.909,0.21l2.978-1.29l2.657,0.75
	l2.338,2.029l0.32,7.599l2.338,3.11l-3.077,0.43l-5.106,3.21l0.43,1.07l4.567,4.279l-0.32,2.14l-4.247,2.14l-3.937,0.11l-0.96,2.03
	h-2.018l-0.96-2.14l-3.507-0.861l-0.111-3.529l-2.977-2.03l0.319-2.57l-2.017-2.779l0.529-3.639l2.757-1.29L473.276,182.001
	L473.276,182.001z"/>
<path id="denmark" fill="#EEEEEE" d="M479.486,163.935l-4.576,5.062l-0.166,3.298l2.085,5.437l3.264-0.617l-0.408-4.445l2.25-2.514
	l-0.044-1.974l-1.589-4.114L479.486,163.935L479.486,163.935z"/>
<path id="sjlland" fill="#EEEEEE" d="M484.637,172.913l-1.026-0.044l-1.345,1.235l0.166,1.93l3.187,0.088l0.166-2.184
	L484.637,172.913L484.637,172.913z"/>
<path id="gotland" fill="#EEEEEE" d="M503.441,162.468l-2.327,1.842l1.17,2.702l2.062-2.008L503.441,162.468L503.441,162.468z"/>
<path id="switzerland" fill="#EEEEEE" d="M475.229,205.713l-4.809,5.118l0.099,0.519l1.974-0.618l1.776,2.47l3-1.059l2.073,1.61
	l0.85-0.485l2.559-4.015l-0.652-0.617l-2.526-0.066l-1.224-2.504L475.229,205.713L475.229,205.713z"/>
<path id="czech" fill="#EEEEEE" d="M492.346,200.739h3.276h1.61l2.614,1.864l4.841-4.025l-4.698-3.353l-4.655-2.25l-3.187,0.574
	l-4.323,2.779L492.346,200.739L492.346,200.739z"/>
<path id="slovakia" fill="#EEEEEE" d="M500.518,203.232l0.762,0.673l0.099,1.147l8.415-0.187l6.22-2.68l-0.099-2.724l-1.191,0.529
	l-1.709-0.915l-1.048-0.044l-2.757,1.103l-3.749-0.904L500.518,203.232L500.518,203.232z"/>
<path id="austria" fill="#EEEEEE" d="M483.743,206.529l-0.716,1.489l0.617,1.059l2.57-0.529h2.183l2.372,2.007l5.041-0.916
	l3.705-2.206l0.949-1.489l-0.143-1.919l-3.331-2.493l-4.467,0.044l-0.375,2.537l-4.698,2.294L483.743,206.529L483.743,206.529z"/>
<path id="hungary" fill="#EEEEEE" d="M501.511,205.956l-1.279,2.007l0.099,3.066l2.04,1.047l6.276,0.187l8.746-7.367l0.044-1.632
	l-0.948-0.474l-6.32,2.868L501.511,205.956L501.511,205.956z"/>
<path id="slovenia" fill="#EEEEEE" d="M499.371,208.592l-2.801,1.676l-5.228,1.147l1.048,3.022l3.662,0.044l3.374-2.824
	L499.371,208.592L499.371,208.592z"/>
<path id="croatia" fill="#EEEEEE" d="M500.276,212.088l-3.894,3.209h-3.948l-0.474,2.779l1.808,0.474l0.905-1.346l1.423,1.247
	l1.136,3.971l7.797,3.639l0.772-0.882l-7.908-8.162l0.806-1.488l7.51-0.287l0.761-2.393l-4.897,0.143L500.276,212.088
	L500.276,212.088z"/>
<path id="bosnia" fill="#EEEEEE" d="M499.371,216.257l-0.408,0.673l7.4,7.633l2.713-3.993l-0.099-1.577l-2.371-2.878
	L499.371,216.257L499.371,216.257z"/>
<path id="italy" fill="#EEEEEE" d="M474.523,214.095l-0.683,1.731l0.187,1.886l2.636,3.077l4.147-0.143l9.154,10.632l5.714,1.654
	l3.374,3.188l0.806,7.268l1.808-1.059l1.566-3.959l-0.386-2.845l2.68-0.243l0.387-1.61l-7.556-3.617l-7.169-7.048l-2.856-4.213
	l-0.695-4.004l3.65-0.871l-0.937-2.635l-2.239-1.887l-1.93-0.088l-2.69,0.739l-2.538,3.551l-1.533,1.015l-2.372-1.456
	L474.523,214.095L474.523,214.095z"/>
<path id="sicily" fill="#EEEEEE" d="M496.769,242.815l-1.599-0.86l-5.46,0.86l0.188,1.478l4.908,2.471l0.739,0.805l1.29,0.187
	L496.769,242.815L496.769,242.815z"/>
<path id="malta" fill="#EEEEEE" d="M496.957,251.032l-1.842,0.375l0.066,2.04l1.654,0.551l0.739-0.618L496.957,251.032
	L496.957,251.032z"/>
<path id="ukraine" fill="#EEEEEE" d="M522.279,187.813l-3.199,1.798l0.794,3.397l-2.955,6.231l0.021,2.746l1.39,0.882l8.911,0.442
	l2.492-2.063l2.669,0.893l3.827,5.106l-2.801,5.029l3.331,0.97l4.357-5.018l2.492,0.452l2.316,1.611l-2.04,2.691l2.757,4.301h2.934
	l1.51-2.868l3.11-0.628l0.088-2.328l-5.779-0.893l0.177-2.504h5.603l6.044-4.841l2.669-2.327l0.44-7.345l-11.911-1.07l-4.885-6.893
	l-3.376-1.158l-4.092,0.177l-1.842,4.555l-8.382,0.11l-2.724-1.257L522.279,187.813L522.279,187.813z"/>
<path id="moldova" fill="#EEEEEE" d="M527.992,203.871l3.419,5.261l-0.286,2.978l1.225,0.055l2.901-4.908l-3.485-4.324l-1.974-0.816
	L527.992,203.871L527.992,203.871z"/>
<path id="romania" fill="#EEEEEE" d="M518.54,203.75l-0.287,1.632l-6.386,5.316l5.338,7.831l3.42,2.393h6.154l2.029-1.698
	l2.724-0.353l2.029,1.224l3.595-4.092l-0.695-2.051l-3.65-0.938l-2.492-0.121l0.121-3.507l-3.309-5.205L518.54,203.75L518.54,203.75
	z"/>
<path id="serbia_and_montenegro" fill="#EEEEEE" d="M511.227,211.404l-2.261,1.699h-1.103l-0.75,2.338l2.669,3.099l0.177,2.46
	l-3.309,4.676l0.463,1.401l1.918,0.353l1.511-2.051l0.816-0.055l1.389,1.345l4.235-1.29l-0.352-6.022L511.227,211.404
	L511.227,211.404z"/>
<path id="bulgaria" fill="#EEEEEE" d="M517.724,220.062l0.176,5.492l1.854,3.86l6.959,0.121l3.132-2.217l3.077-1.225l-0.75-3.507
	l0.695-1.875l-1.566-0.816l-2.151,0.176l-1.688,1.698l-7.081,0.055L517.724,220.062L517.724,220.062z"/>
<path id="albania" fill="#EEEEEE" d="M509.54,228.19v5.085l1.456,2.746l1.048-0.121l1.798-3.276l-1.048-1.466l-0.408-3.629
	l-1.389-1.29L509.54,228.19L509.54,228.19z"/>
<path id="macedonia" fill="#EEEEEE" d="M517.15,226.26l-3.717,1.225l0.177,3.154l0.871,1.114l4.412-2.052L517.15,226.26
	L517.15,226.26z"/>
<path id="greece" fill="#EEEEEE" d="M512.507,236.837l-0.122,1.467l5.107,2.569l2.437,0.938l-1.279,1.346l-2.846,0.286l-0.408,1.29
	l0.981,2.217l3.188,1.699l1.389,0.121l0.177-3.805l2.084-2.515l-5.691-6.728l0.751-2.283l1.334-0.055l2.029,1.633l1.28-0.64
	l0.407-2.283l5.979,0.055l0.232-3.507l-2.493,1.753l-7.312-0.176l-4.753,2.459L512.507,236.837L512.507,236.837z"/>
<path id="thrace" fill="#EEEEEE" d="M530.495,228.124l-0.175,3.915l3.419-1.048l1.566-1.047l-0.463-1.698l-1.621-1.29
	L530.495,228.124L530.495,228.124z"/>
<path id="crete" fill="#EEEEEE" d="M523.591,251.164l1.797,0.055l0.751,1.114h2.614l1.742-0.64l0.585,0.706l-1.158,1.522
	l-5.106,0.177l-0.926-1.224l-0.982-0.585L523.591,251.164L523.591,251.164z"/>
<g id="us-path" opacity="0.75">
	<g>
		<path fill="none" stroke="#000000" stroke-width="0.75" stroke-miterlimit="10" d="M670.371,217.891
			c0,0-399.929-31.859-438.477,13.815"/>
		<g>
			<g>
				<circle fill="#FFFFFF" cx="232.011" cy="231.59" r="2.82"/>
				<path d="M229.388,229.765c1.006-1.446,3.001-1.804,4.447-0.798s1.804,3.001,0.798,4.447c-1.006,1.446-3.001,1.804-4.447,0.798
					C228.74,233.207,228.382,231.211,229.388,229.765C230.394,228.319,228.382,231.211,229.388,229.765z M234.018,232.986
					c0.77-1.107,0.496-2.633-0.611-3.403c-1.107-0.77-2.633-0.496-3.403,0.611c-0.77,1.107-0.496,2.633,0.611,3.403
					C231.722,234.367,233.248,234.093,234.018,232.986C234.788,231.879,233.248,234.093,234.018,232.986z"/>
			</g>
		</g>
	</g>
</g>
<g id="kz-path" opacity="0.75">
	<g>
		<path fill="none" stroke="#000000" stroke-width="0.75" stroke-miterlimit="10" d="M670.474,217.891
			c0,0-5.971-26.746-16.671-33.724"/>
		<g>
			<g>
				<circle fill="#FFFFFF" cx="653.929" cy="184.268" r="2.82"/>
				<path d="M655.329,181.397c1.583,0.772,2.244,2.688,1.472,4.272c-0.772,1.583-2.688,2.244-4.272,1.472
					c-1.583-0.772-2.244-2.688-1.472-4.272C651.829,181.285,653.746,180.625,655.329,181.397
					C656.912,182.169,653.746,180.625,655.329,181.397z M652.858,186.466c1.212,0.591,2.678,0.086,3.269-1.126
					c0.591-1.212,0.086-2.678-1.126-3.269c-1.212-0.591-2.678-0.086-3.269,1.126C651.14,184.409,651.646,185.875,652.858,186.466
					C654.07,187.057,651.646,185.875,652.858,186.466z"/>
			</g>
		</g>
	</g>
</g>
<g id="ru-path" opacity="0.75">
	<g>
		<path fill="none" stroke="#000000" stroke-width="0.75" stroke-miterlimit="10" d="M670.474,217.684
			c0,0-77.449-53.126-106.003-47.548"/>
		<g>
			<g>
				<circle fill="#FFFFFF" cx="564.639" cy="170.135" r="2.82"/>
				<path d="M563.791,167.055c1.698-0.467,3.461,0.534,3.928,2.232c0.467,1.698-0.534,3.461-2.232,3.928
					c-1.698,0.467-3.461-0.534-3.928-2.232C561.091,169.285,562.093,167.522,563.791,167.055
					C565.489,166.587,562.093,167.522,563.791,167.055z M565.288,172.492c1.3-0.358,2.066-1.706,1.708-3.006
					c-0.358-1.3-1.706-2.066-3.006-1.708c-1.3,0.358-2.066,1.706-1.708,3.006C562.64,172.084,563.988,172.85,565.288,172.492
					C566.588,172.134,563.988,172.85,565.288,172.492z"/>
			</g>
		</g>
	</g>
</g>
<g id="tj-path" opacity="0.75">
	<g>
		<path fill="none" stroke="#000000" stroke-width="0.75" stroke-miterlimit="10" d="M670.474,217.891
			c0,0-10.371,6.269-13.543,11.825"/>
		<g>
			<g>
				<circle fill="#FFFFFF" cx="657.034" cy="229.584" r="2.82"/>
				<path d="M654.005,228.57c0.559-1.67,2.373-2.575,4.044-2.015c1.67,0.559,2.575,2.373,2.015,4.044
					c-0.559,1.67-2.373,2.575-4.044,2.015C654.35,232.055,653.446,230.24,654.005,228.57
					C654.564,226.9,653.446,230.24,654.005,228.57z M659.353,230.36c0.428-1.279-0.264-2.666-1.542-3.094
					c-1.279-0.428-2.666,0.264-3.094,1.542c-0.428,1.279,0.264,2.666,1.542,3.094C657.537,232.331,658.925,231.639,659.353,230.36
					C659.781,229.082,658.925,231.639,659.353,230.36z"/>
			</g>
		</g>
	</g>
</g>
<g id="is-path" opacity="0.75">
	<g>
		<path fill="none" stroke="#000000" stroke-width="0.75" stroke-miterlimit="10" d="M670.474,217.891
			c0,0-100.822,16.017-113.901,42.732"/>
		<g>
			<g>
				<circle fill="#FFFFFF" cx="556.658" cy="260.483" r="2.82"/>
				<path d="M553.668,259.355c0.622-1.648,2.469-2.483,4.117-1.861s2.483,2.469,1.862,4.117c-0.622,1.648-2.469,2.483-4.117,1.861
					C553.882,262.85,553.047,261.003,553.668,259.355C554.29,257.707,553.047,261.003,553.668,259.355z M558.945,261.346
					c0.476-1.262-0.163-2.674-1.424-3.15s-2.674,0.163-3.15,1.424c-0.476,1.262,0.163,2.674,1.424,3.15
					S558.469,262.608,558.945,261.346C559.421,260.084,558.469,262.608,558.945,261.346z"/>
			</g>
		</g>
	</g>
</g>
<g id="gb-path" opacity="0.75">
	<g>
		<path fill="none" stroke="#000000" stroke-width="0.75" stroke-miterlimit="10" d="M670.474,217.684
			c0,0-191.64-40.246-217.687-29.059"/>
		<g>
			<g>
				<circle fill="#FFFFFF" cx="452.946" cy="188.573" r="2.82"/>
				<path d="M451.104,185.963c1.439-1.016,3.437-0.672,4.452,0.768s0.672,3.437-0.767,4.452c-1.439,1.016-3.437,0.672-4.453-0.767
					S449.665,186.979,451.104,185.963C452.543,184.947,449.665,186.979,451.104,185.963z M454.356,190.571
					c1.102-0.778,1.365-2.306,0.587-3.407c-0.778-1.102-2.306-1.365-3.407-0.587c-1.102,0.778-1.365,2.306-0.587,3.407
					C451.727,191.085,453.255,191.348,454.356,190.571C455.458,189.793,453.255,191.348,454.356,190.571z"/>
			</g>
		</g>
	</g>
</g>
<g id="ca-path" opacity="0.75">
	<g>
		<path fill="none" stroke="#000000" stroke-width="0.75" stroke-miterlimit="10" d="M670.474,217.684
			c0,0-371.713-131.261-418.879-19.653"/>
		<g>
			<g>
				<circle fill="#FFFFFF" cx="251.726" cy="197.909" r="2.82"/>
				<path d="M248.78,196.673c0.681-1.624,2.557-2.392,4.182-1.711s2.392,2.557,1.711,4.182c-0.681,1.624-2.557,2.392-4.182,1.711
					C248.867,200.174,248.099,198.298,248.78,196.673C249.461,195.049,248.099,198.298,248.78,196.673z M253.981,198.854
					c0.521-1.243-0.066-2.679-1.309-3.2s-2.679,0.066-3.2,1.309c-0.521,1.244,0.066,2.679,1.309,3.2
					C252.025,200.685,253.46,200.098,253.981,198.854C254.503,197.611,253.46,200.098,253.981,198.854z"/>
			</g>
		</g>
	</g>
</g>
</svg>
