<?xml version="1.0" encoding="utf-8"?>
<!-- Generator: Adobe Illustrator 16.0.0, SVG Export Plug-In . SVG Version: 6.00 Build 0)  -->
<!DOCTYPE svg PUBLIC "-//W3C//DTD SVG 1.1//EN" "http://www.w3.org/Graphics/SVG/1.1/DTD/svg11.dtd">
<svg version="1.1" id="Layer_1" xmlns="http://www.w3.org/2000/svg" xmlns:xlink="http://www.w3.org/1999/xlink" x="0px" y="0px"
	 width="600px" height="296.186px" viewBox="0 0 600 296.186" enable-background="new 0 0 600 296.186" xml:space="preserve">
<g>
	<defs>
		<rect id="SVGID_1_" width="600" height="296.186"/>
	</defs>
	<clipPath id="SVGID_2_">
		<use xlink:href="#SVGID_1_"  overflow="visible"/>
	</clipPath>
	<g clip-path="url(#SVGID_2_)">
		<defs>
			<rect id="SVGID_3_" width="600" height="296.186"/>
		</defs>
		<clipPath id="SVGID_4_">
			<use xlink:href="#SVGID_3_"  overflow="visible"/>
		</clipPath>
		<path clip-path="url(#SVGID_4_)" fill="#EEEEEE" d="M446.475,296.099h-340c-55,0-100-45-100-100c0-55,45-100,100-100h340
			c55,0,100,45,100,100C546.475,251.099,501.475,296.099,446.475,296.099"/>
		<path clip-path="url(#SVGID_4_)" fill="#FFFFFF" d="M343.718,296.105v-54.456c0-5.03,4.079-9.109,9.11-9.109h82.366
			c5.029,0,9.107,4.077,9.109,9.107l0.015,54.539L343.718,296.105z"/>
		<polygon clip-path="url(#SVGID_4_)" fill="#FFFFFF" points="410.86,108.665 416.338,123.169 411.95,138.149 404.843,134.04 
			400.968,127.366 400.468,120.384 403.613,113.915 407.975,109.665 		"/>
		<path clip-path="url(#SVGID_4_)" fill="#FFFFFF" d="M205.551,220.873c-2.508,14.214,3.739,14.529,3.739,14.529
			c-6.638,16.905-23.102,28.873-42.362,28.873c-25.125,0-45.493-20.368-45.493-45.493s20.368-45.493,45.493-45.493
			c13.425,0,25.491,5.815,33.818,15.063C200.161,214.956,206.933,213.04,205.551,220.873"/>
		<path clip-path="url(#SVGID_4_)" fill="#F9D564" d="M315.01,32.632c-20.424-31.373-50.475-16.985-53.277-15.551
			c-2.802-1.434-32.853-15.822-53.277,15.551c-21.44,32.933-12.784,50.903-31.924,59.415c0,0,26.586,31.371,54.605,35.925
			c10.837-5.59,19.443-13.189,19.443-13.189c-3.704-6.292-2.632-7.843-1.706-12.693c0.11-0.575,0.187-1.066,0.24-1.498
			c-8.32-2.966-14.276-10.91-14.276-20.248V62.322c4.098-3.274,9.067-6.375,14.036-10.197c4.475-3.442,8-9.004,10.541-14.13
			l-1.05,2.65c0,0,7.596,11.794,26.185,18.476v21.223c0,7.553-3.899,14.192-9.792,18.025c1.15,0.899,1.093,2.82,1.093,2.82
			c0.438-0.585,1.006-0.492,1.529-0.169c0.961,0.594,1.328,1.813,0.967,2.884c-0.421,1.25-0.976,3.087-1.107,4.449
			c-0.068,0.704-0.786,2.339-1.741,4.257l0.132-0.017c0,0,2.347,9.105,14.73,15.656c28.729-3.344,56.573-36.202,56.573-36.202
			C327.794,83.535,336.45,65.565,315.01,32.632"/>
		<path clip-path="url(#SVGID_4_)" fill="#222222" d="M290.36,129.339c-0.177,0-0.352-0.043-0.51-0.126
			c-11.107-5.877-14.404-13.721-15.115-15.824c-0.045-0.044-0.088-0.094-0.126-0.147c-0.233-0.328-0.267-0.758-0.087-1.118
			c1.447-2.907,1.615-3.702,1.632-3.876c0.14-1.455,0.708-3.355,1.159-4.693c0.21-0.621-0.004-1.296-0.507-1.608
			c-0.048-0.029-0.086-0.049-0.117-0.063c-0.293,0.328-0.768,0.464-1.185,0.317c-0.449-0.158-0.759-0.57-0.744-1.046
			c0.007-0.354-0.101-1.479-0.674-1.927c-0.278-0.217-0.433-0.555-0.418-0.907c0.015-0.351,0.199-0.674,0.495-0.867
			c5.821-3.786,9.296-10.183,9.296-17.11V59.883c-15.027-5.587-22.759-14.33-25.174-17.481c-2.71,4.647-5.642,8.199-8.746,10.587
			c-2.403,1.848-4.788,3.516-7.094,5.129c-2.32,1.623-4.519,3.162-6.517,4.731v17.495c0,8.606,5.446,16.33,13.551,19.22
			c0.481,0.172,0.779,0.653,0.717,1.16c-0.059,0.48-0.141,0.994-0.251,1.57c-0.12,0.63-0.243,1.204-0.358,1.741
			c-0.743,3.484-1.082,5.074,1.932,10.194c0.265,0.45,0.174,1.025-0.218,1.371c-0.087,0.076-8.833,7.753-19.665,13.34
			c-0.207,0.108-0.444,0.145-0.675,0.108c-28.093-4.566-54.166-35.003-55.262-36.297c-0.222-0.261-0.307-0.613-0.231-0.947
			c0.077-0.335,0.306-0.615,0.62-0.754c9.945-4.422,12.063-11.6,15.269-22.463c2.813-9.529,6.313-21.387,16.184-36.55
			c8.638-13.268,20.445-20.383,34.146-20.574c9.787-0.137,17.64,3.24,20.045,4.4c2.406-1.16,10.278-4.535,20.046-4.4
			c13.7,0.191,25.508,7.306,34.146,20.574c9.871,15.163,13.371,27.022,16.184,36.55c3.206,10.864,5.324,18.041,15.269,22.463
			c0.314,0.139,0.543,0.419,0.62,0.754c0.076,0.334-0.009,0.685-0.23,0.947c-0.071,0.084-7.147,8.39-17.655,16.987
			c-9.74,7.968-24.521,17.836-39.624,19.594C290.444,129.337,290.402,129.339,290.36,129.339 M276.752,112.532
			c0.445,1.357,3.336,8.933,13.819,14.593c24.949-3.111,49.522-29.083,54.585-34.712c-9.731-4.882-12.021-12.641-15.141-23.208
			c-2.772-9.393-6.223-21.082-15.919-35.979c-19.801-30.415-48.643-16.825-51.867-15.174c-0.312,0.159-0.682,0.159-0.993,0
			c-3.225-1.65-32.068-15.239-51.867,15.174c-9.698,14.897-13.148,26.586-15.92,35.978c-3.119,10.568-5.408,18.327-15.14,23.209
			c4.935,5.485,28.393,30.277,52.648,34.422c8.735-4.556,16.032-10.452,18.226-12.294c-2.943-5.267-2.478-7.451-1.729-10.961
			c0.112-0.523,0.231-1.082,0.348-1.694c0.039-0.204,0.074-0.399,0.106-0.586c-8.508-3.42-14.161-11.73-14.161-20.956V62.322
			c0-0.331,0.15-0.645,0.409-0.852c2.16-1.726,4.53-3.383,7.039-5.139c2.286-1.599,4.65-3.253,7.014-5.071
			c3.66-2.816,7.102-7.442,10.228-13.75c0.26-0.524,0.887-0.75,1.421-0.512c0.534,0.238,0.785,0.854,0.57,1.398l-0.833,2.103
			c1.596,2.183,9.362,11.859,25.324,17.595c0.433,0.156,0.721,0.567,0.721,1.027v21.223c0,7.268-3.455,14.008-9.301,18.259
			c0.194,0.358,0.326,0.729,0.415,1.076c0.389,0.027,0.795,0.164,1.198,0.413c1.358,0.839,1.958,2.588,1.428,4.161
			c-0.586,1.737-0.961,3.231-1.055,4.205C278.276,108.958,278.048,109.874,276.752,112.532"/>
		<path clip-path="url(#SVGID_4_)" fill="#FABF62" d="M256.285,101.836l-0.758,1.838c0,0,0.344-0.759,0.782-1.837
			C256.301,101.837,256.293,101.836,256.285,101.836"/>
		<g opacity="0.5" clip-path="url(#SVGID_4_)">
			<g>
				<defs>
					<rect id="SVGID_5_" x="339.972" y="32.569" width="33.971" height="25.831"/>
				</defs>
				<clipPath id="SVGID_6_">
					<use xlink:href="#SVGID_5_"  overflow="visible"/>
				</clipPath>
				<path clip-path="url(#SVGID_6_)" fill="#4086C6" d="M371.262,41.829h-1.512c-1.479,0-2.681-1.2-2.681-2.681V35.25
					c0-1.48-1.2-2.68-2.68-2.68h-1.95c-1.48,0-2.68,1.2-2.68,2.68v3.899c0,1.481-1.2,2.681-2.682,2.681
					c-1.479,0-2.68-1.2-2.68-2.681V35.25c0-1.48-1.2-2.68-2.681-2.68h-1.949c-1.481,0-2.681,1.2-2.681,2.68v3.899
					c0,1.481-1.2,2.681-2.682,2.681h-1.754c-1.48,0-2.681,1.2-2.681,2.681v1.949c0,1.481,1.2,2.681,2.681,2.681h1.754
					c1.481,0,2.682,1.2,2.682,2.68v3.899c0,1.481,1.199,2.681,2.681,2.681h1.949c1.48,0,2.681-1.2,2.681-2.681V51.82
					c0-1.48,1.2-2.68,2.68-2.68c1.481,0,2.682,1.2,2.682,2.68v3.899c0,1.481,1.199,2.681,2.68,2.681h1.95
					c1.479,0,2.68-1.2,2.68-2.681V51.82c0-1.48,1.201-2.68,2.681-2.68h1.512c1.479,0,2.681-1.2,2.681-2.681V44.51
					C373.942,43.029,372.741,41.829,371.262,41.829"/>
			</g>
		</g>
		<path clip-path="url(#SVGID_4_)" fill="#222222" d="M30.844,157.014c-5.603,0-10.162-4.56-10.162-10.162
			c0-5.603,4.559-10.162,10.162-10.162s10.162,4.559,10.162,10.162C41.006,152.455,36.447,157.014,30.844,157.014 M30.844,138.871
			c-4.4,0-7.981,3.58-7.981,7.981c0,4.4,3.581,7.981,7.981,7.981c4.401,0,7.981-3.581,7.981-7.981
			C38.825,142.451,35.245,138.871,30.844,138.871"/>
		<path clip-path="url(#SVGID_4_)" fill="#222222" d="M41.005,71.709c-4.838,0-8.774-3.935-8.774-8.773
			c0-4.838,3.936-8.774,8.774-8.774s8.774,3.936,8.774,8.774C49.779,67.774,45.843,71.709,41.005,71.709 M41.005,56.343
			c-3.635,0-6.593,2.958-6.593,6.593c0,3.635,2.958,6.592,6.593,6.592c3.635,0,6.593-2.957,6.593-6.592
			C47.598,59.301,44.64,56.343,41.005,56.343"/>
		<path clip-path="url(#SVGID_4_)" fill="#222222" d="M64.285,50.279c-2.644,0-4.795-2.151-4.795-4.794
			c0-2.644,2.151-4.795,4.795-4.795s4.795,2.151,4.795,4.795C69.08,48.128,66.929,50.279,64.285,50.279 M64.285,42.871
			c-1.441,0-2.614,1.173-2.614,2.614c0,1.441,1.173,2.613,2.614,2.613s2.614-1.172,2.614-2.613
			C66.899,44.044,65.726,42.871,64.285,42.871"/>
		<path clip-path="url(#SVGID_4_)" fill="#222222" d="M455.444,55.446c-4.838,0-8.774-3.936-8.774-8.774s3.937-8.774,8.774-8.774
			s8.774,3.936,8.774,8.774S460.282,55.446,455.444,55.446 M455.444,40.079c-3.635,0-6.593,2.958-6.593,6.593
			c0,3.635,2.958,6.593,6.593,6.593s6.593-2.958,6.593-6.593C462.037,43.037,459.079,40.079,455.444,40.079"/>
		<path clip-path="url(#SVGID_4_)" fill="#222222" d="M331.809,144.915c-4.838,0-8.774-3.936-8.774-8.774s3.937-8.774,8.774-8.774
			s8.774,3.936,8.774,8.774S336.646,144.915,331.809,144.915 M331.809,129.547c-3.635,0-6.593,2.957-6.593,6.593
			c0,3.635,2.958,6.593,6.593,6.593s6.593-2.958,6.593-6.593C338.401,132.504,335.443,129.547,331.809,129.547"/>
		<path clip-path="url(#SVGID_4_)" fill="#222222" d="M477.084,69.907c-2.644,0-4.795-2.151-4.795-4.794
			c0-2.644,2.151-4.795,4.795-4.795s4.794,2.151,4.794,4.795C481.878,67.756,479.728,69.907,477.084,69.907 M477.084,62.499
			c-1.441,0-2.614,1.173-2.614,2.614s1.173,2.613,2.614,2.613s2.613-1.172,2.613-2.613S478.525,62.499,477.084,62.499"/>
		<path clip-path="url(#SVGID_4_)" fill="#222222" d="M42.932,207.333H29.444c-3.121,0-5.66-2.539-5.66-5.659
			c0-3.121,2.539-5.66,5.66-5.66h14.339c2.154,0,3.907-1.752,3.907-3.906s-1.753-3.907-3.907-3.907H17.282
			c-3.026,0-5.487-2.461-5.487-5.487c0-3.025,2.461-5.487,5.487-5.487h32.595c2.14,0,3.881-1.741,3.881-3.881
			c0-2.141-1.741-3.882-3.881-3.882h-11.77c-3.947,0-7.159-3.211-7.159-7.157v-0.439c0-0.602,0.489-1.09,1.091-1.09
			s1.09,0.488,1.09,1.09v0.439c0,2.745,2.233,4.977,4.978,4.977h11.77c3.343,0,6.062,2.72,6.062,6.063s-2.719,6.062-6.062,6.062
			H17.282c-1.823,0-3.306,1.484-3.306,3.307c0,1.823,1.483,3.307,3.306,3.307h26.501c3.357,0,6.088,2.73,6.088,6.088
			c0,3.356-2.731,6.087-6.088,6.087H29.444c-1.919,0-3.479,1.561-3.479,3.479s1.56,3.479,3.479,3.479h13.488
			c0.602,0,1.09,0.488,1.09,1.091S43.534,207.333,42.932,207.333"/>
		<path clip-path="url(#SVGID_4_)" fill="#222222" d="M89.72,186.937H69.835c-3.06,0-5.55-2.49-5.55-5.55
			c0-3.061,2.49-5.551,5.55-5.551h16.339c1.031,0,1.87-0.839,1.87-1.87c0-1.03-0.839-1.87-1.87-1.87h-9.193
			c-2.587,0-4.691-2.104-4.691-4.691V150.39c0-0.604,0.488-1.092,1.09-1.092c0.603,0,1.091,0.488,1.091,1.092v17.015
			c0,1.384,1.126,2.511,2.51,2.511h9.193c2.234,0,4.051,1.817,4.051,4.051c0,2.234-1.817,4.052-4.051,4.052H69.835
			c-1.858,0-3.369,1.511-3.369,3.369c0,1.857,1.511,3.368,3.369,3.368H89.72c0.602,0,1.09,0.488,1.09,1.092
			C90.811,186.449,90.322,186.937,89.72,186.937"/>
		<path clip-path="url(#SVGID_4_)" fill="#222222" d="M167.182,273.715c-30.284,0-54.921-24.638-54.921-54.922
			s24.637-54.921,54.921-54.921c11.301,0,22.155,3.405,31.389,9.847c0.494,0.345,0.615,1.025,0.27,1.52
			c-0.345,0.494-1.024,0.613-1.518,0.271c-8.866-6.187-19.289-9.456-30.141-9.456c-29.081,0-52.74,23.659-52.74,52.74
			c0,29.082,23.659,52.741,52.74,52.741c17.913,0,34.45-8.976,44.235-24.009c0.328-0.506,1.004-0.649,1.509-0.319
			c0.504,0.328,0.647,1.004,0.319,1.509C203.056,264.37,185.836,273.715,167.182,273.715"/>
		<path clip-path="url(#SVGID_4_)" fill="#222222" d="M167.182,265.204c-25.59,0-46.409-20.819-46.409-46.41
			c0-25.59,20.819-46.409,46.409-46.409c9.972,0,19.474,3.115,27.481,9.007c0.485,0.358,0.589,1.04,0.232,1.525
			c-0.357,0.484-1.039,0.589-1.524,0.231c-7.63-5.614-16.686-8.583-26.189-8.583c-24.388,0-44.228,19.842-44.228,44.229
			c0,24.388,19.84,44.229,44.228,44.229c15.508,0,29.614-7.902,37.731-21.14c0.315-0.513,0.987-0.675,1.5-0.359
			c0.513,0.314,0.674,0.986,0.36,1.499C198.255,256.912,183.455,265.204,167.182,265.204"/>
		<path clip-path="url(#SVGID_4_)" fill="#222222" d="M167.182,282.944c-16.638,0-32.41-6.343-44.411-17.858
			c-0.434-0.417-0.449-1.108-0.031-1.542c0.416-0.434,1.107-0.449,1.541-0.032c11.593,11.124,26.828,17.251,42.901,17.251
			c8.327,0,16.408-1.623,24.016-4.824c0.554-0.234,1.195,0.026,1.428,0.582c0.234,0.555-0.027,1.193-0.582,1.428
			C184.166,281.262,175.801,282.944,167.182,282.944"/>
		<path clip-path="url(#SVGID_4_)" fill="#F9D564" d="M162.21,218.793c0,2.746,2.226,4.973,4.972,4.973s4.972-2.227,4.972-4.973
			s-2.226-4.972-4.972-4.972S162.21,216.047,162.21,218.793"/>
		<path clip-path="url(#SVGID_4_)" fill="#222222" d="M167.182,224.856c-3.343,0-6.062-2.72-6.062-6.063s2.719-6.063,6.062-6.063
			c3.343,0,6.062,2.72,6.062,6.063S170.525,224.856,167.182,224.856 M167.182,214.913c-2.14,0-3.881,1.741-3.881,3.881
			c0,2.141,1.741,3.882,3.881,3.882c2.14,0,3.881-1.741,3.881-3.882C171.063,216.654,169.322,214.913,167.182,214.913"/>
		<path clip-path="url(#SVGID_4_)" fill="#222222" d="M248.879,101.684c-0.125,0-0.253-0.022-0.378-0.068
			c-8.825-3.262-14.754-11.778-14.754-21.19V62.832c0-0.602,0.489-1.09,1.091-1.09s1.09,0.488,1.09,1.09v17.594
			c0,8.504,5.357,16.197,13.329,19.144c0.565,0.209,0.854,0.836,0.645,1.401C249.739,101.412,249.322,101.684,248.879,101.684"/>
		<path clip-path="url(#SVGID_4_)" fill="#222222" d="M274.759,99.459c-0.359,0-0.71-0.177-0.918-0.5
			c-0.326-0.507-0.179-1.182,0.327-1.508c5.818-3.741,9.292-10.105,9.292-17.025V59.712c0-0.602,0.488-1.09,1.09-1.09
			c0.603,0,1.091,0.488,1.091,1.09v20.714c0,7.665-3.848,14.715-10.293,18.86C275.166,99.403,274.961,99.459,274.759,99.459"/>
		<path clip-path="url(#SVGID_4_)" fill="#222222" d="M225.188,79.031c-0.027,0-0.054-0.001-0.081-0.003
			c-0.6-0.044-1.052-0.566-1.008-1.167c0.732-10,8.314-15.304,17.093-21.446c2.287-1.599,4.652-3.254,7.016-5.073
			c9.696-7.458,14.934-25.57,14.986-25.752c0.164-0.579,0.768-0.916,1.346-0.751c0.58,0.165,0.916,0.768,0.751,1.348
			c-0.219,0.771-5.492,18.991-15.753,26.884c-2.403,1.849-4.789,3.518-7.096,5.132c-8.666,6.062-15.511,10.851-16.168,19.817
			C226.233,78.594,225.754,79.031,225.188,79.031"/>
		<path clip-path="url(#SVGID_4_)" fill="#222222" d="M296.103,63.386c-0.066,0-0.132-0.006-0.199-0.018
			c-27.201-5-38.008-21.357-38.455-22.051c-0.326-0.506-0.18-1.181,0.326-1.507c0.507-0.326,1.181-0.18,1.507,0.325
			c0.114,0.176,10.809,16.271,37.017,21.088c0.592,0.109,0.984,0.677,0.875,1.269C297.077,63.019,296.618,63.386,296.103,63.386"/>
		<path clip-path="url(#SVGID_4_)" fill="#222222" d="M324.126,85.562c-0.293,0-0.584-0.117-0.799-0.348
			c-7.924-8.516-10.701-18.612-13.152-27.519c-1.624-5.902-3.158-11.477-5.972-15.811c-7.606-11.717-15.366-12.465-15.444-12.471
			c-0.598-0.048-1.048-0.569-1.004-1.168c0.044-0.597,0.557-1.05,1.158-1.007c0.358,0.024,8.865,0.742,17.12,13.458
			c2.997,4.618,4.575,10.351,6.245,16.42c2.385,8.666,5.088,18.488,12.646,26.613c0.41,0.441,0.385,1.131-0.056,1.541
			C324.658,85.465,324.392,85.562,324.126,85.562"/>
		<path clip-path="url(#SVGID_4_)" fill="#222222" d="M225.188,116.462c-0.093,0-0.188-0.012-0.283-0.038
			c-24.68-6.61-36.401-23.986-36.889-24.723c-0.331-0.502-0.193-1.178,0.308-1.51c0.502-0.332,1.179-0.195,1.512,0.307
			c0.114,0.173,11.786,17.432,35.634,23.82c0.581,0.155,0.927,0.753,0.771,1.335C226.11,116.14,225.67,116.462,225.188,116.462"/>
		<path clip-path="url(#SVGID_4_)" fill="#222222" d="M290.69,119.094c-0.508,0-0.963-0.358-1.068-0.875
			c-0.119-0.591,0.263-1.166,0.854-1.285c0.207-0.042,20.815-4.295,29.963-14.429c0.404-0.447,1.094-0.483,1.541-0.079
			c0.447,0.404,0.482,1.093,0.079,1.54c-9.635,10.672-30.279,14.93-31.153,15.106C290.834,119.087,290.762,119.094,290.69,119.094"
			/>
		<path clip-path="url(#SVGID_4_)" fill="#222222" d="M261.345,131.258c-8.04,0-12.816-6.82-13.029-7.13
			c-0.234-0.34-0.255-0.783-0.056-1.145c0.763-1.38,2.658-5.74,1.414-7.592c-0.012-0.018-0.023-0.036-0.034-0.055
			c-3.445-5.851-2.971-8.073-2.186-11.755c0.112-0.523,0.231-1.082,0.348-1.695c0.547-2.863,0.289-3.401-0.138-4.291
			c-0.264-0.55-0.592-1.234-0.833-2.399c-0.299-1.449-0.104-2.565,0.58-3.32c0.98-1.082,2.553-0.938,3.112-0.879
			c2.677,0.148,4.869,3.791,6.146,6.535c0.217-0.78,0.605-1.47,1.153-2.05c1.34-1.421,3.505-1.853,5.386-1.074l3.245,1.344
			c1.199-0.54,2.337-0.632,3.391-0.273c0.992,0.337,1.669,1,2.087,1.549c1.344-0.37,2.473-0.242,3.364,0.38
			c0.848,0.592,1.261,1.492,1.461,2.271c0.388,0.029,0.794,0.165,1.196,0.414c1.358,0.838,1.958,2.588,1.428,4.16
			c-0.586,1.738-0.961,3.231-1.055,4.206c-0.142,1.463-2.325,5.904-6.488,13.202c-0.664,1.162-1.741,2.001-3.033,2.361l-0.658,0.184
			c-1.099,0.306-1.982,1.085-2.422,2.137l-1.735,4.144c-0.151,0.362-0.484,0.614-0.873,0.662
			C262.509,131.223,261.919,131.258,261.345,131.258 M250.503,123.396c1.264,1.544,5.532,6.079,11.726,5.647l1.483-3.543
			c0.7-1.671,2.102-2.91,3.848-3.397l0.658-0.183c0.735-0.204,1.347-0.681,1.724-1.341c4.461-7.818,6.134-11.529,6.212-12.332
			c0.141-1.454,0.708-3.354,1.159-4.692c0.21-0.621-0.004-1.297-0.507-1.608c-0.048-0.029-0.086-0.049-0.116-0.063
			c-0.294,0.327-0.769,0.462-1.187,0.316c-0.449-0.157-0.758-0.571-0.743-1.046c0.008-0.371-0.106-1.539-0.717-1.961
			c-0.544-0.376-1.481-0.123-2.172,0.155c-0.545,0.22-1.165-0.032-1.404-0.569c0,0-0.45-0.947-1.341-1.242
			c-0.591-0.196-1.302-0.07-2.114,0.37c-0.289,0.156-0.634,0.175-0.937,0.048l-3.702-1.534c-1.05-0.433-2.241-0.211-2.965,0.557
			c-0.306,0.325-0.515,0.698-0.638,1.139c-0.745,2.683-2.19,5.873-2.251,6.008c-0.249,0.547-0.895,0.79-1.444,0.541
			c-0.548-0.249-0.791-0.895-0.541-1.444c0.008-0.019,0.517-1.142,1.074-2.579c-1.158-3.102-3.499-7.395-5.217-7.47
			c-0.022-0.001-0.045-0.003-0.067-0.005c-0.906-0.098-1.202,0.067-1.297,0.172c-0.067,0.074-0.27,0.395-0.06,1.414
			c0.186,0.903,0.429,1.408,0.663,1.896c0.618,1.287,0.963,2.248,0.315,5.644c-0.121,0.629-0.243,1.204-0.358,1.741
			c-0.742,3.478-1.081,5.068,1.917,10.168C253.343,116.995,251.372,121.639,250.503,123.396"/>
		<path clip-path="url(#SVGID_4_)" fill="#222222" d="M170.838,25.306c-0.113,0-0.228-0.018-0.341-0.055
			c-0.572-0.188-0.883-0.804-0.695-1.377c2.441-7.422,9.591-12.41,17.793-12.41c6.214,0,11.998,2.925,15.472,7.823
			c0.348,0.492,0.232,1.172-0.259,1.521c-0.491,0.348-1.172,0.232-1.521-0.259c-3.065-4.323-8.183-6.904-13.692-6.904
			c-7.257,0-13.575,4.385-15.721,10.911C171.724,25.015,171.296,25.306,170.838,25.306"/>
		<path clip-path="url(#SVGID_4_)" fill="#222222" d="M99.51,63.374c-0.296,0-0.591-0.12-0.806-0.356
			c-2.96-3.245-4.59-7.34-4.59-11.531c0-10.094,9.229-18.307,20.573-18.307c2.687,0,5.286,0.451,7.743,1.342
			c2.976-7.215,11.143-12.162,20.309-12.162c5.776,0,11.195,1.9,15.261,5.348c0.459,0.39,0.516,1.078,0.127,1.538
			c-0.391,0.459-1.079,0.515-1.538,0.126c-3.672-3.115-8.591-4.831-13.85-4.831c-8.687,0-16.352,4.829-18.638,11.743
			c-0.096,0.289-0.308,0.524-0.585,0.65c-0.277,0.126-0.594,0.131-0.874,0.012c-2.494-1.052-5.171-1.585-7.955-1.585
			c-10.142,0-18.392,7.234-18.392,16.126c0,3.699,1.39,7.178,4.02,10.062c0.406,0.445,0.375,1.134-0.07,1.54
			C100.036,63.28,99.772,63.374,99.51,63.374"/>
		<path clip-path="url(#SVGID_4_)" fill="#222222" d="M128.24,18.087c-0.279,0-0.558-0.106-0.771-0.319
			c-0.426-0.426-0.426-1.117,0-1.543c0.333-0.332,8.322-8.092,23.334-3.189c0.573,0.187,0.885,0.802,0.698,1.375
			c-0.187,0.573-0.803,0.885-1.375,0.698c-13.751-4.491-21.043,2.587-21.115,2.659C128.798,17.981,128.519,18.087,128.24,18.087"/>
		<path clip-path="url(#SVGID_4_)" fill="#222222" d="M182.325,73.895h-4.484c-0.602,0-1.091-0.488-1.091-1.09v-30.12
			c0-0.603,0.489-1.091,1.091-1.091h4.484c0.602,0,1.09,0.488,1.09,1.091v30.12C183.415,73.407,182.927,73.895,182.325,73.895
			 M178.931,71.714h2.303V43.775h-2.303V71.714z"/>
		<path clip-path="url(#SVGID_4_)" fill="#222222" d="M171.505,73.895h-4.484c-0.602,0-1.091-0.488-1.091-1.09V48.826
			c0-0.602,0.489-1.091,1.091-1.091h4.484c0.602,0,1.09,0.489,1.09,1.091v23.979C172.595,73.407,172.107,73.895,171.505,73.895
			 M168.111,71.714h2.303V49.916h-2.303V71.714z"/>
		<path clip-path="url(#SVGID_4_)" fill="#222222" d="M160.685,73.895h-4.484c-0.602,0-1.09-0.488-1.09-1.09V55.746
			c0-0.602,0.488-1.09,1.09-1.09h4.484c0.602,0,1.091,0.488,1.091,1.09v17.059C161.776,73.407,161.287,73.895,160.685,73.895
			 M157.292,71.714h2.303V56.837h-2.303V71.714z"/>
		<path clip-path="url(#SVGID_4_)" fill="#222222" d="M149.865,73.895h-4.484c-0.602,0-1.09-0.488-1.09-1.09V62.083
			c0-0.603,0.488-1.091,1.09-1.091h4.484c0.603,0,1.091,0.488,1.091,1.091v10.722C150.956,73.407,150.468,73.895,149.865,73.895
			 M146.472,71.714h2.303v-8.541h-2.303V71.714z"/>
		<path clip-path="url(#SVGID_4_)" fill="#222222" d="M185.417,140.587h-36.115c-0.602,0-1.09-0.488-1.09-1.09V92.048
			c0-0.603,0.488-1.091,1.09-1.091h20.324c0.602,0,1.09,0.488,1.09,1.091c0,0.602-0.488,1.09-1.09,1.09h-19.233v45.268h33.934
			v-23.725c0-0.603,0.488-1.091,1.09-1.091c0.602,0,1.09,0.488,1.09,1.091v24.816C186.507,140.099,186.019,140.587,185.417,140.587"
			/>
		<path clip-path="url(#SVGID_4_)" fill="#222222" d="M171.38,99.696h-16.766c-0.602,0-1.09-0.488-1.09-1.09
			c0-0.603,0.488-1.091,1.09-1.091h16.766c0.602,0,1.09,0.488,1.09,1.091C172.471,99.208,171.982,99.696,171.38,99.696"/>
		<path clip-path="url(#SVGID_4_)" fill="#222222" d="M178.204,106.247h-23.589c-0.602,0-1.091-0.488-1.091-1.09
			c0-0.603,0.489-1.091,1.091-1.091h23.589c0.602,0,1.09,0.488,1.09,1.091C179.294,105.758,178.806,106.247,178.204,106.247"/>
		<path clip-path="url(#SVGID_4_)" fill="#222222" d="M178.204,112.797h-23.589c-0.602,0-1.091-0.488-1.091-1.09
			c0-0.603,0.489-1.091,1.091-1.091h23.589c0.602,0,1.09,0.488,1.09,1.091C179.294,112.309,178.806,112.797,178.204,112.797"/>
		<path clip-path="url(#SVGID_4_)" fill="#222222" d="M178.204,119.347h-23.589c-0.602,0-1.091-0.488-1.091-1.09
			c0-0.603,0.489-1.091,1.091-1.091h23.589c0.602,0,1.09,0.488,1.09,1.091C179.294,118.859,178.806,119.347,178.204,119.347"/>
		<path clip-path="url(#SVGID_4_)" fill="#222222" d="M178.204,125.897h-23.589c-0.602,0-1.091-0.488-1.091-1.09
			c0-0.603,0.489-1.091,1.091-1.091h23.589c0.602,0,1.09,0.488,1.09,1.091C179.294,125.409,178.806,125.897,178.204,125.897"/>
		<path clip-path="url(#SVGID_4_)" fill="#222222" d="M178.204,132.448h-23.589c-0.602,0-1.091-0.488-1.091-1.09
			c0-0.603,0.489-1.091,1.091-1.091h23.589c0.602,0,1.09,0.488,1.09,1.091C179.294,131.96,178.806,132.448,178.204,132.448"/>
		<path clip-path="url(#SVGID_4_)" fill="#222222" d="M62.007,129.414c-0.155,0-0.312-0.033-0.461-0.103
			c-7.929-3.707-13.052-11.847-13.052-20.738c0-11.203,7.787-20.534,18.403-22.445c-1.539-2.373-2.371-5.249-2.371-8.284
			c0-7.589,5.289-13.763,11.789-13.763c0.603,0,1.091,0.489,1.091,1.091s-0.488,1.09-1.091,1.09c-5.298,0-9.609,5.196-9.609,11.582
			c0,3.201,1.066,6.182,3,8.395c0.269,0.308,0.343,0.741,0.192,1.121c-0.152,0.381-0.504,0.644-0.911,0.682
			c-10.44,0.981-18.312,9.807-18.312,20.531c0,8.048,4.629,15.412,11.794,18.762c0.546,0.255,0.782,0.904,0.526,1.45
			C62.811,129.181,62.417,129.414,62.007,129.414"/>
		<path clip-path="url(#SVGID_4_)" fill="#222222" d="M65.961,120.117c-0.33,0-0.656-0.149-0.871-0.432
			c-2.884-3.814-4.068-7.652-3.517-11.41c0.83-5.66,5.307-8.997,5.497-9.136c0.486-0.356,1.169-0.251,1.525,0.235
			c0.355,0.486,0.25,1.167-0.234,1.523c-0.056,0.041-3.949,2.978-4.633,7.717c-0.455,3.151,0.589,6.432,3.102,9.755
			c0.363,0.48,0.268,1.164-0.212,1.527C66.421,120.045,66.19,120.117,65.961,120.117"/>
		<path clip-path="url(#SVGID_4_)" fill="#222222" d="M108.752,171.341c-9.228,0-16.735-7.388-16.735-16.468
			c0-1.315,0.157-2.613,0.469-3.879c-1.358,0.322-2.761,0.485-4.192,0.485c-8.724,0-15.821-6.135-15.821-13.677
			c0-2.36,0.705-4.686,2.04-6.727c0.329-0.504,1.005-0.645,1.509-0.316c0.504,0.33,0.646,1.005,0.316,1.509
			c-1.102,1.686-1.684,3.599-1.684,5.534c0,6.339,6.119,11.497,13.64,11.497c1.901,0,3.744-0.327,5.477-0.968
			c0.402-0.149,0.855-0.048,1.157,0.259c0.301,0.306,0.394,0.761,0.237,1.161c-0.642,1.641-0.968,3.364-0.968,5.123
			c0,7.877,6.53,14.286,14.555,14.286c0.908,0,1.817-0.083,2.703-0.246c0.591-0.106,1.161,0.282,1.27,0.875
			s-0.282,1.161-0.875,1.271C110.834,171.246,109.792,171.341,108.752,171.341"/>
		<path clip-path="url(#SVGID_4_)" fill="#222222" d="M252.732,237.489c-7.72,0-16.245-0.45-25.484-1.578
			c-0.547-0.066-0.958-0.531-0.958-1.083v-15.499c0-0.505,0.347-0.943,0.838-1.061c0.387-0.092,38.261-9.057,60.431-10.291
			c-0.353-3.098-1.213-12.168-1.078-26.138c0.172-17.709,2.53-30.286,2.554-30.411c0.113-0.591,0.683-0.978,1.275-0.867
			c0.592,0.113,0.98,0.683,0.867,1.275c-0.023,0.122-2.345,12.522-2.515,30.024c-0.166,17.238,1.189,26.896,1.203,26.991
			c0.043,0.305-0.044,0.614-0.24,0.851c-0.196,0.237-0.484,0.38-0.792,0.395c-19.992,0.88-54.551,8.747-60.362,10.097v13.667
			c41.872,4.929,68.528-4.187,71.368-5.219c7.141-8.688,11.798-44.531,12.133-57.445c0.029-1.149,0.09-2.413,0.153-3.75
			c0.563-11.83,1.411-29.706-14.758-35.054c-19.206-6.353-22.655-18.993-22.792-19.529c-0.15-0.583,0.201-1.177,0.785-1.327
			c0.58-0.152,1.176,0.201,1.327,0.783c0.051,0.19,3.415,12.065,21.365,18.002c17.741,5.868,16.808,25.499,16.25,37.229
			c-0.062,1.324-0.122,2.576-0.15,3.703c-0.286,11.003-4.692,49.669-12.842,59.026c-0.116,0.133-0.262,0.236-0.426,0.3
			C300.663,230.667,282.804,237.489,252.732,237.489"/>
		<path clip-path="url(#SVGID_4_)" fill="#222222" d="M213.728,223.231c-0.212,0-0.377-0.017-0.495-0.036
			c-2.584-0.068-4.844-1.159-6.716-3.242c-10.098-11.232-6.664-49.697-5.371-64.178c1.516-16.98,5.458-20.056,20.342-24.885
			c14.374-4.663,28.232-16.803,28.37-16.925c0.452-0.398,1.141-0.355,1.539,0.095c0.399,0.452,0.356,1.141-0.095,1.54
			c-0.578,0.51-14.328,12.559-29.141,17.365c-14.235,4.618-17.424,7.108-18.843,23.004c-1.148,12.861-4.643,51.999,4.821,62.525
			c1.494,1.663,3.203,2.487,5.224,2.522c0.077,0.001,0.154,0.01,0.229,0.028c0.03-0.001,7.542,0.82,20.567-24.68
			c13.651-26.726,27.657-66.267,27.796-66.663c0.201-0.569,0.823-0.866,1.392-0.666c0.568,0.201,0.866,0.824,0.665,1.392
			c-0.14,0.398-14.195,40.076-27.911,66.928C223.918,221.209,216.044,223.231,213.728,223.231"/>
		<path clip-path="url(#SVGID_4_)" fill="#222222" d="M300.927,202.29c-0.085,0-0.172-0.01-0.258-0.03
			c-0.585-0.143-0.945-0.732-0.802-1.317c4.734-19.513,3.636-51.581,3.625-51.902c-0.022-0.602,0.448-1.108,1.05-1.13
			c0.594-0.017,1.107,0.449,1.129,1.051c0.012,0.325,1.119,32.693-3.685,52.495C301.865,201.955,301.419,202.29,300.927,202.29"/>
		<path clip-path="url(#SVGID_4_)" fill="#222222" d="M247.861,237.441c-0.602,0-1.09-0.488-1.09-1.09v-21.359
			c0-0.604,0.488-1.091,1.09-1.091s1.09,0.487,1.09,1.091v21.359C248.951,236.953,248.463,237.441,247.861,237.441"/>
		<path clip-path="url(#SVGID_4_)" fill="#222222" d="M231.668,223.198c-0.543,0-1.013-0.404-1.081-0.957
			c-0.074-0.597,0.351-1.143,0.948-1.216l10.04-1.242c0.597-0.072,1.143,0.35,1.216,0.948c0.074,0.598-0.35,1.142-0.948,1.216
			l-10.04,1.243C231.758,223.195,231.713,223.198,231.668,223.198"/>
		<path clip-path="url(#SVGID_4_)" fill="#222222" d="M241.709,227.621h-10.04c-0.602,0-1.09-0.488-1.09-1.09
			c0-0.603,0.488-1.091,1.09-1.091h10.04c0.602,0,1.09,0.488,1.09,1.091C242.799,227.132,242.312,227.621,241.709,227.621"/>
		<path clip-path="url(#SVGID_4_)" fill="#222222" d="M241.711,233.14c-0.041,0-0.082-0.002-0.124-0.007L231.547,232
			c-0.598-0.067-1.028-0.607-0.961-1.206c0.068-0.599,0.608-1.026,1.206-0.961l10.04,1.133c0.598,0.066,1.029,0.606,0.961,1.206
			C242.73,232.729,242.258,233.14,241.711,233.14"/>
		<path clip-path="url(#SVGID_4_)" fill="#222222" d="M202.235,207.787h-0.013c-0.602-0.007-1.085-0.5-1.078-1.104
			c0.152-13.244,45.244-80.905,47.164-83.778c0.334-0.502,1.011-0.636,1.512-0.301c0.501,0.334,0.636,1.011,0.301,1.512
			c-16.135,24.158-46.68,72.509-46.796,82.592C203.318,207.306,202.832,207.787,202.235,207.787"/>
		<path clip-path="url(#SVGID_4_)" fill="#222222" d="M253.919,150.635c-9.241,0-15.988-9.688-16.289-10.128
			c-0.341-0.496-0.214-1.175,0.283-1.515c0.496-0.341,1.175-0.213,1.515,0.282c0.072,0.105,7.279,10.419,16.174,9.052
			c0.594-0.094,1.153,0.315,1.245,0.911c0.092,0.595-0.316,1.151-0.911,1.244C255.251,150.586,254.579,150.635,253.919,150.635"/>
		<path clip-path="url(#SVGID_4_)" fill="#222222" d="M247.502,143.58c-0.173,0-0.349-0.042-0.513-0.129
			c-0.531-0.283-0.732-0.944-0.448-1.475l5.757-10.79c0.284-0.532,0.944-0.733,1.476-0.449c0.531,0.284,0.732,0.944,0.449,1.476
			l-5.758,10.79C248.269,143.37,247.892,143.58,247.502,143.58"/>
		<path clip-path="url(#SVGID_4_)" fill="#222222" d="M252.968,145.808c-0.145,0-0.292-0.029-0.433-0.09
			c-0.553-0.24-0.807-0.882-0.567-1.435l4.776-11.02c0.239-0.552,0.882-0.806,1.434-0.566c0.553,0.239,0.807,0.881,0.567,1.434
			l-4.776,11.02C253.791,145.562,253.389,145.808,252.968,145.808"/>
		<path clip-path="url(#SVGID_4_)" fill="#222222" d="M243.244,139.709c-0.196,0-0.394-0.052-0.573-0.163
			c-0.512-0.317-0.67-0.989-0.353-1.501l5.97-9.65c0.317-0.512,0.988-0.672,1.501-0.354c0.513,0.317,0.671,0.989,0.354,1.501
			l-5.97,9.65C243.966,139.527,243.608,139.709,243.244,139.709"/>
		<path clip-path="url(#SVGID_4_)" fill="#222222" d="M243.501,132.787c-0.372,0-0.734-0.19-0.938-0.533
			c-1.985-3.337-3.382-6.311-4.154-8.84c-0.176-0.576,0.149-1.185,0.725-1.361c0.576-0.175,1.185,0.149,1.361,0.724
			c0.721,2.363,2.047,5.175,3.942,8.362c0.308,0.518,0.138,1.187-0.38,1.495C243.883,132.738,243.69,132.787,243.501,132.787"/>
		<path clip-path="url(#SVGID_4_)" fill="#222222" d="M263.134,157.84c-0.29,0-0.577-0.115-0.789-0.337
			c-0.03-0.031-3.008-3.154-6.824-7.657c-0.389-0.459-0.333-1.147,0.127-1.537c0.459-0.389,1.147-0.333,1.537,0.127
			c2.72,3.209,5.006,5.706,6.08,6.86c8.554-6.809,19.65-31.416,19.764-31.671c0.247-0.55,0.892-0.795,1.442-0.549
			c0.549,0.247,0.795,0.892,0.549,1.441c-0.491,1.095-12.126,26.891-21.272,33.133C263.562,157.779,263.348,157.84,263.134,157.84"
			/>
		<path clip-path="url(#SVGID_4_)" fill="#222222" d="M225.726,161.383c-0.025,0-0.049-0.001-0.074-0.002
			c-0.601-0.041-1.056-0.561-1.015-1.161c0.529-7.884,0.628-15.441,0.629-15.517c0.008-0.598,0.494-1.077,1.09-1.077h0.014
			c0.602,0.007,1.085,0.502,1.077,1.104c-0.001,0.076-0.1,7.69-0.634,15.635C226.774,160.943,226.295,161.383,225.726,161.383"/>
		<path clip-path="url(#SVGID_4_)" fill="#222222" d="M217.291,212.085c-0.238,0-0.477-0.077-0.677-0.235
			c-0.472-0.374-0.551-1.061-0.177-1.532c3.272-4.125,21.878-37.047,22.065-37.379c0.296-0.525,0.961-0.71,1.486-0.413
			c0.525,0.296,0.709,0.961,0.413,1.484c-0.769,1.362-18.878,33.404-22.255,37.662C217.931,211.945,217.612,212.085,217.291,212.085
			"/>
		<path clip-path="url(#SVGID_4_)" fill="#222222" d="M216.211,238.565c-2.482,0-4.173-0.708-6.286-1.716
			c-0.657-0.313-1.337-0.637-2.121-0.967c-1.819-0.767-3.03-1.962-3.599-3.555c-0.765-2.141-0.112-4.406,0.338-5.553
			c-1.147-1.831-0.56-6.165,0.235-9.806c0.128-0.588,0.708-0.96,1.298-0.832c0.588,0.128,0.961,0.709,0.832,1.297
			c-0.788,3.616-1.059,7.347-0.597,8.111c0.247,0.117,0.443,0.324,0.545,0.582c0.118,0.297,0.1,0.63-0.049,0.912
			c-0.011,0.022-1.286,2.509-0.545,4.563c0.361,1.002,1.142,1.744,2.388,2.269c0.831,0.351,1.565,0.7,2.213,1.01
			c3.691,1.759,5.543,2.643,16.157-1.082c0.569-0.197,1.191,0.1,1.39,0.668c0.199,0.567-0.1,1.19-0.668,1.39
			C222.171,237.812,218.77,238.565,216.211,238.565"/>
		<path clip-path="url(#SVGID_4_)" fill="#222222" d="M227.381,220.419c-0.334,0-0.663-0.151-0.877-0.44
			c-0.551-0.741-2.319-2.665-3.857-2.67c-0.602-0.003-1.089-0.492-1.087-1.095c0.002-0.601,0.49-1.087,1.091-1.087h0.003
			c2.9,0.009,5.335,3.191,5.603,3.553c0.358,0.485,0.256,1.167-0.229,1.526C227.833,220.351,227.606,220.419,227.381,220.419"/>
		<path clip-path="url(#SVGID_4_)" fill="#222222" d="M277.191,194.062c-0.645,0-1.346-0.035-2.109-0.112
			c-3.4-0.345-6.173-1.629-8.855-2.87c-2.763-1.277-5.372-2.485-8.385-2.485c-2.208,0-3.523,0.619-5.187,1.404
			c-2.76,1.303-6.194,2.918-14.922,2.645c-0.602-0.02-1.074-0.523-1.055-1.124c0.019-0.604,0.527-1.076,1.125-1.057
			c8.201,0.262,11.374-1.234,13.922-2.436c1.759-0.83,3.421-1.614,6.117-1.614c3.493,0,6.446,1.367,9.301,2.688
			c2.519,1.165,5.123,2.371,8.159,2.679c5.721,0.581,7.003-1.544,7.015-1.566c0.262-0.542,0.908-0.754,1.448-0.49
			c0.543,0.261,0.762,0.929,0.5,1.472C284.109,191.517,282.704,194.062,277.191,194.062"/>
		<g opacity="0.5" clip-path="url(#SVGID_4_)">
			<g>
				<defs>
					<rect id="SVGID_7_" x="94.326" y="79.988" width="43.425" height="43.425"/>
				</defs>
				<clipPath id="SVGID_8_">
					<use xlink:href="#SVGID_7_"  overflow="visible"/>
				</clipPath>
				<path clip-path="url(#SVGID_8_)" fill="#4086C6" d="M94.326,101.7c0,11.992,9.721,21.713,21.713,21.713
					c11.991,0,21.712-9.721,21.712-21.713c0-11.992-9.721-21.713-21.712-21.713C104.047,79.987,94.326,89.708,94.326,101.7"/>
			</g>
		</g>
		<path clip-path="url(#SVGID_4_)" fill="#EBF0F6" d="M100.686,101.7c0,8.479,6.874,15.353,15.353,15.353
			s15.352-6.874,15.352-15.353s-6.873-15.353-15.352-15.353S100.686,93.221,100.686,101.7"/>
		<path clip-path="url(#SVGID_4_)" fill="#F9D564" d="M112.311,101.7c0,2.059,1.669,3.728,3.728,3.728
			c2.06,0,3.729-1.669,3.729-3.728s-1.669-3.728-3.729-3.728C113.979,97.972,112.311,99.641,112.311,101.7"/>
		<path clip-path="url(#SVGID_4_)" fill="#222222" d="M116.039,111.783c-5.56,0-10.083-4.523-10.083-10.082
			c0-1.303,0.246-2.572,0.729-3.771c0.226-0.559,0.86-0.83,1.42-0.604c0.558,0.226,0.828,0.861,0.603,1.419
			c-0.379,0.939-0.571,1.934-0.571,2.956c0,4.356,3.545,7.901,7.902,7.901c4.357,0,7.902-3.545,7.902-7.901
			c0-4.357-3.545-7.902-7.902-7.902c-0.776,0-1.542,0.112-2.277,0.332c-0.576,0.174-1.185-0.153-1.358-0.731
			c-0.173-0.576,0.154-1.185,0.731-1.357c0.939-0.282,1.916-0.425,2.904-0.425c5.56,0,10.082,4.523,10.082,10.083
			C126.121,107.26,121.599,111.783,116.039,111.783"/>
		<path clip-path="url(#SVGID_4_)" fill="#222222" d="M103.82,133.634c-0.134,0-0.27-0.025-0.402-0.077
			c-10.913-4.328-18.992-14.175-21.084-25.701c-0.107-0.592,0.286-1.159,0.878-1.267c0.595-0.109,1.16,0.286,1.268,0.878
			c1.958,10.79,9.523,20.01,19.742,24.063c0.56,0.221,0.834,0.855,0.612,1.415C104.664,133.374,104.254,133.634,103.82,133.634"/>
		<path clip-path="url(#SVGID_4_)" fill="#222222" d="M118.399,67.294c-0.302,0-0.602-0.125-0.818-0.369l-5.029-5.702
			c-0.192-0.217-0.289-0.501-0.271-0.79c0.018-0.288,0.151-0.558,0.368-0.749l10.696-9.434l-2.326-2.636
			c-0.259-0.294-0.34-0.704-0.213-1.075s0.443-0.645,0.828-0.718l15.53-2.949c0.371-0.071,0.752,0.056,1.007,0.335
			c0.256,0.279,0.348,0.67,0.245,1.033l-4.407,15.56c-0.109,0.384-0.419,0.678-0.808,0.767c-0.389,0.086-0.796-0.043-1.059-0.343
			l-2.326-2.636l-10.696,9.434C118.913,67.204,118.656,67.294,118.399,67.294 M114.909,60.598l3.586,4.067l10.697-9.434
			c0.452-0.398,1.141-0.355,1.539,0.097l1.724,1.955l3.382-11.939l-11.916,2.263l1.781,2.018c0.191,0.217,0.288,0.501,0.27,0.79
			s-0.15,0.558-0.367,0.75L114.909,60.598z"/>
		<path clip-path="url(#SVGID_4_)" fill="#222222" d="M140.748,155.828c-0.094,0-0.189-0.012-0.284-0.038
			c-7.615-2.049-13.531-8.154-15.072-15.557c-0.123-0.59,0.256-1.168,0.845-1.29c0.59-0.124,1.167,0.255,1.29,0.845
			c1.375,6.604,6.675,12.059,13.504,13.896c0.581,0.156,0.926,0.755,0.769,1.336C141.669,155.507,141.229,155.828,140.748,155.828"
			/>
		<path clip-path="url(#SVGID_4_)" fill="#222222" d="M378.398,29.504c-0.479,0-0.916-0.316-1.051-0.798
			c-2.463-8.847-10.604-15.026-19.799-15.026c-5.692,0-10.989,2.28-14.913,6.42c-0.258,0.273-0.636,0.394-1.006,0.319
			c-0.367-0.073-0.671-0.331-0.805-0.681c-1.616-4.25-5.749-7.104-10.285-7.104c-3.33,0-6.446,1.483-8.549,4.07
			c-0.381,0.468-1.068,0.538-1.534,0.158c-0.468-0.38-0.538-1.067-0.158-1.534c2.52-3.098,6.252-4.875,10.241-4.875
			c4.889,0,9.387,2.766,11.651,7.027c4.199-3.868,9.596-5.98,15.357-5.98c10.17,0,19.176,6.835,21.9,16.622
			c0.162,0.58-0.178,1.181-0.758,1.343C378.593,29.491,378.495,29.504,378.398,29.504"/>
		<path clip-path="url(#SVGID_4_)" fill="#222222" d="M375.797,10.452c-0.334,0-0.663-0.153-0.877-0.441
			c-3.635-4.903-9.444-7.83-15.538-7.83c-3.219,0-6.405,0.807-9.214,2.333c-0.529,0.287-1.192,0.091-1.478-0.438
			c-0.288-0.529-0.093-1.191,0.437-1.479C352.255,0.898,355.801,0,359.382,0c6.782,0,13.245,3.257,17.29,8.712
			c0.359,0.484,0.257,1.167-0.226,1.525C376.251,10.382,376.023,10.452,375.797,10.452"/>
		<path clip-path="url(#SVGID_4_)" fill="#222222" d="M429.058,62.936c-0.066,0-0.134-0.006-0.202-0.019
			c-0.592-0.111-0.981-0.681-0.871-1.272c0.155-0.829,0.234-1.68,0.234-2.532c0-7.514-6.114-13.628-13.628-13.628
			c-0.928,0-1.856,0.094-2.757,0.279c-0.283,0.058-0.579,0.002-0.821-0.158c-0.241-0.16-0.409-0.409-0.467-0.693
			c-1.078-5.297-5.791-9.142-11.205-9.142c-3.351,0-6.521,1.463-8.7,4.014c-0.391,0.458-1.079,0.512-1.537,0.121
			c-0.458-0.391-0.512-1.08-0.121-1.538c2.594-3.036,6.368-4.778,10.358-4.778c6.091,0,11.438,4.089,13.091,9.861
			c0.713-0.098,1.437-0.147,2.159-0.147c8.717,0,15.809,7.092,15.809,15.809c0,0.986-0.091,1.973-0.271,2.933
			C430.03,62.569,429.572,62.936,429.058,62.936"/>
		<path clip-path="url(#SVGID_4_)" fill="#222222" d="M446.542,137.231c-0.44,0-0.855-0.269-1.02-0.706
			c-0.213-0.563,0.071-1.193,0.635-1.405c4.236-1.599,7.083-5.717,7.083-10.246c0-3.217-1.413-6.26-3.876-8.349
			c-0.371-0.314-0.489-0.836-0.289-1.279c1.06-2.353,1.596-4.857,1.596-7.443c0-7.501-4.714-14.327-11.729-16.985
			c-0.29-0.11-0.52-0.338-0.631-0.627s-0.096-0.612,0.046-0.888c0.834-1.638,1.257-3.403,1.257-5.245
			c0-5.733-4.103-10.544-9.756-11.438c-0.595-0.094-1.001-0.653-0.907-1.248c0.094-0.595,0.653-1.003,1.248-0.906
			c6.719,1.062,11.596,6.779,11.596,13.592c0,1.793-0.338,3.525-1.005,5.164c7.262,3.244,12.063,10.568,12.063,18.581
			c0,2.629-0.496,5.183-1.476,7.603c2.58,2.473,4.044,5.88,4.044,9.468c0,5.431-3.413,10.369-8.493,12.286
			C446.801,137.208,446.67,137.231,446.542,137.231"/>
		<path clip-path="url(#SVGID_4_)" fill="#222222" d="M419.909,83.94c-0.055,0-0.111-0.004-0.169-0.013
			c-0.595-0.092-1.002-0.65-0.91-1.245c0.182-1.168,0.273-2.366,0.273-3.561c0-12.703-10.334-23.038-23.037-23.038
			c-0.845,0-1.698,0.047-2.534,0.138c-0.594,0.066-1.137-0.366-1.203-0.965c-0.064-0.599,0.367-1.138,0.967-1.203
			c0.915-0.1,1.847-0.151,2.771-0.151c13.905,0,25.218,11.313,25.218,25.219c0,1.307-0.1,2.618-0.299,3.896
			C420.902,83.555,420.438,83.94,419.909,83.94"/>
		<path clip-path="url(#SVGID_4_)" fill="#222222" d="M416.338,139.953c-9.256,0-16.784-7.529-16.784-16.784
			s7.528-16.784,16.784-16.784c9.255,0,16.783,7.529,16.783,16.784S425.593,139.953,416.338,139.953 M416.338,108.566
			c-8.053,0-14.604,6.551-14.604,14.603c0,8.053,6.551,14.603,14.604,14.603c8.052,0,14.603-6.55,14.603-14.603
			C430.94,115.117,424.39,108.566,416.338,108.566"/>
		<path clip-path="url(#SVGID_4_)" fill="#222222" d="M412.001,139.342c-0.1,0-0.201-0.014-0.302-0.043
			c-0.579-0.166-0.913-0.771-0.746-1.349l4.24-14.747l-5.082-14.482c-0.199-0.568,0.1-1.191,0.668-1.39
			c0.568-0.198,1.189,0.099,1.39,0.668l5.197,14.81c0.075,0.213,0.082,0.445,0.019,0.662l-4.337,15.082
			C412.911,139.031,412.476,139.342,412.001,139.342"/>
		<path clip-path="url(#SVGID_4_)" fill="#222222" d="M397.645,176.108c-4.971,0-9.679-1.831-12.595-4.897
			c-0.415-0.436-0.397-1.126,0.039-1.542c0.437-0.414,1.125-0.397,1.541,0.039c2.513,2.643,6.63,4.22,11.015,4.22
			c6.61,0,12.306-3.588,13.246-8.344c0.066-0.333,0.283-0.615,0.587-0.766c0.305-0.15,0.66-0.151,0.966,0
			c1.503,0.74,3.102,1.115,4.751,1.115c4.933,0,9.229-3.333,10.449-8.105c0.149-0.585,0.745-0.937,1.326-0.787
			c0.583,0.149,0.937,0.743,0.787,1.326c-1.467,5.739-6.632,9.747-12.563,9.747c-1.552,0-3.063-0.275-4.513-0.819
			C410.895,172.473,404.82,176.108,397.645,176.108"/>
		<path clip-path="url(#SVGID_4_)" fill="#222222" d="M394.014,164.441c-3.711,0-7.257-0.978-9.982-2.755
			c-0.504-0.329-0.646-1.004-0.317-1.509c0.328-0.505,1.005-0.646,1.509-0.318c2.375,1.549,5.497,2.401,8.791,2.401
			c6.957,0,12.617-3.774,12.617-8.414c0-0.602,0.487-1.09,1.09-1.09s1.091,0.488,1.091,1.09
			C408.812,159.688,402.174,164.441,394.014,164.441"/>
		<path clip-path="url(#SVGID_4_)" fill="#222222" d="M343.548,174.29c-0.311,0-0.618-0.131-0.834-0.388
			c-0.388-0.46-0.33-1.147,0.13-1.536l16.677-14.088l-6.667,0.859c-0.598,0.078-1.144-0.345-1.221-0.942
			c-0.077-0.597,0.345-1.144,0.942-1.221l10.337-1.333c0.482-0.063,0.942,0.2,1.138,0.643s0.075,0.961-0.295,1.272l-19.504,16.477
			C344.047,174.205,343.797,174.29,343.548,174.29"/>
		<path clip-path="url(#SVGID_4_)" fill="#222222" d="M323.223,174.29c-0.234,0-0.471-0.076-0.671-0.231
			c-0.474-0.371-0.558-1.056-0.187-1.531l12.208-15.619c0.229-0.292,0.589-0.448,0.96-0.415c0.368,0.033,0.695,0.254,0.867,0.583
			l7.485,14.409l18.462-15.595c0.373-0.313,0.908-0.343,1.313-0.072c0.403,0.271,0.579,0.779,0.429,1.242l-3.221,9.912
			c-0.187,0.573-0.804,0.885-1.374,0.701c-0.573-0.188-0.887-0.802-0.7-1.375l2.038-6.273l-16.581,14.008
			c-0.253,0.213-0.589,0.3-0.915,0.235c-0.325-0.063-0.604-0.271-0.756-0.566l-7.333-14.115l-11.164,14.284
			C323.868,174.145,323.547,174.29,323.223,174.29"/>
		<path clip-path="url(#SVGID_4_)" fill="#222222" d="M334.178,201.774c-6.565,0-12.814-2.834-17.145-7.774
			c-0.397-0.453-0.353-1.143,0.101-1.539c0.454-0.397,1.144-0.353,1.539,0.102c3.917,4.468,9.568,7.031,15.505,7.031
			c7.303,0,13.912-3.744,17.678-10.014c0.159-0.266,0.424-0.45,0.727-0.51c0.302-0.058,0.617,0.014,0.864,0.198
			c2.401,1.805,5.264,2.759,8.275,2.759c6.524,0,12.207-4.631,13.513-11.012c0.121-0.591,0.7-0.969,1.287-0.85
			c0.591,0.12,0.972,0.696,0.851,1.286c-1.513,7.392-8.094,12.757-15.65,12.757c-3.093,0-6.05-0.869-8.621-2.524
			C348.891,197.936,341.745,201.774,334.178,201.774"/>
		<path clip-path="url(#SVGID_4_)" fill="#222222" d="M333.768,193.214c-4.768,0-9.172-2.588-11.496-6.754
			c-0.293-0.526-0.105-1.19,0.421-1.483c0.525-0.294,1.189-0.105,1.483,0.42c1.94,3.478,5.614,5.637,9.592,5.637
			c3.511,0,6.837-1.7,8.897-4.549c0.354-0.487,1.035-0.598,1.523-0.243c0.487,0.352,0.597,1.034,0.244,1.521
			C341.962,191.176,337.976,193.214,333.768,193.214"/>
		<path clip-path="url(#SVGID_4_)" fill="#222222" d="M445.58,196.002h-10.137c-0.604,0-1.092-0.488-1.092-1.091v-49.127
			c0-0.603,0.488-1.091,1.092-1.091h10.137c0.603,0,1.091,0.488,1.091,1.091v49.127C446.671,195.514,446.183,196.002,445.58,196.002
			 M436.533,193.821h7.957v-46.947h-7.957V193.821z"/>
		<rect x="411.951" y="175.758" clip-path="url(#SVGID_4_)" fill="#53AD4D" width="10.137" height="19.153"/>
		<path clip-path="url(#SVGID_4_)" fill="#222222" d="M422.089,196.002h-10.138c-0.603,0-1.09-0.488-1.09-1.091v-19.153
			c0-0.604,0.487-1.091,1.09-1.091h10.138c0.603,0,1.09,0.487,1.09,1.091v19.153C423.179,195.514,422.691,196.002,422.089,196.002
			 M413.042,193.821h7.957v-16.973h-7.957V193.821z"/>
		<path clip-path="url(#SVGID_4_)" fill="#222222" d="M398.597,196.002h-10.138c-0.602,0-1.09-0.488-1.09-1.091v-11.989
			c0-0.603,0.488-1.09,1.09-1.09h10.138c0.603,0,1.091,0.487,1.091,1.09v11.989C399.688,195.514,399.199,196.002,398.597,196.002
			 M389.55,193.821h7.957v-9.809h-7.957V193.821z"/>
		<rect x="477.084" y="157.676" clip-path="url(#SVGID_4_)" fill="#EBF0F6" width="14.621" height="15.4"/>
		<path clip-path="url(#SVGID_4_)" fill="#222222" d="M322.468,265.794c-0.602,0-1.09-0.488-1.09-1.09v-42.571
			c0-0.602,0.488-1.09,1.09-1.09c0.603,0,1.091,0.488,1.091,1.09v42.571C323.559,265.306,323.07,265.794,322.468,265.794"/>
		<g opacity="0.5" clip-path="url(#SVGID_4_)">
			<g>
				<defs>
					<rect id="SVGID_9_" x="363.938" y="210.995" width="59.815" height="14.649"/>
				</defs>
				<clipPath id="SVGID_10_">
					<use xlink:href="#SVGID_9_"  overflow="visible"/>
				</clipPath>
				<path clip-path="url(#SVGID_10_)" fill="#4086C6" d="M410.151,225.644h-32.613c-7.512,0-13.602-6.09-13.602-13.603v-1.047
					h59.817v1.047C423.754,219.554,417.663,225.644,410.151,225.644"/>
			</g>
		</g>
		<path clip-path="url(#SVGID_4_)" fill="#222222" d="M417.066,226.735h-46.442c-4.289,0-7.778-3.49-7.778-7.778v-7.961
			c0-0.603,0.488-1.091,1.092-1.091h59.815c0.604,0,1.091,0.488,1.091,1.091v7.961C424.844,223.245,421.354,226.735,417.066,226.735
			 M365.027,212.085v6.871c0,3.086,2.51,5.597,5.597,5.597h46.442c3.086,0,5.597-2.511,5.597-5.597v-6.871H365.027z"/>
		<rect x="352.101" y="241.115" clip-path="url(#SVGID_4_)" fill="#EBF0F6" width="12.429" height="12.429"/>
		<path clip-path="url(#SVGID_4_)" fill="#222222" d="M423.753,245.52h-44.749c-0.603,0-1.091-0.488-1.091-1.09
			c0-0.604,0.488-1.092,1.091-1.092h44.749c0.603,0,1.091,0.488,1.091,1.092C424.844,245.032,424.355,245.52,423.753,245.52"/>
		<path clip-path="url(#SVGID_4_)" fill="#222222" d="M423.753,250.588h-44.749c-0.603,0-1.091-0.487-1.091-1.09
			s0.488-1.091,1.091-1.091h44.749c0.603,0,1.091,0.488,1.091,1.091S424.355,250.588,423.753,250.588"/>
		<rect x="352.101" y="261.098" clip-path="url(#SVGID_4_)" fill="#53AD4D" width="12.429" height="12.428"/>
		<path clip-path="url(#SVGID_4_)" fill="#222222" d="M423.753,265.502h-44.749c-0.603,0-1.091-0.488-1.091-1.09
			c0-0.604,0.488-1.092,1.091-1.092h44.749c0.603,0,1.091,0.488,1.091,1.092C424.844,265.014,424.355,265.502,423.753,265.502"/>
		<path clip-path="url(#SVGID_4_)" fill="#222222" d="M423.753,270.571h-44.749c-0.603,0-1.091-0.487-1.091-1.09
			s0.488-1.091,1.091-1.091h44.749c0.603,0,1.091,0.488,1.091,1.091S424.355,270.571,423.753,270.571"/>
		<g opacity="0.5" clip-path="url(#SVGID_4_)">
			<g>
				<defs>
					<rect id="SVGID_11_" x="352.101" y="281.081" width="12.429" height="12.428"/>
				</defs>
				<clipPath id="SVGID_12_">
					<use xlink:href="#SVGID_11_"  overflow="visible"/>
				</clipPath>
				<rect x="352.101" y="281.08" clip-path="url(#SVGID_12_)" fill="#4086C6" width="12.429" height="12.429"/>
			</g>
		</g>
		<path clip-path="url(#SVGID_4_)" fill="#222222" d="M423.753,285.485h-44.749c-0.603,0-1.091-0.488-1.091-1.09
			c0-0.604,0.488-1.091,1.091-1.091h44.749c0.603,0,1.091,0.487,1.091,1.091C424.844,284.997,424.355,285.485,423.753,285.485"/>
		<path clip-path="url(#SVGID_4_)" fill="#222222" d="M423.753,290.553h-44.749c-0.603,0-1.091-0.487-1.091-1.09
			s0.488-1.091,1.091-1.091h44.749c0.603,0,1.091,0.488,1.091,1.091S424.355,290.553,423.753,290.553"/>
		<path clip-path="url(#SVGID_4_)" fill="#022222" d="M395.063,221.187c-5.484,0-8.939-1.163-11.987-2.188
			c-2.176-0.733-4.056-1.366-6.241-1.366c-4.862,0-6.92,1.902-6.939,1.922c-0.434,0.411-1.121,0.402-1.538-0.026
			c-0.416-0.428-0.415-1.106,0.008-1.528c0.105-0.104,2.628-2.547,8.47-2.547c2.543,0,4.678,0.718,6.938,1.479
			c2.889,0.973,6.164,2.075,11.291,2.075c5.331,0,8.223-0.95,10.773-1.789c1.849-0.607,3.444-1.132,5.506-1.132
			c4.852,0,7.693,1.838,7.813,1.917c0.503,0.331,0.642,1.007,0.311,1.51s-1.009,0.642-1.512,0.31
			c-0.02-0.013-2.456-1.556-6.611-1.556c-1.712,0-3.085,0.452-4.824,1.023C403.945,220.135,400.743,221.187,395.063,221.187"/>
		<path clip-path="url(#SVGID_4_)" fill="#222222" d="M130,180.425c-0.321,0-0.64-0.141-0.855-0.412l-4.68-5.897
			c-0.18-0.227-0.262-0.516-0.229-0.804c0.033-0.287,0.179-0.549,0.406-0.729l5.16-4.095c0.471-0.374,1.158-0.296,1.532,0.176
			l4.603,5.799c0.374,0.472,0.295,1.158-0.177,1.533c-0.471,0.374-1.158,0.294-1.532-0.177l-3.924-4.945l-3.452,2.739l4.002,5.043
			c0.374,0.472,0.295,1.157-0.177,1.532C130.478,180.348,130.238,180.425,130,180.425"/>
		<path clip-path="url(#SVGID_4_)" fill="#53AD4D" d="M135.69,168.816l-12.067,9.576l-3.852-4.854
			c-1.855-2.338-1.463-5.736,0.874-7.591l3.602-2.859c2.338-1.855,5.736-1.463,7.591,0.874L135.69,168.816z"/>
		<path clip-path="url(#SVGID_4_)" fill="#222222" d="M123.625,179.482c-0.321,0-0.639-0.141-0.855-0.412l-5.559-7.006
			c-0.622-0.784-0.902-1.763-0.787-2.757c0.114-0.994,0.609-1.884,1.393-2.507l7.905-6.273c1.618-1.285,3.98-1.013,5.264,0.606
			l5.559,7.005c0.18,0.227,0.263,0.515,0.23,0.803c-0.034,0.287-0.179,0.55-0.406,0.73l-12.067,9.575
			C124.102,179.405,123.862,179.482,123.625,179.482 M128.047,161.896c-0.352,0-0.691,0.118-0.97,0.339l-7.905,6.274
			c-0.328,0.26-0.535,0.632-0.583,1.047c-0.047,0.416,0.069,0.825,0.329,1.152l4.882,6.151l10.358-8.22l-4.881-6.151
			c-0.26-0.327-0.632-0.534-1.048-0.583C128.168,161.899,128.107,161.896,128.047,161.896"/>
		<path clip-path="url(#SVGID_4_)" fill="#222222" d="M175.977,166.769c-0.602,0-1.09-0.488-1.09-1.09v-7.902h-13.446v7.326
			c0,0.603-0.488,1.091-1.091,1.091c-0.602,0-1.09-0.488-1.09-1.091v-8.416c0-0.604,0.488-1.091,1.09-1.091h15.627
			c0.602,0,1.09,0.487,1.09,1.091v8.992C177.067,166.281,176.579,166.769,175.977,166.769"/>
		<rect x="155.005" y="143.819" clip-path="url(#SVGID_4_)" fill="#53AD4D" width="26.318" height="16.961"/>
		<path clip-path="url(#SVGID_4_)" fill="#222222" d="M181.323,161.871h-26.318c-0.602,0-1.091-0.487-1.091-1.091v-16.96
			c0-0.603,0.489-1.091,1.091-1.091h26.318c0.603,0,1.091,0.488,1.091,1.091v16.96C182.414,161.383,181.926,161.871,181.323,161.871
			 M156.095,159.69h24.138v-14.78h-24.138V159.69z"/>
		<path clip-path="url(#SVGID_4_)" fill="#222222" d="M176.48,157.777c-0.602,0-1.091-0.488-1.091-1.09v-9.577
			c0-0.603,0.489-1.091,1.091-1.091s1.09,0.488,1.09,1.091v9.577C177.57,157.289,177.082,157.777,176.48,157.777 M170.936,157.777
			c-0.602,0-1.091-0.488-1.091-1.09v-9.577c0-0.603,0.489-1.091,1.091-1.091s1.09,0.488,1.09,1.091v9.577
			C172.026,157.289,171.538,157.777,170.936,157.777 M165.392,157.777c-0.602,0-1.09-0.488-1.09-1.09v-9.577
			c0-0.603,0.488-1.091,1.09-1.091s1.09,0.488,1.09,1.091v9.577C166.482,157.289,165.994,157.777,165.392,157.777 M159.848,157.777
			c-0.602,0-1.09-0.488-1.09-1.09v-9.577c0-0.603,0.488-1.091,1.09-1.091s1.09,0.488,1.09,1.091v9.577
			C160.938,157.289,160.45,157.777,159.848,157.777"/>
		<path clip-path="url(#SVGID_4_)" fill="#222222" d="M301.904,263.101c-10.297-20.927-9.796-30.591-9.789-30.714
			c0.043-0.599-0.407-1.121-1.006-1.165c-0.593-0.05-1.124,0.404-1.169,1.007c-0.031,0.406-0.627,10.227,10.007,31.836
			c8.199,16.66,8.367,31.824,8.368,32.033h2.182c0-0.001,0-0.002,0-0.003C310.495,295.458,310.353,280.271,301.904,263.101"/>
		<path clip-path="url(#SVGID_4_)" fill="#222222" d="M227.632,235.795c0.077-0.598-0.345-1.144-0.942-1.221
			c-0.598-0.079-1.144,0.344-1.221,0.941c-0.529,4.104-2.479,13.144-9.585,27.585c-8.449,17.17-8.591,32.356-8.593,32.994
			c0,0.001,0,0.002,0,0.003h2.181c0.001-0.209,0.17-15.373,8.369-32.033C225.086,249.34,227.084,240.033,227.632,235.795"/>
		<path clip-path="url(#SVGID_4_)" fill="#222222" d="M263.803,258.477c-21.474,0-41.05-4.589-42.279-4.883
			c-0.585-0.141-0.947-0.729-0.807-1.314c0.14-0.586,0.729-0.949,1.314-0.807c0.45,0.106,45.35,10.63,73.596,0.039
			c0.563-0.212,1.192,0.073,1.404,0.638c0.211,0.563-0.075,1.193-0.639,1.404C286.544,257.247,274.918,258.477,263.803,258.477"/>
		<path clip-path="url(#SVGID_4_)" fill="#222222" d="M261.482,281.033c-6.974,0-13.392-0.552-18.889-1.302
			c-17.272-2.353-29.429-7.105-29.55-7.153c-0.56-0.221-0.834-0.854-0.613-1.415c0.221-0.56,0.855-0.834,1.415-0.612
			c0.119,0.047,12.077,4.716,29.101,7.028c15.667,2.127,38.96,2.64,60.96-7.014c0.55-0.24,1.194,0.009,1.437,0.561
			c0.242,0.553-0.009,1.195-0.561,1.438C290.041,279.03,274.757,281.033,261.482,281.033"/>
		<path clip-path="url(#SVGID_4_)" fill="#222222" d="M225.87,270.473c-0.602,0-1.09-0.487-1.09-1.09v-10.138
			c0-0.603,0.488-1.09,1.09-1.09s1.09,0.487,1.09,1.09v10.138C226.959,269.986,226.472,270.473,225.87,270.473"/>
		<path clip-path="url(#SVGID_4_)" fill="#222222" d="M231.669,272.037c-0.602,0-1.09-0.488-1.09-1.09v-10.139
			c0-0.602,0.488-1.09,1.09-1.09s1.09,0.488,1.09,1.09v10.139C232.759,271.548,232.271,272.037,231.669,272.037"/>
		<path clip-path="url(#SVGID_4_)" fill="#222222" d="M237.664,273.983c-0.602,0-1.09-0.488-1.09-1.09v-10.138
			c0-0.603,0.488-1.091,1.09-1.091c0.602,0,1.09,0.488,1.09,1.091v10.138C238.754,273.495,238.266,273.983,237.664,273.983"/>
		<path clip-path="url(#SVGID_4_)" fill="#222222" d="M243.562,273.983c-0.602,0-1.09-0.488-1.09-1.09v-10.138
			c0-0.603,0.488-1.091,1.09-1.091s1.09,0.488,1.09,1.091v10.138C244.651,273.495,244.164,273.983,243.562,273.983"/>
		<path clip-path="url(#SVGID_4_)" fill="#222222" d="M249.459,275.153c-0.602,0-1.09-0.488-1.09-1.09v-10.139
			c0-0.602,0.488-1.09,1.09-1.09s1.09,0.488,1.09,1.09v10.139C250.549,274.665,250.061,275.153,249.459,275.153"/>
		<path clip-path="url(#SVGID_4_)" fill="#222222" d="M255.356,275.542c-0.602,0-1.09-0.488-1.09-1.09v-10.138
			c0-0.604,0.488-1.092,1.09-1.092c0.602,0,1.09,0.488,1.09,1.092v10.138C256.446,275.054,255.958,275.542,255.356,275.542"/>
		<path clip-path="url(#SVGID_4_)" fill="#222222" d="M261.253,276.322c-0.602,0-1.09-0.487-1.09-1.09v-10.138
			c0-0.603,0.488-1.09,1.09-1.09s1.09,0.487,1.09,1.09v10.138C262.344,275.834,261.855,276.322,261.253,276.322"/>
		<path clip-path="url(#SVGID_4_)" fill="#222222" d="M267.151,276.322c-0.603,0-1.09-0.487-1.09-1.09v-10.138
			c0-0.603,0.487-1.09,1.09-1.09c0.602,0,1.09,0.487,1.09,1.09v10.138C268.241,275.834,267.753,276.322,267.151,276.322"/>
		<path clip-path="url(#SVGID_4_)" fill="#222222" d="M273.048,275.639c-0.602,0-1.09-0.487-1.09-1.09v-10.138
			c0-0.603,0.488-1.09,1.09-1.09c0.603,0,1.09,0.487,1.09,1.09v10.138C274.138,275.152,273.651,275.639,273.048,275.639"/>
		<path clip-path="url(#SVGID_4_)" fill="#222222" d="M278.945,273.983c-0.602,0-1.09-0.488-1.09-1.09v-10.138
			c0-0.603,0.488-1.091,1.09-1.091s1.09,0.488,1.09,1.091v10.138C280.035,273.495,279.547,273.983,278.945,273.983"/>
		<path clip-path="url(#SVGID_4_)" fill="#222222" d="M284.843,272.813c-0.603,0-1.09-0.488-1.09-1.09v-10.139
			c0-0.602,0.487-1.09,1.09-1.09c0.602,0,1.09,0.488,1.09,1.09v10.139C285.933,272.325,285.445,272.813,284.843,272.813"/>
		<path clip-path="url(#SVGID_4_)" fill="#222222" d="M291.017,271.253c-0.603,0-1.09-0.488-1.09-1.09v-10.139
			c0-0.602,0.487-1.09,1.09-1.09c0.602,0,1.09,0.488,1.09,1.09v10.139C292.107,270.765,291.619,271.253,291.017,271.253"/>
		<path clip-path="url(#SVGID_4_)" fill="#F9D564" d="M392.31,103.932c0-10.632-8.821-19.205-19.544-18.797
			c-9.668,0.367-17.58,8.185-18.055,17.848c-0.251,5.112,1.539,9.803,4.626,13.331c3.434,3.924,5.21,9.031,5.21,14.246v0.227h17.902
			v-0.152c0-5.377,2.021-10.508,5.476-14.63C390.661,112.738,392.31,108.527,392.31,103.932"/>
		<path clip-path="url(#SVGID_4_)" fill="#222222" d="M382.45,131.877h-17.903c-0.603,0-1.091-0.488-1.091-1.091v-0.227
			c0-5.083-1.754-9.887-4.94-13.527c-3.412-3.899-5.149-8.907-4.895-14.103c0.502-10.201,8.892-18.497,19.103-18.884
			c5.464-0.213,10.644,1.762,14.576,5.548c3.934,3.787,6.101,8.879,6.101,14.338c0,4.667-1.648,9.203-4.641,12.774
			c-3.366,4.018-5.22,8.965-5.22,13.929v0.152C383.54,131.39,383.052,131.877,382.45,131.877 M365.622,129.697h15.757
			c0.218-5.157,2.227-10.234,5.709-14.392c2.664-3.179,4.131-7.218,4.131-11.373c0-4.861-1.929-9.395-5.432-12.767
			c-3.501-3.371-8.119-5.116-12.98-4.94c-9.09,0.345-16.561,7.73-17.008,16.812c-0.227,4.629,1.321,9.089,4.359,12.559
			C363.51,119.427,365.433,124.406,365.622,129.697"/>
		<path clip-path="url(#SVGID_4_)" fill="#EBF0F6" d="M382.872,135.717h-18.747c-1.361,0-2.465-1.104-2.465-2.465
			c0-1.361,1.104-2.465,2.465-2.465h18.747c1.36,0,2.465,1.104,2.465,2.465C385.337,134.613,384.232,135.717,382.872,135.717"/>
		<path clip-path="url(#SVGID_4_)" fill="#222222" d="M383.124,136.808h-19.252c-1.82,0-3.303-1.482-3.303-3.303v-0.506
			c0-1.821,1.482-3.302,3.303-3.302h19.252c1.821,0,3.304,1.481,3.304,3.302v0.506C386.428,135.326,384.945,136.808,383.124,136.808
			 M363.872,131.877c-0.619,0-1.122,0.503-1.122,1.121v0.506c0,0.619,0.503,1.122,1.122,1.122h19.252
			c0.619,0,1.122-0.503,1.122-1.122v-0.506c0-0.618-0.503-1.121-1.122-1.121H363.872z"/>
		<path clip-path="url(#SVGID_4_)" fill="#EBF0F6" d="M381.201,140.614h-15.406c-1.36,0-2.465-1.104-2.465-2.465
			c0-1.361,1.104-2.465,2.465-2.465h15.406c1.361,0,2.465,1.104,2.465,2.465C383.666,139.51,382.563,140.614,381.201,140.614"/>
		<path clip-path="url(#SVGID_4_)" fill="#222222" d="M381.454,141.705h-15.912c-1.82,0-3.302-1.481-3.302-3.303v-0.506
			c0-1.82,1.481-3.302,3.302-3.302h15.912c1.821,0,3.303,1.482,3.303,3.302v0.506C384.757,140.224,383.275,141.705,381.454,141.705
			 M365.542,136.774c-0.617,0-1.12,0.503-1.12,1.121v0.506c0,0.619,0.503,1.122,1.12,1.122h15.912c0.618,0,1.122-0.503,1.122-1.122
			v-0.506c0-0.618-0.504-1.121-1.122-1.121H365.542z"/>
		<path clip-path="url(#SVGID_4_)" fill="#EBF0F6" d="M379.401,145.544h-11.806c-1.361,0-2.466-1.104-2.466-2.465
			c0-1.361,1.104-2.465,2.466-2.465h11.806c1.361,0,2.465,1.104,2.465,2.465C381.866,144.44,380.763,145.544,379.401,145.544"/>
		<path clip-path="url(#SVGID_4_)" fill="#222222" d="M379.654,146.634h-12.312c-1.821,0-3.303-1.482-3.303-3.303v-0.506
			c0-1.821,1.481-3.302,3.303-3.302h12.312c1.82,0,3.303,1.481,3.303,3.302v0.506C382.957,145.152,381.475,146.634,379.654,146.634
			 M367.343,141.705c-0.619,0-1.122,0.503-1.122,1.121v0.506c0,0.619,0.503,1.122,1.122,1.122h12.312
			c0.618,0,1.121-0.503,1.121-1.122v-0.506c0-0.618-0.503-1.121-1.121-1.121H367.343z"/>
		<path clip-path="url(#SVGID_4_)" fill="#222222" d="M376.19,149.683h-4.897c-2.283,0-4.14-1.857-4.14-4.139
			c0-0.603,0.488-1.091,1.091-1.091c0.602,0,1.09,0.488,1.09,1.091c0,1.08,0.879,1.958,1.959,1.958h4.897
			c1.08,0,1.958-0.878,1.958-1.958c0-0.603,0.487-1.091,1.091-1.091c0.602,0,1.09,0.488,1.09,1.091
			C380.329,147.826,378.473,149.683,376.19,149.683"/>
		<path clip-path="url(#SVGID_4_)" fill="#222222" d="M371.033,131.877c-0.602,0-1.09-0.488-1.09-1.09v-18.37h-0.158
			c-2.913,0-4.12-1.404-4.579-2.242c-0.73-1.33-0.643-3.071,0.225-4.436c0.737-1.16,1.914-1.81,3.143-1.728
			c0.853,0.055,1.606,0.435,2.181,1.1c1.157,1.344,1.389,3.658,1.406,5.126h1.338c0.603,0,1.091,0.488,1.091,1.09
			s-0.488,1.09-1.091,1.09h-1.373v18.37C372.125,131.389,371.637,131.877,371.033,131.877 M368.37,106.186
			c-0.575,0-0.958,0.501-1.099,0.723c-0.366,0.576-0.556,1.485-0.154,2.216c0.505,0.919,1.729,1.112,2.668,1.112h0.194
			c-0.023-1.338-0.248-2.973-0.879-3.703c-0.192-0.222-0.398-0.329-0.666-0.346C368.412,106.186,368.392,106.186,368.37,106.186"/>
		<path clip-path="url(#SVGID_4_)" fill="#222222" d="M375.964,131.877c-0.604,0-1.091-0.488-1.091-1.091v-18.369h-1.374
			c-0.604,0-1.091-0.488-1.091-1.091c0-0.602,0.487-1.09,1.091-1.09h1.338c0.018-1.468,0.248-3.781,1.407-5.125
			c0.573-0.665,1.326-1.046,2.18-1.1c1.23-0.082,2.406,0.567,3.142,1.727c0.867,1.365,0.956,3.106,0.226,4.436
			c-0.46,0.838-1.667,2.243-4.579,2.243h-0.158v18.369C377.054,131.39,376.565,131.877,375.964,131.877 M377.021,110.236h0.191
			c0.938,0,2.163-0.193,2.668-1.112c0.401-0.731,0.212-1.64-0.155-2.216c-0.146-0.23-0.557-0.76-1.162-0.721
			c-0.269,0.018-0.475,0.125-0.667,0.348C377.224,107.314,377.042,109.011,377.021,110.236"/>
		<polygon clip-path="url(#SVGID_4_)" fill="#222222" points="170.938,215.542 178.497,186.625 166.167,213.822 		"/>
		<polygon clip-path="url(#SVGID_4_)" fill="#222222" points="168.687,224.151 166.214,233.609 158.416,230.917 162.621,221.643 
			165.549,223.447 		"/>
		<path clip-path="url(#SVGID_4_)" fill="#222222" d="M168.687,254.968c-0.602,0-1.09-0.488-1.09-1.09v-7.815
			c0-0.604,0.488-1.091,1.09-1.091s1.09,0.487,1.09,1.091v7.815C169.777,254.48,169.289,254.968,168.687,254.968 M203.771,219.884
			h-7.815c-0.602,0-1.09-0.488-1.09-1.091s0.488-1.091,1.09-1.091h7.815c0.602,0,1.09,0.488,1.09,1.091
			S204.373,219.884,203.771,219.884 M141.418,219.884h-7.815c-0.602,0-1.09-0.488-1.09-1.091s0.488-1.091,1.09-1.091h7.815
			c0.602,0,1.091,0.488,1.091,1.091S142.02,219.884,141.418,219.884 M168.687,192.615c-0.602,0-1.09-0.488-1.09-1.09v-7.815
			c0-0.602,0.488-1.09,1.09-1.09s1.09,0.488,1.09,1.09v7.815C169.777,192.126,169.289,192.615,168.687,192.615"/>
		<path clip-path="url(#SVGID_4_)" fill="#222222" d="M151.144,250.268c-0.184,0-0.372-0.048-0.544-0.146
			c-0.521-0.302-0.7-0.969-0.399-1.489l3.908-6.769c0.301-0.521,0.967-0.699,1.489-0.398s0.7,0.968,0.399,1.49l-3.907,6.767
			C151.888,250.072,151.521,250.268,151.144,250.268 M199.069,237.426c-0.185,0-0.373-0.047-0.544-0.146l-6.768-3.907
			c-0.522-0.302-0.7-0.969-0.399-1.489c0.301-0.522,0.968-0.701,1.489-0.399l6.768,3.907c0.522,0.301,0.7,0.968,0.399,1.49
			C199.813,237.23,199.446,237.426,199.069,237.426 M145.07,206.25c-0.185,0-0.373-0.049-0.544-0.147l-6.768-3.907
			c-0.522-0.301-0.7-0.968-0.399-1.489c0.301-0.521,0.968-0.7,1.489-0.399l6.768,3.908c0.522,0.301,0.7,0.968,0.399,1.489
			C145.813,206.054,145.447,206.25,145.07,206.25 M182.32,196.269c-0.185,0-0.372-0.047-0.544-0.146
			c-0.522-0.302-0.7-0.969-0.399-1.489l3.907-6.769c0.301-0.521,0.968-0.699,1.49-0.398c0.521,0.301,0.7,0.968,0.399,1.49
			l-3.907,6.767C183.064,196.073,182.697,196.269,182.32,196.269"/>
		<path clip-path="url(#SVGID_4_)" fill="#222222" d="M186.229,250.268c-0.377,0-0.743-0.196-0.945-0.546l-3.907-6.767
			c-0.301-0.522-0.123-1.189,0.399-1.49c0.522-0.301,1.188-0.122,1.489,0.398l3.908,6.769c0.301,0.521,0.122,1.188-0.4,1.489
			C186.603,250.22,186.415,250.268,186.229,250.268 M138.305,237.426c-0.377,0-0.743-0.196-0.945-0.545
			c-0.301-0.522-0.123-1.189,0.399-1.49l6.768-3.907c0.522-0.302,1.188-0.123,1.489,0.399c0.301,0.521,0.123,1.188-0.399,1.489
			l-6.768,3.907C138.678,237.379,138.49,237.426,138.305,237.426 M192.304,206.25c-0.377,0-0.743-0.196-0.945-0.546
			c-0.301-0.521-0.123-1.188,0.399-1.489l6.768-3.908c0.521-0.301,1.188-0.122,1.489,0.399c0.301,0.521,0.123,1.188-0.399,1.489
			l-6.768,3.907C192.677,206.202,192.489,206.25,192.304,206.25 M155.054,196.269c-0.377,0-0.744-0.196-0.946-0.546l-3.907-6.767
			c-0.301-0.522-0.122-1.189,0.399-1.49c0.523-0.301,1.189-0.122,1.49,0.398l3.907,6.769c0.301,0.521,0.123,1.188-0.399,1.489
			C155.426,196.222,155.239,196.269,155.054,196.269"/>
		<path clip-path="url(#SVGID_4_)" fill="#222222" d="M406.885,105.829h-7.252c-0.604,0-1.092-0.488-1.092-1.091
			c0-0.602,0.488-1.09,1.092-1.09h7.252c0.602,0,1.09,0.488,1.09,1.09C407.975,105.34,407.486,105.829,406.885,105.829
			 M349.021,105.829h-7.252c-0.603,0-1.09-0.488-1.09-1.091c0-0.602,0.487-1.09,1.09-1.09h7.252c0.603,0,1.091,0.488,1.091,1.09
			C350.111,105.34,349.623,105.829,349.021,105.829 M374.326,80.522c-0.603,0-1.09-0.488-1.09-1.09v-7.253
			c0-0.602,0.487-1.09,1.09-1.09s1.09,0.488,1.09,1.09v7.253C375.416,80.035,374.929,80.522,374.326,80.522"/>
		<path clip-path="url(#SVGID_4_)" fill="#222222" d="M352.41,93.176c-0.186,0-0.373-0.048-0.545-0.147l-6.279-3.626
			c-0.522-0.301-0.701-0.968-0.399-1.49c0.3-0.522,0.968-0.7,1.489-0.399l6.28,3.626c0.521,0.301,0.7,0.968,0.399,1.49
			C353.153,92.98,352.786,93.176,352.41,93.176 M386.979,83.913c-0.186,0-0.373-0.047-0.544-0.147
			c-0.522-0.301-0.701-0.968-0.399-1.489l3.626-6.281c0.301-0.521,0.969-0.7,1.489-0.399c0.522,0.301,0.701,0.968,0.399,1.49
			l-3.626,6.28C387.722,83.717,387.355,83.913,386.979,83.913"/>
		<path clip-path="url(#SVGID_4_)" fill="#222222" d="M396.242,93.176c-0.376,0-0.743-0.196-0.944-0.546
			c-0.302-0.522-0.122-1.189,0.398-1.49l6.281-3.626c0.521-0.3,1.188-0.122,1.489,0.399c0.302,0.522,0.123,1.189-0.399,1.49
			l-6.28,3.626C396.615,93.128,396.429,93.176,396.242,93.176 M361.675,83.913c-0.377,0-0.743-0.196-0.945-0.546l-3.626-6.28
			c-0.302-0.522-0.123-1.189,0.398-1.49c0.521-0.301,1.189-0.122,1.489,0.399l3.626,6.281c0.302,0.521,0.123,1.188-0.398,1.489
			C362.048,83.866,361.859,83.913,361.675,83.913"/>
		<path clip-path="url(#SVGID_4_)" fill="#EBF0F6" d="M87.783,201.62H66.85c-2.396,0-4.338-1.942-4.338-4.338
			s1.942-4.338,4.338-4.338h20.933c2.396,0,4.338,1.942,4.338,4.338S90.179,201.62,87.783,201.62"/>
		<path clip-path="url(#SVGID_4_)" fill="#222222" d="M87.783,202.709H66.85c-2.993,0-5.428-2.435-5.428-5.428
			s2.435-5.428,5.428-5.428h20.933c2.993,0,5.428,2.435,5.428,5.428S90.776,202.709,87.783,202.709 M66.85,194.035
			c-1.79,0-3.247,1.457-3.247,3.247c0,1.791,1.457,3.247,3.247,3.247h20.933c1.79,0,3.247-1.456,3.247-3.247
			c0-1.79-1.457-3.247-3.247-3.247H66.85z"/>
		<path clip-path="url(#SVGID_4_)" fill="#EBF0F6" d="M45.864,218.775H24.907c-2.059,0-3.729-1.669-3.729-3.728
			c0-2.061,1.67-3.729,3.729-3.729h20.957c2.059,0,3.728,1.669,3.728,3.729C49.592,217.106,47.923,218.775,45.864,218.775"/>
		<path clip-path="url(#SVGID_4_)" fill="#222222" d="M45.863,219.866H24.906c-2.657,0-4.819-2.162-4.819-4.819
			s2.162-4.819,4.819-4.819h20.957c2.657,0,4.819,2.162,4.819,4.819S48.521,219.866,45.863,219.866 M24.906,212.409
			c-1.455,0-2.638,1.184-2.638,2.638c0,1.455,1.183,2.638,2.638,2.638h20.957c1.455,0,2.638-1.183,2.638-2.638
			c0-1.454-1.183-2.638-2.638-2.638H24.906z"/>
		<path clip-path="url(#SVGID_4_)" fill="#222222" d="M116.039,102.791c-0.281,0-0.562-0.108-0.776-0.324L98.191,85.18
			c-0.795-0.371-4.985-1.183-8.519-1.739c-0.22-0.034-0.424-0.135-0.584-0.289L81.5,75.883c-0.332-0.318-0.429-0.808-0.244-1.227
			c0.185-0.42,0.614-0.674,1.07-0.649l6.81,0.453l-0.367-6.815c-0.025-0.458,0.239-0.882,0.661-1.062
			c0.421-0.18,0.911-0.076,1.224,0.259l7.174,7.677c0.152,0.163,0.25,0.368,0.282,0.588c0.512,3.541,1.271,7.741,1.632,8.541
			l17.072,17.286c0.423,0.429,0.419,1.119-0.01,1.543C116.593,102.686,116.316,102.791,116.039,102.791 M90.35,81.341
			c2.066,0.328,3.664,0.615,4.903,0.864l-5.446-5.515l-4.632-0.307L90.35,81.341z M91.359,75.158l5.446,5.515
			c-0.233-1.243-0.5-2.844-0.803-4.914l-4.893-5.237L91.359,75.158z"/>
		<path clip-path="url(#SVGID_4_)" fill="#53AD4D" d="M416.338,123.169l7.965,13.521c4.625-2.73,7.729-7.762,7.729-13.521
			c0-0.951-0.09-1.881-0.252-2.785L416.338,123.169z"/>
		<path clip-path="url(#SVGID_4_)" fill="#222222" d="M424.303,137.781c-0.091,0-0.184-0.011-0.272-0.035
			c-0.28-0.072-0.521-0.253-0.668-0.502l-7.965-13.521c-0.181-0.307-0.2-0.683-0.051-1.008c0.147-0.324,0.446-0.555,0.797-0.618
			l15.442-2.786c0.285-0.051,0.579,0.013,0.816,0.178s0.399,0.418,0.45,0.703c0.179,0.995,0.269,1.997,0.269,2.978
			c0,5.909-3.166,11.45-8.264,14.46C424.688,137.729,424.495,137.781,424.303,137.781 M418.071,123.965l6.596,11.196
			c3.895-2.715,6.273-7.215,6.273-11.991c0-0.499-0.026-1.004-0.081-1.512L418.071,123.965z"/>
		<path clip-path="url(#SVGID_4_)" fill="#222222" d="M111.189,134.88c-0.652,0-1.22-0.464-1.35-1.103
			c-0.073-0.361-0.002-0.729,0.201-1.035c0.203-0.308,0.514-0.517,0.875-0.59c0.092-0.019,0.184-0.028,0.275-0.028
			c0.652,0,1.219,0.464,1.35,1.102c0.152,0.745-0.331,1.474-1.075,1.626C111.372,134.871,111.28,134.88,111.189,134.88z"/>
		<path clip-path="url(#SVGID_4_)" fill="#222222" d="M156.953,17.684c-0.652,0-1.219-0.464-1.349-1.103
			c-0.152-0.744,0.33-1.474,1.075-1.625c0.092-0.019,0.185-0.028,0.276-0.028c0.652,0,1.219,0.464,1.349,1.103
			c0.074,0.36,0.002,0.728-0.201,1.035c-0.203,0.307-0.513,0.517-0.874,0.59C157.136,17.675,157.044,17.684,156.953,17.684"/>
		<path clip-path="url(#SVGID_4_)" fill="#222222" d="M327.609,89.146c-0.652,0-1.22-0.464-1.35-1.103
			c-0.151-0.745,0.331-1.474,1.075-1.625c0.093-0.019,0.186-0.028,0.276-0.028c0.652,0,1.219,0.464,1.349,1.103
			c0.152,0.744-0.331,1.473-1.075,1.625C327.792,89.137,327.7,89.146,327.609,89.146z"/>
		<path clip-path="url(#SVGID_4_)" fill="#222222" d="M325.488,100.885c-0.651,0-1.219-0.464-1.349-1.103
			c-0.152-0.745,0.331-1.474,1.076-1.625c0.09-0.019,0.183-0.029,0.275-0.029c0.651,0,1.219,0.464,1.35,1.103
			c0.073,0.361,0.002,0.729-0.201,1.036c-0.204,0.307-0.514,0.516-0.875,0.59C325.675,100.876,325.582,100.885,325.488,100.885"/>
		<path clip-path="url(#SVGID_4_)" fill="#222222" d="M231.113,117.931c-0.652,0-1.219-0.464-1.35-1.103
			c-0.151-0.744,0.331-1.473,1.075-1.625c0.093-0.019,0.185-0.028,0.276-0.028c0.652,0,1.22,0.464,1.35,1.103
			c0.151,0.745-0.331,1.474-1.075,1.625C231.296,117.921,231.204,117.931,231.113,117.931z"/>
		<path clip-path="url(#SVGID_4_)" fill="#222222" d="M241.882,169.358c-0.652,0-1.22-0.464-1.35-1.103
			c-0.073-0.36-0.002-0.729,0.201-1.035c0.203-0.309,0.514-0.518,0.875-0.59c0.092-0.02,0.184-0.028,0.275-0.028
			c0.652,0,1.219,0.464,1.35,1.102c0.152,0.745-0.331,1.475-1.075,1.626C242.065,169.349,241.973,169.358,241.882,169.358z"/>
		<path clip-path="url(#SVGID_4_)" fill="#222222" d="M299.751,207.579c-0.652,0-1.22-0.464-1.349-1.103
			c-0.152-0.745,0.331-1.475,1.075-1.625c0.093-0.02,0.185-0.028,0.276-0.028c0.652,0,1.22,0.464,1.349,1.104
			c0.151,0.744-0.33,1.473-1.074,1.625C299.934,207.57,299.842,207.579,299.751,207.579z"/>
		<path clip-path="url(#SVGID_4_)" fill="#222222" d="M347.077,183.67c-0.652,0-1.22-0.464-1.35-1.103
			c-0.151-0.745,0.331-1.475,1.076-1.625c0.09-0.02,0.183-0.029,0.276-0.029c0.649,0,1.218,0.464,1.349,1.104
			c0.151,0.746-0.331,1.475-1.076,1.626C347.263,183.661,347.17,183.67,347.077,183.67"/>
		<path clip-path="url(#SVGID_4_)" fill="#222222" d="M408.182,149.137c-0.652,0-1.221-0.464-1.35-1.103
			c-0.151-0.744,0.33-1.473,1.074-1.625c0.093-0.019,0.186-0.028,0.276-0.028c0.651,0,1.22,0.464,1.35,1.103
			c0.074,0.36,0.002,0.728-0.201,1.035c-0.203,0.308-0.514,0.517-0.874,0.59C408.364,149.128,408.272,149.137,408.182,149.137"/>
		<path clip-path="url(#SVGID_4_)" fill="#222222" d="M418.67,90.902c-0.651,0-1.219-0.464-1.349-1.103
			c-0.074-0.36-0.003-0.728,0.2-1.035s0.514-0.517,0.875-0.59c0.091-0.019,0.184-0.029,0.275-0.029c0.652,0,1.221,0.465,1.35,1.104
			c0.073,0.36,0.003,0.728-0.2,1.035c-0.204,0.307-0.515,0.516-0.875,0.59C418.856,90.892,418.763,90.902,418.67,90.902"/>
		<path clip-path="url(#SVGID_4_)" fill="#222222" d="M322.467,272.942c-0.651,0-1.22-0.464-1.349-1.103
			c-0.152-0.744,0.331-1.474,1.074-1.625c0.094-0.02,0.186-0.028,0.276-0.028c0.651,0,1.22,0.464,1.35,1.104
			c0.074,0.36,0.002,0.728-0.201,1.034c-0.203,0.309-0.514,0.518-0.874,0.591C322.65,272.933,322.559,272.942,322.467,272.942"/>
		<path clip-path="url(#SVGID_4_)" fill="#222222" d="M209.145,48.263c-0.206,0-0.414-0.058-0.599-0.18
			c-0.503-0.331-0.642-1.008-0.311-1.511c7.396-11.224,18.571-28.187,36.481-28.187c0.602,0,1.09,0.489,1.09,1.091
			c0,0.602-0.488,1.09-1.09,1.09c-16.735,0-27.521,16.373-34.659,27.206C209.846,48.09,209.499,48.263,209.145,48.263"/>
		<path clip-path="url(#SVGID_4_)" fill="#222222" d="M356.936,252.715c-0.271,0-0.534-0.102-0.736-0.285l-7.872-7.196
			c-0.443-0.406-0.475-1.096-0.068-1.541c0.405-0.443,1.096-0.475,1.541-0.068l6.944,6.349l8.945-13.074
			c0.34-0.497,1.02-0.624,1.516-0.284c0.497,0.34,0.625,1.02,0.284,1.517l-9.653,14.108c-0.18,0.262-0.462,0.433-0.775,0.469
			C357.02,252.713,356.978,252.715,356.936,252.715"/>
		<path clip-path="url(#SVGID_4_)" fill="#222222" d="M356.936,272.557c-0.271,0-0.534-0.101-0.736-0.285l-7.872-7.195
			c-0.443-0.407-0.475-1.097-0.068-1.541c0.405-0.444,1.096-0.476,1.541-0.069l6.944,6.348l8.945-13.072
			c0.34-0.497,1.018-0.625,1.516-0.285c0.497,0.34,0.625,1.019,0.284,1.516l-9.653,14.11c-0.18,0.261-0.462,0.432-0.775,0.468
			C357.02,272.555,356.978,272.557,356.936,272.557"/>
		<path clip-path="url(#SVGID_4_)" fill="#222222" d="M356.936,292.399c-0.271,0-0.534-0.101-0.736-0.284l-7.872-7.196
			c-0.443-0.407-0.475-1.096-0.068-1.541c0.405-0.444,1.096-0.476,1.541-0.069l6.944,6.349l8.945-13.073
			c0.34-0.497,1.018-0.625,1.516-0.285c0.497,0.34,0.625,1.019,0.284,1.516l-9.653,14.11c-0.18,0.261-0.462,0.432-0.775,0.468
			C357.02,292.397,356.978,292.399,356.936,292.399"/>
	</g>
	<g clip-path="url(#SVGID_2_)">
		<defs>
			<path id="SVGID_13_" d="M106.475,96.099c-55,0-100,45-100,100s45,100,100,100h340c55,0,100-45,100-100s-45-100-100-100H106.475z"
				/>
		</defs>
		<clipPath id="SVGID_14_">
			<use xlink:href="#SVGID_13_"  overflow="visible"/>
		</clipPath>
		<path clip-path="url(#SVGID_14_)" fill="#222222" d="M444.216,209.905H343.475c-8.099,0-14.689,6.589-14.689,14.688v71.507h2.182
			v-71.507c0-6.896,5.61-12.507,12.508-12.507h100.741c6.896,0,12.508,5.611,12.508,12.507v71.507h2.18v-71.507
			C458.903,216.494,452.314,209.905,444.216,209.905"/>
		<path clip-path="url(#SVGID_14_)" fill="#222222" d="M434.611,230.393h-81.533c-6.232,0-11.304,5.071-11.304,11.304v54.402h2.181
			v-54.402c0-5.031,4.093-9.123,9.123-9.123h81.533c5.03,0,9.123,4.092,9.123,9.123v54.402h2.181v-54.402
			C445.915,235.464,440.845,230.393,434.611,230.393"/>
		<path clip-path="url(#SVGID_14_)" fill="#F9D564" d="M66.739,294.792c-14.435-1.702-25.746-13.602-26.518-28.302H9.753
			l-4.416,6.191c-2.762,3.874-4.247,8.515-4.247,13.272v0.157c0,4.914,3.984,8.897,8.898,8.897h6.991h49.904L66.739,294.792z"/>
		<path clip-path="url(#SVGID_14_)" fill="#53AD4D" d="M70.302,295.008h14.029c16.637,0,30.124-13.487,30.124-30.124
			c0-2.159-0.235-4.262-0.667-6.293c-2.772,3.122-8.323,6.426-19.462,6.875c-21.786,0.877-16.668-5.41-32.459-4.679
			c-9.593,0.443-17.048,4.717-21.428,8.005C42.356,283.582,54.99,295.008,70.302,295.008"/>
		<path clip-path="url(#SVGID_14_)" fill="#222222" d="M84.331,296.099H70.302c-17.211,0-31.214-14.002-31.214-31.214
			c0-15.74,11.55-28.869,27.025-30.936v-32.33c0-0.603,0.488-1.091,1.091-1.091H87.43c0.602,0,1.09,0.488,1.09,1.091v32.33
			c15.476,2.066,27.025,15.195,27.025,30.936C115.545,282.097,101.543,296.099,84.331,296.099 M68.294,202.709v32.209
			c0,0.561-0.423,1.028-0.979,1.085c-14.849,1.518-26.046,13.934-26.046,28.882c0,16.009,13.024,29.032,29.033,29.032h14.029
			c16.009,0,29.033-13.023,29.033-29.032c0-14.948-11.197-27.364-26.045-28.882c-0.557-0.057-0.98-0.524-0.98-1.085v-32.209H68.294z
			"/>
		<path clip-path="url(#SVGID_14_)" fill="#222222" d="M40.625,260.805c-0.345,0-0.684-0.163-0.896-0.467
			c-0.344-0.495-0.222-1.174,0.272-1.518c0.424-0.297,10.527-7.227,22.57-6.579c5.665,0.304,8.797,1.393,11.826,2.446
			c3.665,1.274,7.455,2.593,16.178,2.593c15.222,0,20.024-5.981,20.071-6.041c0.366-0.475,1.049-0.567,1.526-0.204
			c0.476,0.362,0.573,1.04,0.214,1.519c-0.212,0.282-5.372,6.907-21.811,6.907c-9.091,0-13.058-1.379-16.895-2.714
			c-3.018-1.049-5.869-2.041-11.226-2.328c-11.303-0.608-21.109,6.122-21.207,6.19C41.057,260.742,40.84,260.805,40.625,260.805"/>
		<path clip-path="url(#SVGID_14_)" fill="#FFFFFF" d="M58.961,273.751c0,1.962,1.59,3.552,3.552,3.552
			c1.961,0,3.551-1.59,3.551-3.552s-1.59-3.552-3.551-3.552C60.551,270.2,58.961,271.79,58.961,273.751"/>
		<path clip-path="url(#SVGID_14_)" fill="#222222" d="M62.513,278.393c-2.56,0-4.642-2.082-4.642-4.642
			c0-2.561,2.082-4.643,4.642-4.643c2.56,0,4.642,2.082,4.642,4.643C67.154,276.311,65.072,278.393,62.513,278.393 M62.513,271.291
			c-1.357,0-2.461,1.104-2.461,2.461c0,1.356,1.104,2.461,2.461,2.461c1.357,0,2.461-1.104,2.461-2.461
			C64.974,272.394,63.87,271.291,62.513,271.291"/>
		<path clip-path="url(#SVGID_14_)" fill="#FFFFFF" d="M79.666,278.456c0,3.821,3.099,6.921,6.921,6.921
			c3.822,0,6.921-3.1,6.921-6.921c0-3.822-3.099-6.922-6.921-6.922C82.765,271.534,79.666,274.633,79.666,278.456"/>
		<path clip-path="url(#SVGID_14_)" fill="#222222" d="M86.586,286.466c-4.418,0-8.011-3.595-8.011-8.012s3.593-8.011,8.011-8.011
			c4.417,0,8.011,3.594,8.011,8.011S91.003,286.466,86.586,286.466 M86.586,272.625c-3.215,0-5.83,2.616-5.83,5.83
			c0,3.216,2.615,5.83,5.83,5.83c3.215,0,5.83-2.614,5.83-5.83C92.417,275.241,89.802,272.625,86.586,272.625"/>
		<path clip-path="url(#SVGID_14_)" fill="#222222" d="M76.068,296.099H9.988c-5.507,0-9.988-4.481-9.988-9.988v-0.157
			c0-5.014,1.538-9.823,4.449-13.905L26.61,240.97v-22.195c0-0.603,0.488-1.09,1.091-1.09h16.181c0.602,0,1.09,0.487,1.09,1.09
			v22.123l3.29,3.622c0.405,0.445,0.372,1.136-0.074,1.54s-1.135,0.372-1.541-0.074l-3.573-3.935
			c-0.182-0.199-0.283-0.462-0.283-0.732v-21.453h-14v21.453c0,0.227-0.07,0.448-0.202,0.634L6.226,273.315
			c-2.646,3.71-4.045,8.081-4.045,12.639v0.157c0,4.304,3.503,7.807,7.808,7.807h66.08c0.602,0,1.09,0.488,1.09,1.091
			S76.67,296.099,76.068,296.099"/>
		<path clip-path="url(#SVGID_14_)" fill="#FFFFFF" d="M14.055,281.075c0,1.837,1.489,3.325,3.326,3.325
			c1.837,0,3.327-1.488,3.327-3.325s-1.49-3.326-3.327-3.326C15.543,277.749,14.055,279.238,14.055,281.075"/>
		<path clip-path="url(#SVGID_14_)" fill="#1C3E58" d="M17.381,285.492c-2.435,0-4.417-1.982-4.417-4.417
			c0-2.436,1.982-4.417,4.417-4.417c2.435,0,4.417,1.981,4.417,4.417C21.798,283.509,19.816,285.492,17.381,285.492 M17.381,278.838
			c-1.233,0-2.236,1.003-2.236,2.236c0,1.232,1.003,2.235,2.236,2.235c1.233,0,2.236-1.003,2.236-2.235
			C19.617,279.841,18.614,278.838,17.381,278.838"/>
		<path clip-path="url(#SVGID_14_)" fill="#FFFFFF" d="M26.556,280.014c0,2.624,2.128,4.752,4.752,4.752s4.752-2.128,4.752-4.752
			s-2.128-4.752-4.752-4.752S26.556,277.39,26.556,280.014"/>
		<path clip-path="url(#SVGID_14_)" fill="#1C3E58" d="M31.308,285.857c-3.221,0-5.842-2.621-5.842-5.843s2.621-5.843,5.842-5.843
			c3.222,0,5.842,2.621,5.842,5.843S34.53,285.857,31.308,285.857 M31.308,276.352c-2.019,0-3.661,1.644-3.661,3.662
			c0,2.02,1.642,3.661,3.661,3.661s3.662-1.642,3.662-3.661C34.97,277.996,33.327,276.352,31.308,276.352"/>
		<path clip-path="url(#SVGID_14_)" fill="#222222" d="M33.867,260.805H20.708c-0.602,0-1.091-0.488-1.091-1.09
			c0-0.603,0.489-1.091,1.091-1.091h13.159c0.602,0,1.09,0.488,1.09,1.091C34.957,260.317,34.469,260.805,33.867,260.805"/>
		<rect x="458.934" y="124.072" clip-path="url(#SVGID_14_)" fill="#53AD4D" width="10.139" height="70.839"/>
		<path clip-path="url(#SVGID_14_)" fill="#222222" d="M469.072,196.002h-10.139c-0.602,0-1.09-0.488-1.09-1.091v-70.839
			c0-0.603,0.488-1.091,1.09-1.091h10.139c0.602,0,1.09,0.488,1.09,1.091v70.839C470.162,195.514,469.674,196.002,469.072,196.002
			 M460.025,193.821h7.957v-68.659h-7.957V193.821z"/>
		<path clip-path="url(#SVGID_14_)" fill="#222222" d="M572.299,223.224H458.935c-0.603,0-1.091-0.487-1.091-1.09
			s0.488-1.091,1.091-1.091h112.274V116.467c0-4.357-3.545-7.901-7.902-7.901H458.935c-0.603,0-1.091-0.488-1.091-1.091
			c0-0.602,0.488-1.09,1.091-1.09h104.372c5.56,0,10.082,4.523,10.082,10.082v105.667
			C573.389,222.737,572.9,223.224,572.299,223.224"/>
		<path clip-path="url(#SVGID_14_)" fill="#222222" d="M564.988,211.208H458.935c-0.603,0-1.091-0.488-1.091-1.091
			s0.488-1.091,1.091-1.091h104.963v-88.392c0-3.107-2.527-5.635-5.636-5.635h-99.327c-0.603,0-1.091-0.488-1.091-1.091
			c0-0.602,0.488-1.09,1.091-1.09h99.327c4.311,0,7.816,3.506,7.816,7.816v89.482C566.078,210.72,565.59,211.208,564.988,211.208"/>
		<path clip-path="url(#SVGID_14_)" fill="#222222" d="M549.343,125.162h-75.008c-0.602,0-1.09-0.488-1.09-1.09
			c0-0.603,0.488-1.091,1.09-1.091h75.008c0.603,0,1.09,0.488,1.09,1.091C550.433,124.674,549.945,125.162,549.343,125.162"/>
		<path clip-path="url(#SVGID_14_)" fill="#222222" d="M522.196,133.018h-47.861c-0.602,0-1.09-0.488-1.09-1.09
			c0-0.603,0.488-1.091,1.09-1.091h47.861c0.603,0,1.09,0.488,1.09,1.091C523.286,132.53,522.799,133.018,522.196,133.018"/>
		<path clip-path="url(#SVGID_14_)" fill="#222222" d="M522.196,140.875h-47.861c-0.602,0-1.09-0.488-1.09-1.09
			c0-0.603,0.488-1.091,1.09-1.091h47.861c0.603,0,1.09,0.488,1.09,1.091C523.286,140.386,522.799,140.875,522.196,140.875"/>
		<path clip-path="url(#SVGID_14_)" fill="#222222" d="M549.343,148.731h-75.008c-0.602,0-1.09-0.488-1.09-1.09
			c0-0.603,0.488-1.091,1.09-1.091h75.008c0.603,0,1.09,0.488,1.09,1.091C550.433,148.243,549.945,148.731,549.343,148.731"/>
		<path clip-path="url(#SVGID_14_)" fill="#222222" d="M491.705,180.698h-14.621c-0.603,0-1.091-0.487-1.091-1.09
			s0.488-1.091,1.091-1.091h14.621c0.603,0,1.09,0.488,1.09,1.091S492.308,180.698,491.705,180.698"/>
		<path clip-path="url(#SVGID_14_)" fill="#222222" d="M491.705,187.449h-14.621c-0.603,0-1.091-0.488-1.091-1.09
			c0-0.604,0.488-1.092,1.091-1.092h14.621c0.603,0,1.09,0.488,1.09,1.092C492.795,186.96,492.308,187.449,491.705,187.449"/>
		<path clip-path="url(#SVGID_14_)" fill="#222222" d="M491.705,194.199h-14.621c-0.603,0-1.091-0.488-1.091-1.09
			c0-0.604,0.488-1.091,1.091-1.091h14.621c0.603,0,1.09,0.487,1.09,1.091C492.795,193.71,492.308,194.199,491.705,194.199"/>
		<rect x="505.157" y="157.676" clip-path="url(#SVGID_14_)" fill="#F9D564" width="14.621" height="15.4"/>
		<path clip-path="url(#SVGID_14_)" fill="#222222" d="M519.778,180.698h-14.621c-0.603,0-1.091-0.487-1.091-1.09
			s0.488-1.091,1.091-1.091h14.621c0.603,0,1.09,0.488,1.09,1.091S520.381,180.698,519.778,180.698"/>
		<path clip-path="url(#SVGID_14_)" fill="#222222" d="M519.778,187.449h-14.621c-0.603,0-1.091-0.488-1.091-1.09
			c0-0.604,0.488-1.092,1.091-1.092h14.621c0.603,0,1.09,0.488,1.09,1.092C520.868,186.96,520.381,187.449,519.778,187.449"/>
		<path clip-path="url(#SVGID_14_)" fill="#222222" d="M519.778,194.199h-14.621c-0.603,0-1.091-0.488-1.091-1.09
			c0-0.604,0.488-1.091,1.091-1.091h14.621c0.603,0,1.09,0.487,1.09,1.091C520.868,193.71,520.381,194.199,519.778,194.199"/>
		<rect x="533.23" y="157.676" clip-path="url(#SVGID_14_)" fill="#53AD4D" width="14.62" height="15.4"/>
		<path clip-path="url(#SVGID_14_)" fill="#222222" d="M547.852,180.698H533.23c-0.604,0-1.092-0.487-1.092-1.09
			s0.488-1.091,1.092-1.091h14.621c0.602,0,1.09,0.488,1.09,1.091S548.453,180.698,547.852,180.698"/>
		<path clip-path="url(#SVGID_14_)" fill="#222222" d="M547.852,187.449H533.23c-0.604,0-1.092-0.488-1.092-1.09
			c0-0.604,0.488-1.092,1.092-1.092h14.621c0.602,0,1.09,0.488,1.09,1.092C548.941,186.96,548.453,187.449,547.852,187.449"/>
		<path clip-path="url(#SVGID_14_)" fill="#222222" d="M547.852,194.199H533.23c-0.604,0-1.092-0.488-1.092-1.09
			c0-0.604,0.488-1.091,1.092-1.091h14.621c0.602,0,1.09,0.487,1.09,1.091C548.941,193.71,548.453,194.199,547.852,194.199"/>
		<path clip-path="url(#SVGID_14_)" fill="#222222" d="M540.364,218.958c-1.569,0-2.845-1.275-2.845-2.845s1.275-2.845,2.845-2.845
			c1.568,0,2.845,1.275,2.845,2.845S541.933,218.958,540.364,218.958 M540.364,215.449c-0.366,0-0.664,0.298-0.664,0.664
			s0.298,0.664,0.664,0.664s0.664-0.298,0.664-0.664S540.73,215.449,540.364,215.449"/>
		<path clip-path="url(#SVGID_14_)" fill="#222222" d="M598.91,250.686H457.814c-0.604,0-1.092-0.488-1.092-1.091v-6.579
			c0-0.604,0.488-1.091,1.092-1.091H598.91c0.602,0,1.09,0.487,1.09,1.091v6.579C600,250.198,599.512,250.686,598.91,250.686
			 M458.904,248.505h138.915v-4.398H458.904V248.505z"/>
		<path clip-path="url(#SVGID_14_)" fill="#222222" d="M519.759,244.106h-52.832c-0.602,0-1.09-0.488-1.09-1.09v-7.262
			c0-0.604,0.488-1.092,1.09-1.092h52.832c0.604,0,1.091,0.488,1.091,1.092v7.262C520.85,243.618,520.362,244.106,519.759,244.106
			 M468.018,241.925h50.651v-5.081h-50.651V241.925z"/>
		<path clip-path="url(#SVGID_14_)" fill="#222222" d="M541.204,257.997h-74.277c-0.602,0-1.09-0.487-1.09-1.09
			s0.488-1.091,1.09-1.091h74.277c0.602,0,1.09,0.488,1.09,1.091S541.806,257.997,541.204,257.997"/>
		<path clip-path="url(#SVGID_14_)" fill="#222222" d="M581.803,281.196H457.813c-0.603,0-1.091-0.487-1.091-1.09
			s0.488-1.091,1.091-1.091h123.989c0.602,0,1.09,0.488,1.09,1.091S582.404,281.196,581.803,281.196"/>
		<path clip-path="url(#SVGID_14_)" fill="#222222" d="M480.428,236.845c-0.467,0-0.898-0.303-1.043-0.772
			c-0.175-0.576,0.149-1.186,0.726-1.362c6.063-1.853,4.949-12.348,4.937-12.452c-0.067-0.599,0.362-1.14,0.96-1.207
			c0.602-0.071,1.14,0.36,1.207,0.959c0.059,0.505,1.33,12.404-6.467,14.786C480.642,236.829,480.534,236.845,480.428,236.845"/>
		<path clip-path="url(#SVGID_14_)" fill="#222222" d="M506.259,236.845c-0.106,0-0.213-0.017-0.319-0.049
			c-7.797-2.382-6.524-14.281-6.467-14.786c0.068-0.599,0.608-1.026,1.207-0.959c0.598,0.067,1.028,0.608,0.96,1.207
			c-0.012,0.104-1.127,10.6,4.938,12.452c0.575,0.177,0.899,0.786,0.725,1.362C507.157,236.542,506.726,236.845,506.259,236.845"/>
	</g>
</g>
</svg>
