<svg xmlns="http://www.w3.org/2000/svg" xmlns:xlink="http://www.w3.org/1999/xlink" width="541" height="296.186" viewBox="4.5 0 541 296.186"><defs><path id="a" d="M0 0h600v296.186H0z"/></defs><clipPath id="b"><use xlink:href="#a" overflow="visible"/></clipPath><g clip-path="url(#b)"><defs><path id="c" d="M0 0h600v296.186H0z"/></defs><defs><path id="e" d="M0 0h600v296.186H0z"/></defs><defs><path id="g" d="M0 0h600v296.186H0z"/></defs><defs><path id="i" d="M0 0h600v296.186H0z"/></defs><defs><path id="k" d="M0 0h600v296.186H0z"/></defs><defs><path id="m" d="M0 0h600v296.186H0z"/></defs><defs><path id="o" d="M0 0h600v296.186H0z"/></defs><defs><path id="q" d="M0 0h600v296.186H0z"/></defs><clipPath id="d"><use xlink:href="#c" overflow="visible"/></clipPath><clipPath id="f" clip-path="url(#d)"><use xlink:href="#e" overflow="visible"/></clipPath><clipPath id="h" clip-path="url(#f)"><use xlink:href="#g" overflow="visible"/></clipPath><clipPath id="j" clip-path="url(#h)"><use xlink:href="#i" overflow="visible"/></clipPath><clipPath id="l" clip-path="url(#j)"><use xlink:href="#k" overflow="visible"/></clipPath><clipPath id="n" clip-path="url(#l)"><use xlink:href="#m" overflow="visible"/></clipPath><clipPath id="p" clip-path="url(#n)"><use xlink:href="#o" overflow="visible"/></clipPath><clipPath id="r" clip-path="url(#p)"><use xlink:href="#q" overflow="visible"/></clipPath><path clip-path="url(#r)" fill="#EEE" d="M446.475 296.099h-340c-55 0-100-45-100-100s45-100 100-100h340c55 0 100 45 100 100s-45 100-100 100"/><path clip-path="url(#r)" fill="#FFF" d="M343.718 296.105v-54.456c0-5.029 4.079-9.108 9.11-9.108h82.366c5.028 0 9.106 4.077 9.108 9.106l.016 54.539-100.6-.081zM410.86 108.665l5.478 14.504-4.388 14.98-7.107-4.109-3.875-6.674-.5-6.982 3.145-6.469 4.362-4.25zM205.551 220.873c-2.508 14.214 3.739 14.528 3.739 14.528-6.638 16.905-23.102 28.873-42.362 28.873-25.125 0-45.493-20.367-45.493-45.492s20.368-45.493 45.493-45.493c13.425 0 25.491 5.814 33.818 15.063-.585 26.604 6.187 24.688 4.805 32.521"/><path clip-path="url(#r)" fill="#F9D564" d="M315.01 32.632c-20.424-31.373-50.475-16.985-53.277-15.551-2.802-1.435-32.853-15.822-53.277 15.551-21.44 32.933-12.784 50.903-31.924 59.415 0 0 26.586 31.371 54.605 35.925 10.837-5.59 19.443-13.188 19.443-13.188-3.704-6.292-2.632-7.844-1.706-12.693.11-.575.187-1.066.24-1.498-8.32-2.966-14.276-10.91-14.276-20.248V62.322c4.098-3.273 9.067-6.375 14.036-10.196 4.475-3.442 8-9.004 10.541-14.13l-1.05 2.649s7.596 11.794 26.185 18.477v21.223c0 7.553-3.899 14.192-9.792 18.025 1.15.898 1.093 2.819 1.093 2.819.438-.585 1.006-.491 1.529-.169.961.595 1.328 1.813.967 2.884-.421 1.25-.976 3.088-1.107 4.449-.068.704-.786 2.339-1.741 4.257l.132-.017s2.347 9.105 14.73 15.656c28.729-3.345 56.573-36.202 56.573-36.202-19.14-8.512-10.484-26.482-31.924-59.415"/><path clip-path="url(#r)" fill="#222" d="M290.36 129.339c-.177 0-.352-.043-.51-.126-11.107-5.877-14.404-13.721-15.115-15.824a1.09 1.09 0 0 1-.213-1.264c1.447-2.907 1.615-3.702 1.632-3.876.14-1.455.708-3.355 1.159-4.693.21-.621-.004-1.296-.507-1.608a1.36 1.36 0 0 0-.117-.063 1.114 1.114 0 0 1-1.185.317c-.449-.158-.759-.57-.744-1.047.007-.354-.101-1.479-.674-1.927a1.091 1.091 0 0 1 .077-1.773c5.821-3.786 9.296-10.184 9.296-17.11V59.883c-15.027-5.587-22.759-14.33-25.174-17.481-2.71 4.647-5.642 8.199-8.746 10.588-2.403 1.848-4.788 3.516-7.094 5.129-2.32 1.623-4.519 3.161-6.517 4.73v17.495c0 8.606 5.446 16.33 13.551 19.22.481.172.779.653.717 1.16-.059.48-.141.994-.251 1.57-.12.63-.243 1.204-.358 1.741-.743 3.483-1.082 5.073 1.932 10.193a1.09 1.09 0 0 1-.218 1.371c-.087.076-8.833 7.753-19.665 13.34-.207.108-.444.146-.675.108-28.093-4.566-54.166-35.003-55.262-36.297a1.09 1.09 0 0 1 .389-1.701c9.945-4.422 12.063-11.6 15.269-22.463 2.813-9.529 6.313-21.387 16.184-36.55 8.638-13.269 20.445-20.384 34.146-20.574 9.787-.137 17.64 3.24 20.045 4.399 2.406-1.159 10.278-4.534 20.046-4.399 13.7.19 25.508 7.306 34.146 20.574 9.871 15.163 13.371 27.021 16.184 36.55 3.206 10.864 5.324 18.041 15.27 22.463a1.093 1.093 0 0 1 .39 1.701c-.07.084-7.146 8.39-17.654 16.986-9.74 7.969-24.521 17.837-39.625 19.595a.96.96 0 0 1-.129.008m-13.608-16.807c.445 1.356 3.336 8.933 13.819 14.593 24.949-3.111 49.522-29.083 54.585-34.712-9.731-4.882-12.021-12.642-15.142-23.208-2.771-9.394-6.223-21.082-15.919-35.979-19.801-30.415-48.643-16.825-51.867-15.174a1.093 1.093 0 0 1-.993 0c-3.225-1.65-32.068-15.239-51.867 15.174-9.698 14.897-13.148 26.586-15.92 35.979-3.119 10.567-5.408 18.327-15.14 23.209 4.935 5.484 28.393 30.276 52.648 34.422 8.735-4.557 16.032-10.452 18.226-12.294-2.943-5.268-2.478-7.451-1.729-10.961.112-.523.231-1.082.348-1.694.039-.204.074-.399.106-.586-8.508-3.42-14.161-11.73-14.161-20.956V62.322c0-.33.15-.645.409-.852 2.16-1.726 4.53-3.383 7.039-5.139 2.286-1.6 4.65-3.253 7.014-5.071 3.66-2.816 7.102-7.442 10.228-13.75a1.09 1.09 0 0 1 1.991.885l-.833 2.104c1.596 2.183 9.362 11.858 25.324 17.595.433.156.721.567.721 1.027v21.223a22.51 22.51 0 0 1-9.301 18.259c.194.358.326.729.415 1.076.389.027.795.164 1.198.413 1.358.839 1.958 2.588 1.428 4.161-.586 1.737-.961 3.23-1.055 4.205-.048.5-.276 1.416-1.572 4.074"/><path clip-path="url(#r)" fill="#FABF62" d="M256.285 101.836l-.758 1.838s.344-.759.782-1.837l-.024-.001"/><g clip-path="url(#r)"><g opacity=".5"><defs><path id="s" d="M339.972 32.569h33.972V58.4h-33.972z"/></defs><clipPath id="t"><use xlink:href="#s" overflow="visible"/></clipPath><path clip-path="url(#t)" fill="#4086C6" d="M371.262 41.829h-1.512a2.682 2.682 0 0 1-2.681-2.682V35.25c0-1.48-1.2-2.681-2.681-2.681h-1.949c-1.48 0-2.681 1.2-2.681 2.681v3.898a2.682 2.682 0 1 1-5.362 0V35.25c0-1.48-1.2-2.681-2.682-2.681h-1.949c-1.48 0-2.681 1.2-2.681 2.681v3.898c0 1.481-1.2 2.682-2.682 2.682h-1.754a2.681 2.681 0 0 0-2.682 2.681v1.949c0 1.48 1.2 2.681 2.682 2.681h1.754c1.48 0 2.682 1.2 2.682 2.68v3.899a2.68 2.68 0 0 0 2.681 2.681h1.949a2.681 2.681 0 0 0 2.682-2.681v-3.9a2.68 2.68 0 0 1 5.362 0v3.899a2.68 2.68 0 0 0 2.681 2.681h1.949a2.681 2.681 0 0 0 2.681-2.681V51.82c0-1.479 1.2-2.68 2.681-2.68h1.512c1.479 0 2.682-1.2 2.682-2.681V44.51a2.684 2.684 0 0 0-2.682-2.681"/></g><defs><path id="u" d="M0 0h600v296.186H0z"/></defs><defs><path id="w" d="M0 0h600v296.186H0z"/></defs><defs><path id="y" d="M0 0h600v296.186H0z"/></defs><defs><path id="A" d="M0 0h600v296.186H0z"/></defs><defs><path id="C" d="M0 0h600v296.186H0z"/></defs><defs><path id="E" d="M0 0h600v296.186H0z"/></defs><defs><path id="G" d="M0 0h600v296.186H0z"/></defs><defs><path id="I" d="M0 0h600v296.186H0z"/></defs><defs><path id="K" d="M0 0h600v296.186H0z"/></defs><defs><path id="M" d="M0 0h600v296.186H0z"/></defs><defs><path id="O" d="M0 0h600v296.186H0z"/></defs><defs><path id="Q" d="M0 0h600v296.186H0z"/></defs><defs><path id="S" d="M0 0h600v296.186H0z"/></defs><defs><path id="U" d="M0 0h600v296.186H0z"/></defs><defs><path id="W" d="M0 0h600v296.186H0z"/></defs><defs><path id="Y" d="M0 0h600v296.186H0z"/></defs><defs><path id="aa" d="M0 0h600v296.186H0z"/></defs><defs><path id="ac" d="M0 0h600v296.186H0z"/></defs><defs><path id="ae" d="M0 0h600v296.186H0z"/></defs><defs><path id="ag" d="M0 0h600v296.186H0z"/></defs><defs><path id="ai" d="M0 0h600v296.186H0z"/></defs><defs><path id="ak" d="M0 0h600v296.186H0z"/></defs><defs><path id="am" d="M0 0h600v296.186H0z"/></defs><defs><path id="ao" d="M0 0h600v296.186H0z"/></defs><defs><path id="aq" d="M0 0h600v296.186H0z"/></defs><defs><path id="as" d="M0 0h600v296.186H0z"/></defs><defs><path id="au" d="M0 0h600v296.186H0z"/></defs><defs><path id="aw" d="M0 0h600v296.186H0z"/></defs><defs><path id="ay" d="M0 0h600v296.186H0z"/></defs><defs><path id="aA" d="M0 0h600v296.186H0z"/></defs><defs><path id="aC" d="M0 0h600v296.186H0z"/></defs><defs><path id="aE" d="M0 0h600v296.186H0z"/></defs><defs><path id="aG" d="M0 0h600v296.186H0z"/></defs><defs><path id="aI" d="M0 0h600v296.186H0z"/></defs><defs><path id="aK" d="M0 0h600v296.186H0z"/></defs><defs><path id="aM" d="M0 0h600v296.186H0z"/></defs><defs><path id="aO" d="M0 0h600v296.186H0z"/></defs><defs><path id="aQ" d="M0 0h600v296.186H0z"/></defs><defs><path id="aS" d="M0 0h600v296.186H0z"/></defs><defs><path id="aU" d="M0 0h600v296.186H0z"/></defs><defs><path id="aW" d="M0 0h600v296.186H0z"/></defs><defs><path id="aY" d="M0 0h600v296.186H0z"/></defs><defs><path id="ba" d="M0 0h600v296.186H0z"/></defs><defs><path id="bc" d="M0 0h600v296.186H0z"/></defs><defs><path id="be" d="M0 0h600v296.186H0z"/></defs><defs><path id="bg" d="M0 0h600v296.186H0z"/></defs><defs><path id="bi" d="M0 0h600v296.186H0z"/></defs><defs><path id="bk" d="M0 0h600v296.186H0z"/></defs><defs><path id="bm" d="M0 0h600v296.186H0z"/></defs><defs><path id="bo" d="M0 0h600v296.186H0z"/></defs><defs><path id="bq" d="M0 0h600v296.186H0z"/></defs><defs><path id="bs" d="M0 0h600v296.186H0z"/></defs><defs><path id="bu" d="M0 0h600v296.186H0z"/></defs><defs><path id="bw" d="M0 0h600v296.186H0z"/></defs><defs><path id="by" d="M0 0h600v296.186H0z"/></defs><defs><path id="bA" d="M0 0h600v296.186H0z"/></defs><defs><path id="bC" d="M0 0h600v296.186H0z"/></defs><defs><path id="bE" d="M0 0h600v296.186H0z"/></defs><clipPath id="v"><use xlink:href="#u" overflow="visible"/></clipPath><clipPath id="x" clip-path="url(#v)"><use xlink:href="#w" overflow="visible"/></clipPath><clipPath id="z" clip-path="url(#x)"><use xlink:href="#y" overflow="visible"/></clipPath><clipPath id="B" clip-path="url(#z)"><use xlink:href="#A" overflow="visible"/></clipPath><clipPath id="D" clip-path="url(#B)"><use xlink:href="#C" overflow="visible"/></clipPath><clipPath id="F" clip-path="url(#D)"><use xlink:href="#E" overflow="visible"/></clipPath><clipPath id="H" clip-path="url(#F)"><use xlink:href="#G" overflow="visible"/></clipPath><clipPath id="J" clip-path="url(#H)"><use xlink:href="#I" overflow="visible"/></clipPath><clipPath id="L" clip-path="url(#J)"><use xlink:href="#K" overflow="visible"/></clipPath><clipPath id="N" clip-path="url(#L)"><use xlink:href="#M" overflow="visible"/></clipPath><clipPath id="P" clip-path="url(#N)"><use xlink:href="#O" overflow="visible"/></clipPath><clipPath id="R" clip-path="url(#P)"><use xlink:href="#Q" overflow="visible"/></clipPath><clipPath id="T" clip-path="url(#R)"><use xlink:href="#S" overflow="visible"/></clipPath><clipPath id="V" clip-path="url(#T)"><use xlink:href="#U" overflow="visible"/></clipPath><clipPath id="X" clip-path="url(#V)"><use xlink:href="#W" overflow="visible"/></clipPath><clipPath id="Z" clip-path="url(#X)"><use xlink:href="#Y" overflow="visible"/></clipPath><clipPath id="ab" clip-path="url(#Z)"><use xlink:href="#aa" overflow="visible"/></clipPath><clipPath id="ad" clip-path="url(#ab)"><use xlink:href="#ac" overflow="visible"/></clipPath><clipPath id="af" clip-path="url(#ad)"><use xlink:href="#ae" overflow="visible"/></clipPath><clipPath id="ah" clip-path="url(#af)"><use xlink:href="#ag" overflow="visible"/></clipPath><clipPath id="aj" clip-path="url(#ah)"><use xlink:href="#ai" overflow="visible"/></clipPath><clipPath id="al" clip-path="url(#aj)"><use xlink:href="#ak" overflow="visible"/></clipPath><clipPath id="an" clip-path="url(#al)"><use xlink:href="#am" overflow="visible"/></clipPath><clipPath id="ap" clip-path="url(#an)"><use xlink:href="#ao" overflow="visible"/></clipPath><clipPath id="ar" clip-path="url(#ap)"><use xlink:href="#aq" overflow="visible"/></clipPath><clipPath id="at" clip-path="url(#ar)"><use xlink:href="#as" overflow="visible"/></clipPath><clipPath id="av" clip-path="url(#at)"><use xlink:href="#au" overflow="visible"/></clipPath><clipPath id="ax" clip-path="url(#av)"><use xlink:href="#aw" overflow="visible"/></clipPath><clipPath id="az" clip-path="url(#ax)"><use xlink:href="#ay" overflow="visible"/></clipPath><clipPath id="aB" clip-path="url(#az)"><use xlink:href="#aA" overflow="visible"/></clipPath><clipPath id="aD" clip-path="url(#aB)"><use xlink:href="#aC" overflow="visible"/></clipPath><clipPath id="aF" clip-path="url(#aD)"><use xlink:href="#aE" overflow="visible"/></clipPath><clipPath id="aH" clip-path="url(#aF)"><use xlink:href="#aG" overflow="visible"/></clipPath><clipPath id="aJ" clip-path="url(#aH)"><use xlink:href="#aI" overflow="visible"/></clipPath><clipPath id="aL" clip-path="url(#aJ)"><use xlink:href="#aK" overflow="visible"/></clipPath><clipPath id="aN" clip-path="url(#aL)"><use xlink:href="#aM" overflow="visible"/></clipPath><clipPath id="aP" clip-path="url(#aN)"><use xlink:href="#aO" overflow="visible"/></clipPath><clipPath id="aR" clip-path="url(#aP)"><use xlink:href="#aQ" overflow="visible"/></clipPath><clipPath id="aT" clip-path="url(#aR)"><use xlink:href="#aS" overflow="visible"/></clipPath><clipPath id="aV" clip-path="url(#aT)"><use xlink:href="#aU" overflow="visible"/></clipPath><clipPath id="aX" clip-path="url(#aV)"><use xlink:href="#aW" overflow="visible"/></clipPath><clipPath id="aZ" clip-path="url(#aX)"><use xlink:href="#aY" overflow="visible"/></clipPath><clipPath id="bb" clip-path="url(#aZ)"><use xlink:href="#ba" overflow="visible"/></clipPath><clipPath id="bd" clip-path="url(#bb)"><use xlink:href="#bc" overflow="visible"/></clipPath><clipPath id="bf" clip-path="url(#bd)"><use xlink:href="#be" overflow="visible"/></clipPath><clipPath id="bh" clip-path="url(#bf)"><use xlink:href="#bg" overflow="visible"/></clipPath><clipPath id="bj" clip-path="url(#bh)"><use xlink:href="#bi" overflow="visible"/></clipPath><clipPath id="bl" clip-path="url(#bj)"><use xlink:href="#bk" overflow="visible"/></clipPath><clipPath id="bn" clip-path="url(#bl)"><use xlink:href="#bm" overflow="visible"/></clipPath><clipPath id="bp" clip-path="url(#bn)"><use xlink:href="#bo" overflow="visible"/></clipPath><clipPath id="br" clip-path="url(#bp)"><use xlink:href="#bq" overflow="visible"/></clipPath><clipPath id="bt" clip-path="url(#br)"><use xlink:href="#bs" overflow="visible"/></clipPath><clipPath id="bv" clip-path="url(#bt)"><use xlink:href="#bu" overflow="visible"/></clipPath><clipPath id="bx" clip-path="url(#bv)"><use xlink:href="#bw" overflow="visible"/></clipPath><clipPath id="bz" clip-path="url(#bx)"><use xlink:href="#by" overflow="visible"/></clipPath><clipPath id="bB" clip-path="url(#bz)"><use xlink:href="#bA" overflow="visible"/></clipPath><clipPath id="bD" clip-path="url(#bB)"><use xlink:href="#bC" overflow="visible"/></clipPath><clipPath id="bF" clip-path="url(#bD)"><use xlink:href="#bE" overflow="visible"/></clipPath><path clip-path="url(#bF)" fill="#222" d="M30.844 157.014c-5.603 0-10.162-4.56-10.162-10.162s4.559-10.162 10.162-10.162c5.603 0 10.162 4.56 10.162 10.162 0 5.603-4.559 10.162-10.162 10.162m0-18.143c-4.4 0-7.981 3.58-7.981 7.98s3.581 7.981 7.981 7.981c4.401 0 7.981-3.581 7.981-7.981s-3.58-7.98-7.981-7.98M41.005 71.709c-4.838 0-8.774-3.936-8.774-8.773s3.936-8.773 8.774-8.773 8.774 3.936 8.774 8.773-3.936 8.773-8.774 8.773m0-15.366c-3.635 0-6.593 2.958-6.593 6.593s2.958 6.592 6.593 6.592 6.593-2.957 6.593-6.592-2.958-6.593-6.593-6.593M64.285 50.279c-2.644 0-4.795-2.15-4.795-4.794s2.151-4.795 4.795-4.795 4.795 2.151 4.795 4.795-2.151 4.794-4.795 4.794m0-7.408a2.617 2.617 0 0 0-2.614 2.613c0 1.441 1.173 2.613 2.614 2.613s2.614-1.172 2.614-2.613a2.617 2.617 0 0 0-2.614-2.613M455.444 55.446c-4.838 0-8.774-3.936-8.774-8.773s3.938-8.774 8.774-8.774 8.773 3.937 8.773 8.774-3.935 8.773-8.773 8.773m0-15.367c-3.636 0-6.594 2.958-6.594 6.593s2.958 6.593 6.594 6.593c3.635 0 6.593-2.958 6.593-6.593s-2.958-6.593-6.593-6.593M331.809 144.915c-4.838 0-8.773-3.937-8.773-8.774s3.937-8.773 8.773-8.773 8.774 3.936 8.774 8.773-3.937 8.774-8.774 8.774m0-15.368a6.6 6.6 0 0 0-6.593 6.593 6.601 6.601 0 0 0 6.593 6.593 6.601 6.601 0 0 0 6.594-6.593c-.002-3.636-2.96-6.593-6.594-6.593M477.084 69.907c-2.644 0-4.795-2.151-4.795-4.795s2.151-4.795 4.795-4.795c2.645 0 4.794 2.151 4.794 4.795s-2.15 4.795-4.794 4.795m0-7.408a2.617 2.617 0 0 0-2.614 2.613c0 1.441 1.173 2.613 2.614 2.613s2.613-1.172 2.613-2.613a2.616 2.616 0 0 0-2.613-2.613M42.932 207.333H29.444a5.666 5.666 0 0 1-5.66-5.659 5.666 5.666 0 0 1 5.66-5.66h14.339a3.911 3.911 0 0 0 3.907-3.906 3.912 3.912 0 0 0-3.907-3.906H17.282a5.493 5.493 0 0 1-5.487-5.487 5.493 5.493 0 0 1 5.487-5.487h32.595a3.885 3.885 0 0 0 3.881-3.881 3.886 3.886 0 0 0-3.881-3.882h-11.77c-3.947 0-7.159-3.211-7.159-7.157v-.438a1.091 1.091 0 0 1 2.181 0v.438a4.983 4.983 0 0 0 4.978 4.978h11.77c3.343 0 6.062 2.72 6.062 6.063s-2.719 6.063-6.062 6.063H17.282c-1.823 0-3.306 1.483-3.306 3.307s1.483 3.307 3.306 3.307h26.501a6.094 6.094 0 0 1 6.088 6.088 6.095 6.095 0 0 1-6.088 6.088H29.444c-1.919 0-3.479 1.561-3.479 3.479s1.56 3.479 3.479 3.479h13.488c.602 0 1.09.487 1.09 1.091 0 .599-.488 1.082-1.09 1.082M89.72 186.937H69.835c-3.06 0-5.55-2.49-5.55-5.55a5.557 5.557 0 0 1 5.55-5.551h16.339c1.031 0 1.87-.839 1.87-1.87 0-1.03-.839-1.87-1.87-1.87h-9.193a4.696 4.696 0 0 1-4.691-4.69V150.39a1.09 1.09 0 1 1 2.181 0v17.015a2.514 2.514 0 0 0 2.51 2.512h9.193c2.234 0 4.051 1.816 4.051 4.051s-1.817 4.052-4.051 4.052H69.835a3.372 3.372 0 0 0-3.369 3.369 3.372 3.372 0 0 0 3.369 3.368H89.72a1.09 1.09 0 0 1 0 2.18M167.182 273.715c-30.284 0-54.921-24.638-54.921-54.922s24.637-54.921 54.921-54.921c11.301 0 22.155 3.404 31.389 9.847a1.093 1.093 0 0 1-1.248 1.792c-8.866-6.187-19.289-9.456-30.141-9.456-29.081 0-52.74 23.659-52.74 52.74 0 29.082 23.659 52.741 52.74 52.741 17.913 0 34.45-8.977 44.235-24.01a1.092 1.092 0 0 1 1.828 1.191c-10.189 15.653-27.409 24.998-46.063 24.998"/><path clip-path="url(#bF)" fill="#222" d="M167.182 265.204c-25.59 0-46.409-20.819-46.409-46.41 0-25.59 20.819-46.409 46.409-46.409 9.972 0 19.474 3.115 27.481 9.007a1.09 1.09 0 1 1-1.292 1.755c-7.63-5.613-16.686-8.583-26.189-8.583-24.388 0-44.228 19.843-44.228 44.229 0 24.388 19.84 44.229 44.228 44.229 15.508 0 29.614-7.901 37.731-21.14a1.09 1.09 0 0 1 1.86 1.14c-8.518 13.89-23.318 22.182-39.591 22.182M167.182 282.944c-16.638 0-32.41-6.343-44.411-17.857a1.09 1.09 0 0 1 1.51-1.574c11.593 11.124 26.828 17.251 42.901 17.251 8.327 0 16.408-1.623 24.016-4.824a1.09 1.09 0 1 1 .846 2.011c-7.878 3.311-16.243 4.993-24.862 4.993"/><path clip-path="url(#bF)" fill="#F9D564" d="M162.21 218.793a4.973 4.973 0 1 0 9.946 0 4.973 4.973 0 0 0-9.946 0"/><path clip-path="url(#bF)" fill="#222" d="M167.182 224.856c-3.343 0-6.062-2.72-6.062-6.063s2.719-6.063 6.062-6.063c3.343 0 6.062 2.721 6.062 6.063s-2.719 6.063-6.062 6.063m0-9.943c-2.14 0-3.881 1.74-3.881 3.881s1.741 3.882 3.881 3.882c2.14 0 3.881-1.741 3.881-3.882s-1.741-3.881-3.881-3.881M248.879 101.684c-.125 0-.253-.021-.378-.067-8.825-3.263-14.754-11.778-14.754-21.19V62.832a1.09 1.09 0 0 1 2.181 0v17.594c0 8.504 5.357 16.197 13.329 19.144a1.09 1.09 0 0 1-.378 2.114M274.759 99.459a1.09 1.09 0 0 1-.591-2.008 20.157 20.157 0 0 0 9.292-17.025V59.712a1.09 1.09 0 1 1 2.181 0v20.714a22.331 22.331 0 0 1-10.293 18.86 1.087 1.087 0 0 1-.589.173"/><path clip-path="url(#bF)" fill="#222" d="M225.188 79.031c-.027 0-.054-.002-.081-.004a1.09 1.09 0 0 1-1.008-1.167c.732-10 8.314-15.304 17.093-21.445 2.287-1.6 4.652-3.254 7.016-5.073 9.696-7.458 14.934-25.57 14.986-25.752a1.09 1.09 0 1 1 2.097.597c-.219.771-5.492 18.991-15.753 26.884-2.403 1.85-4.789 3.519-7.096 5.133-8.666 6.062-15.511 10.851-16.168 19.816a1.09 1.09 0 0 1-1.086 1.011"/><path clip-path="url(#bF)" fill="#222" d="M296.103 63.386c-.066 0-.132-.006-.199-.018-27.201-5-38.008-21.357-38.455-22.052a1.09 1.09 0 0 1 1.833-1.182c.114.176 10.809 16.271 37.017 21.088a1.09 1.09 0 0 1-.196 2.164M324.126 85.562c-.293 0-.584-.117-.799-.348-7.924-8.516-10.701-18.612-13.152-27.52-1.624-5.901-3.158-11.477-5.972-15.811-7.606-11.717-15.366-12.465-15.444-12.471a1.093 1.093 0 0 1-1.004-1.168 1.084 1.084 0 0 1 1.158-1.008c.358.024 8.865.742 17.12 13.458 2.997 4.618 4.575 10.352 6.245 16.421 2.385 8.666 5.088 18.487 12.646 26.612a1.09 1.09 0 0 1-.798 1.835M225.188 116.462a1.07 1.07 0 0 1-.283-.038c-24.68-6.61-36.401-23.986-36.889-24.723a1.093 1.093 0 0 1 .308-1.511 1.092 1.092 0 0 1 1.512.308c.114.173 11.786 17.432 35.634 23.819a1.09 1.09 0 0 1-.282 2.145M290.69 119.094a1.09 1.09 0 0 1-.214-2.16c.207-.042 20.815-4.295 29.963-14.429a1.091 1.091 0 0 1 1.619 1.461c-9.635 10.672-30.278 14.93-31.152 15.105a.992.992 0 0 1-.216.023M261.345 131.258c-8.04 0-12.816-6.82-13.029-7.13a1.093 1.093 0 0 1-.056-1.146c.763-1.38 2.658-5.739 1.414-7.592a1.013 1.013 0 0 1-.034-.055c-3.445-5.852-2.971-8.073-2.186-11.755.112-.523.231-1.082.348-1.695.547-2.863.289-3.401-.138-4.291-.264-.55-.592-1.234-.833-2.399-.299-1.448-.104-2.564.58-3.319.98-1.082 2.553-.938 3.112-.879 2.677.147 4.869 3.791 6.146 6.535a4.846 4.846 0 0 1 1.153-2.051c1.34-1.421 3.505-1.853 5.386-1.073l3.245 1.344c1.199-.54 2.337-.632 3.391-.273.992.337 1.669 1 2.087 1.549 1.344-.369 2.473-.241 3.364.381.848.592 1.261 1.491 1.461 2.271.388.029.794.165 1.196.414 1.358.838 1.958 2.588 1.428 4.16-.586 1.738-.961 3.23-1.055 4.206-.142 1.463-2.325 5.903-6.488 13.202a5.02 5.02 0 0 1-3.033 2.36l-.658.185a3.68 3.68 0 0 0-2.422 2.137l-1.735 4.144a1.09 1.09 0 0 1-.873.662 14.82 14.82 0 0 1-1.771.108m-10.842-7.862c1.264 1.544 5.532 6.079 11.726 5.647l1.483-3.543a5.855 5.855 0 0 1 3.848-3.397l.658-.183a2.852 2.852 0 0 0 1.724-1.341c4.461-7.818 6.134-11.529 6.212-12.332.141-1.454.708-3.354 1.159-4.692.21-.621-.004-1.297-.507-1.608a1.54 1.54 0 0 0-.116-.063 1.12 1.12 0 0 1-1.187.316 1.081 1.081 0 0 1-.743-1.047c.008-.37-.106-1.538-.717-1.961-.544-.376-1.481-.123-2.172.155a1.09 1.09 0 0 1-1.404-.569s-.45-.946-1.341-1.241c-.591-.196-1.302-.07-2.114.37a1.092 1.092 0 0 1-.937.048l-3.702-1.534c-1.05-.434-2.241-.211-2.965.557a2.664 2.664 0 0 0-.638 1.14c-.745 2.683-2.19 5.873-2.251 6.008a1.091 1.091 0 0 1-1.985-.903c.008-.019.517-1.142 1.074-2.579-1.158-3.102-3.499-7.395-5.217-7.47a1.509 1.509 0 0 1-.067-.005c-.906-.099-1.202.066-1.297.172-.067.074-.27.395-.06 1.414.186.903.429 1.408.663 1.896.618 1.287.963 2.248.315 5.645a83.106 83.106 0 0 1-.358 1.741c-.742 3.478-1.081 5.067 1.917 10.168 1.839 2.79-.132 7.434-1.001 9.191M170.838 25.306a1.091 1.091 0 0 1-1.036-1.432c2.441-7.422 9.591-12.41 17.793-12.41 6.214 0 11.998 2.925 15.472 7.823a1.092 1.092 0 0 1-1.78 1.262c-3.065-4.323-8.183-6.904-13.692-6.904-7.257 0-13.575 4.385-15.721 10.911a1.09 1.09 0 0 1-1.036.75M99.51 63.374c-.296 0-.591-.12-.806-.356-2.96-3.245-4.59-7.34-4.59-11.531 0-10.094 9.229-18.307 20.573-18.307 2.687 0 5.286.451 7.743 1.342 2.976-7.215 11.143-12.162 20.309-12.162 5.776 0 11.195 1.9 15.261 5.349.459.39.516 1.078.127 1.538a1.093 1.093 0 0 1-1.538.126c-3.672-3.115-8.591-4.831-13.85-4.831-8.687 0-16.352 4.829-18.638 11.743a1.09 1.09 0 0 1-1.459.661c-2.494-1.052-5.171-1.585-7.955-1.585-10.142 0-18.392 7.234-18.392 16.126 0 3.699 1.39 7.179 4.02 10.063a1.09 1.09 0 0 1-.805 1.824M128.24 18.087a1.091 1.091 0 0 1-.771-1.862c.333-.332 8.322-8.092 23.334-3.188a1.09 1.09 0 1 1-.677 2.072c-13.751-4.49-21.043 2.587-21.115 2.659a1.086 1.086 0 0 1-.771.319M182.325 73.895h-4.484a1.09 1.09 0 0 1-1.091-1.09v-30.12c0-.603.489-1.091 1.091-1.091h4.484c.602 0 1.09.488 1.09 1.091v30.12a1.09 1.09 0 0 1-1.09 1.09m-3.394-2.181h2.303V43.775h-2.303v27.939zM171.505 73.895h-4.484a1.09 1.09 0 0 1-1.091-1.09V48.826c0-.603.489-1.092 1.091-1.092h4.484c.602 0 1.09.489 1.09 1.092v23.979a1.09 1.09 0 0 1-1.09 1.09m-3.394-2.181h2.303V49.916h-2.303v21.798zM160.685 73.895h-4.484a1.09 1.09 0 0 1-1.09-1.09V55.746c0-.603.488-1.09 1.09-1.09h4.484a1.09 1.09 0 0 1 1.091 1.09v17.059a1.09 1.09 0 0 1-1.091 1.09m-3.393-2.181h2.303V56.837h-2.303v14.877zM149.865 73.895h-4.484a1.09 1.09 0 0 1-1.09-1.09V62.083a1.09 1.09 0 0 1 1.09-1.091h4.484a1.09 1.09 0 0 1 1.091 1.091v10.722a1.09 1.09 0 0 1-1.091 1.09m-3.393-2.181h2.303v-8.541h-2.303v8.541zM185.417 140.587h-36.115a1.09 1.09 0 0 1-1.09-1.09V92.048a1.09 1.09 0 0 1 1.09-1.091h20.324a1.09 1.09 0 1 1 0 2.181h-19.233v45.269h33.934v-23.726a1.09 1.09 0 1 1 2.18 0v24.816a1.09 1.09 0 0 1-1.09 1.09"/><path clip-path="url(#bF)" fill="#222" d="M171.38 99.696h-16.766a1.09 1.09 0 1 1 0-2.181h16.766a1.09 1.09 0 0 1 0 2.181M178.204 106.247h-23.589a1.09 1.09 0 1 1 0-2.182h23.589a1.09 1.09 0 0 1 0 2.182M178.204 112.797h-23.589a1.09 1.09 0 1 1 0-2.181h23.589a1.09 1.09 0 1 1 0 2.181M178.204 119.347h-23.589a1.09 1.09 0 1 1 0-2.181h23.589a1.09 1.09 0 1 1 0 2.181M178.204 125.897h-23.589a1.09 1.09 0 1 1 0-2.181h23.589a1.09 1.09 0 0 1 0 2.181M178.204 132.448h-23.589a1.091 1.091 0 0 1 0-2.182h23.589a1.09 1.09 0 0 1 0 2.182M62.007 129.414c-.155 0-.312-.033-.461-.104-7.929-3.707-13.052-11.847-13.052-20.737 0-11.203 7.787-20.534 18.403-22.445-1.539-2.373-2.371-5.249-2.371-8.284 0-7.589 5.289-13.763 11.789-13.763a1.09 1.09 0 1 1 0 2.181c-5.298 0-9.609 5.196-9.609 11.582 0 3.201 1.066 6.182 3 8.396a1.09 1.09 0 0 1-.719 1.803c-10.44.98-18.312 9.807-18.312 20.531 0 8.048 4.629 15.411 11.794 18.762a1.09 1.09 0 0 1-.462 2.078"/><path clip-path="url(#bF)" fill="#222" d="M65.961 120.117a1.09 1.09 0 0 1-.871-.433c-2.884-3.813-4.068-7.651-3.517-11.41.83-5.659 5.307-8.997 5.497-9.136a1.09 1.09 0 0 1 1.291 1.757c-.056.041-3.949 2.979-4.633 7.718-.455 3.15.589 6.432 3.102 9.755a1.09 1.09 0 0 1-.212 1.526 1.075 1.075 0 0 1-.657.223M108.752 171.341c-9.228 0-16.735-7.388-16.735-16.468 0-1.315.157-2.613.469-3.879a18.199 18.199 0 0 1-4.192.484c-8.724 0-15.821-6.135-15.821-13.677 0-2.36.705-4.686 2.04-6.727a1.09 1.09 0 1 1 1.825 1.193c-1.102 1.687-1.684 3.6-1.684 5.534 0 6.339 6.119 11.497 13.64 11.497 1.901 0 3.744-.327 5.477-.968a1.091 1.091 0 0 1 1.394 1.42 14.003 14.003 0 0 0-.968 5.123c0 7.877 6.53 14.286 14.555 14.286.908 0 1.817-.083 2.703-.246a1.092 1.092 0 0 1 .395 2.146 17.156 17.156 0 0 1-3.098.282M252.732 237.49c-7.72 0-16.245-.45-25.484-1.578a1.09 1.09 0 0 1-.958-1.083V219.33c0-.505.347-.943.838-1.062.387-.092 38.261-9.057 60.431-10.291-.353-3.098-1.213-12.168-1.078-26.138.172-17.709 2.53-30.286 2.554-30.411a1.09 1.09 0 1 1 2.142.408c-.023.122-2.345 12.521-2.515 30.023-.166 17.238 1.189 26.896 1.203 26.991.043.306-.044.614-.24.852a1.1 1.1 0 0 1-.792.395c-19.992.88-54.551 8.747-60.362 10.097v13.667c41.872 4.93 68.528-4.187 71.368-5.219 7.142-8.688 11.798-44.531 12.133-57.445.029-1.148.09-2.412.153-3.75.563-11.829 1.411-29.705-14.758-35.054-19.206-6.353-22.655-18.993-22.792-19.529a1.09 1.09 0 1 1 2.112-.544c.051.19 3.415 12.065 21.365 18.002 17.741 5.868 16.809 25.499 16.25 37.229-.062 1.324-.122 2.576-.149 3.703-.286 11.003-4.692 49.669-12.842 59.025a1.106 1.106 0 0 1-.427.301c-.221.087-18.08 6.91-48.152 6.91"/><path clip-path="url(#bF)" fill="#222" d="M213.728 223.231a3.13 3.13 0 0 1-.495-.036c-2.584-.067-4.844-1.158-6.716-3.241-10.098-11.232-6.664-49.697-5.371-64.179 1.516-16.979 5.458-20.056 20.342-24.885 14.374-4.663 28.232-16.803 28.37-16.925a1.091 1.091 0 0 1 1.444 1.635c-.578.51-14.328 12.56-29.141 17.365-14.235 4.618-17.424 7.108-18.843 23.004-1.148 12.861-4.643 51.999 4.821 62.525 1.494 1.663 3.203 2.486 5.224 2.521.077.001.154.01.229.028.03-.001 7.542.82 20.567-24.681 13.651-26.726 27.657-66.267 27.796-66.662a1.09 1.09 0 1 1 2.057.726c-.14.398-14.195 40.076-27.911 66.928-12.183 23.855-20.057 25.877-22.373 25.877M300.927 202.29a1.09 1.09 0 0 1-1.06-1.347c4.734-19.513 3.636-51.581 3.625-51.901a1.09 1.09 0 0 1 1.05-1.13 1.098 1.098 0 0 1 1.129 1.051c.013.325 1.119 32.692-3.685 52.495a1.091 1.091 0 0 1-1.059.832M247.861 237.441a1.09 1.09 0 0 1-1.09-1.09v-21.358a1.09 1.09 0 1 1 2.18 0v21.358a1.09 1.09 0 0 1-1.09 1.09M231.668 223.198a1.09 1.09 0 0 1-.133-2.174l10.04-1.241a1.089 1.089 0 1 1 .268 2.163l-10.04 1.243a1.02 1.02 0 0 1-.135.009M241.709 227.621h-10.04a1.09 1.09 0 1 1 0-2.182h10.04a1.09 1.09 0 0 1 0 2.182M241.711 233.14c-.041 0-.082-.002-.124-.007L231.547 232a1.09 1.09 0 0 1 .245-2.167l10.04 1.133a1.09 1.09 0 1 1-.121 2.174"/><path clip-path="url(#bF)" fill="#222" d="M202.235 207.787h-.013a1.091 1.091 0 0 1-1.078-1.104c.152-13.244 45.244-80.905 47.164-83.778a1.09 1.09 0 1 1 1.813 1.212c-16.135 24.157-46.68 72.509-46.796 82.592a1.09 1.09 0 0 1-1.09 1.078"/><path clip-path="url(#bF)" fill="#222" d="M253.919 150.635c-9.241 0-15.988-9.688-16.289-10.128a1.089 1.089 0 0 1 .283-1.515 1.09 1.09 0 0 1 1.515.281c.072.105 7.279 10.419 16.174 9.053a1.09 1.09 0 0 1 .334 2.154c-.685.106-1.357.155-2.017.155"/><path clip-path="url(#bF)" fill="#222" d="M247.502 143.58a1.09 1.09 0 0 1-.961-1.605l5.757-10.79a1.091 1.091 0 1 1 1.925 1.028l-5.758 10.79a1.091 1.091 0 0 1-.963.577M252.968 145.808a1.09 1.09 0 0 1-1-1.525l4.776-11.021a1.089 1.089 0 0 1 1.434-.565c.553.238.807.881.567 1.434l-4.776 11.02c-.178.411-.58.657-1.001.657M243.244 139.709a1.09 1.09 0 0 1-.926-1.664l5.97-9.65a1.09 1.09 0 1 1 1.855 1.147l-5.97 9.649a1.089 1.089 0 0 1-.929.518M243.501 132.787c-.372 0-.734-.19-.938-.533-1.985-3.337-3.382-6.312-4.154-8.84a1.09 1.09 0 1 1 2.086-.637c.721 2.363 2.047 5.176 3.942 8.362a1.09 1.09 0 0 1-.936 1.648M263.134 157.84c-.29 0-.577-.115-.789-.337-.03-.031-3.008-3.154-6.824-7.657a1.09 1.09 0 0 1 1.664-1.41 203.594 203.594 0 0 0 6.08 6.86c8.554-6.81 19.65-31.416 19.764-31.671.247-.55.892-.795 1.442-.549.549.247.795.892.549 1.44-.491 1.095-12.126 26.892-21.272 33.133-.186.13-.4.191-.614.191M225.726 161.383l-.074-.002a1.091 1.091 0 0 1-1.015-1.161c.529-7.884.628-15.441.629-15.517a1.09 1.09 0 0 1 1.09-1.077h.014a1.09 1.09 0 0 1 1.077 1.104c-.001.076-.1 7.69-.634 15.636a1.09 1.09 0 0 1-1.087 1.017M217.291 212.085a1.089 1.089 0 0 1-.854-1.767c3.272-4.125 21.878-37.047 22.065-37.379a1.09 1.09 0 0 1 1.899 1.071c-.769 1.362-18.878 33.404-22.255 37.662a1.084 1.084 0 0 1-.855.413M216.211 238.565c-2.482 0-4.173-.708-6.286-1.716-.657-.313-1.337-.637-2.121-.967-1.819-.767-3.03-1.962-3.599-3.555-.765-2.142-.112-4.406.338-5.554-1.147-1.831-.56-6.165.235-9.806a1.09 1.09 0 1 1 2.13.465c-.788 3.616-1.059 7.348-.597 8.111a1.09 1.09 0 0 1 .496 1.494c-.011.021-1.286 2.509-.545 4.563.361 1.002 1.142 1.744 2.388 2.27a49.67 49.67 0 0 1 2.213 1.01c3.691 1.759 5.543 2.643 16.157-1.082.569-.197 1.191.1 1.39.668.199.567-.1 1.19-.668 1.39-5.571 1.956-8.972 2.709-11.531 2.709M227.381 220.419c-.334 0-.663-.151-.877-.44-.551-.741-2.319-2.665-3.857-2.67a1.092 1.092 0 0 1 .004-2.182h.003c2.9.009 5.335 3.19 5.603 3.553a1.091 1.091 0 0 1-.876 1.739M277.191 194.062c-.645 0-1.346-.035-2.109-.111-3.4-.346-6.173-1.63-8.855-2.87-2.763-1.277-5.372-2.485-8.385-2.485-2.208 0-3.523.619-5.187 1.404-2.76 1.303-6.194 2.918-14.922 2.645a1.09 1.09 0 1 1 .07-2.181c8.201.262 11.374-1.234 13.922-2.437 1.759-.829 3.421-1.613 6.117-1.613 3.493 0 6.446 1.367 9.301 2.688 2.519 1.165 5.123 2.371 8.159 2.68 5.721.58 7.003-1.545 7.015-1.566a1.073 1.073 0 0 1 1.448-.49c.543.261.762.929.5 1.472-.156.319-1.561 2.864-7.074 2.864"/><g clip-path="url(#bF)"><g opacity=".5"><defs><path id="bG" d="M94.326 79.988h43.425v43.426H94.326z"/></defs><clipPath id="bH"><use xlink:href="#bG" overflow="visible"/></clipPath><path clip-path="url(#bH)" fill="#4086C6" d="M94.326 101.7c0 11.991 9.721 21.713 21.713 21.713 11.991 0 21.712-9.722 21.712-21.713 0-11.992-9.721-21.714-21.712-21.714-11.992.001-21.713 9.722-21.713 21.714"/></g><defs><path id="bI" d="M0 0h600v296.186H0z"/></defs><defs><path id="bK" d="M0 0h600v296.186H0z"/></defs><defs><path id="bM" d="M0 0h600v296.186H0z"/></defs><defs><path id="bO" d="M0 0h600v296.186H0z"/></defs><defs><path id="bQ" d="M0 0h600v296.186H0z"/></defs><defs><path id="bS" d="M0 0h600v296.186H0z"/></defs><defs><path id="bU" d="M0 0h600v296.186H0z"/></defs><defs><path id="bW" d="M0 0h600v296.186H0z"/></defs><defs><path id="bY" d="M0 0h600v296.186H0z"/></defs><defs><path id="ca" d="M0 0h600v296.186H0z"/></defs><defs><path id="cc" d="M0 0h600v296.186H0z"/></defs><defs><path id="ce" d="M0 0h600v296.186H0z"/></defs><defs><path id="cg" d="M0 0h600v296.186H0z"/></defs><defs><path id="ci" d="M0 0h600v296.186H0z"/></defs><defs><path id="ck" d="M0 0h600v296.186H0z"/></defs><defs><path id="cm" d="M0 0h600v296.186H0z"/></defs><defs><path id="co" d="M0 0h600v296.186H0z"/></defs><defs><path id="cq" d="M0 0h600v296.186H0z"/></defs><defs><path id="cs" d="M0 0h600v296.186H0z"/></defs><defs><path id="cu" d="M0 0h600v296.186H0z"/></defs><defs><path id="cw" d="M0 0h600v296.186H0z"/></defs><defs><path id="cy" d="M0 0h600v296.186H0z"/></defs><defs><path id="cA" d="M0 0h600v296.186H0z"/></defs><defs><path id="cC" d="M0 0h600v296.186H0z"/></defs><defs><path id="cE" d="M0 0h600v296.186H0z"/></defs><defs><path id="cG" d="M0 0h600v296.186H0z"/></defs><clipPath id="bJ"><use xlink:href="#bI" overflow="visible"/></clipPath><clipPath id="bL" clip-path="url(#bJ)"><use xlink:href="#bK" overflow="visible"/></clipPath><clipPath id="bN" clip-path="url(#bL)"><use xlink:href="#bM" overflow="visible"/></clipPath><clipPath id="bP" clip-path="url(#bN)"><use xlink:href="#bO" overflow="visible"/></clipPath><clipPath id="bR" clip-path="url(#bP)"><use xlink:href="#bQ" overflow="visible"/></clipPath><clipPath id="bT" clip-path="url(#bR)"><use xlink:href="#bS" overflow="visible"/></clipPath><clipPath id="bV" clip-path="url(#bT)"><use xlink:href="#bU" overflow="visible"/></clipPath><clipPath id="bX" clip-path="url(#bV)"><use xlink:href="#bW" overflow="visible"/></clipPath><clipPath id="bZ" clip-path="url(#bX)"><use xlink:href="#bY" overflow="visible"/></clipPath><clipPath id="cb" clip-path="url(#bZ)"><use xlink:href="#ca" overflow="visible"/></clipPath><clipPath id="cd" clip-path="url(#cb)"><use xlink:href="#cc" overflow="visible"/></clipPath><clipPath id="cf" clip-path="url(#cd)"><use xlink:href="#ce" overflow="visible"/></clipPath><clipPath id="ch" clip-path="url(#cf)"><use xlink:href="#cg" overflow="visible"/></clipPath><clipPath id="cj" clip-path="url(#ch)"><use xlink:href="#ci" overflow="visible"/></clipPath><clipPath id="cl" clip-path="url(#cj)"><use xlink:href="#ck" overflow="visible"/></clipPath><clipPath id="cn" clip-path="url(#cl)"><use xlink:href="#cm" overflow="visible"/></clipPath><clipPath id="cp" clip-path="url(#cn)"><use xlink:href="#co" overflow="visible"/></clipPath><clipPath id="cr" clip-path="url(#cp)"><use xlink:href="#cq" overflow="visible"/></clipPath><clipPath id="ct" clip-path="url(#cr)"><use xlink:href="#cs" overflow="visible"/></clipPath><clipPath id="cv" clip-path="url(#ct)"><use xlink:href="#cu" overflow="visible"/></clipPath><clipPath id="cx" clip-path="url(#cv)"><use xlink:href="#cw" overflow="visible"/></clipPath><clipPath id="cz" clip-path="url(#cx)"><use xlink:href="#cy" overflow="visible"/></clipPath><clipPath id="cB" clip-path="url(#cz)"><use xlink:href="#cA" overflow="visible"/></clipPath><clipPath id="cD" clip-path="url(#cB)"><use xlink:href="#cC" overflow="visible"/></clipPath><clipPath id="cF" clip-path="url(#cD)"><use xlink:href="#cE" overflow="visible"/></clipPath><clipPath id="cH" clip-path="url(#cF)"><use xlink:href="#cG" overflow="visible"/></clipPath><path clip-path="url(#cH)" fill="#EBF0F6" d="M100.686 101.7c0 8.479 6.874 15.353 15.353 15.353s15.352-6.874 15.352-15.353-6.873-15.354-15.352-15.354-15.353 6.875-15.353 15.354"/><path clip-path="url(#cH)" fill="#F9D564" d="M112.311 101.7a3.728 3.728 0 1 0 7.456 0 3.728 3.728 0 0 0-7.456 0"/><path clip-path="url(#cH)" fill="#222" d="M116.039 111.783c-5.56 0-10.083-4.523-10.083-10.082 0-1.304.246-2.572.729-3.771a1.09 1.09 0 1 1 2.023.815 7.859 7.859 0 0 0-.571 2.956c0 4.355 3.545 7.9 7.902 7.9s7.902-3.545 7.902-7.9c0-4.357-3.545-7.902-7.902-7.902-.776 0-1.542.112-2.277.332a1.09 1.09 0 1 1-.627-2.087 10.089 10.089 0 0 1 12.986 9.658c0 5.558-4.522 10.081-10.082 10.081M103.82 133.634c-.134 0-.27-.025-.402-.077-10.913-4.328-18.992-14.175-21.084-25.701a1.092 1.092 0 0 1 2.146-.389c1.958 10.79 9.523 20.01 19.742 24.063a1.09 1.09 0 0 1-.402 2.104M118.399 67.294a1.09 1.09 0 0 1-.818-.369l-5.029-5.702a1.089 1.089 0 0 1 .097-1.539l10.696-9.434-2.326-2.637a1.09 1.09 0 0 1 .615-1.793l15.53-2.948c.371-.071.752.056 1.007.335.256.278.348.67.245 1.033l-4.407 15.56a1.093 1.093 0 0 1-.808.767 1.093 1.093 0 0 1-1.059-.343l-2.326-2.636-10.696 9.434a1.088 1.088 0 0 1-.721.272m-3.49-6.696l3.586 4.067 10.697-9.435a1.091 1.091 0 0 1 1.539.098l1.724 1.955 3.382-11.939-11.916 2.263 1.781 2.019a1.092 1.092 0 0 1-.097 1.54l-10.696 9.432zM140.748 155.828c-.094 0-.189-.013-.284-.038-7.615-2.049-13.531-8.154-15.072-15.558a1.09 1.09 0 1 1 2.135-.444c1.375 6.604 6.675 12.059 13.504 13.896a1.09 1.09 0 0 1-.283 2.144M378.398 29.504c-.479 0-.916-.316-1.052-.798-2.463-8.848-10.604-15.026-19.799-15.026-5.691 0-10.989 2.28-14.913 6.42a1.091 1.091 0 0 1-1.811-.363c-1.616-4.25-5.749-7.104-10.285-7.104-3.33 0-6.446 1.483-8.549 4.07a1.089 1.089 0 0 1-1.534.157 1.089 1.089 0 0 1-.158-1.533 13.148 13.148 0 0 1 10.241-4.875c4.889 0 9.387 2.766 11.651 7.026 4.198-3.868 9.596-5.979 15.356-5.979 10.17 0 19.176 6.835 21.9 16.622a1.091 1.091 0 0 1-1.047 1.383M375.797 10.452a1.09 1.09 0 0 1-.877-.441c-3.635-4.903-9.444-7.83-15.538-7.83-3.219 0-6.405.807-9.214 2.333a1.09 1.09 0 0 1-1.041-1.917A21.546 21.546 0 0 1 359.382 0c6.782 0 13.245 3.257 17.29 8.712a1.089 1.089 0 0 1-.875 1.74M429.058 62.936a1.09 1.09 0 0 1-1.072-1.291c.154-.829.233-1.68.233-2.532 0-7.514-6.113-13.628-13.628-13.628-.928 0-1.855.095-2.757.279a1.092 1.092 0 0 1-1.288-.85c-1.078-5.297-5.791-9.143-11.205-9.143a11.424 11.424 0 0 0-8.7 4.015 1.09 1.09 0 0 1-1.657-1.417 13.604 13.604 0 0 1 10.357-4.778c6.091 0 11.438 4.089 13.091 9.861a15.747 15.747 0 0 1 2.159-.147c8.717 0 15.81 7.092 15.81 15.809 0 .986-.092 1.974-.271 2.934-.1.521-.558.888-1.072.888M446.542 137.231a1.091 1.091 0 0 1-.385-2.11c4.235-1.6 7.083-5.718 7.083-10.246 0-3.217-1.413-6.26-3.876-8.35a1.087 1.087 0 0 1-.289-1.278 18.004 18.004 0 0 0 1.596-7.443c0-7.501-4.714-14.327-11.729-16.985a1.088 1.088 0 0 1-.585-1.515 11.455 11.455 0 0 0 1.257-5.245c0-5.732-4.104-10.544-9.756-11.438a1.09 1.09 0 1 1 .341-2.154c6.719 1.062 11.596 6.779 11.596 13.592 0 1.793-.338 3.525-1.005 5.164 7.262 3.244 12.063 10.568 12.063 18.581 0 2.629-.495 5.183-1.476 7.604a13.098 13.098 0 0 1 4.044 9.468c0 5.431-3.413 10.369-8.493 12.286a1.136 1.136 0 0 1-.386.069M419.909 83.94a1.09 1.09 0 0 1-1.079-1.258 23.2 23.2 0 0 0 .272-3.561c0-12.703-10.334-23.038-23.036-23.038-.846 0-1.698.047-2.534.138a1.092 1.092 0 0 1-1.203-.965 1.092 1.092 0 0 1 .967-1.203c.915-.1 1.847-.151 2.771-.151 13.904 0 25.218 11.313 25.218 25.22a25.53 25.53 0 0 1-.299 3.896 1.092 1.092 0 0 1-1.077.922M416.338 139.953c-9.256 0-16.784-7.529-16.784-16.784s7.528-16.784 16.784-16.784c9.255 0 16.783 7.529 16.783 16.784s-7.528 16.784-16.783 16.784m0-31.387c-8.053 0-14.604 6.552-14.604 14.604 0 8.053 6.551 14.603 14.604 14.603 8.052 0 14.604-6.55 14.604-14.603-.002-8.053-6.552-14.604-14.604-14.604"/><path clip-path="url(#cH)" fill="#222" d="M412.001 139.342a1.09 1.09 0 0 1-1.048-1.392l4.24-14.747-5.082-14.482a1.091 1.091 0 0 1 2.058-.722l5.197 14.81c.075.213.082.445.019.662l-4.337 15.082a1.089 1.089 0 0 1-1.047.789M397.645 176.108c-4.971 0-9.679-1.831-12.595-4.896a1.091 1.091 0 0 1 1.58-1.503c2.513 2.643 6.63 4.22 11.015 4.22 6.61 0 12.307-3.588 13.246-8.344.066-.333.283-.615.587-.767.306-.149.66-.15.967 0a10.673 10.673 0 0 0 4.751 1.115c4.933 0 9.229-3.333 10.448-8.104a1.089 1.089 0 0 1 1.326-.787c.583.148.938.743.787 1.326a12.956 12.956 0 0 1-12.563 9.747 12.78 12.78 0 0 1-4.514-.819c-1.785 5.177-7.86 8.812-15.035 8.812M394.014 164.441c-3.711 0-7.257-.978-9.981-2.755a1.09 1.09 0 0 1 1.192-1.827c2.375 1.55 5.497 2.401 8.791 2.401 6.957 0 12.617-3.774 12.617-8.414a1.09 1.09 0 1 1 2.182 0c-.002 5.842-6.641 10.595-14.801 10.595M343.548 174.29a1.09 1.09 0 0 1-.704-1.924l16.678-14.089-6.668.859a1.09 1.09 0 1 1-.279-2.163l10.337-1.333a1.09 1.09 0 0 1 .843 1.915l-19.504 16.478a1.088 1.088 0 0 1-.703.257"/><path clip-path="url(#cH)" fill="#222" d="M323.223 174.29a1.091 1.091 0 0 1-.858-1.762l12.208-15.618a1.09 1.09 0 0 1 1.827.168l7.484 14.408 18.462-15.595a1.095 1.095 0 0 1 1.313-.072c.402.271.579.779.429 1.242l-3.221 9.912a1.091 1.091 0 0 1-2.074-.674l2.038-6.273-16.581 14.009c-.253.213-.589.3-.915.234a1.083 1.083 0 0 1-.756-.565l-7.333-14.115-11.164 14.284a1.093 1.093 0 0 1-.859.417M334.178 201.774a22.81 22.81 0 0 1-17.145-7.773 1.089 1.089 0 0 1 .101-1.539 1.088 1.088 0 0 1 1.539.102 20.62 20.62 0 0 0 15.505 7.031c7.304 0 13.912-3.744 17.679-10.014a1.092 1.092 0 0 1 1.591-.313 13.66 13.66 0 0 0 8.274 2.759c6.524 0 12.207-4.631 13.514-11.012.121-.591.7-.969 1.287-.85.591.12.972.695.851 1.286-1.513 7.392-8.094 12.757-15.65 12.757-3.093 0-6.05-.869-8.621-2.524-4.212 6.252-11.358 10.09-18.925 10.09"/><path clip-path="url(#cH)" fill="#222" d="M333.768 193.214a13.172 13.172 0 0 1-11.495-6.754 1.09 1.09 0 1 1 1.903-1.063 10.99 10.99 0 0 0 9.592 5.638c3.512 0 6.838-1.7 8.897-4.55a1.09 1.09 0 0 1 1.766 1.279 13.2 13.2 0 0 1-10.663 5.45M445.58 196.002h-10.137a1.091 1.091 0 0 1-1.093-1.091v-49.127c0-.604.488-1.092 1.093-1.092h10.137a1.09 1.09 0 0 1 1.091 1.092v49.127a1.09 1.09 0 0 1-1.091 1.091m-9.047-2.181h7.957v-46.946h-7.957v46.946z"/><path clip-path="url(#cH)" fill="#53AD4D" d="M411.951 175.758h10.137v19.153h-10.137z"/><path clip-path="url(#cH)" fill="#222" d="M422.089 196.002h-10.138c-.604 0-1.09-.488-1.09-1.091v-19.153c0-.604.486-1.091 1.09-1.091h10.138c.604 0 1.09.486 1.09 1.091v19.153a1.09 1.09 0 0 1-1.09 1.091m-9.047-2.181h7.957v-16.973h-7.957v16.973zM398.597 196.002h-10.138a1.09 1.09 0 0 1-1.09-1.091v-11.989c0-.604.488-1.09 1.09-1.09h10.138c.604 0 1.091.486 1.091 1.09v11.989c0 .603-.489 1.091-1.091 1.091m-9.047-2.181h7.957v-9.809h-7.957v9.809z"/><path clip-path="url(#cH)" fill="#EBF0F6" d="M477.084 157.676h14.621v15.4h-14.621z"/><path clip-path="url(#cH)" fill="#222" d="M322.468 265.794a1.09 1.09 0 0 1-1.09-1.09v-42.571a1.09 1.09 0 1 1 2.181 0v42.571a1.09 1.09 0 0 1-1.091 1.09"/><g clip-path="url(#cH)"><g opacity=".5"><defs><path id="cI" d="M363.938 210.995h59.815v14.648h-59.815z"/></defs><clipPath id="cJ"><use xlink:href="#cI" overflow="visible"/></clipPath><path clip-path="url(#cJ)" fill="#4086C6" d="M410.151 225.644h-32.613c-7.512 0-13.603-6.09-13.603-13.603v-1.047h59.817v1.047c.002 7.513-6.089 13.603-13.601 13.603"/></g><defs><path id="cK" d="M0 0h600v296.186H0z"/></defs><defs><path id="cM" d="M0 0h600v296.186H0z"/></defs><defs><path id="cO" d="M0 0h600v296.186H0z"/></defs><defs><path id="cQ" d="M0 0h600v296.186H0z"/></defs><defs><path id="cS" d="M0 0h600v296.186H0z"/></defs><defs><path id="cU" d="M0 0h600v296.186H0z"/></defs><defs><path id="cW" d="M0 0h600v296.186H0z"/></defs><defs><path id="cY" d="M0 0h600v296.186H0z"/></defs><clipPath id="cL"><use xlink:href="#cK" overflow="visible"/></clipPath><clipPath id="cN" clip-path="url(#cL)"><use xlink:href="#cM" overflow="visible"/></clipPath><clipPath id="cP" clip-path="url(#cN)"><use xlink:href="#cO" overflow="visible"/></clipPath><clipPath id="cR" clip-path="url(#cP)"><use xlink:href="#cQ" overflow="visible"/></clipPath><clipPath id="cT" clip-path="url(#cR)"><use xlink:href="#cS" overflow="visible"/></clipPath><clipPath id="cV" clip-path="url(#cT)"><use xlink:href="#cU" overflow="visible"/></clipPath><clipPath id="cX" clip-path="url(#cV)"><use xlink:href="#cW" overflow="visible"/></clipPath><clipPath id="cZ" clip-path="url(#cX)"><use xlink:href="#cY" overflow="visible"/></clipPath><path clip-path="url(#cZ)" fill="#222" d="M417.066 226.735h-46.442c-4.289 0-7.778-3.489-7.778-7.777v-7.961c0-.604.488-1.092 1.093-1.092h59.814a1.09 1.09 0 0 1 1.091 1.092v7.961c0 4.287-3.49 7.777-7.778 7.777m-52.039-14.65v6.871a5.603 5.603 0 0 0 5.597 5.597h46.442a5.604 5.604 0 0 0 5.597-5.597v-6.871h-57.636z"/><path clip-path="url(#cZ)" fill="#EBF0F6" d="M352.101 241.115h12.43v12.429h-12.43z"/><path clip-path="url(#cZ)" fill="#222" d="M423.753 245.52h-44.749a1.09 1.09 0 1 1 0-2.182h44.749a1.09 1.09 0 1 1 0 2.182M423.753 250.588h-44.749a1.09 1.09 0 1 1 0-2.181h44.749a1.09 1.09 0 1 1 0 2.181"/><path clip-path="url(#cZ)" fill="#53AD4D" d="M352.101 261.098h12.43v12.428h-12.43z"/><path clip-path="url(#cZ)" fill="#222" d="M423.753 265.502h-44.749a1.091 1.091 0 1 1 0-2.183h44.749a1.09 1.09 0 1 1 0 2.183M423.753 270.571h-44.749a1.09 1.09 0 1 1 0-2.181h44.749a1.09 1.09 0 1 1 0 2.181"/><g clip-path="url(#cZ)"><g opacity=".5"><defs><path id="da" d="M352.101 281.081h12.43v12.428h-12.43z"/></defs><clipPath id="db"><use xlink:href="#da" overflow="visible"/></clipPath><path clip-path="url(#db)" fill="#4086C6" d="M352.101 281.08h12.43v12.429h-12.43z"/></g><defs><path id="dc" d="M0 0h600v296.186H0z"/></defs><defs><path id="de" d="M0 0h600v296.186H0z"/></defs><defs><path id="dg" d="M0 0h600v296.186H0z"/></defs><defs><path id="di" d="M0 0h600v296.186H0z"/></defs><defs><path id="dk" d="M0 0h600v296.186H0z"/></defs><defs><path id="dm" d="M0 0h600v296.186H0z"/></defs><defs><path id="do" d="M0 0h600v296.186H0z"/></defs><defs><path id="dq" d="M0 0h600v296.186H0z"/></defs><defs><path id="ds" d="M0 0h600v296.186H0z"/></defs><defs><path id="du" d="M0 0h600v296.186H0z"/></defs><defs><path id="dw" d="M0 0h600v296.186H0z"/></defs><defs><path id="dy" d="M0 0h600v296.186H0z"/></defs><defs><path id="dA" d="M0 0h600v296.186H0z"/></defs><defs><path id="dC" d="M0 0h600v296.186H0z"/></defs><defs><path id="dE" d="M0 0h600v296.186H0z"/></defs><defs><path id="dG" d="M0 0h600v296.186H0z"/></defs><defs><path id="dI" d="M0 0h600v296.186H0z"/></defs><defs><path id="dK" d="M0 0h600v296.186H0z"/></defs><defs><path id="dM" d="M0 0h600v296.186H0z"/></defs><defs><path id="dO" d="M0 0h600v296.186H0z"/></defs><defs><path id="dQ" d="M0 0h600v296.186H0z"/></defs><defs><path id="dS" d="M0 0h600v296.186H0z"/></defs><defs><path id="dU" d="M0 0h600v296.186H0z"/></defs><defs><path id="dW" d="M0 0h600v296.186H0z"/></defs><defs><path id="dY" d="M0 0h600v296.186H0z"/></defs><defs><path id="ea" d="M0 0h600v296.186H0z"/></defs><defs><path id="ec" d="M0 0h600v296.186H0z"/></defs><defs><path id="ee" d="M0 0h600v296.186H0z"/></defs><defs><path id="eg" d="M0 0h600v296.186H0z"/></defs><defs><path id="ei" d="M0 0h600v296.186H0z"/></defs><defs><path id="ek" d="M0 0h600v296.186H0z"/></defs><defs><path id="em" d="M0 0h600v296.186H0z"/></defs><defs><path id="eo" d="M0 0h600v296.186H0z"/></defs><defs><path id="eq" d="M0 0h600v296.186H0z"/></defs><defs><path id="es" d="M0 0h600v296.186H0z"/></defs><defs><path id="eu" d="M0 0h600v296.186H0z"/></defs><defs><path id="ew" d="M0 0h600v296.186H0z"/></defs><defs><path id="ey" d="M0 0h600v296.186H0z"/></defs><defs><path id="eA" d="M0 0h600v296.186H0z"/></defs><defs><path id="eC" d="M0 0h600v296.186H0z"/></defs><defs><path id="eE" d="M0 0h600v296.186H0z"/></defs><defs><path id="eG" d="M0 0h600v296.186H0z"/></defs><defs><path id="eI" d="M0 0h600v296.186H0z"/></defs><defs><path id="eK" d="M0 0h600v296.186H0z"/></defs><defs><path id="eM" d="M0 0h600v296.186H0z"/></defs><defs><path id="eO" d="M0 0h600v296.186H0z"/></defs><defs><path id="eQ" d="M0 0h600v296.186H0z"/></defs><defs><path id="eS" d="M0 0h600v296.186H0z"/></defs><defs><path id="eU" d="M0 0h600v296.186H0z"/></defs><defs><path id="eW" d="M0 0h600v296.186H0z"/></defs><defs><path id="eY" d="M0 0h600v296.186H0z"/></defs><defs><path id="fa" d="M0 0h600v296.186H0z"/></defs><defs><path id="fc" d="M0 0h600v296.186H0z"/></defs><defs><path id="fe" d="M0 0h600v296.186H0z"/></defs><defs><path id="fg" d="M0 0h600v296.186H0z"/></defs><defs><path id="fi" d="M0 0h600v296.186H0z"/></defs><defs><path id="fk" d="M0 0h600v296.186H0z"/></defs><defs><path id="fm" d="M0 0h600v296.186H0z"/></defs><defs><path id="fo" d="M0 0h600v296.186H0z"/></defs><defs><path id="fq" d="M0 0h600v296.186H0z"/></defs><defs><path id="fs" d="M0 0h600v296.186H0z"/></defs><defs><path id="fu" d="M0 0h600v296.186H0z"/></defs><defs><path id="fw" d="M0 0h600v296.186H0z"/></defs><defs><path id="fy" d="M0 0h600v296.186H0z"/></defs><defs><path id="fA" d="M0 0h600v296.186H0z"/></defs><defs><path id="fC" d="M0 0h600v296.186H0z"/></defs><defs><path id="fE" d="M0 0h600v296.186H0z"/></defs><clipPath id="dd"><use xlink:href="#dc" overflow="visible"/></clipPath><clipPath id="df" clip-path="url(#dd)"><use xlink:href="#de" overflow="visible"/></clipPath><clipPath id="dh" clip-path="url(#df)"><use xlink:href="#dg" overflow="visible"/></clipPath><clipPath id="dj" clip-path="url(#dh)"><use xlink:href="#di" overflow="visible"/></clipPath><clipPath id="dl" clip-path="url(#dj)"><use xlink:href="#dk" overflow="visible"/></clipPath><clipPath id="dn" clip-path="url(#dl)"><use xlink:href="#dm" overflow="visible"/></clipPath><clipPath id="dp" clip-path="url(#dn)"><use xlink:href="#do" overflow="visible"/></clipPath><clipPath id="dr" clip-path="url(#dp)"><use xlink:href="#dq" overflow="visible"/></clipPath><clipPath id="dt" clip-path="url(#dr)"><use xlink:href="#ds" overflow="visible"/></clipPath><clipPath id="dv" clip-path="url(#dt)"><use xlink:href="#du" overflow="visible"/></clipPath><clipPath id="dx" clip-path="url(#dv)"><use xlink:href="#dw" overflow="visible"/></clipPath><clipPath id="dz" clip-path="url(#dx)"><use xlink:href="#dy" overflow="visible"/></clipPath><clipPath id="dB" clip-path="url(#dz)"><use xlink:href="#dA" overflow="visible"/></clipPath><clipPath id="dD" clip-path="url(#dB)"><use xlink:href="#dC" overflow="visible"/></clipPath><clipPath id="dF" clip-path="url(#dD)"><use xlink:href="#dE" overflow="visible"/></clipPath><clipPath id="dH" clip-path="url(#dF)"><use xlink:href="#dG" overflow="visible"/></clipPath><clipPath id="dJ" clip-path="url(#dH)"><use xlink:href="#dI" overflow="visible"/></clipPath><clipPath id="dL" clip-path="url(#dJ)"><use xlink:href="#dK" overflow="visible"/></clipPath><clipPath id="dN" clip-path="url(#dL)"><use xlink:href="#dM" overflow="visible"/></clipPath><clipPath id="dP" clip-path="url(#dN)"><use xlink:href="#dO" overflow="visible"/></clipPath><clipPath id="dR" clip-path="url(#dP)"><use xlink:href="#dQ" overflow="visible"/></clipPath><clipPath id="dT" clip-path="url(#dR)"><use xlink:href="#dS" overflow="visible"/></clipPath><clipPath id="dV" clip-path="url(#dT)"><use xlink:href="#dU" overflow="visible"/></clipPath><clipPath id="dX" clip-path="url(#dV)"><use xlink:href="#dW" overflow="visible"/></clipPath><clipPath id="dZ" clip-path="url(#dX)"><use xlink:href="#dY" overflow="visible"/></clipPath><clipPath id="eb" clip-path="url(#dZ)"><use xlink:href="#ea" overflow="visible"/></clipPath><clipPath id="ed" clip-path="url(#eb)"><use xlink:href="#ec" overflow="visible"/></clipPath><clipPath id="ef" clip-path="url(#ed)"><use xlink:href="#ee" overflow="visible"/></clipPath><clipPath id="eh" clip-path="url(#ef)"><use xlink:href="#eg" overflow="visible"/></clipPath><clipPath id="ej" clip-path="url(#eh)"><use xlink:href="#ei" overflow="visible"/></clipPath><clipPath id="el" clip-path="url(#ej)"><use xlink:href="#ek" overflow="visible"/></clipPath><clipPath id="en" clip-path="url(#el)"><use xlink:href="#em" overflow="visible"/></clipPath><clipPath id="ep" clip-path="url(#en)"><use xlink:href="#eo" overflow="visible"/></clipPath><clipPath id="er" clip-path="url(#ep)"><use xlink:href="#eq" overflow="visible"/></clipPath><clipPath id="et" clip-path="url(#er)"><use xlink:href="#es" overflow="visible"/></clipPath><clipPath id="ev" clip-path="url(#et)"><use xlink:href="#eu" overflow="visible"/></clipPath><clipPath id="ex" clip-path="url(#ev)"><use xlink:href="#ew" overflow="visible"/></clipPath><clipPath id="ez" clip-path="url(#ex)"><use xlink:href="#ey" overflow="visible"/></clipPath><clipPath id="eB" clip-path="url(#ez)"><use xlink:href="#eA" overflow="visible"/></clipPath><clipPath id="eD" clip-path="url(#eB)"><use xlink:href="#eC" overflow="visible"/></clipPath><clipPath id="eF" clip-path="url(#eD)"><use xlink:href="#eE" overflow="visible"/></clipPath><clipPath id="eH" clip-path="url(#eF)"><use xlink:href="#eG" overflow="visible"/></clipPath><clipPath id="eJ" clip-path="url(#eH)"><use xlink:href="#eI" overflow="visible"/></clipPath><clipPath id="eL" clip-path="url(#eJ)"><use xlink:href="#eK" overflow="visible"/></clipPath><clipPath id="eN" clip-path="url(#eL)"><use xlink:href="#eM" overflow="visible"/></clipPath><clipPath id="eP" clip-path="url(#eN)"><use xlink:href="#eO" overflow="visible"/></clipPath><clipPath id="eR" clip-path="url(#eP)"><use xlink:href="#eQ" overflow="visible"/></clipPath><clipPath id="eT" clip-path="url(#eR)"><use xlink:href="#eS" overflow="visible"/></clipPath><clipPath id="eV" clip-path="url(#eT)"><use xlink:href="#eU" overflow="visible"/></clipPath><clipPath id="eX" clip-path="url(#eV)"><use xlink:href="#eW" overflow="visible"/></clipPath><clipPath id="eZ" clip-path="url(#eX)"><use xlink:href="#eY" overflow="visible"/></clipPath><clipPath id="fb" clip-path="url(#eZ)"><use xlink:href="#fa" overflow="visible"/></clipPath><clipPath id="fd" clip-path="url(#fb)"><use xlink:href="#fc" overflow="visible"/></clipPath><clipPath id="ff" clip-path="url(#fd)"><use xlink:href="#fe" overflow="visible"/></clipPath><clipPath id="fh" clip-path="url(#ff)"><use xlink:href="#fg" overflow="visible"/></clipPath><clipPath id="fj" clip-path="url(#fh)"><use xlink:href="#fi" overflow="visible"/></clipPath><clipPath id="fl" clip-path="url(#fj)"><use xlink:href="#fk" overflow="visible"/></clipPath><clipPath id="fn" clip-path="url(#fl)"><use xlink:href="#fm" overflow="visible"/></clipPath><clipPath id="fp" clip-path="url(#fn)"><use xlink:href="#fo" overflow="visible"/></clipPath><clipPath id="fr" clip-path="url(#fp)"><use xlink:href="#fq" overflow="visible"/></clipPath><clipPath id="ft" clip-path="url(#fr)"><use xlink:href="#fs" overflow="visible"/></clipPath><clipPath id="fv" clip-path="url(#ft)"><use xlink:href="#fu" overflow="visible"/></clipPath><clipPath id="fx" clip-path="url(#fv)"><use xlink:href="#fw" overflow="visible"/></clipPath><clipPath id="fz" clip-path="url(#fx)"><use xlink:href="#fy" overflow="visible"/></clipPath><clipPath id="fB" clip-path="url(#fz)"><use xlink:href="#fA" overflow="visible"/></clipPath><clipPath id="fD" clip-path="url(#fB)"><use xlink:href="#fC" overflow="visible"/></clipPath><clipPath id="fF" clip-path="url(#fD)"><use xlink:href="#fE" overflow="visible"/></clipPath><path clip-path="url(#fF)" fill="#222" d="M423.753 285.485h-44.749a1.09 1.09 0 1 1 0-2.181h44.749a1.09 1.09 0 0 1 0 2.181M423.753 290.553h-44.749a1.09 1.09 0 1 1 0-2.181h44.749a1.09 1.09 0 1 1 0 2.181"/><path clip-path="url(#fF)" fill="#022222" d="M395.063 221.187c-5.483 0-8.938-1.163-11.986-2.188-2.176-.733-4.057-1.366-6.241-1.366-4.862 0-6.92 1.902-6.938 1.922a1.097 1.097 0 0 1-1.538-.026 1.084 1.084 0 0 1 .008-1.527c.104-.104 2.628-2.547 8.47-2.547 2.543 0 4.678.718 6.938 1.479 2.889.974 6.163 2.075 11.291 2.075 5.331 0 8.223-.95 10.772-1.789 1.85-.607 3.444-1.132 5.506-1.132 4.853 0 7.693 1.838 7.813 1.917a1.09 1.09 0 1 1-1.201 1.821c-.021-.014-2.456-1.557-6.611-1.557-1.712 0-3.085.452-4.823 1.023-2.578.843-5.78 1.895-11.46 1.895"/><path clip-path="url(#fF)" fill="#222" d="M130 180.425c-.321 0-.64-.141-.855-.412l-4.68-5.896a1.09 1.09 0 0 1 .177-1.534l5.16-4.096a1.09 1.09 0 0 1 1.532.177l4.603 5.799a1.09 1.09 0 0 1-1.709 1.355l-3.924-4.944-3.452 2.738 4.002 5.043a1.09 1.09 0 0 1-.854 1.77"/><path clip-path="url(#fF)" fill="#53AD4D" d="M135.69 168.816l-12.067 9.576-3.852-4.854a5.405 5.405 0 0 1 .874-7.592l3.602-2.858a5.403 5.403 0 0 1 7.591.874l3.852 4.854z"/><path clip-path="url(#fF)" fill="#222" d="M123.625 179.482a1.09 1.09 0 0 1-.855-.412l-5.559-7.006a3.72 3.72 0 0 1-.787-2.757 3.724 3.724 0 0 1 1.393-2.507l7.905-6.273a3.75 3.75 0 0 1 5.264.606l5.559 7.005a1.092 1.092 0 0 1-.176 1.533l-12.067 9.575c-.2.159-.44.236-.677.236m4.422-17.586c-.352 0-.691.118-.97.339l-7.905 6.274c-.328.26-.535.632-.583 1.047-.047.416.069.825.329 1.152l4.882 6.15 10.358-8.22-4.881-6.151a1.572 1.572 0 0 0-1.048-.583 2.235 2.235 0 0 0-.182-.008M175.977 166.769a1.09 1.09 0 0 1-1.09-1.09v-7.902h-13.446v7.326a1.09 1.09 0 1 1-2.181 0v-8.416a1.09 1.09 0 0 1 1.09-1.091h15.627c.602 0 1.09.487 1.09 1.091v8.992a1.09 1.09 0 0 1-1.09 1.09"/><path clip-path="url(#fF)" fill="#53AD4D" d="M155.005 143.819h26.318v16.961h-26.318z"/><path clip-path="url(#fF)" fill="#222" d="M181.323 161.871h-26.318a1.09 1.09 0 0 1-1.091-1.092v-16.96c0-.603.489-1.091 1.091-1.091h26.318a1.09 1.09 0 0 1 1.091 1.091v16.96a1.09 1.09 0 0 1-1.091 1.092m-25.228-2.181h24.138v-14.78h-24.138v14.78z"/><path clip-path="url(#fF)" fill="#222" d="M176.48 157.777a1.09 1.09 0 0 1-1.091-1.09v-9.577a1.091 1.091 0 0 1 2.181 0v9.577a1.09 1.09 0 0 1-1.09 1.09m-5.544 0a1.09 1.09 0 0 1-1.091-1.09v-9.577a1.091 1.091 0 0 1 2.181 0v9.577a1.09 1.09 0 0 1-1.09 1.09m-5.544 0a1.09 1.09 0 0 1-1.09-1.09v-9.577a1.09 1.09 0 1 1 2.18 0v9.577a1.09 1.09 0 0 1-1.09 1.09m-5.544 0a1.09 1.09 0 0 1-1.09-1.09v-9.577a1.09 1.09 0 1 1 2.18 0v9.577a1.09 1.09 0 0 1-1.09 1.09M301.904 263.101c-10.297-20.927-9.796-30.591-9.789-30.714a1.09 1.09 0 0 0-2.175-.158c-.031.406-.627 10.228 10.007 31.836 8.199 16.66 8.368 31.824 8.369 32.033h2.182v-.003c-.003-.637-.145-15.824-8.594-32.994M227.632 235.795a1.09 1.09 0 0 0-.942-1.221 1.088 1.088 0 0 0-1.221.94c-.529 4.104-2.479 13.145-9.585 27.585-8.449 17.17-8.591 32.356-8.593 32.994v.003h2.181c.001-.209.17-15.373 8.369-32.033 7.245-14.723 9.243-24.03 9.791-28.268"/><path clip-path="url(#fF)" fill="#222" d="M263.803 258.477c-21.474 0-41.05-4.589-42.279-4.883a1.09 1.09 0 1 1 .507-2.121c.45.106 45.35 10.63 73.596.039a1.09 1.09 0 1 1 .765 2.042c-9.848 3.693-21.474 4.923-32.589 4.923M261.482 281.033c-6.974 0-13.392-.553-18.889-1.303-17.272-2.353-29.429-7.104-29.55-7.152a1.09 1.09 0 0 1 .802-2.027c.119.047 12.077 4.716 29.101 7.028 15.667 2.127 38.96 2.64 60.96-7.015a1.092 1.092 0 0 1 .876 2c-14.741 6.466-30.025 8.469-43.3 8.469"/><path clip-path="url(#fF)" fill="#222" d="M225.87 270.473a1.09 1.09 0 0 1-1.09-1.09v-10.138a1.09 1.09 0 1 1 2.18 0v10.138a1.09 1.09 0 0 1-1.09 1.09M231.669 272.037a1.09 1.09 0 0 1-1.09-1.091v-10.139a1.09 1.09 0 1 1 2.18 0v10.139a1.09 1.09 0 0 1-1.09 1.091M237.664 273.983a1.09 1.09 0 0 1-1.09-1.09v-10.138a1.09 1.09 0 1 1 2.18 0v10.138a1.09 1.09 0 0 1-1.09 1.09M243.562 273.983a1.09 1.09 0 0 1-1.09-1.09v-10.138a1.09 1.09 0 1 1 2.18 0v10.138a1.09 1.09 0 0 1-1.09 1.09M249.459 275.153a1.09 1.09 0 0 1-1.09-1.09v-10.139a1.09 1.09 0 1 1 2.18 0v10.139a1.09 1.09 0 0 1-1.09 1.09M255.356 275.542a1.09 1.09 0 0 1-1.09-1.09v-10.139a1.09 1.09 0 1 1 2.18 0v10.139a1.09 1.09 0 0 1-1.09 1.09M261.253 276.322c-.602 0-1.09-.486-1.09-1.09v-10.138a1.09 1.09 0 1 1 2.18 0v10.138a1.09 1.09 0 0 1-1.09 1.09M267.151 276.322c-.603 0-1.09-.486-1.09-1.09v-10.138a1.09 1.09 0 1 1 2.18 0v10.138a1.09 1.09 0 0 1-1.09 1.09M273.048 275.639a1.09 1.09 0 0 1-1.09-1.09v-10.138a1.09 1.09 0 1 1 2.18 0v10.138c0 .603-.487 1.09-1.09 1.09M278.945 273.983a1.09 1.09 0 0 1-1.09-1.09v-10.138a1.09 1.09 0 1 1 2.18 0v10.138a1.09 1.09 0 0 1-1.09 1.09M284.843 272.813c-.603 0-1.09-.487-1.09-1.09v-10.139a1.09 1.09 0 1 1 2.18 0v10.139a1.09 1.09 0 0 1-1.09 1.09M291.017 271.253a1.09 1.09 0 0 1-1.09-1.09v-10.14a1.09 1.09 0 1 1 2.18 0v10.14a1.09 1.09 0 0 1-1.09 1.09"/><path clip-path="url(#fF)" fill="#F9D564" d="M392.31 103.932c0-10.632-8.82-19.205-19.544-18.797-9.668.367-17.58 8.185-18.055 17.848a18.75 18.75 0 0 0 4.626 13.331c3.435 3.924 5.21 9.031 5.21 14.246v.228h17.902v-.152c0-5.377 2.021-10.508 5.476-14.63a18.746 18.746 0 0 0 4.385-12.074"/><path clip-path="url(#fF)" fill="#222" d="M382.45 131.877h-17.903a1.09 1.09 0 0 1-1.091-1.091v-.228c0-5.083-1.754-9.887-4.94-13.526-3.412-3.899-5.148-8.907-4.895-14.104.502-10.201 8.892-18.497 19.103-18.884 5.464-.213 10.645 1.762 14.576 5.548 3.935 3.787 6.102 8.879 6.102 14.338a19.91 19.91 0 0 1-4.642 12.774c-3.366 4.018-5.22 8.965-5.22 13.929v.152a1.09 1.09 0 0 1-1.09 1.092m-16.828-2.179h15.757c.218-5.157 2.228-10.234 5.709-14.393a17.734 17.734 0 0 0 4.131-11.373c0-4.861-1.929-9.395-5.432-12.767-3.501-3.371-8.119-5.116-12.98-4.94-9.09.345-16.561 7.73-17.008 16.813-.227 4.629 1.321 9.089 4.359 12.559 3.352 3.83 5.275 8.809 5.464 14.101"/><path clip-path="url(#fF)" fill="#EBF0F6" d="M382.872 135.717h-18.747a2.465 2.465 0 0 1 0-4.93h18.747a2.466 2.466 0 0 1 0 4.93"/><path clip-path="url(#fF)" fill="#222" d="M383.124 136.808h-19.252a3.307 3.307 0 0 1-3.303-3.303v-.506a3.306 3.306 0 0 1 3.303-3.302h19.252a3.306 3.306 0 0 1 3.304 3.302v.506a3.308 3.308 0 0 1-3.304 3.303m-19.252-4.931c-.619 0-1.122.503-1.122 1.121v.506c0 .619.503 1.122 1.122 1.122h19.252c.619 0 1.122-.503 1.122-1.122v-.506c0-.618-.503-1.121-1.122-1.121h-19.252z"/><path clip-path="url(#fF)" fill="#EBF0F6" d="M381.201 140.615h-15.406a2.466 2.466 0 0 1 0-4.931h15.406a2.466 2.466 0 0 1 0 4.931"/><path clip-path="url(#fF)" fill="#222" d="M381.454 141.705h-15.912a3.306 3.306 0 0 1-3.302-3.304v-.506a3.306 3.306 0 0 1 3.302-3.302h15.912a3.307 3.307 0 0 1 3.303 3.302v.506a3.307 3.307 0 0 1-3.303 3.304m-15.912-4.931c-.617 0-1.12.503-1.12 1.121v.506c0 .619.503 1.122 1.12 1.122h15.912c.618 0 1.122-.503 1.122-1.122v-.506c0-.618-.504-1.121-1.122-1.121h-15.912z"/><path clip-path="url(#fF)" fill="#EBF0F6" d="M379.401 145.544h-11.807a2.466 2.466 0 0 1 0-4.93h11.807a2.466 2.466 0 0 1 0 4.93"/><path clip-path="url(#fF)" fill="#222" d="M379.654 146.634h-12.313a3.307 3.307 0 0 1-3.303-3.303v-.506a3.306 3.306 0 0 1 3.303-3.303h12.313a3.308 3.308 0 0 1 3.303 3.303v.506a3.307 3.307 0 0 1-3.303 3.303m-12.311-4.929c-.619 0-1.122.503-1.122 1.121v.506c0 .619.503 1.122 1.122 1.122h12.313c.618 0 1.121-.503 1.121-1.122v-.506c0-.618-.503-1.121-1.121-1.121h-12.313z"/><path clip-path="url(#fF)" fill="#222" d="M376.19 149.683h-4.897a4.144 4.144 0 0 1-4.14-4.139 1.09 1.09 0 1 1 2.181 0 1.96 1.96 0 0 0 1.959 1.958h4.897a1.96 1.96 0 0 0 1.958-1.958 1.09 1.09 0 1 1 2.181 0 4.143 4.143 0 0 1-4.139 4.139M371.033 131.877a1.09 1.09 0 0 1-1.09-1.09v-18.37h-.158c-2.913 0-4.12-1.404-4.579-2.242-.73-1.33-.644-3.071.225-4.436.737-1.16 1.914-1.811 3.144-1.729.853.055 1.605.435 2.181 1.1 1.157 1.345 1.389 3.658 1.406 5.126h1.338a1.09 1.09 0 1 1 0 2.181h-1.373v18.37a1.093 1.093 0 0 1-1.094 1.09m-2.663-25.691c-.575 0-.958.501-1.099.724-.366.575-.557 1.484-.154 2.216.505.919 1.729 1.111 2.668 1.111h.193c-.022-1.338-.247-2.973-.879-3.702-.191-.223-.397-.329-.666-.347-.021-.002-.041-.002-.063-.002"/><path clip-path="url(#fF)" fill="#222" d="M375.964 131.877a1.09 1.09 0 0 1-1.091-1.091v-18.369h-1.374c-.604 0-1.091-.488-1.091-1.091s.486-1.091 1.091-1.091h1.338c.019-1.468.248-3.78 1.407-5.125.573-.665 1.326-1.046 2.18-1.1 1.23-.082 2.406.567 3.143 1.727.866 1.365.956 3.106.226 4.437-.46.838-1.667 2.243-4.579 2.243h-.158v18.369a1.093 1.093 0 0 1-1.092 1.091m1.057-21.641h.19c.938 0 2.163-.192 2.668-1.111.401-.731.212-1.641-.155-2.216-.146-.23-.557-.761-1.161-.722a.906.906 0 0 0-.667.349c-.672.778-.854 2.475-.875 3.7M170.938 215.542l7.559-28.917-12.33 27.198zM168.687 224.151l-2.473 9.458-7.798-2.692 4.205-9.274 2.928 1.805zM168.687 254.968a1.09 1.09 0 0 1-1.09-1.09v-7.815a1.09 1.09 0 1 1 2.18 0v7.815a1.09 1.09 0 0 1-1.09 1.09m35.084-35.084h-7.815a1.09 1.09 0 0 1 0-2.182h7.815a1.09 1.09 0 1 1 0 2.182m-62.353 0h-7.815a1.09 1.09 0 0 1 0-2.182h7.815a1.09 1.09 0 1 1 0 2.182m27.269-27.269a1.09 1.09 0 0 1-1.09-1.091v-7.814a1.09 1.09 0 1 1 2.18 0v7.814a1.09 1.09 0 0 1-1.09 1.091M151.144 250.268a1.091 1.091 0 0 1-.943-1.635l3.908-6.769a1.09 1.09 0 1 1 1.888 1.092l-3.907 6.767a1.092 1.092 0 0 1-.946.545m47.925-12.842c-.185 0-.373-.047-.544-.146l-6.768-3.906a1.09 1.09 0 0 1 1.09-1.888l6.768 3.907a1.09 1.09 0 0 1-.546 2.033M145.07 206.25c-.185 0-.373-.049-.544-.147l-6.768-3.907a1.089 1.089 0 1 1 1.09-1.887l6.768 3.908a1.09 1.09 0 0 1-.546 2.033m37.25-9.981a1.09 1.09 0 0 1-.943-1.635l3.907-6.769a1.091 1.091 0 0 1 1.889 1.092l-3.907 6.767a1.092 1.092 0 0 1-.946.545M186.229 250.268a1.09 1.09 0 0 1-.945-.546l-3.907-6.767a1.09 1.09 0 0 1 1.888-1.093l3.908 6.77a1.09 1.09 0 0 1-.944 1.636m-47.924-12.842a1.09 1.09 0 0 1-.546-2.035l6.768-3.907a1.09 1.09 0 1 1 1.09 1.888l-6.768 3.906a1.066 1.066 0 0 1-.544.148m53.999-31.176a1.09 1.09 0 0 1-.546-2.035l6.768-3.908a1.09 1.09 0 0 1 1.09 1.887l-6.768 3.907a1.067 1.067 0 0 1-.544.149m-37.25-9.981c-.377 0-.744-.195-.946-.546l-3.907-6.767a1.091 1.091 0 0 1 1.889-1.093l3.907 6.77a1.09 1.09 0 0 1-.943 1.636M406.885 105.829h-7.252a1.09 1.09 0 1 1 0-2.182h7.252a1.092 1.092 0 0 1 0 2.182m-57.864 0h-7.253a1.09 1.09 0 0 1-1.09-1.092c0-.602.487-1.09 1.09-1.09h7.253a1.09 1.09 0 1 1 0 2.182m25.305-25.307c-.604 0-1.09-.487-1.09-1.09v-7.253a1.09 1.09 0 1 1 2.18 0v7.253c0 .603-.487 1.09-1.09 1.09M352.41 93.176c-.187 0-.373-.048-.545-.147l-6.279-3.626a1.088 1.088 0 0 1-.398-1.489c.3-.522.968-.7 1.488-.399l6.28 3.626a1.091 1.091 0 0 1-.546 2.035m34.569-9.263a1.09 1.09 0 0 1-.942-1.636l3.626-6.28a1.09 1.09 0 1 1 1.887 1.091l-3.626 6.28a1.092 1.092 0 0 1-.945.545M396.242 93.176a1.091 1.091 0 0 1-.546-2.036l6.28-3.626a1.091 1.091 0 0 1 1.091 1.888l-6.28 3.626c-.172.1-.358.148-.545.148m-34.567-9.263c-.377 0-.743-.196-.944-.546l-3.627-6.28a1.091 1.091 0 0 1 1.887-1.091l3.626 6.28a1.09 1.09 0 0 1-.942 1.637"/><path clip-path="url(#fF)" fill="#EBF0F6" d="M87.783 201.62H66.85a4.338 4.338 0 1 1 0-8.677h20.933a4.338 4.338 0 1 1 0 8.677"/><path clip-path="url(#fF)" fill="#222" d="M87.783 202.709H66.85a5.435 5.435 0 0 1-5.428-5.428 5.435 5.435 0 0 1 5.428-5.429h20.933a5.435 5.435 0 0 1 5.428 5.429 5.434 5.434 0 0 1-5.428 5.428m-20.933-8.674a3.251 3.251 0 0 0-3.247 3.247 3.25 3.25 0 0 0 3.247 3.246h20.933a3.25 3.25 0 0 0 3.247-3.246 3.251 3.251 0 0 0-3.247-3.247H66.85z"/><path clip-path="url(#fF)" fill="#EBF0F6" d="M45.864 218.775H24.907a3.729 3.729 0 1 1 0-7.457h20.957a3.728 3.728 0 0 1 0 7.457"/><path clip-path="url(#fF)" fill="#222" d="M45.863 219.866H24.906c-2.657 0-4.819-2.162-4.819-4.819s2.162-4.819 4.819-4.819h20.957c2.657 0 4.819 2.162 4.819 4.819s-2.161 4.819-4.819 4.819m-20.957-7.457a2.641 2.641 0 0 0-2.638 2.638 2.64 2.64 0 0 0 2.638 2.638h20.957a2.64 2.64 0 0 0 2.638-2.638 2.641 2.641 0 0 0-2.638-2.638H24.906zM116.039 102.791c-.281 0-.562-.108-.776-.324L98.191 85.18c-.795-.371-4.985-1.183-8.519-1.739a1.073 1.073 0 0 1-.584-.289L81.5 75.883a1.09 1.09 0 0 1 .826-1.876l6.81.453-.367-6.815a1.09 1.09 0 0 1 1.885-.803l7.174 7.677c.152.163.25.368.282.588.512 3.541 1.271 7.741 1.632 8.541l17.072 17.286a1.091 1.091 0 0 1-.775 1.857M90.35 81.341c2.066.328 3.664.615 4.903.864l-5.446-5.516-4.632-.307 5.175 4.959zm1.009-6.183l5.446 5.515c-.233-1.243-.5-2.844-.803-4.914l-4.893-5.237.25 4.636z"/><path clip-path="url(#fF)" fill="#53AD4D" d="M416.338 123.169l7.965 13.521c4.625-2.729 7.729-7.762 7.729-13.521 0-.951-.09-1.881-.252-2.785l-15.442 2.785z"/><path clip-path="url(#fF)" fill="#222" d="M424.303 137.781a1.093 1.093 0 0 1-.939-.537l-7.965-13.521a1.09 1.09 0 0 1 .745-1.626l15.442-2.786a1.093 1.093 0 0 1 1.265.881c.18.995.27 1.997.27 2.979 0 5.909-3.166 11.45-8.264 14.46a1.11 1.11 0 0 1-.554.15m-6.232-13.816l6.596 11.196c3.896-2.716 6.273-7.216 6.273-11.991 0-.499-.026-1.004-.081-1.512l-12.788 2.307zM111.189 134.88c-.652 0-1.22-.464-1.35-1.104a1.367 1.367 0 0 1 .201-1.034 1.362 1.362 0 0 1 1.15-.618c.652 0 1.219.464 1.35 1.102a1.38 1.38 0 0 1-1.351 1.654zM156.953 17.684a1.378 1.378 0 1 1 .276-.027 1.45 1.45 0 0 1-.276.027M327.609 89.146a1.384 1.384 0 0 1-1.351-1.103 1.38 1.38 0 0 1 1.351-1.653c.651 0 1.219.464 1.349 1.104a1.38 1.38 0 0 1-1.349 1.652zM325.488 100.885c-.651 0-1.22-.464-1.35-1.103a1.379 1.379 0 1 1 1.35 1.103M231.113 117.931a1.383 1.383 0 0 1-1.35-1.103 1.38 1.38 0 0 1 1.351-1.653 1.379 1.379 0 1 1-.001 2.756zM241.882 169.358c-.652 0-1.22-.464-1.35-1.103a1.37 1.37 0 0 1 .201-1.035c.203-.309.514-.518.875-.59a1.383 1.383 0 0 1 1.625 1.075 1.38 1.38 0 0 1-1.351 1.653zM299.751 207.579a1.378 1.378 0 1 1 .277-.027 1.468 1.468 0 0 1-.277.027zM347.077 183.67c-.652 0-1.22-.464-1.351-1.104a1.38 1.38 0 0 1 1.352-1.653 1.38 1.38 0 1 1-.001 2.757M408.182 149.137a1.38 1.38 0 1 1-.001-2.756c.651 0 1.221.464 1.351 1.103.074.36.002.729-.201 1.035a1.357 1.357 0 0 1-1.149.618M418.67 90.902a1.382 1.382 0 0 1-1.349-1.103 1.365 1.365 0 0 1 .2-1.035c.202-.307.514-.517.875-.59.091-.02.184-.029.274-.029.652 0 1.221.465 1.351 1.104a1.376 1.376 0 0 1-1.351 1.653M322.467 272.942a1.38 1.38 0 1 1 0-2.756c.651 0 1.221.464 1.351 1.104.073.359.002.728-.201 1.034a1.362 1.362 0 0 1-1.15.618M209.145 48.263a1.092 1.092 0 0 1-.91-1.692c7.396-11.224 18.571-28.187 36.481-28.187a1.09 1.09 0 0 1 0 2.181c-16.735 0-27.521 16.373-34.659 27.206a1.092 1.092 0 0 1-.912.492M356.936 252.715a1.1 1.1 0 0 1-.735-.285l-7.872-7.196a1.09 1.09 0 1 1 1.473-1.608l6.944 6.349 8.945-13.074a1.091 1.091 0 1 1 1.8 1.234l-9.653 14.108c-.18.262-.462.433-.775.469l-.127.003M356.936 272.557c-.271 0-.533-.101-.735-.285l-7.872-7.194a1.09 1.09 0 0 1 1.473-1.61l6.944 6.348 8.945-13.071a1.09 1.09 0 1 1 1.8 1.231l-9.653 14.11c-.18.261-.462.432-.775.468l-.127.003M356.936 292.399c-.271 0-.533-.101-.735-.283l-7.872-7.196a1.09 1.09 0 0 1 1.473-1.61l6.944 6.35 8.945-13.073a1.09 1.09 0 1 1 1.8 1.231l-9.653 14.11c-.18.261-.462.432-.775.468l-.127.003"/><g><defs><path id="fG" d="M0 0h600v296.186H0z"/></defs><clipPath id="fH"><use xlink:href="#fG" overflow="visible"/></clipPath><g clip-path="url(#fH)"><defs><path id="fI" d="M106.475 96.099c-55 0-100 45-100 100s45 100 100 100h340c55 0 100-45 100-100s-45-100-100-100h-340z"/></defs><defs><path id="fK" d="M106.475 96.099c-55 0-100 45-100 100s45 100 100 100h340c55 0 100-45 100-100s-45-100-100-100h-340z"/></defs><defs><path id="fM" d="M106.475 96.099c-55 0-100 45-100 100s45 100 100 100h340c55 0 100-45 100-100s-45-100-100-100h-340z"/></defs><defs><path id="fO" d="M106.475 96.099c-55 0-100 45-100 100s45 100 100 100h340c55 0 100-45 100-100s-45-100-100-100h-340z"/></defs><defs><path id="fQ" d="M106.475 96.099c-55 0-100 45-100 100s45 100 100 100h340c55 0 100-45 100-100s-45-100-100-100h-340z"/></defs><defs><path id="fS" d="M106.475 96.099c-55 0-100 45-100 100s45 100 100 100h340c55 0 100-45 100-100s-45-100-100-100h-340z"/></defs><defs><path id="fU" d="M106.475 96.099c-55 0-100 45-100 100s45 100 100 100h340c55 0 100-45 100-100s-45-100-100-100h-340z"/></defs><defs><path id="fW" d="M106.475 96.099c-55 0-100 45-100 100s45 100 100 100h340c55 0 100-45 100-100s-45-100-100-100h-340z"/></defs><defs><path id="fY" d="M106.475 96.099c-55 0-100 45-100 100s45 100 100 100h340c55 0 100-45 100-100s-45-100-100-100h-340z"/></defs><defs><path id="ga" d="M106.475 96.099c-55 0-100 45-100 100s45 100 100 100h340c55 0 100-45 100-100s-45-100-100-100h-340z"/></defs><defs><path id="gc" d="M106.475 96.099c-55 0-100 45-100 100s45 100 100 100h340c55 0 100-45 100-100s-45-100-100-100h-340z"/></defs><defs><path id="ge" d="M106.475 96.099c-55 0-100 45-100 100s45 100 100 100h340c55 0 100-45 100-100s-45-100-100-100h-340z"/></defs><defs><path id="gg" d="M106.475 96.099c-55 0-100 45-100 100s45 100 100 100h340c55 0 100-45 100-100s-45-100-100-100h-340z"/></defs><defs><path id="gi" d="M106.475 96.099c-55 0-100 45-100 100s45 100 100 100h340c55 0 100-45 100-100s-45-100-100-100h-340z"/></defs><defs><path id="gk" d="M106.475 96.099c-55 0-100 45-100 100s45 100 100 100h340c55 0 100-45 100-100s-45-100-100-100h-340z"/></defs><defs><path id="gm" d="M106.475 96.099c-55 0-100 45-100 100s45 100 100 100h340c55 0 100-45 100-100s-45-100-100-100h-340z"/></defs><defs><path id="go" d="M106.475 96.099c-55 0-100 45-100 100s45 100 100 100h340c55 0 100-45 100-100s-45-100-100-100h-340z"/></defs><defs><path id="gq" d="M106.475 96.099c-55 0-100 45-100 100s45 100 100 100h340c55 0 100-45 100-100s-45-100-100-100h-340z"/></defs><defs><path id="gs" d="M106.475 96.099c-55 0-100 45-100 100s45 100 100 100h340c55 0 100-45 100-100s-45-100-100-100h-340z"/></defs><defs><path id="gu" d="M106.475 96.099c-55 0-100 45-100 100s45 100 100 100h340c55 0 100-45 100-100s-45-100-100-100h-340z"/></defs><defs><path id="gw" d="M106.475 96.099c-55 0-100 45-100 100s45 100 100 100h340c55 0 100-45 100-100s-45-100-100-100h-340z"/></defs><defs><path id="gy" d="M106.475 96.099c-55 0-100 45-100 100s45 100 100 100h340c55 0 100-45 100-100s-45-100-100-100h-340z"/></defs><defs><path id="gA" d="M106.475 96.099c-55 0-100 45-100 100s45 100 100 100h340c55 0 100-45 100-100s-45-100-100-100h-340z"/></defs><defs><path id="gC" d="M106.475 96.099c-55 0-100 45-100 100s45 100 100 100h340c55 0 100-45 100-100s-45-100-100-100h-340z"/></defs><defs><path id="gE" d="M106.475 96.099c-55 0-100 45-100 100s45 100 100 100h340c55 0 100-45 100-100s-45-100-100-100h-340z"/></defs><defs><path id="gG" d="M106.475 96.099c-55 0-100 45-100 100s45 100 100 100h340c55 0 100-45 100-100s-45-100-100-100h-340z"/></defs><defs><path id="gI" d="M106.475 96.099c-55 0-100 45-100 100s45 100 100 100h340c55 0 100-45 100-100s-45-100-100-100h-340z"/></defs><defs><path id="gK" d="M106.475 96.099c-55 0-100 45-100 100s45 100 100 100h340c55 0 100-45 100-100s-45-100-100-100h-340z"/></defs><defs><path id="gM" d="M106.475 96.099c-55 0-100 45-100 100s45 100 100 100h340c55 0 100-45 100-100s-45-100-100-100h-340z"/></defs><defs><path id="gO" d="M106.475 96.099c-55 0-100 45-100 100s45 100 100 100h340c55 0 100-45 100-100s-45-100-100-100h-340z"/></defs><defs><path id="gQ" d="M106.475 96.099c-55 0-100 45-100 100s45 100 100 100h340c55 0 100-45 100-100s-45-100-100-100h-340z"/></defs><defs><path id="gS" d="M106.475 96.099c-55 0-100 45-100 100s45 100 100 100h340c55 0 100-45 100-100s-45-100-100-100h-340z"/></defs><defs><path id="gU" d="M106.475 96.099c-55 0-100 45-100 100s45 100 100 100h340c55 0 100-45 100-100s-45-100-100-100h-340z"/></defs><defs><path id="gW" d="M106.475 96.099c-55 0-100 45-100 100s45 100 100 100h340c55 0 100-45 100-100s-45-100-100-100h-340z"/></defs><defs><path id="gY" d="M106.475 96.099c-55 0-100 45-100 100s45 100 100 100h340c55 0 100-45 100-100s-45-100-100-100h-340z"/></defs><defs><path id="ha" d="M106.475 96.099c-55 0-100 45-100 100s45 100 100 100h340c55 0 100-45 100-100s-45-100-100-100h-340z"/></defs><defs><path id="hc" d="M106.475 96.099c-55 0-100 45-100 100s45 100 100 100h340c55 0 100-45 100-100s-45-100-100-100h-340z"/></defs><defs><path id="he" d="M106.475 96.099c-55 0-100 45-100 100s45 100 100 100h340c55 0 100-45 100-100s-45-100-100-100h-340z"/></defs><defs><path id="hg" d="M106.475 96.099c-55 0-100 45-100 100s45 100 100 100h340c55 0 100-45 100-100s-45-100-100-100h-340z"/></defs><defs><path id="hi" d="M106.475 96.099c-55 0-100 45-100 100s45 100 100 100h340c55 0 100-45 100-100s-45-100-100-100h-340z"/></defs><defs><path id="hk" d="M106.475 96.099c-55 0-100 45-100 100s45 100 100 100h340c55 0 100-45 100-100s-45-100-100-100h-340z"/></defs><defs><path id="hm" d="M106.475 96.099c-55 0-100 45-100 100s45 100 100 100h340c55 0 100-45 100-100s-45-100-100-100h-340z"/></defs><clipPath id="fJ"><use xlink:href="#fI" overflow="visible"/></clipPath><clipPath id="fL" clip-path="url(#fJ)"><use xlink:href="#fK" overflow="visible"/></clipPath><clipPath id="fN" clip-path="url(#fL)"><use xlink:href="#fM" overflow="visible"/></clipPath><clipPath id="fP" clip-path="url(#fN)"><use xlink:href="#fO" overflow="visible"/></clipPath><clipPath id="fR" clip-path="url(#fP)"><use xlink:href="#fQ" overflow="visible"/></clipPath><clipPath id="fT" clip-path="url(#fR)"><use xlink:href="#fS" overflow="visible"/></clipPath><clipPath id="fV" clip-path="url(#fT)"><use xlink:href="#fU" overflow="visible"/></clipPath><clipPath id="fX" clip-path="url(#fV)"><use xlink:href="#fW" overflow="visible"/></clipPath><clipPath id="fZ" clip-path="url(#fX)"><use xlink:href="#fY" overflow="visible"/></clipPath><clipPath id="gb" clip-path="url(#fZ)"><use xlink:href="#ga" overflow="visible"/></clipPath><clipPath id="gd" clip-path="url(#gb)"><use xlink:href="#gc" overflow="visible"/></clipPath><clipPath id="gf" clip-path="url(#gd)"><use xlink:href="#ge" overflow="visible"/></clipPath><clipPath id="gh" clip-path="url(#gf)"><use xlink:href="#gg" overflow="visible"/></clipPath><clipPath id="gj" clip-path="url(#gh)"><use xlink:href="#gi" overflow="visible"/></clipPath><clipPath id="gl" clip-path="url(#gj)"><use xlink:href="#gk" overflow="visible"/></clipPath><clipPath id="gn" clip-path="url(#gl)"><use xlink:href="#gm" overflow="visible"/></clipPath><clipPath id="gp" clip-path="url(#gn)"><use xlink:href="#go" overflow="visible"/></clipPath><clipPath id="gr" clip-path="url(#gp)"><use xlink:href="#gq" overflow="visible"/></clipPath><clipPath id="gt" clip-path="url(#gr)"><use xlink:href="#gs" overflow="visible"/></clipPath><clipPath id="gv" clip-path="url(#gt)"><use xlink:href="#gu" overflow="visible"/></clipPath><clipPath id="gx" clip-path="url(#gv)"><use xlink:href="#gw" overflow="visible"/></clipPath><clipPath id="gz" clip-path="url(#gx)"><use xlink:href="#gy" overflow="visible"/></clipPath><clipPath id="gB" clip-path="url(#gz)"><use xlink:href="#gA" overflow="visible"/></clipPath><clipPath id="gD" clip-path="url(#gB)"><use xlink:href="#gC" overflow="visible"/></clipPath><clipPath id="gF" clip-path="url(#gD)"><use xlink:href="#gE" overflow="visible"/></clipPath><clipPath id="gH" clip-path="url(#gF)"><use xlink:href="#gG" overflow="visible"/></clipPath><clipPath id="gJ" clip-path="url(#gH)"><use xlink:href="#gI" overflow="visible"/></clipPath><clipPath id="gL" clip-path="url(#gJ)"><use xlink:href="#gK" overflow="visible"/></clipPath><clipPath id="gN" clip-path="url(#gL)"><use xlink:href="#gM" overflow="visible"/></clipPath><clipPath id="gP" clip-path="url(#gN)"><use xlink:href="#gO" overflow="visible"/></clipPath><clipPath id="gR" clip-path="url(#gP)"><use xlink:href="#gQ" overflow="visible"/></clipPath><clipPath id="gT" clip-path="url(#gR)"><use xlink:href="#gS" overflow="visible"/></clipPath><clipPath id="gV" clip-path="url(#gT)"><use xlink:href="#gU" overflow="visible"/></clipPath><clipPath id="gX" clip-path="url(#gV)"><use xlink:href="#gW" overflow="visible"/></clipPath><clipPath id="gZ" clip-path="url(#gX)"><use xlink:href="#gY" overflow="visible"/></clipPath><clipPath id="hb" clip-path="url(#gZ)"><use xlink:href="#ha" overflow="visible"/></clipPath><clipPath id="hd" clip-path="url(#hb)"><use xlink:href="#hc" overflow="visible"/></clipPath><clipPath id="hf" clip-path="url(#hd)"><use xlink:href="#he" overflow="visible"/></clipPath><clipPath id="hh" clip-path="url(#hf)"><use xlink:href="#hg" overflow="visible"/></clipPath><clipPath id="hj" clip-path="url(#hh)"><use xlink:href="#hi" overflow="visible"/></clipPath><clipPath id="hl" clip-path="url(#hj)"><use xlink:href="#hk" overflow="visible"/></clipPath><clipPath id="hn" clip-path="url(#hl)"><use xlink:href="#hm" overflow="visible"/></clipPath><path clip-path="url(#hn)" fill="#222" d="M444.216 209.905H343.475c-8.099 0-14.688 6.59-14.688 14.688V296.1h2.182v-71.507c0-6.896 5.61-12.507 12.508-12.507h100.741c6.896 0 12.508 5.61 12.508 12.507V296.1h2.181v-71.507c-.004-8.099-6.593-14.688-14.691-14.688"/><path clip-path="url(#hn)" fill="#222" d="M434.611 230.393h-81.533c-6.232 0-11.304 5.071-11.304 11.304v54.402h2.181v-54.402c0-5.03 4.093-9.122 9.123-9.122h81.533c5.029 0 9.123 4.092 9.123 9.122v54.402h2.181v-54.402c0-6.233-5.07-11.304-11.304-11.304"/><path clip-path="url(#hn)" fill="#F9D564" d="M66.739 294.792c-14.435-1.702-25.746-13.603-26.518-28.302H9.753l-4.416 6.19a22.866 22.866 0 0 0-4.247 13.272v.156a8.897 8.897 0 0 0 8.898 8.897h56.895l-.144-.213z"/><path clip-path="url(#hn)" fill="#53AD4D" d="M70.302 295.008h14.029c16.637 0 30.124-13.487 30.124-30.124 0-2.159-.235-4.262-.667-6.293-2.772 3.122-8.323 6.426-19.462 6.875-21.786.877-16.668-5.41-32.459-4.679-9.593.442-17.048 4.717-21.428 8.005 1.917 14.79 14.551 26.216 29.863 26.216"/><path clip-path="url(#hn)" fill="#222" d="M84.331 296.099H70.302c-17.211 0-31.214-14.002-31.214-31.214 0-15.74 11.55-28.869 27.025-30.936v-32.33a1.09 1.09 0 0 1 1.091-1.092H87.43c.602 0 1.09.488 1.09 1.092v32.33c15.476 2.065 27.025 15.194 27.025 30.936 0 17.212-14.002 31.214-31.214 31.214m-16.037-93.39v32.209a1.09 1.09 0 0 1-.979 1.085c-14.849 1.518-26.046 13.934-26.046 28.882 0 16.009 13.024 29.032 29.033 29.032h14.029c16.009 0 29.033-13.023 29.033-29.032 0-14.948-11.197-27.364-26.045-28.882a1.09 1.09 0 0 1-.98-1.085v-32.209H68.294z"/><path clip-path="url(#hn)" fill="#222" d="M40.625 260.805a1.09 1.09 0 0 1-.624-1.986c.424-.297 10.527-7.227 22.57-6.578 5.665.304 8.797 1.393 11.826 2.445 3.665 1.274 7.455 2.593 16.178 2.593 15.222 0 20.024-5.98 20.071-6.041a1.093 1.093 0 0 1 1.526-.203c.476.361.573 1.04.214 1.519-.212.282-5.372 6.907-21.811 6.907-9.091 0-13.058-1.379-16.895-2.714-3.018-1.05-5.869-2.041-11.226-2.328-11.303-.608-21.109 6.122-21.207 6.189-.19.134-.407.197-.622.197"/><path clip-path="url(#hn)" fill="#FFF" d="M58.961 273.751a3.552 3.552 0 1 0 7.103 0 3.552 3.552 0 0 0-7.103 0"/><path clip-path="url(#hn)" fill="#222" d="M62.513 278.393a4.647 4.647 0 0 1-4.642-4.642c0-2.562 2.082-4.644 4.642-4.644s4.642 2.082 4.642 4.644a4.648 4.648 0 0 1-4.642 4.642m0-7.102a2.464 2.464 0 0 0-2.461 2.461c0 1.355 1.104 2.461 2.461 2.461s2.461-1.104 2.461-2.461a2.463 2.463 0 0 0-2.461-2.461"/><path clip-path="url(#hn)" fill="#FFF" d="M79.666 278.456a6.923 6.923 0 0 0 6.921 6.921 6.923 6.923 0 0 0 0-13.843 6.922 6.922 0 0 0-6.921 6.922"/><path clip-path="url(#hn)" fill="#222" d="M86.586 286.466c-4.418 0-8.011-3.595-8.011-8.012s3.593-8.012 8.011-8.012c4.417 0 8.011 3.595 8.011 8.012s-3.594 8.012-8.011 8.012m0-13.841a5.837 5.837 0 0 0-5.83 5.83c0 3.216 2.615 5.83 5.83 5.83s5.83-2.614 5.83-5.83a5.836 5.836 0 0 0-5.83-5.83M76.068 296.099H9.988c-5.507 0-9.988-4.48-9.988-9.988v-.156c0-5.015 1.538-9.823 4.449-13.905l22.161-31.08v-22.195c0-.603.488-1.09 1.091-1.09h16.181c.602 0 1.09.487 1.09 1.09v22.123l3.29 3.622a1.09 1.09 0 1 1-1.615 1.466l-3.573-3.935a1.088 1.088 0 0 1-.283-.732v-21.452h-14v21.452c0 .228-.07.448-.202.635L6.226 273.315a21.649 21.649 0 0 0-4.045 12.64v.156c0 4.305 3.503 7.808 7.808 7.808h66.08a1.09 1.09 0 1 1-.001 2.18"/><path clip-path="url(#hn)" fill="#FFF" d="M14.055 281.075c0 1.837 1.489 3.324 3.326 3.324a3.325 3.325 0 1 0 0-6.65 3.325 3.325 0 0 0-3.326 3.326"/><path clip-path="url(#hn)" fill="#1C3E58" d="M17.381 285.492a4.423 4.423 0 0 1-4.417-4.417c0-2.437 1.982-4.417 4.417-4.417s4.417 1.98 4.417 4.417a4.423 4.423 0 0 1-4.417 4.417m0-6.654a2.238 2.238 0 0 0-2.236 2.236c0 1.231 1.003 2.234 2.236 2.234s2.236-1.003 2.236-2.234a2.238 2.238 0 0 0-2.236-2.236"/><path clip-path="url(#hn)" fill="#FFF" d="M26.556 280.014a4.753 4.753 0 1 0 9.505-.001 4.753 4.753 0 0 0-9.505.001"/><path clip-path="url(#hn)" fill="#1C3E58" d="M31.308 285.857c-3.221 0-5.842-2.621-5.842-5.843s2.621-5.843 5.842-5.843c3.222 0 5.842 2.621 5.842 5.843s-2.62 5.843-5.842 5.843m0-9.505a3.667 3.667 0 0 0-3.661 3.662c0 2.021 1.642 3.661 3.661 3.661s3.662-1.642 3.662-3.661a3.667 3.667 0 0 0-3.662-3.662"/><path clip-path="url(#hn)" fill="#222" d="M33.867 260.805H20.708a1.09 1.09 0 1 1 0-2.181h13.159a1.09 1.09 0 1 1 0 2.181"/><path clip-path="url(#hn)" fill="#53AD4D" d="M458.934 124.072h10.14v70.84h-10.14z"/><path clip-path="url(#hn)" fill="#222" d="M469.072 196.002h-10.14a1.09 1.09 0 0 1-1.09-1.091v-70.84a1.09 1.09 0 0 1 1.09-1.091h10.14c.602 0 1.09.488 1.09 1.091v70.84a1.09 1.09 0 0 1-1.09 1.091m-9.047-2.181h7.957v-68.658h-7.957v68.658z"/><path clip-path="url(#hn)" fill="#222" d="M572.299 223.224H458.935a1.09 1.09 0 1 1 0-2.181h112.274V116.467c0-4.357-3.545-7.901-7.902-7.901H458.935a1.09 1.09 0 1 1 0-2.181h104.372c5.561 0 10.082 4.523 10.082 10.082v105.667a1.09 1.09 0 0 1-1.09 1.09"/><path clip-path="url(#hn)" fill="#222" d="M564.988 211.208H458.935a1.09 1.09 0 1 1 0-2.183h104.964v-88.392a5.641 5.641 0 0 0-5.637-5.635h-99.327a1.09 1.09 0 1 1 0-2.182h99.327c4.312 0 7.816 3.507 7.816 7.816v89.482a1.09 1.09 0 0 1-1.09 1.094"/><path clip-path="url(#hn)" fill="#222" d="M549.343 125.162h-75.008a1.09 1.09 0 1 1 0-2.182h75.008a1.09 1.09 0 1 1 0 2.182M522.196 133.018h-47.861a1.09 1.09 0 1 1 0-2.181h47.861a1.09 1.09 0 1 1 0 2.181M522.196 140.875h-47.861a1.09 1.09 0 1 1 0-2.182h47.861a1.09 1.09 0 1 1 0 2.182M549.343 148.731h-75.008a1.09 1.09 0 1 1 0-2.181h75.008c.604 0 1.09.488 1.09 1.091s-.488 1.09-1.09 1.09M491.705 180.698h-14.621a1.09 1.09 0 1 1 0-2.182h14.621c.603 0 1.09.488 1.09 1.091 0 .604-.487 1.091-1.09 1.091M491.705 187.449h-14.621a1.09 1.09 0 1 1 0-2.183h14.621c.603 0 1.09.488 1.09 1.092a1.09 1.09 0 0 1-1.09 1.091M491.705 194.199h-14.621a1.09 1.09 0 1 1 0-2.182h14.621a1.09 1.09 0 1 1 0 2.182"/><path clip-path="url(#hn)" fill="#F9D564" d="M505.157 157.676h14.621v15.4h-14.621z"/><path clip-path="url(#hn)" fill="#222" d="M519.778 180.698h-14.621a1.09 1.09 0 0 1-1.091-1.091 1.09 1.09 0 0 1 1.091-1.091h14.621c.603 0 1.09.488 1.09 1.091 0 .604-.487 1.091-1.09 1.091M519.778 187.449h-14.621a1.09 1.09 0 0 1-1.091-1.091 1.09 1.09 0 0 1 1.091-1.092h14.621c.603 0 1.09.488 1.09 1.092a1.09 1.09 0 0 1-1.09 1.091M519.778 194.199h-14.621a1.09 1.09 0 0 1-1.091-1.091 1.09 1.09 0 0 1 1.091-1.091h14.621a1.09 1.09 0 1 1 0 2.182"/><path clip-path="url(#hn)" fill="#53AD4D" d="M533.23 157.676h14.619v15.4H533.23z"/><path clip-path="url(#hn)" fill="#222" d="M547.852 180.698H533.23a1.09 1.09 0 1 1 0-2.182h14.62a1.09 1.09 0 0 1 .002 2.182M547.852 187.449H533.23a1.091 1.091 0 1 1 0-2.183h14.62a1.09 1.09 0 0 1 .002 2.183M547.852 194.199H533.23a1.091 1.091 0 1 1 0-2.182h14.62a1.09 1.09 0 1 1 .002 2.182M540.364 218.958a2.847 2.847 0 0 1 0-5.691 2.849 2.849 0 0 1 2.845 2.845 2.847 2.847 0 0 1-2.845 2.846m0-3.509a.665.665 0 0 0 0 1.327.665.665 0 0 0 0-1.327M598.91 250.686H457.814a1.09 1.09 0 0 1-1.093-1.091v-6.579a1.09 1.09 0 0 1 1.093-1.091H598.91c.602 0 1.09.487 1.09 1.091v6.579a1.09 1.09 0 0 1-1.09 1.091m-140.006-2.181h138.915v-4.398H458.904v4.398z"/><path clip-path="url(#hn)" fill="#222" d="M519.759 244.106h-52.832a1.09 1.09 0 0 1-1.09-1.09v-7.262a1.09 1.09 0 0 1 1.09-1.092h52.832a1.09 1.09 0 0 1 1.091 1.092v7.262a1.09 1.09 0 0 1-1.091 1.09m-51.741-2.181h50.651v-5.081h-50.651v5.081zM541.204 257.997h-74.277a1.09 1.09 0 1 1 0-2.182h74.277a1.09 1.09 0 0 1 0 2.182M581.803 281.196h-123.99a1.09 1.09 0 1 1 0-2.181h123.989a1.09 1.09 0 0 1 .001 2.181"/><path clip-path="url(#hn)" fill="#222" d="M480.428 236.845c-.467 0-.897-.303-1.043-.771a1.091 1.091 0 0 1 .727-1.362c6.063-1.854 4.948-12.349 4.937-12.452a1.091 1.091 0 0 1 2.167-.248c.06.505 1.33 12.404-6.467 14.786a1.155 1.155 0 0 1-.321.047M506.259 236.845c-.105 0-.213-.017-.318-.049-7.798-2.382-6.524-14.281-6.468-14.786a1.09 1.09 0 1 1 2.167.248c-.012.104-1.127 10.6 4.938 12.452.575.177.898.786.725 1.362-.146.47-.577.773-1.044.773"/></g></g></g></g></g></g></g></svg>