<svg xmlns="http://www.w3.org/2000/svg" xmlns:xlink="http://www.w3.org/1999/xlink" width="540.042" height="296.318"><defs><path id="a" d="M0 0h540.042v296.318H0z"/></defs><clipPath id="b"><use xlink:href="#a" overflow="visible"/></clipPath><g clip-path="url(#b)"><defs><path id="c" d="M0 0h540.042v296.318H0z"/></defs><clipPath id="d"><use xlink:href="#c" overflow="visible"/></clipPath><path clip-path="url(#d)" fill="#EEE" d="M440 296.312H100c-55 0-100-45-100-100s45-100 100-100h340c55 0 100 45 100 100s-45 100-100 100"/><path clip-path="url(#d)" fill="#222" d="M518.093 206.342c-.82 0-1.486-.665-1.486-1.486v-94.64c0-.162.027-.324.079-.478l3.316-9.77-3.334-11.498h-5.563l-3.164 11.487 3.32 9.781c.053.154.079.316.079.478v94.64a1.485 1.485 0 1 1-2.971 0v-94.395l-3.388-9.981a1.482 1.482 0 0 1-.026-.872l3.586-13.017a1.487 1.487 0 0 1 1.433-1.092h7.812c.661 0 1.242.437 1.426 1.072l3.775 13.018a1.48 1.48 0 0 1-.02.891l-3.39 9.981v94.395c0 .821-.665 1.486-1.484 1.486"/><path clip-path="url(#d)" fill="#53AD4D" d="M19.376 203.79c0 34.071 27.62 61.691 61.691 61.691s61.692-27.62 61.692-61.691-27.621-61.691-61.692-61.691c-34.07 0-61.691 27.619-61.691 61.691"/><path clip-path="url(#d)" fill="#FFF" d="M48.06 203.79c0 18.23 14.778 33.009 33.009 33.009 18.23 0 33.008-14.778 33.008-33.009 0-18.229-14.778-33.009-33.008-33.009-18.232 0-33.009 14.779-33.009 33.009"/><path clip-path="url(#d)" fill="#F9D564" d="M73.542 203.79a7.526 7.526 0 1 0 15.052 0 7.526 7.526 0 0 0-15.052 0"/><path clip-path="url(#d)" fill="#222" d="M81.068 254.046c-27.712 0-50.258-22.545-50.258-50.257 0-27.713 22.546-50.258 50.258-50.258 27.712 0 50.258 22.545 50.258 50.258 0 27.712-22.546 50.257-50.258 50.257m0-97.544c-26.074 0-47.287 21.214-47.287 47.287s21.213 47.286 47.287 47.286c26.074 0 47.287-21.213 47.287-47.286s-21.213-47.287-47.287-47.287"/><path clip-path="url(#d)" fill="#222" d="M81.068 223.706c-10.982 0-19.916-8.934-19.916-19.916s8.934-19.916 19.916-19.916c10.982 0 19.916 8.934 19.916 19.916s-8.934 19.916-19.916 19.916m0-36.862c-9.343 0-16.945 7.602-16.945 16.945s7.602 16.945 16.945 16.945 16.945-7.603 16.945-16.945c0-9.343-7.602-16.945-16.945-16.945"/><g opacity=".5" clip-path="url(#d)"><defs><path id="e" d="M174.524 49.295h220.453v247.001H174.524z"/></defs><clipPath id="f"><use xlink:href="#e" overflow="visible"/></clipPath><path clip-path="url(#f)" fill="#4086C6" d="M394.977 296.296V65.651c0-9.033-7.323-16.356-16.356-16.356H190.879c-9.033 0-16.356 7.323-16.356 16.356v230.646h220.454z"/></g><path clip-path="url(#d)" fill="#222" d="M396.462 65.65c0-9.838-8.004-17.842-17.842-17.842H190.88c-9.838 0-17.842 8.004-17.842 17.842v230.646l.002.021h2.967l.002-.021V65.65c0-8.2 6.671-14.871 14.871-14.871h187.74c8.2 0 14.871 6.671 14.871 14.871v230.646l.002.021h2.967l.002-.021V65.65z"/><path clip-path="url(#d)" fill="#FFF" d="M190.05 296.296V90.919c0-6.493 5.263-11.756 11.756-11.756h165.888c6.493 0 11.756 5.263 11.756 11.756v205.377h-189.4z"/><path clip-path="url(#d)" fill="#222" d="M380.936 90.919c0-7.301-5.94-13.242-13.241-13.242H201.807c-7.302 0-13.242 5.941-13.242 13.242v205.377l.002.021h2.967l.002-.021V90.919c0-5.663 4.608-10.271 10.271-10.271h165.888c5.662 0 10.271 4.608 10.271 10.271v205.377l.002.021h2.967l.002-.021V90.919z"/><path clip-path="url(#d)" fill="#F9D564" d="M201.073 102.274h45.868v27.379h-45.868zM201.073 191.167h45.868v27.379h-45.868z"/><path clip-path="url(#d)" fill="#53AD4D" d="M246.941 191.167h120.538v27.379H246.941zM261.342 102.274h45.868v27.379h-45.868z"/><path clip-path="url(#d)" fill="#F9D564" d="M321.611 102.274h45.867v27.379h-45.867zM201.073 229.331h45.868v27.379h-45.868z"/><g opacity=".5" clip-path="url(#d)"><defs><path id="g" d="M261.342 229.332h45.868v27.379h-45.868z"/></defs><clipPath id="h"><use xlink:href="#g" overflow="visible"/></clipPath><path clip-path="url(#h)" fill="#4086C6" d="M261.342 229.331h45.868v27.379h-45.868z"/></g><path clip-path="url(#d)" fill="#F9D564" d="M321.611 229.331h45.867v27.379h-45.867z"/><path clip-path="url(#d)" fill="#53AD4D" d="M335.834 262.874c0 9.033 7.322 16.355 16.355 16.355s16.356-7.322 16.356-16.355-7.323-16.356-16.356-16.356-16.355 7.322-16.355 16.356"/><path clip-path="url(#d)" fill="#F9D564" d="M176.009 1.485l3.711 7.519 8.298 1.206-6.005 5.853 1.419 8.265-7.423-3.902-7.422 3.902 1.418-8.265-6.004-5.853 8.297-1.206z"/><path clip-path="url(#d)" fill="#222" d="M183.431 25.813c-.236 0-.474-.056-.691-.17l-6.731-3.538-6.731 3.538c-.5.264-1.106.22-1.564-.113a1.488 1.488 0 0 1-.591-1.453l1.286-7.495-5.446-5.308a1.485 1.485 0 0 1 .824-2.533l7.524-1.094 3.366-6.818a1.485 1.485 0 0 1 2.665-.001l3.365 6.818 7.524 1.094a1.484 1.484 0 0 1 .823 2.533l-5.444 5.308 1.285 7.495a1.485 1.485 0 0 1-1.464 1.737m-16.238-14.565L171.042 15c.35.341.51.833.427 1.315l-.909 5.297 4.758-2.501c.433-.228.95-.228 1.382 0l4.758 2.501-.909-5.297a1.485 1.485 0 0 1 .427-1.315l3.849-3.752-5.319-.773a1.485 1.485 0 0 1-1.118-.812l-2.379-4.82-2.378 4.82a1.487 1.487 0 0 1-1.119.812l-5.319.773zM43.94 133.667c-7.24 0-13.13-5.89-13.13-13.13 0-7.241 5.89-13.131 13.13-13.131 7.24 0 13.13 5.89 13.13 13.131.001 7.239-5.889 13.13-13.13 13.13m0-23.291c-5.602 0-10.159 4.558-10.159 10.16s4.557 10.159 10.159 10.159 10.16-4.557 10.16-10.158c0-5.602-4.558-10.161-10.16-10.161M17.32 142.852c-4.348 0-7.886-3.538-7.886-7.886s3.538-7.886 7.886-7.886c4.348 0 7.886 3.538 7.886 7.886s-3.538 7.886-7.886 7.886m0-12.801c-2.71 0-4.915 2.205-4.915 4.915s2.205 4.914 4.915 4.914 4.915-2.204 4.915-4.914-2.205-4.915-4.915-4.915M150.819 283.796c-5.263 0-9.545-4.281-9.545-9.545 0-5.263 4.282-9.545 9.545-9.545s9.545 4.282 9.545 9.545c0 5.264-4.282 9.545-9.545 9.545m0-16.119c-3.625 0-6.574 2.949-6.574 6.574s2.949 6.574 6.574 6.574 6.574-2.949 6.574-6.574-2.949-6.574-6.574-6.574M109.84 273.371a1.487 1.487 0 0 1-.55-2.867c20.004-7.966 35.597-25.027 41.711-45.64a1.486 1.486 0 0 1 2.848.846c-6.371 21.478-22.617 39.255-43.46 47.554-.18.072-.366.107-.549.107M81.068 205.275a1.487 1.487 0 0 1-1.05-2.537l46.212-46.212 1.473-13.908c.036-.338.186-.654.427-.894l7.118-7.119.023-.022 7.782-7.783.031-.03 7.285-7.285a1.487 1.487 0 0 1 2.517 1.292l-2.21 13.404 13.405-2.21a1.486 1.486 0 0 1 1.292 2.517l-22.24 22.239c-.24.241-.556.391-.894.427l-13.908 1.474-46.212 46.212c-.29.29-.67.435-1.051.435m54.557-53.942l-3.952 3.952 9.731-1.029 3.837-3.838-9.616.915zm-5.023-7.879l-1.03 9.731 3.952-3.952.916-9.616-3.838 3.837zm12.832.071l-4.51 4.51 9.616-.916 4.51-4.51-9.616.916zm-5.695-7.207l-.916 9.616 4.51-4.511.916-9.615-4.51 4.51zm11.847 1.055l-2.853 2.853 9.616-.916 3.655-3.654-10.418 1.717zm-4.038-8.864l-.916 9.616 2.853-2.853 1.717-10.417-3.654 3.654zM107.024 134.873c-.084 0-.169-.007-.252-.021-.929-.16-22.902-4.215-36.484-30.366-9.179-17.673-13.478-44.041-13.657-45.155a1.487 1.487 0 0 1 2.934-.47c.043.268 4.405 27.013 13.36 44.255 12.143 23.382 31.648 28.233 34.097 28.756 2.435-.526 21.987-5.43 34.101-28.756 8.955-17.242 13.317-43.987 13.36-44.255a1.486 1.486 0 1 1 2.934.47c-.179 1.114-4.479 27.482-13.657 45.155-13.582 26.151-35.556 30.206-36.484 30.366a1.637 1.637 0 0 1-.252.021M142.979 52.719c-.268 0-.54-.073-.785-.225-15.044-9.378-30.732-29.627-35.169-35.588-4.435 5.957-20.103 26.181-35.137 35.568a1.487 1.487 0 0 1-1.574-2.521c16.863-10.528 35.318-36.167 35.502-36.425a1.488 1.488 0 0 1 2.417 0c.184.258 18.662 25.929 35.533 36.444a1.486 1.486 0 0 1-.787 2.747"/><path clip-path="url(#d)" fill="#222" d="M107.024 126.516a1.47 1.47 0 0 1-.522-.095c-.735-.276-18.144-7.002-28.923-27.758-7.312-14.079-10.734-35.066-10.876-35.952a1.486 1.486 0 0 1 1.467-1.721c14.369 0 37.415-31.971 37.646-32.294a1.485 1.485 0 0 1 2.417 0c.231.323 23.277 32.294 37.646 32.294a1.487 1.487 0 0 1 1.467 1.721c-.142.886-3.564 21.873-10.876 35.952-10.779 20.756-28.188 27.482-28.924 27.758a1.465 1.465 0 0 1-.522.095M69.917 63.839c.954 5.206 4.345 21.991 10.299 33.455 9.214 17.743 23.865 24.845 26.808 26.128 2.94-1.281 17.593-8.382 26.809-26.128 5.954-11.464 9.345-28.249 10.299-33.455-13.871-1.896-32.219-25.239-37.108-31.771-4.888 6.532-23.236 29.875-37.107 31.771"/><g opacity=".5" clip-path="url(#d)"><defs><path id="i" d="M93.809 73.355h26.431v18.608H93.809z"/></defs><clipPath id="j"><use xlink:href="#i" overflow="visible"/></clipPath><path clip-path="url(#j)" fill="#4086C6" d="M110.936 91.963h-7.823a9.305 9.305 0 0 1 0-18.608h7.823a9.304 9.304 0 1 1 0 18.608"/></g><path clip-path="url(#d)" fill="#222" d="M114.67 93.448H99.38a7.064 7.064 0 0 1-7.056-7.056v-7.467a7.064 7.064 0 0 1 7.056-7.056h15.29c3.89 0 7.056 3.165 7.056 7.056v7.467c0 3.891-3.166 7.056-7.056 7.056M99.38 74.84a4.09 4.09 0 0 0-4.085 4.085v7.467a4.09 4.09 0 0 0 4.085 4.085h15.29a4.09 4.09 0 0 0 4.085-4.085v-7.467a4.09 4.09 0 0 0-4.085-4.085H99.38z"/><path clip-path="url(#d)" fill="#222" d="M112.951 74.484c-.82 0-1.486-.665-1.486-1.485v-7.467a4.446 4.446 0 0 0-4.44-4.441 4.446 4.446 0 0 0-4.441 4.441v7.349a1.485 1.485 0 0 1-2.971 0v-7.349c0-4.086 3.325-7.412 7.412-7.412s7.412 3.326 7.412 7.412V73c0 .819-.666 1.484-1.486 1.484M107.024 88.47c-.82 0-1.486-.665-1.486-1.485v-4.919a1.486 1.486 0 0 1 2.971 0v4.919c0 .82-.664 1.485-1.485 1.485M338.984 39.644H198.593a1.485 1.485 0 0 1 0-2.971h140.391a1.485 1.485 0 0 1 0 2.971M295.049 66.703h-56.713a1.486 1.486 0 1 1 0-2.971h56.713a1.485 1.485 0 0 1 0 2.971"/><path clip-path="url(#d)" fill="#FFF" d="M306.339 65.217a3.777 3.777 0 1 0 7.555 0 3.779 3.779 0 0 0-7.555 0"/><path clip-path="url(#d)" fill="#222" d="M310.116 70.48a5.269 5.269 0 0 1-5.263-5.263 5.269 5.269 0 0 1 5.263-5.264 5.27 5.27 0 0 1 5.264 5.264 5.268 5.268 0 0 1-5.264 5.263m0-7.556a2.295 2.295 0 0 0-2.292 2.293c0 1.264 1.028 2.292 2.292 2.292s2.293-1.028 2.293-2.292a2.297 2.297 0 0 0-2.293-2.293"/><path clip-path="url(#d)" fill="#FFF" d="M323.608 65.217a3.777 3.777 0 1 0 7.555.001 3.777 3.777 0 0 0-7.555-.001"/><path clip-path="url(#d)" fill="#222" d="M327.386 70.48a5.27 5.27 0 0 1-5.263-5.263 5.27 5.27 0 0 1 5.263-5.264 5.27 5.27 0 0 1 5.265 5.264 5.27 5.27 0 0 1-5.265 5.263m0-7.556a2.295 2.295 0 0 0-2.292 2.293 2.294 2.294 0 0 0 2.292 2.292 2.295 2.295 0 0 0 2.293-2.292 2.297 2.297 0 0 0-2.293-2.293M414.765 48.884c-6.766 0-12.271-5.504-12.271-12.271 0-6.766 5.505-12.271 12.271-12.271 6.767 0 12.271 5.505 12.271 12.271 0 6.767-5.505 12.271-12.271 12.271m0-21.571c-5.128 0-9.3 4.172-9.3 9.3s4.172 9.3 9.3 9.3 9.301-4.172 9.301-9.3-4.173-9.3-9.301-9.3M246.941 144.724h-45.868a1.486 1.486 0 1 1 0-2.971h45.868a1.485 1.485 0 0 1 0 2.971M246.941 155.179h-45.868a1.485 1.485 0 1 1 0-2.97h45.868a1.485 1.485 0 0 1 0 2.97M246.941 165.635h-45.868a1.485 1.485 0 1 1 0-2.971h45.868a1.485 1.485 0 0 1 0 2.971M246.941 176.09h-45.868a1.485 1.485 0 1 1 0-2.97h45.868a1.485 1.485 0 0 1 0 2.97M307.21 144.724h-45.869a1.485 1.485 0 0 1 0-2.971h45.869a1.486 1.486 0 0 1 0 2.971M307.21 155.179h-45.869a1.485 1.485 0 0 1 0-2.97h45.869a1.486 1.486 0 0 1 0 2.97M307.21 165.635h-45.869a1.485 1.485 0 0 1 0-2.971h45.869a1.486 1.486 0 0 1 0 2.971M307.21 176.09h-45.869a1.485 1.485 0 1 1 0-2.97h45.869a1.486 1.486 0 0 1 0 2.97M367.479 144.724h-45.868a1.486 1.486 0 1 1 0-2.971h45.868a1.486 1.486 0 0 1 0 2.971M367.479 155.179h-45.868a1.485 1.485 0 1 1 0-2.97h45.868a1.486 1.486 0 0 1 0 2.97M367.479 165.635h-45.868a1.485 1.485 0 1 1 0-2.971h45.868a1.486 1.486 0 0 1 0 2.971M367.479 176.09h-45.868a1.485 1.485 0 1 1 0-2.97h45.868a1.486 1.486 0 0 1 0 2.97M355.567 201.453h-94.226a1.485 1.485 0 0 1 0-2.97h94.226a1.486 1.486 0 0 1 0 2.97M297.254 211.231h-35.913a1.485 1.485 0 0 1 0-2.97h35.913a1.485 1.485 0 0 1 0 2.97M246.941 268.034h-45.868a1.485 1.485 0 1 1 0-2.971h45.868a1.485 1.485 0 0 1 0 2.971M246.941 275.737h-45.868a1.485 1.485 0 1 1 0-2.97h45.868a1.485 1.485 0 0 1 0 2.97M246.941 283.441h-45.868a1.485 1.485 0 1 1 0-2.97h45.868a1.485 1.485 0 0 1 0 2.97M307.21 268.034h-45.869a1.485 1.485 0 0 1 0-2.971h45.869a1.486 1.486 0 0 1 0 2.971M307.21 275.737h-45.869a1.485 1.485 0 0 1 0-2.97h45.869a1.486 1.486 0 0 1 0 2.97M307.21 283.441h-45.869a1.485 1.485 0 0 1 0-2.97h45.869a1.486 1.486 0 0 1 0 2.97"/><path clip-path="url(#d)" fill="#FFF" d="M352.189 274.522c-.82 0-1.486-.665-1.486-1.485v-8.678h-8.677a1.485 1.485 0 1 1 0-2.97h8.677v-8.678a1.486 1.486 0 0 1 2.972 0v8.678h8.677a1.485 1.485 0 1 1 0 2.97h-8.677v8.678a1.485 1.485 0 0 1-1.486 1.485"/><path clip-path="url(#d)" fill="#222" d="M405.525 174.282c-.82 0-1.486-.665-1.486-1.485v-65.899a1.486 1.486 0 0 1 2.972 0v65.899a1.485 1.485 0 0 1-1.486 1.485M407.011 217.124a1.486 1.486 0 0 0-2.97 0v78.214c0 .378.145.719.378.98h2.215a1.47 1.47 0 0 0 .378-.98v-78.214zM476.699 109.409c2.532-2.77 5.897-6.454 9.576-10.493 8.156-8.958 1.697-19.416 1.062-20.393l-11.354-20.18a1.489 1.489 0 0 0-1.888-.639l-12.891 5.549a1.491 1.491 0 0 0-.843 1.781l5.479 19.036c.515 1.792-.224 3.734-1.683 4.42-5.273 2.482-12.708 2.489-17.675.015-1.49-.742-2.226-2.649-1.712-4.435l5.479-19.036a1.49 1.49 0 0 0-.844-1.781l-12.89-5.549a1.488 1.488 0 0 0-1.888.639l-11.354 20.18c-.636.977-7.095 11.435 1.062 20.393 3.679 4.039 7.043 7.723 9.574 10.493 2.928 3.201 4.261 7.2 4.261 9.562v177.347h2.98V118.971c0-3.625-2.024-8.276-5.04-11.574-2.531-2.768-5.894-6.45-9.57-10.489-6.911-7.589-1.019-16.394-.766-16.762a1.76 1.76 0 0 0 .073-.117l10.721-19.057 10.452 4.5-5.115 17.774c-.921 3.198.446 6.532 3.248 7.928 5.809 2.891 14.146 2.896 20.272.014 2.794-1.314 4.204-4.729 3.278-7.942l-5.114-17.774 10.452-4.5 10.721 19.057c.021.038.047.078.071.114.254.371 6.146 9.176-.764 16.765-3.677 4.039-7.04 7.721-9.57 10.489-3.016 3.297-5.041 7.948-5.041 11.574v172.875l2.981-.967V118.971c.001-2.363 1.333-6.362 4.26-9.562"/><path clip-path="url(#d)" fill="#222" d="M454.405 101.493c-11.869 0-16.696-5.52-16.947-5.816a1.486 1.486 0 0 1 2.265-1.924c.111.125 7.053 7.738 25.195 3.431a1.486 1.486 0 0 1 .685 2.891c-4.277 1.016-7.995 1.418-11.198 1.418"/><path clip-path="url(#d)" fill="#FFF" d="M460.639 296.318V128.985c0-1.54-2.389-3.954-5.334-3.954s-5.333 2.414-5.333 3.954v167.333h10.667z"/><path clip-path="url(#d)" fill="#222" d="M502.951 186.726c-.82 0-1.486-.665-1.486-1.486v-48.357a1.486 1.486 0 0 1 2.971 0v48.357a1.485 1.485 0 0 1-1.485 1.486M437.107 24.823a6.234 6.234 0 0 1-6.227-6.227c0-3.433 2.793-6.226 6.227-6.226s6.227 2.793 6.227 6.226a6.234 6.234 0 0 1-6.227 6.227m0-9.482c-1.795 0-3.256 1.46-3.256 3.255s1.461 3.256 3.256 3.256 3.255-1.461 3.255-3.256-1.46-3.255-3.255-3.255M107.025 136.5c-.82 0-1.486-.665-1.486-1.485v-1.629a1.486 1.486 0 0 1 2.971 0v1.629c0 .82-.665 1.485-1.485 1.485M107.025 142.121c-.82 0-1.486-.665-1.486-1.486v-1.873a1.486 1.486 0 0 1 2.971 0v1.873c0 .821-.665 1.486-1.485 1.486M107.025 147.495c-.82 0-1.486-.665-1.486-1.486v-1.628a1.486 1.486 0 0 1 2.971 0v1.628c0 .821-.665 1.486-1.485 1.486M398.501 200.653h-1.628a1.486 1.486 0 0 1 0-2.971h1.628a1.486 1.486 0 0 1 0 2.971M430.845 200.653h-3.595a1.485 1.485 0 0 1 0-2.971h3.595a1.486 1.486 0 0 1 0 2.971m-10.782 0h-3.593a1.485 1.485 0 1 1 0-2.971h3.593a1.485 1.485 0 0 1 0 2.971m-10.781 0h-3.594a1.485 1.485 0 0 1 0-2.971h3.594a1.485 1.485 0 0 1 0 2.971M439.66 200.653h-1.628a1.486 1.486 0 0 1 0-2.971h1.628a1.486 1.486 0 0 1 0 2.971M154.099 220.469c-.78 0-1.459-.555-1.615-1.32a1.65 1.65 0 0 1 1.617-1.977c.78 0 1.459.555 1.615 1.319a1.65 1.65 0 0 1-1.617 1.978M344.481 39.705c-.731 0-1.367-.52-1.515-1.237a1.549 1.549 0 0 1 1.517-1.855c.729 0 1.366.521 1.513 1.237.083.405.003.818-.226 1.162a1.538 1.538 0 0 1-1.289.693M470.356 98.405c-.73 0-1.366-.52-1.514-1.237a1.549 1.549 0 0 1 1.516-1.854c.731 0 1.368.52 1.515 1.237a1.548 1.548 0 0 1-1.517 1.854M405.524 180.689a1.552 1.552 0 0 1-1.514-1.237 1.547 1.547 0 0 1 1.516-1.853c.729 0 1.367.52 1.513 1.236a1.546 1.546 0 0 1-1.515 1.854M502.95 193.866c-.73 0-1.367-.521-1.514-1.237a1.548 1.548 0 0 1 1.516-1.853c.73 0 1.367.52 1.514 1.236a1.546 1.546 0 0 1-1.516 1.854M106.958 84.668a3.086 3.086 0 0 1-3.083-3.083c0-1.701 1.383-3.084 3.083-3.084s3.083 1.383 3.083 3.084c0 1.7-1.383 3.083-3.083 3.083M174.523 205.275h-2.459a1.485 1.485 0 0 1 0-2.97h2.459a1.485 1.485 0 1 1 0 2.97m-8.971 0h-3.256a1.485 1.485 0 1 1 0-2.97h3.256a1.486 1.486 0 0 1 0 2.97m-9.768 0h-3.257a1.485 1.485 0 0 1 0-2.97h3.257a1.485 1.485 0 0 1 0 2.97m-9.768 0h-3.256a1.485 1.485 0 1 1 0-2.97h3.256a1.485 1.485 0 0 1 0 2.97"/></g><g clip-path="url(#b)"><defs><path id="k" d="M100 96.305c-55 0-100 45-100 100v.001c0 54.999 45 99.999 100 99.999h340c55 0 100-45 100-99.999v-.001c0-55-45-100-100-100H100z"/></defs><clipPath id="l"><use xlink:href="#k" overflow="visible"/></clipPath><g opacity=".5" clip-path="url(#l)"><defs><path id="m" d="M485.932 204.856h52.624v10.371h-52.624z"/></defs><clipPath id="n"><use xlink:href="#m" overflow="visible"/></clipPath><path clip-path="url(#n)" fill="#4086C6" d="M533.37 215.227h-42.254a5.186 5.186 0 0 1 0-10.372h42.254a5.186 5.186 0 0 1 0 10.372"/></g><path clip-path="url(#l)" fill="#222" d="M534.793 216.712h-45.098a5.254 5.254 0 0 1-5.249-5.248v-2.846a5.254 5.254 0 0 1 5.249-5.248h45.098a5.254 5.254 0 0 1 5.249 5.248v2.846a5.254 5.254 0 0 1-5.249 5.248m-45.098-10.37a2.279 2.279 0 0 0-2.278 2.276v2.846a2.28 2.28 0 0 0 2.278 2.277h45.098a2.28 2.28 0 0 0 2.278-2.277v-2.846a2.28 2.28 0 0 0-2.278-2.276h-45.098z"/><path clip-path="url(#l)" fill="#F9D564" d="M528.541 226.724h-32.595a5.747 5.747 0 0 1-5.747-5.748 5.747 5.747 0 0 1 5.747-5.749h32.595a5.748 5.748 0 1 1 0 11.497"/><path clip-path="url(#l)" fill="#222" d="M530.496 228.209h-36.505a5.284 5.284 0 0 1-5.278-5.278v-3.911a5.284 5.284 0 0 1 5.278-5.278h36.505a5.284 5.284 0 0 1 5.278 5.278v3.911a5.284 5.284 0 0 1-5.278 5.278m-36.505-11.497a2.311 2.311 0 0 0-2.308 2.308v3.911a2.311 2.311 0 0 0 2.308 2.308h36.505a2.31 2.31 0 0 0 2.308-2.308v-3.911a2.31 2.31 0 0 0-2.308-2.308h-36.505z"/><g opacity=".5" clip-path="url(#l)"><defs><path id="o" d="M497.665 226.724h29.157v69.594h-29.157z"/></defs><clipPath id="p"><use xlink:href="#o" overflow="visible"/></clipPath><path clip-path="url(#p)" fill="#4086C6" d="M497.665 226.724h29.157v69.594h-29.157z"/></g><path clip-path="url(#l)" fill="#222" d="M526.822 225.238h-29.157c-.82 0-1.486.666-1.486 1.486v69.594h2.973V228.21h26.185v68.108h2.972v-69.594a1.488 1.488 0 0 0-1.487-1.486M1.527 205.275c-.82 0-1.486-.665-1.486-1.485 0-17.175 5.401-33.519 15.619-47.263a1.486 1.486 0 0 1 2.384 1.772c-9.833 13.229-15.031 28.959-15.031 45.49 0 .821-.666 1.486-1.486 1.486M453.575 123.537c-3.677 0-6.828 2.996-6.828 5.448v167.333h2.988V128.985c.001-.594 1.596-2.46 3.84-2.46s3.839 1.866 3.84 2.46v167.333h2.988V128.985c0-2.452-3.151-5.448-6.828-5.448M79.338 269.662c-.82 0-1.486-.665-1.486-1.486v-1.628a1.486 1.486 0 0 1 2.972 0v1.628c0 .821-.666 1.486-1.486 1.486M79.338 288.811c-.82 0-1.486-.665-1.486-1.485v-3.191a1.486 1.486 0 0 1 2.972 0v3.191c0 .82-.666 1.485-1.486 1.485m0-9.575c-.82 0-1.486-.665-1.486-1.485v-3.191a1.487 1.487 0 0 1 2.972 0v3.191c0 .82-.666 1.485-1.486 1.485M80.824 293.709a1.486 1.486 0 0 0-2.971 0v1.628c0 .378.145.719.378.98h2.215a1.47 1.47 0 0 0 .378-.98v-1.628zM470.848 211.527h-1.628a1.485 1.485 0 0 1 0-2.97h1.628a1.486 1.486 0 0 1 0 2.97M478.353 211.527h-2.501a1.485 1.485 0 1 1 0-2.97h2.501a1.486 1.486 0 0 1 0 2.97M484.983 211.527h-1.628a1.485 1.485 0 1 1 0-2.97h1.628a1.485 1.485 0 0 1 0 2.97"/><path clip-path="url(#l)" fill="#FFF" d="M519.829 240.907h-15.171a1.485 1.485 0 1 1 0-2.97h15.171a1.486 1.486 0 0 1 0 2.97M519.829 250.33h-15.171a1.485 1.485 0 0 1 0-2.971h15.171a1.486 1.486 0 0 1 0 2.971M519.829 259.752h-15.171a1.485 1.485 0 0 1 0-2.97h15.171a1.486 1.486 0 0 1 0 2.97M519.829 269.175h-15.171a1.485 1.485 0 0 1 0-2.971h15.171a1.486 1.486 0 0 1 0 2.971M519.829 278.597h-15.171a1.485 1.485 0 0 1 0-2.97h15.171a1.486 1.486 0 1 1 0 2.97M519.829 288.02h-15.171a1.485 1.485 0 0 1 0-2.971h15.171a1.486 1.486 0 0 1 0 2.971"/></g></svg>