<?xml version="1.0" encoding="utf-8"?>
<!-- Generator: Adobe Illustrator 16.0.0, SVG Export Plug-In . SVG Version: 6.00 Build 0)  -->
<!DOCTYPE svg PUBLIC "-//W3C//DTD SVG 1.1//EN" "http://www.w3.org/Graphics/SVG/1.1/DTD/svg11.dtd">
<svg version="1.1" id="Layer_1" xmlns="http://www.w3.org/2000/svg" xmlns:xlink="http://www.w3.org/1999/xlink" x="0px" y="0px"
	 width="540.042px" height="296.318px" viewBox="0 0 540.042 296.318" enable-background="new 0 0 540.042 296.318"
	 xml:space="preserve">
<g>
	<defs>
		<rect id="SVGID_1_" width="540.042" height="296.318"/>
	</defs>
	<clipPath id="SVGID_2_">
		<use xlink:href="#SVGID_1_"  overflow="visible"/>
	</clipPath>
	<g clip-path="url(#SVGID_2_)">
		<defs>
			<rect id="SVGID_3_" width="540.042" height="296.318"/>
		</defs>
		<clipPath id="SVGID_4_">
			<use xlink:href="#SVGID_3_"  overflow="visible"/>
		</clipPath>
		<path clip-path="url(#SVGID_4_)" fill="#EEEEEE" d="M440,296.312H100c-55,0-100-45-100-100c0-55,45-100,100-100h340
			c55,0,100,45,100,100C540,251.312,495,296.312,440,296.312"/>
		<path clip-path="url(#SVGID_4_)" fill="#222222" d="M518.093,206.342c-0.82,0-1.486-0.665-1.486-1.486v-94.64
			c0-0.162,0.027-0.324,0.079-0.478l3.316-9.77l-3.334-11.498h-5.563l-3.164,11.487l3.32,9.781c0.053,0.154,0.079,0.316,0.079,0.478
			v94.64c0,0.821-0.665,1.486-1.485,1.486c-0.821,0-1.486-0.665-1.486-1.486v-94.395l-3.388-9.981
			c-0.096-0.281-0.105-0.585-0.026-0.872l3.586-13.017c0.178-0.645,0.764-1.092,1.433-1.092h7.812c0.661,0,1.242,0.437,1.426,1.072
			l3.775,13.018c0.085,0.292,0.078,0.603-0.02,0.891l-3.39,9.981v94.395C519.577,205.677,518.912,206.342,518.093,206.342"/>
		<path clip-path="url(#SVGID_4_)" fill="#53AD4D" d="M19.376,203.79c0,34.071,27.62,61.691,61.691,61.691
			c34.071,0,61.692-27.62,61.692-61.691s-27.621-61.691-61.692-61.691C46.997,142.099,19.376,169.718,19.376,203.79"/>
		<path clip-path="url(#SVGID_4_)" fill="#FFFFFF" d="M48.06,203.79c0,18.23,14.778,33.009,33.009,33.009
			c18.23,0,33.008-14.778,33.008-33.009c0-18.229-14.778-33.009-33.008-33.009C62.837,170.781,48.06,185.56,48.06,203.79"/>
		<path clip-path="url(#SVGID_4_)" fill="#F9D564" d="M73.542,203.79c0,4.157,3.37,7.526,7.526,7.526
			c4.157,0,7.526-3.369,7.526-7.526s-3.369-7.526-7.526-7.526C76.912,196.263,73.542,199.632,73.542,203.79"/>
		<path clip-path="url(#SVGID_4_)" fill="#222222" d="M81.068,254.046c-27.712,0-50.258-22.545-50.258-50.257
			c0-27.713,22.546-50.258,50.258-50.258c27.712,0,50.258,22.545,50.258,50.258C131.326,231.501,108.78,254.046,81.068,254.046
			 M81.068,156.502c-26.074,0-47.287,21.214-47.287,47.287s21.213,47.286,47.287,47.286c26.074,0,47.287-21.213,47.287-47.286
			S107.142,156.502,81.068,156.502"/>
		<path clip-path="url(#SVGID_4_)" fill="#222222" d="M81.068,223.706c-10.982,0-19.916-8.934-19.916-19.916
			s8.934-19.916,19.916-19.916c10.982,0,19.916,8.934,19.916,19.916S92.05,223.706,81.068,223.706 M81.068,186.844
			c-9.343,0-16.945,7.602-16.945,16.945c0,9.343,7.602,16.945,16.945,16.945c9.343,0,16.945-7.603,16.945-16.945
			C98.013,194.446,90.411,186.844,81.068,186.844"/>
		<g opacity="0.5" clip-path="url(#SVGID_4_)">
			<g>
				<defs>
					<rect id="SVGID_5_" x="174.524" y="49.295" width="220.453" height="247.001"/>
				</defs>
				<clipPath id="SVGID_6_">
					<use xlink:href="#SVGID_5_"  overflow="visible"/>
				</clipPath>
				<path clip-path="url(#SVGID_6_)" fill="#4086C6" d="M394.977,296.296V65.651c0-9.033-7.323-16.356-16.356-16.356H190.879
					c-9.033,0-16.356,7.323-16.356,16.356v230.646H394.977z"/>
			</g>
		</g>
		<path clip-path="url(#SVGID_4_)" fill="#222222" d="M396.462,65.65c0-9.838-8.004-17.842-17.842-17.842H190.88
			c-9.838,0-17.842,8.004-17.842,17.842v230.646c0,0.008,0.002,0.015,0.002,0.021h2.967c0-0.007,0.002-0.014,0.002-0.021V65.65
			c0-8.2,6.671-14.871,14.871-14.871h187.74c8.2,0,14.871,6.671,14.871,14.871v230.646c0,0.008,0.002,0.015,0.002,0.021h2.967
			c0-0.007,0.002-0.014,0.002-0.021V65.65z"/>
		<path clip-path="url(#SVGID_4_)" fill="#FFFFFF" d="M190.05,296.296V90.919c0-6.493,5.263-11.756,11.756-11.756h165.888
			c6.493,0,11.756,5.263,11.756,11.756v205.377H190.05z"/>
		<path clip-path="url(#SVGID_4_)" fill="#222222" d="M380.936,90.919c0-7.301-5.94-13.242-13.241-13.242H201.807
			c-7.302,0-13.242,5.941-13.242,13.242v205.377c0,0.008,0.002,0.015,0.002,0.021h2.967c0-0.007,0.002-0.014,0.002-0.021V90.919
			c0-5.663,4.608-10.271,10.271-10.271h165.888c5.662,0,10.271,4.608,10.271,10.271v205.377c0,0.008,0.002,0.015,0.002,0.021h2.967
			c0-0.007,0.002-0.014,0.002-0.021V90.919z"/>
		<rect x="201.073" y="102.274" clip-path="url(#SVGID_4_)" fill="#F9D564" width="45.868" height="27.379"/>
		<rect x="201.073" y="191.167" clip-path="url(#SVGID_4_)" fill="#F9D564" width="45.868" height="27.379"/>
		<rect x="246.941" y="191.167" clip-path="url(#SVGID_4_)" fill="#53AD4D" width="120.538" height="27.379"/>
		<rect x="261.342" y="102.274" clip-path="url(#SVGID_4_)" fill="#53AD4D" width="45.868" height="27.379"/>
		<rect x="321.611" y="102.274" clip-path="url(#SVGID_4_)" fill="#F9D564" width="45.867" height="27.379"/>
		<rect x="201.073" y="229.331" clip-path="url(#SVGID_4_)" fill="#F9D564" width="45.868" height="27.379"/>
		<g opacity="0.5" clip-path="url(#SVGID_4_)">
			<g>
				<defs>
					<rect id="SVGID_7_" x="261.342" y="229.332" width="45.868" height="27.379"/>
				</defs>
				<clipPath id="SVGID_8_">
					<use xlink:href="#SVGID_7_"  overflow="visible"/>
				</clipPath>
				<rect x="261.342" y="229.331" clip-path="url(#SVGID_8_)" fill="#4086C6" width="45.868" height="27.379"/>
			</g>
		</g>
		<rect x="321.611" y="229.331" clip-path="url(#SVGID_4_)" fill="#F9D564" width="45.867" height="27.379"/>
		<path clip-path="url(#SVGID_4_)" fill="#53AD4D" d="M335.834,262.874c0,9.033,7.322,16.355,16.355,16.355
			s16.356-7.322,16.356-16.355s-7.323-16.356-16.356-16.356S335.834,253.84,335.834,262.874"/>
		<polygon clip-path="url(#SVGID_4_)" fill="#F9D564" points="176.009,1.485 179.72,9.004 188.018,10.21 182.013,16.063 
			183.432,24.328 176.009,20.426 168.587,24.328 170.005,16.063 164.001,10.21 172.298,9.004 		"/>
		<path clip-path="url(#SVGID_4_)" fill="#222222" d="M183.431,25.813c-0.236,0-0.474-0.056-0.691-0.17l-6.731-3.538l-6.731,3.538
			c-0.5,0.264-1.106,0.22-1.564-0.113c-0.457-0.333-0.686-0.896-0.591-1.453l1.286-7.495l-5.446-5.308
			c-0.405-0.394-0.55-0.984-0.376-1.522c0.175-0.538,0.64-0.93,1.2-1.011l7.524-1.094l3.366-6.818
			C174.927,0.321,175.444,0,176.009,0c0.566,0,1.082,0.321,1.333,0.828l3.365,6.818l7.524,1.094c0.56,0.081,1.024,0.473,1.199,1.011
			c0.175,0.538,0.029,1.128-0.376,1.522l-5.444,5.308l1.285,7.495c0.096,0.557-0.133,1.12-0.591,1.453
			C184.045,25.717,183.739,25.813,183.431,25.813 M167.193,11.248L171.042,15c0.35,0.341,0.51,0.833,0.427,1.315l-0.909,5.297
			l4.758-2.501c0.433-0.228,0.95-0.228,1.382,0l4.758,2.501l-0.909-5.297c-0.083-0.482,0.077-0.974,0.427-1.315l3.849-3.752
			l-5.319-0.773c-0.483-0.07-0.902-0.374-1.118-0.812l-2.379-4.82l-2.378,4.82c-0.217,0.438-0.635,0.742-1.119,0.812L167.193,11.248
			z"/>
		<path clip-path="url(#SVGID_4_)" fill="#222222" d="M43.94,133.667c-7.24,0-13.13-5.89-13.13-13.13
			c0-7.241,5.89-13.131,13.13-13.131c7.24,0,13.13,5.89,13.13,13.131C57.071,127.776,51.181,133.667,43.94,133.667 M43.94,110.376
			c-5.602,0-10.159,4.558-10.159,10.16c0,5.602,4.557,10.159,10.159,10.159S54.1,126.138,54.1,120.537
			C54.1,114.935,49.542,110.376,43.94,110.376"/>
		<path clip-path="url(#SVGID_4_)" fill="#222222" d="M17.32,142.852c-4.348,0-7.886-3.538-7.886-7.886s3.538-7.886,7.886-7.886
			c4.348,0,7.886,3.538,7.886,7.886S21.668,142.852,17.32,142.852 M17.32,130.051c-2.71,0-4.915,2.205-4.915,4.915
			s2.205,4.914,4.915,4.914c2.71,0,4.915-2.204,4.915-4.914S20.03,130.051,17.32,130.051"/>
		<path clip-path="url(#SVGID_4_)" fill="#222222" d="M150.819,283.796c-5.263,0-9.545-4.281-9.545-9.545
			c0-5.263,4.282-9.545,9.545-9.545s9.545,4.282,9.545,9.545C160.364,279.515,156.082,283.796,150.819,283.796 M150.819,267.677
			c-3.625,0-6.574,2.949-6.574,6.574s2.949,6.574,6.574,6.574s6.574-2.949,6.574-6.574S154.444,267.677,150.819,267.677"/>
		<path clip-path="url(#SVGID_4_)" fill="#222222" d="M109.84,273.371c-0.591,0-1.149-0.355-1.381-0.937
			c-0.303-0.763,0.069-1.627,0.831-1.93c20.004-7.966,35.597-25.027,41.711-45.64c0.233-0.786,1.06-1.232,1.846-1.002
			c0.787,0.233,1.236,1.061,1.002,1.848c-6.371,21.478-22.617,39.255-43.46,47.554C110.209,273.336,110.023,273.371,109.84,273.371"
			/>
		<path clip-path="url(#SVGID_4_)" fill="#222222" d="M81.068,205.275c-0.38,0-0.76-0.145-1.05-0.435c-0.58-0.58-0.58-1.521,0-2.102
			l46.212-46.212l1.473-13.908c0.036-0.338,0.186-0.654,0.427-0.894l7.118-7.119c0.008-0.007,0.015-0.014,0.023-0.022l7.782-7.783
			c0.01-0.01,0.021-0.02,0.031-0.03l7.285-7.285c0.456-0.457,1.156-0.566,1.73-0.272c0.573,0.295,0.892,0.927,0.787,1.564
			l-2.21,13.404l13.405-2.21c0.637-0.104,1.268,0.213,1.563,0.788c0.295,0.574,0.185,1.272-0.271,1.729l-22.24,22.239
			c-0.24,0.241-0.556,0.391-0.894,0.427l-13.908,1.474L82.119,204.84C81.829,205.13,81.449,205.275,81.068,205.275 M135.625,151.333
			l-3.952,3.952l9.731-1.029l3.837-3.838L135.625,151.333z M130.602,143.454l-1.03,9.731l3.952-3.952l0.916-9.616L130.602,143.454z
			 M143.434,143.525l-4.51,4.51l9.616-0.916l4.51-4.51L143.434,143.525z M137.739,136.318l-0.916,9.616l4.51-4.511l0.916-9.615
			L137.739,136.318z M149.586,137.373l-2.853,2.853l9.616-0.916l3.655-3.654L149.586,137.373z M145.548,128.509l-0.916,9.616
			l2.853-2.853l1.717-10.417L145.548,128.509z"/>
		<path clip-path="url(#SVGID_4_)" fill="#222222" d="M107.024,134.873c-0.084,0-0.169-0.007-0.252-0.021
			c-0.929-0.16-22.902-4.215-36.484-30.366c-9.179-17.673-13.478-44.041-13.657-45.155c-0.129-0.81,0.422-1.572,1.232-1.702
			c0.813-0.128,1.573,0.422,1.702,1.232c0.043,0.268,4.405,27.013,13.36,44.255c12.143,23.382,31.648,28.233,34.097,28.756
			c2.435-0.526,21.987-5.43,34.101-28.756c8.955-17.242,13.317-43.987,13.36-44.255c0.13-0.81,0.89-1.361,1.702-1.232
			c0.81,0.13,1.361,0.892,1.232,1.702c-0.179,1.114-4.479,27.482-13.657,45.155c-13.582,26.151-35.556,30.206-36.484,30.366
			C107.193,134.865,107.108,134.873,107.024,134.873"/>
		<path clip-path="url(#SVGID_4_)" fill="#222222" d="M142.979,52.719c-0.268,0-0.54-0.073-0.785-0.225
			c-15.044-9.378-30.732-29.627-35.169-35.588c-4.435,5.957-20.103,26.181-35.137,35.568c-0.696,0.433-1.612,0.222-2.047-0.474
			c-0.435-0.696-0.223-1.612,0.473-2.047c16.863-10.528,35.318-36.167,35.502-36.425c0.279-0.389,0.729-0.621,1.209-0.621
			c0.479,0,0.929,0.232,1.208,0.621c0.184,0.258,18.662,25.929,35.533,36.444c0.696,0.434,0.909,1.351,0.475,2.047
			C143.959,52.47,143.475,52.719,142.979,52.719"/>
		<path clip-path="url(#SVGID_4_)" fill="#222222" d="M107.024,126.516c-0.177,0-0.353-0.031-0.522-0.095
			c-0.735-0.276-18.144-7.002-28.923-27.758c-7.312-14.079-10.734-35.066-10.876-35.952c-0.069-0.43,0.054-0.868,0.336-1.199
			c0.282-0.331,0.696-0.522,1.131-0.522c14.369,0,37.415-31.971,37.646-32.294c0.279-0.39,0.729-0.621,1.208-0.621
			c0.48,0,0.93,0.231,1.209,0.621c0.231,0.323,23.277,32.294,37.646,32.294c0.435,0,0.849,0.191,1.131,0.522
			c0.282,0.331,0.405,0.769,0.336,1.199c-0.142,0.886-3.564,21.873-10.876,35.952c-10.779,20.756-28.188,27.482-28.924,27.758
			C107.378,126.485,107.201,126.516,107.024,126.516 M69.917,63.839c0.954,5.206,4.345,21.991,10.299,33.455
			c9.214,17.743,23.865,24.845,26.808,26.128c2.94-1.281,17.593-8.382,26.809-26.128c5.954-11.464,9.345-28.249,10.299-33.455
			c-13.871-1.896-32.219-25.239-37.108-31.771C102.136,38.6,83.788,61.943,69.917,63.839"/>
		<g opacity="0.5" clip-path="url(#SVGID_4_)">
			<g>
				<defs>
					<rect id="SVGID_9_" x="93.809" y="73.355" width="26.431" height="18.608"/>
				</defs>
				<clipPath id="SVGID_10_">
					<use xlink:href="#SVGID_9_"  overflow="visible"/>
				</clipPath>
				<path clip-path="url(#SVGID_10_)" fill="#4086C6" d="M110.936,91.963h-7.823c-5.138,0-9.304-4.166-9.304-9.304
					c0-5.139,4.166-9.304,9.304-9.304h7.823c5.138,0,9.304,4.165,9.304,9.304C120.24,87.797,116.074,91.963,110.936,91.963"/>
			</g>
		</g>
		<path clip-path="url(#SVGID_4_)" fill="#222222" d="M114.67,93.448H99.38c-3.891,0-7.056-3.165-7.056-7.056v-7.467
			c0-3.891,3.165-7.056,7.056-7.056h15.29c3.89,0,7.056,3.165,7.056,7.056v7.467C121.726,90.283,118.56,93.448,114.67,93.448
			 M99.38,74.84c-2.252,0-4.085,1.833-4.085,4.085v7.467c0,2.252,1.833,4.085,4.085,4.085h15.29c2.252,0,4.085-1.833,4.085-4.085
			v-7.467c0-2.252-1.833-4.085-4.085-4.085H99.38z"/>
		<path clip-path="url(#SVGID_4_)" fill="#222222" d="M112.951,74.484c-0.82,0-1.486-0.665-1.486-1.485v-7.467
			c0-2.448-1.992-4.441-4.44-4.441c-2.449,0-4.441,1.993-4.441,4.441v7.349c0,0.82-0.665,1.485-1.485,1.485
			c-0.821,0-1.486-0.665-1.486-1.485v-7.349c0-4.086,3.325-7.412,7.412-7.412c4.087,0,7.412,3.326,7.412,7.412V73
			C114.437,73.819,113.771,74.484,112.951,74.484"/>
		<path clip-path="url(#SVGID_4_)" fill="#222222" d="M107.024,88.47c-0.82,0-1.486-0.665-1.486-1.485v-4.919
			c0-0.821,0.666-1.486,1.486-1.486c0.82,0,1.485,0.665,1.485,1.486v4.919C108.509,87.805,107.845,88.47,107.024,88.47"/>
		<path clip-path="url(#SVGID_4_)" fill="#222222" d="M338.984,39.644H198.593c-0.82,0-1.485-0.665-1.485-1.485
			c0-0.821,0.665-1.486,1.485-1.486h140.391c0.819,0,1.484,0.665,1.484,1.486C340.469,38.979,339.804,39.644,338.984,39.644"/>
		<path clip-path="url(#SVGID_4_)" fill="#222222" d="M295.049,66.703h-56.713c-0.821,0-1.486-0.665-1.486-1.486
			c0-0.82,0.665-1.485,1.486-1.485h56.713c0.82,0,1.485,0.665,1.485,1.485C296.534,66.038,295.869,66.703,295.049,66.703"/>
		<path clip-path="url(#SVGID_4_)" fill="#FFFFFF" d="M306.339,65.217c0,2.087,1.69,3.778,3.777,3.778
			c2.086,0,3.778-1.691,3.778-3.778c0-2.086-1.692-3.778-3.778-3.778C308.029,61.439,306.339,63.131,306.339,65.217"/>
		<path clip-path="url(#SVGID_4_)" fill="#222222" d="M310.116,70.48c-2.902,0-5.263-2.361-5.263-5.263
			c0-2.903,2.36-5.264,5.263-5.264c2.903,0,5.264,2.361,5.264,5.264C315.38,68.12,313.02,70.48,310.116,70.48 M310.116,62.924
			c-1.264,0-2.292,1.029-2.292,2.293c0,1.264,1.028,2.292,2.292,2.292s2.293-1.028,2.293-2.292
			C312.409,63.954,311.38,62.924,310.116,62.924"/>
		<path clip-path="url(#SVGID_4_)" fill="#FFFFFF" d="M323.608,65.217c0,2.087,1.691,3.778,3.778,3.778
			c2.086,0,3.777-1.691,3.777-3.778c0-2.086-1.691-3.778-3.777-3.778C325.3,61.439,323.608,63.131,323.608,65.217"/>
		<path clip-path="url(#SVGID_4_)" fill="#222222" d="M327.386,70.48c-2.901,0-5.263-2.361-5.263-5.263
			c0-2.903,2.361-5.264,5.263-5.264c2.903,0,5.265,2.361,5.265,5.264C332.65,68.12,330.289,70.48,327.386,70.48 M327.386,62.924
			c-1.264,0-2.292,1.029-2.292,2.293c0,1.264,1.028,2.292,2.292,2.292c1.265,0,2.293-1.028,2.293-2.292
			C329.679,63.954,328.65,62.924,327.386,62.924"/>
		<path clip-path="url(#SVGID_4_)" fill="#222222" d="M414.765,48.884c-6.766,0-12.271-5.504-12.271-12.271
			c0-6.766,5.505-12.271,12.271-12.271c6.767,0,12.271,5.505,12.271,12.271C427.036,43.38,421.531,48.884,414.765,48.884
			 M414.765,27.313c-5.128,0-9.3,4.172-9.3,9.3s4.172,9.3,9.3,9.3s9.301-4.172,9.301-9.3S419.893,27.313,414.765,27.313"/>
		<path clip-path="url(#SVGID_4_)" fill="#222222" d="M246.941,144.724h-45.868c-0.821,0-1.486-0.665-1.486-1.486
			c0-0.82,0.665-1.485,1.486-1.485h45.868c0.82,0,1.485,0.665,1.485,1.485C248.426,144.059,247.761,144.724,246.941,144.724"/>
		<path clip-path="url(#SVGID_4_)" fill="#222222" d="M246.941,155.179h-45.868c-0.821,0-1.486-0.665-1.486-1.485
			s0.665-1.485,1.486-1.485h45.868c0.82,0,1.485,0.665,1.485,1.485S247.761,155.179,246.941,155.179"/>
		<path clip-path="url(#SVGID_4_)" fill="#222222" d="M246.941,165.635h-45.868c-0.821,0-1.486-0.665-1.486-1.485
			c0-0.821,0.665-1.486,1.486-1.486h45.868c0.82,0,1.485,0.665,1.485,1.486C248.426,164.97,247.761,165.635,246.941,165.635"/>
		<path clip-path="url(#SVGID_4_)" fill="#222222" d="M246.941,176.09h-45.868c-0.821,0-1.486-0.665-1.486-1.484
			c0-0.821,0.665-1.486,1.486-1.486h45.868c0.82,0,1.485,0.665,1.485,1.486C248.426,175.425,247.761,176.09,246.941,176.09"/>
		<path clip-path="url(#SVGID_4_)" fill="#222222" d="M307.21,144.724h-45.869c-0.82,0-1.485-0.665-1.485-1.486
			c0-0.82,0.665-1.485,1.485-1.485h45.869c0.82,0,1.486,0.665,1.486,1.485C308.696,144.059,308.03,144.724,307.21,144.724"/>
		<path clip-path="url(#SVGID_4_)" fill="#222222" d="M307.21,155.179h-45.869c-0.82,0-1.485-0.665-1.485-1.485
			s0.665-1.485,1.485-1.485h45.869c0.82,0,1.486,0.665,1.486,1.485S308.03,155.179,307.21,155.179"/>
		<path clip-path="url(#SVGID_4_)" fill="#222222" d="M307.21,165.635h-45.869c-0.82,0-1.485-0.665-1.485-1.485
			c0-0.821,0.665-1.486,1.485-1.486h45.869c0.82,0,1.486,0.665,1.486,1.486C308.696,164.97,308.03,165.635,307.21,165.635"/>
		<path clip-path="url(#SVGID_4_)" fill="#222222" d="M307.21,176.09h-45.869c-0.82,0-1.485-0.665-1.485-1.484
			c0-0.821,0.665-1.486,1.485-1.486h45.869c0.82,0,1.486,0.665,1.486,1.486C308.696,175.425,308.03,176.09,307.21,176.09"/>
		<path clip-path="url(#SVGID_4_)" fill="#222222" d="M367.479,144.724h-45.868c-0.821,0-1.486-0.665-1.486-1.486
			c0-0.82,0.665-1.485,1.486-1.485h45.868c0.82,0,1.486,0.665,1.486,1.485C368.966,144.059,368.3,144.724,367.479,144.724"/>
		<path clip-path="url(#SVGID_4_)" fill="#222222" d="M367.479,155.179h-45.868c-0.821,0-1.486-0.665-1.486-1.485
			s0.665-1.485,1.486-1.485h45.868c0.82,0,1.486,0.665,1.486,1.485S368.3,155.179,367.479,155.179"/>
		<path clip-path="url(#SVGID_4_)" fill="#222222" d="M367.479,165.635h-45.868c-0.821,0-1.486-0.665-1.486-1.485
			c0-0.821,0.665-1.486,1.486-1.486h45.868c0.82,0,1.486,0.665,1.486,1.486C368.966,164.97,368.3,165.635,367.479,165.635"/>
		<path clip-path="url(#SVGID_4_)" fill="#222222" d="M367.479,176.09h-45.868c-0.821,0-1.486-0.665-1.486-1.484
			c0-0.821,0.665-1.486,1.486-1.486h45.868c0.82,0,1.486,0.665,1.486,1.486C368.966,175.425,368.3,176.09,367.479,176.09"/>
		<path clip-path="url(#SVGID_4_)" fill="#222222" d="M355.567,201.453h-94.226c-0.82,0-1.485-0.665-1.485-1.485
			s0.665-1.485,1.485-1.485h94.226c0.82,0,1.486,0.665,1.486,1.485S356.388,201.453,355.567,201.453"/>
		<path clip-path="url(#SVGID_4_)" fill="#222222" d="M297.254,211.231h-35.913c-0.82,0-1.485-0.665-1.485-1.485
			s0.665-1.485,1.485-1.485h35.913c0.82,0,1.485,0.665,1.485,1.485S298.074,211.231,297.254,211.231"/>
		<path clip-path="url(#SVGID_4_)" fill="#222222" d="M246.941,268.034h-45.868c-0.821,0-1.486-0.665-1.486-1.485
			c0-0.821,0.665-1.486,1.486-1.486h45.868c0.82,0,1.485,0.665,1.485,1.486C248.426,267.369,247.761,268.034,246.941,268.034"/>
		<path clip-path="url(#SVGID_4_)" fill="#222222" d="M246.941,275.737h-45.868c-0.821,0-1.486-0.665-1.486-1.485
			s0.665-1.485,1.486-1.485h45.868c0.82,0,1.485,0.665,1.485,1.485S247.761,275.737,246.941,275.737"/>
		<path clip-path="url(#SVGID_4_)" fill="#222222" d="M246.941,283.441h-45.868c-0.821,0-1.486-0.665-1.486-1.485
			s0.665-1.485,1.486-1.485h45.868c0.82,0,1.485,0.665,1.485,1.485S247.761,283.441,246.941,283.441"/>
		<path clip-path="url(#SVGID_4_)" fill="#222222" d="M307.21,268.034h-45.869c-0.82,0-1.485-0.665-1.485-1.485
			c0-0.821,0.665-1.486,1.485-1.486h45.869c0.82,0,1.486,0.665,1.486,1.486C308.696,267.369,308.03,268.034,307.21,268.034"/>
		<path clip-path="url(#SVGID_4_)" fill="#222222" d="M307.21,275.737h-45.869c-0.82,0-1.485-0.665-1.485-1.485
			s0.665-1.485,1.485-1.485h45.869c0.82,0,1.486,0.665,1.486,1.485S308.03,275.737,307.21,275.737"/>
		<path clip-path="url(#SVGID_4_)" fill="#222222" d="M307.21,283.441h-45.869c-0.82,0-1.485-0.665-1.485-1.485
			s0.665-1.485,1.485-1.485h45.869c0.82,0,1.486,0.665,1.486,1.485S308.03,283.441,307.21,283.441"/>
		<path clip-path="url(#SVGID_4_)" fill="#FFFFFF" d="M352.189,274.522c-0.82,0-1.486-0.665-1.486-1.485v-8.678h-8.677
			c-0.82,0-1.485-0.664-1.485-1.485c0-0.82,0.665-1.485,1.485-1.485h8.677v-8.678c0-0.821,0.666-1.486,1.486-1.486
			s1.486,0.665,1.486,1.486v8.678h8.677c0.821,0,1.486,0.665,1.486,1.485c0,0.821-0.665,1.485-1.486,1.485h-8.677v8.678
			C353.676,273.857,353.01,274.522,352.189,274.522"/>
		<path clip-path="url(#SVGID_4_)" fill="#222222" d="M405.525,174.282c-0.82,0-1.486-0.665-1.486-1.485v-65.899
			c0-0.821,0.666-1.486,1.486-1.486s1.486,0.665,1.486,1.486v65.899C407.012,173.617,406.346,174.282,405.525,174.282"/>
		<path clip-path="url(#SVGID_4_)" fill="#222222" d="M407.011,217.124c0-0.82-0.665-1.486-1.486-1.486
			c-0.819,0-1.484,0.666-1.484,1.486v78.214c0,0.378,0.145,0.719,0.378,0.98h2.215c0.233-0.262,0.378-0.603,0.378-0.98V217.124z"/>
		<path clip-path="url(#SVGID_4_)" fill="#222222" d="M476.699,109.409c2.532-2.77,5.897-6.454,9.576-10.493
			c8.156-8.958,1.697-19.416,1.062-20.393l-11.354-20.18c-0.373-0.665-1.188-0.941-1.888-0.639l-12.891,5.549
			c-0.688,0.297-1.051,1.06-0.843,1.781l5.479,19.036c0.515,1.792-0.224,3.734-1.683,4.42c-5.273,2.482-12.708,2.489-17.675,0.015
			c-1.49-0.742-2.226-2.649-1.712-4.435l5.479-19.036c0.208-0.721-0.154-1.484-0.844-1.781l-12.89-5.549
			c-0.698-0.302-1.515-0.027-1.888,0.639l-11.354,20.18c-0.636,0.977-7.095,11.435,1.062,20.393
			c3.679,4.039,7.043,7.723,9.574,10.493c2.928,3.201,4.261,7.2,4.261,9.562v177.347h2.98V118.971c0-3.625-2.024-8.276-5.04-11.574
			c-2.531-2.768-5.894-6.45-9.57-10.489c-6.911-7.589-1.019-16.394-0.766-16.762c0.026-0.038,0.05-0.077,0.073-0.117l10.721-19.057
			l10.452,4.5l-5.115,17.774c-0.921,3.198,0.446,6.532,3.248,7.928c5.809,2.891,14.146,2.896,20.272,0.014
			c2.794-1.314,4.204-4.729,3.278-7.942l-5.114-17.774l10.452-4.5l10.721,19.057c0.021,0.038,0.047,0.078,0.071,0.114
			c0.254,0.371,6.146,9.176-0.764,16.765c-3.677,4.039-7.04,7.721-9.57,10.489c-3.016,3.297-5.041,7.948-5.041,11.574v172.875
			l2.981-0.967V118.971C472.44,116.608,473.772,112.609,476.699,109.409"/>
		<path clip-path="url(#SVGID_4_)" fill="#222222" d="M454.405,101.493c-11.869,0-16.696-5.52-16.947-5.816
			c-0.529-0.628-0.45-1.565,0.177-2.094c0.624-0.527,1.557-0.451,2.088,0.17c0.111,0.125,7.053,7.738,25.195,3.431
			c0.8-0.192,1.599,0.305,1.788,1.102c0.189,0.799-0.304,1.6-1.103,1.789C461.326,101.091,457.608,101.493,454.405,101.493"/>
		<path clip-path="url(#SVGID_4_)" fill="#FFFFFF" d="M460.639,296.318V128.985c0-1.54-2.389-3.954-5.334-3.954
			s-5.333,2.414-5.333,3.954v167.333H460.639z"/>
		<path clip-path="url(#SVGID_4_)" fill="#222222" d="M502.951,186.726c-0.82,0-1.486-0.665-1.486-1.486v-48.357
			c0-0.82,0.666-1.485,1.486-1.485c0.819,0,1.485,0.665,1.485,1.485v48.357C504.437,186.061,503.771,186.726,502.951,186.726"/>
		<path clip-path="url(#SVGID_4_)" fill="#222222" d="M437.107,24.823c-3.434,0-6.227-2.793-6.227-6.227
			c0-3.433,2.793-6.226,6.227-6.226s6.227,2.793,6.227,6.226C443.334,22.03,440.541,24.823,437.107,24.823 M437.107,15.341
			c-1.795,0-3.256,1.46-3.256,3.255s1.461,3.256,3.256,3.256s3.255-1.461,3.255-3.256S438.902,15.341,437.107,15.341"/>
		<path clip-path="url(#SVGID_4_)" fill="#222222" d="M107.025,136.5c-0.82,0-1.486-0.665-1.486-1.485v-1.629
			c0-0.82,0.666-1.485,1.486-1.485c0.82,0,1.485,0.665,1.485,1.485v1.629C108.51,135.835,107.845,136.5,107.025,136.5"/>
		<path clip-path="url(#SVGID_4_)" fill="#222222" d="M107.025,142.121c-0.82,0-1.486-0.665-1.486-1.486v-1.873
			c0-0.82,0.666-1.486,1.486-1.486c0.82,0,1.485,0.666,1.485,1.486v1.873C108.51,141.456,107.845,142.121,107.025,142.121"/>
		<path clip-path="url(#SVGID_4_)" fill="#222222" d="M107.025,147.495c-0.82,0-1.486-0.665-1.486-1.486v-1.628
			c0-0.82,0.666-1.485,1.486-1.485c0.82,0,1.485,0.665,1.485,1.485v1.628C108.51,146.83,107.845,147.495,107.025,147.495"/>
		<path clip-path="url(#SVGID_4_)" fill="#222222" d="M398.501,200.653h-1.628c-0.82,0-1.486-0.665-1.486-1.485
			c0-0.821,0.666-1.486,1.486-1.486h1.628c0.82,0,1.486,0.665,1.486,1.486C399.987,199.988,399.321,200.653,398.501,200.653"/>
		<path clip-path="url(#SVGID_4_)" fill="#222222" d="M430.845,200.653h-3.595c-0.819,0-1.484-0.665-1.484-1.485
			c0-0.821,0.665-1.486,1.484-1.486h3.595c0.819,0,1.485,0.665,1.485,1.486C432.33,199.988,431.664,200.653,430.845,200.653
			 M420.063,200.653h-3.593c-0.821,0-1.486-0.665-1.486-1.485c0-0.821,0.665-1.486,1.486-1.486h3.593
			c0.82,0,1.485,0.665,1.485,1.486C421.549,199.988,420.884,200.653,420.063,200.653 M409.282,200.653h-3.594
			c-0.82,0-1.485-0.665-1.485-1.485c0-0.821,0.665-1.486,1.485-1.486h3.594c0.82,0,1.485,0.665,1.485,1.486
			C410.768,199.988,410.103,200.653,409.282,200.653"/>
		<path clip-path="url(#SVGID_4_)" fill="#222222" d="M439.66,200.653h-1.628c-0.82,0-1.486-0.665-1.486-1.485
			c0-0.821,0.666-1.486,1.486-1.486h1.628c0.82,0,1.486,0.665,1.486,1.486C441.146,199.988,440.48,200.653,439.66,200.653"/>
		<path clip-path="url(#SVGID_4_)" fill="#222222" d="M154.099,220.469c-0.78,0-1.459-0.555-1.615-1.32
			c-0.181-0.891,0.396-1.763,1.287-1.944c0.111-0.022,0.221-0.033,0.33-0.033c0.78,0,1.459,0.555,1.615,1.319
			c0.181,0.892-0.396,1.764-1.287,1.945C154.318,220.458,154.208,220.469,154.099,220.469"/>
		<path clip-path="url(#SVGID_4_)" fill="#222222" d="M344.481,39.705c-0.731,0-1.367-0.52-1.515-1.237
			c-0.17-0.835,0.371-1.653,1.206-1.824c0.104-0.021,0.208-0.031,0.311-0.031c0.729,0,1.366,0.521,1.513,1.237
			c0.083,0.405,0.003,0.818-0.226,1.162c-0.228,0.344-0.575,0.579-0.98,0.662C344.687,39.695,344.583,39.705,344.481,39.705"/>
		<path clip-path="url(#SVGID_4_)" fill="#222222" d="M470.356,98.405c-0.73,0-1.366-0.52-1.514-1.237
			c-0.169-0.835,0.372-1.653,1.206-1.823c0.104-0.021,0.208-0.031,0.31-0.031c0.731,0,1.368,0.52,1.515,1.237
			c0.17,0.835-0.371,1.653-1.206,1.823C470.563,98.396,470.459,98.405,470.356,98.405"/>
		<path clip-path="url(#SVGID_4_)" fill="#222222" d="M405.524,180.689c-0.731,0-1.367-0.521-1.514-1.237
			c-0.171-0.835,0.37-1.652,1.205-1.823c0.104-0.021,0.208-0.03,0.311-0.03c0.729,0,1.367,0.52,1.513,1.236
			c0.171,0.835-0.37,1.653-1.205,1.823C405.73,180.679,405.626,180.689,405.524,180.689"/>
		<path clip-path="url(#SVGID_4_)" fill="#222222" d="M502.95,193.866c-0.73,0-1.367-0.521-1.514-1.237
			c-0.17-0.835,0.371-1.653,1.206-1.823c0.104-0.021,0.208-0.03,0.31-0.03c0.73,0,1.367,0.52,1.514,1.236
			c0.171,0.835-0.37,1.653-1.205,1.823C503.156,193.856,503.053,193.866,502.95,193.866"/>
		<path clip-path="url(#SVGID_4_)" fill="#222222" d="M106.958,84.668c-1.7,0-3.083-1.383-3.083-3.083
			c0-1.701,1.383-3.084,3.083-3.084s3.083,1.383,3.083,3.084C110.041,83.285,108.658,84.668,106.958,84.668"/>
		<path clip-path="url(#SVGID_4_)" fill="#222222" d="M174.523,205.275h-2.459c-0.82,0-1.485-0.665-1.485-1.485
			s0.665-1.485,1.485-1.485h2.459c0.821,0,1.486,0.665,1.486,1.485S175.344,205.275,174.523,205.275 M165.552,205.275h-3.256
			c-0.821,0-1.486-0.665-1.486-1.485s0.665-1.485,1.486-1.485h3.256c0.82,0,1.486,0.665,1.486,1.485
			S166.373,205.275,165.552,205.275 M155.784,205.275h-3.257c-0.82,0-1.485-0.665-1.485-1.485s0.665-1.485,1.485-1.485h3.257
			c0.82,0,1.485,0.665,1.485,1.485S156.604,205.275,155.784,205.275 M146.016,205.275h-3.256c-0.821,0-1.486-0.665-1.486-1.485
			s0.665-1.485,1.486-1.485h3.256c0.82,0,1.485,0.665,1.485,1.485S146.835,205.275,146.016,205.275"/>
	</g>
	<g clip-path="url(#SVGID_2_)">
		<defs>
			<path id="SVGID_11_" d="M100,96.305c-55,0-100,45-100,100v0.001c0,54.999,45,99.999,100,99.999h340c55,0,100-45,100-99.999
				v-0.001c0-55-45-100-100-100H100z"/>
		</defs>
		<clipPath id="SVGID_12_">
			<use xlink:href="#SVGID_11_"  overflow="visible"/>
		</clipPath>
		<g opacity="0.5" clip-path="url(#SVGID_12_)">
			<g>
				<defs>
					<rect id="SVGID_13_" x="485.932" y="204.856" width="52.624" height="10.371"/>
				</defs>
				<clipPath id="SVGID_14_">
					<use xlink:href="#SVGID_13_"  overflow="visible"/>
				</clipPath>
				<path clip-path="url(#SVGID_14_)" fill="#4086C6" d="M533.37,215.227h-42.254c-2.862,0-5.185-2.322-5.185-5.185
					c0-2.864,2.322-5.187,5.185-5.187h42.254c2.864,0,5.186,2.322,5.186,5.187C538.556,212.905,536.234,215.227,533.37,215.227"/>
			</g>
		</g>
		<path clip-path="url(#SVGID_12_)" fill="#222222" d="M534.793,216.712h-45.098c-2.895,0-5.249-2.354-5.249-5.248v-2.846
			c0-2.894,2.354-5.248,5.249-5.248h45.098c2.894,0,5.249,2.354,5.249,5.248v2.846C540.042,214.358,537.687,216.712,534.793,216.712
			 M489.695,206.342c-1.257,0-2.278,1.021-2.278,2.276v2.846c0,1.256,1.021,2.277,2.278,2.277h45.098
			c1.256,0,2.278-1.021,2.278-2.277v-2.846c0-1.255-1.022-2.276-2.278-2.276H489.695z"/>
		<path clip-path="url(#SVGID_12_)" fill="#F9D564" d="M528.541,226.724h-32.595c-3.175,0-5.747-2.574-5.747-5.748
			c0-3.176,2.572-5.749,5.747-5.749h32.595c3.175,0,5.748,2.573,5.748,5.749C534.289,224.15,531.716,226.724,528.541,226.724"/>
		<path clip-path="url(#SVGID_12_)" fill="#222222" d="M530.496,228.209h-36.505c-2.911,0-5.278-2.368-5.278-5.278v-3.911
			c0-2.91,2.367-5.278,5.278-5.278h36.505c2.91,0,5.278,2.368,5.278,5.278v3.911C535.774,225.841,533.406,228.209,530.496,228.209
			 M493.991,216.712c-1.271,0-2.308,1.035-2.308,2.308v3.911c0,1.272,1.036,2.308,2.308,2.308h36.505
			c1.272,0,2.308-1.035,2.308-2.308v-3.911c0-1.272-1.035-2.308-2.308-2.308H493.991z"/>
		<g opacity="0.5" clip-path="url(#SVGID_12_)">
			<g>
				<defs>
					<rect id="SVGID_15_" x="497.665" y="226.724" width="29.157" height="69.594"/>
				</defs>
				<clipPath id="SVGID_16_">
					<use xlink:href="#SVGID_15_"  overflow="visible"/>
				</clipPath>
				<rect x="497.665" y="226.724" clip-path="url(#SVGID_16_)" fill="#4086C6" width="29.157" height="69.594"/>
			</g>
		</g>
		<path clip-path="url(#SVGID_12_)" fill="#222222" d="M526.822,225.238h-29.157c-0.82,0-1.486,0.666-1.486,1.486v69.594h2.973
			v-68.108h26.185v68.108h2.972v-69.594C528.308,225.904,527.642,225.238,526.822,225.238"/>
		<path clip-path="url(#SVGID_12_)" fill="#222222" d="M1.527,205.275c-0.82,0-1.486-0.665-1.486-1.485
			c0-17.175,5.401-33.519,15.619-47.263c0.489-0.658,1.42-0.795,2.078-0.306c0.659,0.49,0.796,1.42,0.306,2.078
			c-9.833,13.229-15.031,28.959-15.031,45.49C3.013,204.61,2.347,205.275,1.527,205.275"/>
		<path clip-path="url(#SVGID_12_)" fill="#222222" d="M453.575,123.537c-3.677,0-6.828,2.996-6.828,5.448v167.333h2.988V128.985
			c0.001-0.594,1.596-2.46,3.84-2.46s3.839,1.866,3.84,2.46v167.333h2.988V128.985C460.403,126.533,457.252,123.537,453.575,123.537
			"/>
		<path clip-path="url(#SVGID_12_)" fill="#222222" d="M79.338,269.662c-0.82,0-1.486-0.665-1.486-1.486v-1.628
			c0-0.82,0.666-1.485,1.486-1.485c0.82,0,1.486,0.665,1.486,1.485v1.628C80.824,268.997,80.158,269.662,79.338,269.662"/>
		<path clip-path="url(#SVGID_12_)" fill="#222222" d="M79.338,288.811c-0.82,0-1.486-0.665-1.486-1.485v-3.191
			c0-0.82,0.666-1.485,1.486-1.485c0.82,0,1.486,0.665,1.486,1.485v3.191C80.824,288.146,80.158,288.811,79.338,288.811
			 M79.338,279.236c-0.82,0-1.486-0.665-1.486-1.485v-3.191c0-0.82,0.666-1.486,1.486-1.486c0.82,0,1.486,0.666,1.486,1.486v3.191
			C80.824,278.571,80.158,279.236,79.338,279.236"/>
		<path clip-path="url(#SVGID_12_)" fill="#222222" d="M80.824,293.709c0-0.82-0.665-1.486-1.486-1.486
			c-0.82,0-1.485,0.666-1.485,1.486v1.628c0,0.378,0.145,0.719,0.378,0.98h2.215c0.233-0.262,0.378-0.603,0.378-0.98V293.709z"/>
		<path clip-path="url(#SVGID_12_)" fill="#222222" d="M470.848,211.527h-1.628c-0.82,0-1.485-0.665-1.485-1.485
			s0.665-1.485,1.485-1.485h1.628c0.82,0,1.486,0.665,1.486,1.485S471.668,211.527,470.848,211.527"/>
		<path clip-path="url(#SVGID_12_)" fill="#222222" d="M478.353,211.527h-2.501c-0.821,0-1.486-0.665-1.486-1.485
			s0.665-1.485,1.486-1.485h2.501c0.819,0,1.485,0.665,1.485,1.485S479.172,211.527,478.353,211.527"/>
		<path clip-path="url(#SVGID_12_)" fill="#222222" d="M484.983,211.527h-1.628c-0.821,0-1.486-0.665-1.486-1.485
			s0.665-1.485,1.486-1.485h1.628c0.82,0,1.485,0.665,1.485,1.485S485.804,211.527,484.983,211.527"/>
		<path clip-path="url(#SVGID_12_)" fill="#FFFFFF" d="M519.829,240.907h-15.171c-0.82,0-1.485-0.665-1.485-1.484
			c0-0.821,0.665-1.486,1.485-1.486h15.171c0.82,0,1.486,0.665,1.486,1.486C521.315,240.242,520.649,240.907,519.829,240.907"/>
		<path clip-path="url(#SVGID_12_)" fill="#FFFFFF" d="M519.829,250.33h-15.171c-0.82,0-1.485-0.665-1.485-1.486
			c0-0.82,0.665-1.485,1.485-1.485h15.171c0.82,0,1.486,0.665,1.486,1.485C521.315,249.665,520.649,250.33,519.829,250.33"/>
		<path clip-path="url(#SVGID_12_)" fill="#FFFFFF" d="M519.829,259.752h-15.171c-0.82,0-1.485-0.665-1.485-1.485
			s0.665-1.485,1.485-1.485h15.171c0.82,0,1.486,0.665,1.486,1.485S520.649,259.752,519.829,259.752"/>
		<path clip-path="url(#SVGID_12_)" fill="#FFFFFF" d="M519.829,269.175h-15.171c-0.82,0-1.485-0.665-1.485-1.486
			c0-0.82,0.665-1.485,1.485-1.485h15.171c0.82,0,1.486,0.665,1.486,1.485C521.315,268.51,520.649,269.175,519.829,269.175"/>
		<path clip-path="url(#SVGID_12_)" fill="#FFFFFF" d="M519.829,278.597h-15.171c-0.82,0-1.485-0.665-1.485-1.486
			c0-0.819,0.665-1.484,1.485-1.484h15.171c0.82,0,1.486,0.665,1.486,1.484C521.315,277.932,520.649,278.597,519.829,278.597"/>
		<path clip-path="url(#SVGID_12_)" fill="#FFFFFF" d="M519.829,288.02h-15.171c-0.82,0-1.485-0.665-1.485-1.485
			c0-0.821,0.665-1.486,1.485-1.486h15.171c0.82,0,1.486,0.665,1.486,1.486C521.315,287.355,520.649,288.02,519.829,288.02"/>
	</g>
</g>
</svg>
