<svg xmlns="http://www.w3.org/2000/svg" width="111.98" height="99.999"><path fill="#4087C7" d="M69.321 35.559h8.324v16.98h-8.324zM59.334 29.232h8.324v23.309h-8.324zM49.345 39.721h8.324v12.818h-8.324z" opacity=".5"/><path fill="#55AC4B" d="M22.822 60.733a12.948 12.948 0 0 0 9.257 3.847 13.14 13.14 0 0 0 2.969-.35v-5.997c-4.879 2.138-10.35-1.438-10.35-6.757 0-5.276 5.458-8.909 10.35-6.754v-5.984a13.198 13.198 0 0 0-2.969-.349c-11.578.001-17.522 14.103-9.257 22.344z"/><path fill="#55AC4B" d="M35.048 67.434c-5.263.969-10.604-.653-14.431-4.48-11.284-11.284-1.12-30.282 14.431-27.419v-5.793c-20.779-2.795-33.3 22.426-18.481 37.246 4.852 4.853 11.584 7.151 18.481 6.223v-5.777z"/><path fill="#4087C7" d="M15.685 34.623l-8.092-8.091.675-6.067 8.091 8.091z" opacity=".5"/><path fill="#4087C7" d="M15.685 34.623l-8.092-8.091-6.068.675 8.091 8.092z" opacity=".5"/><path fill="#222221" d="M29.926 50.395L6.666 27.473c-1.242-1.225.608-3.108 1.855-1.881l23.26 22.922a1.322 1.322 0 1 1-1.855 1.881zM28.589 82.086c-1.819 0-1.822-2.754 0-2.754 1.819 0 1.822 2.754 0 2.754zM96.56 50.521c0 1.819-2.754 1.822-2.754 0 0-1.82 2.754-1.823 2.754 0z"/><path fill="#4087C7" d="M93.226 81.268V62.514c-1.201 0-2.377.118-3.516.334v27.796H76.987c9.559 16.517 34.992 9.774 34.992-9.377l-18.753.001z" opacity=".5"/><path fill="#55AC4B" d="M111.979 78.924c-.035-9.032-7.365-16.346-16.406-16.346v16.346h16.406z"/><path fill="#4087C7" d="M48.51 14.48l8.265-8.265a1.33 1.33 0 0 1 1.883 0l5.845 5.845L75.411 1.152c1.242-1.244 3.129.637 1.883 1.883L65.443 14.886c-.52.52-1.362.52-1.883 0l-5.845-5.845-7.323 7.322c-1.243 1.244-3.128-.637-1.882-1.883z" opacity=".5"/><path fill="#222221" d="M73.915 97.698H28.656a1.332 1.332 0 0 1-1.332-1.332V85.614c0-1.76 2.664-1.762 2.664 0v9.42h43.927a1.332 1.332 0 0 1 0 2.664zM94.091 45.215V11.918H82.353c-1.76 0-1.762-2.664 0-2.664h13.07c.736 0 1.332.596 1.332 1.332v34.629c0 1.76-2.664 1.762-2.664 0z"/><path fill="#222221" d="M89.429 91.705H34.37a1.332 1.332 0 0 1-1.332-1.332V16.895c0-.736.596-1.332 1.332-1.332h55.059c.736 0 1.332.596 1.332 1.332v73.479c0 .734-.596 1.331-1.332 1.331zm-53.727-2.664h52.395V18.227H35.702v70.814z"/><path fill="#4087C7" d="M76.011 7.903V2.664h-5.24c-1.76 0-1.762-2.664 0-2.664h6.572c.736 0 1.332.596 1.332 1.332v6.571c0 1.761-2.664 1.763-2.664 0z" opacity=".5"/><g><path fill="#222221" d="M79.548 64.539H69.403c-1.759 0-1.761-2.664 0-2.664h10.145a1.332 1.332 0 1 1 0 2.664z"/></g><g><path fill="#222221" d="M63.883 64.539h-19.32c-1.76 0-1.762-2.664 0-2.664h19.321a1.332 1.332 0 1 1-.001 2.664z"/></g><g><path fill="#222221" d="M80.245 71.438H44.563c-1.76 0-1.762-2.664 0-2.664h35.682c.734 0 1.332.597 1.332 1.332a1.333 1.333 0 0 1-1.332 1.332z"/></g><g><path fill="#222221" d="M63.883 79.188h-19.32c-1.76 0-1.762-2.664 0-2.664h19.321a1.332 1.332 0 1 1-.001 2.664z"/></g><g><path fill="#222221" d="M80.442 54.877H44.563a1.332 1.332 0 0 1-1.332-1.332v-24.84c0-1.761 2.664-1.763 2.664 0v23.508h34.549a1.332 1.332 0 1 1-.002 2.664z"/></g></svg>