<svg xmlns="http://www.w3.org/2000/svg" width="67.362" height="76.726"><path fill="#EFEEEE" d="M59.772 74.986H9.471a4.528 4.528 0 0 1-4.524-4.523v-.504c0-.554.449-1.002 1.003-1.002h4.047v-21.99a3.165 3.165 0 0 1 3.161-3.161h42.888a3.164 3.164 0 0 1 3.16 3.161v21.99h4.088c.555 0 1.004.448 1.004 1.002v.504a4.533 4.533 0 0 1-4.526 4.523zM7.001 70.963a2.524 2.524 0 0 0 2.469 2.018h50.302a2.521 2.521 0 0 0 2.467-2.018h-4.326a1.003 1.003 0 0 1-.863-1.515c.1-.168.15-.343.15-.52V46.967c0-.637-.518-1.155-1.156-1.155H13.157c-.637 0-1.155.519-1.155 1.155v21.962c0 .178.051.354.149.521a1.003 1.003 0 1 1-.864 1.514H7.001zM34.6 61.907c-1.939 0-3.518-1.577-3.518-3.518S32.66 54.87 34.6 54.87s3.518 1.578 3.518 3.519-1.578 3.518-3.518 3.518zm0-5.03a1.513 1.513 0 0 0 0 3.025 1.513 1.513 0 0 0 0-3.025zM45.907 28.102h-1.871a1.003 1.003 0 0 1-1.004-1.003v-10.06c0-.555.449-1.004 1.004-1.004h1.871a5.174 5.174 0 0 1 5.168 5.168v1.73a5.175 5.175 0 0 1-5.168 5.169zm-.869-2.006h.869a3.166 3.166 0 0 0 3.162-3.162v-1.73a3.166 3.166 0 0 0-3.162-3.162h-.869v8.054zM23.915 28.102h-1.871a5.174 5.174 0 0 1-5.168-5.169v-1.729a5.174 5.174 0 0 1 5.168-5.169h1.871c.555 0 1.002.449 1.002 1.003v10.061a1.002 1.002 0 0 1-1.002 1.003zm-1.872-10.061a3.167 3.167 0 0 0-3.161 3.162v1.73a3.165 3.165 0 0 0 3.161 3.162h.869V18.04h-.869z"/><path fill="#EFEEEE" d="M47.047 18.057a1.003 1.003 0 0 1-1.004-1.003V12.98c0-5.497-4.771-9.97-10.639-9.97H32.61c-5.867 0-10.639 4.472-10.639 9.97v3.948a1.003 1.003 0 0 1-2.006 0V12.98c0-6.604 5.672-11.977 12.645-11.977h2.795c6.973 0 12.646 5.373 12.646 11.977v4.073c0 .553-.449 1.004-1.004 1.004z"/><path fill="#EFEEEE" d="M37.176 20.834c-1.611 0-3.131-.284-4.518-.848-.395-.16-.799-.351-1.189-.536-1.086-.513-2.211-1.043-3.338-1.043-.363 0-.705.054-1.049.163-.715.229-1.385.699-1.988 1.396a1.004 1.004 0 0 1-1.736-.43 10.662 10.662 0 0 1 .07-5.125c.232-.88.99-3.115 2.973-4.898 1.838-1.654 4.373-2.493 7.535-2.493 5.615 0 9.084 2.524 10.609 7.717a9.104 9.104 0 0 1 .268 3.853c-.189 1.34-1.053 1.443-1.314 1.443a1.19 1.19 0 0 1-.656-.197c-2.012.664-3.915.998-5.667.998zm-9.043-4.433c1.576 0 2.967.656 4.191 1.235.383.181.746.352 1.09.49 1.16.472 2.393.701 3.762.701 1.727 0 3.648-.381 5.713-1.131a6.967 6.967 0 0 0-.268-2.394c-1.256-4.282-4.016-6.276-8.684-6.276-2.688 0-4.715.647-6.193 1.979-1.582 1.423-2.188 3.216-2.375 3.921a8.49 8.49 0 0 0-.279 2.392c.439-.285.9-.505 1.383-.658a5.418 5.418 0 0 1 1.66-.259zM34.176 37.159a8.806 8.806 0 0 1-2.434-.342 1 1 0 0 1-.688-1.239 1 1 0 0 1 1.238-.688 6.84 6.84 0 0 0 1.883.265c4.537 0 8.348-4.328 8.863-10.07a1.003 1.003 0 1 1 2 .179c-.61 6.781-5.28 11.895-10.862 11.895zM28.842 35.136c-.211 0-.426-.067-.607-.204-2.291-1.74-5.143-3.906-5.26-9.738a1.002 1.002 0 0 1 .982-1.023c.553-.023 1.012.43 1.023.983.098 4.862 2.32 6.55 4.467 8.181a1.004 1.004 0 0 1-.605 1.801zM51.692 45.51c-.33 0-.654-.164-.846-.463a14.374 14.374 0 0 0-9.611-6.424l-.051-.011c-.059-.011-.084-.017-.113-.019a1.004 1.004 0 0 1-.91-1.09.999.999 0 0 1 1.09-.908c.094.008.18.023.27.04a16.398 16.398 0 0 1 11.016 7.331 1.004 1.004 0 0 1-.845 1.544zM16.425 45.51a1.003 1.003 0 0 1-.846-1.543 16.387 16.387 0 0 1 10.957-7.32l.211-.039a1.003 1.003 0 1 1 .363 1.973l-.221.041a14.386 14.386 0 0 0-9.619 6.424 1 1 0 0 1-.845.464zM32.02 25.134h-2.34a1.001 1.001 0 0 1-1.002-1.003c0-.555.447-1.004 1.002-1.004h2.34a1.003 1.003 0 0 1 0 2.007zM39.37 25.134h-2.338a1.003 1.003 0 1 1 0-2.007h2.338a1.003 1.003 0 1 1 0 2.007z"/><path fill="#EFEEEE" d="M34.024 41.317a11.639 11.639 0 0 1-7.764-2.975 1.004 1.004 0 0 1 1.336-1.496 9.638 9.638 0 0 0 6.428 2.464 1.003 1.003 0 1 1 0 2.007z"/><path fill="#EFEEEE" d="M34.024 41.317a1.002 1.002 0 0 1 0-2.006 9.64 9.64 0 0 0 6.428-2.464 1.002 1.002 0 1 1 1.336 1.496 11.634 11.634 0 0 1-7.764 2.974zM45.903 28.086h-1.865a1.002 1.002 0 0 1-1.002-1.002V17.053c0-.555.449-1.003 1.002-1.003h1.865a5.161 5.161 0 0 1 5.156 5.155v1.725a5.16 5.16 0 0 1-5.156 5.156zm-.861-2.006h.861a3.152 3.152 0 0 0 3.15-3.149v-1.724a3.153 3.153 0 0 0-3.15-3.15h-.861v8.023zM23.977 28.086h-1.865a5.162 5.162 0 0 1-5.156-5.155v-1.724a5.161 5.161 0 0 1 5.156-5.156h1.865c.555 0 1.004.449 1.004 1.003v10.03c0 .554-.449 1.002-1.004 1.002zm-1.865-10.029a3.154 3.154 0 0 0-3.151 3.15v1.724a3.153 3.153 0 0 0 3.151 3.149h.861v-8.024l-.861.001zM4.919 56.172a1.002 1.002 0 0 1-1.003-1.002v-7.879c0-5.059 4.115-9.174 9.174-9.174a1.003 1.003 0 0 1 0 2.006c-3.952 0-7.167 3.217-7.167 7.168v7.879c0 .554-.45 1.002-1.004 1.002zM64.018 67.207a1.003 1.003 0 0 1-1.004-1.004V54.166a1.002 1.002 0 0 1 2.006 0v12.037c0 .555-.447 1.004-1.002 1.004z"/><g fill="#EFEEEE"><circle cx="64.225" cy="51.157" r="1.003"/><path d="M64.225 52.412a1.258 1.258 0 0 1-1.256-1.255 1.256 1.256 0 1 1 1.256 1.255zm0-2.007a.753.753 0 0 0 0 1.505.752.752 0 0 0 0-1.505z"/><g><path d="M64.225 52.285c-.623 0-1.129-.506-1.129-1.128s.506-1.128 1.129-1.128a1.129 1.129 0 0 1 0 2.256zm0-2.006a.88.88 0 0 0-.879.878.878.878 0 1 0 .879-.878z"/><path d="M64.225 52.537c-.762 0-1.381-.619-1.381-1.38a1.382 1.382 0 0 1 2.762 0c0 .761-.619 1.38-1.381 1.38zm0-2.006a.627.627 0 0 0 0 1.252.625.625 0 0 0 0-1.252z"/></g></g><g fill="#EFEEEE"><circle cx="53.067" cy="16.051" r="1.003"/><path d="M53.067 17.305a1.257 1.257 0 0 1-1.256-1.255 1.256 1.256 0 1 1 1.256 1.255zm0-2.006a.753.753 0 0 0 0 1.504.753.753 0 0 0 0-1.504z"/><g><path d="M53.067 17.179c-.623 0-1.129-.506-1.129-1.128s.506-1.128 1.129-1.128a1.129 1.129 0 0 1 0 2.256zm0-2.007a.88.88 0 0 0-.879.879.879.879 0 1 0 .879-.879z"/><path d="M53.067 17.431a1.382 1.382 0 0 1 0-2.761 1.381 1.381 0 0 1 0 2.761zm0-2.007a.627.627 0 0 0 0 1.252.627.627 0 0 0 0-1.252z"/></g></g><g fill="#EFEEEE"><circle cx="4.918" cy="58.18" r="1.003"/><path d="M4.919 59.434c-.691 0-1.255-.563-1.255-1.255s.563-1.255 1.255-1.255 1.255.563 1.255 1.255-.564 1.255-1.255 1.255zm0-2.006a.753.753 0 0 0 0 1.504.752.752 0 0 0 0-1.504z"/><g><path d="M4.918 59.308c-.621 0-1.128-.506-1.128-1.128s.507-1.128 1.128-1.128c.622 0 1.129.506 1.129 1.128s-.507 1.128-1.129 1.128zm0-2.006c-.483 0-.878.394-.878.878s.395.878.878.878c.484 0 .879-.394.879-.878s-.395-.878-.879-.878z"/><path d="M4.918 59.56a1.38 1.38 0 1 1 .002-2.758 1.38 1.38 0 0 1-.002 2.758zm0-2.007a.627.627 0 1 0 .002 1.254.627.627 0 0 0-.002-1.254z"/></g></g><path fill="#EFEEEE" d="M53.067 13.982a1.003 1.003 0 0 1-1.004-1.003c0-4.24-1.719-8.238-4.84-11.256A1.003 1.003 0 0 1 48.618.281c3.516 3.4 5.451 7.91 5.451 12.698 0 .554-.449 1.003-1.002 1.003zM37.797 20.431a1 1 0 0 1-.709-.294l-3.457-3.457a1.002 1.002 0 1 1 1.418-1.419l3.457 3.457a1.001 1.001 0 0 1-.709 1.713zM57.913 70.963H11.287a1.003 1.003 0 0 1 0-2.006h46.625a1 1 0 0 1 1.002 1.002 1 1 0 0 1-1.001 1.004zM66.36 75h-7.672a1.003 1.003 0 0 1 0-2.006h7.672a1.002 1.002 0 1 1 0 2.006zM10.021 75H2.35a1.003 1.003 0 1 1 0-2.006h7.671a1.002 1.002 0 1 1 0 2.006z"/></svg>