<svg xmlns="http://www.w3.org/2000/svg" width="100.246" height="102.807"><circle fill="#54AD4E" cx="95.43" cy="49.705" r="1.436"/><path fill="#54AD4E" d="M23.699 23.335a1.425 1.425 0 0 0 1.09-.143c.332-.192.57-.502.669-.872a1.43 1.43 0 0 0-.144-1.09 1.425 1.425 0 0 0-.872-.669 1.429 1.429 0 0 0-1.09.144c-.332.192-.57.502-.669.873-.099.37-.048.758.144 1.09.192.329.501.566.872.667zM36.431 96.383a1.423 1.423 0 0 0-1.09-.144c-.37.099-.68.336-.872.668a1.439 1.439 0 0 0 .526 1.963 1.436 1.436 0 0 0 1.436-2.487zM94.698 47.21a1.276 1.276 0 0 0 .936-1.545c-2.189-8.933-7.01-16.902-13.941-23.049a1.277 1.277 0 1 0-1.694 1.909c6.541 5.802 11.09 13.322 13.154 21.748a1.28 1.28 0 0 0 1.545.937zM22.238 25.635a1.279 1.279 0 0 0 .039-1.806 1.278 1.278 0 0 0-1.805-.038C13.831 30.153 9.339 38.313 7.481 47.39a1.277 1.277 0 1 0 2.501.512c1.753-8.565 5.991-16.266 12.256-22.267zM65.235 96.85c-8.295 2.765-17.083 2.944-25.414.521a1.276 1.276 0 1 0-.713 2.451 44.96 44.96 0 0 0 12.569 1.797c4.835 0 9.675-.783 14.364-2.347a1.277 1.277 0 0 0-.806-2.422z"/><path fill="#67C2EE" d="M51.738 17.817c-.44 0-.868-.057-1.277-.172.421-.019.849-.025 1.277-.025.428 0 .855.006 1.277.025a4.669 4.669 0 0 1-1.277.172z"/><path opacity=".5" fill="#4087C7" d="M75.247 58.3a2.977 2.977 0 0 0 3.326 2.598 11.798 11.798 0 0 1 7.398 1.506c1.41.812 2.584 1.87 3.51 3.09-.102.439-.217.875-.338 1.309-2.891.823-5.846 3.211-7.85 6.689-2.004 3.466-2.6 7.213-1.877 10.129-.314.326-.639.646-.965.951a11.79 11.79 0 0 1-4.424-1.486 11.798 11.798 0 0 1-4.998-5.655 2.982 2.982 0 0 0-3.912-1.583 2.962 2.962 0 0 0-1.418 1.251 2.975 2.975 0 0 0-.166 2.662 17.727 17.727 0 0 0 7.514 8.496c.543.313 1.092.594 1.641.843-6.045 3.881-13.233 6.134-20.95 6.134S36.833 92.981 30.789 89.1c.549-.249 1.098-.53 1.641-.843a17.74 17.74 0 0 0 7.513-8.496 2.982 2.982 0 0 0-1.583-3.913 2.982 2.982 0 0 0-3.913 1.583 11.788 11.788 0 0 1-4.998 5.655 11.76 11.76 0 0 1-4.424 1.486 26.161 26.161 0 0 1-.964-.951c.721-2.916.128-6.664-1.877-10.129-2.004-3.479-4.96-5.867-7.851-6.689a30.244 30.244 0 0 1-.338-1.309c.926-1.22 2.1-2.279 3.511-3.09a11.786 11.786 0 0 1 7.398-1.506A2.978 2.978 0 0 0 28.23 58.3a2.972 2.972 0 0 0-.376-1.852 2.983 2.983 0 0 0-2.221-1.475c-3.881-.479-7.724.3-11.113 2.26-.543.313-1.053.646-1.545.989a33.473 33.473 0 0 1-.045-1.8c0-15.008 8.521-28.028 20.994-34.481-.064.601-.096 1.22-.096 1.852 0 3.913 1.245 7.628 3.6 10.749a2.985 2.985 0 1 0 4.768-3.594 11.788 11.788 0 0 1-2.4-7.156c0-1.62.332-3.172.926-4.582.428-.129.862-.25 1.289-.364 2.164 2.094 5.713 3.453 9.728 3.453s7.564-1.36 9.729-3.453c.428.114.862.235 1.288.364.594 1.41.926 2.962.926 4.582 0 2.604-.83 5.076-2.399 7.156a2.989 2.989 0 0 0 .586 4.181c.536.409 1.168.6 1.795.6.904 0 1.799-.409 2.387-1.187a17.713 17.713 0 0 0 3.6-10.75c0-.631-.031-1.25-.096-1.851 12.472 6.453 20.994 19.476 20.994 34.481 0 .605-.014 1.206-.045 1.806a18.917 18.917 0 0 0-1.545-.996 17.712 17.712 0 0 0-11.113-2.26 2.985 2.985 0 0 0-2.599 3.328z"/><g fill="#222"><path d="M67.063 35.313c.525-.693.984-1.42 1.404-2.164.047-.054.096-.104.135-.167a1.33 1.33 0 0 0 .123-.276 18.95 18.95 0 0 0 2.201-8.914c0-8.139-4.82-14.362-12.32-16.692-.894-3.485-3.319-5.483-6.868-5.483-3.549 0-5.975 1.998-6.868 5.483-7.5 2.33-12.319 8.553-12.319 16.692 0 3.15.754 6.183 2.201 8.914.03.095.069.188.123.276.038.063.088.113.134.167.42.744.88 1.471 1.404 2.164 1.411 1.877 4.092 2.247 5.968.836a4.255 4.255 0 0 0 1.653-2.814 4.226 4.226 0 0 0-.817-3.153 10.77 10.77 0 0 1-.866-1.351 1.259 1.259 0 0 0-.136-.328c-.026-.042-.058-.077-.087-.115a10.497 10.497 0 0 1-1.055-4.596c0-1.206.211-2.4.606-3.53 2.477 2.074 6.153 3.313 10.06 3.313 3.907 0 7.583-1.238 10.06-3.313.396 1.13.606 2.323.606 3.53 0 1.615-.366 3.171-1.055 4.595-.029.038-.062.073-.087.115a1.289 1.289 0 0 0-.137.329c-.254.466-.539.918-.865 1.35a4.22 4.22 0 0 0-.817 3.152 4.257 4.257 0 0 0 1.653 2.815 4.227 4.227 0 0 0 2.567.855 4.203 4.203 0 0 0 3.399-1.69zM51.738 4.171c1.87 0 3.185.753 3.932 2.24.377.728.613 1.64.702 2.726.038.383.057.792.057 1.219 0 3.415-2.106 6.185-4.692 6.185-2.585 0-4.692-2.77-4.692-6.185 0-.428.019-.836.057-1.219.089-1.085.326-1.998.702-2.726.749-1.487 2.064-2.24 3.934-2.24zM40.842 34.107a1.71 1.71 0 0 1-2.394-.332 16.746 16.746 0 0 1-.721-1.038l2.918-1.781c.168.259.342.515.529.764a1.701 1.701 0 0 1-.332 2.387zm21.467-17.336H62.2c-.383 0-.753.172-.996.473-1.87 2.33-5.496 3.778-9.466 3.778-3.97 0-7.596-1.448-9.466-3.778a1.274 1.274 0 0 0-2.112.184 13.202 13.202 0 0 0-1.64 6.364c0 1.699.328 3.349.948 4.892l-2.951 1.802a16.476 16.476 0 0 1-1.412-6.693c0-6.626 3.581-11.662 9.396-13.883-.006.146-.006.293-.006.446 0 4.819 3.249 8.738 7.245 8.738s7.245-3.919 7.245-8.738c0-.153 0-.3-.006-.446 5.815 2.221 9.397 7.258 9.397 13.883 0 2.34-.486 4.602-1.412 6.693l-2.951-1.802a13.1 13.1 0 0 0 .947-4.892c0-2.221-.568-4.424-1.641-6.364a1.293 1.293 0 0 0-1.01-.657zm.324 17.336a1.702 1.702 0 0 1-.331-2.387c.188-.249.36-.505.528-.765l2.918 1.781c-.227.354-.465.7-.721 1.039-.548.729-1.659.888-2.394.332zM38.857 74.672a4.25 4.25 0 0 0-5.585 2.26c-.21.495-.458.967-.734 1.418a1.32 1.32 0 0 0-.22.285c-.024.044-.039.091-.058.137a10.508 10.508 0 0 1-3.451 3.209 10.63 10.63 0 0 1-3.358 1.238c.555-3.185-.211-6.983-2.164-10.366s-4.864-5.949-7.902-7.06a10.784 10.784 0 0 1 2.757-2.285 10.526 10.526 0 0 1 4.522-1.386c.043.006.085.016.129.017h.032c.109 0 .214-.019.315-.044.531-.014 1.066.007 1.602.072a4.27 4.27 0 0 0 4.755-3.709 4.211 4.211 0 0 0-.536-2.649 4.24 4.24 0 0 0-3.172-2.1 19.297 19.297 0 0 0-2.524-.134 1.199 1.199 0 0 0-.562-.002 18.914 18.914 0 0 0-8.826 2.555c-4.506 2.598-7.417 6.484-8.413 11.221a17.023 17.023 0 0 0-.357 3.523c0 1.404.16 2.834.485 4.264-2.579 2.516-3.096 5.617-1.321 8.693 1.36 2.35 3.396 3.55 5.834 3.55.747 0 1.538-.115 2.355-.345 1.998 1.845 4.258 3.211 6.677 4.002a16.37 16.37 0 0 0 5.075.816c2.987 0 5.981-.836 8.853-2.496a18.929 18.929 0 0 0 6.634-6.383c.062-.068.121-.141.167-.225.043-.078.076-.159.101-.241.424-.724.816-1.469 1.147-2.253a4.255 4.255 0 0 0-2.257-5.582zm-3.236 3.256a1.708 1.708 0 1 1 3.146 1.334c-.165.39-.347.771-.539 1.142l-3.003-1.638c.14-.275.275-.552.396-.838zm-8.873-20.841a1.697 1.697 0 0 1-.428 2.196 1.7 1.7 0 0 1-1.264.352 13.698 13.698 0 0 0-.922-.078l.083-3.416c.419.02.839.049 1.26.104a1.672 1.672 0 0 1 1.271.842zM10.395 84.841c-1.666.096-2.975-.67-3.913-2.285-.938-1.628-.945-3.141-.026-4.545.453-.684 1.123-1.34 2.017-1.966.313-.224.651-.44 1.021-.651 2.955-1.704 6.409-1.27 7.704.971.6 1.039.646 2.336.134 3.65-.549 1.411-1.666 2.655-3.147 3.511a12.91 12.91 0 0 1-1.066.556c-.994.465-1.907.72-2.724.759zm21.396 2.309c-3.862 2.229-7.966 2.732-11.86 1.462-1.704-.562-3.332-1.468-4.826-2.675l.357-.204c1.979-1.136 3.485-2.84 4.251-4.794.798-2.049.689-4.123-.306-5.853-1.226-2.133-3.6-3.275-6.224-3.275-1.634 0-3.364.447-4.966 1.372-.121.07-.243.14-.357.224-.3-1.896-.268-3.767.102-5.528.843-4.015 3.332-7.315 7.194-9.543a16.477 16.477 0 0 1 6.506-2.12l-.084 3.452a13.052 13.052 0 0 0-4.71 1.63 13.2 13.2 0 0 0-4.692 4.596 1.289 1.289 0 0 0-.064 1.2c.179.389.543.657.964.721 2.949.453 6.013 2.872 8.004 6.313 1.985 3.439 2.547 7.302 1.462 10.085-.153.396-.102.843.14 1.194.243.345.632.567 1.072.543a13.222 13.222 0 0 0 6.332-1.763 13.086 13.086 0 0 0 3.762-3.266l3.035 1.655a16.454 16.454 0 0 1-5.092 4.574zM97.881 75.138c.6-2.648.65-5.298.127-7.787-.988-4.736-3.9-8.617-8.412-11.221a18.93 18.93 0 0 0-8.809-2.555 1.29 1.29 0 0 0-.58.002 19.11 19.11 0 0 0-2.523.134 4.267 4.267 0 0 0-3.709 4.749 4.27 4.27 0 0 0 4.754 3.709 10.68 10.68 0 0 1 1.594-.075c.105.028.213.047.324.047h.033c.049-.001.094-.011.141-.019 1.578.117 3.111.578 4.51 1.387 1.041.6 1.973 1.379 2.758 2.285-3.039 1.111-5.949 3.677-7.902 7.06s-2.719 7.181-2.164 10.366a10.538 10.538 0 0 1-6.808-4.447c-.02-.046-.033-.092-.059-.137a1.243 1.243 0 0 0-.221-.285 10.783 10.783 0 0 1-.732-1.418 4.264 4.264 0 0 0-5.586-2.26 4.184 4.184 0 0 0-2.024 1.787 4.218 4.218 0 0 0-.235 3.798c.332.784.724 1.53 1.148 2.253.023.082.057.163.1.241.047.084.107.155.168.225a18.942 18.942 0 0 0 6.633 6.383c2.873 1.66 5.867 2.496 8.853 2.496 1.705 0 3.402-.274 5.076-.817 2.201-.721 4.275-1.92 6.139-3.522.18-.153.359-.313.537-.479.816.23 1.609.346 2.354.346 2.439 0 4.477-1.2 5.834-3.549 1.777-3.079 1.259-6.183-1.319-8.697zM78.418 59.634c-.453.057-.9-.07-1.264-.352a1.708 1.708 0 0 1-.645-1.136 1.71 1.71 0 0 1 1.486-1.901c.422-.053.842-.086 1.26-.105l.084 3.417c-.303.016-.612.038-.921.077zM64.804 77.735c.186-.318.467-.567.811-.715a1.754 1.754 0 0 1 1.31-.013c.42.172.752.498.932.919.121.286.256.564.395.839l-3.002 1.638a16.789 16.789 0 0 1-.539-1.142 1.693 1.693 0 0 1 .093-1.526zm18.741 10.871c-3.895 1.277-7.998.772-11.861-1.455a16.51 16.51 0 0 1-5.092-4.572l3.035-1.655a13.074 13.074 0 0 0 3.762 3.266 13.23 13.23 0 0 0 6.332 1.763c.434.025.83-.198 1.072-.543.242-.352.293-.799.139-1.194-1.084-2.783-.521-6.646 1.463-10.085 1.992-3.44 5.055-5.86 8.004-6.313.42-.063.785-.332.963-.721.18-.383.154-.836-.063-1.2a13.211 13.211 0 0 0-4.693-4.596 13.066 13.066 0 0 0-4.709-1.63l-.084-3.455c2.275.241 4.479.95 6.506 2.123 3.861 2.233 6.352 5.528 7.193 9.543.205.97.307 1.972.307 2.993 0 .837-.07 1.68-.205 2.535-.113-.084-.234-.153-.357-.224-4.174-2.413-9.191-1.557-11.189 1.902-.996 1.729-1.104 3.804-.305 5.853.766 1.953 2.271 3.658 4.25 4.794l.357.204c-1.493 1.206-3.121 2.112-4.825 2.667zm13.45-6.05c-.889 1.532-2.107 2.298-3.646 2.298-.088 0-.178 0-.268-.013-.816-.038-1.73-.294-2.727-.76-.344-.16-.701-.346-1.064-.556-1.482-.854-2.6-2.1-3.148-3.511-.51-1.314-.465-2.611.135-3.65.76-1.315 2.271-2.012 3.988-2.012 1.201 0 2.496.338 3.715 1.04.371.211.709.428 1.021.651.895.626 1.564 1.283 2.018 1.966.919 1.406.913 2.919-.024 4.547zM89.077 91.659a19.818 19.818 0 0 1-3.943 1.803 18.727 18.727 0 0 1-5.828.932 1.277 1.277 0 0 0 0 2.554c2.25 0 4.479-.356 6.623-1.06a22.432 22.432 0 0 0 4.455-2.034 1.278 1.278 0 0 0-1.307-2.195zM63.583 6.473a19.753 19.753 0 0 1 3.531 2.514 18.681 18.681 0 0 1 3.721 4.582 1.277 1.277 0 1 0 2.211-1.276 21.247 21.247 0 0 0-4.229-5.207 22.473 22.473 0 0 0-3.988-2.84 1.276 1.276 0 1 0-1.246 2.227zM4.606 59.571a1.277 1.277 0 0 0-1.744.467 21.257 21.257 0 0 0-2.395 6.267 22.312 22.312 0 0 0-.465 4.874c.009.699.579 1.26 1.276 1.26h.017a1.277 1.277 0 0 0 1.26-1.293c-.02-1.471.119-2.924.411-4.316a18.7 18.7 0 0 1 2.107-5.514 1.277 1.277 0 0 0-.467-1.745z"/><circle cx="74.877" cy="95.671" r="1.596"/><path d="M72.614 16.352a1.597 1.597 0 0 0 2.339 1.796 1.598 1.598 0 0 0 .584-2.18 1.583 1.583 0 0 0-.969-.743 1.576 1.576 0 0 0-1.21.159 1.577 1.577 0 0 0-.744.968zM5.384 58.225a1.586 1.586 0 0 0 1.21.159c.412-.11.756-.374.969-.743s.27-.799.16-1.211a1.584 1.584 0 0 0-.744-.969 1.579 1.579 0 0 0-1.211-.16c-.412.11-.756.375-.969.744a1.593 1.593 0 0 0 .585 2.18z"/></g></svg>