<svg xmlns="http://www.w3.org/2000/svg" width="102.849" height="75.001"><path fill="#EFEEEE" d="M36.124 60.722a3.775 3.775 0 0 1-3.771-3.772c0-2.079 1.691-3.771 3.771-3.771s3.772 1.692 3.772 3.771a3.777 3.777 0 0 1-3.772 3.772zm0-5.389c-.891 0-1.616.726-1.616 1.617s.726 1.616 1.616 1.616a1.617 1.617 0 0 0 0-3.233zM35.099 33.829l-.197-.002-.147.002c-5.529 0-10.315-5.305-11.408-12.628-.042-.034-.104-.079-.153-.116-.477-.35-1.272-.934-1.663-2.627-.61-2.644.134-3.774.866-4.258.726-.479 1.68-.433 2.432.115a1.078 1.078 0 1 1-1.271 1.741h-.001c-.091.2-.189.778.072 1.917.211.913.501 1.126.838 1.373.336.246.844.619.991 1.404.917 6.349 4.824 10.922 9.297 10.922l.147-.002.197.002c4.473 0 8.38-4.573 9.288-10.877.155-.83.663-1.202.998-1.449.338-.247.627-.46.839-1.373.263-1.139.162-1.717.073-1.917l-.001.001a1.078 1.078 0 0 1-1.271-1.741c.752-.549 1.708-.594 2.432-.115.732.483 1.476 1.614.866 4.259-.39 1.692-1.188 2.276-1.663 2.625-.05.037-.114.084-.155.117-1.07 7.301-5.864 12.627-11.406 12.627z"/><path fill="#EFEEEE" d="M32.233 20.908h-2.514a1.077 1.077 0 1 1 0-2.155h2.514a1.077 1.077 0 1 1 0 2.155zM39.777 20.908h-2.514a1.077 1.077 0 1 1 0-2.155h2.514a1.077 1.077 0 1 1 0 2.155zM16.363 43.142a1.077 1.077 0 0 1-.921-1.636 17.576 17.576 0 0 1 11.996-8.229l.228-.042c.314-.057.639.027.884.232.022.018.043.038.063.057a10.356 10.356 0 0 0 6.87 2.616c2.543 0 4.995-.94 6.905-2.646.188-.169.428-.265.679-.273.046-.002.133-.002.179.002.101.009.193.025.291.043.031.004.063.01.093.018 4.709.832 8.931 3.607 11.584 7.616a1.08 1.08 0 0 1-1.798 1.19c-2.296-3.469-5.925-5.885-9.983-6.652a12.5 12.5 0 0 1-7.949 2.859 12.508 12.508 0 0 1-7.937-2.848 15.425 15.425 0 0 0-10.263 7.172 1.072 1.072 0 0 1-.921.521zM62.946 74.731H9.064a4.856 4.856 0 0 1-4.85-4.849v-.539c0-.595.483-1.078 1.078-1.078h61.425c.596 0 1.078.483 1.078 1.078v.539a4.855 4.855 0 0 1-4.849 4.849zm-56.523-4.31a2.698 2.698 0 0 0 2.641 2.154h53.882a2.698 2.698 0 0 0 2.639-2.154H6.423z"/><path fill="#EFEEEE" d="M61.263 69.314a1.076 1.076 0 0 1-1.076-1.078V44.714c0-.682-.555-1.235-1.236-1.235H13.013c-.681 0-1.234.554-1.234 1.235v23.522a1.078 1.078 0 0 1-2.156 0V44.714a3.395 3.395 0 0 1 3.39-3.391H58.95a3.394 3.394 0 0 1 3.389 3.391v23.522a1.074 1.074 0 0 1-1.076 1.078zM77.952 74.731H2.518a1.077 1.077 0 1 1 0-2.156h75.434a1.077 1.077 0 1 1 0 2.156zM45.093 17.817c-.425 0-.813-.251-.985-.643l-1.569-3.558c-1.495.933-2.996 1.403-4.475 1.403l-.179-.002c-1.821-.046-3.294-.794-4.592-1.453-1.201-.609-2.336-1.188-3.641-1.188-.248 0-.503.021-.756.063a5.298 5.298 0 0 0-1.214.35l-1.936 4.385a1.07 1.07 0 0 1-1.035.642 1.08 1.08 0 0 1-.972-.733c-1.845-5.479-.655-11.088 3.03-14.289 1.087-.943 3.892-2.592 7.512-2.777a12.64 12.64 0 0 1 1.29 0c3.041.152 5.568 1.087 7.514 2.777 3.686 3.201 4.875 8.811 3.03 14.289a1.077 1.077 0 0 1-.972.733l-.05.001zm-2.098-6.912a1.084 1.084 0 0 1 .987.643l.76 1.721c.331-3.521-.768-6.849-3.069-8.849-2.371-2.059-5.259-2.203-6.208-2.252a11.032 11.032 0 0 0-1.072 0C31.351 2.325 29 3.71 28.182 4.421c-2.302 2-3.399 5.326-3.069 8.849l.76-1.721c.102-.229.279-.417.503-.529a7.509 7.509 0 0 1 2.177-.706 6.93 6.93 0 0 1 1.099-.089c1.82 0 3.243.722 4.617 1.42 1.2.61 2.335 1.187 3.67 1.22l.124.002c1.357 0 2.794-.583 4.269-1.732.192-.152.425-.23.663-.23z"/><g fill="#EFEEEE"><circle cx="5.853" cy="53.177" r="1.078"/><path d="M5.853 54.523a1.349 1.349 0 0 1-1.348-1.347 1.35 1.35 0 0 1 1.348-1.348c.742 0 1.347.604 1.347 1.348 0 .743-.605 1.347-1.347 1.347zm0-2.155a.81.81 0 1 0 0 0z"/></g><g fill="#EFEEEE"><circle cx="81.962" cy="73.653" r="1.078"/><path d="M81.962 75.001a1.349 1.349 0 0 1 0-2.695 1.35 1.35 0 0 1 1.348 1.347 1.35 1.35 0 0 1-1.348 1.348zm0-2.155c-.445 0-.809.362-.809.808a.81.81 0 0 0 1.618 0 .81.81 0 0 0-.809-.808z"/></g><path fill="#EFEEEE" d="M5.853 51.001a1.077 1.077 0 0 1-1.078-1.078v-5.747c0-4.246 3.454-7.701 7.7-7.701a1.076 1.076 0 1 1 0 2.155 5.553 5.553 0 0 0-5.546 5.547v5.747a1.075 1.075 0 0 1-1.076 1.077z"/><g><path fill="#EFEEEE" d="M56.37 35.768a1.08 1.08 0 0 1-1.078-1.078V14.165a1.08 1.08 0 0 1 1.078-1.078h37.986a1.08 1.08 0 0 1 1.078 1.078v14.484a1.078 1.078 0 0 1-2.156 0V15.243h-35.83v19.446c0 .595-.482 1.079-1.078 1.079z"/><path fill="#EFEEEE" d="M93.868 21.607H56.499a1.078 1.078 0 1 1 0-2.156h37.367a1.078 1.078 0 0 1 .002 2.156zM65.562 18.133a1.078 1.078 0 0 1-1.078-1.078v-4.709a3.397 3.397 0 0 1 3.393-3.394 3.397 3.397 0 0 1 3.395 3.394 1.078 1.078 0 1 1-2.156 0 1.239 1.239 0 0 0-2.476 0v4.709a1.082 1.082 0 0 1-1.078 1.078zM82.622 18.133a1.08 1.08 0 0 1-1.078-1.078v-4.709c0-1.871 1.523-3.394 3.395-3.394s3.395 1.521 3.395 3.394a1.078 1.078 0 1 1-2.156 0 1.239 1.239 0 0 0-2.476 0v4.709a1.081 1.081 0 0 1-1.08 1.078zM91.034 54.13c-6.516 0-11.816-5.301-11.816-11.815s5.301-11.813 11.816-11.813c6.514 0 11.814 5.3 11.814 11.813.001 6.514-5.3 11.815-11.814 11.815zm0-21.474c-5.326 0-9.66 4.333-9.66 9.659s4.334 9.659 9.66 9.659 9.658-4.333 9.658-9.659-4.332-9.659-9.658-9.659z"/><path fill="#EFEEEE" d="M95.729 47.88a1.074 1.074 0 0 1-.764-1.837 5.521 5.521 0 0 0 1.623-3.922 5.563 5.563 0 0 0-5.557-5.556c-2.959 0-5.555 2.806-5.555 6.006a1.08 1.08 0 0 1-2.156 0c0-4.347 3.604-8.161 7.711-8.161 4.252 0 7.713 3.459 7.713 7.712a7.66 7.66 0 0 1-2.254 5.443c-.21.209-.485.315-.761.315zM88.386 29.94h-3.861a1.077 1.077 0 0 1-1.078-1.078v-3.861c0-.595.482-1.078 1.078-1.078h3.861c.596 0 1.078.482 1.078 1.078v3.861c0 .596-.483 1.078-1.078 1.078zm-2.783-2.155h1.705v-1.704h-1.705v1.704zM65.327 37.697h-3.861a1.076 1.076 0 0 1-1.078-1.077v-3.861c0-.596.482-1.078 1.078-1.078h3.861c.594 0 1.078.482 1.078 1.078v3.861a1.079 1.079 0 0 1-1.078 1.077zm-2.783-2.155h1.705v-1.705h-1.705v1.705zM72.999 37.697h-3.861a1.076 1.076 0 0 1-1.078-1.077v-3.861c0-.596.482-1.078 1.078-1.078h3.861c.594 0 1.078.482 1.078 1.078v3.861a1.079 1.079 0 0 1-1.078 1.077zm-2.783-2.155h1.705v-1.705h-1.705v1.705zM73.022 45.288h-3.861a1.08 1.08 0 0 1-1.078-1.078v-3.861c0-.596.484-1.078 1.078-1.078h3.861c.596 0 1.078.482 1.078 1.078v3.861a1.077 1.077 0 0 1-1.078 1.078zm-2.783-2.156h1.705v-1.705h-1.705v1.705zM76.81 37.697a1.076 1.076 0 0 1-1.078-1.077v-3.861c0-.596.482-1.078 1.078-1.078h3.861a1.077 1.077 0 1 1 0 2.156h-2.783v2.783c0 .596-.483 1.077-1.078 1.077zM76.835 45.288a1.078 1.078 0 0 1-1.078-1.078v-3.861a1.077 1.077 0 1 1 2.156 0v3.861a1.08 1.08 0 0 1-1.078 1.078z"/><path fill="#EFEEEE" d="M90.882 44.317c-1.104 0-2.002-.898-2.002-2.002s.898-2.002 2.002-2.002 2.002.898 2.002 2.002-.899 2.002-2.002 2.002zm0-2.156a.153.153 0 0 0 0 .306.153.153 0 0 0 0-.306z"/><path fill="#EFEEEE" d="M90.831 42.478a1.078 1.078 0 0 1-1.078-1.078v-2.599a1.08 1.08 0 0 1 2.156 0V41.4c0 .595-.482 1.078-1.078 1.078z"/><path fill="#EFEEEE" d="M93.034 45.398c-.277 0-.553-.104-.762-.315l-1.229-1.228a1.08 1.08 0 0 1 1.525-1.524l1.227 1.228a1.08 1.08 0 0 1-.761 1.839zM69.161 18.52H62.06a1.078 1.078 0 1 1 0-2.156h7.102a1.078 1.078 0 1 1-.001 2.156zM86.456 18.52h-7.104a1.078 1.078 0 1 1 0-2.156h7.104a1.08 1.08 0 0 1 0 2.156zM65.327 29.94h-3.861a1.077 1.077 0 0 1-1.078-1.078v-3.861c0-.595.482-1.078 1.078-1.078h3.861c.594 0 1.078.482 1.078 1.078v3.861a1.08 1.08 0 0 1-1.078 1.078zm-2.783-2.155h1.705v-1.704h-1.705v1.704zM72.999 29.94h-3.861a1.077 1.077 0 0 1-1.078-1.078v-3.861c0-.595.482-1.078 1.078-1.078h3.861c.594 0 1.078.482 1.078 1.078v3.861a1.08 1.08 0 0 1-1.078 1.078zm-2.783-2.155h1.705v-1.704h-1.705v1.704zM80.671 29.94H76.81a1.077 1.077 0 0 1-1.078-1.078v-3.861c0-.595.482-1.078 1.078-1.078h3.861c.596 0 1.078.482 1.078 1.078v3.861a1.078 1.078 0 0 1-1.078 1.078zm-2.783-2.155h1.705v-1.704h-1.705v1.704z"/></g></svg>