<svg xmlns="http://www.w3.org/2000/svg" width="91.482" height="99.999"><g opacity=".5"><path fill="#4087C7" d="M46.775 16.973l.031-.074c-.209.052-.418.103-.625.157.197-.016.398-.025.596-.038l-.002-.045zM89.817 62.368c-2.572-3.966-6.484-10.681-6.484-14.833 0-2.138 1.074-11.11-5.654-20.088l-1.881.503a15.34 15.34 0 0 1-1.572 3.076l1.764 4.65-.088.075c4.943 13.48-3.201 10.08 8.166 27.607.902 1.392.113 2.708-1.76 3.225l-4.725.988v12.967a5.156 5.156 0 0 1-2.129 4.171h2.717a5.162 5.162 0 0 0 5.162-5.162V66.581l4.725-.989c1.873-.516 2.662-1.833 1.759-3.224z"/></g><path fill="#54AD4E" d="M45.671 35.569c8.554-15.666-5.522-34.17-22.919-29.958C10.441 8.593 3.961 21.812 8.315 32.87c4.265 11.534 17.986 16.964 29.202 10.843 4.164 2.286 9.082 2.309 13.197.106a9.132 9.132 0 0 1-5.043-8.25z"/><path fill="#FFF" d="M38.417 35.467a2.758 2.758 0 0 1-3.24 3.241 2.757 2.757 0 0 1-2.163-2.163 2.758 2.758 0 0 1 3.24-3.241 2.76 2.76 0 0 1 2.163 2.163zM21.342 15.533a2.757 2.757 0 0 1-3.24 3.241 2.758 2.758 0 0 1-2.163-2.163 2.754 2.754 0 1 1 5.403-1.078z"/><path fill="#222" d="M10.721 4.918c0 1.696 2.567 1.695 2.567 0 0-1.697-2.567-1.697-2.567 0zM81.009 22.665c0 1.696 2.566 1.695 2.566 0 0-1.697-2.566-1.697-2.566 0zM52.216 66.96V55.348c-7.574 0-6.73.883-5.035-6.701.365-1.633 2.848-1.089 2.48.555l-.807 3.605h4.632c.701 0 1.27.569 1.27 1.271v8.487l7.824-12.398c-5.195 0-5.59.209-6.064-.663-.49-.902-.246-.839 4.814-8.682.908-1.409 3.047-.033 2.135 1.38l-3.502 5.423c5.078 0 5.555-.214 6.035.656.512.93.834-.091-11.436 19.356-.678 1.074-2.346.592-2.346-.677zM62.001 87.36c-10.101 0-11.914-4.108-12.087-4.577-.58-1.569 1.766-2.477 2.395-.932.066.13 1.601 2.939 9.693 2.939 1.696.001 1.7 2.57-.001 2.57z"/><path fill="#222" d="M59.208 98.57l1.518-12.648a1.285 1.285 0 0 1 1.275-1.132h15.357a4.234 4.234 0 0 0 4.229-4.229V66.712c0-.608.426-1.133 1.021-1.258 4.375-.916 7.047-1.106 6.113-2.544-8.361-12.893-7.064-16.448-7.064-19.636a29.305 29.305 0 0 0-4.207-15.151c-.879-1.453 1.32-2.784 2.199-1.328 5.336 8.838 4.508 16.718 4.508 19.572 0 3.085 2.387 8.464 6.719 15.145.627.968.773 2.027.41 2.983-.914 2.404-3.781 2.559-7.129 3.26v12.806a6.806 6.806 0 0 1-6.799 6.799H63.142l-1.385 11.518c-.201 1.685-2.752 1.382-2.549-.308zm28.709-32.916h.006-.006zM26.186 98.557L30.4 66.513c-3.941-3.764-7.377-9.444-9.259-15.343-.517-1.617 1.931-2.402 2.447-.782 1.83 5.733 5.207 11.222 9.034 14.682.715.646.732-1.307-3.888 33.822-.222 1.682-2.77 1.349-2.548-.335zM14.049 49.676C-1.216 41.035-4.883 20.338 7.23 7.037c1.13-1.242 3.012.468 1.879 1.711-10.896 11.965-7.803 30.795 6.192 38.717 1.463.827.211 3.041-1.252 2.211z"/><path fill="#222" d="M8.927 14.248a21.736 21.736 0 0 1 13.526-9.87c18.329-4.44 33.228 14.913 24.494 31.503.094 3.006 1.832 5.538 4.34 6.805.918.462.934 1.771.027 2.255a15.042 15.042 0 0 1-13.794.207c-19.593 9.923-39.992-12.219-28.593-30.9zm2.169 1.322c-8.929 14.635 4.313 32.911 21.058 28.866 4.386-1.062 4.798-2.486 5.975-1.838 2.975 1.632 6.503 2.077 9.932.969-3.726-3.161-3.917-7.851-3.503-8.606a19.386 19.386 0 0 0 1.841-13.871C42.333 4.311 19.999.979 11.096 15.57z"/><path fill="#222" d="M61.981 38.655c-5.771-.466-4.688.288-5.91-4.279-.479-.21-.947-.449-1.4-.717l-2.923 1.111c-1.57.598-2.471-1.78-.902-2.375 5.777-2.196 3.072-1.527 6.738-.147.791.298.762.796 1.52 3.626l2.189.176c2.08-4.629.84-2.486 4.295-4.051.773-.348 1.098.021 3.639 1.489l1.672-1.423c-1.797-4.736-1.162-2.356.172-5.902.295-.783.77-.756 3.627-1.52l.176-2.189c-2.68-1.204-3.172-1.256-3.338-2.083-.746-3.722-1.752-1.472.777-5.852l-1.424-1.674c-2.744 1.045-3.125 1.356-3.828.891-3.162-2.095-2.287.195-3.592-4.688l-2.189-.176c-1.203 2.678-1.254 3.171-2.078 3.338-3.713.754-1.484 1.749-5.854-.775l-1.673 1.423c1.804 4.744 1.145 2.413-.172 5.902-.592 1.571-2.971.675-2.377-.897.264-.7.588-1.377.965-2.016-1.686-4.433-2.074-3.212 2.291-6.927.878-.747 1.554-.078 4.167 1.432.488-.189.988-.352 1.496-.481 1.945-4.33.807-3.742 6.521-3.281 1.148.092 1.154 1.047 1.932 3.962.48.21.949.449 1.4.716 4.43-1.687 3.205-2.086 6.93 2.291.748.876.08 1.551-1.432 4.168.189.488.352.989.48 1.498 4.418 1.984 3.738.828 3.281 6.521-.092 1.149-1.043 1.152-3.961 1.934-.209.481-.449.949-.715 1.401 1.682 4.433 2.084 3.206-2.293 6.93-.873.745-1.512.101-4.166-1.433-.488.19-.988.352-1.496.481-1.222 2.715-1.396 3.701-2.545 3.596zm-1.234-9.51c-5.873-.474-8.388-7.891-3.805-11.788 4.572-3.891 11.498-.244 11.025 5.645a6.701 6.701 0 0 1-7.22 6.143zm-2.631-3.986a4.156 4.156 0 0 0 5.865.474l.002-.001c2.805-2.386 1.334-7.021-2.365-7.319-3.652-.297-5.918 4.004-3.502 6.846zM31.99 34.013l-5.215-5.214c-9.075 0-9.302.229-9.906-.377L8.398 19.95c-1.201-1.198.616-3.021 1.816-1.816l8.096 8.094c9.075 0 9.302-.229 9.905.377l5.592 5.591c1.206 1.204-.62 3.017-1.817 1.817z"/><path fill="#222" d="M35.249 40.5a4.52 4.52 0 0 1-4.514-4.515 4.52 4.52 0 0 1 4.514-4.515 4.522 4.522 0 0 1 4.516 4.515 4.521 4.521 0 0 1-4.516 4.515zm-1.944-4.515c0 2.57 3.889 2.57 3.889 0 0-2.569-3.889-2.571-3.889 0zM18.721 20.588a4.521 4.521 0 0 1-4.516-4.515 4.521 4.521 0 0 1 4.516-4.515 4.52 4.52 0 0 1 4.515 4.515 4.522 4.522 0 0 1-4.515 4.515zm-1.946-4.516c0 2.569 3.89 2.57 3.89 0 0-2.569-3.89-2.57-3.89 0z"/><path fill="#222" d="M44.866 35.114L32.219 22.467h-8.998c-.694 0-.725-.192-3.45-2.918-1.201-1.199.616-3.021 1.816-1.817l2.165 2.165c9.075 0 9.303-.229 9.906.377l13.025 13.024c1.199 1.199-.615 3.02-1.817 1.816zM30.359 15.19l6.459-6.459c1.199-1.202 3.02.615 1.817 1.817l-6.459 6.459c-1.198 1.202-3.019-.615-1.817-1.817zM36.184 16.991l4.977-4.977c1.2-1.201 3.021.614 1.817 1.817L38 18.808c-1.2 1.201-3.019-.615-1.816-1.817zM9.605 35.944l4.023-4.023c1.199-1.202 3.021.615 1.817 1.816l-4.024 4.024c-1.197 1.203-3.019-.615-1.816-1.817zM18.87 42.881l6.354-6.354c1.198-1.202 3.02.615 1.816 1.817l-6.353 6.353c-1.199 1.202-3.02-.614-1.817-1.816zM13.417 39.757l7.836-7.836c1.199-1.202 3.021.614 1.817 1.816l-7.836 7.836c-1.199 1.202-3.02-.614-1.817-1.816zM80.421 18.263C77.628 4.643 61.733-1.938 50.119 5.908c-1.395.94-2.813-1.167-1.424-2.105 13.117-8.86 31.062-1.432 34.216 13.95.336 1.644-2.152 2.155-2.49.51z"/></svg>