<?xml version="1.0" encoding="utf-8"?>
<!-- Generator: Adobe Illustrator 16.0.0, SVG Export Plug-In . SVG Version: 6.00 Build 0)  -->
<!DOCTYPE svg PUBLIC "-//W3C//DTD SVG 1.1//EN" "http://www.w3.org/Graphics/SVG/1.1/DTD/svg11.dtd">
<svg version="1.1" id="Layer_1" xmlns="http://www.w3.org/2000/svg" xmlns:xlink="http://www.w3.org/1999/xlink" x="0px" y="0px"
	 width="105.117px" height="97.045px" viewBox="0 0 105.117 97.045" enable-background="new 0 0 105.117 97.045"
	 xml:space="preserve">
<rect fill="none" width="528.916" height="97.045"/>
<g>
	<defs>
		<rect id="SVGID_1_" width="528.916" height="97.045"/>
	</defs>
	<clipPath id="SVGID_2_">
		<use xlink:href="#SVGID_1_"  overflow="visible"/>
	</clipPath>
	<path clip-path="url(#SVGID_2_)" fill="#53AC4E" d="M64.132,34.274c-5.401,17.471-25.161,23.61-26.994,18.383
		c2.298,1.738,18.551-3.933,21.501-16.973c1.718-7.591-2.71-16.121-18.145-11.554C27.113,28.089,15.615,37.647,6.656,49.541
		c7.288-17.347,27.437-28.136,35.607-30.547C55.854,14.979,68.299,20.796,64.132,34.274 M103.814,27.096
		c-3.902,12.832-20.128,34.609-49.049,45.424c-33.003,12.342-37.034-6.615-31.967-18.416c3.517-8.189,10.035-15.546,17.571-18.642
		c6.865-2.819,9.324-1.864,9.324-1.864c-1.648,0.405-3.748,0.834-9.762,4.46c-6.079,3.664-10.676,8.896-12.622,16.523
		c-2.218,8.696,3.756,21.823,29.751,9.222C97.472,44.21,99.009,14.162,99.043,9.025C104.529,9.885,106.761,17.413,103.814,27.096
		 M47.543,30.956c-4.951,0.191-18.926,5.858-27.898,22.011c-8.823,15.884-3.207,35.531,17.258,36.597
		c13.703,0.711,28.675-4.268,41.9-13.463c-14.107,15.097-30.143,21.114-46.45,20.94C6.926,96.771,4.956,70.627,15.75,51.999
		c7.638-13.184,24.456-24.475,34.09-23.69c10.575,0.861,4.399,12.169,3.073,13.646C54.021,39.195,56.674,30.604,47.543,30.956
		 M80.631,21.648c-0.959,12.57-11.864,25.402-19.235,31.197c-6.382,5.018-16.105,10.563-24.1,9.852
		c-9.674-0.856-7.614-12.905-0.448-19.613c-7.057,11.658-2.124,14.826,2.517,15.111c4.381,0.269,10.922-1.459,18.849-7.686
		c12.904-10.135,25.985-38.081,3.472-42.283c-7.104-1.327-15.214,1.399-15.214,1.399c4.415-3.659,14.999-8.128,22.668-6.224
		C78.314,5.678,81.183,14.403,80.631,21.648"/>
</g>
<g>
	<defs>
		<rect id="SVGID_3_" width="528.916" height="97.045"/>
	</defs>
	<clipPath id="SVGID_4_">
		<use xlink:href="#SVGID_3_"  overflow="visible"/>
	</clipPath>
	<path clip-path="url(#SVGID_4_)" fill="#007DC5" d="M89.454,63.741c-11.1,10.269-23.804,16.529-38.1,19.996
		C23.97,90.383,16.992,72.825,18.45,65.075c-0.003,4.717,4.18,22.04,30.932,13.813c37.354-11.486,52.44-36.991,52.44-36.991
		C102.061,45.705,100.705,53.335,89.454,63.741 M77.334,45.063c-12.87,13.98-29.632,20.079-32.643,19.665
		c3.659-0.576,31.214-10.832,40.225-39.696C89.812,9.35,81.884,1.934,74.998,1.129c5.807-1.979,11.27-1.295,14.706,1.555
		C96.437,8.272,94.239,26.702,77.334,45.063 M6.087,90.11c-4.781-8.215,2.11-29.823,3.737-31.182c0,0-7.876,17.426,0.378,31.243
		c1.693,2.835,4.644,4.859,7.039,6.595C12.238,96.394,8.749,94.681,6.087,90.11 M58.828,47.165
		c5.118-5.853,14.435-19.803,5.86-28.78c-8.416-8.811-29.219-1.935-37.701,4.913c3.06-3.499,8.746-7.757,15.122-9.988
		c11.316-3.958,20.712-2.738,25.571,3.422C74.443,25.304,66.095,40.398,58.828,47.165 M29.102,34.269
		C6.14,51.812,2,69.526,1.78,79.996c-2.74-4.79-3.169-14.103,4.963-26.149c5.112-7.573,13.521-16.244,21.965-21.603
		c11.155-7.08,19.332-7.276,21.065-6.623C46.954,25.537,38.618,26.999,29.102,34.269"/>
</g>
</svg>
