<svg xmlns="http://www.w3.org/2000/svg" xmlns:xlink="http://www.w3.org/1999/xlink" width="528.916" height="97.045"><defs><path id="a" d="M0 0h528.916v97.045H0z"/></defs><clipPath id="b"><use xlink:href="#a" overflow="visible"/></clipPath><path clip-path="url(#b)" fill="#FFF" d="M141.765 67.116l-2.974-8.231h-11.42l-2.815 8.231h-7.276l13.384-37.445h5.364l13.385 37.445h-7.648zm-7.33-22.36l-1.115-5.843h-.266l-1.115 5.896-2.709 8.231h7.967l-2.762-8.284zm24.38 11.845c0 1.841.185 3.16.557 3.957.372.796 1.071 1.194 2.098 1.194.708 0 1.319-.07 1.832-.212a12.4 12.4 0 0 0 1.727-.638l1.221 5.312c-.956.461-2.071.85-3.346 1.169a16.016 16.016 0 0 1-3.877.478c-2.443 0-4.241-.629-5.391-1.885-1.152-1.257-1.727-3.32-1.727-6.188V46.402h-3.664V40.56h3.664v-4.993l6.906-1.965v6.958h6.479v5.842h-6.479v10.199zm18.961 0c0 1.841.186 3.16.558 3.957.372.796 1.071 1.194 2.097 1.194.709 0 1.32-.07 1.833-.212a12.4 12.4 0 0 0 1.727-.638l1.221 5.312c-.956.461-2.071.85-3.347 1.169a16.004 16.004 0 0 1-3.877.478c-2.443 0-4.24-.629-5.39-1.885-1.151-1.257-1.727-3.32-1.727-6.188V46.402h-3.664V40.56h3.664v-4.993l6.905-1.965v6.958h6.48v5.842h-6.48v10.199zm25.388-9.561c-1.098-.388-2.09-.584-2.974-.584-1.24 0-2.276.328-3.107.983a4.73 4.73 0 0 0-1.673 2.522v17.155h-6.905V40.561h5.364l.797 3.505h.212c.602-1.309 1.416-2.318 2.444-3.027 1.026-.708 2.23-1.062 3.611-1.062.921 0 1.965.194 3.134.584l-.903 6.479zm24.193 11.632a51.45 51.45 0 0 0 .133 4.435c.106 1.434.371 2.789.796 4.063h-5.63l-1.115-3.663h-.265c-.709 1.097-1.692 2.045-2.948 2.841-1.257.797-2.878 1.194-4.86 1.194-1.24 0-2.355-.185-3.347-.557a7.241 7.241 0 0 1-2.549-1.594 7.236 7.236 0 0 1-1.646-2.443c-.39-.938-.585-1.992-.585-3.16 0-1.628.363-3.001 1.09-4.116.725-1.115 1.769-2.019 3.133-2.708 1.363-.691 2.992-1.17 4.886-1.435 1.894-.266 4.011-.346 6.347-.24.248-1.981.107-3.407-.424-4.275-.532-.867-1.718-1.301-3.559-1.301-1.381 0-2.842.142-4.382.425-1.54.283-2.806.655-3.798 1.115l-1.646-5.152c1.416-.637 3.098-1.142 5.046-1.514a32.495 32.495 0 0 1 6.108-.557c1.84 0 3.381.221 4.621.663 1.239.444 2.221 1.072 2.948 1.886.725.815 1.238 1.789 1.54 2.921.3 1.134.451 2.409.451 3.824 0 1.56-.053 3.126-.159 4.701a82.117 82.117 0 0 0-.186 4.647m-6.506-3.187a19.12 19.12 0 0 0-3.161-.053c-1.009.071-1.903.229-2.682.478-.779.248-1.399.603-1.859 1.063-.461.46-.69 1.044-.69 1.753 0 .991.292 1.761.876 2.31s1.389.823 2.417.823c1.381 0 2.478-.309 3.293-.93.814-.619 1.415-1.282 1.806-1.991v-3.453zm26.528-9.241c-.796-.213-1.708-.319-2.734-.319-1.912 0-3.365.63-4.356 1.886-.992 1.257-1.487 3.266-1.487 6.028 0 1.133.124 2.178.372 3.134.247.956.619 1.788 1.115 2.496a5.212 5.212 0 0 0 1.939 1.673c.796.408 1.726.61 2.788.61 1.169 0 2.159-.149 2.975-.451.814-.301 1.54-.663 2.177-1.088l1.593 5.258c-1.062.778-2.346 1.372-3.85 1.778a17.722 17.722 0 0 1-4.647.611c-2.125 0-3.923-.337-5.391-1.009-1.47-.672-2.665-1.62-3.586-2.842-.92-1.223-1.585-2.7-1.991-4.436-.408-1.733-.611-3.646-.611-5.735 0-4.496 1.009-7.958 3.027-10.383 2.019-2.426 4.957-3.639 8.817-3.639 1.947 0 3.514.16 4.701.478 1.185.319 2.257.726 3.213 1.222l-1.647 5.63a13.898 13.898 0 0 0-2.417-.902m16.386 10.357c0 1.841.186 3.16.558 3.957.371.796 1.07 1.194 2.098 1.194.707 0 1.318-.07 1.832-.212a12.345 12.345 0 0 0 1.726-.638l1.223 5.312c-.956.461-2.071.85-3.346 1.169a16.016 16.016 0 0 1-3.877.478c-2.443 0-4.241-.629-5.391-1.885-1.152-1.257-1.727-3.32-1.727-6.188V46.402h-3.665V40.56h3.665v-4.993l6.905-1.965v6.958h6.48v5.842h-6.48v10.199zm30.939 7.621c-2.178 2.426-5.25 3.639-9.216 3.639-2.124 0-3.965-.337-5.523-1.009s-2.859-1.62-3.904-2.842c-1.045-1.223-1.823-2.7-2.337-4.436-.513-1.733-.77-3.646-.77-5.735 0-4.496 1.097-7.958 3.293-10.383 2.195-2.426 5.276-3.639 9.241-3.639 2.125 0 3.966.337 5.524 1.009 1.558.673 2.85 1.621 3.877 2.842 1.026 1.222 1.796 2.7 2.311 4.435.513 1.735.77 3.646.77 5.736 0 4.496-1.089 7.959-3.266 10.383m-5.073-16.305c-.813-1.505-2.195-2.257-4.143-2.257-1.699 0-3.027.637-3.983 1.912-.956 1.274-1.434 3.364-1.434 6.268 0 1.169.105 2.249.318 3.239.212.992.531 1.859.956 2.604.425.743.983 1.318 1.673 1.725.691.408 1.515.612 2.47.612 1.806 0 3.151-.656 4.037-1.966.885-1.31 1.327-3.381 1.327-6.214.001-2.444-.406-4.417-1.221-5.923m27.247-.877c-1.098-.388-2.09-.584-2.975-.584-1.239 0-2.275.328-3.107.983a4.736 4.736 0 0 0-1.673 2.522v17.155h-6.904V40.561h5.364l.797 3.505h.212c.603-1.309 1.416-2.318 2.443-3.027 1.026-.708 2.23-1.062 3.611-1.062.921 0 1.966.194 3.135.584l-.903 6.479zm31.88-10.924c-1.558-.408-3.24-.611-5.046-.611-1.699 0-3 .337-3.903 1.009-.902.673-1.354 1.576-1.354 2.708 0 1.063.416 1.948 1.249 2.656.831.709 1.876 1.364 3.133 1.965 1.257.603 2.62 1.222 4.09 1.859a21.963 21.963 0 0 1 4.09 2.311 11.776 11.776 0 0 1 3.134 3.346c.832 1.327 1.249 2.983 1.249 4.966s-.328 3.691-.983 5.125c-.656 1.435-1.576 2.629-2.762 3.585-1.188.956-2.621 1.665-4.303 2.125-1.683.46-3.531.69-5.551.69-2.655 0-4.992-.248-7.01-.744-2.019-.495-3.506-.99-4.462-1.487l2.337-6.214c.389.213.894.444 1.514.691a18.96 18.96 0 0 0 2.099.689c.777.213 1.602.391 2.47.531.867.143 1.76.213 2.682.213 2.159 0 3.815-.363 4.966-1.089s1.727-1.832 1.727-3.319c0-1.134-.417-2.053-1.248-2.762-.833-.708-1.877-1.354-3.134-1.938s-2.62-1.187-4.089-1.807a20.865 20.865 0 0 1-4.091-2.284 11.63 11.63 0 0 1-3.134-3.373c-.832-1.345-1.248-3.062-1.248-5.151 0-1.806.301-3.373.903-4.7a8.795 8.795 0 0 1 2.576-3.32c1.114-.885 2.434-1.541 3.957-1.965 1.521-.425 3.221-.638 5.098-.638 2.16 0 4.196.186 6.108.558 1.913.371 3.487.912 4.728 1.62l-2.284 6.108c-.782-.493-1.95-.946-3.508-1.353m31.788 28.097c-2.177 2.426-5.249 3.638-9.215 3.638-2.124 0-3.966-.336-5.523-1.009-1.559-.673-2.859-1.62-3.904-2.842-1.044-1.222-1.824-2.699-2.336-4.435-.515-1.735-.771-3.647-.771-5.736 0-4.497 1.097-7.958 3.293-10.384 2.195-2.425 5.275-3.638 9.241-3.638 2.125 0 3.966.337 5.524 1.009 1.558.673 2.85 1.62 3.877 2.841 1.026 1.222 1.797 2.701 2.31 4.436.514 1.735.771 3.647.771 5.736 0 4.496-1.089 7.958-3.267 10.384m-5.072-16.307c-.814-1.504-2.195-2.257-4.143-2.257-1.699 0-3.027.637-3.983 1.912s-1.434 3.365-1.434 6.268c0 1.168.105 2.249.318 3.239.213.992.53 1.859.955 2.604.426.742.983 1.318 1.675 1.726.689.408 1.513.611 2.469.611 1.806 0 3.151-.655 4.037-1.966.885-1.31 1.328-3.381 1.328-6.214 0-2.443-.408-4.417-1.222-5.923m27.725-11.869c-.815-.284-1.532-.469-2.151-.558a13.792 13.792 0 0 0-1.938-.133c-.709 0-1.267.106-1.674.319-.407.212-.708.54-.902.983-.195.442-.319.991-.372 1.646a28.347 28.347 0 0 0-.079 2.257h5.842v5.842h-5.842v20.714h-6.905V46.393h-3.665V40.55h3.665v-1.487c0-3.364.708-5.798 2.125-7.303 1.415-1.504 3.469-2.257 6.161-2.257 2.832 0 5.187.337 7.063 1.009l-1.328 5.525zm10.516 20.554c0 1.842.187 3.16.559 3.958.37.796 1.069 1.193 2.098 1.193.708 0 1.318-.069 1.833-.212a12.383 12.383 0 0 0 1.725-.638l1.223 5.312c-.956.461-2.071.85-3.347 1.168a15.907 15.907 0 0 1-3.877.479c-2.442 0-4.241-.629-5.391-1.885-1.151-1.257-1.727-3.32-1.727-6.188V46.393h-3.666V40.55h3.666v-4.992l6.904-1.966v6.958h6.48v5.842h-6.48v10.199zm37.87 10.781h-5.099l-5.365-14.871-.69-3.346h-.266l-.637 3.399-5.1 14.817h-5.258l-8.55-26.821h7.489l3.877 13.333.638 4.727h.265l.903-4.78 4.408-13.28h5.099l4.834 13.597.956 4.409h.212l.744-4.462 3.399-13.544h6.319l-8.178 26.822zm30.991-8.71a51.08 51.08 0 0 0 .132 4.436c.107 1.434.372 2.788.797 4.063h-5.63l-1.115-3.665h-.266c-.708 1.099-1.691 2.045-2.947 2.843-1.258.796-2.878 1.193-4.86 1.193-1.239 0-2.354-.185-3.346-.557a7.235 7.235 0 0 1-2.549-1.593 7.275 7.275 0 0 1-1.648-2.443c-.389-.938-.584-1.992-.584-3.161 0-1.628.363-3.001 1.09-4.116.726-1.115 1.771-2.019 3.134-2.709 1.361-.689 2.992-1.169 4.886-1.434 1.894-.267 4.01-.345 6.347-.239.247-1.982.107-3.407-.425-4.276-.531-.867-1.718-1.301-3.558-1.301-1.381 0-2.842.142-4.382.425-1.54.284-2.807.655-3.798 1.116l-1.646-5.153c1.416-.637 3.098-1.141 5.046-1.513a32.494 32.494 0 0 1 6.108-.558c1.84 0 3.381.222 4.619.664 1.24.443 2.223 1.072 2.948 1.885.727.815 1.239 1.789 1.541 2.921.3 1.134.451 2.409.451 3.825 0 1.559-.053 3.125-.16 4.7a84.093 84.093 0 0 0-.185 4.647m-6.507-3.186a18.985 18.985 0 0 0-3.159-.053c-1.01.07-1.905.23-2.684.478-.778.248-1.398.604-1.858 1.063-.461.46-.69 1.045-.69 1.753 0 .99.292 1.762.876 2.311.584.548 1.39.822 2.417.822 1.381 0 2.479-.31 3.293-.93.814-.618 1.415-1.282 1.806-1.991v-3.453zm26.769-8.446c-1.098-.389-2.09-.585-2.975-.585-1.24 0-2.275.328-3.107.983a4.738 4.738 0 0 0-1.673 2.523v17.155h-6.904V40.55h5.364l.797 3.505h.212c.602-1.309 1.416-2.318 2.443-3.027 1.026-.707 2.23-1.062 3.612-1.062.921 0 1.965.195 3.133.584l-.902 6.48zm25.945 5.897c-.087.85-.221 1.734-.396 2.654h-15.883c.105 2.231.679 3.913 1.72 5.046 1.041 1.135 2.728 1.699 5.056 1.699 1.446 0 2.744-.22 3.891-.663 1.147-.442 2.02-.894 2.62-1.354l2.276 4.515c-1.063.85-2.506 1.567-4.329 2.151s-3.763.876-5.815.876c-4.285 0-7.419-1.248-9.402-3.744-1.982-2.496-2.974-5.922-2.974-10.277 0-4.674 1.116-8.18 3.346-10.517 2.231-2.337 5.365-3.505 9.402-3.505 1.344 0 2.655.177 3.93.531a9.158 9.158 0 0 1 3.399 1.752c.991.815 1.787 1.912 2.39 3.293.603 1.382.903 3.099.903 5.153a23.635 23.635 0 0 1-.134 2.39m-7.165-6.055c-.723-1.027-1.858-1.541-3.408-1.541-1.796 0-3.126.54-3.989 1.62-.862 1.081-1.381 2.523-1.557 4.329h9.825c.141-1.913-.149-3.382-.871-4.408M64.132 34.274c-5.401 17.471-25.161 23.61-26.994 18.383 2.298 1.739 18.551-3.933 21.501-16.973 1.718-7.591-2.71-16.121-18.145-11.554-13.381 3.959-24.879 13.517-33.838 25.411 7.288-17.347 27.437-28.136 35.607-30.547 13.591-4.015 26.036 1.802 21.869 15.28m39.682-7.178C99.912 39.928 83.686 61.705 54.765 72.52c-33.003 12.343-37.034-6.615-31.967-18.416 3.517-8.189 10.035-15.546 17.571-18.641 6.865-2.819 9.324-1.864 9.324-1.864-1.648.405-3.748.834-9.762 4.46-6.079 3.664-10.676 8.896-12.622 16.523-2.218 8.697 3.756 21.823 29.751 9.221C97.472 44.21 99.009 14.162 99.043 9.025c5.486.86 7.718 8.388 4.771 18.071m-56.271 3.86c-4.951.191-18.926 5.858-27.898 22.011-8.823 15.884-3.207 35.531 17.258 36.596 13.703.711 28.675-4.267 41.9-13.463-14.107 15.097-30.143 21.115-46.45 20.941-25.427-.27-27.397-26.414-16.603-45.042 7.638-13.184 24.456-24.475 34.09-23.69 10.575.861 4.399 12.169 3.073 13.646 1.108-2.76 3.761-11.351-5.37-10.999m33.088-9.308c-.959 12.57-11.864 25.402-19.235 31.197-6.382 5.017-16.105 10.562-24.1 9.852-9.674-.857-7.614-12.906-.448-19.614-7.057 11.658-2.124 14.826 2.517 15.111 4.381.269 10.922-1.459 18.849-7.685 12.904-10.135 25.985-38.081 3.472-42.283-7.104-1.327-15.214 1.399-15.214 1.399 4.415-3.659 14.999-8.128 22.668-6.224 9.174 2.277 12.043 11.002 11.491 18.247"/><path clip-path="url(#b)" fill="#FFF" d="M89.454 63.741c-11.1 10.269-23.804 16.529-38.1 19.997C23.97 90.383 16.992 72.825 18.45 65.075c-.003 4.717 4.18 22.04 30.932 13.813 37.354-11.487 52.44-36.991 52.44-36.991.239 3.808-1.117 11.438-12.368 21.844m-12.12-18.678c-12.87 13.98-29.632 20.079-32.643 19.664 3.659-.575 31.214-10.831 40.225-39.696C89.812 9.35 81.884 1.934 74.998 1.129 80.805-.85 86.268-.166 89.704 2.684c6.733 5.588 4.535 24.018-12.37 42.379M6.087 90.11c-4.781-8.214 2.11-29.823 3.737-31.181 0 0-7.876 17.426.378 31.243 1.693 2.835 4.644 4.859 7.039 6.594-5.003-.373-8.492-2.085-11.154-6.656m52.741-42.945c5.118-5.853 14.435-19.803 5.86-28.78-8.416-8.811-29.219-1.935-37.701 4.913 3.06-3.499 8.746-7.757 15.122-9.988 11.316-3.958 20.712-2.738 25.571 3.422 6.763 8.572-1.585 23.666-8.852 30.433M29.102 34.269C6.14 51.812 2 69.526 1.78 79.996c-2.74-4.79-3.169-14.103 4.963-26.149 5.112-7.573 13.521-16.244 21.965-21.603 11.155-7.08 19.332-7.276 21.065-6.623-2.819-.084-11.155 1.378-20.671 8.648"/></svg>