<?xml version="1.0" encoding="utf-8"?>
<!-- Generator: Adobe Illustrator 16.0.0, SVG Export Plug-In . SVG Version: 6.00 Build 0)  -->
<!DOCTYPE svg PUBLIC "-//W3C//DTD SVG 1.1//EN" "http://www.w3.org/Graphics/SVG/1.1/DTD/svg11.dtd">
<svg version="1.1" id="Layer_1" xmlns="http://www.w3.org/2000/svg" xmlns:xlink="http://www.w3.org/1999/xlink" x="0px" y="0px"
	 width="528.916px" height="97.045px" viewBox="0 0 528.916 97.045" enable-background="new 0 0 528.916 97.045"
	 xml:space="preserve">
<g>
	<defs>
		<rect id="SVGID_1_" width="528.916" height="97.045"/>
	</defs>
	<clipPath id="SVGID_2_">
		<use xlink:href="#SVGID_1_"  overflow="visible"/>
	</clipPath>
	<path clip-path="url(#SVGID_2_)" fill="#FFFFFF" d="M141.765,67.116l-2.974-8.231h-11.42l-2.815,8.231h-7.276l13.384-37.445h5.364
		l13.385,37.445H141.765z M134.435,44.756l-1.115-5.843h-0.266l-1.115,5.896l-2.709,8.231h7.967L134.435,44.756z M158.815,56.601
		c0,1.841,0.185,3.16,0.557,3.957c0.372,0.796,1.071,1.194,2.098,1.194c0.708,0,1.319-0.07,1.832-0.212
		c0.513-0.141,1.089-0.354,1.727-0.638l1.221,5.312c-0.956,0.461-2.071,0.85-3.346,1.169c-1.275,0.317-2.568,0.478-3.877,0.478
		c-2.443,0-4.241-0.629-5.391-1.885c-1.152-1.257-1.727-3.32-1.727-6.188V46.402h-3.664v-5.842h3.664v-4.993l6.906-1.965v6.958
		h6.479v5.842h-6.479V56.601z M177.776,56.601c0,1.841,0.186,3.16,0.558,3.957c0.372,0.796,1.071,1.194,2.097,1.194
		c0.709,0,1.32-0.07,1.833-0.212c0.513-0.141,1.089-0.354,1.727-0.638l1.221,5.312c-0.956,0.461-2.071,0.85-3.347,1.169
		c-1.274,0.317-2.567,0.478-3.877,0.478c-2.443,0-4.24-0.629-5.39-1.885c-1.151-1.257-1.727-3.32-1.727-6.188V46.402h-3.664v-5.842
		h3.664v-4.993l6.905-1.965v6.958h6.48v5.842h-6.48V56.601z M203.164,47.04c-1.098-0.388-2.09-0.584-2.974-0.584
		c-1.24,0-2.276,0.328-3.107,0.983c-0.833,0.656-1.39,1.496-1.673,2.522v17.155h-6.905V40.561h5.364l0.797,3.505h0.212
		c0.602-1.309,1.416-2.318,2.444-3.027c1.026-0.708,2.23-1.062,3.611-1.062c0.921,0,1.965,0.194,3.134,0.584L203.164,47.04z
		 M227.357,58.672c-0.018,1.522,0.026,3.001,0.133,4.435c0.106,1.434,0.371,2.789,0.796,4.063h-5.63l-1.115-3.663h-0.265
		c-0.709,1.097-1.692,2.045-2.948,2.841c-1.257,0.797-2.878,1.194-4.86,1.194c-1.24,0-2.355-0.185-3.347-0.557
		c-0.991-0.372-1.841-0.903-2.549-1.594c-0.709-0.691-1.257-1.504-1.646-2.443c-0.39-0.938-0.585-1.992-0.585-3.16
		c0-1.628,0.363-3.001,1.09-4.116c0.725-1.115,1.769-2.019,3.133-2.708c1.363-0.691,2.992-1.17,4.886-1.435
		c1.894-0.266,4.011-0.346,6.347-0.24c0.248-1.981,0.107-3.407-0.424-4.275c-0.532-0.867-1.718-1.301-3.559-1.301
		c-1.381,0-2.842,0.142-4.382,0.425c-1.54,0.283-2.806,0.655-3.798,1.115l-1.646-5.152c1.416-0.637,3.098-1.142,5.046-1.514
		c1.947-0.372,3.983-0.557,6.108-0.557c1.84,0,3.381,0.221,4.621,0.663c1.239,0.444,2.221,1.072,2.948,1.886
		c0.725,0.815,1.238,1.789,1.54,2.921c0.3,1.134,0.451,2.409,0.451,3.824c0,1.56-0.053,3.126-0.159,4.701
		C227.436,55.601,227.374,57.149,227.357,58.672 M220.851,55.485c-1.099-0.105-2.152-0.124-3.161-0.053
		c-1.009,0.071-1.903,0.229-2.682,0.478c-0.779,0.248-1.399,0.603-1.859,1.063c-0.461,0.46-0.69,1.044-0.69,1.753
		c0,0.991,0.292,1.761,0.876,2.31s1.389,0.823,2.417,0.823c1.381,0,2.478-0.309,3.293-0.93c0.814-0.619,1.415-1.282,1.806-1.991
		V55.485z M247.379,46.244c-0.796-0.213-1.708-0.319-2.734-0.319c-1.912,0-3.365,0.63-4.356,1.886
		c-0.992,1.257-1.487,3.266-1.487,6.028c0,1.133,0.124,2.178,0.372,3.134c0.247,0.956,0.619,1.788,1.115,2.496
		c0.495,0.709,1.142,1.266,1.939,1.673c0.796,0.408,1.726,0.61,2.788,0.61c1.169,0,2.159-0.149,2.975-0.451
		c0.814-0.301,1.54-0.663,2.177-1.088l1.593,5.258c-1.062,0.778-2.346,1.372-3.85,1.778c-1.505,0.407-3.054,0.611-4.647,0.611
		c-2.125,0-3.923-0.337-5.391-1.009c-1.47-0.672-2.665-1.62-3.586-2.842c-0.92-1.223-1.585-2.7-1.991-4.436
		c-0.408-1.733-0.611-3.646-0.611-5.735c0-4.496,1.009-7.958,3.027-10.383c2.019-2.426,4.957-3.639,8.817-3.639
		c1.947,0,3.514,0.16,4.701,0.478c1.185,0.319,2.257,0.726,3.213,1.222l-1.647,5.63C248.981,46.757,248.177,46.456,247.379,46.244
		 M263.765,56.601c0,1.841,0.186,3.16,0.558,3.957c0.371,0.796,1.07,1.194,2.098,1.194c0.707,0,1.318-0.07,1.832-0.212
		c0.513-0.141,1.089-0.354,1.726-0.638l1.223,5.312c-0.956,0.461-2.071,0.85-3.346,1.169c-1.275,0.317-2.568,0.478-3.877,0.478
		c-2.443,0-4.241-0.629-5.391-1.885c-1.152-1.257-1.727-3.32-1.727-6.188V46.402h-3.665v-5.842h3.665v-4.993l6.905-1.965v6.958h6.48
		v5.842h-6.48V56.601z M294.704,64.222c-2.178,2.426-5.25,3.639-9.216,3.639c-2.124,0-3.965-0.337-5.523-1.009
		s-2.859-1.62-3.904-2.842c-1.045-1.223-1.823-2.7-2.337-4.436c-0.513-1.733-0.77-3.646-0.77-5.735
		c0-4.496,1.097-7.958,3.293-10.383c2.195-2.426,5.276-3.639,9.241-3.639c2.125,0,3.966,0.337,5.524,1.009
		c1.558,0.673,2.85,1.621,3.877,2.842c1.026,1.222,1.796,2.7,2.311,4.435c0.513,1.735,0.77,3.646,0.77,5.736
		C297.97,58.335,296.881,61.798,294.704,64.222 M289.631,47.917c-0.813-1.505-2.195-2.257-4.143-2.257
		c-1.699,0-3.027,0.637-3.983,1.912c-0.956,1.274-1.434,3.364-1.434,6.268c0,1.169,0.105,2.249,0.318,3.239
		c0.212,0.992,0.531,1.859,0.956,2.604c0.425,0.743,0.983,1.318,1.673,1.725c0.691,0.408,1.515,0.612,2.47,0.612
		c1.806,0,3.151-0.656,4.037-1.966c0.885-1.31,1.327-3.381,1.327-6.214C290.853,51.396,290.446,49.423,289.631,47.917
		 M316.878,47.04c-1.098-0.388-2.09-0.584-2.975-0.584c-1.239,0-2.275,0.328-3.107,0.983c-0.832,0.656-1.39,1.496-1.673,2.522
		v17.155h-6.904V40.561h5.364l0.797,3.505h0.212c0.603-1.309,1.416-2.318,2.443-3.027c1.026-0.708,2.23-1.062,3.611-1.062
		c0.921,0,1.966,0.194,3.135,0.584L316.878,47.04z M348.758,36.116c-1.558-0.408-3.24-0.611-5.046-0.611
		c-1.699,0-3,0.337-3.903,1.009c-0.902,0.673-1.354,1.576-1.354,2.708c0,1.063,0.416,1.948,1.249,2.656
		c0.831,0.709,1.876,1.364,3.133,1.965c1.257,0.603,2.62,1.222,4.09,1.859c1.469,0.637,2.833,1.408,4.09,2.311
		c1.256,0.902,2.302,2.018,3.134,3.346c0.832,1.327,1.249,2.983,1.249,4.966c0,1.983-0.328,3.691-0.983,5.125
		c-0.656,1.435-1.576,2.629-2.762,3.585c-1.188,0.956-2.621,1.665-4.303,2.125c-1.683,0.46-3.531,0.69-5.551,0.69
		c-2.655,0-4.992-0.248-7.01-0.744c-2.019-0.495-3.506-0.99-4.462-1.487l2.337-6.214c0.389,0.213,0.894,0.444,1.514,0.691
		c0.619,0.248,1.318,0.478,2.099,0.689c0.777,0.213,1.602,0.391,2.47,0.531c0.867,0.143,1.76,0.213,2.682,0.213
		c2.159,0,3.815-0.363,4.966-1.089s1.727-1.832,1.727-3.319c0-1.134-0.417-2.053-1.248-2.762c-0.833-0.708-1.877-1.354-3.134-1.938
		s-2.62-1.187-4.089-1.807c-1.471-0.619-2.833-1.381-4.091-2.284c-1.257-0.903-2.303-2.027-3.134-3.373
		c-0.832-1.345-1.248-3.062-1.248-5.151c0-1.806,0.301-3.373,0.903-4.7c0.601-1.329,1.46-2.435,2.576-3.32
		c1.114-0.885,2.434-1.541,3.957-1.965c1.521-0.425,3.221-0.638,5.098-0.638c2.16,0,4.196,0.186,6.108,0.558
		c1.913,0.371,3.487,0.912,4.728,1.62l-2.284,6.108C351.484,36.976,350.316,36.523,348.758,36.116 M380.546,64.213
		c-2.177,2.426-5.249,3.638-9.215,3.638c-2.124,0-3.966-0.336-5.523-1.009c-1.559-0.673-2.859-1.62-3.904-2.842
		c-1.044-1.222-1.824-2.699-2.336-4.435c-0.515-1.735-0.771-3.647-0.771-5.736c0-4.497,1.097-7.958,3.293-10.384
		c2.195-2.425,5.275-3.638,9.241-3.638c2.125,0,3.966,0.337,5.524,1.009c1.558,0.673,2.85,1.62,3.877,2.841
		c1.026,1.222,1.797,2.701,2.31,4.436c0.514,1.735,0.771,3.647,0.771,5.736C383.813,58.325,382.724,61.787,380.546,64.213
		 M375.474,47.906c-0.814-1.504-2.195-2.257-4.143-2.257c-1.699,0-3.027,0.637-3.983,1.912s-1.434,3.365-1.434,6.268
		c0,1.168,0.105,2.249,0.318,3.239c0.213,0.992,0.53,1.859,0.955,2.604c0.426,0.742,0.983,1.318,1.675,1.726
		c0.689,0.408,1.513,0.611,2.469,0.611c1.806,0,3.151-0.655,4.037-1.966c0.885-1.31,1.328-3.381,1.328-6.214
		C376.696,51.386,376.288,49.412,375.474,47.906 M403.199,36.037c-0.815-0.284-1.532-0.469-2.151-0.558
		c-0.62-0.088-1.267-0.133-1.938-0.133c-0.709,0-1.267,0.106-1.674,0.319c-0.407,0.212-0.708,0.54-0.902,0.983
		c-0.195,0.442-0.319,0.991-0.372,1.646c-0.053,0.656-0.079,1.407-0.079,2.257h5.842v5.842h-5.842v20.714h-6.905V46.393h-3.665
		V40.55h3.665v-1.487c0-3.364,0.708-5.798,2.125-7.303c1.415-1.504,3.469-2.257,6.161-2.257c2.832,0,5.187,0.337,7.063,1.009
		L403.199,36.037z M413.715,56.591c0,1.842,0.187,3.16,0.559,3.958c0.37,0.796,1.069,1.193,2.098,1.193
		c0.708,0,1.318-0.069,1.833-0.212c0.512-0.141,1.088-0.354,1.725-0.638l1.223,5.312c-0.956,0.461-2.071,0.85-3.347,1.168
		c-1.274,0.319-2.567,0.479-3.877,0.479c-2.442,0-4.241-0.629-5.391-1.885c-1.151-1.257-1.727-3.32-1.727-6.188V46.393h-3.666V40.55
		h3.666v-4.992l6.904-1.966v6.958h6.48v5.842h-6.48V56.591z M451.585,67.372h-5.099l-5.365-14.871l-0.69-3.346h-0.266l-0.637,3.399
		l-5.1,14.817h-5.258L420.62,40.55h7.489l3.877,13.333l0.638,4.727h0.265l0.903-4.78L438.2,40.55h5.099l4.834,13.597l0.956,4.409
		h0.212l0.744-4.462l3.399-13.544h6.319L451.585,67.372z M482.576,58.662c-0.019,1.523,0.025,3.001,0.132,4.436
		c0.107,1.434,0.372,2.788,0.797,4.063h-5.63l-1.115-3.665h-0.266c-0.708,1.099-1.691,2.045-2.947,2.843
		c-1.258,0.796-2.878,1.193-4.86,1.193c-1.239,0-2.354-0.185-3.346-0.557c-0.992-0.372-1.842-0.903-2.549-1.593
		c-0.709-0.691-1.258-1.506-1.648-2.443c-0.389-0.938-0.584-1.992-0.584-3.161c0-1.628,0.363-3.001,1.09-4.116
		c0.726-1.115,1.771-2.019,3.134-2.709c1.361-0.689,2.992-1.169,4.886-1.434c1.894-0.267,4.01-0.345,6.347-0.239
		c0.247-1.982,0.107-3.407-0.425-4.276c-0.531-0.867-1.718-1.301-3.558-1.301c-1.381,0-2.842,0.142-4.382,0.425
		c-1.54,0.284-2.807,0.655-3.798,1.116l-1.646-5.153c1.416-0.637,3.098-1.141,5.046-1.513c1.947-0.372,3.983-0.558,6.108-0.558
		c1.84,0,3.381,0.222,4.619,0.664c1.24,0.443,2.223,1.072,2.948,1.885c0.727,0.815,1.239,1.789,1.541,2.921
		c0.3,1.134,0.451,2.409,0.451,3.825c0,1.559-0.053,3.125-0.16,4.7C482.655,55.591,482.594,57.141,482.576,58.662 M476.069,55.476
		c-1.098-0.106-2.15-0.124-3.159-0.053c-1.01,0.07-1.905,0.23-2.684,0.478c-0.778,0.248-1.398,0.604-1.858,1.063
		c-0.461,0.46-0.69,1.045-0.69,1.753c0,0.99,0.292,1.762,0.876,2.311c0.584,0.548,1.39,0.822,2.417,0.822
		c1.381,0,2.479-0.31,3.293-0.93c0.814-0.618,1.415-1.282,1.806-1.991V55.476z M502.838,47.03c-1.098-0.389-2.09-0.585-2.975-0.585
		c-1.24,0-2.275,0.328-3.107,0.983c-0.832,0.656-1.39,1.497-1.673,2.523v17.155h-6.904V40.55h5.364l0.797,3.505h0.212
		c0.602-1.309,1.416-2.318,2.443-3.027c1.026-0.707,2.23-1.062,3.612-1.062c0.921,0,1.965,0.195,3.133,0.584L502.838,47.03z
		 M528.783,52.927c-0.087,0.85-0.221,1.734-0.396,2.654h-15.883c0.105,2.231,0.679,3.913,1.72,5.046
		c1.041,1.135,2.728,1.699,5.056,1.699c1.446,0,2.744-0.22,3.891-0.663c1.147-0.442,2.02-0.894,2.62-1.354l2.276,4.515
		c-1.063,0.85-2.506,1.567-4.329,2.151s-3.763,0.876-5.815,0.876c-4.285,0-7.419-1.248-9.402-3.744
		c-1.982-2.496-2.974-5.922-2.974-10.277c0-4.674,1.116-8.18,3.346-10.517c2.231-2.337,5.365-3.505,9.402-3.505
		c1.344,0,2.655,0.177,3.93,0.531c1.275,0.354,2.408,0.939,3.399,1.752c0.991,0.815,1.787,1.912,2.39,3.293
		c0.603,1.382,0.903,3.099,0.903,5.153C528.916,51.279,528.871,52.076,528.783,52.927 M521.618,46.872
		c-0.723-1.027-1.858-1.541-3.408-1.541c-1.796,0-3.126,0.54-3.989,1.62c-0.862,1.081-1.381,2.523-1.557,4.329h9.825
		C522.63,49.367,522.34,47.898,521.618,46.872"/>
	<path clip-path="url(#SVGID_2_)" fill="#FFFFFF" d="M64.132,34.274c-5.401,17.471-25.161,23.61-26.994,18.383
		c2.298,1.739,18.551-3.933,21.501-16.973c1.718-7.591-2.71-16.121-18.145-11.554C27.113,28.089,15.615,37.647,6.656,49.541
		c7.288-17.347,27.437-28.136,35.607-30.547C55.854,14.979,68.299,20.796,64.132,34.274 M103.814,27.096
		c-3.902,12.832-20.128,34.609-49.049,45.424c-33.003,12.343-37.034-6.615-31.967-18.416c3.517-8.189,10.035-15.546,17.571-18.641
		c6.865-2.819,9.324-1.864,9.324-1.864c-1.648,0.405-3.748,0.834-9.762,4.46c-6.079,3.664-10.676,8.896-12.622,16.523
		c-2.218,8.697,3.756,21.823,29.751,9.221C97.472,44.21,99.009,14.162,99.043,9.025C104.529,9.885,106.761,17.413,103.814,27.096
		 M47.543,30.956c-4.951,0.191-18.926,5.858-27.898,22.011c-8.823,15.884-3.207,35.531,17.258,36.596
		c13.703,0.711,28.675-4.267,41.9-13.463c-14.107,15.097-30.143,21.115-46.45,20.941C6.926,96.771,4.956,70.627,15.75,51.999
		c7.638-13.184,24.456-24.475,34.09-23.69c10.575,0.861,4.399,12.169,3.073,13.646C54.021,39.195,56.674,30.604,47.543,30.956
		 M80.631,21.648c-0.959,12.57-11.864,25.402-19.235,31.197c-6.382,5.017-16.105,10.562-24.1,9.852
		c-9.674-0.857-7.614-12.906-0.448-19.614c-7.057,11.658-2.124,14.826,2.517,15.111c4.381,0.269,10.922-1.459,18.849-7.685
		c12.904-10.135,25.985-38.081,3.472-42.283c-7.104-1.327-15.214,1.399-15.214,1.399c4.415-3.659,14.999-8.128,22.668-6.224
		C78.314,5.678,81.183,14.403,80.631,21.648"/>
	<path clip-path="url(#SVGID_2_)" fill="#FFFFFF" d="M89.454,63.741C78.354,74.01,65.65,80.27,51.354,83.738
		c-27.384,6.645-34.362-10.913-32.904-18.663c-0.003,4.717,4.18,22.04,30.932,13.813c37.354-11.487,52.44-36.991,52.44-36.991
		C102.061,45.705,100.705,53.335,89.454,63.741 M77.334,45.063c-12.87,13.98-29.632,20.079-32.643,19.664
		c3.659-0.575,31.214-10.831,40.225-39.696C89.812,9.35,81.884,1.934,74.998,1.129c5.807-1.979,11.27-1.295,14.706,1.555
		C96.437,8.272,94.239,26.702,77.334,45.063 M6.087,90.11c-4.781-8.214,2.11-29.823,3.737-31.181c0,0-7.876,17.426,0.378,31.243
		c1.693,2.835,4.644,4.859,7.039,6.594C12.238,96.393,8.749,94.681,6.087,90.11 M58.828,47.165
		c5.118-5.853,14.435-19.803,5.86-28.78c-8.416-8.811-29.219-1.935-37.701,4.913c3.06-3.499,8.746-7.757,15.122-9.988
		c11.316-3.958,20.712-2.738,25.571,3.422C74.443,25.304,66.095,40.398,58.828,47.165 M29.102,34.269
		C6.14,51.812,2,69.526,1.78,79.996c-2.74-4.79-3.169-14.103,4.963-26.149c5.112-7.573,13.521-16.244,21.965-21.603
		c11.155-7.08,19.332-7.276,21.065-6.623C46.954,25.537,38.618,26.999,29.102,34.269"/>
</g>
</svg>
